<?xml version="1.0" encoding="utf-8"?>
<!-- Generator: Adobe Illustrator 26.0.1, SVG Export Plug-In . SVG Version: 6.00 Build 0)  -->
<svg version="1.1" id="Lager_1" xmlns="http://www.w3.org/2000/svg" xmlns:xlink="http://www.w3.org/1999/xlink" x="0px" y="0px"
	 viewBox="0 0 650.9 569.9" style="enable-background:new 0 0 650.9 569.9;" xml:space="preserve">
<style type="text/css">
	.st0{fill:#F9CDDE;}
	.st1{fill:#FFFFFF;}
	.st2{fill:#0096C4;}
	.st3{fill:#D27160;}
	.st4{fill:#8E362B;}
	.st5{fill:#E0DDD7;}
	.st6{fill:#020203;}
	.st7{fill:none;stroke:#020203;stroke-width:0.15;stroke-miterlimit:10;}
	.st8{fill:#CC0066;}
</style>
<g id="Lager_4">
</g>
<g id="Lager_3">
	<path class="st0" d="M513.9,303c0,10.2-0.6,20.2-1.8,30.1v0.1c-3.2,26.7-10.6,52.2-21.5,75.6c-0.6,1.3-1.2,2.6-1.8,3.9
		c-6.2,12.9-13.6,25.2-21.8,36.8c-1.5,2.1-3.1,4.2-4.7,6.3c-0.1,0.1-0.2,0.2-0.2,0.3c-0.3,0.4-0.6,0.8-0.9,1.2
		c0,0.1-0.1,0.1-0.1,0.2c-0.1,0.1-0.2,0.3-0.3,0.4l0,0c-0.1,0.2-0.3,0.3-0.4,0.5c-0.2,0.2-0.3,0.4-0.5,0.6c-0.1,0.1-0.2,0.2-0.3,0.3
		c-0.1,0.1-0.2,0.3-0.3,0.4c-0.8,1-1.6,2-2.4,2.9c-0.4,0.4-0.7,0.9-1.1,1.3c-0.1,0.1-0.2,0.2-0.3,0.3l0,0c-0.1,0.2-0.3,0.3-0.4,0.5
		c-2.9,3.4-5.8,6.7-8.8,10c-15.7,16.8-33.7,31.5-53.5,43.5c-1.1,0.7-2.2,1.3-3.3,2c-0.2,0.1-0.5,0.2-0.7,0.4
		c-37.2,21.7-80.4,34.1-126.6,34.1c-52.7,0-101.6-16.2-142-43.9c-20-13.6-37.8-30.1-53.1-48.8c-2.5-3.1-5-6.2-7.3-9.4
		c-0.3-0.3-0.5-0.7-0.8-1c-0.5-0.7-1-1.3-1.5-2l0,0c-29.6-41.3-47-91.9-47-146.6c0-139,112.7-251.7,251.7-251.7
		c133.1,0,242,103.3,251.1,234c0,0.4,0,0.7,0.1,1.1c0.2,2.5,0.3,4.9,0.4,7.4C513.8,296.9,513.9,299.9,513.9,303z"/>
</g>
<path class="st1" d="M468,453.6l-3.8,1.6l-2.2,0.9l-16,6.7l0,0v1.4l0.2,10.5c-15.7,16.8-33.7,31.5-53.5,43.5c-1.1,0.7-2.2,1.3-3.3,2
	c-0.2,0.1-0.5,0.2-0.7,0.4c-37.2,21.7-80.4,34.1-126.6,34.1c-52.7,0-101.6-16.2-142-43.9c-20-13.6-37.8-30.1-53.1-48.8l6.4-27.6
	l-8.2-4.3l-0.6-0.3l-4.4-2.3l-0.1-0.1l-0.9-0.5l-1.1-0.5l0,0l-6.5-3.4c0,0,2.7-7.8,7.2-19.4c12.2-31,37.8-89.6,62-101
	c0.6-0.3,1.3-0.6,2-1c0.6-0.3,1.2-0.6,1.8-0.9c0.7-0.3,1.4-0.6,2.1-1c2.6-1.2,5.3-2.5,8.2-3.9c1.1-0.5,2.2-1,3.3-1.6
	c0.1,0,0.1-0.1,0.2-0.1c1.8-0.9,3.7-1.8,5.5-2.6c1.4-0.7,2.7-1.3,4.1-2c0.3-0.2,0.6-0.3,1-0.5c7-3.3,14.3-6.7,21.5-10
	c0.6-0.3,1.2-0.5,1.8-0.8s1.2-0.5,1.8-0.8c1.8-0.8,3.5-1.6,5.3-2.4c0.3-0.2,0.7-0.3,1-0.5c0.7-0.3,1.5-0.6,2.2-1
	c11.2-4.9,21.9-9.3,30.7-12.2c7.2-2.4,13.2-3.9,17.3-4c12-0.3,42.8,0.9,80.6,11.3c1.9,0.5,3.8,1.1,5.7,1.6l0,0
	c3.5,1,7.1,2.2,10.8,3.4c0.2,0,0.3,0.1,0.5,0.2c4.8,1.6,9.7,3.4,14.7,5.3c1.3,0.5,2.6,1,3.9,1.5c9.2,3.8,18.6,8.1,28,13.1
	c4,2.2,15.4,7.5,19.1,10.4c24.1,18.2,35.2,46.3,48.5,75.6c0,0.1,0.1,0.1,0.1,0.2c9.2,20.4,15.8,40,20,53.8c0.3,1,0.6,2.1,0.9,3
	c0,0.1,0.1,0.2,0.1,0.2c1.5,5.1,2.6,9.2,3.4,12C467.7,452.1,468,453.6,468,453.6z"/>
<path class="st2" d="M142.5,281.5l5.9-0.5l0.8,8c0,0-19,47.9-18.9,52.3s-2.3,19.5-2.3,19.5h-6.6c0,0,3.6-20.8,5.2-28.4
	S142.5,281.5,142.5,281.5z"/>
<path class="st3" d="M399.3,476.4c4.7,1.2,13.5-3.7,19.5-5.4c20.5-6,37.6-11.4,37.6-11.4l7.4,58.7c1.2,6.7-3.4,14.6-7.5,21.5
	c-18.9-2.9-36.4,39.5-62.9-5.2c-7.3-14.2-16.2-51.6-16.2-51.6L399.3,476.4z"/>
<path class="st3" d="M125.3,488.4c-0.2,0.8-0.4,1.7-0.5,2.5c-0.2,1-0.4,2-0.7,3c0,0.1-0.1,0.3-0.1,0.4c-0.1,0.5-0.2,1.1-0.4,1.6
	c0,0.1,0,0.2-0.1,0.3c-0.1,0.4-0.2,0.8-0.3,1.2c0,0.2-0.1,0.3-0.1,0.5c-1,4.4-2,8.7-3,12.9c-20-13.6-37.8-30.1-53.1-48.8
	c-2.5-3.1-5-6.2-7.3-9.4c-0.3-0.3-0.5-0.7-0.8-1c1.2-4.6,2.3-8.7,3.3-12.2c0.1-0.5,0.3-1,0.5-1.5c0-0.1,0.1-0.2,0.1-0.3
	c0.2-0.6,0.3-1.1,0.5-1.7c0.1-0.3,0.2-0.5,0.2-0.8c0-0.2,0.1-0.3,0.2-0.5l0,0c0.1-0.3,0.2-0.5,0.2-0.8c0.5-1.5,0.9-2.7,1.3-3.6
	c0-0.1,0-0.1,0.1-0.2c0.3-0.7,0.5-1.2,0.7-1.5l30.5,10.4c0,0,10.8,5.2,20,10.6l0,0c0.6,0.3,1.2,0.7,1.8,1c1,0.6,2,1.3,3,1.9
	c3.7,2.4,6.5,4.6,7.6,6.3C130.4,461,128.3,473.7,125.3,488.4z"/>
<path class="st4" d="M325.5,160.8c3.8-17.6,2.7-58.1-1.2-61.5s-27.8-18-33-18.9s-32.5-1.5-44.3,4.9s-25.1,19.4-34.5,19.4
	s-26.9,88-26.9,88s-6.2-6.1-14.2-21.1c-9.6-17.9-8.5-40.2-8.5-40.2l1.9-23.8l9.1-36.6c0,0,11.8-11.4,15.9-19.2s11.6-12.9,25.7-19
	c14.1-6.1,24-9.4,31.5-9.4s23.1-2.7,35.4,2.9c12.3,5.6,25.7,16.2,35.7,23.6s15.1,18.5,19,30.4c4.8,14.8,7.5,19.3,6.9,35.4
	s-0.1,24.8-3.3,38.8C337.9,166.8,324,185,324,185l-22.4,7.2"/>
<path class="st3" d="M336.7,139.2l-7.8,1.9l-5-43.9c0,0-11.6-9.9-13.4-14.4s-40.3-11.7-40.3-11.7l-49,10.6l-18.4,20.9l-12.7,13.9
	c0,0-1.7,13.5-2.9,18.9s-2.6,13.2-7.7,15.7s-0.8,14.9-0.8,14.9l6.6,30c0,0,4.1,7.2,11.1,4.8c0,0,8.3,23.5,16.6,30.7
	c1.5,1.3,2.2,45.9,0.8,51.5l43.4,77.5l21.8-31.8l19.9-29.1l13.1-18c0,0-2.4-47.1-2.4-59.4c0.8-5.2,4.5-7.1,7.8-16.4
	c3.3-9.3,3.3-21.2,3.3-21.2c7.7,2.7,13.2-7.2,13.2-7.2L336.7,139.2z"/>
<path class="st5" d="M159.6,394.3c5.7-6.3,49.2-6.6,49.2-6.6l-4.3,21.9l-48.6-0.4L159.6,394.3z"/>
<path class="st2" d="M174.5,273.8l6.2-2.2c0,0-0.5,9.6-0.4,10.6s-5.7,50.8,2.1,75.1l-9.7,0.8C172.6,358,166.2,282.9,174.5,273.8z"/>
<path class="st2" d="M147,485.3c-0.8,0.8,2.3,9.1,2.3,9.1s14-4,13.1-9.1C161.4,480.1,152.9,479.9,147,485.3z"/>
<path class="st2" d="M135.4,491.1c0.5,0.8-4.8,8.7-4.8,8.7s-9.4-4.8-6-8.7S132.2,486.6,135.4,491.1z"/>
<g>
	<g>
		<g>
			<path class="st6" d="M323.9,160.6c0.2-2.3,1.1-5.1,1.5-7.4c0.4-2.8,1.2-5.8,2-8.5c0.1,0,0.3,0.3,0.4,0.1c0.5-0.8,0.7-0.8,1-0.7
				c0.1,0-0.2,0.7,0,0.5c-0.2,0.7-0.5,1.8-0.1,1.2c0.2-0.2,0.3-1.1,0.6-1.3s0.3,0.3,0.6,0.2c0.1-0.2,0.2-0.7,0.3-0.9
				c0.2-0.2,0.3,0.3,0.4,0.1c0.3-0.6,0.5-1.5,0.8-2.4c0.1,0,0.3-0.1,0.3,0.3c-2.3,7.8-4,15.9-5.5,23.9c-0.2,0.9-0.4,0.2-0.5-0.6
				c0,0.2-0.2,0.2-0.1,0.4c-0.2,0-0.5-0.6-0.4-1.5l-0.1,0.7c-0.1,0.2-0.2,0-0.3-0.1c0-0.2,0.1-0.5,0-0.5s-0.2,0-0.3-0.1
				c0,0.2-0.1,0.7-0.2,0.9c0-0.2,0.1-0.5,0-0.5s-0.2,0-0.3-0.1c0-0.5,0.3-1.1,0.3-1.6h-0.2c-0.2,0.4-0.2,1.1-0.3,1.6
				c0-0.2-0.1-0.2-0.2-0.3c0-0.7,0.4-1.4,0.3-2.1l-0.1,0.7C323.4,162.4,323.9,161.3,323.9,160.6z"/>
		</g>
	</g>
</g>
<g>
	<g>
		<g>
			<path class="st6" d="M459.7,474.7c1.2,5.7,2.3,12.8,3.7,18.5c1.8,6.9,3.6,14.3,5.4,21.1c-0.1,0-0.5-0.5-0.4,0.1
				c0.4,2.3,0.2,2.4-0.1,2.5c-0.1,0-0.5-1.7-0.4-1.1c-0.5-1.7-1.3-4.5-1-2.8c0,0.6,0.8,2.9,0.7,3.5c0,0.6-0.5-0.5-0.6,0.2
				c0.2,0.6,0.5,1.7,0.6,2.3c0,0.6-0.5-0.5-0.4,0.1c0.3,1.8,1.1,4,1.8,6.3c-0.1,0-0.1,0.6-0.5-0.5c-6.1-19.8-10.9-40.7-13.6-61.3
				c-0.3-2.4,0.2-0.6,0.7,1.1c-0.2-0.6,0-0.6-0.1-1.2c0.2,0,0.7,1.1,1.1,3.4l-0.3-1.8c0-0.6,0.2,0,0.3,0c0.1,0.6,0.2,1.2,0.2,1.2
				s0.2,0,0.3,0c-0.1-0.6-0.2-1.8-0.3-2.3c0.1,0.6,0.2,1.2,0.2,1.2s0.2,0,0.3,0c0.2,1.2,0.4,2.9,0.6,4.1h0.2
				c-0.1-1.2-0.5-2.9-0.6-4.1c0.2,0.6,0.2,0.6,0.3,0.5c0.3,1.7,0.4,3.5,0.9,5.2l-0.3-1.8C459.1,470,459.3,472.9,459.7,474.7z"/>
		</g>
	</g>
</g>
<g>
	<g>
		<g>
			<path class="st6" d="M448,463.6c-8.2,2.8-18.4,5.7-26.7,8.5c-10,3.4-20.8,6.8-30.8,10c0-0.1,0.7-0.6-0.1-0.4
				c-3.4,0.9-3.5,0.6-3.6,0.3c0-0.1,2.5-0.8,1.6-0.7c2.5-0.8,6.7-2.2,4.1-1.5c-0.9,0.1-4.2,1.3-5.1,1.4s0.7-0.6-0.2-0.6
				c-0.8,0.3-2.5,0.8-3.3,1c-0.9,0.1,0.7-0.6-0.1-0.4c-2.5,0.7-5.9,1.8-9.2,2.8c0-0.1-0.9,0,0.7-0.6c29.2-9.3,59.2-19.1,88.5-28.1
				c3.4-1,0.9,0.1-1.5,1c0.8-0.3,0.9-0.1,1.7-0.5c0.1,0.2-1.5,1-4.8,2.2c0.8-0.3,1.7-0.5,2.5-0.8c0.9-0.2,0.1,0.2,0.1,0.3
				c-0.8,0.3-1.7,0.5-1.7,0.6s0.1,0.2,0.1,0.3c0.8-0.3,2.5-0.8,3.3-1c-0.8,0.3-1.7,0.5-1.7,0.6s0.1,0.2,0.1,0.3
				c-1.7,0.6-4.2,1.2-5.8,1.8l0.1,0.2c1.7-0.5,4.2-1.3,5.8-1.8c-0.8,0.3-0.8,0.4-0.8,0.5c-2.5,0.9-5.1,1.5-7.5,2.4
				c0.8-0.3,1.7-0.5,2.5-0.8C454.7,461.7,450.4,462.7,448,463.6z"/>
		</g>
	</g>
</g>
<g>
	<g>
		<g>
			<path class="st6" d="M70.9,428.4c6.8,1.6,14.9,4.6,21.5,7.2c8,3,16.3,7.1,23.5,11.5c-0.1,0.1-0.8-0.1-0.2,0.4
				c2.3,1.6,2.2,1.9,2,2.1c-0.1,0.1-1.8-1.1-1.3-0.6c-0.9-0.5-2.1-1.3-2.9-1.7c-0.8-0.4-1.1-0.5-0.2,0c0.5,0.5,3,1.8,3.5,2.3
				s-0.8,0-0.3,0.5c0.6,0.4,1.8,1.1,2.4,1.5c0.5,0.5-0.8,0-0.2,0.4c1.7,1.2,4.1,2.7,6.4,4.3c-0.1,0.1,0.4,0.6-0.8-0.1
				c-20.1-13.8-43.8-23.4-67.7-28.1c-2.7-0.6-0.6-0.5,1.5-0.3c-0.7-0.1-0.7-0.3-1.4-0.3c0-0.2,1.5-0.3,4.2,0.2
				c-0.7-0.2-1.4-0.3-2.1-0.4c-0.7-0.2,0-0.2,0.1-0.3c0.7,0.1,1.4,0.3,1.4,0.2c0-0.1,0-0.2,0.1-0.3c-0.7-0.1-2.1-0.4-2.8-0.5
				c0.7,0.1,1.4,0.3,1.4,0.2c0-0.1,0-0.2,0-0.3c1.4,0.2,3.4,0.8,4.8,1v-0.2c-1.4-0.4-3.4-0.8-4.8-1c0.7,0.1,0.7,0,0.8-0.1
				c2.1,0.4,4.1,1,6.2,1.3c-0.7-0.2-1.4-0.3-2.1-0.5C65.5,426.8,68.9,427.9,70.9,428.4z"/>
		</g>
	</g>
</g>
<g>
	<g>
		<g>
			<path class="st6" d="M215.7,242.2c0.4,4.8,0.2,10.8,0.6,15.6c0.4,5.9,0.6,12.2,0.8,18.1c-0.1,0-0.4-0.5-0.4,0c-0.1,2-0.4,2-0.7,2
				c-0.1,0,0-1.5-0.2-1c0-1.5-0.2-3.9-0.3-2.4c-0.1,0.5,0.1,2.5-0.1,2.9c-0.2,0.5-0.4-0.5-0.6,0c0,0.5,0,1.5,0,2
				c-0.1,0.5-0.4-0.5-0.4,0c-0.1,1.5,0,3.4,0.1,5.4c-0.1,0-0.3,0.5-0.4-0.5c-0.6-17.1-1.4-34.7-1.6-51.8c0-2,0.3-0.5,0.6,1
				c-0.1-0.5,0.1-0.5,0-1c0.2,0,0.6,1,0.7,2.9c0-0.5,0-1,0-1.5s0.2,0,0.3,0c0,0.5,0,1,0.1,1s0.2,0,0.3,0c0-0.5,0-1.5,0-2
				c0,0.5,0,1,0.1,1s0.2,0,0.3,0c0.1,1,0,2.4,0.1,3.4h0.2c0-1-0.1-2.4-0.1-3.4c0.1,0.5,0.1,0.5,0.3,0.5c0.1,1.5-0.1,2.9,0.2,4.4
				c0-0.5,0-1,0-1.5C215.8,238.2,215.6,240.7,215.7,242.2z"/>
		</g>
	</g>
</g>
<g>
	<g>
		<g>
			<path class="st6" d="M179.2,131.2c-1.7-0.7-3.5-2-5.3-2.7c-2.1-0.8-4.2-1.9-6.1-3c0.1-0.1,0.3-0.2,0.2-0.4
				c-0.5-0.5-0.4-0.8-0.3-1c0.1-0.1,0.5,0.3,0.4,0.1c0.5,0.3,1.3,0.6,0.9,0.3c-0.1-0.2-0.8-0.4-0.9-0.7s0.4-0.3,0.3-0.5
				c-0.2-0.1-0.5-0.3-0.6-0.3c-0.1-0.2,0.4-0.3,0.2-0.4c-0.4-0.4-1.1-0.7-1.8-1c0.1-0.1,0-0.3,0.3-0.2c5.8,2.9,11.7,5.9,17.3,9.1
				c0.6,0.4,0,0.4-0.6,0.3c0.2,0,0.1,0.2,0.3,0.2c-0.1,0.2-0.6,0.3-1.3,0c0.2,0.1,0.3,0.2,0.5,0.3c0.1,0.2-0.1,0.2-0.2,0.3
				c-0.2-0.1-0.3-0.2-0.4-0.1c-0.1,0.1-0.1,0.2-0.1,0.2c0.2,0.1,0.5,0.3,0.6,0.3c-0.2-0.1-0.3-0.2-0.4-0.1c0,0.1-0.1,0.2-0.1,0.2
				c-0.4-0.1-0.8-0.5-1.1-0.6l-0.1,0.2c0.3,0.2,0.8,0.4,1.1,0.6c-0.2,0-0.2,0-0.3,0.2c-0.5-0.2-0.9-0.7-1.5-0.7
				c0.2,0.1,0.3,0.2,0.5,0.3C180.4,132.1,179.7,131.4,179.2,131.2z"/>
		</g>
	</g>
</g>
<g>
	<g>
		<g>
			<path class="st6" d="M186.8,103.2c-2.3-0.7-4.7-2.2-6.8-3.3c-2.6-1.3-5-3.3-7.1-5.3c0.1-0.1,0.4-0.1,0.3-0.3
				c-0.5-0.8-0.3-1-0.1-1.2c0.1-0.1,0.5,0.5,0.4,0.2c0.5,0.5,1.4,1.3,1,0.7c-0.1-0.2-0.8-0.8-0.8-1.1c0-0.3,0.5-0.1,0.4-0.4
				c-0.2-0.2-0.5-0.5-0.6-0.7c0-0.3,0.5-0.1,0.3-0.3c-0.4-0.6-1-1.2-1.5-1.9c0.1-0.1,0.1-0.3,0.4,0c5,6,12.1,10.2,19.4,12.3
				c0.8,0.3,0.1,0.4-0.6,0.4c0.2,0,0.2,0.2,0.4,0.2c0,0.2-0.6,0.4-1.5,0.2c0.2,0.1,0.4,0.1,0.7,0.2c0.2,0.1,0,0.2-0.1,0.3
				c-0.2-0.1-0.4-0.1-0.5-0.1s-0.1,0.2-0.1,0.3c0.2,0.1,0.7,0.2,0.9,0.2c-0.2-0.1-0.5-0.1-0.5-0.1s0,0.2-0.1,0.3
				c-0.5-0.1-1.1-0.4-1.6-0.5l-0.1,0.2c0.4,0.2,1.1,0.4,1.6,0.5c-0.2,0-0.3,0.1-0.3,0.2c-0.7-0.1-1.3-0.5-2-0.6
				c0.2,0.1,0.5,0.2,0.7,0.2C188.5,104.1,187.5,103.4,186.8,103.2z"/>
		</g>
	</g>
</g>
<g>
	<g>
		<g>
			<path class="st6" d="M203.8,83.6c-2.1-1.7-4.1-4.3-6.1-6.2c-2.4-2.3-4.6-5.1-6.5-7.7c0.1-0.1,0.4,0,0.3-0.2c-0.5-1-0.3-1.2,0-1.3
				c0.1-0.1,0.5,0.7,0.4,0.4c0.5,0.7,1.3,1.7,1,1c0-0.3-0.8-1.1-0.8-1.4s0.5,0,0.5-0.4c-0.2-0.2-0.5-0.7-0.6-0.9
				c0-0.3,0.5,0,0.3-0.2c-0.4-0.7-1-1.6-1.6-2.5c0.1-0.1,0.1-0.4,0.4,0c5.3,7.7,11.9,14.7,18.7,21.1c0.8,0.8,0,0.4-0.8,0.1
				c0.2,0.1,0.1,0.3,0.4,0.4c-0.1,0.2-0.8,0.1-1.6-0.6l0.6,0.5c0.1,0.2-0.1,0.2-0.2,0.2c-0.2-0.2-0.4-0.4-0.5-0.3
				c0,0.1-0.1,0.2-0.2,0.2c0.2,0.2,0.6,0.5,0.8,0.7c-0.2-0.2-0.4-0.4-0.5-0.3c0,0.1-0.1,0.2-0.2,0.2c-0.5-0.3-1-1-1.4-1.3l-0.1,0.2
				c0.4,0.4,1,0.9,1.4,1.3c-0.2-0.1-0.3-0.1-0.4,0c-0.6-0.5-1.1-1.2-1.8-1.6l0.6,0.6C205.3,85.2,204.5,84.1,203.8,83.6z"/>
		</g>
	</g>
</g>
<g>
	<g>
		<g>
			<path class="st6" d="M219.1,61.8c-0.8-2.5-1.2-5.7-1.9-8.2c-0.9-3-1.7-6.4-2.3-9.5c0.1,0,0.4,0.2,0.4-0.1c0-1.1,0.2-1.1,0.5-1.2
				c0.1,0,0.2,0.8,0.2,0.5c0.2,0.8,0.5,2,0.5,1.2c0.1-0.3-0.3-1.3-0.1-1.6c0.1-0.3,0.5,0.2,0.6-0.1c-0.1-0.3-0.2-0.8-0.2-1
				c0.1-0.3,0.5,0.2,0.4-0.1c0-0.8-0.3-1.8-0.5-2.8c0.1,0,0.2-0.3,0.4,0.2c2.1,9,4.4,18.2,6.1,27.2c0.2,1-0.3,0.3-0.6-0.4
				c0.1,0.2-0.1,0.3,0,0.5c-0.2,0-0.6-0.4-0.9-1.4c0.1,0.3,0.1,0.5,0.2,0.8c0,0.3-0.2,0-0.3,0.1c-0.1-0.3-0.1-0.5-0.2-0.5
				s-0.2,0-0.3,0.1c0.1,0.3,0.2,0.8,0.2,1c-0.1-0.3-0.1-0.5-0.2-0.5s-0.2,0-0.3,0.1c-0.2-0.5-0.2-1.3-0.4-1.8h-0.2
				c0,0.5,0.3,1.3,0.4,1.8c-0.1-0.2-0.2-0.2-0.3-0.2c-0.2-0.8-0.2-1.6-0.6-2.3c0.1,0.3,0.1,0.5,0.2,0.8
				C219.3,63.9,219.3,62.5,219.1,61.8z"/>
		</g>
	</g>
</g>
<g>
	<g>
		<g>
			<path class="st6" d="M333.5,120.2c1.2,0,2.6,0.5,3.8,0.4c1.4-0.2,3-0.2,4.4-0.2c0,0.1-0.1,0.3,0,0.4c0.5,0.2,0.5,0.4,0.5,0.7
				c0,0.1-0.4,0-0.2,0.2c-0.4,0-1,0.1-0.6,0.2c0.1,0.1,0.6,0,0.8,0.2s-0.1,0.4,0,0.6c0.1,0,0.4,0,0.5-0.1c0.1,0.1-0.1,0.4,0,0.4
				c0.4,0.1,0.9,0,1.4-0.1c0,0.1,0.2,0.2-0.1,0.3c-4.5,0.8-9.4,0.7-13.7-0.8c-0.5-0.2,0-0.4,0.4-0.4c-0.1,0-0.1-0.2-0.2-0.1
				c0.1-0.2,0.4-0.4,0.9-0.4l-0.4-0.1c-0.1-0.1,0.1-0.2,0.1-0.3c0.1,0,0.2,0.1,0.3,0s0-0.2,0.1-0.3c-0.1,0-0.4-0.1-0.5-0.1
				c0.1,0,0.2,0.1,0.3,0s0.1-0.2,0.1-0.3c0.2,0,0.6,0.2,0.8,0.2v-0.2c-0.2-0.1-0.6-0.2-0.8-0.2c0.1,0,0.2-0.1,0.2-0.2
				c0.4,0,0.7,0.3,1.1,0.2l-0.3-0.1C332.6,119.8,333.2,120.2,333.5,120.2z"/>
		</g>
	</g>
</g>
<g>
	<g>
		<g>
			<path class="st6" d="M329.7,92.1c1.3-0.5,3-0.5,4.3-0.9c1.6-0.6,3.3-0.9,4.9-1.2c0,0.1-0.1,0.4,0.1,0.4c0.6,0.1,0.6,0.4,0.7,0.6
				c0,0.1-0.4,0.1-0.2,0.2c-0.4,0.1-1.1,0.3-0.6,0.3c0.2,0.1,0.7-0.1,0.8,0.1c0.2,0.2-0.1,0.4,0.1,0.6c0.1,0,0.4-0.1,0.5-0.1
				c0.2,0.1-0.1,0.4,0.1,0.4c0.4,0.1,1-0.1,1.5-0.2c0,0.1,0.2,0.2-0.1,0.4c-4.7,1-9.4,2.1-14.1,2.8c-0.5,0-0.2-0.3,0.2-0.6
				c-0.1,0.1-0.2-0.1-0.3,0c0-0.2,0.2-0.6,0.7-0.8c-0.1,0-0.3,0.1-0.4,0.1c-0.2,0,0-0.2-0.1-0.3c0.1,0,0.3-0.1,0.3-0.1s0-0.2,0-0.3
				c-0.1,0-0.4,0.1-0.5,0.1c0.1,0,0.3-0.1,0.3-0.1s0-0.2,0-0.3c0.3-0.1,0.7-0.1,0.9-0.2v-0.2c-0.3,0-0.7,0.1-0.9,0.2
				c0.1-0.1,0.1-0.2,0.1-0.3c0.4-0.1,0.8,0,1.2-0.3c-0.1,0-0.3,0.1-0.4,0.1C328.6,92.1,329.3,92.2,329.7,92.1z"/>
		</g>
	</g>
</g>
<g>
	<g>
		<g>
			<path class="st6" d="M304.4,74.6c1.7-1.8,4.3-3.5,6.3-5c2.4-1.9,5.2-3.5,8-4.7c0,0.1-0.1,0.4,0.2,0.4c1-0.2,1.1,0,1.2,0.3
				c0,0.1-0.7,0.3-0.4,0.3c-0.7,0.3-1.8,0.9-1,0.7c0.3,0,1.1-0.5,1.4-0.4s-0.1,0.5,0.2,0.6c0.2-0.1,0.7-0.3,0.9-0.4
				c0.3,0-0.1,0.5,0.2,0.4c0.7-0.2,1.6-0.5,2.5-0.9c0,0.1,0.3,0.2-0.1,0.4c-7.8,2.9-15,7.9-20.7,13.8c-0.7,0.6-0.4-0.1-0.1-0.7
				c-0.1,0.2-0.3,0.1-0.4,0.3c-0.2-0.1-0.1-0.7,0.5-1.5c-0.2,0.2-0.3,0.3-0.5,0.5c-0.2,0.1-0.2-0.1-0.2-0.2c0.2-0.2,0.3-0.3,0.3-0.4
				s-0.2-0.1-0.2-0.2c-0.2,0.2-0.5,0.5-0.7,0.7c0.2-0.2,0.3-0.4,0.3-0.4c0-0.1-0.2-0.1-0.2-0.2c0.3-0.4,0.9-0.8,1.2-1.2l-0.1-0.2
				c-0.4,0.3-0.9,0.9-1.2,1.2c0.1-0.2,0.1-0.3,0-0.4c0.5-0.6,1.2-1,1.5-1.6c-0.2,0.2-0.4,0.3-0.5,0.5
				C302.8,75.8,303.9,75.1,304.4,74.6z"/>
		</g>
	</g>
</g>
<g>
	<g>
		<g>
			<path class="st6" d="M282.6,66.8c1.8-2.7,4.6-5.4,6.8-7.8c2.6-2.9,5.7-5.8,8.8-8.1c0.1,0.1,0,0.5,0.2,0.3
				c1.2-0.6,1.3-0.4,1.5-0.2c0.1,0.1-0.8,0.6-0.4,0.5c-0.8,0.6-2,1.6-1.2,1.1c0.3-0.1,1.3-1,1.7-1s0,0.5,0.4,0.5
				c0.3-0.2,0.8-0.6,1-0.8c0.3-0.1,0,0.5,0.2,0.3c0.8-0.5,1.8-1.2,2.9-1.9c0.1,0.1,0.4,0-0.1,0.5c-9.1,6.2-17,14.4-23.2,23.4
				c-0.8,1-0.5,0.1-0.1-0.8c-0.1,0.3-0.3,0.2-0.4,0.5c-0.2-0.1-0.1-0.8,0.6-1.9l-0.5,0.8c-0.2,0.2-0.2-0.1-0.3-0.2
				c0.2-0.3,0.4-0.5,0.3-0.6c-0.1,0-0.2-0.1-0.2-0.2c-0.2,0.3-0.5,0.8-0.7,1.1c0.2-0.3,0.4-0.5,0.3-0.6s-0.2-0.1-0.2-0.2
				c0.3-0.6,1-1.3,1.3-1.8l-0.2-0.1c-0.4,0.5-1,1.3-1.3,1.8c0.1-0.3,0.1-0.3,0-0.4c0.5-0.8,1.2-1.5,1.6-2.4l-0.6,0.8
				C280.8,68.7,282,67.6,282.6,66.8z"/>
		</g>
	</g>
</g>
<g>
	<g>
		<g>
			<path class="st6" d="M259.4,58.7c0.7-3.8,2.1-8.2,3-11.9c1-4.5,2.5-9.3,4.1-13.6c0.1,0,0.2,0.5,0.4,0.1c0.7-1.4,1-1.3,1.2-1.2
				c0.1,0-0.4,1.1-0.1,0.8c-0.4,1.1-0.9,2.9-0.4,1.9c0.2-0.3,0.6-1.8,1-2.1c0.3-0.3,0.3,0.5,0.6,0.2c0.1-0.4,0.4-1.1,0.5-1.4
				c0.3-0.3,0.2,0.5,0.4,0.1c0.5-1,1-2.5,1.5-3.9c0.1,0.1,0.4-0.3,0.2,0.5c-4.6,12.5-8.2,25.7-11.1,38.7c-0.4,1.5-0.4,0.3-0.4-0.9
				c0,0.4-0.2,0.3-0.2,0.7c-0.2,0-0.4-0.9-0.1-2.4l-0.2,1.1c-0.1,0.4-0.2,0-0.3-0.1c0.1-0.4,0.2-0.8,0.1-0.8s-0.2,0-0.3-0.1
				c-0.1,0.4-0.2,1.1-0.3,1.5c0.1-0.4,0.2-0.8,0.1-0.8s-0.2,0-0.3-0.1c0.1-0.8,0.5-1.9,0.6-2.6h-0.2c-0.2,0.7-0.4,1.9-0.6,2.6
				c0-0.4,0-0.4-0.2-0.4c0.2-1.1,0.6-2.2,0.7-3.4l-0.2,1.1C258.5,61.7,259.1,59.9,259.4,58.7z"/>
		</g>
	</g>
</g>
<g>
	<g>
		<g>
			<path class="st6" d="M242.5,59.6c-0.8-4.2-0.7-9.3-0.8-13.6c-0.1-5.1,0.5-10.7,1.7-15.7c0.1,0,0.2,0.5,0.4,0.1
				c0.6-1.6,0.8-1.6,1.1-1.5c0.1,0-0.3,1.2,0,0.9c-0.3,1.2-0.6,3.3-0.2,2.1c0.2-0.4,0.5-2,0.7-2.4c0.3-0.4,0.3,0.5,0.6,0.1
				c0.1-0.4,0.3-1.2,0.4-1.6c0.2-0.4,0.3,0.5,0.4,0.1c0.4-1.2,0.8-2.8,1.3-4.4c0.1,0,0.4-0.3,0.2,0.5c-4.2,13.8-4.5,29-1.4,43.1
				c0.3,1.6-0.2,0.5-0.7-0.7c0.2,0.4,0,0.4,0.1,0.8c-0.2,0-0.7-0.7-1.1-2.3c0.1,0.4,0.2,0.8,0.2,1.2s-0.2,0-0.3,0.1
				c-0.1-0.4-0.2-0.8-0.2-0.8c-0.1,0-0.2,0-0.3,0c0.1,0.4,0.3,1.2,0.4,1.6c-0.1-0.4-0.2-0.8-0.2-0.8s-0.2,0-0.3,0.1
				c-0.3-0.8-0.3-2.1-0.6-2.9h-0.2c0.1,0.8,0.4,2.1,0.6,2.9c-0.2-0.4-0.2-0.4-0.4-0.4c-0.3-1.2-0.3-2.5-0.8-3.7
				c0.1,0.4,0.1,0.8,0.2,1.2C242.7,63,242.7,60.9,242.5,59.6z"/>
		</g>
	</g>
</g>
<g>
	<g>
		<g>
			<path class="st6" d="M196.7,103.7c1.8-3.5,4-7.1,6.8-10.3c2.8-3.2,6.3-6.1,10-8.4c3.8-2.2,7.9-3.9,11.9-5.3s7.9-2.7,11.7-3.7
				c9-2.5,18.8-4.2,28.6-4.8c9.8-0.6,20,0.3,28.9,4c0,0.1-1.6-0.3-0.2,0.4c2.9,1.3,4.2,2.2,4.9,2.7c0.6,0.5,0.6,0.6,0.5,0.7
				c0,0.1-1-0.5-1.9-1s-1.6-0.8-0.9-0.4c-2.1-1-5-2.1-6.9-2.7c-0.9-0.3-1.6-0.4-1.8-0.4s0.2,0.1,1.3,0.5c0.7,0.3,2.6,0.8,4.4,1.6
				c1.8,0.7,3.5,1.6,4.2,2.1c1.3,0.9-1.5-0.4-0.3,0.5c1.4,0.7,4,2.3,5.2,3.2c1.1,1-1.5-0.6-0.2,0.3c1.8,1.4,3.8,3.1,5.7,5.2
				s3.6,4.6,4.9,7.3c-0.1,0,0,0.4,0,0.4s-0.3-0.3-1-1.6c-1.5-2.8-3.6-5.4-5.9-7.7c-2.4-2.2-5-4.2-7.9-5.8
				c-5.8-3.3-12.3-5.1-18.9-5.8c-6.7-0.8-13.5-0.5-20.2,0.2c-6.8,0.7-13.5,2-20.1,3.6c-3.3,0.8-6.6,1.8-9.8,2.9s-6.4,2.2-9.5,3.6
				c-6.1,2.7-11.4,6.7-15.5,11.9c-2,2.6-3.9,5.4-5.4,8.4s-2.9,6-4,9.2c-2.3,6.3-4,12.9-5.5,19.4c-1.4,6-0.7,1.4,0.2-3.1
				c-0.3,1.5-0.5,1.5-0.8,3c-0.2,0,0.1-3.2,1.6-9.2c-0.4,1.5-0.8,3-1.1,4.5c-0.4,1.5-0.2-0.1-0.3-0.1c0.4-1.5,0.8-3,0.7-3
				s-0.2-0.1-0.3-0.1c-0.4,1.5-1.1,4.5-1.5,6c0.2-0.8,0.4-1.5,0.5-2.1s0.2-0.9,0.2-1c-0.1,0-0.2-0.1-0.3-0.1c0.7-3,2-7.5,2.9-10.5
				l-0.3,0.2c-1,3-2.2,7.5-2.9,10.5c0.3-1.5,0.2-1.6,0.1-1.6c1.1-4.6,2.5-9,4-13.5c-0.6,1.5-1,3-1.5,4.4c0.2-0.8,0.5-1.8,0.8-3
				c0.4-1.2,0.9-2.5,1.4-3.9C194.3,108.7,195.6,105.8,196.7,103.7z"/>
		</g>
	</g>
</g>
<g>
	<g>
		<g>
			<path class="st6" d="M338.3,86.9c-2.8-8.9-7-17.9-12.8-26.1s-13.5-15.4-22-21.3c-1-0.8-2.2-1.5-3.2-2.1l-3.3-2l-3.4-1.8l-1.7-0.9
				c-0.6-0.3-1.2-0.5-1.8-0.8c-1.2-0.5-2.4-1-3.5-1.6c-1.2-0.5-2.4-0.9-3.6-1.3c-2.4-0.9-4.8-1.6-7.3-2.3c-1.2-0.4-2.5-0.6-3.7-0.9
				c-1.2-0.2-2.5-0.5-3.7-0.8c-1.2-0.2-2.5-0.3-3.7-0.5l-1.8-0.2c-0.6-0.1-1.2-0.1-1.8-0.1c-1.2-0.1-2.4-0.1-3.7-0.2
				c-0.6-0.1-1.2-0.1-1.8,0h-1.8c-1.2,0-2.4,0-3.6,0.1c-1.2,0.1-2.4,0.2-3.5,0.3l-2.1,0.2c-0.7,0.1-1.4,0.2-2.1,0.3
				c-1.4,0.2-2.8,0.5-4.2,0.7c-1.4,0.3-2.8,0.7-4.2,1c-0.7,0.2-1.4,0.3-2.1,0.5l-2,0.6c-5.5,1.6-10.8,4-15.9,6.7l-3.8,2.1l-3.7,2.4
				c-0.6,0.4-1.2,0.8-1.8,1.2l-1.8,1.3c-1.1,0.9-2.4,1.7-3.5,2.7c-4.5,3.7-8.7,7.9-12.5,12.3l-2.7,3.5c-0.4,0.6-0.9,1.1-1.3,1.8
				l-1.2,1.8l-1.2,1.8c-0.4,0.6-0.8,1.2-1.2,1.8l-2.2,3.8c-0.4,0.6-0.7,1.3-1,1.9l-0.9,2c-0.6,1.3-1.3,2.6-1.8,4l-0.8,2l-0.7,2.1
				l-0.7,2.1l-0.6,2.1c-3.4,11.1-4.8,22.7-4.9,34c-0.1,0-0.2-3.8-0.4,0c-0.2,7.6,0,11.4,0,13.3c0,1.9-0.1,1.9-0.3,1.9
				c0,0,0-0.2-0.1-0.5c0-0.3-0.1-0.7-0.1-1.2c-0.1-1-0.1-2.3-0.2-3.5c-0.1-2.4-0.1-4.3-0.1-2.4c-0.2-5.7,0-13.3,0.4-18.1
				c0.1-2.4,0.4-4,0.4-4.4s-0.1,0.6-0.5,3.4c-0.2,1.9-0.6,6.6-0.7,11.4s0.1,9.5,0.1,11.4c0,3.8-0.6-3.8-0.6,0
				c0.2,3.8,0.8,11.5,1.3,15.2c0.4,3.8-0.9-3.8-0.4,0.1c0.7,5.7,2,12.5,4.9,19.1c2.9,6.7,7.1,13.2,11.4,19.5c-0.1,0.1,1.9,3.3-2.4-3
				c-2.3-3.5-4.6-7.1-6.6-10.8c-2-3.8-3.7-7.7-5-11.8s-2.1-8.3-2.7-12.5s-1-8.4-1.2-12.6c-0.6-8.4-0.6-16.9,0.1-25.4
				c0.4-4.2,0.9-8.5,1.7-12.7s1.8-8.4,3.1-12.4c0.3-1,0.6-2,1-3.1c0.4-1,0.7-2,1.1-3l1.2-3c0.4-1,0.9-1.9,1.4-2.9l1.4-2.9l1.6-2.8
				l1.6-2.8l1.8-2.7c4.8-7.2,10.6-13.6,17.1-19.1c13.1-11.1,29.3-18.7,46.4-21.1c17.1-2.5,34.8,0.7,50.4,8.1
				c15.5,7.4,29,19.1,38.2,33.7c4.6,7.3,8,15.2,10.4,23.5c2.4,8.2,3.7,16.7,4.1,25.2c0.8,17-1.9,34-7.1,50c-2.5,7.3-3,8.1-2.3,5.8
				c0.4-1.2,1-3.1,1.7-5.4c0.3-1.2,0.7-2.5,1.1-3.8s0.8-2.7,1.1-4.1c-0.4,1.9-0.8,2.8-1.1,3.7s-0.6,1.8-1.2,3.7c0,0,0-0.5,0.2-1.4
				s0.6-2.3,1.1-4.2c0.4-1.9,1-4.2,1.6-7c0.5-2.8,1.3-6.1,1.8-9.9c-0.6,3.8-1.4,7.5-2.3,11.2c-1,3.7-0.2-0.1-0.3-0.1
				c0.5-1.9,0.8-3.7,1.1-5.1c0.3-1.4,0.5-2.3,0.4-2.3s-0.2,0-0.3-0.1c-0.4,1.9-1,4.7-1.6,7.4c-0.7,2.8-1.4,5.5-2,7.4
				c0.6-1.8,1-3.7,1.4-5c0.2-0.7,0.3-1.3,0.4-1.7s0.1-0.6,0.1-0.6c-0.1,0-0.2-0.1-0.3-0.1c0.5-1.8,0.8-3.9,1.3-6.1
				c0.5-2.2,0.8-4.6,1.2-6.9c0.3-2.3,0.6-4.7,0.9-6.9c0.2-2.2,0.3-4.4,0.4-6.3h-0.2c-0.2,1.9-0.3,4-0.5,6.3
				c-0.3,2.2-0.5,4.6-0.9,6.9s-0.7,4.7-1.2,6.9s-0.9,4.3-1.3,6.1c0.8-3.7,0.7-3.7,0.6-3.8c1.2-5.5,2-11.2,2.6-16.8
				c0.2-2.8,0.5-5.7,0.5-8.5c0-1.4,0.1-2.8,0-4.2c-0.1-1.4-0.1-2.8-0.2-4.2c0,1.9,0.1,3.8,0.1,5.7l-0.1,5.7
				c-0.1-3.8,0.2-10.4-0.6-17.4C341.4,99.7,339.9,92.3,338.3,86.9z"/>
		</g>
	</g>
</g>
<g>
	<g>
		<g>
			<path class="st6" d="M180.3,156.3c0.1,1.3,0.4,2.6,0.7,4.1s0.6,3,0.9,4.5c0.6,3.1,1.1,6.1,1.8,8.9c0.8,3.3,1.5,6.7,2.2,10.2
				c0.3,1.7,0.7,3.4,1,5.2s0.6,3.4,1,4.9c-0.1,0-0.5-0.4-0.4,0.1c0.4,2.1,0.3,2.1,0,2.2c-0.2,0.1-0.6-1.5-0.5-1
				c-0.6-1.5-1.1-4.3-0.9-2.6c0,0.6,0.7,2.7,0.7,3.3s-0.6-0.4-0.6,0.2c0.2,0.6,0.7,1.6,1.1,2.1c0.2,0.6-0.7-0.3-0.3,0.2
				c0.2,0.4,0.5,0.8,0.9,1.2c0.2,0.2,0.4,0.4,0.6,0.6c0.1,0.1,0.3,0.3,0.4,0.4c0.1,0.1,0.2,0.3,0.3,0.4c0,0.1,0,0.1,0.1,0.2v0.1l0,0
				c0.1,0,0.3,0,0.4,0c0.2,0,0.4,0.1,0.5,0.1s0.1,0.1,0.1,0.1s0.1-0.1,0.2-0.1c0.2,0,0.5-0.1,0.7-0.1c0.1,0,0.1,0,0.1,0l0,0l0,0
				c0-0.1,0-0.2,0-0.3c0-0.2,0.1-0.5,0.2-0.7c0.1,0,0.2-0.1,0.2-0.1s0,0.2,0,0.6c0,0.1,0,0.2-0.1,0.3v0.1l0,0c-0.1,0-0.3,0-0.4,0
				c-0.3,0-0.6,0-0.8,0.1c-0.1,0-0.2,0.1-0.2,0.1s-0.1-0.1-0.2-0.1c-0.2-0.1-0.4-0.1-0.6-0.1s-0.3,0-0.4,0h-0.2l0,0v-0.1
				c-0.1-0.2-0.3-0.6-0.7-0.9c-1.1-1-2-2.2-2.5-3.5c-1.1-2.6-1.4-5.1-2-7.5c-1-4.9-1.9-9.8-2.9-14.7s-1.9-9.8-2.9-14.7
				c-0.2-1.2-0.5-2.5-0.5-3.9c-0.1-1.4,0.1-2.9,0.7-4.4c0.3-0.7,0.8-1.5,1.4-2.1s1.3-1.1,2-1.4c0.7-0.3,1.5-0.6,2.4-0.6
				s1.8,0.1,2.7,0.6c0.8,0.5,1,0.9,1.2,1.1c0,0.1,0,0.1-0.2,0c-0.2-0.2-0.6-0.4-1-0.7c-0.5-0.2-1.1-0.4-1.6-0.4
				c0.4,0,0.5,0.1,0.7,0.2c0.2,0.1,0.3,0.2,0.7,0.3c-0.1,0.1-0.5,0-1.1-0.1s-1.7,0-2.8,0.5c0.6-0.2,1.2-0.4,1.8-0.4
				c0.6,0.1,0,0.2,0,0.3c-0.6,0-1.1,0.2-1.1,0.2c0,0.1,0,0.2,0.1,0.3c0.5-0.2,1.6-0.2,2.1,0c-0.5-0.2-1-0.1-1-0.1c0,0.1,0,0.2,0,0.3
				c-0.5,0-1.1,0.1-1.7,0.4c-0.6,0.2-1.1,0.6-1.4,1l0.1,0.1c0.3-0.3,0.8-0.7,1.4-0.9c0.5-0.3,1.1-0.4,1.6-0.4
				c-0.5,0.1-0.4,0.2-0.4,0.3c-1.2,0.2-2.6,1-2.9,2.4c0.2-0.4,0.4-0.8,0.7-1.1c-0.1,0.3-0.2,0.5-0.4,0.7c-0.1,0.3-0.3,0.7-0.4,1.1
				C180.3,154.5,180.2,155.5,180.3,156.3z"/>
		</g>
	</g>
</g>
<g>
	<g>
		<g>
			<path class="st6" d="M334.8,138c1,0,2.1,0.3,3,1.1c0.9,0.7,1.4,1.8,1.7,2.8c0.5,2,0.1,3.9-0.1,5.5c-0.4,3.4-0.8,6.8-1.1,9.8
				c-0.3,3.7-0.7,7.5-1,11.4c-0.2,1.9-0.4,3.9-0.8,5.9s-1.1,4-2.2,5.8c-0.1-0.1,0-0.8-0.3-0.2c-0.8,1.1-1.4,1.5-1.7,1.7
				c-0.3,0.1-0.4,0.1-0.5-0.1c0,0,0.3-0.4,0.6-0.7s0.5-0.6,0.2-0.4c1.3-1.5,2.2-4.5,1.4-2.8c-0.2,0.3-0.5,1-0.9,1.6
				c-0.4,0.7-0.9,1.3-1.2,1.4c-0.5,0.3,0.1-0.7-0.5-0.4c-0.4,0.4-1.2,1.2-1.7,1.5c-0.5,0.2,0.2-0.7-0.2-0.3c-1.4,0.8-3.5,1.7-5.5,1
				c0-0.1-0.1-0.2-0.1-0.2s0,0,0.2,0c0.1,0,0.2,0,0.5,0.1c2,0.4,4.3-0.6,6-2.2c1.6-1.6,2.5-4,3-6.5s0.7-5.3,1-8l0.9-8.2
				c0.3-2.7,0.6-5.4,0.9-8.2c0.2-2.7,0.9-5.7,0.2-7.2c-0.3-0.7-0.8-1.1-1.7-1.1c-0.8,0-1.9,0.4-2.8,1c-0.8,0.6-1.7,1.6-2.6,2.6
				s-2,2.1-3.4,3c-0.7,0.4-1.1,0.5-1.3,0.5c-0.1,0-0.1,0,0.1-0.2c0.4-0.2,1.3-0.9,2.1-1.6c-0.5,0.5-0.6,0.3-1.2,0.7
				c-0.1-0.2,1-1.1,2.6-3c-0.4,0.5-0.8,0.9-1.3,1.3c-0.5,0.4-0.1-0.1-0.2-0.2c0.5-0.4,0.9-0.9,0.8-0.9s-0.2-0.1-0.2-0.2
				c-0.4,0.4-1.3,1.3-1.8,1.6c0.5-0.3,0.9-0.8,0.9-0.8c0-0.1-0.1-0.1-0.2-0.2c0.8-0.8,2.1-2.1,2.9-3.1l-0.2-0.1
				c-1,0.9-2.1,2.3-2.9,3.1c0.4-0.4,0.3-0.5,0.2-0.6c0.6-0.7,1.2-1.3,1.9-2s1.3-1.4,2.1-2.1c-0.6,0.4-1.1,0.9-1.5,1.4
				c0.3-0.6,1.2-1.5,2.4-2.1C332.2,138.3,333.6,138,334.8,138z"/>
		</g>
	</g>
</g>
<g>
	<g>
		<g>
			<path class="st6" d="M326.6,103c1.6,6.9,2.4,15.6,2.9,22.7c0.4,4.3,0.5,8.8,0.4,13.3s-0.5,9-0.6,13.1c-0.1,0-0.3-0.7-0.4,0
				c-0.2,2.8-0.5,2.8-0.8,2.8c-0.2,0,0-2.1-0.2-1.4c0-2.1,0.1-5.7-0.1-3.5c-0.2,0.7-0.1,3.5-0.3,4.2s-0.4-0.7-0.6,0
				c0,0.7,0.1,2.2,0.1,2.9c-0.1,0.7-0.5-0.7-0.4,0c0,2.2,0.5,5.1,1.5,7.9c-0.1,0,0,0.8-0.6-0.6c-1.1-3.1-1.5-6.4-1.5-9.6
				c-0.1-3.2,0.1-6.4,0.3-9.5c0.4-6.2,0.4-12.5,0.1-18.7c-0.7-12.5-2.7-24.8-6-36.7c-0.7-2.7,0.1-0.8,0.9,1.2
				c-0.3-0.7-0.1-0.7-0.3-1.4c0.2-0.1,1,1.2,1.7,3.9l-0.5-2.1c-0.1-0.7,0.2-0.1,0.3-0.1c0.2,0.7,0.4,1.4,0.4,1.4
				c0.1,0,0.2-0.1,0.3-0.1c-0.2-0.7-0.5-2.1-0.8-2.7c0.2,0.7,0.4,1.4,0.5,1.3c0.1,0,0.2-0.1,0.3-0.1c0.4,1.4,0.9,3.5,1.2,4.8
				l0.2-0.1c-0.2-1.4-0.9-3.5-1.2-4.8c0.2,0.7,0.3,0.7,0.5,0.6c0.6,2.1,0.9,4.2,1.6,6.2l-0.5-2.1C325.6,97.4,326.1,100.9,326.6,103z
				"/>
		</g>
	</g>
</g>
<g>
	<ellipse class="st6" cx="228.5" cy="152.7" rx="5.3" ry="5.3"/>
	
		<ellipse transform="matrix(5.549486e-02 -0.9985 0.9985 5.549486e-02 124.2966 433.4416)" class="st6" cx="291.2" cy="151" rx="5.3" ry="5.3"/>
	<g>
		<g>
			<g>
				<path class="st6" d="M281.4,135.4c4.1-1.6,9.1-3.1,13.4-4.2c2.6-0.7,5.5-1.1,8.5-0.9s5.8,1.3,8.2,2.7c-0.1,0.1-0.6,0.1-0.2,0.4
					c1.5,1.1,1.3,1.3,1.2,1.6c-0.1,0.1-1.1-0.7-0.8-0.3c-1.1-0.7-3.2-1.6-2-0.9c0.3,0.3,1.9,1,2.2,1.4c0.3,0.4-0.6,0.1-0.3,0.5
					c0.4,0.2,1.1,0.7,1.5,0.9c0.3,0.3-0.6,0.1-0.2,0.3c1,0.8,2.4,1.8,3.8,2.8c-0.1,0.1,0.2,0.5-0.5,0c-3.1-2.2-6.2-4.3-9.5-5.4
					c-3.3-1.1-7-0.9-10.6-0.1s-7.3,2.1-10.9,3.3s-7.3,2.4-10.9,3.5c-1.7,0.5-0.5-0.2,0.6-0.8c-0.4,0.2-0.5,0-0.8,0.2
					c-0.1-0.2,0.6-0.8,2.3-1.4l-1.2,0.4c-0.4,0.1-0.1-0.2-0.1-0.3c0.4-0.1,0.8-0.3,0.8-0.3c0-0.1-0.1-0.2-0.1-0.3
					c-0.4,0.1-1.2,0.4-1.7,0.6c0.4-0.1,0.8-0.3,0.8-0.3c0-0.1-0.1-0.2-0.1-0.3c0.8-0.3,2.1-0.6,2.9-1l-0.1-0.2
					c-0.8,0.2-2.1,0.7-2.9,1c0.4-0.2,0.4-0.3,0.3-0.4c1.2-0.5,2.5-0.7,3.7-1.3l-1.2,0.4C278,136.3,280.2,135.9,281.4,135.4z"/>
			</g>
		</g>
	</g>
	<g>
		<g>
			<g>
				<path class="st6" d="M237.2,139.7c-4.1-1-9.1-2.7-13.3-3.4c-2.5-0.4-5.1-0.8-7.5-0.7c-2.5,0.1-4.6,0.9-6.8,2.2
					c-0.1-0.1,0.2-0.5-0.2-0.3c-1.5,0.7-1.7,0.5-1.8,0.2c-0.1-0.1,1.1-0.7,0.7-0.6c1.1-0.7,3-1.7,1.8-1.2c-0.5,0.1-1.9,1.1-2.3,1.1
					c-0.5,0.1,0.2-0.6-0.3-0.5c-0.4,0.2-1.1,0.7-1.5,0.9c-0.4,0.1,0.1-0.6-0.2-0.3c-1.2,0.6-2.6,1.5-4.1,2.1
					c-0.1-0.1-0.5-0.1,0.2-0.5c3.2-1.3,6.1-4,10.1-5.5c2-0.7,4.2-0.9,6.2-0.8c2.1,0.1,4,0.4,6,0.8c7.6,1.7,15,3.8,22.1,6.5
					c1.6,0.7,0.3,0.5-1,0.2c0.4,0.1,0.4,0.3,0.8,0.3c-0.1,0.2-1,0.2-2.7-0.3l1.2,0.4c0.4,0.2-0.1,0.2-0.1,0.3
					c-0.4-0.1-0.8-0.3-0.8-0.2s-0.1,0.2-0.1,0.3c0.4,0.1,1.2,0.4,1.6,0.6c-0.4-0.1-0.8-0.3-0.8-0.2s-0.1,0.2-0.1,0.3
					c-0.8-0.2-2-0.8-2.8-1l-0.1,0.2c0.8,0.3,2,0.7,2.8,1c-0.4-0.1-0.5,0-0.5,0.1c-1.2-0.3-2.4-1-3.7-1.2l1.2,0.4
					C240.4,140.9,238.5,140,237.2,139.7z"/>
			</g>
		</g>
	</g>
	<g>
		<g>
			<g>
				<path class="st6" d="M280.7,148c1.4-0.9,3-1.7,4.8-2.2c1.7-0.5,3.6-0.9,5.3-1.1c3.9-0.7,8.5,0.1,12.2,2.3
					c-0.1,0.1-0.5,0.1-0.2,0.4c1.1,0.9,0.8,1.1,0.7,1.3c-0.1,0.1-0.8-0.5-0.6-0.2c-0.8-0.5-2.3-1.1-1.5-0.6c0.2,0.2,1.4,0.8,1.5,1.1
					c0.2,0.3-0.5,0.2-0.3,0.5c0.3,0.1,0.8,0.5,1,0.8s-0.5,0.1-0.2,0.3c0.6,0.6,1.4,1.4,2,2.3c-0.1,0.1-0.1,0.4-0.4,0
					c-1.3-2-3.5-3.3-5.9-4.1c-2.5-0.7-5-1.1-7.6-0.8c-5.1,0.4-10.1,2.7-13.5,6.5c-0.8,0.9-0.5,0,0-0.8c-0.1,0.3-0.3,0.1-0.4,0.4
					c-0.2-0.1-0.1-0.8,0.8-1.8l-0.6,0.7c-0.2,0.2-0.2-0.1-0.3-0.2c0.2-0.2,0.4-0.4,0.4-0.5s-0.2-0.1-0.2-0.2
					c-0.2,0.2-0.7,0.7-0.8,0.9c0.2-0.2,0.4-0.5,0.3-0.5c0-0.1-0.2-0.1-0.2-0.2c0.4-0.5,1.3-1,1.7-1.5l-0.1-0.1
					c-0.5,0.4-1.3,1-1.7,1.5c0.2-0.3,0.1-0.3,0-0.4c0.6-0.8,1.6-1.2,2.2-2c-0.3,0.2-0.5,0.4-0.7,0.7
					C278.3,149.3,279.8,148.6,280.7,148z"/>
			</g>
		</g>
	</g>
	<g>
		<g>
			<g>
				<path class="st6" d="M284,155.2c1.2,0.5,2.6,0.9,3.9,1.1c1.4,0.3,2.8,0.3,4.1,0.1c3-0.4,6.1-2,8.7-3.7c0,0-0.1,0.2,0.1,0.1
					c0.9-0.5,0.9-0.4,1-0.3c0,0-0.6,0.5-0.4,0.4c-0.6,0.5-1.8,1.2-1,0.7c0.2-0.1,1.1-0.7,1.3-0.8s-0.1,0.3,0.1,0.2
					c0.2-0.2,0.6-0.5,0.8-0.7c0.2-0.1-0.1,0.3,0.1,0.1c0.7-0.5,1.5-1.1,2.3-1.8c0,0,0.3-0.1-0.1,0.3c-1.8,1.5-3.7,2.9-5.7,4.1
					c-2.1,1.2-4.3,2.2-6.7,2.4c-2.4,0.4-4.9,0-7.2-0.7s-4.4-1.8-6.4-3c-1-0.6-0.2-0.2,0.6,0.1c-0.2-0.1-0.2-0.1-0.5-0.2
					c0-0.1,0.5,0.1,1.5,0.6l-0.7-0.3c-0.2-0.1,0-0.1,0-0.1c0.2,0.1,0.5,0.2,0.5,0.2v-0.1c-0.2-0.1-0.7-0.3-1-0.5
					c0.2,0.1,0.5,0.2,0.5,0.2v-0.1c0.5,0.2,1.2,0.7,1.7,0.9v-0.1c-0.6-0.3-1.2-0.7-1.7-0.9c0.2,0.1,0.3,0.1,0.3,0
					c0.7,0.3,1.4,0.8,2.1,1l-0.7-0.3C282,154.3,283.2,155,284,155.2z"/>
			</g>
		</g>
	</g>
	<g>
		<g>
			<g>
				<path class="st6" d="M218.4,148.7c3-1.6,7.1-2.2,10.5-2.4c2-0.2,4.2,0,6.4,0.7c2.1,0.6,4.1,1.8,5.8,3.2c-0.1,0.1-0.5,0-0.3,0.3
					c0.9,1.1,0.6,1.3,0.5,1.5c-0.1,0.1-0.7-0.7-0.6-0.4c-0.7-0.7-2.1-1.6-1.4-0.9c0.2,0.3,1.2,1.1,1.3,1.4c0.1,0.4-0.5,0.1-0.4,0.4
					c0.2,0.2,0.6,0.7,0.8,0.9c0.1,0.3-0.5,0-0.3,0.2c0.4,0.8,1.1,1.7,1.5,2.8c-0.1,0.1-0.2,0.4-0.4-0.1c-0.9-2.2-2.8-4.1-5-5.3
					s-4.8-1.7-7.5-1.7c-5.3,0.1-10.6,1.9-14.8,5c-1,0.7-0.5-0.1,0.2-0.8c-0.2,0.2-0.3,0.1-0.5,0.3c-0.1-0.2,0.2-0.8,1.2-1.6
					c-0.3,0.2-0.5,0.3-0.8,0.5c-0.3,0.1-0.1-0.2-0.2-0.3c0.3-0.2,0.5-0.4,0.5-0.4l-0.1-0.2c-0.3,0.2-0.8,0.6-1.1,0.7
					c0.3-0.2,0.5-0.4,0.5-0.4c0-0.1-0.1-0.2-0.2-0.2c0.5-0.4,1.4-0.9,1.9-1.2l-0.1-0.2c-0.6,0.3-1.4,0.9-2,1.2
					c0.2-0.2,0.2-0.3,0.1-0.4c0.8-0.6,1.8-1,2.5-1.6c-0.3,0.1-0.6,0.3-0.9,0.5C215.9,149.7,217.5,149.1,218.4,148.7z"/>
			</g>
		</g>
	</g>
	<g>
		<g>
			<g>
				<path class="st6" d="M219.7,155.1c1.1,0.6,2.4,1.1,3.7,1.4c1.4,0.3,2.8,0.4,4,0.4c1.5,0,3.1-0.2,4.7-0.4
					c1.6-0.2,3.2-0.4,4.7-0.8c0,0-0.2,0.2,0,0.1c1-0.2,1-0.1,1,0s-0.8,0.2-0.5,0.2c-0.8,0.2-2,0.5-1.2,0.4c0.3,0,1.3-0.3,1.5-0.3
					c0.3,0-0.2,0.2,0,0.2c0.2-0.1,0.8-0.2,1-0.3c0.3,0-0.2,0.2,0,0.1c0.8-0.2,1.8-0.6,2.7-1.1c0,0,0.3,0-0.2,0.2
					c-2.1,1.1-4.4,1.6-6.7,2s-4.6,0.6-7,0.7c-2.3,0-4.8-0.3-7-1.2s-4.2-2.5-5.4-4.6c-0.5-1,0-0.3,0.4,0.4c-0.2-0.2-0.1-0.2-0.3-0.5
					c0.1,0,0.4,0.4,1.1,1.2c-0.2-0.2-0.3-0.4-0.5-0.6c-0.1-0.2,0,0,0.1-0.1c0.1,0.2,0.3,0.4,0.3,0.4s0,0,0.1-0.1
					c-0.2-0.2-0.5-0.6-0.6-0.9c0.1,0.2,0.3,0.4,0.3,0.4s0.1,0,0.1-0.1c0.3,0.4,0.8,1,1.1,1.4v-0.1c-0.4-0.4-0.9-0.9-1.1-1.4
					c0.2,0.2,0.2,0.2,0.2,0.1c0.5,0.6,0.9,1.2,1.5,1.6c-0.2-0.2-0.4-0.3-0.6-0.5C218.1,154,219,154.8,219.7,155.1z"/>
			</g>
		</g>
	</g>
</g>
<g>
	<g>
		<g>
			<path class="st6" d="M124.1,335.4c1.8-8.2,4.2-17.1,6.9-26c1.3-4.4,2.6-8.9,3.9-13.2c1.2-4.3,2.2-8.7,4.1-12.7
				c0.1-0.3,0.3-0.6,0.4-0.9s0.3-0.6,0.5-1s0.6-0.9,1.1-1.2c0.5-0.3,1-0.4,1.4-0.5l1.9-0.4l0.9-0.2l0.8-0.1c0.3,0,0.6-0.1,0.9-0.1
				c0.6,0,1,0.1,1.4,0.5s0.6,0.8,0.7,1.4l0.2,2.5l0.1,1v0.5c0,0.2,0,0.3,0,0.6c0,1-0.3,1.7-0.5,2.4c-0.5,1.3-1,2.6-1.4,3.6
				c-0.4,1.2-0.7,2.5-1,3.8c-0.4,1.3-0.7,2.6-1.1,3.8l-1.2,3.8c-3.1,10.1-6.5,20-9,29.7c-0.1,0,0.1-1.7-0.4-0.1
				c-0.9,3.2-1.4,4.8-1.7,5.6c-0.3,0.8-0.4,0.8-0.6,0.7c-0.2,0,1.1-4.9,0.6-3.3c1.1-4.9,3.4-13,1.9-8.2c-0.3,0.8-0.9,2.8-1.4,4.9
				c-0.5,2-1,4.1-1.3,4.9c-0.6,1.6,0-1.7-0.6-0.1c-0.4,1.6-1,5-1.3,6.6c-0.4,1.6-0.1-1.7-0.4-0.1c-0.5,2.5-0.9,5.5-1,8.7
				s0,6.7,0.8,10.1c-0.1,0,0,0.4-0.1,0.5c0,0-0.2-0.4-0.6-2.1c-0.6-3.8-0.6-7.6-0.2-11.4s1-7.5,1.7-11.1c1.5-7.3,3.6-14.5,5.8-21.6
				c1.1-3.5,2.2-7.1,3.3-10.6l1.7-5.3l0.8-2.7l0.8-2.7l0.8-2.7l0.4-1.3l0.2-0.8c0.1-0.3,0.2-0.5,0.3-0.8c0.4-0.9,0.7-1.8,1-2.6
				c0.1-0.4,0.3-0.8,0.3-1.1c0-0.2,0-0.3,0.1-0.4c0,0,0,0,0-0.1v-0.4l-0.2-2.6l0,0l-2.3,0.4c-0.5,0.1-1,0.2-1,0.2s0-0.1-0.1,0.2
				c-1.6,3.1-2.7,6.6-3.7,10.1c-0.5,1.8-1,3.6-1.5,5.4l-1.6,5.4c-1,3.6-2.1,7.1-3.1,10.7s-2,7.1-3,10.7c-1.9,7.2-3.6,14.4-5.1,21.6
				c-0.7,3.6-1.4,7.2-1.3,10.6c0,0.9,0.1,1.7,0.3,2.5l0.1,0.6c0,0.2,0.1,0.5,0.1,0.4l0,0l0,0l0,0l0,0h0.1l1.4-0.2l2.7-0.3
				c6.7-0.8,1.7,0.1-3.3,1c1.7-0.3,1.7-0.1,3.4-0.4c0,0.1-0.8,0.3-2.5,0.7c-0.4,0.1-0.9,0.2-1.4,0.3c-0.2,0-0.4,0.1-0.6,0.1
				s-0.4,0.1-0.6,0.1c-0.1-0.2-0.2-0.4-0.2-0.6c0-0.1-0.1-0.2-0.1-0.4c0-0.2-0.1-0.3-0.1-0.5c-0.2-0.7-0.3-1.5-0.4-2.3
				c0.1,0.8,0.2,1.6,0.4,2.4c0.1,0.4,0.2,0.7,0.3,1l0.1,0.5c0.1,0.1,0.3,0,0.4,0c0.6,0,0.6,0,0.5,0.1c-0.2,0.1-0.6,0.2-0.6,0.3
				c-0.2,0-0.4,0.1-0.6,0c-0.1-0.2-0.1-0.4-0.2-0.5c-0.1-0.4-0.2-0.7-0.3-1c-0.2-0.6-0.2-1-0.3-1c-0.1,0-0.2,0-0.3,0
				c0.1,0.4,0.2,0.9,0.4,1.5c0.1,0.3,0.2,0.6,0.3,1l0.1,0.2v0.1h0.1l0.5-0.1c1.3-0.2,2.6-0.3,3.5-0.4c-0.8,0.1-1.7,0.2-2.3,0.3
				c-0.6,0.1-1.2,0.2-1.2,0.2c0,0.1-0.1,0.2-0.1,0.3c-0.1,0-0.3,0-0.4,0.1h-0.2c-0.1,0-0.2,0-0.2-0.1c-0.1-0.3-0.2-0.6-0.3-0.9
				c-0.1-0.3-0.2-0.6-0.3-0.9c-0.1-0.3-0.1-0.5-0.2-0.8c-0.2-1-0.4-2.1-0.4-3.2c-0.1-2.2,0.1-4.3,0.3-6h-0.2c-0.3,1.7-0.5,3.8-0.4,6
				c0.1,1.1,0.2,2.2,0.4,3.2c0,0.3,0.1,0.5,0.2,0.8c0.1,0.4,0.2,0.7,0.3,1c0.1,0.3,0.2,0.6,0.3,0.9c0,0.1,0.1,0.1,0.2,0.1h0.2
				c0.2,0,0.3,0,0.5,0c-0.3,0-0.6,0.1-0.8,0.1c-0.1-0.1-0.2-0.4-0.2-0.5c-0.1-0.3-0.2-0.5-0.3-0.7c-0.1-0.3-0.2-0.3-0.2-0.2
				c-0.1-0.2-0.1-0.5-0.2-0.7c0-0.2-0.1-0.3-0.1-0.5l-0.2-1c-0.1-0.7-0.2-1.3-0.2-2c-0.1-1.3,0-2.6,0-3.9c0.2-2.6,0.7-5.1,1.1-7.6
				c-0.3,1.6-0.6,3.3-0.9,5C120.9,348.5,123,340.3,124.1,335.4z"/>
		</g>
	</g>
</g>
<g>
	<g>
		<g>
			<path class="st6" d="M128.7,395.6c0.1,7.5-0.4,15.8-1.5,24.1c-1,8.3-2.7,16.5-4.1,23.9c-1.7,8.9-3.5,18-4.3,27.3
				c-0.1,1.1-0.2,2.3-0.2,3.5c-0.1,1.2-0.1,2.3-0.1,3.4c0,2.3,0.2,4.5,0.6,6.7s1,4.2,2,6.1c0.9,1.9,2.2,3.5,3.8,4.5
				c-0.1,0.1-1.3-0.5-0.2,0.3c0.3,0.2,0.5,0.4,0.8,0.6c0.3,0.1,0.5,0.3,0.7,0.4c0.4,0.3,0.9,0.4,1.2,0.6c0.7,0.3,1.2,0.4,1.5,0.6
				c0.7,0.3,0.7,0.3,0.6,0.5c0,0.1-1.1-0.1-2-0.3c-0.9-0.3-1.5-0.5-0.9-0.2c-0.5-0.1-1-0.5-1.6-0.7c-0.5-0.3-1-0.6-1.5-1
				s-1-0.8-1.3-1.2c-0.2-0.2-0.4-0.4-0.6-0.6s-0.3-0.4-0.5-0.6c-0.6-0.7-0.9-1.3-1-1.4s0,0.2,0.6,1.2c0.4,0.6,1.5,2.1,3.1,3.2
				c0.8,0.6,1.6,1,2.3,1.3c0.8,0.3,1.4,0.5,1.7,0.6c1.5,0.5-1.6,0.1-0.1,0.6c0.8,0.2,2,0.4,3.1,0.4c0.6,0,1.2,0,1.7-0.1
				c0.5,0,1-0.1,1.4-0.2c1.6-0.2-1.5,0.7,0.1,0.4c2.4-0.4,5-1.4,7.5-2.9c2.5-1.4,5-3.2,7.4-5.1c0.1,0.1,1.4-0.7-1,1.2
				c-2.7,2-5.5,3.9-8.6,5.4s-6.7,2.5-10.4,2c-1.8-0.3-3.6-0.9-5.2-1.8s-3-2.3-4.1-3.7c-2.2-3-3.3-6.4-3.9-9.8s-0.7-6.9-0.5-10.3
				s0.5-6.7,0.9-10.1c0.9-6.7,2.2-13.3,3.5-19.8s2.7-13,3.6-19.6c1-6.5,1.6-13.1,2-19.7c0.7-13.2,0.1-26.4-1.7-39.3
				c-0.8-5.9,0.1-1.5,0.9,2.9c-0.2-1.5,0-1.5-0.3-3c0.2,0,1,2.9,1.7,8.9c-0.2-1.5-0.3-3-0.5-4.5c-0.1-1.5,0.2,0,0.3,0
				c0.2,1.5,0.3,3,0.4,3s0.2,0,0.3,0c-0.1-1.5-0.5-4.5-0.7-6c0.2,1.5,0.4,3,0.5,3s0.2,0,0.3,0c0.4,3,0.7,7.5,1,10.5h0.2
				c-0.1-3-0.6-7.5-1-10.5c0.3,1.5,0.3,1.5,0.5,1.5c0.6,4.5,0.7,9,1.1,13.6c-0.1-1.5-0.2-3-0.3-4.5
				C128.7,383.5,128.7,391,128.7,395.6z"/>
		</g>
	</g>
</g>
<g>
	<g>
		<g>
			<path class="st6" d="M151.2,493c0.4,0.1,1.4-0.2,2.3-0.6c1-0.4,1.9-0.8,2.8-1.4c0.9-0.5,1.8-1.2,2.5-1.9c0.7-0.7,1.3-1.4,1.6-2.2
				c0.4-0.9,0.5-1.9,0.3-2.5c-0.2-0.7-0.8-1.1-1.7-1.4s-2-0.3-3.1-0.2c-1.1,0.1-2.2,0.4-3.2,0.8c0-0.1,0.2-0.5-0.1-0.4
				c-1.5,0.4-1.6,0.2-1.7,0c-0.1-0.1,1.1-0.5,0.7-0.5c1.1-0.5,3-1.1,1.8-0.9c-0.4,0-1.9,0.7-2.4,0.7s0.2-0.5-0.3-0.5
				c-0.4,0.2-1.1,0.6-1.5,0.8c-0.4,0.1,0.1-0.6-0.2-0.4c-1.2,0.6-2.6,1.8-3.7,3.1c-0.1-0.1-0.5,0.2,0-0.6c2.6-3,6.4-5,10.4-5.5
				c1-0.1,2.1-0.1,3.2,0c1.1,0.2,2.2,0.5,3.3,1.4c1,0.8,1.8,2.1,2,3.4s-0.1,2.5-0.6,3.6c-0.5,1-1.1,1.9-1.8,2.7
				c-0.4,0.4-0.8,0.8-1.1,1.1s-0.8,0.6-1.2,0.9c-1.6,1.2-3.4,2.1-5.3,2.8c-0.5,0.2-0.9,0.3-1.5,0.5c-0.6,0.1-1.3,0.2-2.2,0
				c-0.4-0.1-0.9-0.3-1.2-0.6c-0.4-0.3-0.7-0.7-0.8-1c-0.4-0.6-0.5-1.2-0.7-1.6c-0.6-1.7-1.1-3.5-1.7-5.2c-0.5-1.6,0.2-0.5,0.8,0.6
				c-0.2-0.4,0-0.4-0.2-0.8c0.2-0.1,0.8,0.6,1.4,2.1l-0.4-1.2c-0.1-0.4,0.2-0.1,0.3-0.1c0.1,0.4,0.3,0.8,0.3,0.8
				c0.1,0,0.2-0.1,0.3-0.1c-0.1-0.4-0.4-1.2-0.5-1.6c0.1,0.4,0.3,0.8,0.3,0.8c0.1,0,0.2-0.1,0.3-0.1c0.3,0.8,0.6,2,0.9,2.7l0.2-0.1
				c-0.2-0.8-0.7-2-0.9-2.7c0.2,0.4,0.3,0.4,0.4,0.3c0.5,1.1,0.7,2.4,1.2,3.5l-0.4-1.2c0.3,0.3,0.5,1,0.8,1.7
				C150.9,493,151,493,151.2,493z"/>
		</g>
	</g>
</g>
<g>
	<g>
		<g>
			<path class="st6" d="M176.8,392c-0.2,8.4-0.1,17.7,0.4,27.1c0.6,9.3,1.7,18.7,2.4,27.2c0.9,10.2,1.1,21.2-1.2,31.9
				c-0.3,1.3-0.6,2.7-1,4s-0.8,2.6-1.2,3.9c-1,2.6-2.1,5.1-3.5,7.5c-2.8,4.7-6.8,9-12,11.2c0-0.1,1.5-1-0.2-0.4s-3,1-4,1.1
				c-1,0.2-1.7,0.1-2.1,0.2c-0.9,0-0.9-0.2-0.9-0.3c0-0.1,1.3-0.2,2.4-0.4c1.1-0.2,1.9-0.4,1-0.3c1.3-0.3,2.7-0.8,4-1.4
				s2.5-1.4,3.4-2.1c0.9-0.6,1.4-1.2,1.5-1.3c0.1-0.1-0.2,0.2-1.3,0.9c-0.7,0.5-2.5,1.7-4.5,2.5l-0.7,0.3c-0.2,0.1-0.5,0.2-0.8,0.2
				c-0.5,0.1-1,0.3-1.4,0.4c-0.9,0.2-1.6,0.3-2.1,0.3c-1.7,0,1.6-0.6-0.1-0.6c-0.4,0-0.9,0.1-1.5,0.2c-0.6,0-1.2,0-1.8,0.1
				c-0.6,0-1.2-0.1-1.8-0.1s-1.1-0.1-1.5-0.2c-1.6-0.4,1.7-0.2,0.1-0.4c-2.4-0.4-5.2-1.3-7.9-2.7c-2.7-1.5-5.3-3.5-7.4-6
				c0,0-0.2-0.4-0.1-0.5c0,0,0.1,0,0.3,0.3c0.2,0.2,0.6,0.6,1.1,1.1c4.9,5,12.1,8,19.1,7.4c1.7-0.2,3.4-0.6,5.1-1.1
				c1.6-0.6,3.1-1.5,4.5-2.5c2.8-2.1,5.1-4.9,6.9-8s3.1-6.5,4.1-10.1c1-3.5,1.7-7.2,2.2-10.9c0.5-3.7,0.7-7.4,0.7-11.1
				s-0.1-7.5-0.4-11.2c-0.5-7.5-1.3-15-2-22.6c-0.6-7.6-1-15.2-1-22.8c0-15.2,1.2-30.3,3.6-45.1c1.2-6.8,0.6-1.6,0,3.5
				c0.2-1.7,0.4-1.7,0.6-3.4c0.2,0,0,3.5-0.8,10.2c0.2-1.7,0.5-3.4,0.7-5.1c0.3-1.7,0.2,0,0.3,0c-0.1,0.9-0.2,1.7-0.3,2.3
				c-0.1,0.6-0.1,1.1-0.1,1.1c0.1,0,0.2,0,0.3,0c0.2-1.7,0.7-5.1,1-6.8c-0.1,0.8-0.2,1.7-0.3,2.3c-0.1,0.6-0.1,1.1-0.1,1.1
				c0.1,0,0.2,0,0.3,0c-0.4,3.4-1.2,8.4-1.4,11.8h0.2c0.4-3.4,0.9-8.5,1.4-11.8c-0.2,1.7-0.1,1.7,0,1.7c-0.6,5-1.4,10.1-1.6,15.2
				c0.1-1.7,0.3-3.4,0.5-5.1C177.8,378.5,176.8,386.9,176.8,392z"/>
		</g>
	</g>
</g>
<g>
	<g>
		<g>
			<path class="st6" d="M133.5,490.9c-0.1,0-0.2,0-0.3,0h-0.1l-0.5-0.1c-0.7-0.2-1.4-0.3-2.1-0.4c-1.4-0.2-2.8,0-3.6,0.7
				c-1.1,0.8-1.8,2.1-1.7,3.1c0,0.2,0.1,0.5,0.2,0.7s0.2,0.4,0.4,0.6c0.3,0.3,0.9,0.5,1.5,0.6c0,0.1-0.3,0.3-0.1,0.4
				c0.9,0.3,1,0.5,1,0.8c0,0.1-0.8,0-0.5,0.1c-0.4,0-1-0.1-1.3-0.2s-0.5-0.1-0.1,0.1c0.2,0.2,1.4,0.3,1.6,0.5c0.3,0.2-0.3,0.4,0,0.6
				c0.3,0,0.9,0,1.2,0c0.3,0.1-0.3,0.4,0,0.4c1,0.1,2.2-0.2,3.4-0.7c0,0.1,0.4,0.1-0.2,0.4c-1.3,0.5-2.7,0.8-4.2,0.8
				c-0.8,0-1.5-0.1-2.3-0.3c-0.8-0.2-1.6-0.6-2.3-1.3c-0.7-0.6-1.2-1.4-1.4-2.3c-0.3-0.9-0.2-1.9,0-2.8c0.5-1.7,1.5-3,2.9-4
				c0.7-0.5,1.5-0.8,2.3-1s1.5-0.3,2.3-0.3c1.5,0,2.9,0.2,4.2,0.6l0.8,0.2l0.9,0.3l1.8,0.6l0.5,0.1h0.1v0.1l-0.1,0.2l-0.4,0.9
				l-0.9,1.7l-2,3.8c-0.6,1-0.4,0.1-0.2-0.8c-0.1,0.3-0.2,0.2-0.3,0.5c-0.2-0.1-0.2-0.8,0.2-1.8l-0.4,0.8c-0.2,0.2-0.2-0.1-0.3-0.2
				c0.1-0.3,0.3-0.5,0.2-0.5s-0.2-0.1-0.2-0.1c-0.1,0.3-0.4,0.8-0.5,1c0.1-0.3,0.3-0.5,0.2-0.5s-0.2-0.1-0.2-0.1
				c0.2-0.5,0.7-1.2,0.9-1.8l-0.2-0.1c-0.3,0.5-0.7,1.3-0.9,1.8c0.1-0.3,0-0.3-0.1-0.4c0.2-0.4,0.4-0.8,0.6-1.1
				c0.1-0.2,0.2-0.4,0.3-0.6c0-0.1,0.1-0.2,0.1-0.3v-0.1l-0.3,0.5c0-0.1,0-0.2,0-0.3c0-0.1,0.1-0.2,0.1-0.2c0-0.1,0-0.1,0.1-0.2
				c0-0.1,0.1-0.1,0.1-0.2C133.5,491,133.5,491,133.5,490.9L133.5,490.9z"/>
		</g>
	</g>
</g>
<g>
	<g>
		<g>
			<path class="st6" d="M308.1,405.4c7.2,0.6,16.1,0.6,23.4-0.2c4.4-0.5,8.9-1.1,13.5-1.8c4.5-0.6,9.1-1.4,13.7-1.6
				c0,0.1-0.8,0.4,0,0.4c3,0.2,3,0.5,3,0.8c0,0.1-2.2-0.1-1.5,0.1c-2.2-0.1-5.9,0.4-3.7,0.3c0.7,0,3.7-0.2,4.4,0.1
				c0.7,0.2-0.7,0.4,0,0.6c0.7,0,2.2,0.1,2.9,0.2c0.7,0.2-0.8,0.3,0,0.4c1.6,0.3,3.5,0.8,5.5,1.6l-0.5-0.9c0,0-0.2,0-0.1,0l0,0l0,0
				v0.1v-0.1l0,0l0,0l0,0c0,0,0,0,0-0.1l-0.1-0.1c0,0,0,0,0.2,0l0,0l0,0c0-0.1-0.1,0.8-0.1,0.4l0,0l0,0l0,0l0,0l0,0l0,0l0,0
				c0,0,0-0.1-0.1-0.2c0-0.1-0.1-0.1,0,0s0.2,0.1,0.3,0.1l0.4,1.2c-2.7-1.2-5.7-1.6-8.8-1.6s-6.2,0.4-9.3,0.8
				c-6.3,0.9-12.8,1.8-19.2,2.4c-6.5,0.6-13,0.9-19.5,0.5c-3.3-0.1-6.5-0.5-9.7-1c-3.2-0.6-6.4-1.2-9.5-2.2
				c-2.9-0.9-0.6-0.5,1.6-0.1c-0.7-0.1-0.7-0.3-1.4-0.5c0-0.1,0.4-0.1,1.2,0c0.7,0.1,1.8,0.3,3.3,0.6l-2.2-0.5
				c-0.7-0.3,0-0.2,0.1-0.3c0.7,0.2,1.4,0.3,1.5,0.3c0-0.1,0-0.2,0.1-0.3c-0.4-0.1-0.9-0.2-1.4-0.3c-0.5-0.1-1.1-0.3-1.4-0.4
				c0.7,0.2,1.4,0.4,1.4,0.3s0-0.2,0.1-0.3c1.4,0.3,3.5,0.9,5,1.1V405c-1.4-0.3-3.6-0.8-5-1.1c0.7,0.1,0.8,0,0.8-0.1
				c1.1,0.2,2.1,0.5,3.2,0.7s2.2,0.4,3.2,0.5l-2.2-0.4C302.3,404.5,305.9,405.3,308.1,405.4z"/>
		</g>
	</g>
</g>
<g>
	<g>
		<g>
			<path class="st6" d="M370.5,418.5c0,2.9-0.5,6.1-1.1,9.2s-1.5,6.2-2.1,9c-1.6,6.7-4.1,13.7-5.7,20.2c-0.1,0-0.2-0.6-0.4-0.1
				c-0.7,2.1-1,2.1-1.3,2c-0.1,0,0.4-1.6,0.1-1.1c0.4-1.6,1.1-4.4,0.5-2.8c-0.3,0.5-0.7,2.8-1,3.2c-0.3,0.5-0.3-0.6-0.6-0.1
				c-0.1,0.5-0.4,1.7-0.5,2.2c-0.3,0.5-0.3-0.6-0.4-0.1c-0.5,1.7-0.9,4-1.2,6.2c-0.1,0-0.3,0.5-0.3-0.6c1.3-10.1,4.9-19.8,7.6-29.4
				c1.4-4.8,2.5-9.6,3.1-14.5s0.6-9.7-0.3-14.4c-0.4-2.1,0.2-0.6,0.7,1c-0.2-0.5,0-0.6-0.1-1.1c0.2,0,0.8,1,1.1,3.2
				c0-0.6-0.1-1.1-0.2-1.7c0-0.6,0.2,0,0.3,0c0.1,0.6,0.2,1.1,0.2,1.1s0.2,0,0.3,0c-0.1-0.6-0.2-1.7-0.4-2.3
				c0.1,0.6,0.2,1.1,0.2,1.1s0.2,0,0.3,0c0.2,1.1,0.3,2.9,0.4,4h0.2c0-1.2-0.2-2.9-0.4-4c0.2,0.6,0.2,0.6,0.4,0.5
				c0.3,1.7,0.2,3.5,0.5,5.2c0-0.6,0-1.2-0.1-1.8C370.8,413.8,370.6,416.8,370.5,418.5z"/>
		</g>
	</g>
</g>
<g>
	<g>
		<g>
			<path class="st6" d="M179.4,390.4c4.5-0.3,9.4-0.8,14.3-1.4c2.5-0.3,5-0.7,7.4-1.1c1.2-0.2,2.5-0.5,3.7-0.7
				c1.9-0.4,3.8-0.8,5.6-1.2c-0.6,2.9-1.1,5.7-1.7,8.5c-0.4,2.1-0.8,4.2-1.2,6.3c-0.3,1.5-0.5,3-0.8,4.5c-0.4,1.9-0.7,3.9-1.1,5.8
				c-2.1,0.1-4.1,0.1-6.2,0.2c-1.7,0-3.4,0.1-5,0.1c-3.4,0.1-6.8,0.1-10.1,0.1c-6.8,0-13.5-0.1-20-0.3c0-0.1,1.4-0.3,0-0.4
				c-5.3-0.4-5.3-0.7-5.3-0.9c0-0.1,4,0.1,2.7,0c4,0.1,10.7,0.2,6.7,0c-1.3-0.2-6.7-0.2-8-0.4c-1.3-0.2,1.3-0.4,0-0.6l-2-0.1
				c-0.5,0-1.1,0-1.5-0.1l0.2-0.4c0.3-0.4,0.3-0.2,0.3-0.1s0.1,0.1,0.2-0.1s0.2-0.4,0.3-0.5l0.1-0.3l0.2-0.4
				c0.1-0.3,0.2-0.5,0.3-0.8c0.4-1.1,0.8-2.3,1.1-3.6c0.6-2.5,1-5.3,0.9-8c0.1,0,0.1-0.3,0.2-0.3s0.1,0.3,0.1,1.7
				c-0.1,2.5-0.4,4.9-1.1,7.3c-0.3,1.2-0.7,2.4-1.1,3.5l-0.5,1.1L158,408c3.3,0.1,6.5,0.2,9.8,0.3c4,0.1,8.1,0.1,12.1,0.1
				s8.1,0,12.1,0l6.1-0.1l4.8-0.1c1.2-6,2.3-12,3.5-18l0,0l0,0l0,0c0,0,0,0-0.1,0l-0.9,0.2l-3.5,0.7c-2.3,0.4-4.7,0.8-7,1.1
				c-4.7,0.7-9.4,1.1-14.2,1.4c-9.5,0.6-19,0.4-28.3-0.6c-5.4-0.6-1.3-0.5,2.7-0.3c-1.3,0-1.3-0.2-2.7-0.3c0-0.2,2.7-0.2,8.1,0
				c-1.3-0.1-2.7-0.1-4-0.3c-1.3-0.2,0-0.2,0-0.3c1.3,0.1,2.7,0.2,2.7,0.1s0-0.2,0-0.3c-1.3-0.1-4-0.3-5.3-0.4
				c1.3,0.1,2.6,0.2,2.7,0.1s0-0.2,0-0.3c1.3,0.1,3,0.2,4.6,0.3c1.7,0.1,3.3,0.2,4.6,0.2v-0.2c-1.3,0-3-0.1-4.6-0.2
				c-1.7-0.1-3.3-0.1-4.6-0.3c1.3,0,1.3,0,1.3-0.2c4,0.2,7.9,0.5,11.9,0.3c-1.3,0-2.6,0-4,0C168.8,390.5,175.4,390.8,179.4,390.4z"
				/>
		</g>
	</g>
</g>
<g>
	<g>
		<path class="st7" d="M315,265.7"/>
	</g>
</g>
<g>
	<g>
		<g>
			<path class="st6" d="M112,312c-4.9,5.2-9.8,11.6-14.4,18.2s-8.9,13.4-12.5,19.8c-8.7,15.2-17,32.3-23.3,48.7
				c-0.1,0,0.2-1.5-0.4-0.1c-2.3,5.4-2.5,5.3-2.8,5.2c-0.1,0,1.5-4.1,0.9-2.8c1.5-4.1,4.2-10.9,2.5-6.9c-0.3,0.7-1,2.4-1.7,4.1
				s-1.3,3.4-1.7,4.1c-0.7,1.3,0.1-1.5-0.6-0.2c-0.5,1.4-1.5,4.1-2,5.5c-0.6,1.3,0.1-1.5-0.4-0.1c-1.6,4.1-3.4,9.7-5.1,15.4
				c-0.1,0-0.7,1.3,0.1-1.5c7.4-24.7,17.9-48.9,31-71.5c3.3-5.7,6.8-11.2,10.4-16.7c3.6-5.4,7.3-10.8,11.5-16
				c4.1-5.1,8.7-9.9,13.9-14c5.2-4.1,11.1-7.2,17-9.9c2.7-1.2,3.1-1.2,2.3-0.8c-0.8,0.5-2.8,1.5-4.8,2.5c1.3-0.7,1.4-0.5,2.7-1.2
				c0.1,0.2-2.5,1.6-7.6,4.5c1.3-0.7,2.6-1.4,3.9-2.1c1.4-0.6,0.1,0.2,0.1,0.3c-1.3,0.7-2.6,1.4-2.6,1.4l0.1,0.2
				c1.3-0.7,3.9-2,5.2-2.6c-1.3,0.6-2.6,1.3-2.6,1.3c0,0.1,0.1,0.2,0.1,0.2c-2.6,1.3-6.5,3.4-8.8,5.1l0.1,0.2
				c2.4-1.6,6.2-3.8,8.8-5.1c-1.3,0.7-1.2,0.8-1.2,0.9c-3.8,2-7.7,4.2-10.9,7c1.1-0.9,2.3-1.7,3.5-2.5c-1.1,0.9-3.1,2.4-5.2,4.1
				C115.6,308.5,113.5,310.4,112,312z"/>
		</g>
	</g>
</g>
<g>
	<g>
		<g>
			<path class="st6" d="M167.6,282.9c-2.2,1.1-5,1.9-7.3,3c-2.6,1.3-5.6,2.5-8.4,3.6c0-0.1,0.1-0.4-0.1-0.4c-1,0.2-1.1-0.1-1.2-0.3
				c0-0.1,0.7-0.3,0.4-0.3c0.7-0.3,1.8-0.8,1.1-0.6c-0.3,0-1.1,0.5-1.5,0.4c-0.3-0.1,0.1-0.5-0.2-0.6c-0.2,0.1-0.7,0.3-0.9,0.4
				c-0.3,0,0.1-0.5-0.1-0.4c-0.7,0.1-1.6,0.6-2.5,0.9c0-0.1-0.3-0.2,0.1-0.4c8-3.3,16.1-6.8,24.1-9.8c0.9-0.3,0.4,0.2-0.3,0.7
				c0.2-0.1,0.3,0,0.5-0.1c0.1,0.2-0.3,0.7-1.1,1.1c0.2-0.1,0.5-0.2,0.7-0.3c0.2,0,0.1,0.2,0.1,0.3c-0.2,0.1-0.5,0.2-0.4,0.2
				c0,0.1,0.1,0.2,0.1,0.2c0.2-0.1,0.7-0.3,0.9-0.4c-0.2,0.1-0.5,0.2-0.4,0.2c0,0.1,0.1,0.2,0.1,0.2c-0.4,0.2-1.2,0.4-1.6,0.6
				l0.1,0.2c0.5-0.1,1.1-0.5,1.6-0.6c-0.2,0.1-0.2,0.2-0.1,0.3c-0.7,0.3-1.4,0.4-2,0.9c0.2-0.1,0.5-0.2,0.7-0.3
				C169.5,282.4,168.2,282.6,167.6,282.9z"/>
		</g>
	</g>
</g>
<path d="M311.4,251.2c-0.3-6.1,0.1-13.4,0.1-19.4c0-1.8,0.5-13,0.3-14.2l-1.8,2c0,0.6-0.2,0.6-0.2,1.2c0-1.9-0.1-3.7-0.4-1.3
	c-1.9,21.3-1.3,43.5,1.4,64.7c0.2,1.2,0.3,0.6,0.4,0.6c-0.3-2.4-0.7-4.9-0.7-6.7c-0.1-0.6,0.3,0.6,0.4,0c0-0.6-0.1-1.8-0.2-2.4
	c0.1-0.7,0.4,0.5,0.6-0.1c0.2-0.7-0.2-3.1-0.1-3.7c0-1.8,0.3,1.2,0.5,3c0-0.6,0.1,1.2,0.2,1.2c0.2,0,0.5-0.1,0.5-2.5
	c0-0.6,0.3,0,0.4,0C312.2,266.3,311.8,258.5,311.4,251.2z"/>
<g>
	<g>
		<g>
			<path class="st6" d="M209,265.7c-2.6,1.4-8.7,3.7-11.3,5c-3.2,1.6-6.8,3.1-10,4.5c0-0.1,0.1-0.4-0.1-0.4c-1.2,0.3-1.3,0-1.4-0.2
				c0-0.1,0.8-0.4,0.5-0.4c0.8-0.4,2.2-1,1.3-0.8c-0.3,0-1.4,0.6-1.7,0.5c-0.4-0.1,0.1-0.5-0.2-0.6c-0.3,0.1-0.8,0.4-1.1,0.5
				c-0.3,0,0.1-0.5-0.1-0.4c-0.9,0.2-2,0.8-3,1.2c0-0.1-0.4-0.1,0.1-0.4c9.6-4.2,21.9-9.8,31.6-13.7c1.1-0.4,0.4,0.2-0.4,0.7
				c0.2-0.2,0.3,0,0.6-0.2c0.1,0.2-0.4,0.7-1.4,1.3l0.8-0.4c0.3-0.1,0.1,0.2,0.1,0.3c-0.3,0.1-0.5,0.2-0.5,0.3s0.1,0.2,0.1,0.2
				c0.3-0.1,0.8-0.4,1.1-0.5c-0.3,0.1-0.5,0.2-0.5,0.3s0.1,0.2,0.1,0.2c-0.5,0.3-1.4,0.5-1.9,0.8l0.1,0.2c0.6-0.2,1.4-0.6,1.9-0.8
				c-0.2,0.2-0.2,0.2-0.2,0.4c-0.8,0.4-1.7,0.6-2.4,1.1l0.8-0.4C211.2,265,209.8,265.3,209,265.7z"/>
		</g>
	</g>
</g>
<g>
	<g>
		<g>
			<path class="st6" d="M358.7,285.6c5,2.1,10.3,4.4,15.8,6.8c5.4,2.4,11,5,16.3,8.3c2.6,1.6,5.2,3.5,7.5,5.4c2.4,2,4.6,4.1,6.7,6.3
				c4.1,4.4,7.7,9.1,10.9,13.6c15.2,21.9,28.5,47.7,38.1,72.5c-0.1,0-1.1-1.9-0.4,0.1c1.5,4.2,2.2,6.3,2.4,7.4
				c0.3,1.1,0.1,1.1,0,1.2c-0.1,0-2.3-6.2-1.7-4.1c-2.3-6.2-6.7-16.4-4.2-10.2c0.7,2.1,4.1,10.3,4.6,12.4c0.6,2.1-1.1-1.9-0.6,0.2
				c0.4,1,1,2.6,1.5,4.1c0.5,1.6,1.1,3.1,1.5,4.2c0.6,2.1-1.1-2-0.4,0.1c2,6.3,4.8,14.7,7.1,23.2c-0.1,0,0.3,2.2-0.9-2
				c-10.5-37-26.8-73.1-48.3-105.6c-5.4-8-11.5-15.7-18.9-21.7s-16.2-10.1-25.2-14c-17.9-7.8-35.8-15.6-53.5-23.3
				c-8.1-3.6-1.9-1.2,4.3,1.3c-2-0.8-2-1-4-1.8c0-0.1,1.1,0.2,3.2,1s5.2,2,9.2,3.7c-2-0.9-4-1.8-6.1-2.6c-2-0.9,0.1-0.2,0.1-0.3
				c1,0.4,2,0.9,2.8,1.2c0.8,0.3,1.3,0.5,1.3,0.5c0-0.1,0.1-0.2,0.1-0.2c-2-0.9-6.1-2.6-8.1-3.5c1,0.4,2,0.9,2.8,1.2
				c0.8,0.3,1.3,0.5,1.3,0.5c0-0.1,0.1-0.2,0.1-0.2c4.1,1.7,10.1,4.5,14.2,6.2l0.1-0.2c-4-1.8-10.1-4.4-14.2-6.2
				c2.1,0.8,2.1,0.8,2.1,0.6c6.1,2.6,12.1,5.4,18.3,7.9l-6.1-2.6C342.6,278.4,352.6,283,358.7,285.6z"/>
		</g>
	</g>
</g>
<g>
	<g>
		<g>
			<path class="st6" d="M293.6,310.8c-9,13.3-20,29.6-28.3,43.6c-10,16.7-20.5,35-29.7,52.2c-0.1-0.1,0.5-1.6-0.4-0.2
				c-3.2,5.6-3.5,5.5-3.7,5.4c-0.1-0.1,2.3-4.3,1.4-2.9c1.1-2.2,2.6-5,3.6-6.8c0.9-1.8,1.3-2.5,0.1-0.4c-0.9,1.4-3.8,7.2-4.8,8.5
				s0.4-1.6-0.5-0.3c-0.8,1.4-2.3,4.3-3,5.8c-0.9,1.4,0.4-1.6-0.4-0.2c-2.4,4.3-5.3,10.1-8.2,15.9c-0.1-0.1-1,1.3,0.4-1.6
				c25.2-51.1,55.8-101.5,90-147.1c3.9-5.2,1.2-1.1-1.5,2.9c0.9-1.4,1.1-1.2,2-2.6c0.2,0.1-1.5,2.9-5.3,8.2l2.9-3.9
				c1-1.3,0.2,0.1,0.3,0.2c-1,1.3-1.9,2.6-1.9,2.7s0.2,0.1,0.2,0.2c1-1.3,2.9-3.9,3.9-5.2c-1,1.3-1.9,2.6-1.9,2.6s0.2,0.1,0.2,0.2
				c-1.9,2.6-4.8,6.5-6.7,9.2l0.2,0.1c2-2.6,4.7-6.6,6.7-9.2c-0.9,1.4-0.9,1.4-0.8,1.5c-2.8,4-5.8,7.8-8.5,11.9
				c0.9-1.3,1.9-2.6,2.8-4C301.3,300.2,296.4,306.7,293.6,310.8z"/>
		</g>
	</g>
</g>
<g>
	<g>
		<g>
			<path class="st6" d="M221,297.8c3.9,7.2,8.4,16.1,12.8,23.1c5.2,8.4,11,17.5,16.6,25.6c-0.1,0.1-0.8-0.5-0.3,0.2
				c1.7,2.8,1.5,3,1.3,3.1c-0.1,0.1-1.4-2-1-1.3c-1.4-2-3.8-5.4-2.5-3.3c0.3,0.8,2.3,3.4,2.6,4.2s-0.8-0.5-0.5,0.4
				c0.5,0.7,1.4,2,1.9,2.7c0.4,0.8-0.8-0.4-0.3,0.2c1.3,2.1,3.3,4.8,5.3,7.5c-0.1,0.1,0.3,0.8-0.8-0.5
				c-17.3-23.3-32.8-49.2-44.7-75.7c-1.3-3,0-0.9,1.2,1.3c-0.4-0.7-0.2-0.8-0.6-1.5c0.2-0.1,1.2,1.3,2.6,4.3l-1.1-2.2
				c-0.3-0.8,0.2-0.1,0.3-0.1c0.4,0.8,0.7,1.5,0.8,1.5s0.2-0.1,0.2-0.1c-0.4-0.8-1-2.2-1.4-3c0.4,0.8,0.7,1.5,0.8,1.5
				s0.2-0.1,0.2-0.1c0.7,1.5,1.7,3.8,2.5,5.2l0.2-0.1c-0.6-1.5-1.8-3.7-2.5-5.2c0.4,0.7,0.5,0.7,0.6,0.6c1.1,2.2,2,4.5,3.3,6.7
				l-1.1-2.2C218.2,291.8,219.8,295.6,221,297.8z"/>
		</g>
	</g>
</g>
<g>
	<g>
		<g>
			<path class="st6" d="M195.7,296.3c4.4,9.6,9.8,21.2,15.2,30.3c6.5,10.9,14,22.5,21.6,32.7c-0.1,0.1-0.9-0.6-0.3,0.2
				c2.4,3.5,2.2,3.7,1.9,3.9c-0.1,0.1-1.9-2.6-1.4-1.6c-1-1.3-2.2-3-3.1-4c-0.8-1.1-1.1-1.5-0.3-0.1c0.5,1,3.2,4.3,3.6,5.2
				c0.5,1-1-0.6-0.5,0.4c0.6,0.9,2,2.5,2.6,3.4c0.5,0.9-1-0.6-0.3,0.2c0.9,1.3,2.1,2.8,3.3,4.4c1.3,1.5,2.6,3.2,4,4.9
				c-0.1,0.1,0.5,1-0.9-0.6c-12-14.3-23-30-32.5-46.5s-17.4-33.9-23.6-51.6c-1.4-4,0-1.1,1.2,1.8c-0.4-1-0.2-1-0.7-2
				c0.2-0.1,1.2,1.8,2.8,5.8c-0.4-1-0.7-2-1.1-3c-0.3-1,0.2-0.1,0.3-0.1c0.4,1,0.7,2,0.8,2s0.2-0.1,0.3-0.1c-0.4-1-1.1-3-1.5-4
				c0.4,1,0.7,2,0.8,2s0.2-0.1,0.3-0.1c0.8,2,1.8,5,2.6,7l0.2-0.1c-0.7-2-2-5-2.6-7c0.4,1,0.5,1,0.6,0.9c1.2,3,2.1,6,3.5,8.9
				c-0.4-1-0.8-2-1.2-3c0.5,0.9,1.2,2.6,2,4.5C194.3,292.9,195,294.9,195.7,296.3z"/>
		</g>
	</g>
</g>
<g>
	<g>
		<g>
			<path class="st6" d="M311.5,324.4c-9.9,16.1-22.5,35.4-32.5,51.6c-12,19.5-25.2,40.4-37.5,59.7c-0.1-0.1,0.7-1.8-0.3-0.2
				c-4.2,6.3-4.5,6.2-4.7,6c-0.1-0.1,3.1-4.8,1.9-3.3c3.1-4.8,8.1-12.9,4.9-8.2c-1.1,1.5-5.1,8-6.3,9.5s0.7-1.8-0.5-0.3
				c-1,1.6-3.1,4.8-4.1,6.4c-1.1,1.5,0.7-1.8-0.3-0.2c-3.2,4.8-7.2,11.2-11.3,17.7c-0.1-0.1-1.2,1.5,0.7-1.8
				c35.5-56.4,72-114.5,107.8-170.8c4.1-6.4,1.3-1.4-1.6,3.5c1-1.6,1.1-1.5,2.1-3.2c0.2,0.1-1.6,3.5-5.6,10c1-1.6,2-3.2,3.1-4.8
				c1.1-1.6,0.2,0.1,0.3,0.2c-1,1.6-2,3.2-2,3.3s0.2,0.1,0.2,0.1c1-1.6,3.1-4.8,4.1-6.4c-1,1.6-2,3.2-2,3.3s0.2,0.1,0.2,0.1
				c-2,3.3-5.2,8-7.1,11.3l0.2,0.1c2.1-3.2,5.1-8,7.1-11.3c-1,1.6-0.9,1.7-0.8,1.8c-3,4.9-6.2,9.6-9.1,14.5c1-1.6,2-3.2,3-4.8
				C319.8,311.6,314.5,319.5,311.5,324.4z"/>
		</g>
	</g>
</g>
<g>
	<g>
		<g>
			<path class="st6" d="M257.8,375.3c0.8-0.6,1.8-1.1,3-1.1c1.1-0.1,2.2,0,3.3,0.5c1.1,0.4,2.1,1.3,2.7,2.4c0.6,1.2,0.5,2.5,0.3,3.5
				c-0.5,2.4-1.9,4.5-4.1,5.9c-1.1,0.7-2.4,1.1-3.8,1.1c-0.3,0-0.7,0-1-0.1c-0.4-0.1-0.8-0.2-1.1-0.4c-0.7-0.3-1.3-0.8-1.7-1.3
				c0.1-0.1,0.5,0.1,0.3-0.3c-0.5-0.7-0.6-1.1-0.5-1.4c0-0.2,0.1-0.3,0.3-0.4c0.1,0,0.2,0.2,0.3,0.4c0.1,0.2,0.2,0.3,0.2,0.1
				c0.6,1,2.3,1.8,1.4,1.1c-0.1-0.1-0.5-0.4-0.7-0.7c-0.3-0.3-0.5-0.7-0.5-0.9c0-0.4,0.5,0.1,0.5-0.3c-0.2-0.2-0.4-0.8-0.4-1.1
				c0.1-0.3,0.5,0.2,0.4-0.1c-0.1-0.8,0-1.7,0.6-2.1c0,0.1,0.2,0.1,0.2,0.1v0.1c0,0,0,0.1-0.1,0.2c-0.2,0.2-0.4,0.5-0.4,0.9
				s0.1,0.9,0.4,1.4c0.2,0.4,0.6,0.8,1,1.1c0.4,0.2,0.7,0.3,1.2,0.3c2,0,4.1-2.1,4.7-4.3c0.2-0.5,0.2-1,0.1-1.3s-0.3-0.6-0.6-0.9
				c-0.6-0.5-1.8-0.8-2.8-0.6c-0.9,0.1-1.9,0.8-2.7,1.7c-0.8,0.9-1.6,2-2.3,3.3c-0.7,1.1-0.5,0.1-0.2-0.8c-0.1,0.3-0.3,0.2-0.4,0.5
				c-0.2-0.1-0.2-0.9,0.5-2l-0.5,0.8c-0.2,0.2-0.2-0.1-0.3-0.2c0.2-0.3,0.3-0.6,0.3-0.6l-0.2-0.1c-0.2,0.3-0.5,0.9-0.7,1.1
				c0.2-0.3,0.3-0.6,0.3-0.6c-0.1,0-0.2-0.1-0.2-0.1c0.3-0.6,1-1.4,1.3-2l-0.2-0.1c-0.5,0.5-1,1.4-1.3,2c0.1-0.3,0.1-0.4,0-0.4
				c0.5-0.9,1.2-1.7,1.8-2.6c-0.2,0.3-0.5,0.5-0.7,0.8C255.4,377.1,256.9,375.9,257.8,375.3z"/>
		</g>
	</g>
</g>
<g>
	<g>
		<g>
			<path class="st6" d="M332.6,268.6c2.1,0.7,4.4,1.5,6.6,2.8c2.2,1.2,4.3,3.1,5.7,5.4c1.5,2.3,2.3,4.8,2.8,7.3s0.7,4.9,0.8,7.1
				c0.6,10.8-0.5,22.5-1.9,33.1c-0.1,0-0.2-0.9-0.4,0c-0.7,3.5-1,3.5-1.2,3.4c-0.1,0,0.4-2.6,0.1-1.8c0.4-2.6,0.8-7.1,0.4-4.5
				c-0.2,0.9-0.6,4.4-0.9,5.3s-0.3-0.9-0.6-0.1c-0.1,0.9-0.4,2.6-0.5,3.5c-0.3,0.9-0.3-0.9-0.4-0.1c-0.5,2.6-1,6.1-1.5,9.7
				c-0.1,0-0.4,0.8-0.2-0.9c2.2-15.4,4.4-31.1,4-46.7c-0.1-3.9-0.4-7.7-1.7-11.1c-0.6-1.7-1.6-3.2-2.7-4.5c-1.2-1.3-2.7-2.3-4.3-3.1
				s-3.4-1.5-5.2-2.1s-3.7-1.2-5.5-1.7c-3.7-1-7.5-1.9-11.2-2.2c-1.7-0.1-1.9-0.2-1.4-0.3s1.8-0.1,3.1-0.1c-0.9,0-0.8-0.2-1.7-0.2
				c0-0.2,1.8-0.5,5.3,0.1c-0.9-0.2-1.7-0.3-2.6-0.4c-0.9-0.2,0-0.2,0-0.3c0.9,0.1,1.8,0.3,1.8,0.2s0-0.2,0-0.3
				c-0.9-0.2-2.7-0.4-3.5-0.5c0.9,0.1,1.8,0.2,1.8,0.2c0-0.1,0-0.2,0-0.3c1.8,0.2,4.4,0.9,6.2,1.2v-0.2c-1.7-0.5-4.4-1-6.2-1.2
				c0.9,0.1,0.9,0,0.9-0.1c2.7,0.4,5.3,1.2,8,1.7c-0.9-0.2-1.7-0.5-2.6-0.7C325.8,266.3,330.1,267.7,332.6,268.6z"/>
		</g>
	</g>
</g>
<g>
	<g>
		<g>
			<path class="st6" d="M350.8,336.4c1.8,0.1,3.7,0.4,5.4,1.2c1.8,0.8,3.4,2.1,4.7,3.6c2.6,3.1,3.8,7.1,3.9,11.1
				c0,4-1.2,7.8-2.9,11.2c-1.7,3.4-3.8,6.3-6,9c-2.6,3.2-5.7,6.3-9.6,8.5c-3.8,2.2-8.3,3.5-13,3.1c-2.3-0.2-4.6-0.9-6.6-1.9
				c-2-1.1-3.8-2.5-5.4-4.2c-3-3.4-4.8-7.8-5-12.2c0.1,0,0.4,1.4,0.4,0c0-0.4,0-0.7,0-1s0-0.6,0.1-0.9c0-0.5,0.1-1,0.2-1.4
				c0.1-0.8,0.3-1.3,0.5-1.6c0.3-0.7,0.4-0.6,0.5-0.6s-0.2,1-0.3,1.9s-0.2,1.5,0,0.9c-0.1,0.5,0,1.1-0.1,1.6c0,0.6,0,1.2,0.1,1.7
				c0.1,1.1,0.4,2.2,0.6,3.1c0.3,0.8,0.5,1.4,0.5,1.5c0.1,0.1,0-0.2-0.3-1.2c-0.2-0.7-0.5-2.3-0.6-4c-0.1-0.8,0-1.7,0-2.4
				c0.1-0.7,0.2-1.3,0.3-1.6c0.4-1.3,0.2,1.4,0.6,0.1c0.2-1.3,1-3.8,1.5-5c0.7-1.1-0.2,1.4,0.4,0.2c0.8-1.7,2.1-3.6,3.7-5.4
				s3.7-3.4,5.9-4.5c0,0.1,0.4,0,0.4,0s-0.3,0.2-1.3,0.9c-4.7,2.8-8.4,7.6-9.5,12.9c-0.3,1.3-0.4,2.7-0.4,4c0,1.4,0.2,2.7,0.6,4
				c0.7,2.6,2.1,5.1,3.9,7.1s4.2,3.6,6.7,4.3c2.5,0.8,5.3,0.8,8,0.2c5.4-1.1,10.1-4.7,13.9-9c3.7-4.4,7.1-9.3,8.5-14.7
				c0.7-2.7,0.8-5.4,0.2-8s-1.9-5-3.8-6.8c-1.9-1.7-4.4-2.5-7.1-2.7c-2.7-0.1-5.5,0.4-8.2,1.2c-2.7,0.8-5.3,1.9-7.6,3.4
				c-1.2,0.8-2.2,1.6-3.2,2.5c-1,1-1.8,2-2.5,3.1c-0.6,1-0.9,1.7-1.1,1.9c-0.2,0.3-0.2,0.1,0-0.2c0.2-0.7,0.9-2.5,2.1-4
				c-0.7,1-0.9,0.9-1.5,2c-0.1,0,0.1-0.7,0.8-1.8c0.7-1.1,2-2.6,4.1-4.2c-1.1,0.7-2.1,1.6-3,2.5c-1,0.9-0.2-0.1-0.2-0.2
				c0.9-1,2-1.8,2-1.8s-0.1-0.2-0.2-0.2c-0.5,0.4-1.3,1.1-2,1.8c-0.7,0.7-1.4,1.5-1.8,2.1c0.8-1.1,1.8-2.1,1.7-2.1
				c0,0-0.2-0.1-0.2-0.2c0.9-1,2.3-2.1,3.7-3c1.5-0.9,3-1.7,4.2-2.3l-0.1-0.2c-1.3,0.5-2.8,1.3-4.3,2.2c-1.5,1-2.8,2.1-3.8,3.1
				c1-1,0.9-1.1,0.8-1.2c3.2-2.9,7.1-4.5,11-5.9c-1.3,0.4-2.6,0.9-3.9,1.4c1.2-0.7,3.5-1.6,6.1-2.2
				C345.8,336.6,348.6,336.3,350.8,336.4z"/>
		</g>
	</g>
</g>
<g>
	<g>
		<g>
			<path class="st6" d="M333,351.5c0.9-1,1.9-2,3.1-3c1.1-0.9,2.3-1.8,3.7-2.6c1.3-0.8,2.8-1.5,4.4-1.8c1.6-0.4,3.3-0.3,4.9,0.3
				c1.8,0.7,3.4,2.2,4.2,4c0.8,1.7,1.2,3.6,1.3,5.4c0,3.7-0.9,7.1-2.4,10.2c-0.1-0.1-0.1-0.6-0.4-0.2c-1.2,1.9-1.5,1.7-1.7,1.6
				c-0.1-0.1,0.8-1.4,0.4-1c0.8-1.4,1.7-4,1-2.5c-0.3,0.5-1.1,2.4-1.6,2.8c-0.4,0.4-0.1-0.7-0.5-0.3c-0.2,0.5-0.8,1.3-1.1,1.7
				c-0.4,0.3,0-0.6-0.3-0.2c-1,1.2-2.2,2.7-3.8,4c-0.1-0.1-0.5,0.1,0.2-0.6c3.2-2.9,5.5-6.8,6.5-11c0.5-2.1,0.7-4.3,0.3-6.3
				s-1.3-3.8-2.8-4.5c-1.5-0.8-3.4-0.5-5.3,0.3s-3.7,2.2-5.4,3.6c-3.4,2.9-6.2,6.4-7.3,10.4c-0.5,1.8-0.5,0.4-0.2-1.1
				c-0.1,0.5-0.3,0.4-0.3,0.9c-0.2,0-0.3-1.1,0.5-3c-0.2,0.5-0.4,0.9-0.6,1.4s-0.2-0.1-0.3-0.1c0.2-0.5,0.4-1,0.3-1
				s-0.2-0.1-0.2-0.1c-0.2,0.5-0.6,1.5-0.7,2c0.1-0.5,0.3-1,0.3-1c-0.1,0-0.2-0.1-0.3-0.1c0.3-1.1,1.1-2.5,1.7-3.4l-0.2-0.1
				c-0.7,0.9-1.3,2.4-1.7,3.5c0.1-0.5,0.1-0.6-0.1-0.6c0.6-1.6,1.6-3,2.4-4.4c-0.3,0.5-0.6,0.9-0.9,1.4c0.1-0.6,0.7-1.4,1.3-2.2
				C331.7,352.9,332.5,352.1,333,351.5z"/>
		</g>
	</g>
</g>
<g>
	<g>
		<g>
			<path class="st6" d="M177.1,330.4c-0.5-4.3-0.7-8.8-0.8-13.4s0.2-9.4,0.6-14.2c0.8-9.5,2.1-18.9,2.6-27.4c0-0.6,0.1-1.4,0.1-1.7
				c0-0.2,0-0.3-0.1-0.3s-0.1-0.1-0.2-0.1c-0.2-0.1-0.6-0.2-1-0.1s-0.9,0.2-1.3,0.5c-0.8,0.5-1.6,1.3-2.1,2.3s-0.9,2.1-1.1,3.3
				s-0.4,2.5-0.6,3.8s-0.3,2.6-0.5,4c-0.3,2.6-0.5,5.3-0.7,8c-0.8,10.6-1,21.3-0.4,31.5c-0.1,0-0.4-1.7-0.4,0c0.2,6.8,0,6.9-0.3,6.9
				c-0.1,0-0.4-5.1-0.4-3.4c-0.4-5.1-0.6-13.7-0.6-8.6c-0.1,1.7,0.4,8.6,0.4,10.3c-0.1,1.7-0.5-1.7-0.6,0c0.1,1.7,0.5,5.1,0.6,6.9
				c0.1,1.7-0.6-1.7-0.4,0c0.4,5.2,1.5,12,2.9,18.8c-0.1,0,0.1,1.8-0.7-1.6c-2.9-14.3-4.1-28.9-4-43.6c0-7.3,0.4-14.7,1.1-22
				c0.2-1.8,0.4-3.7,0.6-5.5s0.4-3.6,0.8-5.5s0.9-3.9,2.2-5.8c0.6-0.9,1.4-1.7,2.4-2.4c1-0.6,2.1-1.1,3.5-1.1c0.7,0,1.4,0.1,2.1,0.5
				s1.4,1,1.7,1.9c0.3,0.8,0.2,1.5,0.2,2l-0.1,1.4c-0.1,1.8-0.3,3.7-0.4,5.5c-0.3,3.7-0.7,7.3-1.1,11c-0.8,7.3-1.5,14.5-1.6,21.7
				s0.4,14.4,1.2,21.6c0.4,3.6,0.9,7.2,1.4,10.8l0.8,5.4c0.4,2.5,0.8,4.9,1.2,7.4c-3.1-0.1-6.2-0.3-9.2-0.4
				c-6.9-0.4-1.7-0.4,3.5-0.4c-1.7,0-1.7-0.2-3.4-0.2c0-0.1,0.6-0.2,1.8-0.2c0.6,0,1.4,0,2.3,0c0.5,0,1,0,1.6,0c0.7,0,1.4,0,2.2,0
				c-0.2-1.1-0.4-2.3-0.6-3.6l0.6,3.6l-2.6-0.1c-1.7-0.1,0-0.2,0-0.3c0.8,0,1.5,0.1,2.1,0.1c-0.1-0.9-0.3-1.4-0.3-1.5
				c-0.1,0-0.2-0.1-0.3-0.1l0.2,1.2l-5.2-0.2c1.7,0.1,3.4,0.1,3.4,0.1c0-0.1,0-0.2,0-0.3c0.4,0,0.8,0,1.3,0
				c-0.2-1.4-0.4-2.9-0.7-4.4c-0.3-1.7-0.5-3.4-0.8-4.8h-0.2c0.2,1.4,0.4,3.1,0.7,4.8c0.2,1.4,0.5,2.8,0.7,4.1c-0.4,0-0.8,0-1.1,0
				c0.9,0,0.8-0.1,0.6-0.2h0.1l-0.2-1l-0.2-1.5l-0.6-3.8c-0.4-2.5-0.8-5-1.2-7.5l0.7,5.1C178.5,344.2,177.6,335.6,177.1,330.4z"/>
		</g>
	</g>
</g>
<g id="Lager_2_00000153677055349131647560000014463032480820547006_">
</g>
<g>
	<path d="M210.8,226.1c1.6,1.9,3.3,3.8,5.2,5.6c0.9,0.9,1.9,1.8,2.9,2.7s2,1.8,3,2.7c4.1,3.6,8.3,7.2,12.9,10.4
		c4.5,3.2,9.4,6,14.4,7.7c1.3,0.4,2.5,0.9,3.8,1.1c0.6,0.1,1.3,0.3,1.9,0.4c0.6,0.1,1.3,0.2,1.9,0.3c0.3,0,0.6,0.1,0.9,0.1h0.9
		c0.6,0,1.3,0.1,1.9,0.1s1.2-0.1,1.8-0.1c0.6-0.1,1.2,0,1.8-0.2c1.4-0.3,2.9-0.5,4.3-1c1.4-0.4,2.8-1,4.2-1.6
		c2.7-1.3,5.4-2.8,7.8-4.6c1.3-0.8,2.5-1.9,3.7-2.8c1.2-1,2.4-2,3.5-3.1c2.3-2.1,4.5-4.3,6.7-6.6s4.2-4.7,6.3-7.1c1-1.2,2-2.4,3-3.6
		c0.9-1.2,1.9-2.4,2.8-3.7c3.5-5.1,6.2-10.5,8.1-16.2c0.1,0-0.3,2,0.4,0.1c1.3-3.8,1.8-5.7,2.1-6.7c0.3-1,0.5-0.9,0.6-0.9
		c0.2,0-1.4,5.9-0.8,4c-0.8,2.9-2,6.8-3.1,9.1c-0.5,1.2-0.8,1.9-0.9,2.2c-0.1,0.2,0.2-0.2,0.8-1.6c0.2-0.5,0.6-1.3,1-2.3
		s0.8-2.2,1.2-3.4c0.4-1.2,0.7-2.4,1-3.5c0.3-1,0.5-1.9,0.7-2.4c0.7-1.9-0.1,2.1,0.6,0.1c0.5-2,1.2-6,1.5-8.1c0.4-2,0.1,2.1,0.4,0.1
		c1-6.1,1.4-14.3,1.8-22.4c0.1,0,0.4-2,0.2,2.1c-0.4,8.9-0.9,17.9-2.7,26.9c-0.9,4.5-2.2,8.9-4.1,13.1c-1.8,4.2-4.1,8.3-6.7,12.1
		c-2.7,3.8-5.7,7.2-8.7,10.6c-3,3.4-6.2,6.7-9.5,9.9c-3.4,3.1-7,6.1-10.9,8.5c-3.9,2.5-8.3,4.5-13,5.5c-2.3,0.5-4.8,0.7-7.1,0.7
		c-1.2-0.1-2.4-0.1-3.6-0.3l-1.8-0.3c-0.6-0.1-1.2-0.3-1.7-0.4c-4.6-1.1-8.9-3-13-5.3c-8.1-4.5-15.1-10.6-21.8-16.6
		c-3.4-3-6.7-6.3-9.6-9.9c-2.9-3.6-5.3-7.6-7.2-11.8s-3.4-8.5-4.9-12.7s-2.9-8.4-4.5-12.5c-1.5-3.8-1.6-4.3-1-3.1
		c0.6,1.1,1.8,3.9,3,6.7c-0.8-1.9-0.6-2-1.4-3.8c0.1,0,0.6,0.9,1.4,2.7c0.8,1.9,2,4.7,3.4,8.5c-0.7-1.9-1.3-3.8-2-5.8
		c-0.6-1.9,0.2-0.1,0.3-0.1c0.3,1,0.7,1.9,1,2.6c0.3,0.7,0.4,1.2,0.5,1.2s0.2-0.1,0.3-0.1c-0.7-1.9-2.1-5.8-2.8-7.7
		c0.4,1,0.7,1.9,1,2.6c0.3,0.7,0.5,1.2,0.5,1.2c0.1,0,0.2-0.1,0.3-0.1c1.5,3.8,3.3,9.7,4.8,13.4l0.2-0.1c-1.4-3.8-3.4-9.6-4.8-13.4
		c0.8,1.9,0.8,1.9,1,1.8c2.2,5.7,3.8,11.7,6.4,17.1c-0.8-1.8-1.6-3.7-2.3-5.6c0.9,1.8,2.2,5.1,3.9,8.4
		C206.7,220.5,208.9,223.8,210.8,226.1z"/>
</g>
<g>
	<path d="M247.1,190.3c0.2,0.2,0.6,0.4,0.9,0.6c0.2,0.1,0.4,0.2,0.6,0.3c0.3,0.1,0.1,0.1,0.4,0.1c1,0,2.3,0,3.2-0.1h0.2
		c0.1,0,0.2,0,0.3,0c0.2,0,0.4,0,0.6,0c0.4,0,0.8,0.1,1.2,0.2c0.7,0.2,1.3,0.5,1.8,0.7c1.1,0.5,1.9,0.8,2.7,0.8c0.9,0,1.9-0.5,3-1.1
		c0.3-0.2,0.5-0.3,0.9-0.5c0.5-0.2,0.9-0.3,1.3-0.4c0.8-0.1,1.6-0.2,2.4-0.1c0.7,0,1,0.2,1.4,0.3l1,0.3c0.6,0.2,1.2,0.3,1.7,0.4
		c1.1,0.1,1.9,0,2.4-0.4c0.1,0.1,0,0.4,0.3,0.3c0.5-0.3,0.7-0.6,0.9-0.7c0.2-0.1,0.3-0.1,0.4,0c0.2,0.1-0.6,1-0.2,0.8
		c-0.3,0.5-0.9,1-1.4,1.2c-0.4,0.2-0.6,0.3,0,0.2c0.2,0,0.7-0.2,1.1-0.6c0.4-0.3,0.7-0.8,0.9-0.9c0.4-0.3,0.1,0.6,0.5,0.3
		c0.2-0.4,0.6-1.3,0.6-1.8c0.2-0.4,0.3,0.6,0.4,0.1c0.5-1.4,0.4-3.3,0.2-5.1c0.1,0,0.2-0.5,0.4,0.4c0.1,1,0.1,2,0.1,3.1
		c-0.1,1-0.2,2.1-0.7,3.3c-0.5,1.1-1.5,2.3-2.7,2.8c-1.3,0.5-2.5,0.5-3.6,0.3c-1.1-0.1-2.1-0.5-3-0.7c-0.2-0.1-0.4-0.1-0.6-0.1
		c0,0-0.1,0,0,0V194v-0.4c-0.1,1.2,0,0.3,0,0.6l0,0l0,0l0,0h-0.3c-0.4,0-0.8,0-1.2,0.1c-0.2,0-0.3,0.1-0.5,0.1c-0.1,0-0.1,0-0.2,0.1
		l-0.2,0.1l-1.3,0.7c-0.9,0.4-2,0.9-3.3,1s-2.6-0.3-3.6-0.7s-1.7-0.8-2.4-1c-0.3-0.1-0.5-0.1-0.7,0c-0.7,0.1-1.1,0.1-1.7,0.2
		c-0.5,0-1,0-1.5,0.1c-0.3,0-0.5,0-0.8,0c-0.1,0-0.3,0-0.5,0s-0.5-0.1-0.7-0.1c-1.1-0.4-2.3-0.9-3.2-2.1c-0.5-0.6-0.8-1.3-0.9-2
		c-0.1-0.7-0.1-1.4,0-2c0.2-1.2,0.7-2.2,1.2-3.2c0.5-0.9,1-1.8,1.4-2.4c0.1-0.1,0.1-0.2,0.1,0c0,0.1,0,0,0,0c0-0.1,0-0.1,0.1-0.1
		c0,0,0,0.1,0.1,0.1c0,0,0,0.1,0.1,0l0,0v0.1c0,0.2-0.1,0.5-0.2,0.8c0.1-0.4,0.3-0.3,0.4-0.7c0.1,0,0.2,0.3,0.1,0.7
		c-0.1,0.4-0.3,1-0.7,1.8l0.6-1.1c0.3-0.3,0.2,0.1,0.3,0.2c-0.2,0.4-0.4,0.8-0.4,0.8c0.1,0,0.2,0.1,0.2,0.1c0.2-0.4,0.6-1.1,0.8-1.5
		c-0.2,0.4-0.4,0.8-0.4,0.8c0.1,0,0.2,0.1,0.2,0.1c-0.4,0.8-1.1,1.8-1.3,2.6l0.2,0.1c0.3-0.7,0.9-1.8,1.3-2.6
		c-0.2,0.4-0.1,0.4,0,0.5c-0.6,1.1-1.3,2.2-1.3,3.2c0.1-0.3,0.2-0.7,0.3-1c0,0.4-0.1,1-0.2,1.6C246.7,189.5,246.8,190,247.1,190.3z"
		/>
</g>
<g>
	<path d="M285.3,193.4c1.4,2.1,3.6,4.3,5.7,5.7c2.6,1.7,5.6,3.1,8.6,3.9c0,0-0.3,0,0,0.1c1,0.3,1,0.4,0.9,0.5c0,0-0.8-0.2-0.5-0.1
		c-0.8-0.2-2-0.6-1.3-0.3c0.2,0.1,1.2,0.4,1.5,0.5c0.2,0.1-0.3,0.1-0.1,0.2c0.3,0.1,0.8,0.2,1,0.3s-0.3,0.1,0,0.1
		c0.8,0.2,1.8,0.4,2.8,0.6c0,0,0.2,0.1-0.3,0.1c-4.5-0.7-9.1-2.2-13-4.9s-7.1-6.5-8.6-11c-0.3-1,0-0.3,0.3,0.4
		c-0.1-0.2,0-0.3-0.2-0.5c0.1,0,0.3,0.4,0.8,1.4c-0.1-0.2-0.2-0.5-0.3-0.7c-0.1-0.3,0.1,0,0.1,0c0.1,0.2,0.2,0.5,0.2,0.5h0.1
		c-0.1-0.2-0.3-0.7-0.4-1c0.1,0.2,0.2,0.5,0.2,0.5h0.1c0.2,0.5,0.5,1.2,0.7,1.6h0.1c-0.2-0.5-0.5-1.2-0.7-1.6
		c0.1,0.2,0.1,0.2,0.2,0.2c0.3,0.7,0.6,1.4,1,2.1c-0.1-0.2-0.2-0.4-0.4-0.7C284.3,191.6,284.8,192.7,285.3,193.4z"/>
</g>
<path class="st8" d="M291.2,208c-4.6,2.7-10,16.3-29.5,16.3c-24.6,0-26.1-12.8-31-17.1c-1.5-1.3,16.7,7.8,30.2,7.8
	C274.4,215,292.2,207.4,291.2,208z"/>
<g>
	<path d="M236.6,193.8c-1.4,2.3-3.8,4.5-5.9,6c-2.6,1.9-5.7,3.4-8.8,4.2c0,0,0.2-0.2,0-0.1c-1,0.2-1.1,0.1-1.1,0
		c0,0,0.8-0.2,0.5-0.2c0.8-0.2,2-0.6,1.2-0.4c-0.3,0-1.3,0.4-1.5,0.4c-0.3,0,0.2-0.2-0.1-0.2c-0.3,0.1-0.8,0.2-1,0.2
		c-0.3,0,0.2-0.2,0-0.1c-0.8,0.1-1.8,0.4-2.8,0.5c0,0-0.3,0,0.2-0.2c4.4-0.7,8.8-2.3,12.6-4.9c3.7-2.6,6.7-6.2,8.1-10.4
		c0.3-1,0.2-0.2,0,0.5c0.1-0.2,0.1-0.2,0.2-0.5c0.1,0,0,0.6-0.4,1.5c0.1-0.2,0.2-0.5,0.3-0.7s0.1,0,0.1,0c-0.1,0.2-0.2,0.5-0.2,0.5
		h0.1c0.1-0.2,0.3-0.7,0.4-1c-0.1,0.2-0.2,0.5-0.2,0.5h0.1c-0.2,0.5-0.5,1.2-0.7,1.7h0.1c0.3-0.5,0.6-1.2,0.7-1.7
		c-0.1,0.3-0.1,0.3,0,0.3c-0.3,0.7-0.7,1.4-1,2.2c0.1-0.2,0.3-0.5,0.4-0.7C237.8,192.1,237.1,193.2,236.6,193.8z"/>
</g>
<path class="st3" d="M454.8,346.3c-6.7,14.7-4.8,20.6-25.2,61c-8,15.8-19.3,32.5-25.3,45.4c-15.7,34.2-17.9,58-3.4,90.3
	c13.8,30.6,60.7,18,76.7-44.2c8-30.9,7.1-59.5,7.6-89.9c0.4-29.5,7.4-57.1,11.5-64.9c4-7.8,8.7-8.1,45.3-24.4
	c40.4-18,88.9-22.7,88.9-31.9c0-10.4-18.9-4.2-38.5-1.2c-26.3,4-43.4,5.9-50.6,6.3c0,0,3.2-3.6,4.9-8.8c2.1-6.5,4.7-13.2,1.6-14.2
	c-9.8-3.1-22.2,15.2-26.6,15c-22.5-0.9-37.8,7.6-44.3,13.9c-5,4.9-8.9,14.7-14.9,27.3C460,331.4,461.5,331.6,454.8,346.3z"/>
<g>
	<path d="M402.3,546.4c2.2,3.1,4.6,6.2,7.6,8.5l1.2,0.8c0.4,0.3,0.8,0.5,1.2,0.7l0.6,0.4l0.7,0.3c0.4,0.2,0.9,0.4,1.3,0.5
		c0.9,0.3,2,0.7,2.8,0.9c0.4,0.1,0.9,0.2,1.4,0.2l1.5,0.1c4,0.1,8.1-0.7,12.1-1.8c4-1.2,8-2.7,11.6-4.8s6.8-4.8,9.6-7.9
		c2.8-3.1,5.3-6.5,7.7-9.9c4.7-6.8,8.1-14.3,10.6-21.6c3-8.8,5.1-18.1,6.5-27.6s2.1-19.2,2.5-28.9c0.4-9.7,0.4-19.5,0.6-29.2
		s0.3-19.3,0.7-28.7c0.1,0,0.2,3.1,0.4,0c0.4-6.3,0.7-9.4,1-11s0.4-1.5,0.5-1.5c0,0,0,0.6-0.1,1.4s-0.1,1.9-0.2,2.9
		c-0.1,2-0.2,3.5-0.1,2c-0.5,9.4-0.7,25-0.4,15.6c0.1-1.6,0.2-5.5,0.4-9.4c0.1-2,0.2-3.9,0.3-5.6c0.1-1.7,0.2-3,0.3-3.8
		c0.4-3.1,0.2,3.1,0.6,0c0.2-3.1,0.8-9.3,1.4-12.4c0.6-3-0.1,3.1,0.4,0.1c0.8-4.6,2.1-9.9,3.9-15.4s4.2-11.3,6.8-16.9
		c0.1,0.1,1.5-2.7-1,3c-2.8,6.2-5.2,12.5-7,19.1c-1.8,6.5-2.8,13.2-3.4,20s-0.8,13.7-0.9,20.6s-0.3,13.8-0.4,20.7
		c-0.2,13.8-0.2,27.7-1.3,41.6c-1.1,13.9-3.3,27.8-7.5,41.2c-2.1,6.7-4.8,13.3-8.3,19.4c-1.7,3.1-3.8,6.1-5.8,8.9
		c-2.1,2.8-4.3,5.6-6.7,8.2c-2.5,2.6-5.2,5-8.3,6.9c-3.1,1.9-6.3,3.4-9.7,4.6c-3.4,1.2-6.8,2.1-10.4,2.7c-1.8,0.3-3.6,0.4-5.4,0.4
		s-3.8-0.2-5.6-0.8c-0.8-0.2-1.7-0.5-2.6-0.8c-0.9-0.4-1.8-0.7-2.6-1.2c-0.4-0.2-0.8-0.5-1.2-0.7l-1.1-0.8c-0.4-0.3-0.8-0.5-1.1-0.8
		l-1-0.9l-1-0.9c-0.3-0.3-0.6-0.7-0.9-1c-0.6-0.7-1.2-1.3-1.8-2l-1.6-2.2c-0.3-0.4-0.5-0.7-0.8-1.1l-0.7-1.1c-0.9-1.5-1.9-3-2.7-4.6
		l-1.2-2.3c-0.4-0.8-0.8-1.6-1.2-2.4l-2.2-4.8c-0.7-1.6-1.3-3.2-1.9-4.8c-5.1-13-8.7-26.3-11.8-39.7c-2.9-12.2-0.4-3.1,2,6
		c-0.8-3-0.6-3.1-1.4-6.1c0.1,0,0.6,1.5,1.4,4.5c0.2,0.8,0.4,1.6,0.7,2.6c0.3,0.9,0.6,2,0.9,3.1c0.6,2.3,1.4,4.9,2.2,7.9
		c-0.8-3-1.6-6-2.5-9.1c-0.8-3,0.2-0.1,0.3-0.1c0.4,1.5,0.8,3,1.1,4.2c0.2,0.6,0.3,1,0.4,1.4c0.1,0.3,0.2,0.5,0.2,0.5
		c0.1,0,0.2-0.1,0.3-0.1c-0.8-3-2.5-9-3.1-12.1c0.4,1.5,0.7,3,1,4.2c0.2,0.6,0.3,1,0.4,1.4c0.1,0.3,0.2,0.5,0.2,0.5
		c0.1,0,0.2-0.1,0.3-0.1c0.9,3,1.8,6.8,2.9,10.5c0.6,1.9,1.1,3.7,1.7,5.5c0.5,1.8,1.1,3.5,1.6,4.9l0.2-0.1c-0.5-1.5-1-3.2-1.6-4.9
		c-0.5-1.8-1.1-3.6-1.7-5.5c-1.1-3.7-2.1-7.5-2.9-10.5c0.9,3,0.9,3,1.1,2.9c0.6,2.3,1.2,4.5,1.9,6.8l2,6.7c0.6,2.3,1.4,4.4,2.2,6.7
		c0.8,2.2,1.5,4.4,2.5,6.5l-0.9-2.2l-0.8-2.2l-1.5-4.4c0.6,1.4,1.3,3.4,2.2,5.8c0.9,2.3,2,4.9,3,7.6
		C397,537,399.7,542.6,402.3,546.4z"/>
</g>
<g>
	<path d="M446.1,375c-2.8,7.4-6.2,15.6-10.2,23.5s-8.5,15.6-12.4,22.5c-4.7,8.3-9.8,16.9-14.2,25.8c-4.5,8.8-8.2,18-10.7,27.1
		c-0.1,0,0.1-1.6-0.4-0.1c-1.6,6.1-1.9,6.1-2.1,6c-0.1,0,1-4.7,0.6-3.1c0.4-2.3,1.4-5.4,1.9-7.3c0.6-1.9,0.8-2.7,0-0.4
		c-0.3,0.7-0.8,2.7-1.4,4.6c-0.5,1.9-0.9,3.9-1.2,4.6c-0.5,1.5-0.1-1.6-0.6-0.1c-0.4,1.6-0.9,4.7-1.1,6.3c-0.4,1.6-0.2-1.7-0.4-0.1
		c-0.8,4.8-1.2,11.2-1.2,17.7c-0.1,0-0.3,1.6-0.3-1.6c0.1-7,0.6-14.2,1.9-21.2s3.5-13.9,6.1-20.5c5.3-13.3,12.6-25.6,19.7-37.9
		c3.6-6.1,7.1-12.2,10.4-18.4c3.3-6.2,6.3-12.6,9.1-19c5.5-12.9,10-26.2,14.5-39.5c2.1-6,0.8-1.4-0.5,3.2c0.4-1.5,0.6-1.5,1.1-3
		c0.2,0.1-0.5,3.2-2.5,9.3l1.5-4.5c0.6-1.5,0.2,0.1,0.3,0.1c-0.5,1.5-1,3-1,3c0.1,0,0.2,0.1,0.3,0.1c0.5-1.5,1.5-4.5,2-6.1
		c-0.5,1.5-1,3-1,3.1c0.1,0,0.2,0.1,0.3,0.1c-1,3.1-2.6,7.5-3.6,10.6l0.2,0.1c1.1-3,2.6-7.6,3.6-10.6c-0.4,1.5-0.4,1.6-0.3,1.6
		c-1.5,4.6-3.2,9-4.7,13.6l1.6-4.5C450.8,363,447.8,370.5,446.1,375z"/>
</g>
<path class="st1" d="M388.2,11.5c-10,0.3-10.8,140.4-7.1,173.6l-28.3,24l-10.8,8.3c1.4,0,287.8-1.8,289-2.5
	c1.7-0.9,11.6-203,12.2-204.9C645.8,2.2,458.9,9.7,388.2,11.5z"/>
<g>
	<path d="M543.2,214.2c21.8-0.1,44.7-0.2,68.3-0.3c5.9-0.1,11.8-0.1,17.8-0.2h2.1h0.2c0.1,0,0-0.1,0.1-0.2l0.1-0.8l0.1-1.1l0.2-2.2
		c0.3-3,0.5-6,0.7-9c0.8-12,1.6-24.1,2.3-36.1c2.8-48.4,5.3-96.8,7.6-140.7c0.2-2.7,0.3-5.5,0.5-8.2l0.3-4.1l0.1-0.7
		c0-0.1,0-0.1,0-0.1s-0.1,0-0.2-0.1c-0.3-0.1-0.6-0.2-0.9-0.2c-2.5-0.6-5.3-0.8-8-1s-5.5-0.3-8.3-0.5c-11.1-0.4-22.3-0.4-33.5-0.4
		c-22.5,0.1-45.2,0.6-68,1.1c-22.8,0.6-45.6,1.2-68.4,1.9c-22.7,0.7-45.4,1.4-67.7,2l0,0l0,0c0,0-0.1,0.1-0.1,0.2
		c-0.2,0.3-0.4,0.7-0.6,1.2c-0.4,0.9-0.7,2-0.9,3c-0.5,2.1-0.9,4.3-1.2,6.5c-0.6,4.4-1.1,8.9-1.5,13.4c-0.7,8.9-1.1,17.9-1.4,26.7
		c-0.1,0,0-8.8-0.4,0c-0.7,17.5-0.8,26.3-0.9,30.7c-0.2,4.4-0.3,4.4-0.4,4.4c0,0,0-0.1,0-0.3c0-0.2,0-0.5,0-0.8c0-0.7,0-1.7,0-2.9
		c0-2.3,0-5.4,0.1-8.1c0.1-5.5,0.2-9.9,0-5.5c0.2-13.2,0.8-30.7,1.6-41.7c0.4-5.5,0.8-9.3,0.8-10.1c0.1-0.8-0.3,1.4-0.8,7.9
		c-0.4,4.4-1.1,15.3-1.5,26.3s-0.5,22-0.7,26.3c-0.3,8.8-0.3-8.8-0.6,0c-0.1,8.8-0.1,26.4,0,35.2c0,8.8-0.5-8.8-0.4,0
		c0.1,13.2,0.4,28.6,1.3,45.1c0.2,4.1,0.5,8.3,0.9,12.6l0.1,1.3v0.1l-0.1,0.1l-0.4,0.3c-0.8,0.7-1.6,1.4-2.4,2.1
		c-1.6,1.4-3.3,2.8-4.9,4.2c-6.6,5.6-13.3,11.3-20,17c0-0.1-1.8,1.3-1.8,1.3s0.1-0.1,0.3-0.3c0.3-0.2,0.7-0.6,1.3-1.1
		c1.3-1.1,3.3-2.9,6.7-5.7c6.4-5.5,12.9-10.9,19.3-16.4c0.7-0.6,1.9-1.6,1.7-1.5l-0.2-2.5c-0.2-2.1-0.3-4.2-0.5-6.3
		c-0.3-4.2-0.5-8.5-0.7-12.7c-0.7-16.9-1-33.9-1.1-50.8c-0.1-17,0.1-34,0.7-51c0.3-8.5,0.7-17,1.5-25.5c0.4-4.3,0.8-8.5,1.5-12.8
		c0.3-2.1,0.7-4.3,1.3-6.4c0.3-1.1,0.6-2.2,1.1-3.3c0.2-0.6,0.5-1.1,1-1.7c0.2-0.3,0.6-0.7,1-0.9c0.4-0.3,0.9-0.4,1.4-0.5
		c30.3-0.9,60.7-1.8,91.1-2.8c30.4-0.9,60.8-1.7,91.2-2.1c15.2-0.2,30.5-0.3,45.7,0c3.8,0.1,7.6,0.2,11.5,0.4
		c3.8,0.2,7.6,0.4,11.5,0.9c1,0.1,1.9,0.3,2.9,0.5c0.5,0.1,1,0.2,1.5,0.4c0.1,0,0.3,0.1,0.4,0.1c0.1,0,0.2,0.1,0.5,0.2
		c0.4,0.2,0.8,0.4,1.2,0.7s0.6,0.6,0.8,1c0.1,0.2,0.1,0.4,0.1,0.6c0,0.2,0,0.5-0.1,0.7l-0.1,0.5v0.3l-0.1,0.7l-0.2,2.8l-0.7,11.4
		c-1.6,30.4-3.3,60.8-4.9,91.2c-0.8,15.2-1.7,30.4-2.5,45.6c-0.9,15.2-1.7,30.3-2.9,45.5l-0.3,2.9l-0.1,1.4
		c-0.1,0.5-0.1,0.8-0.3,1.9c-0.1,0.5-0.2,0.9-0.5,1.2c-0.1,0.1-0.3,0.3-0.4,0.4l-0.6,0.2c-0.4,0.1-0.8,0.2-1.3,0.3h-0.9l-2.9,0.1
		l-11.4,0.1c-7.6,0-15.2,0.1-22.8,0.1c-15.2,0-30.3,0.1-45.5,0.1c-60.6,0-120.9,0.1-181,0.1c-8.8,0-13.7,0-15.8-0.1
		c-2.1,0-1.2-0.1,1.5-0.1c5.5-0.1,18.7-0.2,31.9-0.3c-8.8,0.1-8.8-0.1-17.6-0.1c0,0,0.3-0.1,0.8-0.1c0.6,0,1.4-0.1,2.5-0.1
		c2.2-0.1,5.5-0.1,9.9-0.2c8.8-0.1,22-0.2,39.6-0.3c-8.8,0-17.6,0-26.4,0c-8.8-0.1,0-0.2,0-0.3c4.4,0,8.8,0,12.1,0c1.6,0,3,0,4,0
		c0.5,0,0.9,0,1.1,0c0.3,0,0.4,0,0.4,0c0-0.1,0-0.2,0-0.3c-8.8,0-26.4,0-35.1,0c4.4,0,8.8,0,12.1,0c1.6,0,3,0,4,0c0.5,0,0.9,0,1.1,0
		c0.3,0,0.4,0,0.4,0c0-0.1,0-0.2,0-0.3c17.6,0,43.9,0,61.5,0v-0.2c-17.6,0-43.9,0-61.5,0c4.4,0,6.6-0.1,7.7-0.1s1.1-0.1,1.1-0.2
		c26.4-0.1,52.7,0.1,79.1-0.1c-8.8,0-17.6,0-26.4,0C472.9,214.1,516.8,214.3,543.2,214.2z"/>
</g>
<path class="st8" d="M230.7,207.1c0,0,16.4,8,30.4,7.7c19.6-0.4,30.1-6.9,30.1-6.9s-13.9-1.8-19.8-1.4c-4.7,0.3-6.9,1.1-8.9,2.4
	c-0.9,0.6-2.1,0.6-3,0c-1.2-0.9-3.2-1.9-6-2.4C248.4,205.8,233.5,207.9,230.7,207.1z"/>
<g>
	<path d="M64.7,435.3c-0.9,2.9-2.4,6.2-3.3,9.1c-1,3.5-2.4,7.2-3.7,10.5c-0.1,0-0.2-0.4-0.4-0.1c-0.6,1.1-0.9,1-1.1,0.9
		c-0.1,0,0.3-0.8,0.1-0.6c0.3-0.8,0.8-2.3,0.3-1.5c-0.2,0.2-0.5,1.4-0.8,1.6s-0.3-0.4-0.6-0.2c-0.1,0.3-0.3,0.8-0.4,1.1
		c-0.2,0.2-0.3-0.4-0.4-0.1c-0.5,0.8-0.8,2-1.3,3.1c-0.1,0-0.4,0.2-0.2-0.4c3.7-9.9,7.3-20.2,11.3-30c0.5-1.1,0.4-0.2,0.3,0.8
		c0-0.3,0.2-0.2,0.3-0.5c0.2,0.1,0.3,0.8-0.1,1.9c0.1-0.3,0.2-0.6,0.3-0.8c0.2-0.3,0.2,0.1,0.3,0.1c-0.1,0.3-0.2,0.6-0.2,0.6
		c0.1,0,0.2,0.1,0.3,0.1c0.1-0.3,0.3-0.8,0.4-1.1c-0.1,0.3-0.2,0.6-0.2,0.6c0.1,0,0.2,0.1,0.3,0.1c-0.2,0.6-0.6,1.4-0.8,2l0.2,0.1
		c0.3-0.5,0.5-1.4,0.8-2c0,0.3,0,0.3,0.1,0.4c-0.3,0.9-0.8,1.6-0.9,2.6c0.1-0.3,0.2-0.6,0.3-0.8C65.7,433.1,64.9,434.4,64.7,435.3z"
		/>
</g>
<g>
	<path d="M127.6,475c-0.6,5.1-1.9,11.3-2.7,16.5c-0.9,6.2-2.3,12.8-3.8,18.9c-0.1,0-0.2-0.6-0.4-0.1c-0.7,2-0.9,1.9-1.2,1.9
		c-0.1,0,0.4-1.5,0.1-1c0.4-1.5,0.9-4.1,0.4-2.6c-0.2,0.5-0.6,2.5-0.9,3c-0.3,0.5-0.3-0.6-0.6-0.1c-0.1,0.5-0.4,1.5-0.5,2
		c-0.3,0.5-0.3-0.6-0.4-0.1c-0.5,1.5-0.9,3.5-1.5,5.5c-0.1,0-0.4,0.4-0.2-0.6c4.4-17.6,7.7-36,10.2-53.9c0.3-2,0.4-0.5,0.4,1.1
		c0-0.5,0.2-0.5,0.2-1c0.2,0,0.4,1.1,0.2,3.2l0.2-1.5c0.1-0.5,0.2,0,0.3,0c-0.1,0.5-0.1,1-0.1,1c0.1,0,0.2,0,0.3,0
		c0.1-0.5,0.2-1.5,0.3-2.1c-0.1,0.5-0.1,1-0.1,1c0.1,0,0.2,0,0.3,0c-0.1,1-0.4,2.6-0.5,3.6h0.2c0.2-1,0.4-2.6,0.5-3.6
		c0,0.5,0.1,0.5,0.2,0.6c-0.1,1.6-0.6,3.1-0.6,4.7l0.2-1.5C128.5,470.9,127.8,473.4,127.6,475z"/>
</g>
<g>
	<path class="st8" d="M421.4,51.6v7.8H435v5.5h-13.6v10.7h-6.8V46.1h22.2v5.5H421.4z"/>
	<path class="st8" d="M450,53.4c1.3-0.6,2.9-0.8,4.6-0.8v6c-0.7-0.1-1.2-0.1-1.5-0.1c-1.9,0-3.3,0.5-4.4,1.6s-1.6,2.6-1.6,4.7v10.7
		h-6.6V52.9h6.3v3C447.6,54.8,448.7,54,450,53.4z"/>
	<path class="st8" d="M475.5,55.1c1.9,1.7,2.8,4.2,2.8,7.5v12.9h-6.1v-2.8c-1.2,2.1-3.5,3.1-6.9,3.1c-1.7,0-3.2-0.3-4.5-0.9
		s-2.2-1.4-2.9-2.4c-0.7-1-1-2.2-1-3.5c0-2.1,0.8-3.8,2.4-5c1.6-1.2,4-1.8,7.3-1.8h5.2c0-1.4-0.4-2.5-1.3-3.3s-2.2-1.2-3.9-1.2
		c-1.2,0-2.4,0.2-3.5,0.6c-1.2,0.4-2.1,0.9-3,1.5l-2.4-4.6c1.2-0.9,2.7-1.5,4.4-2c1.7-0.5,3.5-0.7,5.3-0.7
		C471,52.6,473.7,53.4,475.5,55.1z M464.4,49.2c-1-1-1.5-2.2-1.5-3.6c0-1.4,0.5-2.6,1.5-3.6s2.2-1.5,3.7-1.5s2.7,0.5,3.7,1.5
		s1.5,2.2,1.5,3.6c0,1.4-0.5,2.6-1.5,3.6s-2.3,1.5-3.7,1.5C466.6,50.6,465.4,50.2,464.4,49.2z M470,70.7c0.9-0.5,1.5-1.3,1.8-2.3
		v-2.3h-4.5c-2.7,0-4,0.9-4,2.6c0,0.8,0.3,1.5,1,2s1.6,0.7,2.7,0.7C468.1,71.4,469.1,71.2,470,70.7z M469.9,47.4
		c0.5-0.5,0.7-1.1,0.7-1.8s-0.2-1.3-0.7-1.8s-1.1-0.7-1.8-0.7c-0.7,0-1.3,0.2-1.8,0.7s-0.7,1.1-0.7,1.8s0.2,1.3,0.7,1.8
		s1.1,0.7,1.8,0.7C468.8,48.1,469.4,47.9,469.9,47.4z"/>
	<path class="st8" d="M507.8,52.9v18.8c0,4.1-1.1,7.2-3.2,9.2s-5.3,3-9.4,3c-2.2,0-4.3-0.3-6.2-0.8c-2-0.5-3.6-1.3-4.9-2.3l2.6-4.7
		c1,0.8,2.2,1.4,3.6,1.9c1.5,0.5,2.9,0.7,4.4,0.7c2.3,0,3.9-0.5,5-1.5s1.6-2.6,1.6-4.6v-1c-1.7,1.9-4.1,2.8-7.1,2.8
		c-2.1,0-4-0.5-5.7-1.4s-3.1-2.2-4.1-3.8c-1-1.7-1.5-3.6-1.5-5.7c0-2.2,0.5-4.1,1.5-5.7c1-1.7,2.4-2.9,4.1-3.8
		c1.7-0.9,3.6-1.4,5.7-1.4c3.3,0,5.8,1.1,7.5,3.2v-2.9L507.8,52.9L507.8,52.9z M499.7,67.5c1.1-1,1.7-2.4,1.7-4c0-1.7-0.6-3-1.7-4
		s-2.5-1.5-4.3-1.5c-1.7,0-3.2,0.5-4.3,1.5c-1.1,1-1.7,2.4-1.7,4c0,1.7,0.6,3,1.7,4s2.5,1.5,4.3,1.5S498.6,68.5,499.7,67.5z"/>
	<path class="st8" d="M518.3,74.4c-1.9-1-3.4-2.4-4.4-4.1c-1.1-1.8-1.6-3.8-1.6-6c0-2.2,0.5-4.2,1.6-6s2.5-3.1,4.4-4.1
		s4-1.5,6.4-1.5s4.5,0.5,6.4,1.5s3.3,2.4,4.4,4.1c1.1,1.8,1.6,3.8,1.6,6c0,2.2-0.5,4.2-1.6,6s-2.5,3.1-4.4,4.1s-4,1.5-6.4,1.5
		C522.3,75.8,520.2,75.3,518.3,74.4z M528.8,68.8c1.1-1.1,1.6-2.7,1.6-4.6s-0.5-3.4-1.6-4.6c-1.1-1.1-2.5-1.7-4.1-1.7
		c-1.7,0-3.1,0.6-4.2,1.7s-1.6,2.7-1.6,4.6c0,1.9,0.5,3.4,1.6,4.6c1.1,1.1,2.5,1.7,4.2,1.7S527.7,69.9,528.8,68.8z"/>
	<path class="st8" d="M550.9,53.4c1.3-0.6,2.9-0.8,4.6-0.8v6c-0.7-0.1-1.2-0.1-1.5-0.1c-1.9,0-3.3,0.5-4.4,1.6
		c-1.1,1.1-1.6,2.6-1.6,4.7v10.7h-6.6V52.9h6.3v3C548.5,54.8,549.5,54,550.9,53.4z"/>
	<path class="st8" d="M567.2,61.7c0.7-1,1.6-2,2.9-3.1c0.9-0.8,1.6-1.5,2-2.1s0.7-1.2,0.7-2c0-1-0.4-1.9-1.2-2.5s-1.9-0.9-3.3-0.9
		c-1.3,0-2.5,0.3-3.5,0.8s-1.9,1.3-2.6,2.3l-5.1-3c1.2-1.8,2.8-3.2,4.8-4.2s4.4-1.5,7.1-1.5c3.2,0,5.8,0.7,7.7,2.1
		c1.9,1.4,2.9,3.3,2.9,5.7c0,1.1-0.2,2.2-0.6,3c-0.4,0.9-0.8,1.6-1.4,2.2c-0.5,0.6-1.3,1.3-2.1,2.1c-1,0.9-1.8,1.7-2.3,2.3
		s-0.7,1.4-0.7,2.3h-6.3C566.2,63.8,566.5,62.6,567.2,61.7z M566.5,74.7c-0.8-0.7-1.2-1.6-1.2-2.7s0.4-2,1.1-2.7
		c0.8-0.7,1.7-1.1,2.9-1.1s2.1,0.4,2.9,1.1c0.8,0.7,1.1,1.6,1.1,2.7s-0.4,2-1.2,2.7s-1.7,1.1-2.9,1.1S567.3,75.5,566.5,74.7z"/>
	<path d="M425.3,114.4l-3.9,4.1v7.4h-6.8V96.5h6.8v13.7l13-13.7h7.6l-12.2,13.1l12.9,16.3h-7.9L425.3,114.4z"/>
	<path d="M448.6,124.8c-1.9-1-3.4-2.4-4.4-4.1c-1.1-1.8-1.6-3.8-1.6-6s0.5-4.2,1.6-6s2.5-3.1,4.4-4.1s4-1.5,6.4-1.5s4.5,0.5,6.4,1.5
		s3.3,2.4,4.4,4.1c1.1,1.8,1.6,3.8,1.6,6s-0.5,4.2-1.6,6s-2.5,3.1-4.4,4.1s-4,1.5-6.4,1.5C452.7,126.2,450.5,125.7,448.6,124.8z
		 M459.2,119.2c1.1-1.1,1.6-2.7,1.6-4.6s-0.5-3.4-1.6-4.6c-1.1-1.1-2.5-1.7-4.1-1.7c-1.7,0-3.1,0.6-4.2,1.7s-1.6,2.7-1.6,4.6
		s0.5,3.4,1.6,4.6c1.1,1.1,2.5,1.7,4.2,1.7C456.7,120.9,458.1,120.3,459.2,119.2z"/>
	<path d="M492.3,105.5c1.7,1.7,2.6,4.2,2.6,7.5v12.9h-6.6V114c0-1.8-0.4-3.1-1.2-4c-0.8-0.9-1.9-1.3-3.4-1.3c-1.7,0-3,0.5-3.9,1.5
		c-1,1-1.5,2.5-1.5,4.6V126h-6.6v-22.6h6.3v2.6c0.9-1,1.9-1.7,3.2-2.2s2.7-0.8,4.2-0.8C488.3,103,490.6,103.8,492.3,105.5z"/>
	<path d="M515.4,124.8c-0.6,0.5-1.4,0.8-2.4,1.1s-1.9,0.4-3,0.4c-2.7,0-4.8-0.7-6.2-2.1c-1.5-1.4-2.2-3.4-2.2-6v-9.3h-3.5v-5h3.5
		v-5.5h6.6v5.5h5.6v5h-5.6v9.2c0,1,0.2,1.7,0.7,2.2s1.2,0.8,2.1,0.8c1,0,1.9-0.3,2.6-0.8L515.4,124.8z"/>
	<path d="M536.3,105.5c1.9,1.7,2.8,4.2,2.8,7.5v12.9H533v-2.8c-1.2,2.1-3.5,3.1-6.9,3.1c-1.7,0-3.2-0.3-4.5-0.9s-2.2-1.4-2.9-2.4
		s-1-2.2-1-3.5c0-2.1,0.8-3.8,2.4-5c1.6-1.2,4-1.8,7.3-1.8h5.2c0-1.4-0.4-2.5-1.3-3.3c-0.9-0.8-2.2-1.2-3.9-1.2
		c-1.2,0-2.4,0.2-3.5,0.6c-1.2,0.4-2.1,0.9-3,1.5l-2.4-4.6c1.2-0.9,2.7-1.5,4.4-2s3.5-0.7,5.3-0.7
		C531.7,103,534.4,103.8,536.3,105.5z M530.7,121.1c0.9-0.5,1.5-1.3,1.8-2.3v-2.3H528c-2.7,0-4,0.9-4,2.6c0,0.8,0.3,1.5,1,2
		s1.6,0.7,2.7,0.7C528.8,121.8,529.8,121.6,530.7,121.1z"/>
	<path d="M554.7,117l-3.1,3.1v5.8H545V94.7h6.6v17.6l9.6-9.1h7.8l-9.4,9.6l10.2,13h-7.9L554.7,117z"/>
	<path d="M587.3,124.8c-0.6,0.5-1.4,0.8-2.4,1.1s-1.9,0.4-3,0.4c-2.7,0-4.8-0.7-6.2-2.1c-1.5-1.4-2.2-3.4-2.2-6v-9.3H570v-5h3.5
		v-5.5h6.6v5.5h5.6v5h-5.6v9.2c0,1,0.2,1.7,0.7,2.2s1.2,0.8,2.1,0.8c1,0,1.9-0.3,2.6-0.8L587.3,124.8z"/>
	<path d="M608.2,105.5c1.9,1.7,2.8,4.2,2.8,7.5v12.9h-6.1v-2.8c-1.2,2.1-3.5,3.1-6.9,3.1c-1.7,0-3.2-0.3-4.5-0.9s-2.2-1.4-2.9-2.4
		s-1-2.2-1-3.5c0-2.1,0.8-3.8,2.4-5c1.6-1.2,4-1.8,7.3-1.8h5.2c0-1.4-0.4-2.5-1.3-3.3c-0.9-0.8-2.2-1.2-3.9-1.2
		c-1.2,0-2.4,0.2-3.5,0.6c-1.2,0.4-2.1,0.9-3,1.5l-2.4-4.6c1.2-0.9,2.7-1.5,4.4-2s3.5-0.7,5.3-0.7
		C603.6,103,606.3,103.8,608.2,105.5z M602.6,121.1c0.9-0.5,1.5-1.3,1.8-2.3v-2.3h-4.5c-2.7,0-4,0.9-4,2.6c0,0.8,0.3,1.5,1,2
		s1.6,0.7,2.7,0.7C600.7,121.8,601.7,121.6,602.6,121.1z"/>
	<path d="M418.5,175.2c-1.9-1-3.4-2.4-4.4-4.1c-1.1-1.8-1.6-3.8-1.6-6s0.5-4.2,1.6-6s2.5-3.1,4.4-4.1s4-1.5,6.4-1.5s4.5,0.5,6.4,1.5
		s3.3,2.4,4.4,4.1c1.1,1.8,1.6,3.8,1.6,6s-0.5,4.2-1.6,6s-2.5,3.1-4.4,4.1s-4,1.5-6.4,1.5C422.5,176.6,420.4,176.1,418.5,175.2z
		 M429,169.6c1.1-1.1,1.6-2.7,1.6-4.6c0-1.9-0.5-3.4-1.6-4.6c-1.1-1.1-2.5-1.7-4.1-1.7c-1.7,0-3.1,0.6-4.2,1.7s-1.6,2.7-1.6,4.6
		c0,1.9,0.5,3.4,1.6,4.6c1.1,1.1,2.5,1.7,4.2,1.7S427.9,170.7,429,169.6z"/>
	<path d="M443.7,175.9c-1.8-0.5-3.2-1-4.3-1.7l2.2-4.7c1,0.6,2.2,1.2,3.7,1.6c1.4,0.4,2.8,0.6,4.2,0.6c2.8,0,4.2-0.7,4.2-2.1
		c0-0.6-0.4-1.1-1.1-1.4c-0.8-0.3-1.9-0.5-3.5-0.7c-1.8-0.3-3.4-0.6-4.6-1s-2.2-1-3.1-1.9s-1.3-2.2-1.3-3.9c0-1.4,0.4-2.7,1.2-3.8
		c0.8-1.1,2-2,3.6-2.6s3.5-0.9,5.6-0.9c1.6,0,3.2,0.2,4.8,0.5c1.6,0.4,2.9,0.8,3.9,1.4L457,160c-2-1.1-4.2-1.7-6.5-1.7
		c-1.4,0-2.5,0.2-3.1,0.6c-0.7,0.4-1.1,0.9-1.1,1.5c0,0.7,0.4,1.2,1.1,1.5s2,0.5,3.6,0.8c1.8,0.3,3.4,0.6,4.5,1
		c1.2,0.4,2.2,1,3.1,1.9s1.3,2.2,1.3,3.9c0,1.4-0.4,2.6-1.3,3.7c-0.8,1.1-2.1,1.9-3.7,2.5s-3.5,0.9-5.7,0.9
		C447.4,176.6,445.5,176.4,443.7,175.9z"/>
	<path d="M466,175.9c-1.8-0.5-3.2-1-4.3-1.7l2.2-4.7c1,0.6,2.2,1.2,3.7,1.6c1.4,0.4,2.8,0.6,4.2,0.6c2.8,0,4.2-0.7,4.2-2.1
		c0-0.6-0.4-1.1-1.1-1.4c-0.8-0.3-1.9-0.5-3.5-0.7c-1.8-0.3-3.4-0.6-4.6-1s-2.2-1-3.1-1.9s-1.3-2.2-1.3-3.9c0-1.4,0.4-2.7,1.2-3.8
		c0.8-1.1,2-2,3.6-2.6s3.5-0.9,5.6-0.9c1.6,0,3.2,0.2,4.8,0.5c1.6,0.4,2.9,0.8,3.9,1.4l-2.2,4.7c-2-1.1-4.2-1.7-6.5-1.7
		c-1.4,0-2.5,0.2-3.1,0.6c-0.7,0.4-1.1,0.9-1.1,1.5c0,0.7,0.4,1.2,1.1,1.5s2,0.5,3.6,0.8c1.8,0.3,3.4,0.6,4.5,1
		c1.2,0.4,2.2,1,3.1,1.9s1.3,2.2,1.3,3.9c0,1.4-0.4,2.6-1.3,3.7c-0.8,1.1-2.1,1.9-3.7,2.5s-3.5,0.9-5.7,0.9
		C469.7,176.6,467.8,176.4,466,175.9z"/>
	<path d="M518.6,155.9c1.7,1.7,2.6,4.2,2.6,7.5v12.9h-6.6v-11.9c0-1.8-0.4-3.1-1.2-4s-1.9-1.3-3.4-1.3c-1.7,0-3,0.5-3.9,1.5
		c-1,1-1.5,2.5-1.5,4.6v11.2H498v-31.2h6.6v10.9c0.9-0.9,1.9-1.5,3.1-2s2.6-0.7,4-0.7C514.7,153.4,516.9,154.2,518.6,155.9z"/>
	<path d="M544.3,155.9c1.9,1.7,2.8,4.2,2.8,7.5v12.9H541v-2.8c-1.2,2.1-3.5,3.1-6.9,3.1c-1.7,0-3.2-0.3-4.5-0.9
		c-1.3-0.6-2.2-1.4-2.9-2.4s-1-2.2-1-3.5c0-2.1,0.8-3.8,2.4-5c1.6-1.2,4-1.8,7.3-1.8h5.2c0-1.4-0.4-2.5-1.3-3.3
		c-0.9-0.8-2.2-1.2-3.9-1.2c-1.2,0-2.4,0.2-3.5,0.6c-1.2,0.4-2.1,0.9-3,1.5l-2.4-4.6c1.2-0.9,2.7-1.5,4.4-2s3.5-0.7,5.3-0.7
		C539.8,153.4,542.5,154.2,544.3,155.9z M530.6,149.8c-0.6-0.5-0.8-1.2-0.8-2.1s0.3-1.5,0.8-2.1c0.6-0.5,1.3-0.8,2.1-0.8
		s1.5,0.3,2.1,0.8c0.5,0.5,0.8,1.2,0.8,2.1s-0.3,1.5-0.8,2.1c-0.5,0.5-1.2,0.8-2.1,0.8C531.9,150.6,531.2,150.3,530.6,149.8z
		 M538.7,171.5c0.9-0.5,1.5-1.3,1.8-2.3v-2.3H536c-2.7,0-4,0.9-4,2.6c0,0.8,0.3,1.5,1,2s1.6,0.7,2.7,0.7
		C536.9,172.2,537.9,172,538.7,171.5z M539.1,149.8c-0.5-0.5-0.8-1.2-0.8-2.1s0.3-1.5,0.8-2.1c0.5-0.5,1.2-0.8,2.1-0.8
		s1.5,0.3,2.1,0.8s0.8,1.2,0.8,2.1s-0.3,1.5-0.8,2.1c-0.6,0.5-1.3,0.8-2.1,0.8S539.6,150.3,539.1,149.8z"/>
	<path d="M562.5,154.2c1.3-0.6,2.9-0.8,4.6-0.8v6c-0.7-0.1-1.2-0.1-1.5-0.1c-1.9,0-3.3,0.5-4.4,1.6c-1.1,1.1-1.6,2.6-1.6,4.7v10.7
		H553v-22.6h6.3v3C560.1,155.6,561.2,154.8,562.5,154.2z"/>
	<path d="M571.4,175.5c-0.8-0.7-1.2-1.6-1.2-2.7c0-1.1,0.4-2,1.1-2.7c0.8-0.7,1.7-1.1,2.9-1.1s2.1,0.4,2.9,1.1
		c0.8,0.7,1.1,1.6,1.1,2.7c0,1.1-0.4,2-1.2,2.7s-1.7,1.1-2.9,1.1C573.1,176.6,572.1,176.3,571.4,175.5z M570.3,146.9h7.8l-1.3,19.2
		h-5.2L570.3,146.9z"/>
</g>
<g id="Lager_2_00000013888006822918212840000005357251181306075572_">
	<g>
		<g>
			<path d="M518.9,328.6c6-2.8,12.3-5.7,18.9-8.6c3.3-1.4,6.6-2.8,10-4.2c1.7-0.7,3.4-1.3,5.2-1.9c0.9-0.3,1.8-0.6,2.7-0.8l2.7-0.7
				c7.1-1.8,14.1-3.8,21-5.9c6.8-2.1,13.4-4.5,19.8-6.6c1.9-0.6,3.8-1.2,5.8-1.8c1.9-0.6,4-1,5.8-1.6c3.8-1.3,7.6-2.9,11.6-4.1
				c1-0.3,2-0.6,3-0.9c0.5-0.1,1-0.3,1.6-0.4c0.5-0.1,0.8-0.2,1.2-0.4c0.7-0.3,1-0.6,1.1-1.2c0.1-0.5,0.1-1.3-0.2-2.1
				c-0.3-0.8-0.7-1.7-1.2-2.3c-0.4-0.6-1-1-1.8-1.4c-1.7-0.8-3.5-1.4-5.3-1.4s-3.7,0.5-5.7,1c-2,0.6-4.1,1.1-6.1,1.6
				c-4,1-8.1,2-12.1,2.9c-8.1,1.8-16.1,3.4-24,4.6c0-0.1,2.6-0.8-0.1-0.4c-5.3,0.7-8,1-9.3,1c-1.3,0.1-1.4-0.1-1.4-0.2
				s7.9-1.1,5.3-0.9c7.9-1.1,21-3.7,13.1-2.4c-1.3,0.2-4.6,0.8-7.9,1.3c-3.3,0.5-6.6,1-7.9,1c-2.7,0.2,2.6-0.8-0.1-0.6
				c-2.6,0.4-7.9,1-10.6,1.3c-2.7,0.1,2.6-0.7,0-0.4c-4,0.4-8.6,0.7-13.5,0.9c-5,0.2-10.3,0.4-15.5,0.2c0-0.1-0.7-0.2-0.7-0.2
				c0-0.1,0.7,0,3.3,0c5.8,0,11.6-0.2,17.4-0.5c2.9-0.2,5.8-0.4,8.7-0.8c2.9-0.3,5.8-0.7,8.7-1.1c11.6-1.5,23.1-3.7,34.5-6.3
				c2.9-0.6,5.7-1.3,8.6-2l4.3-1.1c1.4-0.3,2.8-0.7,4.2-1.1s2.9-0.8,4.5-1.1c1.6-0.3,3.3-0.2,5,0.1c0.8,0.2,1.6,0.4,2.4,0.7
				c0.8,0.3,1.5,0.6,2.2,1c0.8,0.4,1.5,1,2.2,1.7c0.2,0.2,0.3,0.4,0.4,0.6l0.3,0.5c0.2,0.4,0.4,0.7,0.6,1.1c0.4,0.8,0.7,1.6,0.9,2.4
				c0.2,0.9,0.3,1.9,0,3s-1,2.1-1.9,2.7s-1.8,0.9-2.6,1.1c-2.8,0.6-5.5,1.5-8.3,2.5s-5.5,2-8.4,3c-1.6,0.5-2.9,0.8-4.4,1.2
				c-1.4,0.4-2.8,0.8-4.2,1.2c-5.6,1.7-11.2,3.7-16.8,5.6c-5.6,1.8-11.3,3.6-17,5.2c-2.9,0.8-5.7,1.6-8.6,2.3
				c-1.4,0.4-2.9,0.7-4.3,1.1c-1.3,0.4-2.7,0.9-4,1.4c-5.4,2.1-10.9,4.4-16.2,6.8c-5.4,2.4-10.7,4.8-16.1,7.3l-8,3.7l-4,1.9
				c-1.3,0.6-2.7,1.3-3.9,1.9c-2.3,1.2-4.2,3.2-5.8,5.4c-1.6,2.2-2.9,4.7-4.1,7.4c-2.3,5.2-4,10.8-5.7,16.3c-3.2,10.2-1.1,2.4,1-5.2
				c-0.7,2.6-0.9,2.5-1.6,5.1c-0.1,0,0.2-1.3,0.8-3.9c0.7-2.6,1.7-6.4,3.7-11.4c-1,2.4-1.9,5-2.7,7.5c-0.9,2.5-0.2-0.1-0.3-0.1
				c0.4-1.3,0.9-2.5,1.2-3.5c0.3-0.9,0.6-1.6,0.5-1.6s-0.2-0.1-0.3-0.1c-1,2.5-2.6,7.6-3.4,10.1c0.4-1.3,0.8-2.5,1.1-3.5
				c0.3-1,0.5-1.6,0.5-1.6c-0.1,0-0.2-0.1-0.3-0.1c0.8-2.5,1.9-5.7,3.3-8.8c1.4-3.1,3-6.1,4.6-8.3l-0.2-0.1
				c-1.7,2.2-3.3,5.2-4.6,8.3c-1.3,3.1-2.4,6.3-3.3,8.8c0.8-2.6,0.7-2.6,0.6-2.6c1.3-3.8,2.8-7.6,4.9-11.1s4.6-7,8.3-9.2
				c-2.5,1.4-4.5,3.5-6.2,5.7c0.4-0.6,0.9-1.2,1.5-2c0.3-0.4,0.7-0.7,1-1.1c0.4-0.4,0.7-0.8,1.2-1.1c0.5-0.4,0.9-0.7,1.4-1.1
				c0.5-0.3,1.1-0.6,1.6-1c1.1-0.6,2.2-1.1,3.3-1.6C510.5,332.5,515.3,330.3,518.9,328.6z"/>
		</g>
		<g>
			<path d="M599.6,292.1c-3,0.1-6.1,0.4-9.4,0.9c-3.2,0.5-6.5,1.1-9.8,1.8c-6.6,1.4-13.3,2.8-19.5,3.5c-0.9,0.1-1.9,0.2-2.8,0.3
				l-1.4,0.1l-0.7,0.1h-0.8c-2,0-3.9-0.2-5.8-0.3c-3.8-0.3-7.6-0.8-11.4-1.1c-7.6-0.8-15.2-1.4-22.5-1.7c0-0.1,1.2-0.3,0-0.4
				c-4.9-0.3-4.9-0.5-4.9-0.8c0-0.1,3.7,0,2.5-0.1c3.7,0,9.8,0.3,6.1,0c-0.6-0.1-2.1-0.1-3.7-0.2c-1.5-0.1-3.1-0.1-3.7-0.2
				c-1.2-0.2,1.2-0.4,0-0.6c-1.2,0-3.7,0-4.9,0.1c-1.2-0.1,1.2-0.4,0-0.4c-3.7,0-8.7,0.3-13.6,1.6c0-0.1-0.3-0.1-0.3-0.1
				c0-0.1,0.3-0.2,1.5-0.5c5.4-1.2,10.9-1.5,16.4-1.6c5.5,0,10.9,0.3,16.4,0.7c5.4,0.4,10.9,1,16.3,1.5c2.7,0.3,5.4,0.6,8.1,0.8
				c1.3,0.1,2.7,0.2,3.9,0.2c1.3,0,2.7-0.1,4-0.3c5.3-0.5,10.6-1.5,15.9-2.6c5.3-1.1,10.7-2.3,16.2-3c2.7-0.3,5.5-0.5,8.3-0.6h2.1
				c0.7,0,1.5,0,2.3,0.2c0.8,0.1,1.7,0.4,2.5,0.9s1.6,1.3,2,2.3c0.4,0.9,0.5,2,0.3,3s-0.7,1.8-1.2,2.5c-1.1,1.3-2.3,2.2-3.7,3
				c-2.7,1.4-5.5,1.9-7.8,2.8c-1.1,0.4-1.6,0.6-1.9,0.7c-0.3,0.1-0.2,0,0.1-0.2c0.5-0.4,2.1-1.2,3.8-1.8c-1.1,0.4-1.2,0.2-2.3,0.7
				c0-0.1,0.5-0.4,1.6-0.9s2.9-1,5.2-2.1c-1.1,0.5-2.3,0.9-3.5,1.3c-1.2,0.3-0.1-0.2-0.1-0.3c1.2-0.4,2.3-0.8,2.3-0.9
				s-0.1-0.2-0.1-0.3c-1.1,0.5-3.5,1.1-4.7,1.5c1.2-0.4,2.4-0.7,2.3-0.8c0-0.1-0.1-0.2-0.1-0.3c1.2-0.4,2.6-0.8,3.9-1.5
				c1.3-0.7,2.5-1.6,3.1-2.5l-0.2-0.1c-0.7,0.8-1.8,1.8-3.1,2.4c-1.3,0.7-2.7,1.2-3.9,1.5c1.1-0.4,1.1-0.5,1.1-0.6
				c1.7-0.6,3.2-1.3,4.5-2.3c0.6-0.5,1.2-1.1,1.5-1.8c0.3-0.6,0.3-1.3,0.1-1.8c0.3,0.8,0.1,1.6-0.5,2.4c0.2-0.5,0.5-1,0.5-1.6
				c0-0.3-0.1-0.6-0.2-0.9c-0.1-0.3-0.3-0.5-0.6-0.8c-0.6-0.4-1.6-0.7-2.6-0.7C601.6,292,600.5,292.1,599.6,292.1z"/>
		</g>
		<g>
			<path d="M608.1,283c1.9-0.2,4-0.2,6.1,0.3c1.1,0.2,2.2,0.5,3.3,1.2c1,0.6,1.9,1.4,2.5,2.4c0.4,0.6,0.7,1.2,0.9,2s0.2,1.6,0,2.3
				c-0.3,1.5-1.2,2.8-2.1,3.7c-1.7,1.9-4,3.3-6.1,4.2c-0.1-0.1,0.2-0.5-0.2-0.4c-1.5,0.4-1.6,0.1-1.7-0.1c0-0.1,1-0.4,0.6-0.4
				c1-0.4,2.7-1.3,1.6-0.9c-0.4,0.1-1.7,0.8-2.1,0.7c-0.4-0.1,0.2-0.5-0.2-0.6c-0.3,0.1-1,0.4-1.4,0.5c-0.4,0,0.2-0.5-0.1-0.4
				c-1.1,0.2-2.4,0.7-3.9,1.3c0-0.1-0.5-0.1,0.2-0.4c3.1-1.1,6.1-2,8.5-3.7c0.6-0.4,1.2-0.9,1.7-1.4c0.3-0.2,0.5-0.5,0.8-0.8
				c0.2-0.2,0.4-0.5,0.6-0.8c0.3-0.5,0.5-1.1,0.6-1.5c0-0.5-0.1-0.9-0.3-1.4c-0.3-0.5-0.7-0.9-1.2-1.3c-0.2-0.2-0.5-0.3-0.7-0.5
				c-0.2-0.1-0.6-0.2-0.9-0.3c-1.3-0.4-2.8-0.5-4.4-0.6c-3.1-0.1-6.3,0.2-9.3,0.7c-1.4,0.2-0.4-0.3,0.6-0.7
				c-0.3,0.1-0.4-0.1-0.7,0.1c0-0.2,0.6-0.7,2-0.9l-1.1,0.2c-0.4,0,0-0.2-0.1-0.3c0.4-0.1,0.7-0.1,0.7-0.2s0-0.2,0-0.3
				c-0.4,0.1-1.1,0.2-1.5,0.2c0.4-0.1,0.7-0.1,0.7-0.2s0-0.2,0-0.3c0.7-0.2,1.8-0.2,2.6-0.3v-0.2c-0.7,0-1.8,0.2-2.6,0.3
				c0.4-0.1,0.3-0.2,0.3-0.3c1.1-0.2,2.2-0.2,3.3-0.5l-1.1,0.1C605.1,283,607,283.1,608.1,283z"/>
		</g>
		<g>
			<path d="M460,327.7c3-7.2,6.7-15,10.9-22.6c1.1-2,2.6-3.8,4.1-5.4s3.2-3.1,5-4.4c3.5-2.6,7.2-4.6,10.9-6.2
				c2.2-0.9,4.5-1.8,6.9-2.4c0.6-0.2,1.2-0.3,1.9-0.4c0.6-0.1,1.2-0.2,1.8-0.3c1.2-0.2,2.4-0.3,3.6-0.4c2.4-0.2,4.8-0.5,7.3-0.7
				l3.6-0.3c1.2-0.1,2.5-0.2,3.5-0.4c2.1-0.4,4.1-1.3,6-2.7c1.9-1.3,3.7-2.9,5.5-4.5s3.7-3.3,5.8-4.6c2.1-1.4,4.5-2.6,7.1-3
				c0,0.1-1.7,0.7,0.1,0.4c1.7-0.2,3,0,4,0.2s1.8,0.8,2.1,1.3s0.3,0.7,0.3,0.9c0,0.1-0.1,0.2-0.1,0.2s-0.2-0.3-0.5-0.7
				c-0.3-0.4-0.9-0.7-1.4-0.9c-0.5-0.2-1-0.2-1.2-0.2s-0.2,0,0.2,0.1c-1.2-0.2-2.6-0.1-4,0.2c-1.3,0.3-2.5,0.8-3.4,1.3
				s-1.5,0.8-1.6,0.9s0.2-0.1,1.3-0.6c0.7-0.3,2.5-1.2,4.5-1.5c1-0.2,2-0.2,2.8-0.1s1.5,0.3,1.8,0.5s0.3,0.3,0.3,0.4
				c-0.1,0-0.2-0.1-0.4-0.1c-0.4-0.1-0.7-0.1-0.1,0.3c0.3,0.1,0.5,0.3,0.7,0.7c0.2,0.4,0.3,0.9,0.4,1.4c0.1,1,0,2.2-0.2,2.9
				c-0.4,1.5-0.2-1.5-0.4-0.1c-0.4,2.2-1.1,4.8-2.1,7.5c-0.5,1.3-1.1,2.7-1.8,4s-1.4,2.6-2.4,3.7c-0.1,0-0.4,0.2-0.4,0.2
				s0-0.1,0.2-0.3c0.1-0.2,0.4-0.5,0.8-1.1c1.8-2.6,3-5.8,4-8.9c0.5-1.6,0.9-3.2,1.2-4.8c0.3-1.6,0.3-3.3-0.1-4.1
				c-0.1-0.2-0.1-0.2-0.3-0.3c-0.2-0.1-0.4-0.2-0.8-0.2c-0.7-0.1-1.5-0.2-2.2-0.1c-1.5,0.1-3,0.6-4.4,1.3c-2.9,1.4-5.4,3.6-8,5.9
				s-5.3,4.7-8.7,6.4c-0.9,0.4-1.8,0.7-2.7,1s-2,0.4-2.8,0.5l-5.2,0.5c-3.5,0.3-6.9,0.6-10.3,1c-0.8,0.1-1.7,0.2-2.5,0.3
				c-0.4,0.1-0.8,0.1-1.2,0.2l-1.2,0.3c-0.8,0.2-1.6,0.5-2.4,0.7c-0.8,0.3-1.6,0.5-2.4,0.8c-6.2,2.4-12.2,6-16.6,10.8
				c-1.1,1.2-2.1,2.5-2.9,3.9c-0.4,0.7-0.8,1.4-1.2,2.2l-1.2,2.3c-1.6,3-3.1,6.1-4.6,9.2c-2.9,6.2-5.6,12.5-8.2,18.9
				c-1.3,3.2-2.6,6.4-3.9,9.6s-2.5,6.4-4,9.6c-0.4,0.7-0.7,1.3-1,1.8c-0.4,0.5-0.6,0.8-0.8,1c-0.1,0.1-0.2,0.1-0.2,0.1
				s0.1-0.2,0.3-0.5c0.8-1.2,1.6-3.3,2.4-5.6c-0.5,1.5-0.7,1.4-1.3,2.9c-0.2-0.1,0.9-3.1,3.1-8.9l-1.8,4.4c-0.7,1.4-0.2-0.1-0.3-0.1
				c0.6-1.5,1.2-2.9,1.1-2.9s-0.2-0.1-0.3-0.1c-0.6,1.5-1.8,4.3-2.4,5.8c0.6-1.4,1.2-2.9,1.2-2.9c-0.1,0-0.2-0.1-0.3-0.1
				c1.1-2.9,3-7.2,4.1-10.2l-0.2-0.1c-1.2,2.9-2.9,7.3-4.1,10.2c0.5-1.5,0.5-1.5,0.3-1.5c1.7-4.4,3.6-8.7,5.2-13.1l-1.8,4.4
				C454.9,339.2,458.1,332.1,460,327.7z"/>
		</g>
	</g>
</g>
<g>
	<g>
		<g>
			<path d="M242.5,211.7c0.7,0.2,1.4,0.4,2.1,0.7c0.7,0.2,1.5,0.4,2.2,0.6c1.5,0.4,3.1,0.6,4.6,1c1.6,0.2,3.1,0.4,4.7,0.6
				c0.8,0,1.5,0.1,2.3,0.1c0.4,0,0.7,0,1.1,0.1c0.4,0,0.7,0,1.1,0c0.9,0,1.7,0,2.6-0.1s1.8-0.1,2.6-0.2l1.3-0.1
				c0.4,0,0.9-0.1,1.3-0.2l2.7-0.4c3.5-0.7,7-1.5,10.3-2.7c0,0-0.5,0.3,0,0.1c2.2-0.7,2.2-0.6,2.3-0.5c0,0.1-1.6,0.6-1.1,0.4
				c-1.6,0.6-4.4,1.5-2.7,1c0.6-0.1,2.7-0.9,3.3-1c0.6-0.1-0.5,0.3,0.1,0.2c0.5-0.2,1.6-0.7,2.2-0.9s-0.5,0.3,0.1,0.1
				c1.7-0.6,3.7-1.6,5.8-2.7c0,0,0.6-0.2-0.5,0.4c-9.1,4.7-19.4,7.4-29.7,7.5c-10.4,0.1-20.8-2.6-29.6-7.9c-2-1.2-0.4-0.4,1.1,0.4
				c-0.5-0.3-0.5-0.3-1-0.6c0,0,0.3,0.1,0.8,0.3s1.3,0.7,2.3,1.2c-0.5-0.2-1-0.5-1.5-0.8s0-0.1,0.1-0.1c0.5,0.3,1,0.6,1,0.5v-0.1
				c-0.5-0.3-1.5-0.9-2-1.2c0.2,0.1,0.5,0.3,0.7,0.4c0.2,0.1,0.3,0.2,0.3,0.2v-0.1c0.5,0.3,1.1,0.6,1.8,0.9c0.6,0.3,1.3,0.6,1.8,0.9
				v-0.1c-0.5-0.3-1.2-0.6-1.8-0.9c-0.7-0.3-1.3-0.6-1.8-0.9c0.5,0.3,0.5,0.3,0.5,0.2c0.8,0.4,1.5,0.8,2.3,1.2
				c0.4,0.2,0.8,0.4,1.2,0.6c0.4,0.2,0.8,0.3,1.2,0.5c-0.5-0.2-1.1-0.4-1.6-0.7c0.5,0.2,1.5,0.6,2.5,1c0.5,0.2,1,0.4,1.5,0.6
				C241.6,211.4,242.1,211.5,242.5,211.7z"/>
		</g>
	</g>
</g>
</svg>
