<svg xmlns="http://www.w3.org/2000/svg" width="1200" height="800" viewBox="0 0 1200 800" role="img" aria-labelledby="title desc"><title id="title">Redaktionell illustration om nästäppa och snuva</title><desc id="desc">En person hemma med näsduk, tekopp och mjuka former som symboliserar förkylningsbesvär.</desc><defs><linearGradient id="bg" x1="0" y1="0" x2="1" y2="1"><stop offset="0" stop-color="#eef5f1"/><stop offset="1" stop-color="#dce8e2"/></linearGradient><linearGradient id="shirt" x1="0" y1="0" x2="1" y2="1"><stop offset="0" stop-color="#315f58"/><stop offset="1" stop-color="#234a45"/></linearGradient></defs><rect width="1200" height="800" rx="40" fill="url(#bg)"/><circle cx="980" cy="145" r="110" fill="#c7d9cf" opacity=".65"/><circle cx="165" cy="650" r="145" fill="#d5e4dc"/><rect x="90" y="570" width="1020" height="120" rx="32" fill="#c9b59b"/><ellipse cx="600" cy="680" rx="420" ry="38" fill="#b39f86" opacity=".35"/><circle cx="590" cy="280" r="122" fill="#e8c4a7"/><path d="M470 270c15-130 210-155 255-26 13 38 6 75-8 103-18-75-76-117-153-109-38 4-70 16-94 32z" fill="#594238"/><path d="M455 615c22-160 92-235 140-235s122 73 146 235z" fill="url(#shirt)"/><path d="M520 333c42 33 101 31 142-3" fill="none" stroke="#b77869" stroke-width="7" stroke-linecap="round"/><path d="M565 292c10 8 21 8 31 0M628 292c10 8 21 8 31 0" fill="none" stroke="#5c4b46" stroke-width="7" stroke-linecap="round"/><path d="M605 298c-4 17-7 29-2 42" fill="none" stroke="#c08f78" stroke-width="6" stroke-linecap="round"/><path d="M520 420c42-42 119-43 162 0l-34 110h-97z" fill="#f9faf8"/><path d="M515 427l73 55M685 427l-73 55" stroke="#dfe5e1" stroke-width="7"/><path d="M475 455c35 5 72 23 105 52M725 455c-35 5-72 23-105 52" fill="none" stroke="#e8c4a7" stroke-width="34" stroke-linecap="round"/><rect x="810" y="475" width="130" height="112" rx="18" fill="#f7f4ee"/><path d="M835 500h80M835 525h80M835 550h80" stroke="#9ab6a8" stroke-width="7" stroke-linecap="round"/><path d="M855 475c12-38 43-53 65-32 14 14 8 33-2 43" fill="#fff"/><path d="M270 495h120v95H270z" fill="#f5f1e9"/><path d="M390 515h22c45 0 45 55 0 55h-22" fill="none" stroke="#f5f1e9" stroke-width="18"/><path d="M295 475c-12-28 16-42 5-69M340 475c-12-28 16-42 5-69" fill="none" stroke="#fff" stroke-width="8" stroke-linecap="round" opacity=".75"/><circle cx="1000" cy="530" r="58" fill="#9bb9a8"/><path d="M1000 468v124M938 530h124" stroke="#eef5f1" stroke-width="10" stroke-linecap="round"/><path d="M125 175c90-65 170-55 240 5" fill="none" stroke="#bdd2c6" stroke-width="20" stroke-linecap="round"/><path d="M835 240c72-50 142-48 205 2" fill="none" stroke="#bdd2c6" stroke-width="18" stroke-linecap="round"/></svg>