<?xml version="1.0" encoding="utf-8"?>
<!-- Generator: Adobe Illustrator 25.4.1, SVG Export Plug-In . SVG Version: 6.00 Build 0)  -->
<svg version="1.1" id="Lager_1" xmlns="http://www.w3.org/2000/svg" xmlns:xlink="http://www.w3.org/1999/xlink" x="0px" y="0px"
	 viewBox="0 0 500 500" style="enable-background:new 0 0 500 500;" xml:space="preserve">
<style type="text/css">
	.st0{fill:#CC0066;}
	.st1{fill:#F9CDDE;}
	.st2{fill:#EB6F00;}
	.st3{fill:#F9CFB5;}
	.st4{fill:#1D1D1D;}
</style>
<circle class="st0" cx="346.4" cy="180.2" r="39.7"/>
<circle class="st1" cx="346.4" cy="180.2" r="21.1"/>
<circle class="st0" cx="346.4" cy="248" r="39.7"/>
<circle class="st1" cx="346.4" cy="248" r="21.1"/>
<circle class="st0" cx="304.7" cy="206.3" r="39.7"/>
<circle class="st1" cx="304.7" cy="206.3" r="21.1"/>
<ellipse transform="matrix(0.3162 -0.9487 0.9487 0.3162 39.1648 372.6049)" class="st0" cx="278.1" cy="159.1" rx="39.7" ry="39.7"/>
<circle class="st1" cx="278.1" cy="159.1" r="21.1"/>
<circle class="st2" cx="211.6" cy="168" r="39.7"/>
<circle class="st3" cx="211.6" cy="168" r="21.1"/>
<ellipse transform="matrix(0.1602 -0.9871 0.9871 0.1602 -0.7788 415.6847)" class="st0" cx="243.9" cy="208.3" rx="39.7" ry="39.7"/>
<circle class="st1" cx="243.9" cy="208.3" r="21.1"/>
<circle class="st2" cx="167.7" cy="225.6" r="39.7"/>
<circle class="st3" cx="167.7" cy="225.6" r="21.1"/>
<circle class="st0" cx="211.6" cy="241" r="39.7"/>
<circle class="st1" cx="211.6" cy="241" r="21.1"/>
<circle class="st2" cx="150.8" cy="280.8" r="39.7"/>
<circle class="st3" cx="150.8" cy="280.8" r="21.1"/>
<circle class="st2" cx="190.5" cy="301.8" r="39.7"/>
<circle class="st3" cx="190.5" cy="301.8" r="21.1"/>
<circle class="st0" cx="235.2" cy="283.2" r="39.7"/>
<ellipse transform="matrix(0.1602 -0.9871 0.9871 0.1602 -82.0181 469.9994)" class="st1" cx="235.2" cy="283.2" rx="21.1" ry="21.1"/>
<ellipse transform="matrix(0.3162 -0.9487 0.9487 0.3162 -42.6757 450.2675)" class="st0" cx="291" cy="254.7" rx="39.7" ry="39.7"/>
<circle class="st1" cx="291" cy="254.7" r="21.1"/>
<circle class="st0" cx="330.8" cy="309" r="39.7"/>
<circle class="st1" cx="330.8" cy="309" r="21.1"/>
<circle class="st0" cx="283.6" cy="322.9" r="39.7"/>
<circle class="st1" cx="283.6" cy="322.9" r="21.1"/>
<circle class="st0" cx="238.4" cy="343.4" r="39.7"/>
<circle class="st1" cx="238.4" cy="343.4" r="21.1"/>
<path class="st4" d="M370.6,200.3c0,0.2,2.4-1.2-1,1.3l-0.5,0.3L369,202c-0.1,0.1-0.2,0.2-0.4,0.2c-0.2,0.1-0.4,0.2-0.6,0.3
	l-2.5,1.1c-1,0.4-2,0.7-3,0.8l-1.7,0.3l-0.8,0.2l-0.4,0.1l-0.5,0.1l-7.7,1.3l-7.1,1.1l1.8,0.8l2.1,0.9l4.3,1.8l4.7,2l1.2,0.5
	c0.4,0.2,0.8,0.3,1.1,0.5l2.1,1l2.1,1l1,0.5c0.2,0.1,0.4,0.2,0.5,0.2l0.4,0.3c0.6,0.3,1.1,0.7,1.7,1.1l1.2,0.9
	c0.5,0.4,1,0.8,1.4,1.2c0.5,0.4,0.9,0.8,1.4,1.2c3.7,3.5,6.6,7.7,8.8,12.3c0.2,0.2,0.5,0.5,0.7,0.8c1,2.6,1.7,5.2,2.1,7.9
	s0.4,5.5,0.1,8.2c-0.3,2.8-1,5.5-2,8.2c-0.5,1.3-1.1,2.7-1.7,3.9c-0.7,1.3-1.4,2.5-2.2,3.7c-2.1,3.2-4.6,6.1-7.5,8.5
	c-0.7,0.6-1.5,1.1-2.2,1.7s-1.6,1-2.4,1.5l-0.1,0.1h-0.1l-0.2,0.1l-0.7,0.3l-1.4,0.6l-2.7,1.3l-5.9,2.5l3.5,4.7l3.2,4.6l0.2,0.3
	c0,0.1,0.1,0.1,0.1,0.2l0.1,0.3l0.3,0.6l0.6,1.1c0.4,0.8,0.7,1.5,1,2.3c1.3,3.1,2.1,6.5,2.5,9.8c0.8,6.7-0.2,13.6-3,19.7
	c0.3-0.4,0.5-0.6-0.3,1.3c-1.1,2.1-2.4,4.1-3.9,6c-0.8,1-1.7,2-2.7,2.9l-1.5,1.4c-0.5,0.5-1.1,0.9-1.7,1.3c-2.4,1.8-5,3.3-7.7,4.6
	c-2.9,1.3-5.9,2.2-9,2.7l-1.4,0.2l-1.4,0.1c-0.5,0-0.9,0.1-1.4,0.1H330c-0.7,0-1.3,0.1-2,0.2l-1.5-0.1h-0.2h-0.1H326l-0.5-0.1
	c-0.8-0.2-1.6-0.5-2.4-0.9c-0.4-0.2-0.8-0.4-1.2-0.6s-0.7-0.3-1.6-0.8c-1.6-0.9-3.1-1.8-4.6-2.7c-1.3,1.1-2.6,2.2-3.7,3.1l-2.4,2
	c-1.2,1-2.5,2-3.7,3s-2.5,1.9-3.7,2.6c-0.5,0.3-1.2,0.6-1.8,1s-1.3,0.6-2,0.9c-1.4,0.5-2.8,1-4.2,1.3c-2.9,0.7-6,0.9-9,0.7
	c-1.6-0.1-3.1-0.3-4.6-0.7l-1.3-0.4c-0.8-0.2-1.5-0.5-2.3-0.8c-1.6-0.6-3.1-1.2-4.6-1.8c-0.8,1.8-1.6,3.6-2.4,5.4
	c-0.2,0.5-0.4,0.9-0.6,1.4l-0.5,0.9l-0.7,1.3c-0.5,0.9-1.1,1.7-1.6,2.5s-1.3,1.6-1.9,2.4c-2.7,3.1-5.8,5.7-9.3,7.9
	c-7.2,4.4-15.6,6.3-23.9,5.3c-4.2-0.6-8.1-2.1-11.6-4.4c-3.7-2.4-6.9-5.5-9.4-9c-2.7-3.7-4.8-7.7-6.2-12c-0.4-1.1-0.6-2.2-1-3.3
	s-0.5-2.3-0.7-3.4c-0.1-0.3-0.1-0.6-0.1-0.9l-0.1-1.1c-0.1-0.9-0.2-2-0.2-3l-0.1-3l-0.1-1.5V338c0-0.2,0-0.5-0.1-0.6l-2.4,0.8
	L197,339l-2.5,0.6c-0.2,0.1-0.4,0.1-0.6,0.1h-0.3h-0.3l-0.7,0.1c-1.9,0.2-3.9,0.2-5.8,0c-4.1-0.4-8.1-1.7-11.8-3.6
	c-3.9-2-7.3-4.8-10.1-8.1c-1.4-1.7-2.7-3.5-3.7-5.5c-0.5-1-0.9-2-1.3-3.1c-0.6-1.8-1-3.5-1.4-5.3c-0.1-0.1-0.2,0-0.4,0h-0.4
	l-0.8,0.1l-1.7,0.1l-1.8,0.1h-0.5h-1H149c-0.8,0-1.7-0.1-2.5-0.2c-3.9-0.4-7.7-1.2-11.3-2.5c-3.6-1.4-7-3.2-10.1-5.6
	c-3-2.3-5.7-5.1-7.7-8.4c-2-3.2-3.4-6.7-4.1-10.4c-1.7-9,0-18.4,4.6-26.3c2.4-4.1,5.6-7.8,9.3-10.6l2.9-2c1-0.5,2.1-1.1,3.1-1.6
	l1.9-0.7c0.7-0.3,1.5-0.5,2.3-0.8l2.3-0.6l1.1-0.3l0.6-0.1l0.3-0.1h0.1c0.1,0,0.1,0,0.1-0.1l-1.7-2.4c-0.6-0.8-1.1-1.8-1.6-2.6
	c-0.2-0.4-0.5-0.9-0.8-1.3l-0.4-1.1c-0.3-0.6-0.5-1.3-0.8-2c-0.9-2.6-1.4-5.3-1.5-8c-0.2,0.9-0.9-1.8-0.6-6.2c0-1.1,0.2-2.3,0.4-3.6
	s0.5-2.6,0.9-4s0.8-2.8,1.3-4.2s1.1-2.8,1.8-4.1c2.1-4.7,5.4-8.8,9.4-12l1.8-1.4c0.3-0.2,0.7-0.5,1-0.8c0.4-0.3,0-0.3-1.4,0.3
	c2.2-1.3,4.5-2.3,6.9-3c2.5-0.7,5.2-1.2,7.8-1.4c0.7-0.1,1.3-0.1,2-0.1s1.3,0,2,0l1.9,0.1c0.6,0,1.3,0.1,1.7,0.1
	c1.7,0.2,3.4,0.4,5,0.8c-0.2-0.9-0.5-1.9-0.8-2.7s-0.3-1.6-0.5-2.2l-0.1-0.4c0-0.2-0.1-0.4-0.1-0.6c-0.1-0.4-0.1-0.6-0.1-0.9
	c0-0.3-0.1-0.7-0.2-1c-0.2-0.6-0.4-1.2-0.5-1.8c-0.1-0.8-0.3-1.7-0.5-2.8s-0.2-2.5-0.2-4.2c0-0.8,0.1-1.7,0.1-2.7
	c0-0.5,0.1-1,0.1-1.5s0.1-1,0.2-1.6c0.7-5.8,2.5-11.4,5.3-16.5c2-3.6,4.5-7,7.4-9.9c0.8-0.8,1.8-1.6,2.7-2.4
	c0.5-0.4,0.9-0.8,1.4-1.1l1.6-1.1c0.5-0.4,1.1-0.8,1.7-1.1c0.6-0.4,1.2-0.7,1.8-1c1.3-0.6,2.6-1.2,4-1.6c4.6-1.4,9.5-1.9,14.3-1.4
	c5,0.4,9.8,1.6,14.4,3.6c4.1,1.7,7.8,4.1,11,7.1c2.1,2,3.9,4.5,5.1,7.1c0.9,2,0.9,1.8,0.5,0.5l-0.2-0.5c-0.1-0.2-0.2-0.5-0.3-0.8
	c-0.3-0.6-0.6-1.2-0.9-1.8c-0.7-1.3-1.6-2.6-2.6-3.7c-1.7-1.9-3.6-3.6-5.6-5.1c-0.6-0.5-1-0.7-0.9-0.7c0.6,0.3,1.1,0.6,1.7,0.9
	c-3.9-2.6-8.2-4.6-12.8-5.9c-4.5-1.3-9.1-1.9-13.8-1.8c-4.9,0.1-9.7,1.1-14.1,3.1c-1.1,0.5-2.2,1.1-3.3,1.8l-2.9,2
	c-0.9,0.7-1.8,1.5-2.7,2.3l-0.7,0.6l-0.6,0.6l-1.2,1.2c-3.2,3.4-5.8,7.2-7.9,11.4c-2,4.1-3.4,8.5-4.3,12.9c-0.9,4.4-1.2,9-1,13.5
	c0,1.1,0.1,2.3,0.3,3.4l0.2,2l0,0h0.1l-1-0.1l-3.1-0.1c-4.2-0.1-8.4,0.5-12.4,1.7c-4.1,1.2-8,3.2-11.4,5.8c-3.4,2.7-6.2,5.9-8.4,9.6
	c-4.3,7-6.8,14.9-7.3,23.1c-0.2,4.2,0.2,8.4,1.3,12.5c0.3,1,0.6,2.1,1,3.1l0.6,1.5l0.3,0.7l0.1,0.2v0.1v0.1l0,0v-0.1v-0.1l0,0l0,0
	l0,0l0,0h-0.1l-1,0.4c-1.3,0.6-2.5,1.3-3.7,1.9s-2.3,1.5-3.5,2.3c-4.4,3.3-8.1,7.5-10.9,12.2c-5.7,9.4-7.8,20.7-5.8,31.5
	c1,5.5,3.3,10.7,6.6,15.3c3.3,4.4,7.5,8.2,12.2,11s9.8,4.8,15.1,5.9c1.3,0.2,2.6,0.5,4,0.7s2.7,0.3,4,0.4l3.6,0.1h0.1v0.1l0,0
	c0,0-0.1-0.1,0,0l0.1,0.4c0.2,0.5,0.4,1,0.6,1.5c0.8,2,1.8,3.9,3,5.6c2.3,3.5,5.2,6.6,8.5,9.3c6.6,5.4,14.7,8.5,23.2,9
	c1.8,0.1,3.6,0,5.5-0.2l0.8-0.1c-0.1,0-0.1,0-0.1,0l0,0h0.1l0.1-0.1c0,0,0,0.1,0,0.2v0.1c0,0.2,0.1,0.4,0.1,0.6
	c0.1,0.9,0.3,1.7,0.5,2.6c0.3,1.8,0.9,3.6,1.4,5.5c0.6,2,1.4,3.9,2.2,5.7c1.8,4.2,4.2,8.1,7.1,11.6c3.3,4,7.3,7.4,11.8,10
	c1.2,0.6,2.5,1.3,3.8,1.9s2.7,1,4.1,1.4c2.8,0.8,5.7,1.3,8.6,1.4c6,0.3,12-0.6,17.7-2.6c5.9-2.2,11.4-5.5,16.1-9.7
	c0.6-0.5,1.2-1.1,1.7-1.7s1.2-1.1,1.7-1.8c1.1-1.2,2.1-2.5,3.1-3.9c0.5-0.7,1-1.4,1.4-2.1s0.8-1.5,1.2-2.2c0.1-0.2,0.1-0.2,0.1-0.3
	c0-0.1,0.1-0.2,0.1-0.2l0.3,0.1h0.1l1.5,0.4c2.1,0.5,4.2,0.8,6.3,1c2.1,0.1,4.3,0.1,6.5-0.1s4.3-0.6,6.4-1.2s4.2-1.3,6.2-2.3
	c1-0.5,2-1,3-1.6s1.8-1.2,2.7-1.8c1.7-1.2,3.3-2.5,4.8-3.7l2.2-1.8l0.4,0.2c1.1,0.5,2.2,1.1,3.4,1.6c1.4,0.6,2.8,1,4.2,1.3l0.7,0.1
	h0.5h1l1.9,0.1c5,0,10.1-0.7,14.9-2.3c4.8-1.6,9.2-3.9,13.3-6.8c4-3,7.6-6.6,10.4-10.7c2.9-4.1,5-8.7,6.2-13.5
	c2.4-9.4,1.9-19.4-1.5-28.5c-0.4-1.1-0.9-2.2-1.4-3.3s-1.1-2.1-1.6-3.1c-0.2-0.4-0.5-0.8-0.8-1.2l0.2-0.1h0.1l0.2-0.1l0.5-0.2h0.1
	l0.2-0.1l0.5-0.3l0.9-0.6c2.4-1.5,4.6-3.3,6.7-5.2c4-3.8,7.3-8.2,9.8-13c2.4-4.6,3.9-9.6,4.6-14.8c0.6-4.9,0.3-9.8-0.8-14.6
	c-2-8.4-6.2-16-12.2-22.2c-0.7-0.7-1.4-1.4-2.1-2l-2.1-1.8c-0.4-0.3-0.7-0.6-1.1-0.8l-0.2-0.2l-0.2-0.2c-0.2-0.1-0.3-0.2-0.5-0.3
	l-0.2-0.1l-0.1-0.1h0.1c0.2,0,0.4-0.1,0.5-0.1s0.2-0.1,0.4-0.1l0.2-0.1l0,0l0.1-0.1l0.8-0.5c4.6-3,8.5-6.9,11.5-11.5
	c1.5-2.2,2.8-4.6,4-7c1.3-2.6,2.2-5.4,2.8-8.2c1.2-5.8,0.7-11.9-1.4-17.5c-2.1-5.5-5.5-10.3-10-14.1c-4.2-3.5-8.9-6.3-14-8.4
	c-2.4-1-4.8-1.9-7.3-2.6c-2.5-0.7-5.1-1.1-7.7-1.4c-5.1-0.4-10.2,0.2-15.1,1.7c-2.3,0.7-4.5,1.6-6.6,2.7c-1,0.5-2,1.1-3,1.7
	c-0.5,0.3-0.9,0.6-1.4,0.9l-0.7,0.4l-0.6,0.4l-0.8,0.6l-0.4,0.4l-0.2,0.2c-0.1,0.1-0.2,0.2-0.2,0c0-0.3-0.1-0.7-0.2-1L323,146v-0.1
	l0,0l-0.1-0.2l-0.4-1.2l-0.4-1.2c-0.1-0.4-0.3-0.8-0.5-1.1l-1-2.3c-0.4-0.7-0.8-1.4-1.2-2.2c-0.4-0.7-0.8-1.4-1.2-2.1
	c-3.6-5.4-8.1-10-13.5-13.5c5.4,4,9.9,9.1,13.2,15c-2-3.4-4.5-6.5-7.3-9.3c-2.6-2.5-5.5-4.8-8.5-6.7c-4.3-2.7-9-4.8-14-6
	c-1-0.3-2-0.4-3-0.7c-0.5-0.1-0.9-0.2-1.4-0.3l-1.3-0.2c-0.9-0.1-1.7-0.2-2.4-0.2h-2.2c-1.2,0-2.4,0-3.5,0.2l-1.4,0.1l-1.1,0.2
	c-2.7,0.5-3,0.7-1.9,0.7c0.5,0,1.5,0,2.6-0.1s2.5,0,4.1,0c3.2,0.2,6.4,0.8,9.5,1.7c0.8,0.2,1.6,0.4,2.4,0.8c0.3,0.1,0.7,0.3,1,0.4
	c0.3,0.2,0,0.2-0.1,0.3c-0.2,0.2,0.3,0.2,6.5,3.3c-2-1-4.1-1.8-6.2-2.5l-2.8-0.8l-2.8-0.6c-4.1-0.8-8.2-0.9-12.4-0.4
	c-0.1,0.1,0.2,0,1,0s1.9-0.1,3.2-0.2c3.3-0.1,6.5,0.3,9.7,1l1.2,0.3l1.2,0.4c0.8,0.2,1.5,0.5,2.3,0.7c1.4,0.6,2.6,1,3.5,1.4
	c1.8,0.9,2.4,1.2,0.8,0.6c-4.5-2.1-9.3-3.5-14.2-4c-5-0.5-10.1,0.1-14.9,1.5c0.4-0.1,1.2-0.3,2.4-0.5l1.9-0.4l2.3-0.3
	c3.7-0.4,7.5-0.3,11.2,0.4c3.4,0.7,6.7,1.7,9.9,3.1c2.4,1.2,3.9,2,3.5,1.9c-1.2-0.6-3.3-1.7-6-2.7c-0.7-0.3-1.4-0.5-2.1-0.7
	s-1.5-0.5-2.2-0.7c-1.6-0.4-3.1-0.8-4.7-1c-2.9-0.4-5.8-0.5-8.7-0.3c-1.2,0.2-2.2,0.3-3,0.5c-0.5,0.1-1,0.3-1.5,0.5
	c0.5,0,0.9-0.1,1.4-0.2c0.9-0.1,2.2-0.3,3.7-0.4c3-0.2,6-0.1,9,0.4c-6.4-1-12.9-0.3-18.9,2c-1.2,0.6-2.4,1-3.4,1.5s-2,1-2.7,1.6
	l-2.1,1.4L254,126c-0.5,0.4-1,0.8-1.4,1.3c-0.1,0.2,0.2-0.1,0.9-0.6l1.4-1c0.3-0.2,0.6-0.4,1-0.7l1.2-0.7c0.4-0.2,0.9-0.5,1.4-0.8
	l1.7-0.8l0.9-0.4c0.3-0.2,0.7-0.3,1-0.4c0.7-0.2,1.4-0.6,2.2-0.8c-4.9,1.8-9.4,4.5-13.1,8.1c-3.8,3.7-6.7,8.3-8.4,13.4v-0.1
	c1-2.8,2.3-5.4,4-7.9c1.6-2.4,3.5-4.5,5.6-6.4c-2,1.8-3.8,3.9-5.4,6.1l-1.1,1.7c-0.2,0.3-0.4,0.6-0.5,0.9l-0.5,0.9l-0.9,1.8
	l-0.7,1.9l0.6-1.2c0.2-0.5,0.4-0.9,0.7-1.3c1.8-3.7,4.3-7,7.3-9.8c-2.6,2.5-4.8,5.4-6.4,8.5c0.3-0.6,0.7-1.2,1.1-1.7
	c0.4-0.6,0.8-1.2,1.3-1.8l1.5-1.8c0.5-0.6,1.1-1.1,1.7-1.7c4.2-4.2,9.5-7.2,15.2-8.8c4.3-1.2,8.8-1.5,13.2-1.1
	c9.1,1,17.6,4.9,24.4,11c3.4,2.9,6.1,6.5,8.2,10.4c0.2,0.5,0.5,1,0.7,1.5l0.6,1.5c0.4,1,0.7,2,1,3.1c0,0.2,0.2,0.7,0.2,1l0.1,0.9
	l0.1,2l0.3,4.1c0.1,1.4,0.1,2.7,0.2,4l0.2,4c3.9-2.8,8.1-6,12.1-8.9c0.5-0.4,1-0.7,1.5-1.1l1-0.6l1.5-0.9c1-0.6,2-1.1,3-1.6
	c4-1.9,8.4-3,12.8-3.2c2.2-0.1,4.4,0.1,6.5,0.5c2.3,0.4,4.5,1,6.6,1.8c2.2,0.8,4.3,1.7,6.4,2.8c2,1,4,2.3,5.8,3.6s3.4,2.8,4.8,4.4
	c1.4,1.6,2.6,3.4,3.5,5.3c1.9,3.7,2.7,7.9,2.3,12.1c-0.2,2.1-0.7,4.1-1.4,6.1c-0.2,0.5-0.4,1-0.6,1.5s-0.4,1-0.7,1.5
	c-0.5,1-1.1,2-1.7,3C377.1,194.2,374.2,197.6,370.6,200.3z"/>
</svg>
