<svg xmlns="http://www.w3.org/2000/svg" viewBox="0 0 500 500"><defs><style>.cls-1{fill:#f9cdde;}.cls-2{fill:#1d1d1d;}</style></defs><g id="OUTLINE_ikons" data-name="OUTLINE ikons"><path class="cls-1" d="M223,218.38s-25.78,18-36.45-12.31c0,0-27.9,2.15-23.37-34.55,0,0-32.87-48.13-8.45-73.14S174.09,81.19,186.5,63s55.58-23.63,54.87-5.67c0,0,25.52-10.93,38-6.1s25.73,20.11,27.33,24.69,21.77,6,24.67,19.09,5.59,23.64,2.9,38.4-1.17,44.33-10.55,54.29S313,212.23,294.29,213.72c0,0-5.1,25.91-28.65,10.72,0,0-1.13,23.5-7.87,33.18a248.89,248.89,0,0,1-3,38.57c-3.3,20.69-7.75,48.77-7.85,59.7s-5.21,63.12,23.65,91.48c0,0-27.34-29-33.63-61.46-7.92-40.85,8.68-91.35,8-114.13C244,240.54,223,218.38,223,218.38Z"/><path class="cls-2" d="M247.26,76.45c-.21,0-.3,1.37-.56-.78-.33-3.39-.52-6.46-.66-9.53-.09-1.54-.19-3.08-.32-4.65-.07-.79-.14-1.6-.22-2.41A21.51,21.51,0,0,0,245,56l-.51-.62a11.2,11.2,0,0,0-1.38-3.07,10.56,10.56,0,0,0-2.52-2.63A15.9,15.9,0,0,0,238,48.21c-.77-.37-1.44-.61-2.17-.88a34.46,34.46,0,0,0-4.37-1.46,35.17,35.17,0,0,0-4.55-1,50.24,50.24,0,0,0-32.55,7c.33,0,.47,0-.43.6a49.18,49.18,0,0,0-13.19,11.85c-.56.83-1.12,1.66-1.66,2.48a1.82,1.82,0,0,0-.38,1c-.74,1.33-1.44,2.59-2.11,3.78S175.49,73.94,175,75a42.48,42.48,0,0,1-2.11,4.59,13.18,13.18,0,0,1-2.59,3.38c-2.13,2-5.33,3.62-8.76,5.73a29.28,29.28,0,0,0-5.1,3.88,24.3,24.3,0,0,0-2.25,2.4c-.7.84-1.32,1.74-1.94,2.63a37.22,37.22,0,0,0-4.69,11.71,70,70,0,0,0-1.45,12.06c-.17,4-.13,8,0,12a104.36,104.36,0,0,0,1,12.21,47.37,47.37,0,0,0,3.41,12.29,28.72,28.72,0,0,0,6.46,9c.67.63,1.43,1.17,2.14,1.75s1.45,1,2.08,1.48a4.66,4.66,0,0,1,2.27,3,6.74,6.74,0,0,1-.4,3.07c-.36,1.15-.9,2.34-1.37,3.73a21.43,21.43,0,0,0-1.1,8.8,26.72,26.72,0,0,0,6.64,15.3c0-.49.95.33,2.56,1.5a27.4,27.4,0,0,0,6.35,3.55,17.25,17.25,0,0,0,6.37,1.27c1.65,0,2.61-.33,1.27-.67.59.06,1.27,0,1.94.05l1,0h.77c.08,0,.2,0,.21,0a27.92,27.92,0,0,0,0,2.89c0,.49.06,1,.12,1.46l.08.38.06.25.13.5a5.41,5.41,0,0,0,.32,1c.12.31.25.61.37.91.32.57.57,1.14.91,1.62a16,16,0,0,0,1.85,2.27,5.58,5.58,0,0,0,1.05.81c.86.07,2.22.79,5.17,1.79a23.81,23.81,0,0,0,5.75,1.22,28.73,28.73,0,0,0,4.07-.09,34.92,34.92,0,0,0,5.05-.9,65.57,65.57,0,0,0,9.88-3.28,71.84,71.84,0,0,0,7.09-3.3c1.6-1-.43-.15-2.41.61s-4,1.47-2.4.58a65.74,65.74,0,0,1-11.15,4.13,30.31,30.31,0,0,1-5.39.85,20.84,20.84,0,0,1-2.62,0l-.65,0-.58-.08a7.89,7.89,0,0,1-1.17-.18,16.67,16.67,0,0,1-8.41-4.43,11.48,11.48,0,0,1-2.47-3.54c-.1-.31-.28-.61-.35-.92l-.11-.47,0-.12a.21.21,0,0,1,0-.08l0-.27-.08-.53v-3.9l0-3.36-6.3.22-1.4-.07-.7,0-.35,0a.63.63,0,0,1-.16,0c-.35-.08-.72-.12-1.07-.21a16.73,16.73,0,0,1-4.19-1.64,20.72,20.72,0,0,1-6.92-6.37,19.66,19.66,0,0,1-3.38-8.7,15.32,15.32,0,0,1,.1-4.44A13.89,13.89,0,0,1,168,182c.22-.69.62-1.62,1-2.7a18.75,18.75,0,0,0,1.07-3.93,12.81,12.81,0,0,0,.08-2.67,10.57,10.57,0,0,0-.67-2.89,10.11,10.11,0,0,0-1.48-2.57,13.2,13.2,0,0,0-1.69-1.77c-1.09-.95-2-1.57-2.68-2.07a20.09,20.09,0,0,1-5.88-7.43,36.14,36.14,0,0,1-2.89-10.18,80,80,0,0,1-.82-11.44c-.09-2-.17-5.67,0-10.29.08-2.32.22-4.88.58-7.59a43.43,43.43,0,0,1,1.85-8.38,22.58,22.58,0,0,1,4.27-7.79,15.18,15.18,0,0,1,1.59-1.62c.29-.25.56-.51.86-.76s.61-.48.95-.71a54.64,54.64,0,0,1,4.71-2.83,49.64,49.64,0,0,0,5.71-3.57,22.07,22.07,0,0,0,5.38-5.67c2.81-4.37,3.9-8.6,5.86-11.69a35.52,35.52,0,0,1,7.18-8.91,43.94,43.94,0,0,1,9.56-6.41,44.9,44.9,0,0,1,10.66-3.48,40.93,40.93,0,0,1,10.52-.55,35.6,35.6,0,0,1,4.87.8l1.17.26.58.13.55.19,2.18.75a6.48,6.48,0,0,1,2.47,1.2,1.92,1.92,0,0,1,.25.54,8.94,8.94,0,0,1,.29,1.45c.08.6.15,1.36.22,2.06s.14,1.4.21,2.07c.13,1.35.26,2.63.37,3.85.2,2.43.38,4.57.53,6.39l.21,2.64c1.22,15.87,1.82,35.25,2.31,48.77.28,6.2.6,12.52.8,18.81.24-2.92.47-5.62.66-8-.06,6.41-.22,12.81-.07,15.28.13,13.65.93,5.95,1.84.71.43-3.78.84,1.35,1.32-4.57-.12,4.27-.18,6.41-.3,10.7.33.5.15-13.19.62-10.2-.21,4.11-.13,8.73-.28,13,.51-1.47.56-14.82,1-14.15.07,2.31-.87,12-.37,12.85.1.17.26-4.11.31-6.26-.08,6.6-.1,11.72.05,13.69s.48.78,1-5.23c-.16,4.18-.62,10.09-.74,14.51v0c.11-2.21.39-6,.47-8.05q-.16,3.77-.34,7.53c.09-.4.18-.84.28-1.31.15-1.87.29-3.75.37-5.7-.07,1.66-.15,3.32-.23,5,.23-1.24.47-2.67.69-4.24.58-5.93,1.26-11.62,1.37-14.84A729.84,729.84,0,0,0,247.26,76.45Z"/><path class="cls-2" d="M299.42,68.35c.18-.09-.09-.86.66.09a15,15,0,0,1,2.35,4.7l.32,1.21.05.15a1.66,1.66,0,0,0,.1.33c.09.3.12.51.18.77.12.5.24,1,.35,1.49.25,1,.49,2,.75,3,1,.26,2.08.42,3.17.62l.76-.18,1.21.27.3.06.23.06.28.1,1.1.39c.37.14.76.24,1.1.41l1,.49,1,.49,1,.6,1,.58,1,.69A30.29,30.29,0,0,1,324,90.33a30,30,0,0,1,4.7,7.32c0-.19.12-.3.4.22a23.76,23.76,0,0,1,1.95,8.89c0,.5.1,1,.11,1.5a.88.88,0,0,0,.24.58,38.49,38.49,0,0,1-.5,4.53c-.22,2.37-.57,4.87-.77,7.53s-.22,5.32-.17,7.9c.11,5.16.48,10.14.23,15-.45,9.68-3.84,19.59-7.21,30-.66,2.22-1.31,4.45-1.95,6.65s-1.38,4.32-2.1,6.42c-.56,1.54-1.15,3.2-1.83,4.86a43.27,43.27,0,0,1-2.42,4.81,27.06,27.06,0,0,1-6.4,7.71c.18,0,.17.22,0,.52a4.58,4.58,0,0,1-.94,1.1,12,12,0,0,1-1.69,1.34,14.43,14.43,0,0,1-2.22,1.13,7.17,7.17,0,0,1-1.18.41,11.22,11.22,0,0,1-1.15.33c-.74.17-1.41.3-1.92.43-1,.26-1.37.53-.6.8a13.2,13.2,0,0,0-3.16.34,4.33,4.33,0,0,0-2.31,1.48,8,8,0,0,0-1.17,2.14,3.25,3.25,0,0,0-.33,1.19,3.61,3.61,0,0,1,.16,1.52,7.48,7.48,0,0,1-.24,1.32c-.2.54-.46,1.16-.81,1.88a11.83,11.83,0,0,1-4.34,4.31,16.25,16.25,0,0,1-8.88,2.14,16.5,16.5,0,0,1-9.15-3.52,14.59,14.59,0,0,1-3.11-3.44,10.68,10.68,0,0,1-.86-1.52c-.22-.44-.4-.8-.54-1-.3-.55-.36-.47-.3-.08a6.18,6.18,0,0,0,.33,1c.16.45.37,1,.58,1.44.53.92,1.08,1.88,1.42,2.34s.34.59-.37,0a16.55,16.55,0,0,0,7.41,4.89,19.34,19.34,0,0,0,8.33.88,17.33,17.33,0,0,0,8.17-3.06,14.77,14.77,0,0,0,3.35-3.3,22.09,22.09,0,0,0,1.25-2c.32-.63.58-1.21.81-1.71.44-1,.78-1.84,1.06-2.33a4.6,4.6,0,0,1,.31-.48l.09-.09.11-.05a5,5,0,0,1,.51-.13,20.12,20.12,0,0,1,2.35-.14A22.85,22.85,0,0,0,303,214l1-.18c.34-.08.68-.18,1-.27l1-.29,1-.38a22.05,22.05,0,0,0,6.7-4.26A38,38,0,0,0,322,197.1c.48-1,.95-2,1.38-3.06s.74-2,1.12-2.95q1.09-2.94,2.21-5.89c1.46-3.91,2.79-7.75,4.2-11.65s2.84-7.86,4.13-12c.37-1.43,1.07-3.88,1.81-7.21.35-1.68.72-3.57,1-5.67a63.62,63.62,0,0,0,.62-6.84c.22-4.83,0-10,.08-15.12a65.61,65.61,0,0,1,.64-7.76c.37-2.72.86-5.67,1-8.87a41.28,41.28,0,0,0-.07-5c-.05-.83-.21-1.65-.32-2.47l-.18-1.24-.29-1.2a35.32,35.32,0,0,0-3.46-9.11,39.62,39.62,0,0,0-12-13.57l-1.8-1.15-.88-.57-.92-.48-1.82-.94c-.61-.29-1.24-.53-1.84-.78a28.47,28.47,0,0,0-3.56-1.23l-.85-.25-.11,0-.2,0c-.08,0-.08-.08-.1-.14l0-.19,0,0h0l0,.09-.05-.14c-.09-.25-.17-.5-.25-.74-.17-.48-.32-1-.49-1.4L309.9,67c-.41-.74-.78-1.42-1.12-2.05s-.76-1.15-1.14-1.72a35.83,35.83,0,0,0-6.37-7.11,39.53,39.53,0,0,0-8.09-5.35,41.28,41.28,0,0,0-8.73-3.22,45.47,45.47,0,0,0-8.13-1.1,56,56,0,0,0-13.41,1.48c1-.08,2-.08,3-.11s1.84,0,2.67.06a44.78,44.78,0,0,0-10.51,1.73c-4.54,1.34-5.38,2-4.72,2.09s2.88-.17,4.7-.18c2.55-.24-.67,1,3.26.55-2.78.52-4.16.88-6.91,1.63-.11.21,2-.47,3.9-.92S262,52,261,52.46a55.23,55.23,0,0,0-8.29,2.2,48.16,48.16,0,0,0,5.08-1.12c2.2-.52,4.25-.82,4.08-.58-.73.2-2.69.43-4.5.79s-3.5.83-3.67,1.18c-.08.12,2.62-.65,4-1a40.7,40.7,0,0,0-8.38,3.1c-1.12.68-.3.58,3.49-.37A75,75,0,0,0,244,59.88h0c1.32-.55,3.65-1.38,4.89-1.83-1.52.56-3,1.17-4.54,1.8l.88-.12c1.14-.42,2.3-.81,3.48-1.26-1,.39-2,.76-3,1.18.81-.16,1.74-.33,2.74-.55,3.69-1.07,7.29-1.6,9.23-2.09,7.88-1.92,16-2.48,23.45-.65A32,32,0,0,1,299.42,68.35Z"/><path class="cls-2" d="M229.9,196.71c-.08-.06-.31.17-.14-.28.3-.69.68-1.27,1-1.87a8.4,8.4,0,0,0,.87-1.94l-.11-.15a28.86,28.86,0,0,1,1.35-2.87,6,6,0,0,1,1.15-1.84,1.73,1.73,0,0,1,1.2-.57c0-.06-.05-.12.06-.14a6.11,6.11,0,0,1,2.42.67l.52.17a.32.32,0,0,0,.24,0c.53.22,1.08.42,1.58.58a21.33,21.33,0,0,0,10.17,0,42.67,42.67,0,0,0,9.53-3.5l1.9-1.07c.73-.39,1-.59,1.48-.85l.66-.34.34-.16.18-.09c.05,0,0,.11,0,.16,0,.28,0,.57.06.85s.13.55.19.82l.41,1c.17.37.39.69.57,1,.15-.28,1,.62,1.91,1.2s1.83.92,1.61.43a8.63,8.63,0,0,0,1.75,1.07c.59.25,1.05.42,1.13.34a2.22,2.22,0,0,1,1.27-.4,25.05,25.05,0,0,0,3-.42,10.63,10.63,0,0,0,1.67-.45,3.89,3.89,0,0,0,1.07-.58c.13-.15.09-.17,0-.14l-.43.11c-.32.09-.61.18-.43,0a7.4,7.4,0,0,1-6.79-.47,8.27,8.27,0,0,1-2.73-2.37c-.15-.25-.3-.49-.46-.73l-.16-.38-.08-.19-.09-.2a2.44,2.44,0,0,1-.09-.33c-.13-.88-.21-1.83-.32-2.73l-.23-2.64-4.92,2.38-1.93.91-1.22.56a49.41,49.41,0,0,1-5,1.92,24.35,24.35,0,0,1-5.21,1.39,20.59,20.59,0,0,1-4.14.19,16.48,16.48,0,0,1-4.45-1,28.36,28.36,0,0,0-2.74-1,7.62,7.62,0,0,0-3.69-.18,6.63,6.63,0,0,0-3.33,1.89,10.54,10.54,0,0,0-1.76,2.57c-.41.82-.71,1.6-1,2.3-.12.35-.24.69-.36,1s-.21.57-.32.83a20.2,20.2,0,0,1-1.17,2.55l-.22.46a31.6,31.6,0,0,1-2.64,4.06,29.62,29.62,0,0,1-3,3.25,14.67,14.67,0,0,1-2.72,2.11l.77-.17.68-.22a23.43,23.43,0,0,1-2.6,1.17c-.59.26-1,.33-1.16.44s-.22.17-.13.23a4,4,0,0,0,1.41.26c.79,0-.17.5,1.09.32a11.9,11.9,0,0,1-2.22.5,2.59,2.59,0,0,0,1.27-.19c.61-.19,1.16-.34.9-.12-.43.09-.88.23-1.34.37s-.94.18-1.4.24a4.84,4.84,0,0,0,1.72-.14c.73-.18,1.41-.35,1.37-.24a12.27,12.27,0,0,1-1.5.34c-.62.08-1.2.12-1.27.27a5.36,5.36,0,0,0,1.38-.16c-.71.18-1.36.28-1.88.38a8.22,8.22,0,0,0-1.15.16c-.45.11-.21.25,1.22.39-.49,0-1.09,0-1.68-.06s-1.19-.2-1.7-.26h0c.5.08,1.38.28,1.86.31-.59,0-1.17-.15-1.75-.23l.28.15c.44.1.88.19,1.34.25l-1.18-.17c.28.13.61.26,1,.39.71.13,1.44.22,2.08.28a11.67,11.67,0,0,0,1.6-.08,17.08,17.08,0,0,0,8.16-4.39A27.49,27.49,0,0,0,229.9,196.71Z"/><path class="cls-2" d="M219.67,215.1c.1,0,.14-.19.26,0,.31.55.25,1.13.6,1.67l.16,0c.15.47.28,1,.47,1.46a25.23,25.23,0,0,0,1.54,2.41c0-.05.08-.09.15,0,.25.31.48.8.79,1.28l.16.18a.21.21,0,0,0,.16,0c.15.21.27.4.38.58a36.12,36.12,0,0,0,6.5,5.5,17.25,17.25,0,0,1,1.66.87c.72.5,1.59,1.21,2.29,1.72.21-.54,2.11.28,2.06-.43.45.31,1.18.69,1.29.57.35-.39,1-.64,2.36-.34.52.15,1.21.68,1.42.66s-.52-.6-.18-.62a48.88,48.88,0,0,1-5.2-2.79,31.94,31.94,0,0,1-4.68-3.68,13.69,13.69,0,0,1-1.71-1.53,31.74,31.74,0,0,1-2.51-3,28.58,28.58,0,0,1-3.39-6.05l-.09-.2c-.22-.62-.51-1.29-.76-1.94a15,15,0,0,0-.79-1.78c-.25-.46-.53-.92-.81-1.4a6.15,6.15,0,0,1-.12.71,4.32,4.32,0,0,0-.37-1.23c-.44-1.08-.61-.4-.92.13-.11.36-.46,0-.51.52-.09-.37-.1-.56-.16-.93-.18,0,.29,1.12,0,.92,0-.37-.18-.76-.24-1.13-.2.17.14,1.31-.06,1.3-.12-.19.09-1.11-.19-1.14-.06,0,0,.38,0,.57-.28-1.15-.65-1.77-.76-.64a12.16,12.16,0,0,0-.14-1.31h0c0,.2,0,.55.05.73l-.1-.68-.09.14a3,3,0,0,0,0,.52l-.07-.45a4.08,4.08,0,0,0-.19.42,8.45,8.45,0,0,0-.2,1.44A29.47,29.47,0,0,0,219.67,215.1Z"/><path class="cls-2" d="M266.5,209.47c.1,0,.2-.17.24.12.08.9-.34,1.6-.29,2.5l.16.07c-.12.69-.25,1.41-.42,2.13-.13,1.35-.22,2.7-.4,4,.07,0,.12,0,.13.1-.05.56-.22,1.32-.37,2.11l-.05.35a.2.2,0,0,0,.1.15c-.07.36-.15.67-.23,1a82.54,82.54,0,0,1-2.32,12.23c-.2.92-.41,1.85-.67,2.72-.44,1.27-1.26,2.77-1.81,4,.62.06-.56,3.06.24,2.76a9.29,9.29,0,0,0-.95,2.08c.31.4.53,1.3-.46,3.5-.43.84-1.36,1.95-1.45,2.29-.14.53.93-.85.79-.32a67.84,67.84,0,0,0,5.05-9.07,96.54,96.54,0,0,0,3.74-9.71c.16-.58.49-2,1-3.85s1-4.17,1.4-6.55a111.55,111.55,0,0,0,1.41-11.89v-.38c0-1.13.09-2.38,0-3.58s-.14-2.37-.28-3.32-.41-1.74-.63-2.61c-.07.42-.14.8-.21,1.13a9.66,9.66,0,0,0-.23-2.11c-.45-1.87-.62-.76-.93,0-.12.53-.44-.14-.56.68,0-.58-.07-.87-.12-1.46-.16,0,.27,1.78,0,1.4,0-.56-.17-1.17-.21-1.75-.2.22.13,2-.11,1.94-.05-.31.13-1.65-.15-1.73-.06,0,0,.56,0,.84-.28-1.76-.65-2.7-.76-1.06-.06-.55,0-1.36-.13-1.94h0c0,.3,0,.81.05,1.08l-.09-1-.1.19c0,.25,0,.51,0,.77l-.06-.67a6.1,6.1,0,0,0-.19.6,15.2,15.2,0,0,0-.22,2C266.61,202.59,266.67,206,266.5,209.47Z"/><path class="cls-2" d="M243.07,279.16c.09,0,.26-.74.21.47-.19,3.83-.89,6.85-1.34,10.67l.13.3c-.49,2.94-1.09,6-1.72,9.11q-1.57,8.71-3.12,17.33c.09-.14.16-.2.07.37-.39,2.41-1.05,5.74-1.59,9.22-.07.51-.15,1-.2,1.54a1.21,1.21,0,0,0,.05.58c-.23,1.57-.43,3-.61,4.28a229,229,0,0,0,.68,53.63c.26,2,.63,4,1,5.92.16,1,.33,1.95.49,2.91s.35,1.93.53,2.87c.92,5.64,2.34,12.78,3.64,18.2.18-.49,1.17,2.54,2.12,5.33s2,5.3,1.89,3.92c.47,1.78,1.19,4,1.78,5.76a21.43,21.43,0,0,0,1.2,3.26,11.93,11.93,0,0,1,1.86,2.89,54.84,54.84,0,0,0,5,8.2,20.58,20.58,0,0,0,4.08,4.1,11.74,11.74,0,0,0,3.56,1.75c.53.12.49.07.19-.07l-1.24-.58c-.93-.51-1.79-1.1-1-.75a18,18,0,0,1-6.44-6.57,47.46,47.46,0,0,1-4.14-9.11c-2.21-6.56-4.19-13.24-5.85-20s-3-13.57-4-20.48-1.71-13.92-2.09-21c-.17-2.42-.56-8.31-.43-16.06a221.89,221.89,0,0,1,2.06-27.09c1.32-9.73,3.44-19.65,5-28.28s2.54-16,2.91-20.27l.12-1.56a99.72,99.72,0,0,0,.12-15,77.76,77.76,0,0,0-2.21-13.79,66.68,66.68,0,0,0-3.85-10.49c.14.41.29.81.43,1.2s.23.79.35,1.17c.22.76.42,1.48.62,2.15a48.3,48.3,0,0,0-3.53-8.28,23.25,23.25,0,0,0-1.24-2.13c-.34-.53-.61-.93-.8-1.19-.38-.54-.48-.57-.42-.31.11.54,1,2.24,1.46,3.7.81,2-.72-.49.62,2.64l-1.34-2.75c-.42-.82-.9-1.61-1.5-2.69-.16-.07.85,1.53,1.63,3.05s1.43,2.91.94,2.2a48.05,48.05,0,0,0-3.6-6.48c.17.39,1.22,2.22,2.14,3.94a15.09,15.09,0,0,1,1.42,3.28c-.27-.6-1-2.15-1.65-3.6a13.62,13.62,0,0,0-1.73-2.85c-.06-.08,1.11,2.05,1.72,3.1-.95-1.61-1.78-3-2.58-4.11-.38-.54-.71-1-1-1.4s-.56-.66-.75-.86c-.38-.41-.5-.46-.28-.06s.8,1.23,1.64,2.7a44.25,44.25,0,0,0-4.91-6.44v0c.79.94,2.19,2.54,2.83,3.48-.8-1.14-1.78-2.16-2.68-3.23l.4.63c.65.82,1.36,1.59,2,2.48-.53-.76-1.16-1.44-1.76-2.14.37.59.88,1.2,1.32,2l1.35,2c.41.67.77,1.34,1.12,1.95.74,1.21,1.21,2.35,1.67,3.11a63.46,63.46,0,0,1,6.57,20.46A94.84,94.84,0,0,1,243.07,279.16Z"/><path class="cls-2" d="M254.14,292.45c.1,0,.29-.64.2.43-.36,3.38-1.11,6-1.53,9.39l.12.27c-.49,2.58-1,5.28-1.53,8-.82,5.1-1.62,10.18-2.43,15.23.08-.12.15-.17.08.34-.3,2.11-.83,5-1.32,8l-.18,1.34a1.08,1.08,0,0,0,0,.51c-.22,1.37-.42,2.58-.6,3.71-1.85,14.95-2.94,30.37-1.69,47,.42,3.5.78,7,1.32,10.33.19,1.24.3,2.58.55,3.94s.46,2.76.7,4.16.54,2.78.82,4.12.58,2.62.85,3.81c.17-.43,1.15,2.2,2.07,4.61a23.57,23.57,0,0,0,1.34,3c.37.69.59.92.53.32.27.76.57,1.61.88,2.47.15.43.3.86.45,1.27s.35.81.52,1.18a20.76,20.76,0,0,0,1.33,2.73c.78.46,2.07,2.63,6.66,9.64.45.69.94,1.48,1.44,2.29s1.1,1.57,1.62,2.32c1.05,1.48,1.95,2.74,2.33,3.18,1.22,1.36-2.25-3.63-1-2.26-7.29-9.7-12-20.88-15-32.5l-1-4.39c-.37-1.46-.55-3-.83-4.45-.59-3-.88-6-1.28-9a172.55,172.55,0,0,1-.82-18.41c-.05-1.05,0-2.87,0-5.28s.2-5.38.4-8.77c.46-6.78,1.43-15.15,2.73-23.72s2.79-17.32,4-24.87,2.23-13.9,2.79-17.59l.17-1.35a212.94,212.94,0,0,0,2.19-24.89c0-3.19-.05-6.42-.27-9.63-.1,1.49-.16,2.88-.3,4.07.05-3.26,0-6.53-.09-7.78-.54-6.94-.67-3-.95-.32-.11,1.92-.41-.66-.57,2.33,0-2.15-.09-3.22-.15-5.38a24,24,0,0,0,.08,3c.08,1.51,0,2.86-.09,2.11.07-2.08-.2-4.39-.26-6.54a36.9,36.9,0,0,0,0,4,11.87,11.87,0,0,1-.09,3.15c0-1.15.1-6-.18-6.44-.05-.08,0,2.06.07,3.14-.09-1.65-.18-3.12-.27-4.29a23.34,23.34,0,0,0-.34-2.54c-.21-1-.25-.36-.21,2.65-.1-2.08-.28-5-.49-7.23v0c.08,1.1.21,3,.28,4-.11-1.25-.21-2.5-.31-3.74,0,.2,0,.43-.06.66.05.94.1,1.87.18,2.84-.07-.82-.13-1.65-.2-2.48,0,.63-.06,1.35-.07,2.14.13,3-.07,5.79,0,7.38C257.15,266.62,255.91,279.59,254.14,292.45Z"/><path class="cls-2" d="M268.83,307.47c0-.09-.26-.11,0-.27a4.32,4.32,0,0,1,2.82.16l.13-.13a4.36,4.36,0,0,1,1,.69l1.44,1.27a32.82,32.82,0,0,0,6.67,3.94c0-.08,0-.14.21-.06a24.84,24.84,0,0,0,4,1.38l.71.12a.39.39,0,0,0,.29-.09,15.64,15.64,0,0,0,2,.23,13.94,13.94,0,0,0,6-1.42c.95-.44,1.69-1,2.35-1.28a3.13,3.13,0,0,1,1.6-.46,3.56,3.56,0,0,1,1.69.82c.63.49,1.41,1.13,2.18,1.71a36.12,36.12,0,0,0,5,3.14,49,49,0,0,0,4.62,1.86,40.26,40.26,0,0,0,7.42,2.16c-.13-.3,1.21-.32,2.43-.42s2.32-.3,1.78-.61A12.9,12.9,0,0,0,327,320a2.41,2.41,0,0,1,1.25-.89,8.44,8.44,0,0,1,1.75-.5,9.7,9.7,0,0,1,3-.08,6,6,0,0,1,3.44,1.79,4.92,4.92,0,0,1,1,1.7c.19.51.23.9.31,1.11s.11.19.13.05a5.34,5.34,0,0,0-.1-1c-.19-.87-.7-1.73-.19-1.06a5.82,5.82,0,0,0-2.86-2.54,9.24,9.24,0,0,0-2.93-.69,14.9,14.9,0,0,0-2.59,0c-.41,0-.85.08-1.22.13l-1,.1a28.91,28.91,0,0,1-7.88-.28,31.13,31.13,0,0,1-14.48-6.58l-.74-.57c-.31-.24-.65-.53-1.13-.93a12.65,12.65,0,0,0-1.93-1.4,7,7,0,0,0-1.57-.65,5.7,5.7,0,0,0-2-.15,9,9,0,0,0-3.24,1.06l-1.19.62c-.35.19-.7.29-1.06.46a9.61,9.61,0,0,1-4.75.5c-3.42-.42-6.86-2.47-9.56-4.46-.35-.25-.68-.5-1-.76s-.57-.47-1.06-.82a9,9,0,0,0-7.28-1.49,6.91,6.91,0,0,0-.81.24,8.86,8.86,0,0,0-3.37,2,9.73,9.73,0,0,0-.69.75c-.22.25-.33.4-.5.61l-.93,1.16c-1.24,1.53-2.48,3-3.49,4.16s-1.83,2.26-2.8,3.36l1.55-1.06c-1.08,1-2.2,2-2.57,2.46-2.25,2.24-.7,1.31.49.8.79-.46.06.54,1.22-.26-.76.67-1.14,1-1.93,1.64,0,.22,2.31-2.1,1.95-1.44-.76.6-1.53,1.39-2.32,2,.42,0,2.73-2.23,2.75-2-.37.42-2.35,1.66-2.33,2a7.9,7.9,0,0,0,1.18-.91c-2.33,2.1-3.58,3.35-1.13,1.79-.78.63-2,1.41-2.8,2.08h0c.43-.32,1.19-.82,1.58-1.13L251.82,322l.32-.1a13.43,13.43,0,0,0,1.13-.78l-1,.72a9.5,9.5,0,0,0,1-.42,29,29,0,0,0,3.06-1.94,74,74,0,0,0,6.91-6.46q1.62-1.73,3.14-3.54l.38-.46c.13-.15.26-.31.33-.38a5.9,5.9,0,0,1,.5-.5A4.8,4.8,0,0,1,268.83,307.47Z"/><path class="cls-2" d="M311.49,303.42c-.06-.08-.28,0-.07-.27.72-.72,1.56-.95,2.29-1.64l0-.17c.66-.42,1.37-.83,2.08-1.25s1.22-.9,1.84-1.33,1.24-.9,1.73-1.19c-.06,0-.1-.08,0-.15a2.55,2.55,0,0,1,1.37-.41l.19,0a.23.23,0,0,0,.08-.13,1.9,1.9,0,0,1,.57.18,9.29,9.29,0,0,1,2.55,1.27l1.66.92,1.73.77a28.8,28.8,0,0,0,7.42,1.83c.55.05,1.11,0,1.65.05s1.08,0,1.61,0a47.11,47.11,0,0,0,5,.12c-.24-.5,3.3-1.22,2.49-1.72.47-.08,1.07-.17,1.55-.28s.83-.25.85-.34c.09-.53.7-1.18,2.83-2.3a21.8,21.8,0,0,0,2.45-1.09c.39-.37-1.23.23-.84-.14a23.9,23.9,0,0,1-4.77,1.68,29.16,29.16,0,0,1-15.28-.37c-.29-.07-.78-.21-1.42-.4-.32-.11-.66-.26-1-.41a8.82,8.82,0,0,1-1.2-.53,20.86,20.86,0,0,1-2.68-1.58,17,17,0,0,0-1.84-1.17,7.71,7.71,0,0,0-2.62-.88,6.74,6.74,0,0,0-3,.28,9.9,9.9,0,0,0-2.26,1.08c-1.22.77-2.21,1.47-3.2,2.16-1.95,1.38-3.52,2.62-4.44,3.34l-.32.27a38.63,38.63,0,0,0-5.55,5.4c-.6.8-1.16,1.64-1.71,2.48.38-.28.74-.53,1.06-.73a11.89,11.89,0,0,0-1.55,1.82c-1.2,1.78-.19,1,.63.69.52-.32.2.44.92-.12l-1.08,1.21c.07.16,1.26-1.57,1.16-1.05a15.72,15.72,0,0,0-1.27,1.52c.3,0,1.53-1.65,1.63-1.43-.19.29-1.43,1.17-1.29,1.45,0,.05.44-.43.66-.67-1.23,1.57-1.71,2.58-.33,1.37-.41.47-1,1.1-1.44,1.64h0l.81-.9-.72.87.21-.08c.21-.2.4-.41.59-.63l-.48.58a6.35,6.35,0,0,0,.6-.34c.69-.58,1.43-1.06,1.74-1.41A85.59,85.59,0,0,1,311.49,303.42Z"/><path class="cls-2" d="M240.77,270.59c-.08.06.09.38-.33,0a10.89,10.89,0,0,0-1.94-1.45,4.88,4.88,0,0,0-2.3-.64l-.13.15a11.56,11.56,0,0,0-3.41.17c-1.89.52-3.43,1.23-4.87,1.75.06,0,.09.09,0,.15a8,8,0,0,1-2.18.45l-.37.07a.24.24,0,0,0-.13.14c-.39,0-.74,0-1.07,0a41.29,41.29,0,0,1-7.08-.28l-7.79-.72c-1.14,0-2.29-.07-3.38-.18-1.62-.2-3.65-.64-5.21-.92.15.61-3.7.26-3,1a10.43,10.43,0,0,0-2.71-.31c-.32.44-1.21.87-4,.7-1.09-.11-2.72-.59-3.12-.55-.62.05,1.35.57.72.63,8,1.49,15.81,2.56,23.91,3.9.7.05,2.39.27,4.6.59a39.13,39.13,0,0,0,8.34.6,18.76,18.76,0,0,0,2.43-.36,22,22,0,0,0,2.27-.67c1.38-.49,2.6-1,3.65-1.26a6.38,6.38,0,0,1,2.44-.32,1.83,1.83,0,0,1,1,.47.93.93,0,0,1,.15.13,2.69,2.69,0,0,1,.53.92,9.92,9.92,0,0,1,.37,1.61,26.9,26.9,0,0,0,.72,4,8.08,8.08,0,0,0,.42,1,5.57,5.57,0,0,0,.65,1,6.77,6.77,0,0,0,1.6,1.36,6.23,6.23,0,0,1-1-1.4,5.27,5.27,0,0,0,2.48,1.88c1.35.43,1.75.19,1.56.05a10.4,10.4,0,0,1-1.07-.85c-.5-.42.35-.28-.38-.88a4.22,4.22,0,0,0,1.51.61c.05-.07-.44-.12-.86-.31s-.76-.41-.5-.41A3.13,3.13,0,0,0,245,283c-.09-.08-.58-.18-1-.38s-.82-.47-.72-.53.47.34.83.52.7.24.76.11-.49-.13-.76-.26a2,2,0,0,0,1,.11.66.66,0,0,0,.41-.25c.06-.09.05-.15,0-.18a.5.5,0,0,0-.19,0,.81.81,0,0,0-.22-.09c.09,0,.12,0,.19,0a.61.61,0,0,0,.25-.08.67.67,0,0,0,.3-.44h0a.81.81,0,0,1-.36.43.77.77,0,0,0,.31-.42l-.11,0a.82.82,0,0,1-.25.24.63.63,0,0,0,.2-.23.94.94,0,0,1-.29,0,.31.31,0,0,1-.2-.05s0-.06,0-.07l-.06-.08a1.24,1.24,0,0,0-.34-.22,2.88,2.88,0,0,1-1.28-1.05,1.82,1.82,0,0,1-.14-.28c0-.11,0-.05-.07-.32s-.13-.84-.18-1.32c-.09-1-.13-2.09-.34-3.37a10.29,10.29,0,0,0-.58-2.05A7.34,7.34,0,0,0,240.77,270.59Z"/><path class="cls-2" d="M220.31,279.58c.09.06.22,0,.18.19-.19.47-.73.56-1,1l.11.13a10.14,10.14,0,0,1-.93.75c-.48.57-.92,1.16-1.43,1.69.05,0,.1.06.06.13a7.16,7.16,0,0,1-.87.79l-.13.14a.2.2,0,0,0,0,.14,3.73,3.73,0,0,1-.44.32,27.76,27.76,0,0,1-5.25,4.62,11.66,11.66,0,0,1-1.3.95,15.64,15.64,0,0,1-2.35.75c.28.52-1.45,1.25-1,1.73-.51.13-1.29.23-1.3.4,0,.48-.32,1.17-1.75,1.61-.57.12-1.46,0-1.66.11s.76.28.46.46a23.5,23.5,0,0,0,6.32-1.06A34.83,34.83,0,0,0,214,291.9c.31-.21,1-.75,2-1.39s2.1-1.56,3.2-2.55a39.84,39.84,0,0,0,4.93-5.37l.12-.19a17.85,17.85,0,0,0,1.17-1.86,12.29,12.29,0,0,0,.79-1.88c.1-.54.18-1.11.25-1.65-.19.19-.37.35-.54.49a3.39,3.39,0,0,0,.45-1.19c.15-1.16-.34-.65-.84-.4-.27.22-.36-.25-.71.11a7.52,7.52,0,0,0,.32-.78c-.13-.09-.28,1-.45.68a4.33,4.33,0,0,0,.32-1c-.24,0-.46,1.05-.66.92,0-.17.6-.76.37-.92-.05,0-.16.28-.22.43.26-1,.2-1.57-.39-.82a9.93,9.93,0,0,0,.45-1h0c-.07.15-.22.4-.27.54l.2-.52-.14.06a2.71,2.71,0,0,0-.21.37l.14-.34a3.24,3.24,0,0,0-.35.21c-.31.36-.69.65-.77.87A32.73,32.73,0,0,1,220.31,279.58Z"/><path class="cls-2" d="M221.77,330.16c0,.1.32.1-.05.29-1.14.64-2.27.9-3.24,1.88l0,.19a13.25,13.25,0,0,0-2.26,2.16c-1.06,1.5-1.77,2.85-2.62,3.8.07,0,.12,0,.05.15a7.29,7.29,0,0,1-1.6,1.35l-.27.22a.28.28,0,0,0,0,.18l-.87.45a16.66,16.66,0,0,1-6.11,2,55.88,55.88,0,0,1-7.4.46c-1.11.08-2.23.16-3.3.16-1.59,0-3.62-.22-5.19-.22.12.3-.77.5-1.57.77s-1.53.55-1.13.8a6.63,6.63,0,0,0-2.54.47,1.77,1.77,0,0,1-.72.92,20.74,20.74,0,0,1-2.21,1.34l-1.41.64a5.17,5.17,0,0,0-.94.57c-.34.41,1.18-.33.84.07,2.8-1.64,6.32-2.09,10-2.15s7.58.34,11.72.45c.72-.06,2.44,0,4.79-.29a19.6,19.6,0,0,0,8.21-2.57,15.37,15.37,0,0,0,3.66-3.19c1-1.23,1.69-2.41,2.34-3.3a8.88,8.88,0,0,1,1.79-2,6.69,6.69,0,0,1,1.54-.94,1.14,1.14,0,0,1,.29-.15,18.09,18.09,0,0,1,6.64-1c.92-.06,1.9-.07,2.88-.06-.42-.17-.82-.33-1.16-.49a17.85,17.85,0,0,0,2.34.36c2.14.24,1-.31.3-.88-.55-.29.31-.38-.59-.75.67.14,1,.23,1.68.39.11-.15-2.09-.38-1.57-.53.64.19,1.38.26,2,.43-.17-.28-2.31-.62-2.17-.79.39,0,1.84.7,2,.47a4.49,4.49,0,0,0-1-.29c2.1.4,3.31.48,1.49-.31.66.18,1.56.54,2.26.7h0c-.34-.11-.92-.33-1.24-.42l1.18.34-.18-.17c-.28-.11-.57-.22-.88-.31l.79.23c-.18-.14-.38-.28-.61-.43a16.62,16.62,0,0,0-2.27-1,32,32,0,0,0-6.61-1.08A16.53,16.53,0,0,0,221.77,330.16Z"/><path class="cls-2" d="M199.78,334.39c0,.09.1.26-.21.17a16,16,0,0,0-2.55-1l-.11.15a21.11,21.11,0,0,0-2.18-.6,25.75,25.75,0,0,0-4,0c0,.05,0,.11-.08.13-.54.06-1.28,0-2.06.07l-.33,0a.2.2,0,0,0-.12.13l-.94,0a43,43,0,0,0-5.57,1.43c-1.84.61-3.57,1.33-5.39,1.78a8,8,0,0,1-2.28.49,6.79,6.79,0,0,1-3.36-1c-.06.3-.72.19-1.35,0s-1.22-.36-1.17,0c-.63-.49-1.52-1.26-1.67-1.17-.44.28-1.3.23-3-.66a10.86,10.86,0,0,0-1.64-1.05c-.39,0,.58.69.18.66a24.94,24.94,0,0,1,3.14,2.42,21.56,21.56,0,0,0,4.09,2.88,11.26,11.26,0,0,0,2.72,1,11.87,11.87,0,0,0,2.81.24,24.24,24.24,0,0,0,5-.79,37.25,37.25,0,0,1,8.62-1.86,32.77,32.77,0,0,1,5.66-.07,11,11,0,0,1,3.49.84l.23.09a17.07,17.07,0,0,1,4,2.9c.54.43,1.11.89,1.65,1.4l-.31-.91a10.08,10.08,0,0,0,1.1,1.41c1.09,1.21.83.3.81-.45-.11-.48.46-.11.19-.81l.71,1.1c.18,0-1-1.29-.54-1.14.24.45.63.87.9,1.32.1-.28-.93-1.57-.71-1.62.21.21.58,1.39.86,1.33.06,0-.22-.46-.37-.68,1,1.31,1.64,1.94,1.11.53.27.44.55,1.11.86,1.55h0c-.13-.24-.32-.66-.45-.88l.47.8a1.34,1.34,0,0,0,0-.2,6.11,6.11,0,0,0-.31-.63l.31.53a3.09,3.09,0,0,0-.06-.58,11,11,0,0,0-.62-1.8,25.7,25.7,0,0,0-3-4.17A14.12,14.12,0,0,0,199.78,334.39Z"/><path class="cls-2" d="M258.55,366.46c0-.1-.21-.16,0-.27.81-.29,1.55-.12,2.33-.39l0-.17c.63-.07,1.29-.12,1.94-.16a29.26,29.26,0,0,1,3.41-.5c0-.06,0-.12.07-.14a8,8,0,0,1,1.69.11h.28a.15.15,0,0,0,.11-.11,5.66,5.66,0,0,1,.74.19,8.25,8.25,0,0,1,2.17.59,16,16,0,0,1,2.29,1.25,19.47,19.47,0,0,0,5.72,2.83,18.16,18.16,0,0,0,2.81.15,31.88,31.88,0,0,0,4.16-.06c-.23-.54,2.65-1.21,2-1.71a6.2,6.2,0,0,0,2-.41c.12-.51.66-1.15,2.74-1.73.82-.18,2.12-.15,2.4-.29.44-.22-1.12-.19-.68-.41-1.55.16-3.08.35-4.6.55l-4.47.61a17,17,0,0,1-3.95.08,7.18,7.18,0,0,1-3.27-1.25,22.68,22.68,0,0,1-2.81-1.88,20.87,20.87,0,0,0-2.73-1.69,12.93,12.93,0,0,0-3.66-1.16,21.34,21.34,0,0,0-7,.23c-2,.35-3.56.74-4.46.91l-.32.08a48.9,48.9,0,0,0-6,1.64c-.73.31-1.47.65-2.2,1,.38,0,.73,0,1,0a8.75,8.75,0,0,0-1.85.51c-1.61.63-.6.69.13.92.5.06-.06.47.7.47l-1.31.28c0,.18,1.59-.46,1.29-.11-.52.06-1.06.29-1.58.4.23.17,1.83-.34,1.8-.11-.27.11-1.54.05-1.58.34,0,.06.52-.05.78-.11-1.59.46-2.42.92-.88.86-.51.11-1.26.17-1.79.33h0c.27-.06.74-.11,1-.17l-.92.2.19.08a6.06,6.06,0,0,0,.71-.1l-.61.13c.17.05.36.09.57.13a14.88,14.88,0,0,0,1.91,0C252.19,367.84,255.39,367.18,258.55,366.46Z"/><path class="cls-2" d="M223.06,374.6c0,.1.19.28-.23.19a32.09,32.09,0,0,0-3.61-1.12l-.13.13c-1-.26-2.08-.54-3.2-.72a24.72,24.72,0,0,0-6.25.23c.06.05.09.1-.11.16-.85.17-2.05.35-3.26.7l-.52.2a.27.27,0,0,0-.14.19c-.54.17-1,.35-1.43.5-5.44,2.67-9.24,6.7-14.9,8.28a18.3,18.3,0,0,1-1.77.58,12.61,12.61,0,0,1-1.8.4,31.59,31.59,0,0,1-5.83.12c.12.3-.9.45-1.86.61s-1.85.27-1.44.6a15.86,15.86,0,0,0-3.1-.23c-.34.44-1.35.9-4.56.64-1.25-.15-3.09-.7-3.54-.68-.71,0,1.52.63.81.66a80.83,80.83,0,0,0,13.91,1.84,34.55,34.55,0,0,0,14.48-2.42c.79-.38,2.67-1.34,4.86-2.68a45.8,45.8,0,0,1,7.43-4,19.12,19.12,0,0,1,8.19-1A26.16,26.16,0,0,1,221,379l.45.14a78.88,78.88,0,0,1,8,3.41c1,.44,2.11.9,3.17,1.39l-1.1-1a22.86,22.86,0,0,0,2.42,1.43c2.24,1.18,1.21.16.61-.71-.5-.52.44-.23-.39-1l1.66,1.1c.17-.09-2.1-1.27-1.49-1.19.61.47,1.38.86,2,1.3-.1-.34-2.26-1.58-2-1.69.39.18,1.71,1.47,2,1.33a5.28,5.28,0,0,0-.94-.7c2.1,1.28,3.36,1.83,1.67.33.64.44,1.49,1.15,2.19,1.58h0l-1.21-.89,1.16.79-.14-.23c-.27-.22-.55-.44-.85-.64l.77.52a8.2,8.2,0,0,0-.52-.65,24.26,24.26,0,0,0-2.06-1.9A53.56,53.56,0,0,0,223.06,374.6Z"/><path class="cls-2" d="M258.25,93c-.07-.07-.22-.06-.13-.22.34-.49.92-.58,1.27-1l-.08-.15c.38-.26.79-.51,1.19-.77.64-.59,1.28-1.16,1.93-1.7-.05,0-.09-.07,0-.14a6.52,6.52,0,0,1,1.13-.73l.17-.14a.19.19,0,0,0,0-.15,4.68,4.68,0,0,1,.54-.28,12.11,12.11,0,0,1,6.87-2.77,5,5,0,0,1,1.72,0,6.87,6.87,0,0,1,2.36,1.29c.12-.27.63-.17,1.12,0s.95.33,1,0c.43.46,1,1.26,1.13,1.21a1.19,1.19,0,0,1,.95.17,2.12,2.12,0,0,1,.64.56,3.93,3.93,0,0,1,.67,1.12,4.91,4.91,0,0,1,.2,1.36,4.68,4.68,0,0,0,0,1c.07.17.17,0,.25-.31s.15-.56.24-.32a8.66,8.66,0,0,0-1.34-4.49,10.45,10.45,0,0,0-3-3.13,12.16,12.16,0,0,0-8.11-2.09,23.86,23.86,0,0,0-3,.75,20.68,20.68,0,0,0-4.46,2.13A42.5,42.5,0,0,0,255,89.39l-.17.19a17.34,17.34,0,0,0-2.94,3.71c-.26.55-.5,1.13-.72,1.71.24-.17.47-.32.68-.44a4.65,4.65,0,0,0-.78,1.22c-.53,1.2.13.75.72.58.34-.19.29.35.75,0l-.58.78c.11.13.62-1,.68-.65a6.61,6.61,0,0,0-.64,1c.25,0,.82-1,1-.88-.08.2-.86.72-.68.94,0,0,.26-.27.38-.43-.61,1-.73,1.71.1,1a8.84,8.84,0,0,0-.76,1h0c.11-.16.34-.41.44-.56l-.37.55.16,0a2,2,0,0,0,.32-.39l-.24.37.42-.18a10.58,10.58,0,0,0,1.08-.83A56,56,0,0,1,258.25,93Z"/><path class="cls-2" d="M237.79,121c.1,0,.21-.17.24.13a20.06,20.06,0,0,1-.39,2.44l.15.09a10,10,0,0,1-.71,1.82,8,8,0,0,1-1.65,2.86c.06,0,.11,0,0,.14a2.55,2.55,0,0,1-.61.55,6.37,6.37,0,0,1-.84.54l-.25.18a.24.24,0,0,0,0,.17,7.63,7.63,0,0,1-.81.35,13.06,13.06,0,0,1-11.52.15,11.48,11.48,0,0,1-2.54-1.3,17.71,17.71,0,0,1-3.14-3.22c-.15.26-.81-.21-1.43-.67s-1.18-.92-1.22-.47c-.53-.79-1.25-2-1.43-2-.52,0-1.43-.28-2.85-2.47-.51-.87-.94-2.37-1.17-2.65-.37-.45.2,1.33-.16.88a36.36,36.36,0,0,0,5.8,9.78,24.58,24.58,0,0,0,4.34,4,20.89,20.89,0,0,0,2.6,1.61c.45.25,1,.45,1.44.67s1,.37,1.51.54a22,22,0,0,0,4.71.58,17.7,17.7,0,0,0,3.76-.37,16.48,16.48,0,0,0,4-1.46,13.36,13.36,0,0,0,3.56-2.8l.71-.88c.23-.29.4-.62.6-.93a10.71,10.71,0,0,0,.91-1.87,20.57,20.57,0,0,0,1.15-5.66l0-.42a54.71,54.71,0,0,0-.12-7.23c-.13-.91-.29-1.83-.44-2.75-.1.42-.2.82-.29,1.16a11.8,11.8,0,0,0-.06-2.23c-.23-2-.53-.86-.93-.1-.17.54-.43-.2-.61.66,0-.62,0-.93,0-1.56-.16-.07.07,1.92-.2,1.48.07-.59,0-1.26,0-1.89-.22.22-.1,2.16-.32,2.06,0-.34.32-1.74,0-1.87a4,4,0,0,0-.07.91c-.07-1.91-.32-3-.63-1.23,0-.6.14-1.46.11-2.1h0c0,.32-.06.88-.08,1.17l0-1.09-.12.19c0,.27-.06.54-.07.83l0-.73a5.27,5.27,0,0,0-.26.62,16.74,16.74,0,0,0-.46,2.15c-.07,1.88-.15,3.77-.22,5.65S237.87,119.26,237.79,121Z"/><path class="cls-2" d="M183,124.73c.1,0,.25-.2.21.2-.16,1.24-.66,2.19-.72,3.46l.15.11c-.18,1-.35,2-.46,3a30.88,30.88,0,0,0,.41,5.77c0-.06.11-.09.15.1.16.78.28,1.88.55,3l.15.49a.22.22,0,0,0,.17.14c.14.5.25.95.37,1.37a25.76,25.76,0,0,0,11,13.05,30.35,30.35,0,0,0,3.49,1.45,26.72,26.72,0,0,0,5.58,1.63c-.09-.31.92-.36,1.83-.5s1.74-.31,1.35-.62a9.17,9.17,0,0,0,2.86-.08c.25-.5,1.08-1,4-1.54,1.13-.15,2.93-.11,3.33-.24.63-.22-1.53-.21-.9-.42a55.16,55.16,0,0,1-12.2,0,18.1,18.1,0,0,1-10.08-4.92,16.39,16.39,0,0,1-3-3.28,22.32,22.32,0,0,1-3.28-6.82,27,27,0,0,1-1-8,30.11,30.11,0,0,1,.67-5.74l.09-.43A63.63,63.63,0,0,1,190,118.1c.32-1,.67-2,1.09-2.93l-.92,1c.53-.94,1.13-1.81,1.29-2.2,1.17-2,.18-1.14-.69-.64-.52.45-.22-.45-1,.32.43-.62.66-.93,1.14-1.53-.11-.18-1.32,1.94-1.23,1.37.47-.58.87-1.3,1.38-1.89-.38,0-1.68,2.08-1.77,1.88.18-.4,1.5-1.6,1.4-1.87a4.75,4.75,0,0,0-.75.86c.67-1,1.25-1.74,1.41-2.09s-.09-.29-.95.47c.52-.6,1.37-1.32,2-1.91h0c-.31.28-.87.74-1.13,1q.5-.51,1-1l-.26.09a6.84,6.84,0,0,0-.81.72c.22-.23.44-.45.68-.67a4.67,4.67,0,0,0-.76.4,12.73,12.73,0,0,0-2.19,1.89,28.75,28.75,0,0,0-3.75,6.4A38,38,0,0,0,183,124.73Z"/><path class="cls-2" d="M254.5,144.08c0-.1-.06-.23.14-.22.62.09,1,.54,1.65.58l.08-.15c.45.16.92.36,1.41.51a23.26,23.26,0,0,0,2.74.2c0-.06,0-.11.07-.13.38,0,.89.07,1.42.1l.23,0a.19.19,0,0,0,.09-.12l.65,0a43.11,43.11,0,0,0,7.86-1.66c.56-.24,1.11-.5,1.64-.68.81-.22,1.86-.37,2.66-.56-.26-.52,1.53-1.33,1-1.78.51-.15,1.27-.37,1.25-.54-.05-.52.16-1.15,1.3-1.91.47-.25,1.29-.39,1.43-.55s-.77,0-.56-.31a48.41,48.41,0,0,1-11.07,3,24.71,24.71,0,0,1-5.92.54,21.5,21.5,0,0,1-6.41-.89l-.19,0c-1.14-.35-2.41-.87-3.34-1.18-.45-.1-.91-.23-1.37-.37.11.2.22.39.31.57a4.31,4.31,0,0,0-1-.64c-.92-.5-.72.09-.65.67.13.33-.37.26-.1.71-.27-.24-.42-.35-.67-.61-.16.11.9.67.53.71-.23-.26-.6-.45-.85-.73-.08.27.9.93.72,1-.2-.08-.6-.9-.83-.77-.05,0,.21.31.36.43-.91-.73-1.55-1.09-1-.06-.29-.27-.54-.79-.85-1.07h0c.13.16.32.46.45.61l-.46-.54v.16a2.71,2.71,0,0,0,.3.45l-.3-.36a2.67,2.67,0,0,0,.07.47,5.57,5.57,0,0,0,.72,1.35A15.79,15.79,0,0,0,254.5,144.08Z"/><path class="cls-2" d="M292.61,129c.05-.08-.06-.26.2-.17.81.33,1.21,1,1.95,1.39l.14-.1a16.12,16.12,0,0,1,1.41,1.45,15.07,15.07,0,0,1,2.42,2.71c0-.06.07-.1.15,0a7,7,0,0,1,.82,1.71l.15.28a.22.22,0,0,0,.16.07c.08.31.16.59.23.85a16.37,16.37,0,0,1,.95,5.58,28.2,28.2,0,0,1-.84,6.33,19.5,19.5,0,0,1-.63,2.79,31.76,31.76,0,0,1-1.89,4c.3,0,.15.82,0,1.55s-.35,1.41.08,1.28a13.29,13.29,0,0,0-1.28,2.06,1.4,1.4,0,0,1,0,1.16,6,6,0,0,1-1.63,2.37,7.18,7.18,0,0,1-1.58,1c-.56.29-1.07.47-1.22.6-.51.42,1.48-.32,1,.09a14.5,14.5,0,0,0,4.84-4,25.85,25.85,0,0,0,3-4.85,50.53,50.53,0,0,0,3.76-10.35c.08-.65.38-2.21.49-4.34a19.49,19.49,0,0,0-1-7.54,17.22,17.22,0,0,0-4.44-6.72,24.73,24.73,0,0,0-4.42-3.29l-.36-.2a22.68,22.68,0,0,0-7-2.5c-.92-.12-1.85-.19-2.78-.25.39.19.75.38,1.06.55a10.3,10.3,0,0,0-2.16-.43c-2-.17-.94.35-.29.89.48.28-.28.38.49.74l-1.46-.35c-.1.14,1.83.32,1.36.49a16.67,16.67,0,0,0-1.79-.36c.16.26,2,.52,1.88.72-.33,0-1.59-.66-1.76-.41a3.29,3.29,0,0,0,.85.25c-1.83-.31-2.88-.25-1.29.38-.57-.13-1.36-.41-2-.5h0l1.09.29-1-.22.16.14a6.25,6.25,0,0,0,.77.23l-.69-.15c.16.12.34.24.54.37a20.91,20.91,0,0,0,1.93.85A41.87,41.87,0,0,1,292.61,129Z"/></g></svg>