<?xml version="1.0" encoding="utf-8"?>
<!-- Generator: Adobe Illustrator 25.4.1, SVG Export Plug-In . SVG Version: 6.00 Build 0)  -->
<svg version="1.1" id="Lager_1" xmlns="http://www.w3.org/2000/svg" xmlns:xlink="http://www.w3.org/1999/xlink" x="0px" y="0px"
	 viewBox="0 0 500 500" style="enable-background:new 0 0 500 500;" xml:space="preserve">
<style type="text/css">
	.st0{fill:#1D1D1D;}
	.st1{fill:#F9CFB5;}
	.st2{fill:#CC0066;}
	.st3{fill:#FFFFFF;}
	.st4{fill:#EB6F00;}
	.st5{fill:#1595BF;}
	.st6{fill:#F9CDDE;}
</style>
<g id="OUTLINE_ikons">
	<path class="st0" d="M170.9,462.9c0-0.2-1-0.4,0.6-0.5c4.9-0.2,8.9,0.5,13.8,0.3l0.4-0.3c3.8,0.1,7.8,0.3,11.8,0.5
		c7.5,0,14.9-0.1,22.3-0.2c-0.2-0.1-0.3-0.2,0.4-0.3c3.1-0.1,7.3,0,11.8,0.1l1.9,0c0.3,0,0.5-0.1,0.7-0.3c2,0,3.8,0,5.4,0.1
		c21.6-0.6,43.6-1.4,67.5-2.1c5-0.3,10.1-0.6,14.9-0.7c7.2-0.1,16.4,0.1,23.4,0.1c-1.1-1.1,16-1.7,12.6-2.9c4.7,0,11.7,0.1,12.1-0.3
		c1.1-1,4.7-2.1,17.1-2.7c4.9-0.1,12.3,0.3,14,0.1c2.7-0.3-6.3-0.7-3.6-1c-36.1-0.4-70.9,0.1-107.3,0.1
		c-12.4,0.5-95.9,0.7-117.3,0.5h-1.9c-11.7-0.1-25.9,0-35.8,0.5c-4.5,0.3-9.2,0.6-13.8,0.9c2.1,0.2,4.1,0.4,5.8,0.6
		c-4.7,0-9.4,0-11.2,0.1c-10,0.5-4.3,1.1-0.5,1.9c2.8,0.3-1,0.9,3.3,1.2h-7.8c-0.3,0.3,9.6-0.2,7.4,0.4c-3-0.1-6.4,0.1-9.5,0
		c1.1,0.5,10.8,0.2,10.3,0.6c-1.7,0.1-8.8-0.6-9.4,0c1.5,0.1,3,0.2,4.6,0.1c-9.6,0.2-14.9,0.7-6.1,1.3c-3,0-7.3-0.2-10.6-0.2l0,0
		c1.6,0,4.4,0.1,5.9,0.1h-5.5c0.3,0.1,0.6,0.2,1,0.2c1.4,0.1,2.7,0.1,4.2,0.1h-3.6c0.9,0.2,2,0.4,3.1,0.5c4.3,0.4,8.5,0.9,10.8,0.9
		C133,462.7,152,462.9,170.9,462.9z"/>
	<path class="st1" d="M296.4,105.6c7.6,0.8,0.4,4.6,0,6.8s-12.9,11.1-12.9,11.1l0,0"/>
	<path class="st2" d="M216.4,427.6c6.5,3.4,32.8,4,32.8,4l21.2-0.1c4.5,10.2,3.4,22.1,3.4,22.1s-10.3,4.9-14.9,3.8
		s-17.4-3.8-17.4-3.8l-26.2,4c0,0-7.6-7.6-5.2-11S216.4,427.6,216.4,427.6z"/>
	<path class="st3" d="M362,231.2c-2.3-21.2-6.1-43.1,0-63.6c-75.7,0.3-151.3-0.3-227-1.8l-5,3.5c-0.9,56.9-0.3,113.9,1.6,170.9
		c75.7,6.9,152.1,13.7,227.4,3.3C364.9,306.3,366,268.6,362,231.2z"/>
	<path class="st4" d="M336.6,165.8c-3.3-3.7-6.4-11.4-10.4-16.3s-15.6-15.4-17.9-23s-3-7.3-4.5-20.1s-3.4-18.2-2.5-25.7
		s-3.8-11.8-11.5-19.7s-8.9-9.4-13-11.6s-5.7-7.7-11.5-7s-10.1-0.8-16.3-0.1s-15.6,2.5-20.7,5.6s-10.6,5.1-16.5,14.1
		s-5.6,14.3-9.1,18.9s-6.8,12.3-8,17.8c-1.4,6.3-0.8,6.1-6.1,20.2s-4.1,15.3-10.5,24.6s-5.7,15-15.9,22.2c-3.1,2-6.7,3.2-10.3,3.4
		L336.6,165.8z"/>
	<path class="st1" d="M285.8,102.2c0.2,2.4-0.6,15.4-2.3,21.4c-1.8,6.3-4.8,12.4-9.7,15.4s-14.7,11-14.7,11l1.5,11.9l-30,5.4
		c0,0,3.8-20.1,1.2-19.4S213.1,126,213.1,126s-7.8,0.5-10.3-2.5s-0.2-10.4-1.3-12.6s12.5-4.4,12.5-4.4s10.9-0.9,16.5-1.1
		c2.2-0.1,6.5-2.6,10.8-4.2c3-1.1,9.4-3,13.7-6.8c3-2.7,9.4-7.7,9.4-7.7s5.4,6.9,9.3,8.9S285.8,102.2,285.8,102.2z"/>
	<path class="st5" d="M323.5,347c2.8,3.6,4,7,7.7,12.1c2.9,3.8,4.2,8.6,3.6,13.3c-0.3,2-11.2,0.4-11.2,0.4l-15.9-4.9
		c0,0,0-5.8-8.6-2.3s-24.1,2.6-28.7,2.9s-13.1,5.4-18.6,4.4s-12.9-4.9-12.9-4.9l-10.5,3.1c0,0-7.8-1.9-12.5-0.2s-9.2-6.1-12.8-6.2
		s-0.9,3.3-6,8.2s-10.2,6.4-13.5,5.6s-8.2,0.9-11.9-3.6s-10.2-2.6-4.8-7.8c3.4-3.2,6.3-6.9,8.7-10.9l3.5-9.3L323.5,347z"/>
	<path class="st6" d="M263.6,275.3c4.5,2,47.4,24.5,47.4,24.5s4.4-1.4,5.7-8s2.3-19,0.3-23.7s-6.6-20.8-6.8-24.4s-7.4-11-7.4-11
		s-2.4-5.5-6.6-7.1s-6-4.1-11.1-6.8c-4.4-2.3-18.8-6.1-19.6,4.1c-0.9,11.6-1.9,19.7-1.4,23.5s-0.5,17.8-0.5,17.8V275.3z"/>
	<path class="st6" d="M236.5,272.8c-4.5,2-49,36.6-49,36.6s-1.9-11.2-3.2-17.8S183,271.7,185,267s7-20.2,7.2-23.8s9.3-14.5,9.3-14.5
		s4-9.4,8.2-11s12.4-6.4,17.3-5.7c5.9,0.8,13.5,3.4,14.6,14.9s-2.9,28.2-3.3,32s-1.1,5.2-1.1,5.2L236.5,272.8z"/>
	<path class="st0" d="M198.1,377.8c0-0.1-0.9,0.3,0.3-0.5c1.8-1.2,3.4-2.8,4.8-4.5c0.3-0.4,0.6-0.9,0.9-1.4c0.3-0.5,0.5-1,0.7-1.5
		l0.2-0.4v-0.1l0,0v-0.1l0.1-0.3v-0.1v-0.1l-0.1-0.2v-0.1c0-0.1,0.1,0,0.1,0l0.1,0.1l0.1,0.1l0,0l0,0l0,0l0.1,0.1
		c1.3,0.8,2.7,1.6,4.2,2.3c3,1.5,6.3,2.5,9.6,3c1.7,0.2,3.5,0.2,5.2,0c1.7-0.3,3.4-0.7,5-1.4c-0.2,0-0.3,0,0.3-0.3
		c2.5-1,5.6-2.6,8.3-2.3c0.4,0,0.8,0.1,1.2,0.2c0.2,0,0.3,0,0.5,0c1.2,0.5,2.4,1.1,3.5,1.9c2,1.5,4.3,2.6,6.7,3.3
		c0.7,0.1,1.4,0.2,2.1,0.2c0.7,0,1.3-0.1,2-0.2c1.3-0.2,2.5-0.6,3.7-1.1c2.3-1,4.2-2.2,6.2-3.1c0.9-0.5,1.9-0.8,2.9-1.1
		c0.9-0.2,1.9-0.3,2.9-0.3c2,0.1,4.1,1,6.6,1.6c2.5,0.6,5.1,0.7,7.6,0.5c2.5-0.3,4.9-1,7.3-1.9c2.2-0.9,4.5-1.7,6.9-2.3
		c1.9-0.5,3.9-0.6,5.8-0.2l1.4,0.3l1.4,0.5l1.5,0.5c0.5,0.2,1,0.3,1.5,0.5l9.4,2.9l4.8,1.5l2.2,0.8c0.4,0.1,0.7,0.2,1,0.4l1,0.4
		c-0.2-0.2,0.6,0,1.8,0.1c1.5,0.2,3-0.1,4.3-0.8c0.7-0.4,1.2-0.9,1.5-1.6c0.3-0.5,0.4-1.1,0.5-1.6c0-0.9-0.1-1.2-0.3-0.6
		c0.2-2-0.1-4.1-0.8-6c-0.3-1.2-0.8-2.3-1.4-3.3c-0.8-0.8-1.6-1.8-2.2-2.8c-1.2-1.7-3-4.5-6.2-8.4c-1.2-1.5-2.8-3.5-4.3-5
		c-0.7-0.8-1.4-1.5-2-2s-1.1-0.9-1.3-1.1c-0.9-0.6,0.1,0.3,0.9,1.1s1.7,1.8,0.9,1.1c2.5,2.5,4.9,5.3,6.9,8.2
		c2.1,2.9,3.9,5.9,5.4,9.2c0.7,1.5,1.3,3.1,1.7,4.8c0.2,0.8,0.3,1.5,0.4,2.3l0,0.6v0.6c0,0.3,0,0.7-0.1,1c0,0.4-0.2,0.7-0.5,1
		c-0.3,0.3-0.7,0.5-1.2,0.5c-0.6,0.1-1.2,0.1-1.8,0c-0.3-0.1-0.6-0.1-1-0.2c-0.2,0-0.3-0.1-0.5-0.2l-0.7-0.3c-1-0.4-1.9-0.7-2.8-1
		l-2.7-0.8l-5.3-1.6l-5.3-1.6c-0.9-0.3-1.8-0.5-2.6-0.8l-0.6-0.2l-0.5-0.2l-1.5-0.6l-0.7-0.3l-0.8-0.2c-0.5-0.1-1-0.3-1.6-0.4
		c-1.1-0.2-2.2-0.2-3.3-0.2c-2.1,0.1-4.2,0.4-6.2,1.1c-1.9,0.6-3.7,1.3-5.4,1.8c-1.6,0.5-3.3,1-5,1.2c-0.5,0-1.1,0.1-1.9,0.2
		c-0.9,0-1.8,0-2.7-0.1c-1.1-0.1-2.3-0.3-3.4-0.7c-1.5-0.5-3.1-0.9-4.6-1.3c-2.1-0.4-4.2-0.3-6.2,0.2c-2,0.6-3.9,1.4-5.7,2.4
		c-1.6,0.9-3.4,1.7-5.1,2.3c-0.8,0.2-1.6,0.4-2.4,0.4c-0.8,0-1.6-0.2-2.3-0.5c-1.9-0.9-3.6-1.9-5.3-3.1c-1.1-0.7-2.2-1.2-3.4-1.7
		c-1.3-0.5-2.7-0.7-4.1-0.6c-2.5,0.2-4.9,0.9-7.2,1.9c-1.8,0.9-3.8,1.5-5.7,1.9c-3.7,0.6-7.5-0.4-10.9-1.8c-1.7-0.7-3.3-1.5-4.9-2.4
		c-0.5-0.2-2.3-1.3-3.6-2.1l-2.1-1.2l-1-0.6L201,361l-0.4-0.2c0,1.3,0,2.5,0,3.7v1.4c0,0.1,0,0.2,0,0.3c-0.1,0.4-0.1,0.9-0.2,1.3
		c0,0.2-0.1,0.5-0.1,0.6l-0.1,0.3c-0.1,0.2-0.1,0.4-0.2,0.5c-0.2,0.4-0.4,0.7-0.5,1c-0.7,1.1-1.6,2.2-2.7,3
		c-0.4,0.3-0.7,0.6-1.1,0.8c-1.9,1.2-3.9,2.1-6.1,2.5c-2.3,0.3-4.7,0.3-7.1-0.1c-2.4-0.4-4.7-1-6.9-1.8c-1.1-0.4-2.2-0.8-3.2-1.2
		l-1.5-0.6l-0.6-0.2l-0.2-0.1c-0.2-0.1-0.6-0.1-0.4-0.4l0.1-0.4c0,0,0.1-0.3,0.2-0.5l0.3-0.6c0.8-1.7,1.5-3.5,2.4-5.2l-2.4,4.2
		c1.7-3.5,3.6-6.9,4.2-8.2c1.9-3.7,2.3-4.5,1.9-4.1s-1.5,2-2.5,3.3c-1.3,1.9,0-0.9-1.9,2.1c1.2-2.3,1.9-3.4,3.2-5.7
		c-0.7,1-1.3,2.1-1.9,3.2c-0.9,1.6-1.6,3-1.3,2.2c1.2-2.2,2.6-4.7,3.9-6.9c-0.9,1.3-1.8,2.7-2.5,4.1c-0.6,1.1-1.3,2.2-2,3.3
		c0.6-1.3,3.8-6.2,3.9-6.8c0-0.1-1.3,2.1-2,3.3c1.9-3.5,3.5-6.2,4.1-7.3s0-0.5-2,2.5c1.3-2.2,3.4-5.2,4.8-7.4l0,0
		c-0.8,1.1-2.1,3-2.7,4.1c0.8-1.3,1.7-2.6,2.5-3.8l-0.5,0.6c-0.7,0.9-1.3,1.9-2,2.9l1.7-2.6c-0.5,0.6-1,1.3-1.6,2
		c-2.1,3-4.1,5.9-5.1,7.6c-2,3.4-3.9,6.9-5.7,10.5l-0.6,1.4l-1.2,2.5l-0.6,1.3l-0.3,0.6l-0.1,0.2c0,0,0,0,0,0.1h0.1l0.3,0.1l2.6,1.2
		l2.2,1l1.4,0.6c0.9,0.4,1.9,0.8,2.8,1.1c4,1.6,8.2,2.6,12.5,2.8c1.1,0.1,2.2,0.1,3.3,0c0.6,0,1.1-0.1,1.7-0.2s1.1-0.2,1.6-0.3
		C194.1,379.9,196.2,379,198.1,377.8z"/>
	<path class="st0" d="M270.1,444.4c0.2,0,0.4-0.3,0.5,0.1c0.1,0.6,0.1,1.1,0,1.7c-0.1,0.5-0.1,1.1-0.1,1.7l0.3,0.1
		c-0.1,0.7-0.3,1.4-0.6,2c0,0,0,0.1,0,0.1c0,0.1,0,0.1-0.1,0.2c0,0.1,0.1,0.2,0.1,0.3c0,0-0.1,0.1-0.3,0.1l-0.6,0.1l-1.5,0.2
		l-0.5,0.1c-0.1,0.1-0.1,0.2-0.1,0.3c-0.5,0-0.9,0.1-1.3,0.1c-5.3,1.4-10.8,2.2-16.3,2.2c-1.1,0.2-2.3,0.1-3.3-0.2
		c-0.7-0.3-1.4-0.8-1.8-1.4c-0.4-0.6-0.7-1.4-0.9-2.1c-0.5,0.3-1.2-0.5-1.7-1.4s-1-1.8-1.6-1.3c0-1.3,0.1-3.1-0.3-3.2
		c-1-0.3-2.1-1.3-2.5-4.7c0-1.3,0.6-3.3,0.5-3.8c-0.2-0.8-0.9,1.6-1.1,0.9c-0.4,2.4-0.6,4.9-0.6,7.3c0,1.2,0,2.4,0,3.8
		c0.1,1.6,0.3,3.1,0.8,4.6c0.6,1.9,1.7,3.7,3.1,5.1c1.4,1.3,3.1,2.3,4.9,2.8c1.4,0.4,2.9,0.7,4.4,0.9c1.3,0.1,2.5,0.2,3.8,0.3
		c1.2-0.1,4.5-0.1,8.6-0.4c2.1-0.2,4.3-0.5,6.6-0.9l1.7-0.3c0.6-0.1,1.1-0.2,1.8-0.4l0.5-0.1l0.7-0.2c0.5-0.1,0.9-0.3,1.4-0.5
		c0.9-0.4,1.7-1,2.3-1.6c1.3-1.3,2.1-2.9,2.5-4.7c0-0.2,0.1-0.4,0.1-0.6s0.1-0.3,0.1-0.5c0-0.3,0.1-0.6,0.1-0.9
		c0-0.6,0.1-1.1,0.1-1.6c0-1,0-1.8-0.1-2.4s0-1.2,0-1.7l-0.1-0.5c-0.1-1.8-0.3-3.6-0.8-5.3c-0.4-1.8-1.2-3.6-2.3-5.1
		c-1-1.3-2.2-2.3-3.6-3.2c0.4,0.5,0.7,1.1,0.9,1.7c-0.7-1-1.6-1.8-2.7-2.3c-1.5-0.7-2-0.5-1.9-0.1s0.6,1,0.8,1.6
		c0.4,0.7-0.6,0.6,0,1.5c-0.5-0.4-1-0.7-1.5-1c-0.1,0.1,0.4,0.3,0.8,0.6s0.8,0.6,0.4,0.6c-0.5-0.5-1.2-0.8-1.9-1
		c0,0.2,0.5,0.5,1,0.8s0.8,0.7,0.6,0.8c-0.2-0.1-0.4-0.5-0.8-0.8s-0.7-0.5-0.8-0.3s0.5,0.4,0.7,0.5c-0.5-0.4-1.2-0.4-1.8-0.2
		c-0.3,0.2-0.1,0.5,0.3,0.9c-0.4-0.1-0.9-0.4-1.2-0.3l0,0c0.2,0,0.5,0.1,0.7,0.1c-0.2,0-0.4,0-0.6,0l0.1,0.2
		c0.1,0.1,0.3,0.1,0.4,0.1c-0.1,0-0.2,0-0.4,0c0.1,0.2,0.2,0.4,0.3,0.5c0.3,0.4,0.4,1,0.6,1.1c0.5,0.4,0.9,0.8,1.2,1.3
		c0.2,0.3,0.4,0.6,0.5,0.9c0.1,0.1,0.1,0.3,0.2,0.5s0.1,0.4,0.2,0.6C269.7,440.6,270,442.5,270.1,444.4z"/>
	<path class="st0" d="M238.7,449.4c0.2,0.1,0.4,0.2,0.4,0.3s-0.1,0.1-0.2,0s0-0.1-0.1,0s-0.3,0.1-0.4,0.1c-0.3,0.1-0.5,0.2-0.8,0.4
		v0.3c-0.9,0.2-1.9,0.4-2.8,0.6c-1.7,0.6-3.4,1-5.1,1.4c0.1,0.1,0.1,0.2-0.1,0.3c-0.9,0.2-1.9,0.2-2.8,0.1c-0.2,0-0.3,0.1-0.5,0.1
		c-0.1,0.1-0.2,0.2-0.2,0.3c-0.4,0-0.9,0-1.3-0.1c-1.3,0.1-2.7,0.1-4,0c-1.2,0-2.3-0.2-3.4-0.5c-0.9-0.3-1.7-0.9-2.2-1.7
		c-0.7-1.1-1-2.3-1.1-3.6c-0.3-1.3-0.3-2.5-0.1-3.8c0.5-2,1.3-3.9,2.4-5.7c-0.6-0.1-0.4-1.3-0.3-2.4s0.3-2.2-0.4-2.1
		c0.7-1.1,2-2.7,1.9-3c-0.4-0.6-0.4-1.3-0.2-2c0.5-1.6,1.5-2.9,2.9-3.8c1-0.6,2.1-1,3.3-1.2c1.2-0.2,2.2-0.1,2.6-0.3
		c0.2-0.1,0.2-0.1,0.1-0.2c-0.3-0.1-0.6-0.2-0.9-0.2c-0.8-0.2-1.5-0.1-0.9-0.4c-2.1,0.3-4,1-5.7,2.2c-1.4,1-2.7,2.1-3.8,3.4
		c-1.9,2.2-3.5,4.7-4.7,7.3c-1.3,2.6-2.3,5.4-2.9,8.3c-0.3,1.6-0.5,3.2-0.4,4.9c0,1.9,0.3,3.7,1,5.5l0.7,1.2
		c0.4,0.6,0.8,1.2,1.2,1.7c1.2,1.5,2.8,2.7,4.6,3.5c1.8,0.7,3.7,1.2,5.6,1.5c5.8,0.8,11.6,0.4,17.2-1.3c1.5-0.5,3-1,4.4-1.6
		c1.5-0.6,2.8-1.3,4.1-2.2c1.4-1.3,2.3-3,2.6-4.9c0.1-0.8,0.1-1.6,0.1-2.5l-0.1-0.8l-0.1-0.6c-0.2-1.6-0.3-3.1-0.5-4.4
		s-0.5-2.4-0.7-3.6c-0.2,0.5-0.5,1-0.7,1.5c0.2-1,0.2-2,0.1-3c-0.1-2.7-0.9-1.3-1.8-0.4c-0.4,0.7-0.8-0.4-1.3,0.8
		c0.1-0.9,0.2-1.3,0.3-2.2c-0.3-0.1-0.2,2.7-0.6,2c0.2-0.8,0.1-1.8,0.3-2.7c-0.5,0.2-0.6,3-1,2.9c-0.1-0.5,0.9-2.4,0.4-2.7
		c-0.1,0-0.3,0.8-0.3,1.3c0.2-2.8,0-4.4-1-2c0.2-0.9,0.6-2.1,0.8-3l0,0c-0.1,0.5-0.4,1.2-0.5,1.7c0.1-0.5,0.2-1,0.4-1.6
		c-0.1,0.1-0.2,0.1-0.3,0.2c-0.2,0.4-0.3,0.8-0.4,1.2l0.2-1c-0.3,0.2-0.5,0.5-0.7,0.8c-0.6,1-1,2-1.4,3.1c-0.5,2.8-0.8,5.7-0.9,8.5
		c0,0.7,0,1.4,0,2.2v1.1v1v0.1l0,0L238.7,449.4z"/>
	<path class="st0" d="M255.6,435.6c0-0.1,0-0.2,0.1-0.2c0.3-0.1,0.6,0.3,0.9,0.2v-0.2c0.3,0.1,0.5,0.2,0.8,0.2c0.5,0,1,0,1.5-0.1
		c0-0.1,0-0.1,0-0.1c0.3,0,0.5,0,0.8,0h0.1c0,0,0-0.1,0-0.1c0.1,0,0.2,0,0.4,0c1.5-0.4,3-0.9,4.4-1.4c0.3-0.2,0.6-0.4,0.9-0.5
		c0.5-0.1,1-0.2,1.5-0.2c-0.2-0.6,0.9-1,0.5-1.6c0.3,0,0.7-0.1,0.7-0.3c-0.1-0.6,0.2-1.2,0.8-1.5c0.3-0.1,0.8,0,0.9-0.2
		s-0.5-0.2-0.3-0.4c-2.2,0.4-4.2,0.9-6.5,1.2c-1.1,0.3-2.2,0.5-3.4,0.5c-1.3,0.1-2.6,0.1-3.8,0h-0.1c-0.7-0.1-1.5-0.1-2.2,0.1
		c-0.3,0.1-0.6,0.2-0.9,0.4c0.1,0.1,0.2,0.2,0.3,0.3c-0.3,0-0.6-0.1-0.7,0c-0.7,0.2-0.3,0.5-0.1,0.9c0.1,0.2-0.1,0.4,0.1,0.6
		l-0.5-0.1c0,0.2,0.6,0,0.5,0.2c-0.2-0.1-0.4,0-0.6,0c0,0.2,0.7,0.2,0.6,0.4c-0.1,0-0.5-0.4-0.6-0.1c0,0,0.2,0.1,0.3,0.1
		c-0.6,0-1,0.2-0.5,0.6c-0.2-0.1-0.5-0.1-0.7-0.2l0,0c0.1,0,0.3,0.1,0.4,0.1l-0.4-0.1v0.1c0.1,0,0.2,0.1,0.3,0.1h-0.2l0.2,0.3
		c0.3,0.2,0.5,0.5,0.7,0.5C252.9,435.4,254.2,435.5,255.6,435.6z"/>
	<path class="st0" d="M225.3,433.9c0-0.1,0-0.2,0.1-0.2c0.5,0.1,0.8,0.6,1.4,0.6l0.1-0.1c0.4,0.2,0.8,0.4,1.2,0.6
		c0.8,0.2,1.6,0.4,2.4,0.5c0-0.1,0-0.1,0.1-0.1c0.3,0,0.8,0.2,1.2,0.3h0.2c0,0,0.1-0.1,0.1-0.1c0.2,0,0.4,0.1,0.6,0.1
		c2.4,0,4.9-0.2,7.3-0.7c0.5-0.2,1-0.4,1.5-0.5c0.7-0.1,1.7-0.2,2.4-0.3c-0.2-0.5,1.4-1.2,1-1.7c0.5-0.1,1.1-0.2,1.1-0.4
		c0-0.5,0.2-1.1,1.2-1.8c0.4-0.2,1.2-0.2,1.3-0.4s-0.7-0.1-0.5-0.4c-1.6,0.5-3.2,0.9-4.8,1.2c-1.6,0.3-3.3,0.5-5,0.5
		c-1.7,0.2-3.5,0.1-5.2-0.2c-1.9-0.3-3.8-0.8-5.7-1.5l-0.2-0.1c-0.5-0.2-1.1-0.4-1.6-0.7c-0.5-0.2-1-0.4-1.6-0.5l-1.4-0.2
		c0.1,0.2,0.2,0.4,0.4,0.5c-0.3-0.2-0.6-0.4-1-0.5c-0.9-0.3-0.6,0.2-0.5,0.8c0.1,0.3-0.3,0.3,0,0.7c-0.3-0.2-0.4-0.3-0.7-0.5
		c-0.1,0.1,0.9,0.5,0.6,0.6c-0.2-0.2-0.6-0.3-0.9-0.5c0,0.2,0.9,0.7,0.8,0.8c-0.2,0-0.6-0.7-0.8-0.5c0,0,0.2,0.2,0.4,0.3
		c-0.9-0.5-1.5-0.6-0.9,0.2c-0.3-0.2-0.6-0.5-0.9-0.7l0,0c0.1,0.1,0.4,0.3,0.5,0.4l-0.5-0.3v0.1c0.1,0.1,0.2,0.2,0.3,0.3l-0.3-0.2
		c0,0.1,0.1,0.3,0.1,0.4c0.2,0.4,0.5,0.7,0.8,1C221.5,432.1,223.4,433.1,225.3,433.9z"/>
	<path class="st0" d="M277.2,379.9c0.1,0,0.3-0.1,0.2,0.2c-0.2,1.1-0.9,1.8-1.1,2.9l0.1,0.1c-0.3,0.8-0.7,1.6-1.1,2.4
		c-0.5,1.6-1,3.1-1.5,4.7c0.1,0,0.1,0,0.1,0.1c-0.2,0.7-0.5,1.5-0.9,2.5c0,0.1-0.1,0.3-0.1,0.4c0,0.1,0,0.1,0.1,0.2l-0.4,1.1
		c-1.2,4.7-2.4,9.4-3.7,14.5c-0.2,1.1-0.4,2.2-0.7,3.3c-0.5,1.5-1.2,3.4-1.7,4.9c0.6,0-0.3,3.6,0.5,3.1c-0.4,0.8-0.6,1.7-0.7,2.6
		c0.4,0.4,0.7,1.3,0.1,4c-0.3,1-1,2.6-1,3c0,0.6,0.8-1.2,0.7-0.6c2.7-7.5,5-14.9,7.5-22.6c0.6-2.7,6.4-20.3,8-24.8
		c0-0.1,0.1-0.3,0.1-0.4c0.9-2.5,1.8-5.5,2.3-7.6c0.2-1,0.4-2,0.5-3c-0.2,0.4-0.5,0.8-0.7,1.1c0.3-0.8,0.5-1.6,0.7-2.4
		c0.5-2.2-0.2-1.1-0.8-0.4c-0.4,0.5-0.4-0.3-0.8,0.5c0.2-0.6,0.3-1,0.6-1.6c-0.1-0.1-0.6,2-0.7,1.5c0.3-0.6,0.4-1.4,0.6-2
		c-0.3,0.2-0.8,2.2-1,2.1c0.1-0.4,0.9-1.8,0.7-2c-0.2,0.3-0.3,0.6-0.4,0.9c0.6-2,0.7-3.2-0.2-1.5c0.2-0.6,0.6-1.5,0.8-2.2l0,0
		c-0.1,0.3-0.4,0.9-0.5,1.2l0.4-1.1l-0.2,0.2c-0.1,0.3-0.2,0.6-0.4,0.9c0.1-0.2,0.2-0.5,0.3-0.8c-0.2,0.2-0.3,0.4-0.5,0.6
		c-0.4,0.7-0.8,1.4-1.2,2.1C280,372,278.5,376,277.2,379.9z"/>
	<path class="st0" d="M246.6,383.5c0.1,0,0.2-0.2,0.2,0.1c0,1-0.4,1.9-0.4,2.9l0.2,0.1c-0.1,0.8-0.3,1.6-0.4,2.5
		c-0.1,1.6-0.2,3.2-0.2,4.8c0.1,0,0.1,0,0.1,0.1c0,0.6-0.1,1.6-0.2,2.5v0.5c0,0.1,0.1,0.1,0.1,0.2c0,0.4-0.1,0.8-0.1,1.1
		c0,4.6,0.1,9.3,0.3,14.4c0.1,1.1,0.2,2.2,0.2,3.2c0,1.5-0.2,3.5-0.3,5c0.6-0.2,0.7,3.4,1.3,2.7c-0.1,0.8-0.1,1.7,0,2.6
		c0.5,0.2,1,1,1.2,3.7c0,1-0.2,2.6-0.1,3c0.1,0.6,0.4-1.3,0.5-0.8c0.4-7.7,0.5-15,0.9-22.8c-0.1-1.3,0.1-6.4,0.4-11.7
		s0.7-10.9,0.9-13.1v-0.4c0.2-2.5,0.4-5.5,0.4-7.6c0-1-0.1-2-0.2-3c-0.1,0.4-0.3,0.9-0.4,1.2c0.1-0.8,0.2-1.6,0.1-2.4
		c-0.1-2.1-0.4-1-0.9-0.2c-0.2,0.6-0.4-0.2-0.7,0.7c0.1-0.7,0.1-1,0.2-1.6c-0.1-0.1-0.1,2-0.3,1.6c0.1-0.6,0.1-1.4,0.1-2
		c-0.2,0.2-0.3,2.3-0.5,2.2c0-0.4,0.5-1.8,0.2-2c-0.1,0.3-0.1,0.7-0.2,1c0.1-2,0-3.2-0.5-1.4c0.1-0.6,0.3-1.5,0.3-2.2l0,0
		c-0.1,0.3-0.1,0.9-0.2,1.2l0.1-1.2l-0.1,0.2c-0.1,0.3-0.1,0.6-0.1,0.9l0.1-0.8c-0.1,0.2-0.2,0.4-0.3,0.6c-0.3,0.7-0.5,1.5-0.6,2.3
		C247.4,375.5,246.9,379.5,246.6,383.5z"/>
	<path class="st0" d="M214.8,381.8c0.1,0,0.2-0.2,0.3,0.1c0.2,1,0,1.8,0.2,2.7l0.2,0c0,0.8,0,1.5,0.1,2.4c0.2,1.5,0.4,2.9,0.7,4.4
		c0,0,0.1-0.1,0.1,0.1c0.1,0.6,0.2,1.5,0.3,2.3c0,0.1,0.1,0.2,0.1,0.4c0,0.1,0.1,0.1,0.1,0.1c0,0.4,0.1,0.8,0.1,1.1
		c0.9,4.2,1.8,8.5,2.8,13.2c0.3,1,0.6,2,0.8,2.9c0.2,1.4,0.4,3.2,0.5,4.6c0.5-0.3,1.3,3,1.8,2.3c0,0.8,0.2,1.6,0.4,2.4
		c0.5,0.1,1.2,0.8,1.8,3.2c0.2,1,0.2,2.4,0.3,2.8c0.2,0.5,0.2-1.3,0.4-0.8c-0.8-7.1-1.9-14-2.8-21.1c-0.6-2.4-2.8-18.9-3.3-23.1
		c0-0.1,0-0.3-0.1-0.4c-0.3-2.4-0.6-4.7-1.1-7c-0.2-0.9-0.5-1.8-0.8-2.6c0,0.4-0.1,0.8-0.1,1.2c-0.1-0.7-0.2-1.5-0.4-2.2
		c-0.5-1.9-0.6-0.8-0.9,0c-0.1,0.6-0.5-0.1-0.5,0.7c-0.1-0.6-0.1-0.9-0.2-1.5c-0.2,0,0.3,1.9,0,1.5c0-0.6-0.2-1.2-0.3-1.9
		c-0.2,0.2,0.2,2.1,0,2.1c-0.1-0.3,0.1-1.8-0.2-1.9c0,0.3,0,0.6,0.1,0.9c-0.3-1.9-0.7-2.9-0.8-1.1c-0.1-0.6-0.1-1.5-0.2-2.1l0,0
		c0,0.3,0.1,0.9,0.1,1.2l-0.2-1.1l-0.1,0.2c0,0.3,0,0.6,0,0.8c0-0.2,0-0.5-0.1-0.7c-0.1,0.2-0.1,0.4-0.2,0.6
		c-0.1,0.7-0.1,1.5-0.1,2.2C213.9,374.3,214.3,378,214.8,381.8z"/>
	<path class="st0" d="M282.6,272c0-0.1,0-0.2,0.1-0.2c0.5,0.1,0.8,0.5,1.3,0.6l0.1-0.1c0.4,0.2,0.7,0.4,1.1,0.7l2.2,0.8
		c0-0.1,0-0.1,0.1-0.1c0.4,0.1,0.8,0.3,1.1,0.5l0.2,0.1c0.1,0,0.1-0.1,0.1-0.1c0.2,0.1,0.3,0.2,0.5,0.3c2.2,0.7,4.5,1.4,6.9,2.3
		c0.5,0.1,1.1,0.3,1.6,0.5c0.7,0.4,1.4,0.9,2.1,1.4c0.2-0.5,1.9,0.2,1.9-0.5c0.4,0.3,1,0.8,1.2,0.6c0.4-0.3,1-0.6,2.3,0
		c0.5,0.3,1,0.9,1.2,1s-0.4-0.7,0-0.6c-3.2-2.4-6.6-4.6-10.2-6.4c-0.7-0.2-3.1-1.4-5.7-2.5s-5.3-2.1-6.4-2.6l-0.2-0.1
		c-1.2-0.5-2.5-0.8-3.9-1c-0.5,0-1.1,0-1.6,0c0.2,0.2,0.4,0.3,0.5,0.5c-0.4-0.2-0.8-0.2-1.2-0.3c-1.1,0-0.6,0.4-0.3,0.9
		c0.2,0.2-0.2,0.4,0.2,0.7l-0.8-0.2c-0.1,0.1,1,0.2,0.7,0.4c-0.3-0.1-0.7-0.2-1-0.2c0.1,0.2,1.1,0.4,1,0.6c-0.2,0-0.8-0.5-1-0.3
		c0,0,0.3,0.1,0.5,0.2c-1-0.2-1.6-0.1-0.8,0.5c-0.3-0.1-0.7-0.3-1.1-0.4l0,0c0.2,0,0.4,0.2,0.6,0.2l-0.6-0.2l0.1,0.1
		c0.1,0.1,0.3,0.1,0.4,0.2l-0.4-0.1c0.1,0.1,0.2,0.2,0.3,0.3c0.3,0.3,0.6,0.5,1,0.7C278.9,270.6,280.8,271.3,282.6,272z"/>
	<path class="st0" d="M280.1,255c0-0.1,0-0.2,0.1-0.2c0.4,0,0.6,0.4,1,0.4l0.1-0.1c0.3,0.1,0.5,0.3,0.8,0.4l1.7,0.4
		c0-0.1,0-0.1,0.1-0.1c0.3,0.1,0.6,0.2,0.9,0.3h0.1c0,0,0.1-0.1,0.1-0.1c0.1,0.1,0.3,0.1,0.4,0.2c1.8,0.3,3.6,0.8,5.3,1.4
		c0.4,0.1,0.8,0.2,1.2,0.4c0.5,0.3,1,0.7,1.5,1.2c0.3-0.5,1.6,0.2,1.7-0.5c0.3,0.2,0.7,0.7,0.9,0.6c0.6-0.4,1.4-0.4,2,0
		c0.4,0.3,0.7,0.9,0.9,0.9s-0.1-0.6,0.1-0.6c-2.2-2.4-4.8-4.4-7.8-5.9c-0.5-0.2-2.5-1.1-4.6-1.9s-4.5-1.3-5.4-1.5h-0.2
		c-1.1-0.2-2.2-0.3-3.2-0.2c-0.4,0.1-0.8,0.3-1.3,0.4c0.2,0.1,0.4,0.2,0.5,0.3c-0.3-0.1-0.7-0.1-1,0c-0.9,0.2-0.4,0.5-0.1,0.9
		c0.2,0.2-0.1,0.4,0.3,0.6h-0.6c0,0.2,0.8-0.1,0.6,0.2c-0.3,0-0.5,0-0.8,0c0.1,0.2,0.9,0.1,0.8,0.3c-0.1,0-0.7-0.3-0.8,0
		c0,0.1,0.2,0.1,0.4,0.1c-0.8,0.1-1.2,0.3-0.5,0.6c-0.3-0.1-0.6-0.1-0.9-0.1l0,0l0.5,0.1h-0.4l0.1,0.1c0.1,0,0.2,0.1,0.3,0.1h-0.3
		c0.1,0.1,0.2,0.2,0.2,0.3c0.3,0.2,0.7,0.4,0.8,0.4C277.2,254.5,278.6,254.7,280.1,255z"/>
	<path class="st0" d="M278.6,241.2c0-0.1,0-0.2,0.1-0.2c0.4,0,0.7,0.4,1.1,0.4l0.1-0.1c0.3,0.1,0.6,0.3,0.9,0.4l1.8,0.3
		c0-0.1,0-0.1,0.1-0.1c0.3,0.1,0.6,0.2,0.9,0.3h0.2c0,0,0.1-0.1,0.1-0.1l0.4,0.2c1.9,0.2,3.7,0.6,5.6,1.1c0.4,0,0.9,0.1,1.3,0.2
		c0.6,0.3,1.2,0.6,1.7,1c0.2-0.6,1.6,0,1.7-0.6c0.4,0.2,0.8,0.6,1,0.5c0.6-0.5,1.4-0.6,2-0.2c0.4,0.2,0.8,0.8,1,0.8s-0.2-0.6,0-0.6
		c-2.6-2-5.4-3.7-8.5-5c-0.6-0.1-2.6-0.9-4.8-1.6s-4.5-1.1-5.5-1.4h-0.2c-1.1-0.2-2.2-0.3-3.3-0.2c-0.4,0.1-0.9,0.2-1.3,0.4l0.5,0.3
		c-0.3-0.1-0.7-0.1-1,0c-0.9,0.2-0.4,0.5-0.1,0.9c0.2,0.2-0.1,0.4,0.3,0.6l-0.7-0.1c0,0.2,0.8-0.1,0.6,0.2c-0.3,0-0.5,0-0.8,0
		c0.1,0.2,0.9,0.1,0.9,0.3c-0.1,0-0.7-0.3-0.8-0.1c0,0,0.2,0.1,0.4,0.1c-0.8,0.1-1.3,0.3-0.5,0.6c-0.3-0.1-0.6-0.1-0.9-0.1l0,0
		c0.1,0,0.4,0.1,0.5,0.1h-0.5l0.1,0.1c0.1,0,0.2,0.1,0.3,0.1h-0.3c0.1,0.1,0.2,0.2,0.2,0.3c0.3,0.2,0.6,0.4,0.9,0.5
		C275.6,240.7,277.1,240.9,278.6,241.2z"/>
	<path class="st0" d="M215.1,237.6c0-0.1-0.1-0.2,0-0.2c0.3-0.2,0.7,0,1-0.2V237c0.3,0,0.6,0,0.9,0l1.6-0.5c0,0,0-0.1,0-0.1
		c0.3-0.1,0.6-0.1,0.9-0.2h0.1c0,0,0-0.1,0-0.1h0.4c1.6-0.7,3.3-1.3,5-1.7c0.4-0.2,0.7-0.3,1.1-0.4c0.6-0.1,1.2-0.1,1.8,0
		c-0.1-0.6,1.3-0.8,1-1.4c0.4,0,0.9,0.1,1-0.1c0.2-0.7,0.8-1.2,1.5-1.2c0.4,0,1,0.2,1.2,0.1s-0.5-0.4-0.2-0.5c-3-0.4-6-0.4-9,0
		c-0.5,0.2-2.5,0.5-4.6,1s-4.1,1.1-5,1.3l-0.2,0.1c-1,0.3-1.9,0.7-2.7,1.3c-0.3,0.3-0.6,0.6-0.9,0.9c0.2,0,0.4,0,0.6,0.1
		c-0.4,0.1-0.7,0.3-0.8,0.4c-0.6,0.6-0.1,0.6,0.3,0.9c0.3,0.1,0.1,0.4,0.5,0.4l-0.6,0.2c0,0.2,0.6-0.4,0.6-0.1
		c-0.2,0-0.4,0.2-0.7,0.3c0.2,0.2,0.8-0.3,0.9-0.1s-0.7,0-0.7,0.3c0,0,0.2,0,0.4-0.1c-0.6,0.4-0.9,0.8-0.2,0.8
		c-0.3,0.1-0.5,0.2-0.8,0.3l0,0c0.1,0,0.3-0.1,0.4-0.1l-0.4,0.2l0.1,0.1c0.1,0,0.2,0,0.3-0.1l-0.3,0.1c0.1,0.1,0.2,0.1,0.3,0.1
		c0.3,0.1,0.6,0.1,0.9,0.1C212.5,238.5,213.8,238,215.1,237.6z"/>
	<path class="st0" d="M211.5,254.2c0-0.1-0.2-0.1-0.1-0.3c0.4-0.3,1-0.2,1.4-0.5v-0.2l1.2-0.3l2.1-1c0-0.1-0.1-0.1,0-0.1
		c0.4-0.2,0.8-0.3,1.2-0.4l0.2-0.1c0,0,0-0.1,0-0.1c0.2-0.1,0.4-0.1,0.6-0.2c2.2-1.1,4.4-2.1,6.7-3c0.5-0.3,1-0.5,1.5-0.7
		c0.8-0.2,1.7-0.3,2.5-0.4c-0.2-0.6,1.6-1.1,1.2-1.6c0.5-0.1,1.3-0.1,1.3-0.3c0.1-0.5,0.4-1.1,1.8-1.5c0.6-0.1,1.4,0.1,1.6,0
		s-0.7-0.3-0.4-0.5c-4.1,0.1-8.3,0.7-12.2,1.8c-0.7,0.3-3.3,1.1-6,2.1s-5.4,2.3-6.6,2.8l-0.2,0.1c-1.2,0.6-2.4,1.3-3.5,2.2
		c-0.4,0.4-0.7,0.8-1.1,1.2c0.2,0,0.5-0.1,0.7-0.1c-0.4,0.2-0.7,0.4-1,0.7c-0.8,0.8-0.1,0.7,0.5,0.8c0.3,0,0.1,0.4,0.6,0.3
		c-0.3,0.2-0.4,0.3-0.7,0.4c0.1,0.1,0.8-0.6,0.8-0.3c-0.3,0.2-0.6,0.4-0.9,0.6c0.2,0.1,1-0.6,1.1-0.4c-0.1,0.1-1,0.3-0.9,0.5
		c0,0,0.3-0.1,0.4-0.2c-0.8,0.6-1.2,1.2-0.2,0.9c-0.3,0.2-0.7,0.4-1,0.6l0,0c0.1-0.1,0.4-0.2,0.6-0.3l-0.5,0.3h0.1
		c0.1,0,0.3-0.1,0.4-0.2l-0.3,0.2c0.1,0,0.3,0,0.4,0c0.4-0.1,0.8-0.1,1.2-0.3C208,256.1,209.7,255.1,211.5,254.2z"/>
	<path class="st0" d="M204.6,272.7c-0.1-0.1-0.2-0.1-0.1-0.3c0.5-0.4,1.1-0.4,1.6-0.8l-0.1-0.2c0.5-0.2,0.9-0.4,1.4-0.6l2.5-1.5
		c-0.1,0-0.1-0.1,0-0.1c0.3-0.2,0.8-0.4,1.4-0.7l0.2-0.1c0-0.1,0-0.1,0-0.2c0.2-0.1,0.4-0.2,0.6-0.3c2.5-1.6,5-3.1,7.7-4.5
		c0.6-0.4,1.1-0.7,1.7-1c1-0.3,2-0.6,3-0.9c-0.3-0.5,1.8-1.4,1.2-1.8c0.6-0.2,1.5-0.4,1.5-0.5c0-0.5,0.4-1.2,2-1.8
		c0.6-0.2,1.7-0.2,1.9-0.4s-0.9-0.2-0.6-0.4c-4.9,0.9-9.6,2.3-14.1,4.2c-0.7,0.4-3.8,1.8-6.8,3.4s-6.1,3.5-7.4,4.2l-0.2,0.2
		c-1.4,0.9-2.7,1.9-3.9,3c-0.4,0.5-0.8,1-1.2,1.5c0.3-0.1,0.6-0.2,0.8-0.2c-0.4,0.3-0.8,0.6-1.2,1c-0.9,1-0.1,0.8,0.5,0.8
		c0.4-0.1,0.2,0.4,0.7,0.2c-0.3,0.2-0.5,0.4-0.8,0.6c0.1,0.2,1-0.9,0.9-0.5c-0.4,0.2-0.7,0.5-1,0.8c0.2,0.1,1.2-0.8,1.3-0.6
		c-0.1,0.2-1.1,0.5-1,0.8c0,0,0.3-0.2,0.5-0.3c-0.9,0.9-1.3,1.5-0.2,1c-0.4,0.2-0.8,0.5-1.1,0.8l0,0c0.2-0.1,0.5-0.3,0.6-0.4
		l-0.6,0.4h0.2c0.2-0.1,0.3-0.2,0.4-0.3l-0.4,0.3l0.5-0.1c0.5-0.1,0.9-0.3,1.4-0.5C200.5,275.3,202.5,274,204.6,272.7z"/>
	<path class="st0" d="M200.4,115.9c0.1,0,0.2-0.1,0.2,0.1c0.1,0.5-0.3,0.8-0.2,1.3h0.2c-0.1,0.3-0.2,0.7-0.3,1.1
		c0,0.7,0.1,1.5,0.2,2.2c0.1,0,0.1,0,0.1,0c0.1,0.3,0,0.8,0.1,1.2l0.1,0.2c0,0,0.1,0.1,0.1,0.1c0,0.2,0.1,0.4,0.1,0.6
		c0.4,1.2,1,2.3,1.8,3.2c0.8,0.9,1.8,1.7,3,2.2c0.5,0.1,1,0.2,1.5,0.4c0.7,0.3,1.5,0.5,2.2,0.7c0-0.5,1.6-0.7,1.3-1.3
		c0.4,0,1,0,1-0.2c0.1-0.6,0.4-1.2,0.9-1.6c0.3-0.1,0.8-0.2,0.8-0.3s-0.5-0.1-0.4-0.3c-0.5,0.2-1,0.3-1.5,0.4
		c-1.7,0.2-3.3-0.3-4.6-1.4c-1-0.7-1.6-1.8-1.7-3c-0.3-1.7-0.3-3.4-0.1-5.1v-0.2c0.1-1,0.1-2.1,0-3.1c-0.1-0.4-0.2-0.8-0.3-1.2
		c-0.1,0.2-0.2,0.3-0.3,0.5c0.1-0.3,0.1-0.7,0-1c-0.1-0.9-0.5-0.4-0.9-0.2c-0.2,0.2-0.4-0.1-0.6,0.2c0.1-0.3,0.1-0.4,0.1-0.7
		c-0.2-0.1,0,0.9-0.3,0.6c0-0.3,0.1-0.6,0.1-0.9c-0.2,0.1-0.2,1-0.4,0.9c0-0.2,0.4-0.8,0.1-0.8c0,0-0.1,0.3-0.1,0.4
		c0-0.9-0.1-1.4-0.6-0.7c0.1-0.3,0.2-0.7,0.2-1l0,0c0,0.1-0.1,0.4-0.1,0.5l0.1-0.5l-0.1,0.1c-0.1,0.1-0.1,0.2-0.1,0.4l0.1-0.3
		c-0.1,0.1-0.2,0.2-0.3,0.2c-0.2,0.3-0.4,0.6-0.6,0.9C200.7,112.3,200.4,114.1,200.4,115.9z"/>
	<path class="st0" d="M290.4,125.7c0-0.1-0.2-0.2,0-0.3c0.5-0.3,1.1-0.1,1.6-0.5v-0.2c0.5-0.1,0.9-0.3,1.4-0.5
		c0.7-0.5,1.4-1.2,1.9-1.9c-0.1,0-0.1,0-0.1-0.1c0.2-0.3,0.5-0.7,0.8-1.1l0.1-0.2c0-0.1,0-0.1-0.1-0.1c0.1-0.2,0.2-0.3,0.3-0.5
		c0.8-2.2,1.1-4.5,1-6.9c-0.1-0.5-0.2-1-0.2-1.4c0-0.7,0.1-1.6,0.1-2.3c-0.3,0.1-0.5-0.3-0.8-0.6s-0.5-0.6-0.8-0.3
		c-0.1-0.4-0.2-0.9-0.4-0.9c-0.5,0.1-1.1,0.1-1.6,0c-0.1,0-0.2-0.2-0.3-0.2s0,0.2,0,0.3c0,0.1,0,0.2-0.1,0.2c0,0,0,0.1,0,0.1
		c0.1,0.1,0.1,0.2,0.2,0.3c0.2,0.5,0.3,1,0.3,1.5c0.1,0.7,0.1,1.3,0,2c0,0.8-0.1,1.5-0.3,2.2c-0.1,1.4-0.5,2.8-1.2,4.1
		c-0.4,0.7-0.9,1.4-1.6,1.9c-0.5,0.3-1,0.6-1.5,0.7L289,121c-0.7,0.2-1.5,0.3-2.2,0.4c-0.3,0.1-0.6,0.2-1,0.2
		c0.1,0.1,0.2,0.3,0.3,0.4c-0.2-0.1-0.5-0.2-0.7-0.2c-0.7-0.1-0.6,0.3-0.5,0.8c0.1,0.3-0.3,0.3,0,0.7c-0.3-0.2-0.4-0.2-0.6-0.4
		c-0.1,0.1,0.9,0.4,0.5,0.5c-0.2-0.2-0.6-0.3-0.8-0.5c-0.1,0.3,0.9,0.7,0.8,0.8c-0.2,0-0.7-0.7-0.9-0.5s0.2,0.2,0.4,0.3
		c-0.9-0.5-1.6-0.8-0.9,0.1c-0.3-0.2-0.6-0.7-0.9-0.9l0,0c0.1,0.1,0.3,0.4,0.5,0.6l-0.5-0.5c0,0.1,0,0.1,0,0.2
		c0.1,0.1,0.2,0.3,0.3,0.4l-0.3-0.3c0,0.2,0.1,0.3,0.1,0.5c0.2,0.5,0.5,0.9,0.9,1.2C285.4,126,288,126.4,290.4,125.7z"/>
	<path class="st0" d="M241.9,136c0-0.1-0.1-0.2,0.1-0.2c0.5,0,0.8,0.4,1.4,0.4l0.1-0.1c0.4,0.1,0.8,0.3,1.1,0.4
		c0.8,0.1,1.5,0.1,2.3,0.1c0-0.1,0-0.1,0.1-0.1c0.4,0,0.8,0,1.2,0.1h0.2c0,0,0.1-0.1,0.1-0.1h0.5c2.2-0.3,4.5-0.8,6.6-1.5
		c0.4-0.2,0.9-0.5,1.4-0.6c0.7-0.2,1.6-0.3,2.2-0.5c-0.2-0.5,1.2-1.3,0.7-1.7c0.4-0.1,1-0.3,1-0.5c-0.1-0.5,0.1-1.1,1-1.8
		c0.4-0.2,1.1-0.3,1.2-0.5s-0.7-0.1-0.5-0.3c-1.5,0.6-2.9,1.1-4.4,1.6c-1.5,0.5-3,0.8-4.6,1c-1.6,0.4-3.2,0.5-4.9,0.5
		c-1.8,0-3.7-0.2-5.4-0.7H243c-1-0.3-2.1-0.5-3.1-0.6c-0.4,0-0.9,0-1.3,0c0.1,0.1,0.3,0.3,0.4,0.4c-0.3-0.2-0.7-0.2-1-0.3
		c-0.9-0.1-0.6,0.3-0.4,0.9c0.2,0.2-0.2,0.4,0.1,0.7c-0.3-0.1-0.4-0.2-0.7-0.3c-0.1,0.1,0.9,0.3,0.6,0.4c-0.3-0.1-0.6-0.2-0.9-0.3
		c0,0.2,0.9,0.5,0.8,0.6c-0.2,0-0.7-0.6-0.8-0.4c0,0,0.2,0.2,0.4,0.2c-0.9-0.3-1.5-0.2-0.8,0.4c-0.3-0.2-0.6-0.3-0.9-0.5l0,0
		c0.1,0.1,0.4,0.2,0.5,0.3l-0.5-0.2v0.1c0.1,0.1,0.2,0.2,0.4,0.2l-0.3-0.1c0.1,0.1,0.1,0.2,0.2,0.4c0.2,0.3,0.5,0.6,0.8,0.8
		C238.2,134.9,240,135.6,241.9,136z"/>
	<path class="st0" d="M262,111.9c0-0.1-0.1-0.2,0-0.2c0.3-0.1,0.5,0.2,0.7,0.1v-0.2c0.2,0.1,0.4,0.1,0.6,0.2l1.2-0.1
		c0-0.1,0-0.1,0-0.1c0.2,0,0.4,0,0.6,0h0.1c0,0,0-0.1,0-0.1l0.3,0.1c1.2-0.3,2.4-0.5,3.7-0.7c0.3-0.1,0.6-0.2,0.9-0.2
		c0.4,0.1,0.8,0.2,1.2,0.3c0.1-0.6,1.1-0.6,1-1.2c0.3,0.1,0.6,0.2,0.7,0c0.2-0.6,0.7-1,1.3-1c0.3,0,0.7,0.3,0.8,0.3
		s-0.3-0.4-0.1-0.5c-2-0.7-4.2-1.1-6.3-1.3c-0.4,0.1-1.8,0-3.3,0s-3.1,0-3.7,0h-0.1c-0.7,0-1.4,0.1-2.1,0.4
		c-0.2,0.2-0.5,0.4-0.8,0.6l0.4,0.2c-0.3,0-0.5,0-0.6,0.2c-0.5,0.3-0.2,0.6,0.1,0.9c0.2,0.2,0,0.4,0.3,0.6h-0.4
		c0,0.2,0.5-0.2,0.4,0.1c-0.2,0-0.3,0.1-0.5,0.1c0.1,0.2,0.6,0,0.6,0.2c-0.1,0.1-0.5-0.2-0.5,0c0,0.1,0.2,0,0.3,0
		c-0.5,0.2-0.8,0.5-0.2,0.7c-0.2,0-0.4-0.1-0.6,0l0,0c0.1,0,0.2,0,0.3,0H258l0.1,0.1c0.1,0,0.2,0,0.2,0h-0.2l0.2,0.2
		c0.2,0.1,0.5,0.4,0.6,0.3C260,112,261,111.9,262,111.9z"/>
	<path class="st0" d="M231.1,157.2c0.1,0,0.2,0,0.2,0c0.1,0.3-0.3,0.5-0.2,0.8h0.2c-0.1,0.2-0.2,0.4-0.3,0.6c0,0.4,0,0.8,0.1,1.2
		c0.1,0,0.1,0,0.1,0c0,0.2,0,0.4-0.1,0.6c0,0,0,0.1,0,0.1c0,0,0.1,0,0.1,0c0,0.1,0,0.2-0.1,0.3c0.3,1.2,0.6,2.5,0.9,3.8
		c0.1,0.3,0.3,0.6,0.3,0.9c0,0.4,0,0.9-0.1,1.3c0.6,0,0.8,0.9,1.4,0.8c0,0.3-0.1,0.6,0.1,0.7c0.6,0.1,1.1,0.4,1.3,1
		c0.1,0.3-0.2,0.7-0.1,0.8s0.4-0.3,0.5-0.2c0.3-2,0.2-3.9,0.3-6c-0.2-2.2-0.1-4.4,0.1-6.5v-0.1c0.1-0.7,0-1.3-0.1-2
		c-0.1-0.3-0.3-0.5-0.4-0.8c-0.1,0.1-0.2,0.2-0.3,0.3c0-0.3,0-0.5,0-0.6c-0.2-0.6-0.5-0.3-0.9-0.1c-0.2,0.1-0.4-0.1-0.6,0.2
		c0-0.2,0-0.3,0-0.4c-0.2,0,0.1,0.5-0.2,0.4c0.1-0.2,0-0.4,0-0.5c-0.2,0-0.1,0.6-0.3,0.6c-0.1-0.1,0.3-0.5,0.1-0.5
		c-0.1,0-0.1,0.2-0.1,0.2c-0.1-0.5-0.3-0.8-0.6-0.4c0-0.2,0.1-0.4,0.1-0.6l0,0c0,0.1-0.1,0.2-0.1,0.3v-0.3l-0.1,0.1
		c0,0.1-0.1,0.1-0.1,0.2c0-0.1,0-0.1,0-0.2c-0.1,0-0.2,0.1-0.3,0.2c-0.2,0.2-0.5,0.4-0.5,0.6C231.2,155,231.1,156.1,231.1,157.2z"/>
	<path class="st0" d="M257.9,156.6c0.1,0,0.2,0,0.2,0.1c0.1,0.3-0.3,0.4-0.2,0.7h0.2c-0.1,0.2-0.2,0.4-0.3,0.6c0,0.4,0,0.8,0,1.1
		c0.1,0,0.1,0,0.1,0c0,0.2,0,0.4-0.1,0.6c0,0,0,0.1,0,0.1c0,0,0.1,0,0.1,0.1c0,0.1,0,0.2-0.1,0.3c0.2,1.1,0.4,2.3,0.6,3.5
		c0.1,0.3,0.2,0.5,0.3,0.8c0,0.4-0.1,0.8-0.2,1.2c0.6,0,0.8,0.9,1.4,0.8c0,0.2-0.1,0.6,0,0.6c0.6,0.1,1,0.5,1.2,1
		c0,0.2-0.2,0.6-0.1,0.7s0.4-0.3,0.5-0.1c0.4-1.8,0.4-3.6,0.6-5.4c0-2,0.1-4,0.5-5.9c0,0,0-0.1,0-0.1c0.1-0.6,0.1-1.2,0-1.8
		c-0.1-0.2-0.2-0.5-0.4-0.8c-0.1,0.1-0.2,0.2-0.3,0.3c0-0.2,0.1-0.5,0-0.6c-0.2-0.5-0.5-0.3-0.9-0.1c-0.2,0.1-0.4-0.1-0.6,0.1
		c0-0.1,0-0.2,0.1-0.4c-0.2,0,0,0.5-0.2,0.4c0.1-0.1,0-0.3,0-0.5c-0.2,0-0.1,0.5-0.4,0.5c0-0.1,0.4-0.4,0.1-0.5
		c-0.1,0-0.1,0.1-0.1,0.2c0-0.5-0.2-0.8-0.6-0.4c0-0.2,0.2-0.4,0.2-0.5l0,0c0,0.1-0.1,0.2-0.1,0.3c0-0.1,0-0.2,0-0.3h-0.1
		c0,0.1-0.1,0.1-0.1,0.2V153c-0.1,0-0.2,0.1-0.3,0.1c-0.2,0.2-0.5,0.4-0.5,0.5C258.2,154.6,258,155.6,257.9,156.6z"/>
	<path class="st0" d="M220.4,142.1c0.1-0.1-0.1-0.5,0.4,0c1.4,1.6,3,3.2,4.7,4.5h0.2c1.4,1.2,3,2.3,4.6,3.2c1.6,0.8,3.2,1.6,4.8,2.1
		c1.7,0.6,3.4,1.1,5.1,1.4c-0.1-0.1-0.1-0.1,0.2-0.1c1.8,0.3,3.7,0.6,5.5,0.7h0.9c0.2,0,0.3-0.1,0.3-0.1c0.9,0,1.8,0,2.5,0
		c5.1-0.5,10-1.9,14.6-4.2c4.7-2.3,9-5.4,12.8-9.1c1.6-1.6,3-3.4,4.3-5.2c1.1-1.4,2-2.9,2.8-4.5c0.8-1.6,1.4-3.2,1.9-4.9
		c-0.3,0.2-0.1-1.6,0-3.3s0-3.2-0.3-2.5c0.3-1.7,0.5-3.5,0.5-5.3c-0.4-0.5-0.8-2.2-0.4-7.7c0.2-2.1,0.8-5.4,0.8-6.2
		c0-1.2-0.7,2.7-0.7,1.5c-0.5,4-1,7.9-1.5,11.8c-0.3,3.8-0.9,7.5-1.8,11.2c-1.8,6.8-7.2,12.4-13.5,16.7c-2.3,1.7-4.8,3.1-7.5,4.2
		c-4.4,1.9-9.2,3-14,3.1c-2.6,0-5.2-0.3-7.7-0.9c-5.8-1.4-11.1-4.5-15.2-8.9c-0.2-0.2-0.4-0.4-0.6-0.6c-1.7-1.9-3.2-4-4.4-6.2
		c-1.1-2.1-2-4.3-2.7-6.6c-0.6-1.8-1.1-3.7-1.4-5.6c0,0.9,0,1.8,0,2.5c-0.3-2-0.4-4-0.4-4.7c-0.1-2.1-0.1-2.6-0.3-2.3
		c-0.3,0.7-0.5,1.4-0.6,2.1c-0.2,1.2-0.5-0.4-0.6,1.5c0-0.7,0-1.2,0-1.7s0-1,0.1-1.7c-0.1,0.7-0.2,1.3-0.1,2c0,1,0.1,1.8-0.1,1.4
		c0-1.3-0.1-2.8,0.1-4.2c-0.2,0.8-0.3,1.7-0.3,2.6c0,0.7,0,1.4-0.1,2.1c-0.2-0.8,0.3-3.9,0.1-4.2c-0.1,0.7-0.2,1.4-0.2,2.1
		c0-2.2,0.1-3.9,0.1-4.5s-0.3-0.3-0.6,1.7c0.2-1.6,0.5-3.2,0.9-4.8l0,0c-0.2,0.7-0.5,1.9-0.6,2.6c0.1-0.8,0.3-1.7,0.5-2.5l-0.2,0.4
		c-0.2,0.6-0.3,1.2-0.4,1.9c0.1-0.6,0.2-1.1,0.3-1.7c-0.2,0.4-0.4,0.9-0.5,1.4c-0.5,1.6-0.8,3.3-0.9,5
		C211.4,126.4,214.5,135.3,220.4,142.1z"/>
	<path class="st0" d="M270.2,95.8c0.1-0.1,0-0.2,0.2-0.1c0.6,0.5,0.9,1.2,1.5,1.7l0.1-0.1c0.4,0.5,0.8,1,1.3,1.4
		c0.9,0.8,1.9,1.5,2.9,2.1c0-0.1,0-0.1,0.1-0.1c0.4,0.2,1,0.7,1.5,1.1l0.3,0.1c0.1,0,0.1,0,0.2,0l0.7,0.5c3.2,1.6,6.7,2.7,10.2,3.4
		c0.8,0.1,1.6,0.1,2.4,0.2l3.6,0.8c-0.1-0.6,2.6-0.6,2.1-1.2c0.7,0.1,1.8,0.2,1.8,0c0.2-0.5,0.8-1,2.5-1.3c0.7-0.1,1.8,0.1,2,0
		s-0.9-0.3-0.5-0.5c-2.5,0.1-5.1-0.1-7.6-0.4c-2.5-0.4-5-1-7.5-1.9c-1-0.3-1.9-0.6-2.8-1c-1.5-0.7-3-1.4-4.5-2.3
		c-1.5-0.9-2.9-1.9-4.3-3.1c-0.6-0.5-1.1-1-1.6-1.5c-0.5-0.4-0.8-0.8-1.1-1.1l-0.2-0.2c-0.5-0.6-1.2-1.3-1.8-2
		c-0.5-0.6-1.1-1.2-1.7-1.8c-0.5-0.5-1-0.9-1.5-1.4c0.1,0.3,0.2,0.6,0.2,0.9c-0.3-0.5-0.6-0.9-1-1.3c-1-1.2-0.8-0.3-0.8,0.4
		c0.1,0.4-0.5,0.1-0.2,0.8c-0.2-0.3-0.4-0.7-0.6-1c-0.2,0,0.8,1.2,0.4,1.1c-0.2-0.4-0.5-0.8-0.8-1.2c-0.1,0.3,0.8,1.5,0.6,1.5
		c-0.2-0.2-0.5-1.3-0.7-1.3c-0.1,0,0.2,0.4,0.3,0.7c-0.8-1.3-1.5-1.9-1-0.5c-0.2-0.5-0.5-1-0.8-1.5l0,0c0.1,0.2,0.3,0.6,0.4,0.8
		l-0.4-0.8c0,0.1,0,0.1,0,0.2c0.1,0.2,0.2,0.4,0.3,0.6l-0.3-0.5c0,0.2,0,0.4,0,0.6c0.1,0.6,0.3,1.2,0.5,1.7
		C266.2,91.1,268.1,93.6,270.2,95.8z"/>
	<path class="st0" d="M226.4,108.7c0-0.1-0.3-0.2,0.1-0.3c1.2-0.3,2.3-0.1,3.6-0.4l0.1-0.2c1-0.1,2-0.2,3.1-0.4
		c1.9-0.5,3.7-1.1,5.5-1.7c-0.1,0-0.1-0.1,0.1-0.2c0.7-0.3,1.8-0.6,2.9-1l0.4-0.2c0.1-0.1,0.1-0.2,0.1-0.2l1.3-0.5
		c5.1-2.7,9.9-5.9,14.3-9.7c0.9-0.9,1.8-1.8,2.7-2.6c1.4-1.2,3.2-2.7,4.5-3.8c-0.3-0.1,0.3-1,0.8-1.8s1-1.6,0.5-1.5
		c0.8-0.7,1.4-1.4,2-2.2c-0.2-0.5,0-1.6,1.8-4c0.7-0.9,2-2.2,2.2-2.6c0.3-0.6-1.3,1-1,0.4c-5.8,6.7-11.8,12.7-19.1,17.6
		c-1.3,1-2.7,1.9-4.1,2.8c-2.4,1.4-4.9,2.7-7.5,3.8c-2.7,1.1-5.5,2.1-8.3,2.8c-2,0.5-4,0.9-6,1.1l-0.5,0.1c-2.8,0.3-6.2,0.5-8.6,0.6
		c-1.1,0.1-2.2,0.2-3.3,0.2l1.4,0.4c-0.9-0.1-1.8-0.2-2.7-0.2c-2.4-0.1-1.1,0.4-0.2,0.9c0.7,0.3-0.3,0.4,0.8,0.7
		c-0.8-0.1-1.2-0.2-1.9-0.3c-0.1,0.2,2.4,0.3,1.8,0.4c-0.8-0.1-1.6-0.2-2.4-0.3c0.2,0.3,2.7,0.5,2.5,0.7c-0.4,0-2.2-0.6-2.4-0.4
		c0.4,0.1,0.7,0.2,1.1,0.2c-2.4-0.3-3.8-0.4-1.6,0.4c-0.8-0.1-1.8-0.5-2.6-0.6l0,0l1.5,0.4l-1.4-0.3l0.2,0.2c0.3,0.1,0.7,0.2,1,0.3
		l-0.9-0.2c0.2,0.2,0.5,0.3,0.7,0.4c0.9,0.4,1.8,0.7,2.7,0.9C216.5,109.2,221.4,109.3,226.4,108.7z"/>
	<path class="st0" d="M199.6,100.7c-0.2-0.1-0.7,0.9-0.3-0.8c1.4-5.2,3.4-9,5.1-13.9c-0.1-0.2-0.1-0.3-0.2-0.5
		c1.6-3.8,3.5-7.5,5.6-11c3.4-6.7,8.1-12.7,13.8-17.6c-0.2,0-0.4,0,0.2-0.5l2-1.6c0.7-0.5,1.5-1,2.4-1.5c0.9-0.6,1.8-1.1,2.7-1.5
		c0.5-0.2,0.9-0.5,1.4-0.7l1.5-0.6c0.6-0.3,1.2-0.6,1.8-0.8c0.4-0.2,0.5-0.4,0.6-0.5c1-0.3,1.8-0.6,2.7-0.8l2.5-0.5
		c10.9-2.7,22.4-1.4,32.5,3.6c10.1,5.2,18.3,15,22.8,26.7c2.1,4.9,3.5,10.1,4.2,15.4c1.1,7.7,1.1,17.9,2.4,25.6
		c0.5-0.7,1.5,3.7,3.1,7.5s3.6,7,3.3,5.1c1.1,2.5,2.4,4.9,4,7.1c0.8,1.4,1.8,2.6,3,3.7c0.7,0.2,1.9,0.8,4,2.7c1.1,0.9,2.4,2.2,4,3.9
		c2.1,2.1,4,4.4,5.7,6.9c1.9,2.8,3.4,5.8,4.4,8.9c0.1,0.4,0.3,0.8,0.4,1.2s0.2,0.8,0.3,1.2c0.2,0.8,0.4,1.4,0.5,2.1
		c0.2,1.3,0.3,2.3,0.5,2.8c0.1,0.7,0.2,0.7,0.3,0.2s0-1.6-0.1-2.6s-0.3-2-0.3-2.6s0-0.6,0.3,0.2c-0.7-2.8-1.7-5.5-3.1-8.1
		c-1.3-2.4-2.7-4.7-4.3-6.9c-3.1-4.2-6.3-8-9.2-11.7c-1.4-1.9-2.8-3.7-3.9-5.6c-0.6-0.9-1.1-1.9-1.6-2.8s-1-1.9-1.3-2.9
		c-1.6-4.1-2.8-8.5-3.4-12.9c-1.4-9.1-1.4-19-3.2-29.3c-1.7-10.6-6-20.7-12.5-29.2c-2-2.4-4.1-4.7-6.4-6.8
		c-3.8-3.5-8.2-6.4-12.9-8.6c-0.7-0.3-1.4-0.6-2.1-0.9l-2.2-0.9c-1.5-0.5-3-1-4.6-1.5c-1.6-0.3-3.2-0.8-4.9-1s-3.4-0.6-5.1-0.6
		c-7.3-0.6-14.7,0.2-21.7,2.5c-5.4,1.7-10.5,4.4-15,7.8l-2.2,1.7l-2,1.8c-2.6,2.4-5,5.1-7.2,7.9c-1,1.4-2,2.8-2.9,4.2
		s-1.8,2.8-2.6,4.2c-2.8,5-5.2,10.1-7.2,15.4c-1.8,4.6-3.1,8.5-4,11.3c-0.2,0.7-0.4,1.4-0.6,2.1c-2,6.2-3.9,13.1-5.9,19.5
		s-4.2,12.5-6.2,17.3c-1.7,4.5-3.8,8.9-6.3,13.1l2-2.6l1.7-2.4c-1.2,2.2-2.6,4.2-3.8,6s-2.2,3.1-2.8,3.9c-0.8,1-1.4,1.9-2,2.5
		s-0.9,1.1-1.2,1.5c-0.5,0.7-0.5,0.9-0.1,0.8c0.6-0.3,1.3-0.7,1.9-1.2c0.8-0.6,1.7-1.4,2.5-2c1.1-1,1.1-0.7,1.2-0.5s0.4,0.2,2-1.6
		c-0.5,0.7-1,1.3-1.4,1.8l-1.3,1.5l-1.3,1.5l-1.6,1.6c0,0.3,1.9-1.6,3.4-3.5c0.4-0.5,0.8-0.9,1.1-1.3s0.6-0.8,0.8-1
		c0.4-0.5,0.6-0.7,0.4-0.1c-1,1.3-2.2,2.7-3.3,4c-0.6,0.7-1.2,1.3-1.8,2s-1.2,1.3-1.9,1.9c0.7-0.4,1.3-0.9,1.9-1.5l1.4-1.3
		c0.5-0.5,0.9-1,1.4-1.6l1.4-1.5c0.4-0.5,0.8-0.9,1.1-1.3c0.6-0.8,1-1.2,1-1c-0.3,0.4-0.8,1.1-1.4,1.9s-1.5,1.6-2.3,2.5
		s-1.6,1.6-2.2,2.2c-0.4,0.4-0.8,0.8-1,1.3c0.5-0.4,1-0.8,1.4-1.2c0.4-0.4,0.8-0.8,1.2-1.2l1-1.2c-2.5,2.9-5.1,5.5-7.9,8.1
		c-0.6,0.6-0.7,0.8,0,0.5c0.5-0.2,1-0.5,1.5-0.8c0.6-0.4,1.5-1,2.5-1.8c-3.1,2.6-6.5,4.9-10.1,6.9l0,0l3-1.7l0.8-0.5l0.8-0.5
		l1.3-0.9c-1.7,1.2-3.5,2.4-5.4,3.4c0.3-0.1,0.7-0.2,1.1-0.4l2.1-1.1c0.7-0.4,1.4-0.9,2.1-1.4c-0.6,0.4-1.1,0.8-1.8,1.2l-1.9,1.1
		c1.2-0.4,2.3-0.9,3.4-1.5c1.1-0.7,2.2-1.3,3.2-2l2.9-2.1c0.9-0.7,1.6-1.4,2.4-2c0.6-0.5,1.2-1.1,1.8-1.7c3.8-4.1,7-8.6,9.8-13.4
		c2.7-4.7,5-9.6,7-14.6c2-5,3.7-10,5.3-15S198.1,105.6,199.6,100.7z"/>
	<path class="st0" d="M252.5,244.3c0.1-0.1,0.1-0.2,0.2-0.1c0.3,0.3,0.2,0.7,0.4,1l0.2-0.1l0.3,0.9c0.3,0.5,0.7,1,1.1,1.4
		c0-0.1,0.1-0.1,0.1-0.1c0.2,0.2,0.4,0.5,0.5,0.8l0.1,0.1c0,0,0.1,0,0.1,0c0.1,0.1,0.2,0.2,0.2,0.4c1.2,1.2,2.6,2.4,4,3.6
		c0.4,0.2,0.7,0.4,1,0.7c0.4,0.4,0.8,0.9,1.1,1.4c0.4-0.4,1.5,0.4,1.7-0.2c0.2,0.3,0.6,0.7,0.7,0.6c0.6-0.4,1.3-0.4,1.9,0
		c0.3,0.2,0.5,0.8,0.7,0.8s-0.1-0.6,0.2-0.5c-1.7-2-3.6-3.8-5.2-5.9c-1-1-1.9-2-2.6-3.1c-0.9-1.2-1.7-2.5-2.5-3.9l-0.1-0.1
		c-0.4-0.8-0.9-1.5-1.5-2.2c-0.3-0.2-0.6-0.4-0.9-0.7c0,0.2,0,0.4,0,0.5c-0.2-0.3-0.3-0.6-0.5-0.7c-0.6-0.6-0.6,0-0.8,0.4
		c0,0.3-0.4,0.1-0.4,0.5c-0.1-0.2-0.1-0.3-0.3-0.5c-0.2,0,0.4,0.6,0.1,0.6c-0.1-0.2-0.2-0.4-0.4-0.6c-0.2,0.2,0.3,0.8,0.1,0.9
		c-0.1-0.1-0.1-0.7-0.3-0.6c0,0,0.1,0.2,0.1,0.3c-0.4-0.6-0.8-0.9-0.8-0.1c-0.1-0.3-0.2-0.5-0.3-0.8l0,0c0,0.1,0.1,0.3,0.1,0.4
		l-0.2-0.4l-0.1,0.1c0,0.1,0.1,0.2,0.1,0.3l-0.1-0.3c0,0.1-0.1,0.2-0.1,0.3c0,0.3,0,0.7,0,1C251.1,241.7,251.8,243,252.5,244.3z"/>
	<path class="st0" d="M248.1,194.8c0.1,0,0.2-0.3,0.2,0.2c0.1,1.5-0.2,2.7-0.2,4.2l0.2,0.1c-0.1,1.1-0.2,2.4-0.2,3.6
		c0,2.3,0.1,4.5,0.1,6.8c0.1-0.1,0.1-0.1,0.1,0.1c0,0.9,0,2.2,0,3.6v0.6c0,0.1,0.1,0.2,0.1,0.2c0,0.6,0,1.1,0,1.6
		c0.3,6.6,0.6,13.3,1,20.6c0.1,1.5,0.3,3.1,0.4,4.6c0.1,2.2-0.1,4.9-1,6.6c0.2,0,0.2,0.3,0.1,0.7c-0.1,0.5-0.3,1-0.6,1.4
		c-0.6,1-1.4,1.8-0.7,1.7c-1.2,1-3.2,1.9-3.2,2.1c-0.1,0.5-0.5,1-0.9,1.3c-1,0.8-2.1,1.5-3.2,2.1c-0.6,0.4-1.3,0.7-1.9,1.1
		c-0.4,0.3-0.8,0.6-1.1,0.9c-0.2,0.3,0.2,0,0.5-0.1s0.7-0.4,0.5-0.1c1.7-1.3,4.1-2.2,6.8-3.5c1.4-0.7,2.8-1.5,4-2.5
		c1.4-1.1,2.5-2.6,3.1-4.2c0.6-1.5,0.9-3.2,1-4.8c0.1-1.5,0-2.9,0-4.2v-8.2c-0.2-3.8-0.3-29.3-0.1-35.8V195c0-3.6,0-7.9-0.2-10.9
		c-0.1-1.4-0.3-2.8-0.4-4.2c-0.1,0.6-0.2,1.2-0.3,1.8c0.1-1.1,0-2.3-0.1-3.4c-0.2-3-0.5-1.3-0.9-0.1c-0.2,0.8-0.4-0.3-0.6,1
		c0-0.9,0-1.4,0-2.4c-0.2-0.1,0.1,2.9-0.2,2.3c0.1-0.9,0-1.9,0-2.9c-0.2,0.3-0.1,3.3-0.3,3.1c-0.1-0.5,0.3-2.7,0-2.9
		c-0.1,0.5-0.1,0.9-0.1,1.4c-0.1-2.9-0.3-4.5-0.6-1.9c0-0.9,0.1-2.2,0.1-3.2l0,0c0,0.5,0,1.3-0.1,1.8v-1.7l-0.1,0.3
		c0,0.4-0.1,0.8-0.1,1.3v-1.1c-0.1,0.3-0.2,0.6-0.3,0.9c-0.2,1.3-0.4,2.6-0.4,3.3C248.2,183.3,248.1,189.1,248.1,194.8z"/>
	<path class="st0" d="M263.4,278c0.1,0-0.5-0.8,0.6,0.2c1.5,1.3,3.1,2.5,4.9,3.4c1.5,0.9,3,1.6,4.7,2.4h0.3l8,4.2l15.3,7.5
		c-0.1-0.1-0.1-0.2,0.4,0c2.1,1,5,2.5,8,4l1.4,0.6c0.2,0.1,0.4,0.1,0.5,0.1c0.7,0.4,1.5,0.7,2.3,1c0.5,0.2,1,0.3,1.5,0.3
		c0.6,0,1.2,0,1.8-0.2c0.4-0.2,0.9-0.4,1.2-0.7c0.3-0.2,0.6-0.5,0.9-0.8c0.4-0.5,0.8-1.1,1.2-1.6c0.6-1,1.1-2,1.5-3.1
		c0.8-2.1,1.3-4.3,1.6-6.5c0.5-4.3,0.5-8.7,0.1-13.1c-0.5-9-2.3-17.8-5.2-26.3c-1.4-3.6-3-7.1-4.9-10.5c-1.5-2.7-3.2-5.2-5-7.6
		c-1.8-2.4-3.8-4.7-6-6.7c0.1,0.5-2.3-1.5-4.7-3s-4.8-2.6-3.8-1.7c-1.6-1-3.3-1.9-5.1-2.7c-0.8-0.3-1.6-0.6-2.1-0.8
		c-0.3-0.1-0.7-0.2-1-0.2c-1.1,0.1-2.2,0-3.3-0.2c-1.2-0.2-2.4-0.3-3.6-0.3c-1.8,0-3.6,0.1-5.3,0.5c-1.7,0.3-3.4,1.1-4.8,2.1
		c-0.9,0.7-1.7,1.7-2.1,2.8c-0.2,0.5-0.1,0.5,0,0.2s0.4-0.6,0.7-1c0.6-0.7,1.3-1.3,0.8-0.7c1.6-1.9,4.5-2.9,7.5-3.2
		c1.5-0.1,3,0,4.5,0.2c0.8,0.1,1.5,0.3,2.3,0.5l1.2,0.3c0.4,0.1,0.8,0.2,1.1,0.4c6.1,2.1,11.6,5.5,16.2,10
		c4.7,4.6,8.5,9.9,11.2,15.8c2.8,6.1,4.8,12.5,5.9,19.1c1,5,1.5,10.2,1.7,15.3c0.3,4,0,8-0.7,11.9c-0.4,2.1-1,4-2,5.9
		c-0.2,0.4-0.5,0.8-0.7,1.2c-0.1,0.2-0.3,0.3-0.4,0.4c-0.1,0-0.1,0-0.4,0c-0.4-0.1-0.8-0.3-1.2-0.5l-25-12.4l-10.2-5.1l-4.1-2
		c-1-0.5-1.9-1-2.7-1.7c-0.3-0.2-0.6-0.5-0.9-0.8c-0.6-0.6-1.1-1.3-1.4-2.1c-0.3-0.9-0.5-1.8-0.5-2.8c0-2.3,0.1-4.6,0.4-6.9
		c0.4-4.8,0.8-9.4,1-13.2c0.2-3.5,0.3-7,0.5-10.5c-0.2,1.6-0.5,3.1-0.7,4.4c0.3-3.6,0.7-7.1,0.7-8.5c0.4-7.6-0.2-3.3-0.9-0.4
		c-0.4,2.1-0.4-0.8-0.8,2.5c0.2-2.4,0.3-3.6,0.6-5.9c-0.1-0.3-0.6,7.3-0.7,5.7c0.3-2.3,0.4-4.9,0.6-7.2c-0.3,0.8-0.8,8.2-1,7.9
		c0.1-1.3,0.9-6.7,0.7-7.1c0-0.1-0.3,2.3-0.4,3.5c0.6-7.3,0.7-11.4-0.2-4.7c0.2-2.3,0.6-5.6,0.8-8l0,0c-0.1,1.2-0.4,3.3-0.5,4.5
		l0.4-4.2l-0.2,0.7c-0.1,1-0.2,2.1-0.4,3.2c0.1-0.9,0.2-1.9,0.3-2.8c-0.1,0.7-0.3,1.5-0.5,2.3c-0.5,3.3-1,6.4-1.2,8.2
		c-0.7,7.2-1.4,14.4-2.1,21.6l-1,10.8c-0.2,2-0.2,4,0,6c0.1,1.1,0.4,2.2,0.9,3.3C262.1,276.2,262.7,277.1,263.4,278z"/>
	<path class="st0" d="M224.5,280.4c0,0.1,0.7-0.3-0.2,0.5c-3.1,2.3-6,3.8-9.1,6.1l-0.1,0.3l-7.9,5.1l-14.6,10.2c0.2,0,0.2,0-0.2,0.3
		l-1.1,0.8c-0.4,0.3-0.8,0.5-1.1,0.8c-0.3,0.2-0.6,0.3-0.9,0.5c-0.3,0.1-0.3,0-0.4,0s-0.1,0-0.2-0.2c-0.2-0.2-0.3-0.5-0.4-0.8
		c-0.2-0.4-0.3-0.7-0.4-1.1c0-0.2-0.1-0.3-0.2-0.5c-0.2-1.5-0.4-2.9-0.5-4.2c-0.6-4.2-0.9-8.5-0.9-12.7c-0.1-2.1,0.1-4.3,0.1-6.5
		c0.1-1.1,0.2-2.2,0.3-3.2s0.2-2.2,0.3-3.3c0.5-4.4,1.4-8.8,2.5-13.1c1.2-4.5,2.6-8.9,4.3-13.1c0.8-1.8,1.5-3.7,2.4-5.5
		c0.4-0.9,0.9-1.8,1.3-2.7s0.9-1.7,1.4-2.6c0.4-0.6,0.7-1.3,1.1-1.9l1.2-1.9c0.8-1.3,1.8-2.7,2.7-3.9c1.8-2.5,3.8-4.7,6.1-6.8
		c-0.5,0.1,1.6-2.3,4-4s5-2.8,3.6-2.6c2-0.7,4-1.2,6.1-1.4c2-0.2,3.5,0.1,3.7,0c1.2-0.3,2.5-0.2,3.8,0.2c1.5,0.4,2.9,1,4.1,1.9
		c1.9,1.4,3.5,3.2,4.6,5.2c2.1,3.9,2.3,8.6,0.5,12.6c-0.2,0.5-0.1,0.5,0.1,0.2c0.3-0.6,0.6-1.1,0.8-1.7c0.1-0.4,0.2-0.7,0.4-1.1
		s0.1-0.6,0.2-0.8c0.1-0.4,0.2-0.5,0.1,0.2c0.9-6.5-2.1-13-7.8-16.4c-1.8-1-3.8-1.7-5.9-2.1c-4-0.6-8.1-0.1-11.9,1.5
		c-3.6,1.5-6.8,3.7-9.6,6.5c-2.6,2.6-5,5.5-7,8.6c-1,1.5-2,3.1-3,4.6s-1.9,3.1-2.7,4.8c-3.4,6.5-6.2,13.4-8.2,20.5
		c-1.7,6.2-2.8,12.6-3.4,19c-0.5,5.1-0.6,10.2-0.3,15.3c0,1.4,0.2,2.7,0.3,4.1c0.1,0.7,0.1,1.4,0.2,2.1s0.2,1.4,0.3,2.1
		c0.2,1.5,0.4,2.9,0.7,4.4c0.2,0.9,0.6,1.8,1.1,2.5c0.3,0.5,0.7,0.9,1.2,1.3c0.5,0.4,1.1,0.7,1.7,0.9c1,0.3,2,0.2,2.9-0.1
		c0.7-0.2,1.4-0.6,2-1c0.6-0.4,1-0.7,1.5-1l1.4-1l5.4-3.7l10.1-7l14.7-10.1l1.3-0.9c2.1-1.4,4.2-3,6-4.8c1-1,1.9-2.1,2.7-3.2
		c0.8-1.2,1.4-2.4,2-3.7c1-2.4,1.7-4.9,2.1-7.5c0.3-2.2,0.5-4.5,0.5-6.7c0-3.7-0.2-7.4-0.4-11.1c-0.1,1.7-0.1,3.3-0.2,4.7
		c0-3.8-0.1-7.5-0.3-9c-0.6-8-0.7-3.4-0.9-0.4c-0.1,2.2-0.4-0.8-0.5,2.7c-0.1-2.5-0.1-3.7-0.2-6.2c-0.1-0.3,0.4,7.6,0.1,5.9
		c0-2.4-0.2-5.1-0.4-7.5c-0.1,0.4,0,2.6,0.1,4.6c0.1,1.2,0.1,2.4,0,3.6c-0.1-1.3,0-7-0.3-7.4c-0.1-0.1,0.1,2.4,0.1,3.6
		c-0.2-3.8-0.5-6.8-0.7-7.9s-0.3-0.4-0.2,3c-0.1-2.4-0.3-5.8-0.6-8.4l0,0c0.1,1.3,0.3,3.5,0.4,4.6c-0.1-1.4-0.2-2.9-0.4-4.3
		c0,0.2,0,0.5,0,0.8c0.1,1.1,0.2,2.2,0.2,3.3l-0.2-2.9c0,0.7,0,1.6,0,2.5c0.1,3.4,0,6.7,0.1,8.6c0.1,3.7,0.2,7.5,0.2,11.2
		c0,3.7-0.2,7.4-0.6,11c-0.4,3.4-1.5,6.7-3.3,9.6C230.2,276.1,227.5,278.3,224.5,280.4z"/>
	<path class="st0" d="M326.8,172.8c0.1-0.2-2.6-0.4,1.6-0.5c6.5-0.1,12.4,0,18.3,0.1l8.7,0.1h0.2c0,0,0.1,0,0.1,0v0.1
		c0.1,0,0.2,0,0.4,0l-0.1,0.2v0.1l0,0v0.2l-0.2,1c-0.3,1.3-0.5,2.7-0.7,4s-0.3,2.7-0.5,4s-0.2,2.7-0.4,4.1c-0.3,5.5-0.4,11-0.1,16.4
		c0.7,10.1,2.1,19.9,3.1,29.6s1.8,19.3,2.1,29c0.1-0.5,0.2-0.8,0.3,1.2c0.4,8,0.3,19.2-0.2,30.7c0,1.7-0.1,3.4-0.2,5.1
		c0,0.6,0,1.3,0.2,1.9c-0.1,2.6-0.4,5.1-0.5,7.4s-0.4,4.6-0.6,6.7c-0.6,7.1-1.3,14.1-2.2,21.2l-0.4,2.6l-0.1,0.7v0.2v0.3v0.3
		c0,0,0,0.1,0,0.1h-0.1l-0.6,0.1l-10.3,1.4c-14.3,1.7-28.8,2.9-43.5,3.6c-29.4,1.4-59.7,0.9-91.1-0.7c-13.3-0.5-26.6-1.3-39.4-2.2
		c-5.9-0.5-12.2-1-18.8-1.6l-18.4-1.7c-0.2-7.7-0.4-15.1-0.6-21.8c-0.5,1.4-1.3-9.1-1.9-19s-1.2-18.9-1.7-14.3
		c-0.2-12.4-0.4-31-0.7-31.9c-1-2.9-2.3-12.4-2.8-45.3c-0.1-12.9,0.6-32.6,0.4-37.2c-0.2-7.1-0.9,16.7-1.1,9.5
		c-0.4,27.2-0.5,54.2-0.2,81.1c0.2,13.4,0.4,26.8,0.7,40.2l0.5,20.1c0.3,8.2,0.5,16.5,0.8,24.7l34.7,3.2c10.1,0.9,20.3,1.7,30.5,2.4
		c20.4,1.5,41,2.6,61.8,3.2c8.2,0.1,28.3,0.5,54.7-0.8c13.2-0.6,28-1.8,43.5-3.8l7.7-1l2.8-0.3l0.4,0c0.1,0,0.3,0,0.2-0.1l0.1-0.7
		l0.2-1.4c0.3-1.8,0.5-3.6,0.8-5.4c0.3-2,0.6-4,0.9-6s0.6-4,0.8-6.1c1-8.1,1.8-16.5,2.3-24.8c1-16.7,1.1-33.5,0.2-50.2
		c-0.5-8.2-1.1-16.3-2-24.1s-1.8-15.3-2.4-22.5c-0.6-6.7-0.8-13.5-0.4-20.3c0-0.8,0.1-1.6,0.2-2.4s0.2-1.5,0.2-2.3
		c0.1-1.5,0.4-3,0.6-4.4c0.1-0.7,0.3-1.4,0.4-2.1l0.4-2.1l0.5-2.1c0.3-1.3,0.7-2.7,1-4c0.2-0.7,0.3-1.3,0.5-2l0.2-1l0.1-0.5
		c0.1-0.1-0.1-0.1-0.1-0.1h-39.2c-31,0-68.5-0.2-94.8,0l-36.4,0.5l15.4,0.8c-12.4-0.2-24.8-0.4-29.5-0.2c-26.4,0.1-11.4,0.9-1.3,1.8
		c7.3,0.4-2.6,0.8,8.8,1.4l-20.6-0.3c-0.9,0.3,25.4,0.2,19.7,0.7c-7.9-0.2-16.8-0.2-25.1-0.3c2.9,0.5,28.6,0.6,27.3,1
		c-4.4,0-23.2-0.9-24.8-0.4c-0.3,0.1,7.9,0.2,12.1,0.3c-25.4-0.2-39.4,0-16.2,1c-8.1-0.1-19.4-0.6-27.9-0.7h0l15.5,0.4l-14.5-0.3
		l2.5,0.3c3.6,0.1,7.2,0.2,11,0.3l-9.6-0.2c2.4,0.2,5.2,0.4,8.2,0.7c11.4,0.6,22.4,1.2,28.6,1.4
		C226.6,172.2,276.9,172.7,326.8,172.8z"/>
</g>
</svg>
