<?xml version="1.0" encoding="UTF-8"?>
<svg id="Lager_1" xmlns="http://www.w3.org/2000/svg" version="1.1" viewBox="0 0 500 500">
  <!-- Generator: Adobe Illustrator 30.1.0, SVG Export Plug-In . SVG Version: 2.1.1 Build 136)  -->
  <defs>
    <style>
      .st0 {
        fill: #0096c3;
      }

      .st1 {
        fill: #1d1d1d;
      }

      .st2 {
        fill: #fff;
      }

      .st3 {
        fill: #5e5e5e;
      }

      .st4 {
        fill: #f90055;
      }
    </style>
  </defs>
  <g>
    <rect class="st3" x="48.5" y="123.7" width="331.3" height="253.9"/>
    <g>
      <path class="st1" d="M46.1,179.7c.2,0,.4-.8.5.5.1,4.3-.6,7.7-.5,12.1.1.1.2.2.3.3-.2,3.3-.4,6.8-.7,10.3,0,6.5-.1,13-.1,19.5.1-.2.2-.2.3.4,0,2.7-.1,6.4-.2,10.3,0,.6,0,1.1,0,1.7,0,.4.2.6.2.6,0,1.7-.1,3.3-.2,4.7.3,18.9.7,38.2,1.1,59,.2,4.4.4,8.8.5,13.1,0,6.3-.3,14.3-.5,20.4,1.2-.9,1.5,14,2.7,11.1,0,4.1-.2,10.2,0,10.5,1,1,2,4.1,2.4,15,0,4.3-.5,10.8-.3,12.3.3,2.4.8-5.5,1.1-3.1.9-31.6,1-62,1.6-93.8-.3-10.8.8-83.8,1.3-102.6,0-.6,0-1.1,0-1.7.2-10.2.4-22.7,0-31.3-.2-4-.5-8-.7-12-.2,1.9-.4,3.6-.7,5.1,0-4.1.2-8.2,0-9.8-.3-8.7-1-3.8-1.8-.5-.4,2.4-.9-.9-1.3,2.9,0-2.7,0-4.1.2-6.8-.3-.3,0,8.4-.5,6.5.2-2.6,0-5.6,0-8.3-.5.9-.3,9.4-.8,9,0-1.5.7-7.6.2-8.2-.1-.1-.2,2.6-.2,4,0-8.4-.5-13-1.2-5.4,0-2.7.4-6.4.3-9.2,0,0,0,0,0,0,0,1.4-.2,3.8-.2,5.1,0-1.6,0-3.2.1-4.8,0,.2-.2.5-.2.8,0,1.2-.2,2.4-.2,3.6,0-1.1,0-2.1,0-3.2-.2.8-.4,1.7-.6,2.7-.4,3.8-1,7.4-1,9.4-.6,16.5-1,33.1-1.4,49.6Z"/>
      <path class="st1" d="M129.1,129.2c0-.2-1-.4.6-.5,5.3,0,9.6.7,14.9.6.1-.1.3-.2.4-.3,4.1.2,8.4.5,12.8.7,8.1,0,16.1.2,24.1.2-.2-.1-.3-.2.5-.3,3.3,0,7.9.2,12.7.3.7,0,1.4,0,2.1,0,.5,0,.7-.2.8-.2,2.2,0,4.1.1,5.8.2,23.4-.2,47.2-.6,73-.8,5.5-.2,10.9-.4,16.2-.5,7.8,0,17.7.4,25.3.6-1.1-1.2,17.4-1.4,13.7-2.6,5.1.1,12.6.3,13,0,1.2-1,5.1-2,18.5-2.4,5.3,0,13.3.5,15.2.3,2.9-.3-6.8-.8-3.9-1.1-39-1-76.6-1.3-116-2-13.4.3-103.7-1.1-126.8-1.7-.7,0-1.4,0-2.1,0-12.6-.3-28-.5-38.7-.2-4.9.2-9.9.4-14.9.7,2.3.2,4.4.5,6.3.7-5.1-.1-10.1-.2-12.1,0-10.8.3-4.7,1-.6,1.8,3,.4-1.1.9,3.6,1.3-3.4,0-5-.1-8.4-.2-.4.3,10.4,0,8,.5-3.2-.2-6.9,0-10.2-.1,1.2.5,11.7.4,11.1.8-1.8,0-9.5-.8-10.1-.2-.1.1,3.2.2,4.9.2-10.4,0-16.1.4-6.6,1.2-3.3,0-7.9-.4-11.4-.4,0,0,0,0,0,0,1.7,0,4.7.2,6.3.3-2,0-3.9,0-5.9-.1.3,0,.7.2,1,.2,1.5,0,3,.2,4.5.2-1.3,0-2.6,0-3.9,0,1,.2,2.1.4,3.3.6,4.7.4,9.1,1,11.7,1.1,20.4.6,40.9,1.2,61.3,1.6Z"/>
      <path class="st1" d="M130.1,383.9c0-.2-1-.4.6-.5,5.3,0,9.6.7,14.9.6.1-.1.3-.2.4-.3,4.1.2,8.4.5,12.8.7,8.1,0,16.1.2,24.1.2-.2-.1-.3-.2.5-.3,3.3,0,7.9.2,12.7.3.7,0,1.4,0,2.1,0,.5,0,.7-.2.8-.2,2.2,0,4.1.1,5.8.2,23.4-.2,47.2-.6,73-.8,5.5-.2,10.9-.4,16.2-.5,7.8,0,17.7.4,25.3.6-1.1-1.2,17.4-1.4,13.7-2.6,5.1.1,12.6.3,13,0,1.2-1,5.1-2,18.5-2.4,5.3,0,13.3.5,15.2.3,2.9-.3-6.8-.8-3.9-1.1-39-1-76.6-1.3-116-2-13.4.3-103.7-1.1-126.8-1.7-.7,0-1.4,0-2.1,0-12.6-.3-28-.5-38.7-.2-4.9.2-9.9.4-14.9.7,2.3.2,4.4.5,6.3.7-5.1-.1-10.1-.2-12.1,0-10.8.3-4.7,1-.6,1.8,3,.4-1.1.9,3.6,1.3-3.4,0-5-.1-8.4-.2-.4.3,10.4,0,8,.5-3.2-.2-6.9,0-10.2-.1,1.2.5,11.7.4,11.1.8-1.8,0-9.5-.8-10.1-.2-.1.1,3.2.2,4.9.2-10.4,0-16.1.4-6.6,1.2-3.3,0-7.9-.4-11.4-.4,0,0,0,0,0,0,1.7,0,4.7.2,6.3.3-2,0-3.9,0-5.9-.1.3,0,.7.2,1,.2,1.5,0,3,.2,4.5.2-1.3,0-2.6,0-3.9,0,1,.2,2.1.4,3.3.6,4.7.4,9.1,1,11.7,1.1,20.4.6,40.9,1.2,61.3,1.6Z"/>
    </g>
    <g>
      <g>
        <path class="st2" d="M441.7,283.2l1.1-221.7s1-6.4-2.9-7.9c-16.2-6.4-62.2-8.7-67.4,5.6s4.3,6.9,4.3,6.9l4.5,242.8,60.3-25.7Z"/>
        <g>
          <path class="st4" d="M417.8,203.3c-20,8.2-41.2,0-41.2,0l2.5,216.2c0,6.8,1.9,13.5,5.7,19,4.9,7,13.8,15.5,29.9,15.5,27-.1,26.7-29.8,26.7-29.8.4-82.6.1-141.1,1.7-223.7,0,0-10.9-3-25.2,2.9Z"/>
          <path class="st1" d="M374.2,263.4c.2,0,.4-2.6.5,1.6.2,13.3-.5,24-.4,37.3.1.3.2.6.3,1-.2,10.3-.4,21-.6,32,0,20.2,0,40.3,0,60.3.1-.5.2-.8.3,1.2,0,4.2,0,9.1,0,14.5,0,2.7,0,5.5,0,8.4,0,1.5,0,2.8,0,4.6,0,1.7.2,3.3.5,5,.3,2,.8,3.9,1.5,5.8.6,1.4.8,1.8,1,2,1.1,2.8,2.6,5.4,4.2,7.7,1.6,2.2,3.4,4.2,5.3,5.9,3.2,2.8,6.9,4.9,10.7,6.4,3.9,1.5,7.9,2.2,11.9,2.6,2,.2,4,.2,6,.1,1,0,2,0,3.1-.2.5,0,1-.1,1.5-.2l1.5-.3c1-.2,2.1-.5,3.1-.8,1-.4,2-.7,3-1.2,2-.9,3.9-2,5.6-3.4,3.5-2.7,6.1-6.3,7.9-10,1.8-3.8,2.9-7.8,3.4-11.9.1-1,.2-2,.3-3.1v-.8s0-.8,0-.8v-1.4c0-1.9,0-3.7,0-5.6,0-3.8,0-7.5,0-11.3-.1-30.2,0-61.2.2-93.5,0-13.6,0-27.3,0-40.4.3-19.5,1-44.3,1.5-63.3-1.2,2.9-.9-43.4-2.2-34.2.3-12.6.6-31.6.3-32.6-.9-3-1.9-12.7-2.1-46.3,0-6.6.1-14.9.2-22.2.1-7.3,0-13.5,0-15.8-.3-7.3-.6,17-1,9.7-.8,97.6-3.4,191.8-4.9,290.2,0,8.4-.1,28.8-.3,55.6,0,3.4,0,6.8,0,10.4,0,3-.5,6.3-1.4,9.3-.9,3.1-2.4,6-4.3,8.4-1,1.2-2.1,2.3-3.4,3.2-1.3.9-2.7,1.6-4.2,2.2-1.5.6-3.1.9-4.8,1.2-.9,0-1.7.2-2.6.2h-1.3c0,0-1.4,0-1.4,0-3.7,0-7.4-.6-10.8-1.7-3.4-1.1-6.6-2.8-9.4-5.1-2.7-2.3-5-5.3-6.6-8.5-1.6-3.3-2.5-6.9-2.8-10.6,0-1,0-1.8,0-2.9v-3.2c0-2.1,0-4.3,0-6.4,0-8.5,0-17,0-25.3,0-16.7,0-32.8.1-47.8.1-29.9.2-54.9.3-69.4,0-1.8,0-3.5,0-5.3.1-31.7.2-70.1-.2-96.9-.3-12.3-.5-24.8-.8-37.2-.2,5.8-.4,11.1-.6,15.8,0-12.7.1-25.3,0-30.2-.4-27-1-11.7-1.9-1.3-.4,7.5-.9-2.6-1.2,9.1,0-8.4,0-12.6,0-21.1-.3-1,0,26-.4,20.1.1-8.1,0-17.2,0-25.6-.5,2.9-.2,29.2-.7,27.9,0-4.6.7-23.7.1-25.3-.1-.3-.1,8.1-.2,12.3,0-26-.6-40.3-1.2-16.6,0-8.2.3-19.9.2-28.6,0,0,0,0,0,0,0,4.3-.1,11.8-.2,15.8,0-4.9,0-9.9,0-14.8,0,.8-.1,1.7-.2,2.6,0,3.7-.1,7.4-.2,11.2,0-3.3,0-6.6,0-9.8-.2,2.5-.4,5.3-.5,8.4-.4,11.7-.9,22.9-1,29.2-.4,51.1-.7,102.4-.9,153.4Z"/>
          <path class="st1" d="M386.7,54.4c0-.1-.5,0,.2-.3,2.3-.7,4.3-.8,6.6-1.3v-.2c2-.2,4-.5,5.9-.7,1.8-.3,3.6-.5,5.3-.6,1.7-.1,3.5-.2,5.3-.2,0,0-.1-.1.2-.1,1.5,0,3.7,0,5.8.2.3,0,.6,0,.9,0,.2,0,.3,0,.4-.1,1,0,1.8.2,2.6.2,4.4.3,8.8,1,13.2,2.3,2.2.7,4.3,1.5,6.4,2.6.5.3,1,.6,1.5.8.4.3.9.6,1.2.9.2.2.4.4.5.7.1.3,0,.6-.1.9-.1.1-.3.3-.5.4-.3.2-.7.4-1,.6-.7.4-1.5.8-2.3,1.3-2.2,1.1-4.4,2.2-6.7,3.1-3.3,1.2-7.8,2.3-11.2,2.8.2.1-.2.3-.9.6-.7.2-1.6.5-2.5.7-.4.1-.9.2-1.3.3-.4,0-.8.2-1,.3-.5.2-.7.3-.3.4-1.2,0-2.6.3-3.8.3-1.2,0-2.1,0-2.2.2-.3.2-.9.6-2.2.7-.7,0-1.5.2-2.6.2-1.1,0-2.4,0-4-.2-.6,0-1.3-.2-2-.3-.7-.1-1.4-.3-2.1-.5-1.4-.3-2.5-.6-2.9-.7-1.4-.2,3.1,1,1.7.9,1.1.2,2.2.5,3.2.7,1.1.2,2.2.3,3.3.5.5,0,1.1.2,1.6.2h1.6c1.1.2,2.2.2,3.3.3,4.4,0,8.7-.3,12.9-1,4.2-.8,8.4-1.8,12.5-3.2,1-.4,2-.7,3.1-1.1,1-.4,2-.8,3-1.3,1-.4,2-.9,3-1.4l1.5-.8,1.1-.7c.4-.3.7-.7,1.1-1,.5-.8.9-1.8.8-2.7,0-1-.4-2-1-2.8-.1-.1-.2-.3-.4-.5-.1-.2-.4-.4-.5-.5-.3-.2-.6-.5-.9-.7-.3-.3-.7-.5-1.1-.7-.4-.2-.7-.4-1.1-.7-1.6-.9-3.7-1.9-6.2-2.8-4.9-1.8-11.2-3.1-17.6-3.5-3.3-.2-6.4-.2-9.5-.3-3.1,0-6.3.2-9.1.6-2.8.4-5.2.8-7.5,1.2-2.2.4-4,.8-5.3,1.1l-1,.2c-2.9.8-6.1,1.6-9.2,3.2-.8.4-1.6.9-2.3,1.5-.3.3-.7.6-1,.9-.3.4-.6.7-.9,1-.6.8-1.1,1.7-1.3,2.7-.2,1.1-.1,2.2.2,3.1.7,1.6,1.8,2.6,2.8,3.4,1.1.8,2.2,1.4,3.3,1.9-1-.6-1.8-1.3-2.5-1.9,2,1.5,4.3,2.5,5.1,2.8,2.4.9,3,.9,2.7.6-.3-.2-1.3-.8-2.1-1.4-1.2-.7.6-.2-1.3-1.2,1.4.7,2.1,1,3.5,1.5.1,0-1-.4-2-.8-1-.4-1.8-.8-1.3-.7,1.3.7,2.9,1.2,4.3,1.7-.2-.2-1.5-.7-2.6-1.1-1.1-.5-2.1-1-2-1.1.7.4,3.8,2,4.2,1.8,0,0-1.4-.6-2.1-.9,2.2.8,4,1.3,4.7,1.4.7,0,.3-.1-1.6-1,1.4.5,3.4,1.2,4.9,1.5h0c-.7-.2-2-.6-2.7-.8.8.3,1.7.5,2.6.7-.1,0-.3-.1-.4-.2-.6-.2-1.3-.4-1.9-.6.6.2,1.1.3,1.7.5-.4-.2-.9-.4-1.4-.6-2-.7-3.7-1.7-4.8-2.1-2-.8-4.1-1.9-5.5-3.1-.7-.6-1.2-1.3-1.4-1.7,0-.2,0-.3,0-.5,0,0,0-.2,0-.3,0-.1.1-.2.2-.4.1-.1.2-.3.3-.4l.4-.5c.4-.3.7-.6,1.1-.8.7-.5,1.7-.9,2.7-1.3,2-.8,4.2-1.4,6.4-2Z"/>
        </g>
      </g>
      <g>
        <rect class="st0" x="366.8" y="44.9" width="84.5" height="37.5" rx="10.2" ry="10.2" transform="translate(1.2 -7.2) rotate(1)"/>
        <path class="st1" d="M423.5,51c0-.2-.7-.4.4-.5,3.5-.3,6.3.3,9.8,0l.2-.3c2.7,0,5.5.2,8.4.3h1.5c.2,0,.4,0,.6,0,.4.1.7.4,1,.7.3.3.5.7.6,1.1,0,.1,0,.2,0,.3,0,0,0,.1,0,.2,0,0,0,0,0,.2v.2s-.1,2-.1,2c.1-.1.2-.2.2.3,0,2.2-.5,5.2-.8,8.3,0,.5,0,.9,0,1.4,0,.4.1.5.2.5-.1,1.4-.3,2.7-.4,3.8v2.6c-.1.4-.2.8-.4,1.2-.4.8-1.1,1.4-2,1.7,0,0,0,0-.2,0h-.3c0,0-.7.2-.7.2l-1.4.3c-.9.2-1.9.4-2.8.6-.9.2-1.9.3-2.8.5-1,.1-1.9.3-2.9.4-7.7,1.1-15.8,1.6-24.2,1.6-3.6.2-7.2.3-10.6.2-5.1-.2-11.6-.9-16.6-1.2.2.3-.5.5-1.5.7-.5,0-1.1.2-1.7.2-.6,0-1.3,0-1.9,0-2.7-.3-4.6-2.6-4.2-1.1-.6-.7-1.2-1.7-1.6-2.7-.4-1-.6-2.1-.6-3.1,0-.5,0-.9,0-1.3,0-.4,0-.7,0-1,0-.6,0-.9-.1-1-.9-.8-1.8-3.5-1.7-12.3.1-3.4.9-8.7.7-9.9-.2-1.9-1,4.4-1.2,2.5-.5,6.4-1.1,12.6-1.6,19l-.2,2.4c0,.6-.2,2.2,0,3.5.4,2.7,1.7,5.3,3.6,7.1,1.9,1.9,4.5,3.2,7.2,3.5.3,0,.7,0,1,0h.6s1.2.1,1.2.1h2.4c12.6.8,25.3,1.9,38.6,1.7,2.3-.2,7.8-.4,15-1.2,1.8-.2,3.7-.5,5.7-.8,1-.2,2-.4,3.1-.5.5-.1.9-.1,1.9-.4.8-.2,1.6-.5,2.4-.9,3.1-1.5,5.5-4.5,6.3-8,.2-.8.3-1.9.3-2.3,0-.5,0-1.1.1-1.7,0-1.1.2-2.2.3-3.3.4-4.5.7-9,1.1-13.3v-.2s0-.3,0-.3v-.7c0-.4,0-.9,0-1.3,0-.9-.3-1.7-.6-2.6-.6-1.6-1.5-3.1-2.7-4.3-1.2-1.2-2.6-2.2-4.1-2.8-1.5-.6-3.2-.9-4.7-.8-7.9.2-14.4.3-18.3.3-.5,0-.9,0-1.4,0-8.3.1-18.5.4-25.5,1-3.2.3-6.5.7-9.8,1.1,1.5.2,2.9.3,4.2.5-3.3,0-6.7,0-7.9.3-7.1.6-3,1.1-.3,1.9,2,.3-.7.9,2.4,1.2-2.2,0-3.3,0-5.6,0-.2.3,6.8-.3,5.3.3-2.1,0-4.5.2-6.7.2.8.4,7.7,0,7.4.4-1.2.1-6.3-.5-6.7,0,0,.1,2.1,0,3.2,0-6.8.3-10.6.9-4.3,1.4-2.2,0-5.2-.1-7.5,0,0,0,0,0,0,0,1.1,0,3.1,0,4.2,0-1.3,0-2.6,0-3.9,0,.2,0,.4.1.7.2,1,0,1.9,0,3,0-.9,0-1.7,0-2.6,0,.7.2,1.4.3,2.2.5,3.1.3,6,.7,7.7.7,13.4,0,26.9-.1,40.4-.4Z"/>
      </g>
    </g>
  </g>
  <g>
    <path class="st2" d="M194.1,307.3c.2,0,.2-1.4.6.7.6,3.3.8,6.3.7,9.2-.1,2.9-.4,5.9-1.1,8.5,0,.2.1.3.2.5-.4,1-.8,1.9-1.3,2.7-.3.4-.5.8-.9,1.1-.2.2-.3.3-.5.5l-.5.5c-.8.6-1.6,1.1-2.6,1.5-1,.4-2.1.7-3.3,1-4.3,1.2-9.6,1.2-15,1.5-5.4.3-10.8.5-16.1.8.3.1.4.2-.6.3-4.5.3-10.6.4-17,.6-.9,0-1.9.1-2.8.2-.7,0-.9.2-1,.3-2.9,0-5.5.2-7.9.2-3.9.2-7.8.5-11.8.7-1.9.1-3.5,0-4.8-.2-.6-.2-1.2-.3-1.6-.6-.5-.3-1-.6-1.4-1.1-.9-.9-1.5-2.3-2-3.8-.5-1.6-.8-3.3-1-5.2-.1-.9-.2-1.9-.2-2.8,0-1-.1-2-.1-2.9,0-2-.1-3.9-.1-5.9,0-8,.6-16.1,1.5-24.3.9-8.2,2-16.6,3.6-25,1.2-7.2,2.7-14.2,4.9-20.9,1.6-4.9,3.9-10.3,6.6-15.5,2.7-5.1,6-9.9,9.1-13.8-.9.3,2.2-4.6,5.9-8.6,3.6-4.1,7.5-7.3,5.1-6.3,2.8-2.1,6.4-4.4,9.6-6,3.1-1.7,5.7-2.6,5.9-2.9.6-.7,2-1.9,5.9-3.3,1.9-.6,4.5-1.3,7.9-1.5,1.7,0,3.6,0,5.8.3,2.1.3,4.5,1,7,2.1,1.9.9,3.9,2.2,5.7,3.8,1.8,1.6,3.4,3.6,4.6,5.6,1.2,2.1,2,4.2,2.5,6,.2.9.4,1.7.4,2.4,0,.7.1,1.2.2,1.6.1,1,.2.9.3.3,0-.3,0-.9,0-1.5,0-.7,0-1.4-.2-2.1-.2-1.5-.6-2.9-.8-3.7-.2-.8-.2-.9.4.3-.7-2-1.8-3.9-3-5.5-1.2-1.7-2.6-3.2-4.1-4.5-3.1-2.6-6.7-4.5-10.6-5.6-3.8-1-7.7-1.3-11.5-1-3.7.3-7.3,1.1-10.7,2.3-13.5,4.8-24.5,14.1-32.7,25-4.1,5.5-7.6,11.4-10.5,17.5-1.4,3.1-2.7,6.2-3.9,9.3-1.2,3.2-2.2,6.4-3.2,9.6-3.8,12.9-5.9,26-7.7,39.2-.2,2.3-.7,6.2-1.2,11.3-.4,5.2-.9,11.7-.8,19.1,0,1.9,0,3.8.2,5.7,0,2,.2,4.2.6,6.4.4,2.3,1,4.7,2.3,7.1.7,1.2,1.5,2.4,2.5,3.6,1.1,1.1,2.3,2.1,3.7,2.9,1.4.8,2.9,1.2,4.4,1.5,1.4.3,2.8.3,4,.3,2.5,0,4.6-.2,6.9-.2,4.5-.2,9-.4,13.5-.6,9.1-.4,18.3-.8,27.2-1.1,4.5-.2,8.9-.4,13.1-.5,4.2-.2,8.6-.2,13-1.1,2.2-.4,4.4-1,6.6-1.9,2.2-.9,4.2-2.2,6-3.8.4-.4.9-.8,1.3-1.3.4-.4.8-.9,1.1-1.4.7-.9,1.3-1.9,1.8-2.9,1-2,1.5-3.9,1.9-5.7.4-1.8.6-3.5.7-5.1.1-1.6.1-3.1.1-4.5,0-2.8-.3-5.3-.5-7.3-.1-1-.3-2-.5-3-1.4-8.9-4.5-17.9-6.6-26.5-2.2-8.6-3.8-17-5-24-1.1-6.4-2-12.9-2.6-19.5,0,1.5,0,3,0,4.4,0,1.4,0,2.7,0,4-.5-6.7-.6-13.4-.8-16-.2-7.2-.4-8.7-.7-7.8-.4.9-.7,4.3-1.2,7.1-.3,4-.9-1.4-1.2,4.9,0-4.5,0-6.8,0-11.4-.2-.3-.2,3.2-.2,6.4,0,3.2,0,6-.2,4.4,0-4.4-.1-9.3,0-13.8-.2.8-.4,4.7-.5,8.4,0,3.7,0,7-.2,6.7,0-1.2,0-4.4.1-7.4,0-3,.2-5.8,0-6.3,0,0-.1,1-.2,2.4,0,1.4,0,3.1,0,4.3,0-3.5,0-6.6,0-9.1,0-2.5,0-4.4,0-5.4,0-2.1-.5-.9-1.1,5.6.2-4.5.9-10.8,1.4-15.5,0,0,0,0,0,0-.3,2.3-.8,6.4-.9,8.6.2-2.7.5-5.4.8-8-.1.4-.2.9-.4,1.4-.3,2-.5,4-.7,6.1.1-1.8.3-3.6.5-5.3-.3,1.3-.6,2.8-.9,4.5-.9,6.3-1.6,12.4-1.6,15.9-.3,14,.8,28,3.1,41.9,1.2,6.9,2.7,13.8,4.5,20.5,1.8,6.7,3.7,13.2,4.8,19.5Z"/>
    <path class="st2" d="M235.4,306.9c.2,0,.7-1.4.3,1-.5,3.7-1,7.1-.9,10.7,0,.9,0,1.8.2,2.7,0,.9.3,1.9.4,2.8.2,1,.5,1.9.8,2.9.4,1,.8,2,1.3,2.9.2.1.4.3.6.4,1.5,3,3.8,5.7,6.6,7.8,2.7,2.1,5.9,3.6,9,4.6,5.8,1.7,11.4,2.1,16.7,2.4,5.2.3,10.5.6,15.7.8-.3-.1-.4-.3.7-.2,4.3.2,10.3.7,16.6,1.1.9,0,1.8,0,2.7.1.7,0,.9-.1,1-.2,2.8.2,5.3.4,7.6.6,3.8.2,8,.3,12.5-.5,2.2-.4,4.5-1.1,6.7-2.3,2.2-1.2,4.1-2.9,5.6-4.8,1.5-2,2.5-4.1,3.2-6.3.7-2.2,1.1-4.3,1.3-6.5.2-2.1.3-4.2.3-6.3,0-2.1-.2-4-.2-6.1-.9-16.1-3.8-32.3-8.4-48.7-2.1-6.9-4.4-13.7-6.7-20.2-1.7-4.8-3.6-10.3-5.8-15.7-2.2-5.4-4.8-10.6-7.5-14.9,0,1-3.4-3.8-7.1-7.5-1.8-1.9-3.8-3.6-5-4.4-1.3-.9-1.9-1.1-1.2,0-2.4-2.2-5.6-4.7-8.4-6.3-2.9-1.6-5.3-2.3-5.6-2.3-.4,0-1.1.2-2,.1-.5,0-1,0-1.7-.1-.7,0-1.4,0-2.3-.2-.8-.1-1.8-.1-2.9-.2-.5,0-1.1,0-1.7,0-.6,0-1.3,0-1.9,0-2.7.1-6,.3-9.7,1.4-2.9.8-6.4,2.2-9,4.1-.3.2-.7.5-1,.7-.3.2-.6.5-.8.7-.5.5-1.1.9-1.5,1.4-.8.9-1.4,1.7-1.6,2.1-.5.8-.4.8,0,.4.4-.4,1.1-1,1.7-1.7.2-.2.3-.3.5-.5.2-.1.4-.3.5-.4.3-.2.6-.4.8-.6.4-.3.5-.2,0,.3.9-.9,2-1.6,3-2.4,1.2-.6,2.2-1.3,3.5-1.8l.9-.4c.3-.1.6-.3.9-.3l1.9-.6c.6-.2,1.3-.3,2-.4l1-.2c.3,0,.7,0,1-.1l2-.2h2.1c.7,0,1.4,0,2.1,0,.7,0,1.4,0,2.1.2,1.4.2,2.7.4,4.1.7.7.2,1.4.3,2,.5l2,.6c2.6,1,5.1,2.1,7.3,3.6,1.2.7,2.3,1.6,3.4,2.4l1.6,1.4.8.7.8.7c4.1,3.9,7.6,8.6,10.6,13.7,6,10.2,10.1,21.9,13.9,33.7,3.7,11.9,6.7,24,8.6,36.4.7,4.2,2.5,14.5,2.8,28.2,0,3.3,0,6.7-.7,9.9-.7,3.2-2,5.9-4.2,7.5-2.1,1.7-5.5,2.4-9.4,2.5-1.9,0-4,0-6.2-.2-2.2-.1-4.4-.3-6.6-.4-8.9-.5-17.8-1.1-26.5-1.6-4.3-.3-8.6-.5-12.8-.8-4.1-.3-7.9-.7-11.3-1.5-1.7-.4-3.3-.9-4.7-1.6-1.4-.6-2.7-1.4-3.8-2.2-.6-.4-1-.9-1.5-1.3-.4-.5-.9-.9-1.2-1.5-.2-.3-.4-.5-.5-.8-.2-.2-.3-.5-.5-.8-.1-.3-.3-.5-.4-.8-.1-.3-.2-.6-.3-.8-.9-2.2-1.2-4.5-1.3-6.7,0-2.2,0-4.2.3-5.9,0-.8.2-1.7.4-2.5.7-3.8,1.7-7.9,2.9-12.2.6-2.2,1.1-4.4,1.6-6.6.5-2.2,1-4.4,1.5-6.6,1.9-8.8,3.2-17.3,4.1-24.3.7-6.5,1.1-13.1,1.4-19.6-.5,3-1,5.8-1.4,8.2.8-6.6,1.4-13.3,1.3-15.8.2-7.1,0-8.6-.3-7.7-.4.9-.8,4.2-1.5,6.9-.6,3.9-.8-1.4-1.6,4.6.4-4.4.5-6.6.8-11-.2-.3-.3,3.1-.5,6.2-.2,3.1-.4,5.8-.6,4.3.2-2.1.4-4.3.5-6.6,0-2.3.2-4.5.3-6.7-.2.8-.5,4.5-.7,8.1-.3,3.5-.6,6.8-.8,6.4,0-1.2.4-4.2.7-7.1.3-2.9.4-5.6.2-6-.1-.2-.3,4.2-.5,6.4.3-6.7.3-12,.1-14-.2-2-.4-.8-1,5.3.2-4.3.5-10.3.5-14.8,0,0,0,0,0,0,0,2.3-.1,6.1-.2,8.2,0-2.6,0-5.1.1-7.7,0,.4-.2.9-.2,1.3,0,1.9-.1,3.8-.2,5.8,0-1.7,0-3.4,0-5.1-.2,1.3-.3,2.7-.6,4.3-.4,6-1.3,11.8-1.5,15-1,13.1-2.6,26.2-5,39.2-1.2,6.5-2.6,12.9-4.1,19.3-.8,3.2-1.6,6.4-2.4,9.6-.9,3.3-1.7,6.6-2.4,10.1Z"/>
    <path class="st2" d="M152,255.3c0,0-.3-.7.5.1.6.6,1.2,1.2,1.8,1.7.3.3.6.5.9.8.3.2.7.5,1.1.7,1.5.9,3.2,1.4,5.1,1.5,0,0,.2-.1.3-.2,1.4,0,2.9-.2,4.4-.7.7-.3,1.4-.6,2.1-1,.6-.4,1.3-.9,1.8-1.3,3.4-3,6.8-6.1,10-9.3-.1,0-.2,0,.1-.3,1.4-1.3,3.2-3.1,5.2-5,.3-.3.5-.6.8-.9.2-.2.2-.3.2-.4.9-.9,1.6-1.6,2.3-2.3,4.5-4.8,9-9.7,13.6-14.7,2.3-2.5,4.8-5.1,6.6-8.4.9-1.6,1.6-3.5,2-5.3.4-1.8.6-3.7.7-5.5,0-3.1-.1-6.2-.2-9.1,0-4.4.2-9.9.2-14.2-.6.6-.7-9.7-1.3-7.7,0-2.8.1-7.1,0-7.3-.5-.7-1-2.9-1.2-10.4,0-3,.2-7.5.1-8.5-.1-1.6-.4,3.8-.5,2.2-.2,11-.4,21.7-.5,32.5,0,5.4,0,10.8-.2,16.2,0,5.4,0,10.7-2.3,14.8-.4.7-1.1,2-2.3,3.5-1.2,1.5-3.1,3.4-5.1,5.6-4.2,4.4-9.3,9.8-14.6,15.2-5.3,5.4-10.9,10.7-16,15.1-.3.3-.6.5-.9.8-.2.1-.3.2-.4.3-.1,0-.2.2-.4.3-.5.4-1,.6-1.6.8-1.1.4-2.2.5-3.2.4-1-.1-1.9-.4-2.6-.8-.2-.1-.3-.2-.5-.3-.2-.1-.3-.3-.5-.4-.3-.3-.6-.5-.9-.7l-.7-.7c-2-2.2-3.5-5.5-3.7-8.8-.3-3.3.5-6.6,1.8-8.8.3-.5.6-1.1.9-1.5.3-.5.7-1,1.2-1.6.5-.6,1-1.4,1.4-2.4.3-1,.2-2.2-.2-3.2.3.9.3,1.9,0,2.8-.3.8-.7,1.4-1.1,1.9.5-.6,1-1.5,1.1-2.5.1-1-.2-2-.5-2.6-.8-1.4-1.8-2-2.3-2.4-1.5-.9-2.3-1.2-2.7-1.4-.4-.2-.5-.2-.4,0,.2.3,1.4,1.1,2.3,2,.7.6.4.6.4.6-.1,0,0,.2.8,1.1-1.2-1.4-2.1-1.7-3.8-2.6-.1,0,1.2.7,2.3,1.4,1.1.7,1.7,1.6,1.2,1.2-1.1-1.4-3.1-1.9-4.7-3.1.1.1.5.5,1.1.8.6.3,1.2.7,1.9,1.1,1.2.7,2,1.8,1.8,1.7-.3-.3-1-1.2-2.1-1.8-1-.6-2.1-1.2-2.3-1.3-.1,0,1.6,1,2.4,1.5-1.2-.7-2.5-1.3-3.4-2-.9-.7-1.5-1.6-1.7-2.1-.2-.5-.3-.6-.2-.1,0,.2.1.6.4,1.1.3.5.7,1.1,1.3,1.6-.4-.4-.9-.8-1.3-1.5-.4-.7-.7-1.4-.7-2.2,0-.8,0-1.6.3-2.4.4-.8,1-1.4,1.6-1.7h0c-.7.3-1.5,1.1-1.8,2.1-.3,1-.3,1.9-.1,2.5-.2-.7-.2-1.5,0-2.4.2-.8.8-1.6,1.5-2.1-.3.1-.5.3-.8.5-.5.5-.8,1.1-.9,1.8-.2.6-.2,1.3,0,1.9-.2-1,0-2.2.7-3.3-.6.7-.9,1.8-1,2.8,0,1,.3,1.9.8,2.8.5.9,1.1,1.4,1.6,1.9,1.1.9,2,1.4,2.6,1.8.6.4,1,.6,1.4.9.4.3.6.7.8.9.1.3,0,.4,0,.5,0,.1-.2.4-.6.9-.4.4-.9.9-1.4,1.6-.3.3-.5.6-.8,1l-.7,1.1c-.5.7-.8,1.5-1.2,2.2-.3.8-.6,1.5-.8,2.3-.5,1.6-.7,3.2-.8,4.8,0,1.6,0,3.3.4,4.9.6,3.2,2.1,6.3,4.3,8.8Z"/>
    <path class="st2" d="M141.6,251.5c0,0,0-.4.3,0,.9,1.5,1.6,2.9,3,4h.2c1,.8,2,1.5,2.8,2.2.8.5,1.5,1.1,1.8,1.5.3.5.5.9.5,1.5,0,0,.1,0,.1,0,0,.5-.3,1.3-.8,2.2,0,.1-.1.3-.2.4,0,.1,0,.2,0,.2-.3.4-.6.7-.9,1-1.7,2.1-4.1,3.7-6.9,4.4-1.4.4-2.8.5-4.5.4-1.7,0-3.5,0-5.4.5-.8.3-1.6.7-2.2,1.2-.7.5-1.2,1.1-1.7,1.7-1.5,1.8-2.4,4.5-2.8,6.5.3,0,.3,1.1.4,2.2,0,1.1.2,2.1.5,1.7-.2,1.4-.6,3.4-.5,3.5.2.2.4.6.4,1.5,0,.8-.2,2.2-1.2,4.1-.5.7-1.2,1.6-2.1,2.2-.8.6-1.6.9-1.9,1.1-.2.1-.1.1,0,.1.1,0,.4-.1.7-.2.6-.2,1.2-.5.7-.1,1.6-1,2.8-2.4,3.5-3.8.8-1.4,1.3-2.9,1.6-4.3.4-1.4.6-2.8.7-4.1.2-1.3.3-2.5.6-3.6.2-1.1.6-2.2,1-3.1.4-.9,1-1.7,1.6-2.2.6-.5,1.3-.8,2.3-1,1-.1,2.1,0,3.4,0,.5,0,1.3,0,2.4,0,1.2,0,2.7-.2,4.3-.6,3.2-.8,7-2.9,9.5-6.4.6-.9,1.2-1.9,1.6-3,.4-1.1.6-2.4.4-3.7-.2-1.3-.8-2.6-1.5-3.5-.7-.9-1.6-1.6-2.3-2.1-1.5-1-2.6-1.7-3.4-2.4-.7-.7-1.2-1.3-1.4-1.8,0-.1-.2-.2-.2-.4-.6-1.2-.9-2.7-1-4.3-.1-1.6,0-3.2,0-4.6,0-1.3.1-2.6.2-3.9-.2.6-.4,1.1-.6,1.6.3-1.3.5-2.7.5-3.2.3-2.9-.3-1.3-.9-.3-.3.8-.4-.4-.8.8.2-.9.3-1.3.5-2.2-.1-.1-.5,2.8-.6,2.1.2-.8.3-1.8.5-2.7-.3.3-.7,3.1-.9,2.9,0-.5.8-2.4.6-2.7,0,0-.2.8-.3,1.3.5-2.8.5-4.3-.3-1.9.2-.9.5-2.1.7-3h0c-.1.5-.3,1.2-.4,1.7l.3-1.6-.2.3c-.1.4-.2.8-.3,1.2l.2-1c-.1.2-.3.5-.4.8-.4,1.2-.9,2.3-1,3-.6,2.6-1.3,5.4-1.5,8.4-.3,2.9-.2,6.2,1.3,9.4Z"/>
    <path class="st2" d="M144.5,279.3c0,0-.3,0,0-.3.2-.2.3-.3.5-.4,0,0,.2,0,.2,0,0,0,.1,0,.2,0,0,0,.4,0,.6-.1.3,0,.5-.1.8-.2v-.2c.9-.1,1.7-.1,2.3,0,.6,0,1,.2,1.4.4.6.5,1.3,1,1.8,1.6,0,0,0-.1.2,0,.4.5.9,1.2,1,1.8,0,0,0,.1,0,.2,0,0,0,0,.1,0,0,0,0,.2,0,.2,0,0,0,0,0,.1v.2c-.6,2.2-2.1,4.6-3.6,7.2-.7,1.4-1.4,2.8-1.8,4.5-.4,1.6-.5,3.5.1,5.2.3.7.7,1.4,1.2,1.9.5.6,1,1.1,1.5,1.5,1.6,1.3,3.8,2.4,5.5,3.1,0-.6,4.2.6,3.6-.2,1.2.4,2.8,1.3,3,1.2.2-.1.6-.2,1.4,0,.7.2,1.9.6,3.4,2,.6.6,1.2,1.5,1.5,2.4.3.9.4,1.7.5,2,0,.2,0,.2.1,0,0-.1,0-.4,0-.7,0-.6-.2-1.2,0-.7-.5-1.7-1.5-3.1-2.6-4.1-1.1-1-2.2-1.8-3.4-2.4-1.2-.6-2.3-1.1-3.5-1.5-1.2-.4-2.2-.8-3.2-1.1-2-.8-3.8-1.7-4.8-2.9-.5-.6-.8-1.2-.9-1.9-.1-.7,0-1.5.2-2.4,0-.6.6-2.1,1.9-4.2.6-1.1,1.5-2.3,2.3-3.7.4-.7.8-1.5,1.2-2.4.2-.4.3-.9.5-1.3.1-.4.3-1.2.3-1.9,0-1.4-.5-2.5-1-3.5-.5-.9-1.2-1.7-1.8-2.3-.3-.3-.7-.6-1-1l-.5-.4-.3-.2-.4-.3c-.9-.7-2-1-3-1.2-2-.3-3.5,0-4.7.4-.3,0-.6.2-.9.2-.1,0-.3,0-.4.1-.1,0-.3.1-.5.2-.3.2-.7.3-.9.5-.2.2-.4.3-.6.4-.2.1-.4.3-.5.4-1.4,1.3-2.5,2.8-3.4,4.2-.9,1.5-1.6,3-2.1,4.2-.4,1.2-.8,2.4-1.1,3.6.3-.5.6-1,.9-1.3-.5,1.1-1,2.3-1,2.8-.6,2.6.1,1.2.8.4.4-.6.3.4.9-.6-.3.7-.4,1.1-.7,1.9.1.1.7-2.4.8-1.7-.3.7-.5,1.5-.8,2.3.1,0,.4-.7.6-1.3.2-.6.5-1.1.5-1,0,.2-.3.7-.5,1.2-.2.5-.4.9-.3,1.1,0,0,.3-.7.4-1.1-.7,2.4-.7,3.6.1,1.7-.2.7-.6,1.7-.6,2.3h0c0-.2,0-.4,0-.6,0-.2.1-.5.2-.6v.6c-.1,0-.2.5-.2.5v-.2c.2-.2.3-.5.3-.9,0,.3-.1.6-.1.8,0-.1.2-.4.4-.6.4-.9.9-1.8,1.1-2.3.8-2.1,1.8-4.3,3-6.3,1.1-2,2.5-4,3.8-5.2Z"/>
    <path class="st2" d="M223.6,193.9c.1,0,.2-.5.2.3,0,2.8-.4,5.1-.1,8.1l.2.2c0,2.3.3,4.7.9,7.1.6,2.2,1.6,4.4,2.8,6.4,1.2,1.9,2.6,3.7,4.1,5.3,0-.1,0-.2.3.1,1.2,1.3,3,3.1,4.9,4.9.3.2.6.5.9.7.2.2.3.2.4.2.9.8,1.7,1.4,2.4,2,1.2,1,2.5,1.9,3.8,2.8.7.4,1.3.9,2,1.3l1.9,1.2c2.5,1.6,5,3.4,7.4,5.4,2.4,2,4.9,4,7.4,6.1,2.6,2.1,5.3,4.1,8.5,5.7,1.4.6,2.8,1.1,4.3,1.4,1.4.3,3,.5,4.5.1,1.1-.2,2.2-.6,3.3-1.3,1-.7,1.9-1.6,2.6-2.7.7-1.1,1.1-2.3,1.2-3.6.1-1.2-.1-2.5-.5-3.5,0,.1-.1,0-.3-.1-.2-.2-.4-.4-.6-.8-.5-.7-1.2-1.5-2-2.3-1.5-1.5-3-2.7-2.6-1.8-.9-1-2-2.1-3-3.2-1-1.2-1.2-2.4-1.3-2.5-.2-.1-.3-.4-.5-.9-.2-.5-.3-1.1-.2-2.1,0-.5.2-1,.4-1.6.1-.3.3-.6.4-.9.2-.3.5-.7.5-.8.5-.8,1-1.8,1.3-3.2.2-1.1.3-2.5,0-3.6-.3-1.1-.8-1.9-1.1-2.1-.3-.3-.3-.2-.2,0,.1.2.2.4.4.7.3.6.4,1.2.1.7.7,1.5.6,3.6-.1,5.3-.2.4-.4.8-.7,1.2-.1.2-.3.4-.4.5l-.4.5c-.1.2-.3.4-.4.6-1,1.6-1.5,3.5-1.2,5.4.1.9.4,1.9.8,2.7.4.8,1.1,1.6,1.5,2,.9,1,1.8,1.9,2.6,2.8,1.7,1.7,3.2,3.5,3.6,5.1.5,1.5,0,3.2-1.2,4.4-1.1,1.2-3,1.8-4.7,1.6-2.1-.3-4.1-1.1-6.1-2.4-2-1.2-3.9-2.7-5.8-4.3-.7-.5-1.8-1.5-3.3-2.8-1.5-1.3-3.4-2.9-5.6-4.7-2.2-1.8-4.8-3.8-7.6-5.6-2.8-1.8-5.5-3.8-8.1-6-2.6-2.2-5.1-4.7-7.3-7.2-1.1-1.3-2-2.6-2.8-3.9-.8-1.3-1.3-2.6-1.8-4-.9-2.7-1.2-5.4-1.3-7.7-.1-2.4,0-4.4,0-5.9v-1.1c.4-6.6.7-14.6.8-20.2,0-2.6,0-5.2,0-7.8-.2,1.2-.3,2.3-.4,3.3.1-2.6.3-5.3.2-6.3,0-5.6-.4-2.5-.9-.3-.2,1.5-.4-.6-.7,1.9,0-1.8.1-2.6.2-4.4-.2-.2-.2,5.4-.4,4.2.1-1.7.1-3.6.2-5.4-.3.6-.4,6.1-.6,5.8,0-1,.5-4.9.3-5.3,0,0-.1,1.7-.2,2.6.2-5.4,0-8.4-.5-3.5,0-1.7.3-4.1.4-6h0c0,.9-.2,2.5-.2,3.3,0-1,.1-2.1.2-3.1,0,.2,0,.3-.1.5,0,.8-.1,1.5-.2,2.3,0-.7,0-1.4.1-2.1-.1.5-.2,1.1-.3,1.7-.3,2.4-.7,4.8-.7,6.1-.7,10.7-1.3,21.3-1.8,32Z"/>
    <path class="st2" d="M287.6,242.3c0,0,.1-.3.3,0,.4,1.1,0,2,0,2.9h.1c-.1.5-.3.8-.5,1.2-.2.4-.5.8-.8,1.3-.5.9-1.2,2-1.7,3.4-.5,1.4-.7,3.2-.2,4.7,0,0,0-.1.2.1.4,1.2,1.1,2.7,2,3.8.1.2.3.3.4.5.1.1.2,0,.2,0,.4.5.8.9,1.1,1.3,2.3,2.3,4.7,4.8,7.9,6.6,1.6.9,3.4,1.5,5.2,1.9,1.8.4,3.5.6,5.2.9,1.5.2,2.9.4,4.1.9.9.4,1.9,1,2.6,1.9l.5.7c0,.1.1.2.2.3,0,0,0,.2.1.3.1.4.2.9.1,1.4.3-.2.5,1,.4,2.1,0,1.1,0,2.2.3,1.7-.2.7-.4,1.5-.5,2.2,0,.7,0,1.2,0,1.2.1,0,.3.2.4.3.2.2.3.4.5.7.4.6.8,1.7,1.6,2.8.3.5.6,1,1,1.3.3.3.7.5.9.5.2,0,.2,0,0,0-.1,0-.2-.2-.3-.2-.2-.2-.3-.4-.1-.3-.5-.3-1-1-1.4-1.9-.2-.5-.4-.9-.5-1.5,0-.3-.1-.5-.2-.8,0-.1,0-.3,0-.4v-.2s0-.1,0-.1c0-.3,0-.8.1-1.3,0-.5.2-1.1.4-1.8.2-.6.3-1.3.5-2.1.1-.7.3-1.6.2-2.5,0-.9-.2-2.1-.9-3.2-.3-.4-.5-.7-.8-1.1-.3-.3-.6-.6-.9-.9-1.3-1.2-2.9-1.9-4.3-2.4-2.9-1-5.6-1.3-8-1.9-.4,0-1.1-.2-2-.5-.8-.3-1.8-.7-2.9-1.5-1.1-.7-2.2-1.7-3.4-2.8-.6-.6-1.2-1.2-1.8-1.9-.6-.7-1.3-1.4-1.8-2-1.1-1.3-2-2.6-2-3.6,0-.5,0-1,.3-1.6.2-.6.6-1.2,1.1-1.9.4-.7.9-1.4,1.3-2.3.4-.8.7-1.7.8-2.6.3-1.6.1-3,0-4l-.2-.7c-.5-2.1-1.9-4.3-3.8-5.7-1-.7-1.8-1.1-2.5-1.5-.7-.4-1.3-.7-1.7-1-.4-.3-.6-.5-.7-.7-.1-.3-.2-.6-.2-1.1-.2.4-.3.8-.4,1.1-.2-.8.4-2,.5-2.5.5-1.4.5-1.8.3-1.6-.2.1-.7.7-1.1,1.1-.5.7-.3-.5-.9.7.3-.9.6-1.3.9-2.1,0,0-.3.6-.6,1.2-.3.6-.5,1.2-.5.8.4-.9.8-1.8,1.1-2.6-.1.1-.5.8-.8,1.5-.3.7-.6,1.4-.7,1.3.1-.6,1.3-2.4,1.1-2.6,0,0-.4.8-.6,1.2.3-.7.5-1.2.6-1.7.1-.4.1-.7.1-.9-.1-.3-.2-.2-.6.8.1-.3.3-.8.3-1.1,0-.3,0-.5-.1-.7h0c.1.2.1.6,0,.8,0-.3,0-.5-.1-.8v.2c0,0,0,.2,0,.2,0,0,0,.2,0,.3,0-.2,0-.3,0-.5,0,0,0,.1,0,.2,0,0,0,.1-.1.2-.2.5-.9,1.5-1.2,2.1-.3.6-.7,1.4-.9,2.3-.3.9-.5,2.1-.2,3.3.3,1.2,1,2.3,1.7,3,.7.7,1.5,1.2,2.1,1.6l1.8,1.1c.5.3.8.6,1.2,1,.7.7,1.2,1.6,1.4,2.6Z"/>
    <path class="st2" d="M308.3,273.6c0,0,.4.4-.4.1-2.2-.7-3.8-1.2-5.8-1.4h-.2c-.7,0-1.4-.2-2-.4-.7-.3-1.4-.5-2.1-.8-2.8-.9-5.5-1.9-7.9-3.1,0,0,0,.2-.2,0-1-.5-2.3-1.4-3.4-2.5-.2-.1-.3-.3-.5-.4,0,0-.2,0-.2-.1,0,0-.1,0-.1,0-.5-.5-.9-1.1-1.4-1.6-.2-.2-.4-.5-.6-.7-.2-.2-.4-.3-.6-.4-.2-.1-.4-.2-.7-.3-.6-.2-1.3-.3-2.1,0-.7.2-1.4.6-1.9,1.2-1,1.1-1.4,2.6-1,4.4.2.9.5,1.8.9,2.6.2.5.4,1,.7,1.5.5,1,1,2,1.5,3,2.1,4,4.7,7.8,7.8,11.4,1.4,1.5,2.9,2.9,4,4.4.8,1.1,1.6,2.5,1.8,4,.3,1.5,0,3-.2,4.3.3-.1.2,1.4-.2,2.9-.3,1.5-.7,2.8-.2,2.3-.8,1.7-2,4.2-1.8,4.4.2.3.2.8.2,1.8,0,1-.2,2.5,0,4.5,0,.8.3,1.7.6,2.4.3.7.8,1.1,1,1.3.2.2.2.1.1,0,0-.1-.2-.3-.3-.5-.2-.4-.3-.7,0-.5-1.3-1.8-.9-5.1.2-8,.5-1.4,1.3-3.1,2.1-4.7.7-1.7,1.5-3.5,1.9-5.6.4-2,.4-4.4-.4-6.6-.7-2.2-2-3.9-3.2-5.4-1.2-1.5-2.4-2.7-3.4-4.1-1.1-1.4-2.1-2.8-3-4.3-.6-.9-2-3-3.5-6.1-.4-.8-.7-1.6-1.1-2.4-.2-.5-.4-1.1-.7-1.6,0-.1,0-.2,0-.4,0-.1.2-.2.3,0,0,0,.1.1.2.2l.2.2c.3.3.6.5.8.8,1.1,1,2.4,1.9,3.7,2.6,2.5,1.5,5.1,2.5,7.5,3.3,1.2.4,2.3.8,3.4,1.1,1.3.4,2.4.6,3.4.8,1.9.3,3.4.6,4.4.9.2,0,.4.1.6.2.4.2.8.3,1.1.5.1,0,.3.2.3.3,0,0,0,0,.1.1,0,0,0,.3,0,.8,0,.5-.1,1.1-.2,1.7-.2,1.3-.2,2.8,0,4.2.2,1.4.6,2.5,1,3.6.8,1.9,1.9,3.6,3.2,5.1-.5-.8-.8-1.6-1.1-2.3,1,1.8,2.2,3.3,2.8,3.8,1.5,1.5,1.9,1.7,1.8,1.4,0-.3-.6-1.1-1-1.8-.6-1,.6,0-.4-1.4.8,1,1.2,1.4,2,2.3.1,0-.6-.7-1.1-1.3-.6-.6-1-1.3-.7-1,.7,1,1.7,1.9,2.5,2.8,0-.2-.8-1-1.4-1.8-.6-.8-1.2-1.5-1-1.5.4.5,2,2.8,2.4,2.8,0,0-.8-.9-1.2-1.4,1.3,1.4,2.4,2.3,2.9,2.6.5.3.3,0-.8-1.3.8.8,2,2.1,3,2.9h0c-.5-.5-1.2-1.2-1.7-1.6l1.6,1.5c0-.1-.1-.2-.2-.3-.4-.4-.8-.8-1.2-1.2l1,1c-.2-.3-.4-.7-.7-1-1.1-1.3-2-2.6-2.6-3.2-1.2-1.3-2.2-2.7-2.9-4.2-.8-1.5-1.3-3-1.5-4.6-.1-.7-.1-1.4,0-2.3,0-.8.2-1.7.3-2.8,0-.6,0-1.2,0-2,0-.8-.4-1.8-1-2.5-1.1-1.4-2.4-1.9-3.5-2.4Z"/>
    <path class="st2" d="M289,288.6c0,0,0,.4-.3,0-.8-1.2-1.3-2.4-2.4-3.4h-.2c-.6-.7-1.3-1.5-2-2.3-1.3-1.3-2.7-2.7-3.9-4,0,0,0,.1-.2,0-.5-.5-1.1-1.4-1.8-2.2-.1-.1-.2-.2-.3-.4,0,0-.2,0-.2,0-.3-.4-.5-.7-.7-1.1-1.5-2.1-2.7-4.3-3.1-6.9-.2-.6-.1-1.3-.2-1.9,0-.7,0-1.3.1-2,0-.7.2-1.6,0-2.7-.2-1.1-.9-2-1.8-2.6-1.5-.9-3.1-.9-4.5-.5-.5.1-1.1.3-1.6.6-.5.3-1,.6-1.4,1-.8.8-1.5,1.7-1.9,2.6.3,0,0,1.1-.2,2-.2,1-.3,1.9.2,1.6-.4,1.1-1.1,2.8-1,2.9.4.4.5,1.5-.3,4.6-.4,1.2-1.3,2.9-1.3,3.4-.1.7.9-1.4.8-.7.9-2.2,1.7-4.3,2.6-6.4.4-1.1.8-2.1,1.2-3.2.4-1,.8-2,1.2-2.8.4-.8.9-1.5,1.5-1.9.3-.2.5-.3.7-.4.2,0,.5-.1.8-.1.6,0,1.1.3,1.2.4,0,0,0,0,0,.2,0,.2,0,.5-.1,1.1,0,.8-.5,3.1,0,6.1.4,2.9,1.9,6.3,4,9.1,2,2.9,4.4,5.3,6.4,7.4.5.5,1,1,1.4,1.5.4.5.9.9,1.2,1.3.7.7,1.1,1.4,1.4,1.9,0,.1.1.2.2.4.6,1.1,1.1,2.4,1.4,3.8.3,1.4.4,2.7.5,3.9.1,1.1.2,2.2.1,3.3.2-.5.4-1,.5-1.4-.1,1.1-.4,2.2-.4,2.7-.4,2.4.2,1.2.9.3.3-.7.4.3.8-.7-.2.8-.3,1.2-.5,2,0,0,.2-.5.3-1.1.1-.6.2-1.1.3-.7-.2.8-.3,1.6-.6,2.4.2,0,.4-.8.6-1.4.2-.6.3-1.2.4-1.2,0,.2-.2.8-.4,1.3-.2.5-.3,1-.2,1.1,0,0,.3-.8.4-1.2-.3,1.2-.5,2.2-.6,2.6,0,.4.2.2.7-.9-.2.8-.8,1.9-1.1,2.7h0c.2-.4.6-1.1.7-1.5-.2.5-.4.9-.6,1.4,0,0,.1-.1.2-.2.2-.3.4-.7.5-1-.1.3-.2.6-.4.9.2-.2.4-.4.6-.7.6-1.1,1.2-2.1,1.3-2.7.7-2.6,1.1-5.2,1-8-.1-2.7-.8-5.6-2.2-8.1Z"/>
    <path class="st2" d="M169.6,276.6c0,0-.3.7-.2-.5.3-1.8.1-3.4,0-4.7,0-1.4-.2-2.6-.1-3.6v-.2c0-.8.3-1.6.8-2.3.5-.8,1.1-1.5,1.9-2.2,1.4-1.4,3.1-2.6,4.9-3.9,1.8-1.3,3.6-2.6,5.4-3.9-.1,0-.2,0,.1-.3,1.5-1.1,3.6-2.5,5.8-3.9.3-.2.6-.4.9-.7.2-.2.3-.3.3-.3,1-.6,1.9-1.2,2.7-1.7,5.3-3.7,10.8-7.3,16.4-10.8,2.7-1.7,5.6-3.2,8.5-2.9,3,.3,5.9,2.3,9,4,2.7,1.4,5.3,2.9,7.8,4.3,3.7,2.2,8.4,5.1,11.9,7.3-.3-.8,8.6,4.3,7.2,2.7,1.2.7,2.7,1.6,3.9,2.4.6.4,1.2.9,1.5,1.3.4.4.5.8.6.8.2.1.4.4.7.9.2.5.4,1.3.3,2.2,0,.9-.2,1.9-.4,3.2-.2,1.3-.6,2.8-1,4.6-.8,2.9-2.5,7.1-2.8,8.1-.4,1.6,1.6-3.5,1.2-1.9.9-2.6,1.8-5.2,2.6-7.8.4-1.3.8-2.6,1.1-3.9.2-.6.4-1.4.5-2.3.1-.9.2-2-.2-3.1-.4-1.2-1.1-2.2-1.9-2.8-.7-.6-1.4-1.1-2-1.4l-3.4-2.1-6.8-4.1c-4.6-2.7-9.1-5.5-13.7-8.3-2.3-1.4-4.6-2.8-6.9-4.2-2.3-1.4-4.8-3-8.2-3.7-1.1-.2-3.3-.4-5.7.4-2.4.7-4.9,2.1-7.4,3.7-5.1,3.1-11.3,7-17.6,11.2-3.1,2.1-6.3,4.2-9.3,6.4-1.5,1.1-3,2.1-4.5,3.1-1.4,1-2.9,2.1-4.3,3.3-1.4,1.2-2.6,2.6-3.5,4.2-.9,1.6-1.3,3.5-1.3,5.1,0,1.6.2,2.8.3,3.9.1,1,.2,1.9.1,2.5,0,.3,0,.6-.1.9-.2,1.3-.8,2.7-1.7,4.1-.9,1.4-2.1,2.7-3.4,4.1-2.5,2.8-5.1,5.6-6.3,9.1-.3.8-.4,1.7-.4,2.7,0,1,.4,2.1,1.1,3,.7.9,1.5,1.3,2.2,1.7.7.4,1.3.6,2,.9-.6-.3-1.1-.7-1.6-1-.5-.3-1.1-.7-1.6-1.3.7.6,1.4,1,2,1.3.6.3,1.2.6,1.7.9,1.1.5,1.9.9,2.4,1.1,5.4,2.5,2.6.7.7-.7-1.4-.9.7-.1-1.5-1.4,1.7.8,2.5,1.3,4.2,2.1.3,0-5.2-2.5-3.9-2.2,1.6.9,3.4,1.7,5.1,2.5-.5-.5-5.7-3-5.4-3.1.9.4,4.5,2.6,5,2.6,0,0-1.6-.9-2.4-1.3,5.2,2.5,8.1,3.7,3.6,1.1,1.6.8,3.9,2.1,5.6,2.9,0,0,0,0,0,0-.8-.4-2.3-1.2-3.1-1.6,1,.5,1.9,1,2.9,1.5-.1-.1-.3-.2-.5-.4-.7-.4-1.4-.8-2.2-1.2.6.3,1.3.7,1.9,1-.4-.3-1-.7-1.5-1.1-2.2-1.3-4.3-2.7-5.6-3.3l-3.8-2-1.8-1c-.5-.3-.9-.6-1-.7-.1-.1-.1-.2-.2-.5,0-.3,0-.7.2-1.1.2-.5.4-.9.7-1.5.3-.5.7-1,1-1.5,1.5-2,3.5-4,5.5-6.2,1-1.1,2-2.3,2.8-3.7.8-1.4,1.5-3,1.9-4.7Z"/>
  </g>
</svg>