<?xml version="1.0" encoding="utf-8"?>
<!-- Generator: Adobe Illustrator 25.4.1, SVG Export Plug-In . SVG Version: 6.00 Build 0)  -->
<svg version="1.1" id="Lager_1" xmlns="http://www.w3.org/2000/svg" xmlns:xlink="http://www.w3.org/1999/xlink" x="0px" y="0px"
	 viewBox="0 0 500 500" style="enable-background:new 0 0 500 500;" xml:space="preserve">
<style type="text/css">
	.st0{fill:#FFCCB0;}
	.st1{fill:#FF6500;}
	.st2{fill:#FFFFFF;}
	.st3{fill:#1D1D1D;}
	.st4{fill:#FFCADE;}
	.st5{fill:#CC0066;}
</style>
<g>
	<g>
		<path class="st0" d="M376.3,242.2c-13.6-20.2-28-26-20.8-69l-0.1-3.5l-18.2-62c-16.8-15.6-38.1-26.1-60.2-28
			c-16.5-1.4-33.1,1.9-49.4,5.1c-18.9,3.8-38,7.7-55.4,16.4c-6.8,3.4-5.4,3.7-12.9,4.8c-7.4,1-7.8,3-17.3-1.4
			c4.1,12.5-0.1,7,4.7,12.7c-11.1,2.4-15.3,6.9-26.3,12.2c6,4.5,11.7,1.7,16.3,2.2c-5.4,11.1-9.3,22.9-11.7,35.2
			c-1.5,7.5-2.3,15.3-1.6,23c3.5,38.9,48.4,82.3,65.5,116.6l3.7-3.1c0.7,4.3,0.6,8.8,0.5,13.2c-0.8,34.8,0.1,55-10.6,85.7l97.6,7.4
			c-0.4-13.3,1.3-26.6,4.8-39.5c1.6-5.7,3.7-11.5,8-15.6c9.5-9,29.3-5.7,45.8-6.3c11.3-0.4,19-12,15-22.6c-0.2-0.5-0.4-1-0.6-1.5
			c-2.6-7.4-2.8-12.7-0.7-19.8c1.6-5.5,5.7-11.4-2.8-11.8l6.3-2.3c3-0.2,6.9-3.5,6.3-6.4c-1.2-5.1-4.9-17.5-6.6-24.5
			c-0.5-1.9,0.8-3.8,2.7-4.1l13.5-2.2C376.7,251.9,379.1,246.3,376.3,242.2z"/>
	</g>
	<g>
		<path class="st1" d="M381,164.5c-8.3-22.2-28.3-42.6-45.1-58.3c-16.8-15.6-38.1-26.1-60.2-28c-16.5-1.4-33.1,1.9-49.4,5.1
			c-18.9,3.8-38,7.7-55.4,16.4c-6.8,3.4-5.4,3.7-12.9,4.8c-7.4,1-7.8,3-17.3-1.4c4.1,12.5-0.1,7,4.7,12.7
			c-11.1,2.4-15.3,6.9-26.3,12.2c6,4.5,11.7,1.7,16.3,2.2c-5.4,11.1-9.3,22.9-11.7,35.2c-1.5,7.5-2.3,15.3-1.6,23
			c3.5,38.9,48.4,82.3,65.5,116.6l3.7-3.1c0.7,4.3,0.6,8.8,0.5,13.2l-1.9-37l14.4,4.2l1.4-17.4l-2-5.3l53.8-41.7l-17.4-18.2l5.6-9.9
			l10.4-3.5l5.4-0.5l-8.3-12.3l28.4-3.5c0,0,0.4-5.8,5.1-8.5s34.4-11.6,50.5-3.4c10.1,5.1,9.8,5.5,9.8,5.5
			c5.3,5.7,15.3,17.7,31.4,20.2c-4.8-5.7-12.4-14.9-14.4-22.3L381,164.5z"/>
	</g>
	<path class="st2" d="M297,215.9c0.9,0.2,20.2,4.4,20.2,4.4s2.7-11.3-1.1-11.9S297,215.9,297,215.9z"/>
	<g>
		<g>
			<g>
				<path class="st3" d="M315.6,203.9c0,0.1,0.3,0.1,0,0.3c-0.9,0.7-1.8,0.8-2.7,1.5v0.2c-0.8,0.4-1.6,0.7-2.4,1.1
					c-1.4,0.8-2.8,1.7-4.3,2.4c0.1,0,0.1,0.1,0,0.2c-0.6,0.4-1.5,0.7-2.3,1.1l-0.4,0.2c-0.1,0.1-0.1,0.1-0.1,0.2
					c-0.7,0.3-1.3,0.6-1.9,0.8c-0.7,0.4-1.3,0.7-2.1,1c-0.7,0.4-1.5,0.7-2.3,1.1c-1.4,0.7-2.8,1.3-4.4,2.1c0.2,0.1,0.6,0.2,0.9,0.3
					l1,0.3c0.6,0.2,1.3,0.4,1.9,0.6c1.2,0.4,2.5,0.7,3.8,1.1c1.2,0.3,2.4,0.6,3.6,1c0.8,0.2,1.6,0.4,2.4,0.6
					c1.1,0.2,2.3,0.4,3.4,0.6c1.6,0.4,3.6,1,5.1,1.4c-0.1-0.6,3.7,0.1,3.1-0.7c1,0.3,2.6,0.6,2.7,0.5c0.2-0.2,0.5-0.4,1.1-0.5
					c0.3-0.1,0.7-0.1,1.2-0.1c0.4,0,0.8-0.1,1.3-0.1c0.2,0,0.3,0,0.5-0.1h0.1l0,0l0,0c0,0.1,0.1,0.1,0.1,0.1
					c0.2,0.3,0.3,0.3,0.3,0.3l-0.3-0.1c-0.5-0.1-0.1,0-0.3,0l0,0l0,0l0,0l0,0l0,0l0,0l0,0l0,0l0,0c0,0,0,0-0.1,0.1l0,0l0,0l0,0l0,0
					l0.4,0.1l0,0l0,0l0,0h0.1c0.1,0,0.2,0,0.2,0c0.1,0,0,0,0,0c-0.1-0.1,0,0,0,0c-0.1-0.1-0.2-0.2-0.5-0.7l-0.1-0.1l-0.1-0.1l0,0
					c0,0,0,0-0.1,0c-0.2,0-0.5,0-0.8,0c-0.5,0-1.6-0.3-2.6-0.6c-1.9-0.5-3.9-0.9-5.8-1.4s-3.8-1-5.8-1.5c-1-0.3-1.9-0.5-2.9-0.8
					c-0.6-0.2-1.2-0.3-1.7-0.5c-0.1,0.1-0.3,0.1-0.6,0c0,0,0.1-0.1,0.2-0.1s0.1-0.1,0.4-0.2c0.6-0.3,1.2-0.6,1.9-0.9
					c0.9-0.5,1.8-0.9,2.7-1.4c3.5-1.9,6.6-3.7,8.1-4.6l0.4-0.2c2.3-1.4,5-3.3,6.7-4.8c0.8-0.7,1.5-1.5,2.2-2.3
					c-0.4,0.2-0.9,0.4-1.2,0.6c0.9-0.6,1.7-1.3,2-1.6c1.6-1.6,0.4-1-0.5-0.8c-0.6,0.3-0.1-0.5-1,0c0.6-0.4,0.8-0.6,1.4-1.1
					c0-0.2-1.6,1.4-1.4,0.9c0.6-0.4,1.1-0.9,1.6-1.3c-0.3,0-1.9,1.4-2,1.2c0.3-0.3,1.7-1,1.7-1.3c0-0.1-0.6,0.4-0.8,0.6
					c1.6-1.4,2.4-2.4,0.7-1.4c0.5-0.4,1.3-0.9,1.9-1.4l0,0c-0.3,0.2-0.8,0.6-1,0.8l0.9-0.8h-0.2c-0.3,0.2-0.5,0.3-0.8,0.5l0.6-0.5
					c-0.2,0.1-0.4,0.1-0.7,0.2c-0.8,0.5-1.7,0.9-2.1,1.2C322.6,199.3,319.1,201.7,315.6,203.9z"/>
			</g>
		</g>
	</g>
	<g>
		<g>
			<g>
				<path class="st3" d="M301.8,190.7c0-0.1-0.2-0.1,0-0.3c0.6-0.3,1.2-0.2,1.8-0.4v-0.2c0.5-0.1,1-0.2,1.6-0.2
					c1-0.2,1.9-0.5,2.9-0.7c0-0.1-0.1-0.1,0-0.1c0.4-0.1,1-0.2,1.6-0.2l0.3-0.1c0.1,0,0.1-0.1,0.1-0.1c0.3,0,0.5,0,0.7,0
					c2.9-0.6,5.9-0.9,9.2-0.8c0.7,0,1.4,0,2.1,0c1,0.2,2.2,0.5,3.1,0.9c0-0.6,2.4-0.1,2.2-0.8c0.7,0.2,1.6,0.8,1.7,0.7
					c0.2-0.2,0.5-0.3,1-0.3c0.5,0.1,1.2,0.3,2.2,1.2c0.3,0.4,0.7,1.1,0.8,1.7c0.1,0.6,0.1,1.2,0.2,1.4c0,0.1,0.1,0.1,0.1,0
					s0.1-0.3,0.1-0.5c0.1-0.4,0-0.8,0.2-0.5c-0.2-1.2-0.8-2.3-1.4-3c-0.7-0.8-1.4-1.3-2.1-1.7s-1.4-0.7-2.1-1s-1.3-0.4-2-0.6
					c-2.6-0.7-5.3-1.2-8-1.5c-0.9,0.1-4.6-0.1-8.3,0.4c-3.8,0.4-7.6,1.5-9.1,2l-0.3,0.1c-0.4,0.1-0.9,0.3-1.3,0.5s-0.9,0.4-1.3,0.6
					c-0.9,0.4-1.6,0.9-2.3,1.3c-0.6,0.4-1.1,0.9-1.6,1.4c0.3-0.1,0.6-0.1,0.9-0.2c-0.6,0.3-1.2,0.7-1.4,0.9c-1.1,1-0.3,0.8,0.4,0.8
					c0.4,0,0.1,0.4,0.7,0.3c-0.4,0.2-0.6,0.3-1,0.5c0,0.1,1.1-0.8,1-0.4c-0.4,0.1-0.8,0.5-1.1,0.7c0.2,0.1,1.3-0.7,1.4-0.5
					c-0.2,0.1-1.2,0.4-1.1,0.7c0,0.1,0.4-0.2,0.6-0.3c-1.1,0.8-1.5,1.4-0.4,1c-0.4,0.2-0.9,0.4-1.3,0.7l0,0c0.2-0.1,0.5-0.3,0.7-0.4
					l-0.6,0.4h0.2c0.2-0.1,0.3-0.2,0.5-0.3l-0.4,0.3c0.2,0,0.3,0,0.5,0c0.6-0.2,1.2-0.3,1.5-0.4
					C297.1,192.5,299.4,191.6,301.8,190.7z"/>
			</g>
		</g>
	</g>
	<g>
		<g>
			<g>
				<path class="st3" d="M315.4,210.8c0.1,0,0.2-0.1,0.2,0c0.1,0.2-0.2,0.4-0.1,0.5h0.2c0,0.1-0.1,0.3-0.2,0.5
					c0,0.3,0.1,0.5,0.2,0.8c0.1,0,0.1,0,0.1,0c0,0.1,0,0.3,0,0.4v0.1h0.1c0,0.1,0,0.1-0.1,0.2c0.2,0.8,0.4,1.8,0.4,2.9
					c0,0.3,0.1,0.5,0.1,0.7c-0.1,0.3-0.4,0.6-0.6,0.9c0.5,0.3,0.3,1.1,0.8,1.3c-0.1,0.2-0.4,0.4-0.3,0.6c0.3,0.4,0.7,0.9,0.3,1.6
					c-0.2,0.2-0.6,0.4-0.6,0.5c0,0.2,0.5,0,0.5,0.2c0.9-0.7,1.6-1.5,2.2-2.4c0.5-0.9,1-1.9,1.3-2.9c0-0.4,0.3-1.8,0.4-3.2
					c0.1-1.5-0.2-3-0.2-3.6v-0.1c-0.1-0.7-0.4-1.5-0.8-1.9c-0.2-0.2-0.5-0.4-0.8-0.5c0,0.2-0.1,0.3-0.1,0.4
					c-0.1-0.2-0.2-0.5-0.3-0.5c-0.5-0.3-0.6,0.1-0.8,0.4c-0.1,0.2-0.4,0.2-0.5,0.4c-0.1-0.1-0.1-0.2-0.2-0.3c-0.1,0.1,0.3,0.3,0,0.4
					c0-0.2-0.2-0.2-0.2-0.4c-0.2,0.2,0.2,0.5,0,0.5c-0.1,0,0.1-0.5-0.2-0.4c0,0,0,0.1,0,0.2c-0.3-0.3-0.6-0.4-0.7,0.1
					c-0.1-0.1,0-0.3-0.1-0.4l0,0c0,0.1,0,0.2,0.1,0.2l-0.1-0.2l-0.1,0.1c0,0.1,0,0.1,0,0.2l-0.1-0.1c-0.1,0.1-0.1,0.2-0.2,0.2
					c-0.1,0.2-0.2,0.5-0.2,0.6C315.1,209.5,315.3,210.2,315.4,210.8z"/>
			</g>
		</g>
	</g>
	<g>
		<g>
			<g>
				<path class="st3" d="M248.9,74.8c-0.1,0.2,3.1,0-1.8,0.8c-7.6,1.3-14.4,2.5-21.1,3.7c-6.7,1.2-13.5,2.5-21,4.4
					c-0.3,0.2-0.7,0.4-1,0.6c-11.6,2.7-23.7,6.3-35.4,12.1c-1.2,0.6-2.4,1.3-3.4,1.9c-0.5,0.3-0.9,0.5-1.3,0.6
					c-0.3,0.1-0.6,0.2-1,0.4c-1.8,0.5-4.3,0.7-7.1,1.2c-1.3,0.3-2.6,0.6-3.5,0.7c-0.4,0.1-0.8,0.1-1.1,0.1H151c-0.1,0-0.2,0-0.3,0
					h-0.4l-0.9-0.2c-2.4-0.6-5.1-2-7.7-3.1c-2.6-1.1-5.1-2.3-7.7-3.4c0.7,2.4,1.5,4.8,2.2,7.1c0.8,2.4,1.6,4.9,2.2,7.3
					c0.3,1.2,0.6,2.3,0.7,3.5l0.1,0.7l0.1,0.4c0,0.3,0.1,0.6,0.2,0.8c0.1,0.5,0.4,1.1,0.7,1.6s0.6,1,0.9,1.4l0.5,0.6l0.3,0.3
					l1.1,1.3l2.8-8c-2.2,0.5-4.4,1.1-6.5,1.9s-4.2,1.7-6.2,2.7l-0.7,0.4l-1,0.6l-2.5,1.5c-1.7,1-3.3,2-5.1,2.9
					c-3.5,1.9-7.5,3.9-11.4,5.9c1.2-0.5,2-0.8-0.4,0.5c0.1,0.1,0.4,0.3,0.6,0.5s0.5,0.4,0.7,0.6c0.2,0.2,0.3,0.3,0.5,0.4
					c0.1,0.1,0.3,0.3,0.4,0.4c0,0,0.2,0.1,0.3,0.2l0.3,0.2l0.7,0.5c0.8,0.5,1.7,1.1,2.5,1.7c0.8,0.5,1.6,1,2.4,1.5
					c1.7,0.9,3.6,1.5,6.2,1.8c1.4,0.1,2.9,0.2,4.7,0c0.9-0.1,1.8-0.2,2.7-0.2c0.5,0,0.9-0.1,1.4-0.1s0.9,0,1,0l-3.7-6.5
					c-2.3,4.6-4.5,9.7-6.4,15c-0.7,2-1.3,3.9-1.9,5.9c-0.4,1.5-0.4,2-0.4,2.2c-1.8,6.1-3,11.5-3.9,16.7c-1,6.2-1.5,12.6-1,19.1
					c0.1,1.6,0.4,3.2,0.6,4.9c0.2,1.6,0.6,3.2,0.9,4.8c0.8,3.1,1.6,6.2,2.7,9.3c4.3,12.1,10.7,23,17.6,33.6
					c7,10.6,14.6,20.8,22.2,31.2c3.8,5.2,7.6,10.4,11.3,15.8l1.4,2l0.7,1l0.9,1.4l2,3l0.5,0.8l0.5,0.9l1,1.7
					c0.7,1.2,1.4,2.3,2.1,3.5l2.1,3.8c1.4,2.5,2.7,5.1,4.1,7.7l0.5-0.5l0.3-0.2l0.1-0.1l0.1-0.1l0,0v-0.2c0.1-0.8,0.3-1.6,0.4-2.4
					c0.1-0.8,0.2-1.5,0.3-2.3c0.2-1.5,0.4-3,0.5-4.5s0.3-3,0.3-4.7V297v-1.4c0-0.9-0.1-1.9-0.1-2.9c-0.1-1-0.1-2-0.2-3
					c0-0.5,0-1-0.1-1.5v-0.8v-0.6c0-0.6,0-1.3,0-1.9s0.1-1.4,0.1-1.6c0.1-0.7,0.1-1.5,0.3-2.2c0.7,0,1.4,0,2.1,0c0.2,0,1,0,1.6,0.1
					s1.1,0.2,1.5,0.4c0.2,0.1,0.4,0.2,0.7,0.4l0.2,0.1c0.1,0,0.1,0,0.3,0.2c0.3,0.2,0.4,0.4,0.7,0.6c0.9,0.7,1.7,1.5,2.6,2.3
					c1.7,1.6,3.4,3.2,5.2,4.8c0,0,0.1,0,0.1-0.1l0.1-0.3c0-0.2,0.1-0.4,0.1-0.6c0.1-0.4,0.2-0.8,0.3-1.3c0.2-0.8,0.4-1.7,0.6-2.6
					c0.4-1.8,0.9-3.6,1.3-5.5l0.4-1.8l0.3-1.4c0.2-0.9,0.3-1.8,0.4-2.7c0.2-1.8,0.4-3.7,0-5.8c-0.1-0.5-0.2-1-0.4-1.5
					s-0.4-1-0.6-1.4l-0.3-0.7c-0.1-0.1-0.1-0.2-0.2-0.3c-0.2-0.2-0.3-0.4-0.5-0.7c-0.3-0.4-0.7-0.9-1-1.3l-0.6-0.6l-0.3-0.3
					c-0.1-0.1,0-0.1,0.1-0.1h0.2c1-0.2,2.1-0.3,3.1-1l0.1-0.1l0.2-0.1c0.1-0.1,0.3-0.2,0.4-0.3c0.3-0.2,0.5-0.5,0.7-0.9
					c0.4-0.7,0.6-1.6,0.5-2.3c-0.1-0.7-0.2-1.2-0.3-1.4l0,0l0,0h-0.2c-0.1,0-0.4,0-0.4,0c-0.1,0-0.2,0-0.3,0c-0.2,0-0.2,0-0.3-0.1
					c-0.1,0,0,0,0,0l0,0l0,0l0,0l0,0c-0.2-0.2,1.8,1.8,0.9,0.9l0,0l0.1,0.3l0.1,0.2v0.1l0,0h0.3c0.2,0,0.3,0,0.5,0
					c0.2-0.2,0.4-0.3,0.6-0.4l0.1-0.1l0.1-0.2l0.1-0.5l0.4-2l0.4-1.8l0.3-1.5l0.3-1.5l0.2-1.4c0.1-0.7,0.2-1.4,0.3-2.1
					c0.1-0.7,0.1-1.4,0.1-2.2c0-0.5,0-1,0-1.5c0-0.2,0.1-0.6,0.4-0.5c0.3,0,0.5,0.2,0.7,0.3c0.8,0.6,1.5,1.4,2.2,2.1
					c0.4,0.4,0.8,0.7,1.1,1.1c0.2,0.2,0.4,0.3,0.6,0.5l0.3,0.3l0.5,0.4c0.7,0.5,1.5,0.9,2.5,1.2c0.5,0.1,1.1,0.2,1.7,0.1
					c0.3,0,0.6-0.2,0.9-0.2l0.7-0.3c0.4-0.2,0.9-0.6,1.3-1l0.3-0.3c0.1-0.1,0.2-0.2,0.2-0.3c0.1-0.2,0.2-0.3,0.2-0.4
					c0.1-0.3,0.2-0.5,0.3-0.8s0.3-0.5,0.6-0.5s0.6,0,0.8,0c0.3,0,0.5,0.1,1,0c1.2-0.4,1.9-1,2.6-1.6c1.3-1.3,2.2-2.6,3.1-4
					c0.4-0.7,0.8-1.4,1.2-2.1c0.3-0.5,0.5-1,0.8-1.5c0.5-1,0.9-2,1.3-3c0.4-1,0.7-2.1,0.8-3.1v-0.1c0,0,0-0.1,0,0s0,0.1,0,0.2v0.4
					l0.1,0.8c0,0.5,0.1,1.1,0.1,1.6c0.1,0.5,0.1,1.1,0.2,1.6c0.1,0.3,0.1,0.5,0.2,0.8c0,0.1,0.1,0.3,0.2,0.4c0,0.1,0.1,0.1,0.1,0.2
					c0,0,0.1,0,0.1,0.1h0.1c0.1,0,0.3,0,0.4,0c0.7,0,1-0.3,1.2-0.5c0.1-0.1,0.2-0.2,0.3-0.3l0.1-0.2l0.3-0.4
					c0.2-0.2,0.5-0.5,0.7-0.7c0.5-0.5,1-1,1.6-1.4c1.1-0.9,2.2-1.9,3.3-2.8c1.1-0.9,2.2-1.8,3.3-2.7c0.5-0.5,1.1-0.9,1.6-1.4
					c0.3-0.2,0.6-0.6,0.9-0.9c0.3-0.3,0.6-0.6,0.9-1c-0.5,0.3-0.2-0.2,0.6-1.3c0.1-0.2,0.3-0.5,0.4-0.8s0.4-0.6,0.2-1
					c-0.3-0.8-0.9-1.5-1.6-2.4c-0.3-0.4-0.7-0.8-1.1-1.3c-0.3-0.4-0.7-0.8-1-1.2c-0.7-0.8-1.5-1.6-2.2-2.5c-1.6-1.7-3.3-3.6-5-5.4
					c-0.8-0.9-1.7-1.9-2.5-2.8c-0.4-0.5-0.8-0.9-1.2-1.4c-0.2-0.2-0.4-0.5-0.5-0.8s0-0.6,0-0.9c0.1-1.2,0.3-2.3,0.6-3.4
					c0.3-1.1,0.8-2,1.5-2.8c1.2-1.6,2.8-2.5,4-3s2-0.8,2.1-0.9c0.2-0.1-0.3-0.2-1.5,0c1.5-0.4,3-0.7,4.6-0.7c0.8,0,1.6,0,2.4,0
					c0.5,0,0.7,0,1,0.1c0.3,0,0.6,0.1,0.9,0.1c2.4,0.4,4.8,1.1,7,1.8l0.6,0.2c0.2,0.1,0-0.1,0-0.2l-0.2-0.3
					c-0.3-0.4-0.5-0.7-0.8-1.1c-0.5-0.7-1-1.4-1.4-2.1c-0.8-1.2-1.6-2.3-2.3-3.3c-1.3-1.8-2.3-3.3-3.1-4.4c-0.8-1.1-1.3-1.8-1.5-2
					c-0.5-0.6-1.2-1.3-2.1-2.4c1-0.3,2.5-0.6,4.7-1c1.2-0.2,2.4-0.4,3.9-0.6c1.4-0.2,3.5-0.5,4.4-0.7c2.4-0.4,5.4-0.8,8.8-1.3
					c1.6-0.2,4.2-0.5,4.3-0.6c0.3-0.1,0.6-0.3,0.6-0.6c0-0.2,0-0.3,0-0.5v-0.1v-0.1c0,0,0,0,0-0.1c0-0.3,0.1-0.9,0.2-1.4
					c0.3-1.1,0.8-2.3,1.6-3.2c0.2-0.2,0.4-0.5,0.6-0.7s0.5-0.5,0.7-0.6c0.4-0.4,0.9-0.7,1.4-1c1.8-1.1,3.7-1.7,5.3-2.2
					c3.1-1,6.5-2,10.3-3c3.7-0.9,8.1-1.8,12.7-2.2s9.5-0.2,14,0.7s8.4,2.5,11.5,4c3.1,1.6,5.3,3.1,6.4,3.9c1.7,1.2,1.6,1,0.6,0.2
					c-0.5-0.4-1.3-1.1-2.3-1.8s-2.1-1.4-3.3-2.1c-2.3-1.4-4.8-2.5-6.1-3.1c-1.3-0.6-1.5-0.7,0.7,0c-4.5-1.8-9.4-2.8-14.2-3
					c-4.8-0.2-9.5,0.2-14,1s-8.8,1.9-13.1,3.1l-3.1,0.9l-1.6,0.5c-0.6,0.2-1.2,0.4-1.9,0.6c-1.3,0.5-2.8,1.2-4.3,2.4
					c-0.3,0.3-0.8,0.7-1.1,1.1c-0.4,0.4-0.7,0.8-1,1.3c-0.6,0.9-1,1.9-1.3,2.9c-0.2,0.6-0.3,1.4-0.3,1.7l0,0l0,0l0,0l-7,0.7
					c-8.1,0.8-16.2,1.6-24.3,2.4c3.1,4.6,6.2,9.2,9.3,13.8l-0.9-1.4c0,0,0-0.1,0,0h0.1l0,0l0,0l0,0c-0.1,0,0.2,0-0.1,0
					c-1.5-0.1-3.2-0.1-4.8,0.1c-1.6,0.2-3.2,0.5-4.9,1.1s-3.5,1.5-5.1,2.9s-2.8,3.2-3.5,5c-0.2,0.5-0.4,0.9-0.5,1.3
					c-0.2,0.5-0.3,0.9-0.4,1.3l-0.1,0.7l-0.1,1c-0.1,0.6-0.2,1.3-0.2,1.9c0,0.5,0.1,1,0.1,1.5c0.1,0.5,0.3,1,0.5,1.4
					c0.5,0.9,1.1,1.8,1.7,2.6c0.7,0.9,1.4,1.8,2.1,2.6l4.1,4.9c1.4,1.6,2.7,3.2,4,4.8l0.2,0.3l0,0l0,0l0,0l0,0l0,0l-0.3,0.3
					c-0.3,0.2-0.5,0.5-0.8,0.7c-1.1,1-2.3,1.9-3.5,2.9s-2.5,2-3.8,3.2c-0.3,0.3-0.7,0.6-1,0.9l-0.5,0.5l-0.5,0.5
					c-0.3,0.3-0.7,0.8-1.1,1.3l-0.1,0.1l0,0l0,0c5.7,4.4,1.6,1.2,2.9,2.2c0.2,0.1,0.3,0.3,0.4,0.4c0.3,0.3,0.4,0.4,0.4,0.5l0,0l0,0
					c2-10.3,0.7-3.9,1.3-6.7l0.3-1.9l0.6-3.6l-0.1-0.1c-0.1-0.1-0.1-0.1-0.2-0.2c-0.3-0.2-0.5-0.1-0.7-0.4c-0.6-1.3-1.1-1.8-1.4-2.1
					c-0.3-0.3-0.6-0.4-0.7-0.4c-0.3,0-0.5,0.2-0.6,0.5s-0.2,0.6-0.2,0.9c0,0.2,0,0.3-0.1,0.5h-0.1c0,0,0,0,0-0.1l-0.1-0.1
					c0-0.1-0.1-0.2-0.2-0.2c-0.3-0.3-0.7-0.6-1.4-0.4c-0.6,0.2-1.3,0.8-2,2.2c-0.2,0.3-0.4,0.7-0.5,1l-0.3,0.5
					c0,0.1-0.1,0.1-0.1,0.3l-0.1,0.4l-0.3,1.6c-0.1,0.5-0.2,1-0.4,1.4c-0.5,1.8-1.1,3.3-1.8,4.8c-0.3,0.7-0.7,1.4-1.1,2.2l-0.2,0.4
					l-0.1,0.2l-0.3,0.5c-0.3,0.6-0.7,1.2-1,1.7c-0.4,0.5-0.7,1-1.1,1.4c-0.2,0.2-0.3,0.4-0.5,0.5c-0.1,0.1-0.1,0.1-0.2,0.1h-0.1l0,0
					l0,0l0,0l0.1,0.1c0.2,0.2,0.3,0.6,0.5,0.8c0.1,0.2,0.3,0.4,0.4,0.7l0.1,0.3c0,0.1,0.1,0.2,0.1,0.3s0.1,0.2,0.1,0.3v0.1l0,0
					c0.2,0.6-1.4-5.4-0.7-2.8l0,0l-0.1-0.2c0,0-0.1,0-0.2,0h-0.3c-0.4,0-0.7,0.1-1.1,0.1c-0.7,0.1-1.4,0.3-2,0.7
					c-0.7,0.3-1.2,0.8-1.7,1.3c-0.4,0.5-0.9,1.1-1.2,1.9c-0.1,0.2-0.1,0.3-0.1,0.5v0.2v0.1l0,0c-0.4-0.3,3.6,2.5,1.9,1.3l0,0l0,0
					c0,0,0,0-0.1-0.1l-0.1-0.1c-0.1-0.1-0.1-0.1-0.2-0.3c-0.1-0.1-0.2-0.3-0.3-0.4l-0.5-1l0,0l0,0c0.5,1.2-1.1-2.6,1.1,2.6l0,0l0,0
					l0,0c0,0.1,0-0.2,0-0.3c0-0.4,0.1-1,0.4-1.9l0.1-0.3l0.1-0.2l0,0l0,0c0,0-0.1,0-0.1-0.1c-0.1-0.1-0.3-0.2-0.5-0.3l-0.1-0.1
					l-0.2-0.2l-0.5-0.4c-0.3-0.2-0.6-0.5-0.9-0.8c-1.2-1.1-2.3-2.4-3.5-3.4c-1.2-1.1-2.3-1.7-3.2-2s-1.7-0.3-2.4-0.2
					c-0.4,0.1-0.7,0.1-1.3,0.3s-0.8,0.4-1.1,0.5c-0.2,0.2-0.5,0.3-0.7,0.6c-0.3,0.3-0.5,0.5-0.8,1l-0.4,0.7
					c-0.1,0.3-0.2,0.6-0.3,0.9c-0.3,0.6-0.3,1.5-0.4,2.3c0,2.2-0.2,4.2-0.5,6.2l-0.1,0.7l-0.1,0.5l-0.1,0.7l-0.3,1.4l-0.4,1.8l0,0
					l0,0l0,0l-0.8,0.6c-0.5,0.4-1,1.3-1.2,1.8s-0.4,1.3-0.4,1.6c0,0.4,0,0.8,0,1s0.1,0.5,0.1,0.6c0.1,0.6,0.2,0.8,0.2,0.9l0,0l0,0
					l0,0h0.2l0.6-0.1l0.9-0.1c0.2,0,0.4,0,0.6,0c1.1-0.1,1.1,0.1,0.9,0c-0.1,0-0.2-0.1-0.3-0.2s-0.3-0.2-0.4-0.4
					c-0.1-0.1-0.3-0.3-0.4-0.5l-0.1-0.1v-0.1l0,0l-0.7-1.1l0,0l0,0l-0.3,0.1c-0.2,0.1-0.4,0.1-0.6,0.2l-0.7,0.1
					c-0.5,0.1-1,0.2-1.5,0.2l-3.2,0.4l-6.3,0.8c1.6,1.9,3.1,3.7,4.7,5.6l2.5,2.9l1.1,1.4l0.5,0.7c0.1,0.1,0.2,0.2,0.2,0.4
					c0.1,0.1,0.1,0.2,0.3,0.4c0.4,0.6,0.4,1.1,0.6,1.7l0.1,0.5v0.6c0,0.3-0.1,0.8-0.1,1.3l-0.2,1.4l-0.3,1.6l-0.3,1.5v0.1l-0.1-0.1
					l0,0l0,0l0,0l0,0h0.1l-0.6-0.4c-0.2-0.2-0.5-0.3-0.8-0.5c-0.5-0.3-1.2-0.5-1.8-0.8c-0.6-0.2-1.2-0.4-1.8-0.5
					c-0.3,0-0.6-0.1-0.8-0.1L196,273c-0.3,0-0.5-0.1-0.7-0.1l-0.9-0.1c-3-0.1-5.9,0-8.9-0.1c-0.3,2-0.7,4.1-1,6.2
					c-0.2,1-0.3,2-0.4,3.1l-0.1,1.1v0.9c-0.1,3.4,0,2.2,0,2.5c0,0.1,0,0.2,0,0.3c0,0.1,0,0.1,0,0.1s0,0-0.1-0.1l-0.1-0.1l-0.1-0.1
					l0,0l-0.1-0.2c-1-1.5-2.2-3.2-3.4-5c-1.7-2.4-3.5-5-5.4-7.6c-7.5-10.7-17-23-26.3-37.2c-2.3-3.5-4.6-7.2-6.8-11
					s-4.3-7.7-6.2-11.8c-3.8-8.1-6.9-16.8-7.7-25.8s0.7-18.6,3-28.1s5.6-18.7,9.9-27.5l3-6.1l-6.6-0.4h-0.5h-0.1h-0.2h-0.4
					c-0.2,0-0.5,0-0.7,0s-0.5-0.1-0.7-0.2h-0.1l0,0l0,0l0.2-0.1l0.3-0.2l0.7-0.4l0.4-0.2l1-0.6c3.4-1.8,6.8-3,10.5-3.8l7.2-1.6
					l-4.7-5.7l-1.2-1.4l-0.3-0.4c-0.1-0.1-0.1-0.1-0.1-0.1v-0.1V111c0,0,0,0,0,0.1s0,0.2,0,0.1s0-0.2,0-0.2c0-0.2-0.1-0.3-0.1-0.5
					l-0.1-0.2v-0.1v-0.1c0.2,0.1,0.4,0.2,0.5,0.2s0.2,0.1,0.3,0.1h0.1h0.1l0.5,0.1c0.2,0,0.4,0,0.6,0.1h0.7c0.5,0,1,0,1.4-0.1
					c0.9-0.1,1.8-0.2,2.5-0.4c1.4-0.3,2.6-0.6,3.8-0.8c0.6-0.1,1.3-0.2,1.9-0.3c0.7-0.1,1.4-0.2,2.1-0.3c0.7-0.1,1.5-0.3,2.3-0.5
					s1.7-0.5,2.6-0.9c1.6-0.8,2.7-1.4,3.8-2s2.2-1.2,3.3-1.7c8.9-4.3,17.8-7.3,26.3-9.5c8.4-2.3,16.4-3.9,23.4-5.3
					c7.1-1.4,13.2-2.6,18.1-3.5c1.9-0.3,3.9-0.7,5.8-1c8.7-1.3,17.9-2.1,27-1.5c9.1,0.7,18.3,2.8,26.8,6.3c4.3,1.7,8.4,3.7,12.3,5.9
					c3.9,2.2,7.6,4.7,11,7.2c3.5,2.5,6.6,5.3,9.7,8c3.1,2.8,5.9,5.5,8.5,8.1c4.9,4.8,9.5,9.9,13.9,15.3c4.3,5.4,8.2,11.1,11.5,17.1
					c-2.8-5.7-5.9-10.8-8.8-15.2c4.2,5.7,7.7,11.8,10.4,17.1c0.2,0.5,0.5,1,0.7,1.4c0.2,0.3,0.3,0.7,0.4,1c0.3,0.6,0.6,1.2,0.8,1.8
					c0.1,0.3,0.2,0.6,0.4,0.8c0.1,0.1,0.1,0.3,0.2,0.4l0.1,0.2H373c-0.5-0.1-0.9-0.1-1.2-0.2c-0.2,0-0.5-0.1-0.7-0.1l-0.3-0.1h-0.2
					c-0.3,0-0.5-0.1-0.7-0.1c-2.2-0.4-4.1-0.7-5.8-1c-0.6-0.1-0.9-0.1-1.3-0.2c-0.4,0-0.7-0.1-1.1-0.1c-0.7-0.1-1.3-0.2-1.9-0.2
					c-0.6-0.1-1.1-0.1-1.6-0.2c-0.1,0-0.2,0-0.3,0h-0.2h-0.1v0.1c0.1,0.2,0.1,0.5,0.2,0.7c1.1,3.4,1.4,3.8,1.2,2.7
					c-0.1-0.5-0.3-1.5-0.5-2.6c1.3,0.2,2.9,0.6,4.6,1c0.4,0.1,0.9,0.2,1.3,0.3c0.5,0.1,1,0.2,1.5,0.3c0.9,0.2,1.8,0.4,2.7,0.6
					l1.1,0.3l0.9,0.2c0.6,0.2,1.3,0.3,1.9,0.5c3.9,0.9,3.7,1.1,3.8,1.3c0.1,0.1,0.3,0.3,1.4,0.6c0.1,0.1,0.1,0,0-0.1
					c0-0.1,0-0.1-0.1-0.2c0-0.1-0.1-0.3-0.1-0.4c-0.1-0.3-0.2-0.7-0.4-1.2c-0.3-0.9-0.8-2.2-1.5-3.9c0.6,1.2,1,2.4,1.4,3.5
					c0.2,0.6,0.4,1.1,0.6,1.6c0.1,0.3,0.2,0.5,0.3,0.8l0.1,0.2v0.1h-0.1l-0.4-0.1c-2.2-0.4-4.1-0.8-6.1-1.1c-1.8-0.3-3.5-0.7-5.5-1
					c-0.8-0.2-1.7-0.3-2.6-0.5c-0.5-0.1-0.9-0.2-1.4-0.3c-0.2,0-0.5-0.1-0.7-0.1c0.1,0.2,0.1,0.5,0.2,0.8c0.1,0.2,0-0.1-0.1-0.7
					c0.6,0.1,1.6,0.3,2.7,0.5c2.5,0.5,5.9,1.1,9.2,1.7c0.9,0.2,1.8,0.3,2.7,0.5c0.4,0.1,0.9,0.2,1.3,0.2c0.2,0,0.4,0.1,0.6,0.1
					l0.3,0.1c0,0-0.1-0.2-0.1-0.3c-0.6-1.5-1.1-2.8-1.5-3.8c-0.8-2-1.1-2.7-0.1-0.9c0.5,1.2,1,2.5,1.5,3.8l0.4,1l0.2,0.5
					c-0.1,0-0.3-0.1-0.5-0.1c-0.7-0.1-1.4-0.2-2.1-0.4c-2.8-0.5-5.6-1-8.5-1.6c-1.9-0.3-3.7-0.7-5.6-1h-0.1v0.1l0.1,0.2l0.1,0.4
					l0.2,0.7c0.2,0.5,0.3,0.9,0.5,1.4c0.3,0.9,0.7,1.8,1,2.7c-0.1-0.6-0.8-2.4-1.4-4.7c0-0.1-0.1-0.3-0.1-0.4c0.2,0,0.3,0.1,0.5,0.1
					c0.3,0.1,0.7,0.1,1,0.2c0.7,0.1,1.3,0.3,2,0.4c1.7,0.3,3.4,0.7,5.1,1c1.3,0.2,2.5,0.5,3.8,0.7c1.1,0.2,2.2,0.4,3.3,0.6
					c0.3,0,0.5,0.1,0.8,0.1c0.2,0,0.7,0.2,0.4-0.1c-0.2-0.5-0.4-0.9-0.5-1.4c-0.3-0.9-0.7-1.7-1-2.5c-1.2-3-2-4.9-1.7-4.5
					c0.3,0.8,0.8,1.8,1.4,3.1c0.5,1.3,1.1,2.8,1.8,4.5c0.1,0.2,0.2,0.4,0.2,0.6l0.1,0.3l0.1,0.2c0,0,0.1,0.1,0,0.1
					c-0.5-0.1-0.9-0.2-1.4-0.3c-0.9-0.2-1.9-0.4-2.9-0.6c-2.1-0.4-4.3-0.8-6.4-1.3c-1.1-0.2-2.2-0.5-3.2-0.7c-1.1-0.2-2-0.4-2.9-0.6
					h-0.2h-0.1v0.1c0,0.1,0.1,0.2,0.1,0.3c0.1,0.2,0.1,0.4,0.2,0.6c0.1,0.4,0.2,0.7,0.3,1c0.2,0.6,0.4,1,0.6,1.1
					c0.1,0.1,0-0.3-0.2-0.8c-0.1-0.3-0.2-0.7-0.3-1.1c-0.1-0.2-0.1-0.4-0.2-0.6c0,0-0.1-0.1,0-0.1h0.2c0.1,0,0.2,0,0.4,0.1
					c2.1,0.4,4.7,0.9,6.5,1.3c-1.4-0.3-2.7-0.5-4-0.7c-0.6-0.1-1.1-0.2-1.6-0.3c-0.3,0-0.5-0.1-0.8-0.1l-0.4-0.1l0.1,0.4
					c0.6,2.1,1.4,3.9,2.1,5.4c0.1,0.3,0.3,0.5,0.4,0.8s0.3,0.5,0.4,0.8c0.3,0.5,0.6,1,0.8,1.5c0.6,1,1.1,1.8,1.6,2.6
					c1,1.5,1.9,2.7,2.6,3.5c1.4,1.6,1.7,1.8,0.8,0.4c-0.5-0.7-1.3-1.8-2.3-3.5c-0.5-0.8-1.1-1.8-1.7-2.9c-0.3-0.6-0.6-1.2-0.9-1.8
					c-0.2-0.3-0.3-0.7-0.5-1c-0.1-0.2-0.2-0.3-0.2-0.5l-0.1-0.3l0.2,0.4c0.1,0.2,0.2,0.4,0.3,0.7c0.2,0.4,0.4,0.9,0.7,1.4
					c0.5,0.9,1,1.8,1.6,2.8c1.1,1.9,2.4,3.7,3.9,5.5l6,7.4l-9-2.8c-3.4-1-6.6-2.6-9.5-4.6c-2.9-1.9-5.3-4.2-7.4-6.5c0,0,0,0,0,0.1
					c1.7,2,4.4,4.6,7.4,6.6s6.3,3.5,8.6,4.3c-5.8-1.9-11.1-5.4-15.2-9.8c0.6,0.7,1.3,1.6,2.1,2.4c3.3,3.1,7.3,5.6,11.8,7.3
					c-3.9-1.4-7.4-3.5-10.6-6.1c2.3,2.1,5.1,4.2,8.7,5.9c1.2,0.5,2.4,1,3.7,1.4l12,4l-7.9-10.2c-1.7-2.2-3.2-4.5-4.4-6.8
					c-0.6-1.2-1.2-2.3-1.7-3.5c-0.1-0.2-0.1-0.2-0.1-0.2v-0.1v-0.2l-0.1-0.3c0-0.2,0-0.3,0-0.4v-0.2l0,0h0.1h0.1
					c0.1,0,0.3,0.1,0.4,0.1s-0.1,0-0.2,0s-0.2,0-0.3-0.1c-0.2,0-0.4-0.1-0.6-0.1l9.3,1.8l4.9,0.8l2.4,0.4l0.6,0.1l0.3,0.1h0.2
					l-0.1-0.1l-0.5-1.2c-1.2-3.1-2.4-6.3-3.8-9.4l-1.9-4.7c-0.2-0.4-0.3-0.8-0.5-1.2l-0.5-1l-0.6-1.3c-3.3-6.8-7.4-13.2-11.9-19.2
					c-4.5-6.1-9.4-11.7-14.5-17.1c-2.6-2.7-5.2-5.3-7.9-7.8l-2-1.9l-2.1-1.9c-1.4-1.3-2.9-2.5-4.3-3.7c-5.9-4.8-12.3-9-19-12.6
					c-6.7-3.5-13.9-6.4-21.2-8.4c-7.4-2-15.1-3.2-22.7-3.3C263.8,73.1,256.2,73.7,248.9,74.8z"/>
			</g>
		</g>
	</g>
	<path class="st4" d="M283.8,412.3c1.7,20.3-107.3,5.3-100.9-11.3c6.5-17.1,11.6-74.9,11.6-74.9c25.8,33.5,102.7,27.3,102.7,27.3
		S280,366.8,283.8,412.3z"/>
	<path class="st4" d="M251.1,237.6c0-4.8-1.3-9.4-3.9-13.3c-4.7-7.1-12.4-15.3-21.4-15.3c-16.6,0-25.2,25.5-14,41.8
		s20.6,14.5,23.6,22.1s16.1,9.9,15.8-3.7C250.9,260.3,251,246.2,251.1,237.6z"/>
	<path class="st4" d="M351.9,194.3c0,0,10.2,31.7,19.9,42.7c9.7,11-8.5,17-20,18.4C323.6,258.6,351.9,194.3,351.9,194.3z"/>
	<path class="st0" d="M192.2,326.1"/>
	<g>
		<g>
			<g>
				<path class="st3" d="M195.1,372.2c-0.2,0-0.5,0.4-0.4-0.3c0.2-2.1,1-3.7,1.1-5.9l-0.3-0.2c0.3-1.6,0.7-3.3,1-5
					c0.2-3.2,0.4-6.4,0.5-9.6c-0.1,0.1-0.2,0.1-0.3-0.2c0-1.3,0.2-3.1,0.3-5c0-0.3,0-0.6,0-0.8c-0.1-0.2-0.2-0.3-0.2-0.3
					c0-0.8,0.1-1.6,0.2-2.3c-0.3-9.3-1-18.5-1.5-28.6c-0.3-2.2-0.5-4.4-0.8-6.4c-0.2-3.1-0.5-7.1-1.5-10.2c-0.5,0.4-1.4-1.2-2.4-2.4
					c-1-1.3-2.1-2.3-2.3-1.4c-0.8-1.7-2.4-4.2-2.7-4.1c-1.1,0.2-2.7-0.4-6.3-4.1c-1.3-1.5-3-4.3-3.6-4.8c-1-0.7,1.1,2.6,0.2,1.8
					c4.6,6.2,9,11.7,10.8,17.5c0.9,2.9,1.2,6.2,1.3,9.8c0.1,3.5-0.1,7.4-0.1,11.3c0.2,2.6,0.2,12.8,0,23.3
					c-0.2,5.2-0.4,10.6-0.8,15.1c-0.4,4.5-1,8.3-1.4,10.5l-0.1,0.8c-0.8,4.8-1.9,10.5-2.5,14.5c-0.2,1.9-0.3,3.8-0.6,5.7
					c0.4-0.8,0.9-1.5,1.2-2.2c-0.5,1.9-1.2,3.7-1.2,4.5c-0.3,2.1-0.3,2.6,0.1,2.4c0.4-0.2,1-1,1.6-1.7c0.7-1,0.7,0.6,1.6-1
					c-0.4,1.3-0.6,1.9-1,3.2c0.3,0.2,1-4,1.3-2.9c-0.5,1.2-0.7,2.6-1.1,3.9c0.6-0.3,1.5-4.3,1.9-4c-0.1,0.7-1.6,3.4-1.2,3.8
					c0.1,0.1,0.5-1.2,0.7-1.8c-1.1,4-1.3,6.3,0.4,2.9c-0.4,1.2-1.2,2.9-1.6,4.2l0,0c0.2-0.6,0.7-1.7,0.9-2.3l-0.8,2.2
					c0.1-0.1,0.2-0.2,0.3-0.3c0.2-0.5,0.5-1.1,0.7-1.7l-0.5,1.5c0.3-0.3,0.6-0.7,0.9-1.1c0.9-1.7,2-3.2,2.3-4.2
					C191.7,388.4,193.8,380.3,195.1,372.2z"/>
			</g>
		</g>
	</g>
	<g>
		<g>
			<g>
				<path class="st3" d="M352.4,215c0.2-0.1,0.1-0.7,0.6,0.2c0.3,0.7,0.6,1.4,0.9,2.1c0.3,0.6,0.6,1.3,0.8,1.9
					c0.3,0.6,0.5,1.3,0.8,1.9c0.3,0.6,0.7,1.2,1.2,1.9h0.4c0.3,0.5,0.6,1,0.9,1.6c0.3,0.5,0.6,1,0.9,1.5c0.6,1,1.3,2.1,1.9,3.1
					c2.7,3.5,5.5,6.7,8,9.9c0-0.2,0.1-0.3,0.4,0c0.6,0.7,1.2,1.5,1.8,2.4c0.3,0.5,0.6,0.9,1,1.4c0.2,0.2,0.3,0.5,0.5,0.7
					c0.1,0.2,0.1,0.2,0.1,0.2s0,0.1,0.1,0.1c0.1,0.1,0.1,0.2,0.2,0.3s0.2,0.1,0.3,0.1c0.1,0.4,0.1,0.8,0,1.1c0,0.3-0.1,0.6-0.2,0.9
					c-0.1,0.3-0.3,0.5-0.5,0.8c-0.2,0.2-0.4,0.4-0.7,0.6c-0.1,0.1-0.3,0.1-0.5,0.2h-0.1h-0.1l-0.3,0.1l-0.6,0.1
					c-3.1,0.7-6.1,1.4-9.3,2.1l-1.2,0.3c-0.6,0.1-1.3,0.2-1.9,0.4c-1.2,0.3-2.3,0.8-3.2,1.6c-0.9,0.8-1.6,1.9-1.8,3.1
					c-0.1,0.6-0.2,1.2-0.2,1.8c0,0.3,0.1,0.6,0.1,0.9l0.2,0.9c0.1,0.3,0.1,0.6,0.2,0.9l0.2,0.8l0.4,1.2c0.3,0.8,0.5,1.6,0.8,2.4
					c0.5,1.6,1.1,3.2,1.6,4.8c1.1,2.7,2.1,5.4,3,8c0.3,1,0.6,2,0.9,3.1c0.1,0.5,0.3,1.1,0.4,1.6c0.1,0.4,0.2,0.9,0.2,1.3
					c-0.1,0.8-0.5,1.6-1.1,2.1c-0.6,0.6-1.4,1.2-2.1,1.5c0.4,0.3-0.3,1.1-1.7,1.6c-2.5,0.7-5.9,1.5-4.6,2.1
					c-2.6,0.2-6.7,0.5-6.9,0.8c-0.3,0.5-0.9,1.1-2.4,1.6s-3.9,1-7.5,1.2c-2.9,0.1-7.2-0.6-8.2-0.4c-1.6,0.2,3.6,0.9,2,1.1
					c4.7,0.3,9.4,0.5,14.2,0.3c2.4-0.1,4.8-0.3,7.1-0.5c2.3-0.2,4.4-0.4,6.7-0.5c1.4-0.1,2.7-0.5,3.8-1c1.1-0.5,2-1.1,2.9-1.7
					c0.4-0.3,0.9-0.7,1.3-1.1s0.9-1,1.3-1.5c0.8-1.1,1.4-2.4,1.7-3.8c0.3-1.3,0.2-2.8-0.1-4l-0.2-0.9l-0.1-0.5l-0.3-1.1
					c-0.4-1.4-0.8-2.8-1.2-4.1c-0.8-2.7-1.6-5.4-2.3-8.2c-0.4-1.4-0.8-2.7-1.1-4.1c-0.3-1.2-0.6-2.3-0.9-3.5c-0.1,0-0.2-0.1-0.2-0.2
					s0.1-0.1,0.1-0.2h0.1l0,0h0.2l0.5-0.1c0.7-0.1,1.3-0.2,2-0.4c1.4-0.3,2.9-0.5,4.4-0.8c0.8-0.1,1.6-0.3,2.4-0.4
					c0.4-0.1,0.8-0.1,1.2-0.2c0.4-0.1,0.7-0.1,1.5-0.3c2.7-0.6,5.3-2.4,6.9-4.8c1.6-2.4,2.3-5.5,1.7-8.5c-0.3-1.5-0.9-2.9-1.7-4.1
					c-0.1-0.2-0.2-0.2-0.2-0.3l-0.2-0.3l-0.4-0.6l-0.8-1.1c-1.1-1.5-2.2-3-3.3-4.4c-2.2-2.8-4.4-5.5-6.2-7.9
					c-0.5-0.6-0.9-1.2-1.4-1.8c-0.4-0.6-0.8-1.2-1.2-1.7c-0.8-1.1-1.4-2.2-2-3.1c-0.6-1-1.1-1.9-1.5-2.7s-0.8-1.5-1-2.2l-0.4-0.9
					c-0.3-0.7-0.6-1.4-0.8-2.1c-0.2-0.7-0.5-1.5-0.7-2.3c-0.3-0.8-0.4-1.6-0.6-2.4c-0.2-0.8-0.4-1.6-0.5-2.4
					c-0.2-1.6-0.5-3.2-0.7-4.8c-0.1-1.6-0.3-3-0.4-4.4c-0.2-1.2-0.2-2.5-0.4-3.8c-0.1-1.3-0.3-2.5-0.3-3.8c-0.3,1.2-0.5,2.3-0.7,3.2
					c0-0.6,0.1-1.3,0.1-1.9c0.1-0.6,0.1-1.2,0.2-1.8c0.1-1.1,0.1-2,0.1-2.5c0-2.8-0.2-3.4-0.5-3.1c-0.4,0.3-0.8,1.6-1.3,2.7
					c-0.5,1.5-0.8-0.6-1.4,1.8c0.2-1.8,0.3-2.7,0.5-4.5c-0.3-0.2-0.4,5.5-0.8,4.2c0.1-0.9,0.2-1.8,0.3-2.7c0-0.5,0.1-0.9,0.1-1.4
					c0.1-0.5,0.1-0.9,0.2-1.4c-0.6,0.5-0.8,6.2-1.2,5.9c0-1,1-5,0.6-5.4c0,0-0.2,0.4-0.2,0.9c-0.1,0.6-0.1,1.2-0.2,1.7
					c0-0.7,0.1-1.4,0.1-2s0.1-1.2,0.1-1.6c0.1-1,0.1-1.7,0-2.2c-0.1-0.8-0.4-0.4-1.1,2.1c0.3-1.8,0.9-4.2,1.1-6.1l0,0
					c-0.2,0.9-0.5,2.5-0.6,3.3c0.2-1,0.3-2.1,0.5-3.1c-0.1,0.2-0.2,0.3-0.3,0.5c-0.2,0.8-0.4,1.6-0.5,2.4c0.1-0.7,0.2-1.4,0.3-2.1
					c-0.3,0.5-0.5,1.1-0.8,1.7c-0.7,2.5-1.6,4.8-1.7,6.2c-0.3,2.8-0.7,5.5-0.8,8.4c-0.1,1.4-0.2,2.8-0.2,4.3l0.1,4.3
					C349.1,203.4,350.2,209.4,352.4,215z"/>
			</g>
		</g>
	</g>
	<g>
		<g>
			<g>
				<path class="st3" d="M349.5,328.9c0.2,0,0.3-0.4,0.5,0.2c0.1,0.5,0.1,1,0.1,1.4c-0.1,0.5-0.2,0.9-0.2,1.4
					c-0.2,0.4-0.3,0.9-0.4,1.3c-0.2,0.4-0.3,0.9-0.4,1.4l0.2,0.3c-0.7,1.4-1.8,2.7-3,3.8c-1,1.1-2.3,2-3.6,2.6
					c-0.7,0.3-1.4,0.6-2.1,0.7l-0.5,0.2l-0.6,0.1l-0.6,0.1c-0.2,0-0.3,0.1-0.6,0.1c0.1,0.1,0.2,0.2-0.2,0.3c-1.7,0.1-4.1,0.1-6.5,0
					c-0.4,0-0.7,0-1.1,0c-0.3,0.1-0.4,0.2-0.4,0.3c-1.1,0-2.2-0.1-3.1-0.1c-6.2,0.2-12.7,0.3-19.4,1.5c-3.4,0.6-6.8,1.5-10.2,3.1
					c-3.3,1.6-6.5,4.2-8.5,7.4c-1.7,2.8-2.7,5.7-3.6,8.4c-1.4,4.1-2.8,9.1-3.7,13.1c0.6-0.2,0.6,2.2,0.6,4.4c0,2.2,0.2,4.2,0.9,3.3
					c-0.5,2.6-0.9,6.6-0.6,6.8c0.4,0.4,0.9,1.1,1.2,2.6c0.4,1.5,0.6,3.8,0.8,7.2c0,2.7-0.3,6.9-0.1,7.8c0.3,1.5,0.6-3.5,1-2
					c0.1-10,1.1-19.8,3.1-29.4c0.5-2.4,1.1-4.8,1.7-7.1c0.6-2.3,1.4-4.6,2.2-6.6c0.9-2,1.9-3.8,3.2-5.2c0.3-0.4,0.6-0.7,1-1
					s0.7-0.6,1-0.9c0.4-0.3,0.8-0.5,1.2-0.8c0.4-0.3,0.9-0.5,1.3-0.7c0.3-0.2,0.7-0.4,1.3-0.6c0.6-0.2,1.2-0.5,2.1-0.7
					c1.7-0.5,3.8-1,6.5-1.2c5.2-0.6,12.2-0.5,19.4-0.4c1.8,0,3.7,0,5.5,0c0.9,0,1.9,0,2.8-0.1c0.5,0,0.9,0,1.4-0.1
					c0.6-0.1,1.1-0.1,1.7-0.2c4.5-0.5,8.5-2.7,11.5-5.3c3-2.7,4.9-6,5.9-9s1.2-5.8,1.1-7.7c0-0.5-0.1-1-0.1-1.4
					c-0.1-0.5-0.2-1.1-0.3-1.6c-0.1-0.5-0.2-1.1-0.4-1.6c-0.2-0.5-0.3-1.1-0.5-1.6c-0.1-0.3-0.2-0.4-0.2-0.6l-0.2-0.6
					c-0.6-1.5-1-2.9-1.2-4.3s-0.3-2.7-0.2-4.1c0.1-1.4,0.3-2.7,0.5-4c0.2-1.2,0.4-2.5,0.6-3.8l0.2-1c0-0.3,0.1-0.6,0.2-0.9
					c0.1-0.6,0.3-1.2,0.4-1.8c-0.6,1.1-1.1,2-1.6,2.8c0.7-2.3,1.9-4.8,2-6c0.4-1.5,0.4-2.6,0.4-3.2c-0.1-0.6-0.2-0.7-0.4-0.5
					c-0.3,0.5-0.9,1.9-1.6,2.9c-0.8,1.4-0.6-0.8-1.8,1.4c0.6-1.6,1-2.5,1.2-4.1c-0.1-0.1-0.2,1.1-0.6,2.3c-0.4,1.2-0.8,2.2-0.8,1.5
					c0.7-1.5,1.2-3.5,1-4.8c-0.1,0.1-0.1,0.5-0.2,1s-0.3,1.1-0.5,1.8c-0.4,1.3-1,2.5-1.1,2.3c0.1-0.5,0.7-1.6,1.1-2.6s0.5-1.9,0.2-2
					c-0.1,0-0.1,0.3-0.2,0.7c-0.1,0.4-0.2,1-0.3,1.4c0.3-1.2,0.3-2.2,0.1-2.6c-0.2-0.4-0.4-0.4-0.6-0.4c-0.5,0,0,0.6-0.5,0.7l0,0
					c0,0-0.1,0,0.1,0c0.1,0,0.2-0.1,0.1,0s0,0.1-0.1,0c0,0-0.1-0.1-0.2-0.1c-0.4-0.2-1.2-0.4-2-0.4l0,0c0.8,0,1.9,0.4,2,0.5
					c-0.2-0.2-1-0.3-1.8-0.4c0.1,0.1,0.3,0.2,0.4,0.3c0.6,0.1,1,0.3,1.2,0.4c-0.2-0.1-0.6-0.2-1-0.3c0.3,0.2,0.7,0.5,0.8,0.7
					c0,0,0.1,0.1,0,0.1c0,0,0,0.1,0,0c0.1-0.1,0.1-0.2,0.2-0.3c0.1-0.1,0.3-0.3,0.3-0.4c0.1-0.1,0.2-0.2,0.2-0.2
					c0.1-0.1-0.3,0.2-1.2,0.3h-0.2h-0.1l0,0l0,0c0,0,0,0-0.1,0.1c0,0-0.1,0.1-0.1,0.2c-0.1,0.2-0.2,0.4-0.2,0.6
					c-0.5,1.8-1.9,4.4-2.8,7.4c-0.8,2.6-1.7,5.4-2.3,8.6c-0.5,3.2-0.4,6.8,0.4,10c0.4,1.6,0.9,3.1,1.4,4.5c0.2,0.4,0.2,0.5,0.3,0.8
					l0.2,0.7C349.3,328,349.4,328.4,349.5,328.9z"/>
			</g>
		</g>
	</g>
	<g>
		<g>
			<g>
				<path class="st5" d="M226.3,204.2c0,0.2,0.7,0.4-0.4,0.5c-1.8,0.2-3.3,0.4-4.8,0.8c-1.5,0.4-2.9,0.9-4.3,1.8v0.4
					c-2.2,1.1-4.3,2.6-6.2,4.3c-3.3,3.4-5.8,7.4-7.4,11.7c0.2-0.1,0.3-0.1,0.1,0.4c-0.6,1.8-1.5,4.3-2,7c-0.1,0.4-0.1,0.8-0.1,1.2
					c0,0.3,0.1,0.4,0.2,0.5c-0.1,0.6-0.1,1.2-0.2,1.7c-0.1,0.6-0.1,1.1-0.1,1.6c0.2,6.7,2.7,13.2,6.7,18.5c2,2.6,4.4,5,7.3,6.9
					c1.4,1,2.7,1.7,4.1,2.6c1.3,0.8,2.7,1.6,4,2.4c2.3,1.3,4.7,2.6,6.6,4.1c0.7,0.6,1.2,1.2,1.9,2.1c0.7,0.8,1.4,1.7,2.1,2.6
					c1.4,1.7,3.1,3.4,5,4.5c0-0.7,2.3,0.3,4.4-0.1c1-0.2,1.9-0.6,2.4-1s0.5-0.7,0.1-0.9c1-0.3,2.2-1.1,3-1.9s1.2-1.6,1.1-1.7
					c-0.3-0.5-0.4-1.2-0.5-2.2c-0.1-1.1-0.2-2.6-0.6-5.6c-0.1-1.2-0.2-2.8-0.2-4.3s0-2.9-0.1-3.4c-0.2-0.7-0.3,0.1-0.5,1.1
					c-0.1,0.9-0.3,1.8-0.5,1.1c0.1,2.6,0.3,4.9,0.2,6.9c0,1.9-0.4,3.3-0.9,4.1c-0.6,0.9-1.8,1.9-2.6,2.1c-0.4,0.1-0.7,0.1-0.8,0.1
					c-0.5-0.1-1-0.3-1.6-0.7c-1.2-0.7-2.5-2.1-4-3.9l-1.1-1.3l-0.6-0.7l-0.8-0.9c-1.1-1.1-2.1-2-3.2-2.8c-2.1-1.6-4.1-3-6.2-4.4
					c-2-1.4-4.1-2.7-5.8-4c-1.1-0.7-3.9-2.7-6.3-6.5c-1.2-1.9-2.3-4.2-3-6.7c-0.3-1.3-0.6-2.6-0.7-4c-0.1-1.4-0.1-2.8,0-4.2
					c0.3-2.8,1-5.6,2.2-8.2c1.2-2.5,2.7-4.8,4.4-6.6s3.6-3.2,5.1-4c1.6-0.8,2.9-1.2,3.9-1.3c0.2-0.1,0.5,0,0.7-0.1
					c2.1-0.1,4.5,0.5,6.7,1.9c2.2,1.3,4.2,3.2,5.6,4.8c1.4,1.6,2.7,3.4,3.8,5.4c-0.2-1-0.4-2-0.6-2.9c1,2.1,1.7,4.3,2.2,5.1
					c1,2.4,1.4,2.9,1.6,2.4c0.2-0.4,0.2-1.7,0.2-2.8c-0.1-1.5,1,0.2,0.6-2.1c0.5,1.6,0.8,2.4,1.2,4c0.2,0-0.2-1.2-0.6-2.3
					c-0.4-1.1-0.7-2.1-0.3-1.6c0.4,1.6,1.1,3.3,1.6,4.9c0.1-0.3-0.2-1.8-0.6-3.1c-0.4-1.3-0.8-2.5-0.5-2.5c0.2,0.4,0.5,1.6,0.7,2.7
					c0.2,1.1,0.5,2.1,0.8,2.2c0.1,0-0.3-1.6-0.6-2.4c0.9,2.5,1.5,4.4,1.9,5.1c0.4,0.7,0.6,0.2,0.3-2.2c0.4,1.6,0.7,3.9,1.2,5.6l0,0
					c-0.2-0.8-0.4-2.3-0.6-3.1c0.2,1,0.4,1.9,0.7,2.9c0-0.2,0.1-0.4,0.1-0.6c-0.1-0.7-0.2-1.5-0.4-2.2c0.1,0.6,0.3,1.3,0.4,1.9
					c0.1-0.5,0.1-1.1,0.1-1.7c-0.2-2.4-0.3-4.8-0.7-6c-1.5-5.2-3.6-10.7-7.8-15.3c-2.1-2.3-4.6-4.2-7.4-5.7c-1.5-0.7-3-1.3-4.6-1.7
					C229.8,204.3,228.1,204.2,226.3,204.2z"/>
			</g>
		</g>
	</g>
	<g>
		<g>
			<g>
				<path class="st5" d="M340.3,213.3c0.2,0.1,0.5-0.1,0.4,0.3c-0.2,1.1-1.1,1.7-1.3,2.8l0.3,0.2c-0.4,0.7-0.9,1.5-1.3,2.3
					c-0.5,1.6-1,3.2-1.5,4.8c0.1,0,0.2,0,0.2,0.2c-0.1,0.7-0.6,1.6-0.9,2.6c0,0.2-0.1,0.3-0.1,0.5c0,0.1,0.1,0.2,0.2,0.2
					c-0.2,0.5-0.3,0.9-0.4,1.2c-0.4,2.6-0.6,5.3-0.5,8.1s0.5,5.7,1.5,8.5c0.6,1.2,1.2,2.3,1.8,3.3c0.8,1.5,1.4,3.5,2.2,5
					c0.4-0.4,1.3,0.2,2.1,0.6c0.9,0.4,1.7,0.6,1.8,0c0.3,0.3,0.7,0.7,1.1,0.9s0.7,0.3,0.8,0.2c0.3-0.4,0.7-0.8,1.2-1.1
					c0.2-0.2,0.5-0.4,0.8-0.5c0.3-0.2,0.6-0.3,1.1-0.5c0.3,0,0.9-0.1,1.3,0c0.5,0,0.9,0,1-0.2c0.3-0.2-0.1-0.3-0.4-0.4
					c-0.3-0.1-0.6-0.3-0.4-0.4c-0.8,0.1-1.4,0.1-1.9,0s-0.8-0.2-1-0.3s-0.4-0.3-0.7-0.6c-0.3-0.3-0.7-0.9-1.1-1.5s-0.8-1.4-1.2-2.2
					l-0.6-1.3l-0.4-1c-0.5-1.4-0.8-2.9-0.9-4.5c-0.2-0.5-0.3-1.9-0.2-3.8c0.1-1.9,0.5-4.3,1.3-6.8c0.7-2.5,1.7-5.2,2.5-7.5
					s1.6-4.3,2-5.4l0.1-0.4c0.9-2.5,1.9-5.6,2.2-7.9c0.1-1.1,0-2.2,0-3.3c-0.3,0.4-0.6,0.8-0.9,1.1c0.3-1,0.6-2.1,0.5-2.5
					c0.1-2.4-0.8-1.2-1.8-0.6c-0.5,0.5-0.8-0.4-1.4,0.4c0.2-0.7,0.3-1,0.5-1.7c-0.3-0.2-0.4,2.1-0.8,1.5c0.3-0.6,0.3-1.4,0.5-2
					c-0.5,0.1-0.8,2.3-1.1,2c0-0.4,1.1-1.7,0.6-2c-0.1-0.1-0.3,0.6-0.4,0.9c0.4-2.1,0.1-3.2-0.9-1.6c0.2-0.6,0.6-1.4,0.6-2.1l0,0
					c-0.1,0.3-0.3,0.8-0.4,1.1l0.2-1.1c-0.1,0-0.2,0.1-0.3,0.2c-0.1,0.3-0.2,0.5-0.3,0.8l0.2-0.7c-0.2,0.1-0.4,0.3-0.6,0.5
					c-0.5,0.8-1.2,1.5-1.4,1.9C343.2,205.4,341.7,209.4,340.3,213.3z"/>
			</g>
		</g>
	</g>
	<g>
		<g>
			<g>
				<path class="st5" d="M213.6,346.5c0.1-0.2-0.1-0.5,0.4-0.3c1.5,0.7,2.4,2,3.9,2.6l0.3-0.2c1.1,0.8,2.2,1.6,3.4,2.3
					c2.4,1.1,4.8,2.1,7.4,2.9c0-0.1,0-0.3,0.2-0.2c1.1,0.3,2.6,0.9,4,1.3c0.2,0,0.5,0.1,0.7,0.1s0.3-0.1,0.3-0.2
					c0.7,0.2,1.3,0.4,1.8,0.5c7.5,1.1,15,1,22.8,0.8c1.7-0.2,3.4-0.3,5-0.4c2.4,0.1,5.4,0.5,7.7,0.6c-0.3-1.1,5.4-1.5,4.3-2.7
					c1.5,0.1,3.8,0.1,3.9-0.2c0.4-1,1.5-2.1,5.5-2.8c1.6-0.2,4,0.1,4.5-0.1c0.9-0.4-2.1-0.6-1.2-1c-5.8,0.1-11.5,0.1-17.2-0.1
					s-11.5-0.6-17.4-1.1c-2,0-9.8-0.3-17.3-2.1c-0.9-0.2-1.9-0.5-2.8-0.7c-0.9-0.3-1.8-0.5-2.6-0.9c-0.9-0.3-1.7-0.7-2.5-1
					s-1.6-0.7-2.4-1.1c-3.1-1.5-5.6-3-7-4l-0.5-0.3c-3.2-2-7.1-4.4-10-5.9c-1.4-0.6-2.8-1.2-4.3-1.8c0.5,0.6,0.9,1.1,1.3,1.5
					c-1.3-0.9-2.5-1.8-3.2-1.9c-3-1.4-1.8,0.1-1.2,1.5c0.6,0.8-0.7,0.5,0.2,1.6c-0.8-0.6-1.3-0.9-2.1-1.4c-0.3,0.2,2.7,1.6,1.8,1.7
					c-0.8-0.7-1.8-1.1-2.6-1.7c0.1,0.6,2.9,2.1,2.5,2.4c-0.5-0.2-2.1-2.1-2.5-1.7c-0.1,0.1,0.8,0.6,1.2,0.9c-2.7-1.6-4.4-2.1-2.4,0
					c-0.8-0.6-1.9-1.5-2.8-2l0,0c0.4,0.3,1.1,0.9,1.5,1.1l-1.5-1c0,0.1,0.1,0.2,0.1,0.4c0.3,0.3,0.7,0.6,1.1,0.8l-1-0.6
					c0.2,0.3,0.3,0.6,0.6,1c1,1,1.8,2.2,2.5,2.6C203,339.4,208.1,343.1,213.6,346.5z"/>
			</g>
		</g>
	</g>
	<g>
		<g>
			<g>
				<path class="st5" d="M202.6,418.8c0.1-0.2-0.2-0.5,0.4-0.4c1.8,0.4,3,1.4,4.8,1.7l0.2-0.3c1.3,0.5,2.7,1,4,1.5
					c2.6,0.6,5.3,1,7.9,1.4c0-0.1-0.1-0.2,0.2-0.2c1.1,0.1,2.6,0.5,4.1,0.8c0.2,0,0.5,0,0.7,0.1c0.2,0,0.3-0.1,0.3-0.2
					c0.7,0.1,1.3,0.3,1.9,0.4c7.8,0.5,15.7,0.5,24.1,0c1.8-0.3,3.6-0.5,5.3-0.6c1.3-0.1,2.7,0,4.2,0c1.4,0,2.9,0,4.1,0
					c-0.2-0.6,1.2-1,2.5-1.6c1.3-0.5,2.4-1,1.8-1.6c1.6-0.1,4.1-0.3,4.1-0.6c0.3-1,1.4-2.2,5.4-3.4c1.6-0.4,4.1-0.5,4.6-0.8
					c0.8-0.5-2.2-0.3-1.4-0.7c-5.9,1-11.8,1.6-17.8,1.9s-12.1,0.3-18.3-0.1c-2.1,0.2-10.4-0.3-18.9-1.5s-17.2-3.4-20.6-4.6l-0.6-0.2
					c-3.8-1.2-8.2-2.8-11.2-3.9c-0.7-0.2-1.4-0.4-2.1-0.6l-1.1-0.3l-1-0.4c0.4,0.5,0.9,1,1.3,1.5c-1.3-0.8-2.5-1.7-3-1.9
					c-0.7-0.4-1.1-0.6-1.4-0.7c-0.3-0.1-0.4,0-0.4,0.2s0,0.5,0.1,0.8s0.3,0.7,0.4,1c0.5,0.9-0.8,0.5,0.2,1.7
					c-0.4-0.3-0.8-0.6-1.1-0.9s-0.7-0.5-1.1-0.9c-0.4,0.2,2.8,2.1,1.8,2c-0.8-0.8-1.9-1.4-2.7-2.2c0,0.3,0.7,1.1,1.4,1.7
					s1.4,1.2,1.2,1.3c-0.6-0.3-2.2-2.5-2.7-2.3c-0.1,0,0.7,0.9,1.2,1.3c-1.5-1.1-2.6-2.1-3.1-2.5c-0.3-0.2-0.4-0.1-0.4,0.1
					c0,0.1,0.1,0.3,0.2,0.6c0.1,0.3,0.3,0.6,0.6,1c-0.1-0.1-0.2-0.2-0.3-0.4c-0.1-0.1-0.2-0.3-0.3-0.5c-0.2-0.3-0.4-0.7-0.7-1
					c-0.4-0.7-0.8-1.5-1.2-2.2l0,0c0.2,0.3,0.4,0.8,0.6,1.3c0.1,0.2,0.2,0.5,0.3,0.7s0.2,0.3,0.3,0.5l-0.4-0.5l-0.3-0.6l-0.6-1.2
					c0,0.2,0,0.3,0,0.5c0.1,0.3,0.3,0.6,0.4,0.9l0.2,0.5l0.3,0.4c-0.3-0.4-0.6-1-0.9-1.5c0.1,0.5,0.1,1,0.3,1.6
					c0.9,1.9,1.9,3.5,2.7,4.2c3.1,2.7,6.3,4.5,9.5,6.1C196.1,416.5,199.3,417.7,202.6,418.8z"/>
			</g>
		</g>
	</g>
</g>
</svg>
