<?xml version="1.0" encoding="utf-8"?>
<!-- Generator: Adobe Illustrator 25.4.1, SVG Export Plug-In . SVG Version: 6.00 Build 0)  -->
<svg version="1.1" id="Lager_1" xmlns="http://www.w3.org/2000/svg" xmlns:xlink="http://www.w3.org/1999/xlink" x="0px" y="0px"
	 viewBox="0 0 500 500" style="enable-background:new 0 0 500 500;" xml:space="preserve">
<style type="text/css">
	.st0{fill:#F9CFB5;}
	.st1{fill:#FFFFFF;}
	.st2{fill:#B8E1F0;}
	.st3{fill:#1D1D1D;}
	.st4{fill:#CC0066;}
</style>
<path class="st0" d="M61.8,405.4c0,0,179.9-81.9,338.8-20.7c11,4.2,34.5,16.7,38,20.7"/>
<path class="st1" d="M308.8,281.4l-31.8,1.9l40.2,40.2c42.7,10,42.6,37.3,42.6,37.3l12.6,13h31L308.8,281.4z"/>
<path class="st2" d="M119.4,86.1c3.6,0,7,1.4,9.5,3.9l190.6,200.2L295.1,302L109.8,108.8c-5.2-5.3-5.1-13.8,0.2-18.9
	C112.6,87.4,115.9,86,119.4,86.1z"/>
<path class="st3" d="M330.6,330.2c0.1-0.1-0.8-0.5,0.6,0c1.1,0.5,2.1,1,3,1.4l1.4,0.7c0.5,0.2,0.9,0.5,1.4,0.8l2.7,1.7l1.4,0.9
	l1.4,1l0.4,0.1l2.1,1.6c0.7,0.6,1.3,1.2,2,1.9c1.3,1.3,2.6,2.6,3.8,4.1c2,2.4,3.6,5.1,4.9,7.9c0.6,1.4,1.1,2.8,1.5,4.3
	c0.2,0.7,0.3,1.5,0.5,2.2l0.2,1.1l0.1,0.8v1.2c0.7,0.7,1.3,1.4,2,2.1c-0.1-0.2-0.1-0.3,0.4,0.2c2.1,2.1,5,5.2,8,8.3l1.4,1.4
	c0.2,0.2,0.4,0.3,0.6,0.4l1.7,1.7h4.8l13.2-0.2l6.9-0.1l11.3-0.1l-9.5-9.5l-6.9-6.8L377.5,345c-3.6-3.5-7.1-6.9-10.5-10.3
	c-5-5-11.2-11.6-16-16.6c0.3,1.2-11.6-10.7-9.7-7.9c-3.2-3.3-8-8.3-8.4-8.4c-1.1-0.4-4-2.6-12.7-11.1c-3.4-3.4-8.4-8.8-9.6-9.9
	c-2-1.8,4.1,4.7,2.1,2.9c24.7,25.6,48.7,50.1,73.6,75.8l6,6l4.6,4.7l1.1,1.1l0.1,0.1l0.3,0.3H397h-7.6H374L362.6,360v-0.1
	c0-0.3-0.1-0.6-0.1-0.9c-0.1-0.6-0.2-1.2-0.3-1.9c-0.3-1.2-0.6-2.4-0.9-3.5c-0.8-2.2-1.7-4.4-2.9-6.5l-0.9-1.5l-0.4-0.7l-0.5-0.7
	l-2-2.6c-1.3-1.6-2.8-3.1-4.3-4.5l-2.2-2c-0.7-0.6-1.5-1.1-2.2-1.6l-2.1-1.5c-0.7-0.5-1.4-0.9-2.1-1.3l-1.9-1.1
	c-0.6-0.4-1.2-0.7-1.8-1l-3.2-1.5L333,326c-1.4-0.5-2.8-1-4.3-1.6s-2.9-1.1-4.5-1.5l-4.6-1.3l-0.6-0.1l0,0l0,0l0,0l-0.2-0.2
	l-1.6-1.6c-4.4-4.3-8.6-8.5-12.1-11.9l-9.9-9.2l3.9,4.3c-3.2-3.3-6.5-6.5-7.8-7.7c-7.1-6.8-3.4-2.6-1,0.3c1.8,2-1-0.4,1.9,2.8
	l-5.4-5.5c-0.4-0.1,6.8,6.6,5.1,5.3c-2-2.1-4.5-4.4-6.6-6.6c0.6,0.9,7.5,7.6,7,7.4c-1.2-1.1-5.9-6.3-6.5-6.5c-0.1,0,2,2.1,3.1,3.2
	c-6.7-6.6-10.6-10.1-4.7-3.8c-2.1-2.1-5-5.2-7.3-7.4l0,0l4,4.1l-3.8-3.8l0.6,0.7c0.9,1,1.9,2,2.9,2.9l-2.5-2.5
	c0.6,0.7,1.2,1.5,2,2.3c2.9,3.1,5.6,6.2,7.2,7.8l19.6,19.9l4.9,5l2.5,2.5l1.2,1.2l0.8,0.8l0.3,0.3c0.1,0.1,0.2,0.2,0.4,0.2l0.9,0.2
	l6.8,1.9C326.4,328.6,328.5,329.5,330.6,330.2z"/>
<path class="st3" d="M214.3,212.4c-0.2,0.1,1.1,1.7-1.2-0.5c-7.1-7-12.1-13.3-19.2-20.3l-0.7-0.3l-16.3-17.6l-31.6-32.3
	c0.2,0.4,0.2,0.6-0.8-0.5c-4.4-4.4-10.3-10.7-16.5-17.2l-2.8-2.8c-0.3-0.4-0.7-0.7-1.2-0.9l-7.6-8l-5.8-5.8l-0.4-0.4
	c-0.1-0.1-0.2-0.2-0.2-0.3l-0.5-0.6c-0.3-0.4-0.6-0.7-0.8-1.2c-0.5-0.8-0.8-1.7-1.1-2.6c-0.4-1.9-0.2-3.9,0.5-5.7
	c0.8-1.8,2.1-3.3,3.7-4.4c0.2-0.1,0.4-0.3,0.6-0.4l0.7-0.3c0.2-0.1,0.4-0.2,0.7-0.3l0.7-0.2c0.5-0.1,1-0.2,1.5-0.2
	c0.5-0.1,1-0.1,1.5,0c2,0.1,4,0.9,5.5,2.2c0.2,0.2,0.3,0.3,0.6,0.5l0.7,0.8l1.5,1.5l2.9,3l5.9,6.1l48.7,50.4
	c7.2,7.2,14.4,14.5,21.2,21.6c10.1,10.6,22.6,24.3,32.3,34.7c-0.7-2.4,23.5,22.5,19.6,16.7c6.5,6.9,16.2,17.4,16.9,17.7
	c2.2,0.9,8,5.5,25.7,23.5c6.8,7.1,16.9,18.4,19.4,20.8c4,3.8-8.2-9.8-4.3-6c-49.8-53.7-98.4-104.9-148.8-158.8
	c-4.4-4.5-14.9-15.6-28.7-30.2l-5.3-5.6c-0.4-0.5-0.9-1-1.4-1.5l-0.4-0.4l-0.2-0.2l-0.3-0.3c-0.4-0.4-0.7-0.6-1.1-0.9
	c-1.4-1.2-3.1-2.1-4.8-2.8c-1.8-0.7-3.6-1.1-5.5-1.2c-1-0.1-1.9,0-2.8,0.1c-0.5,0-0.9,0.1-1.4,0.2l-1.4,0.4c-3.9,1-7.3,3.2-9.8,6.4
	c-2.4,3.2-3.8,7.2-3.8,11.3c0.1,4.2,1.6,8.2,4.4,11.4l0.5,0.6c0.1,0.2,0.3,0.3,0.5,0.5l0.8,0.8l1.6,1.7l3.3,3.4l6.6,6.8
	c35.4,36.6,72.4,74.8,87.4,90.6l2.8,2.8c16.4,17.1,36.5,37.8,50.8,51.9l20,19.4l-7.8-8.9c6.6,6.9,13.1,13.7,15.8,16.2l4.4,4.3
	l3.1,2.9c1.7,1.5,1.9,1.5,1.3,0.8c-0.3-0.4-0.7-1-1.3-1.7l-1.8-2.2l-3.8-4.7c-3.6-4.3,2,0.8-3.8-5.7l10.9,11.2
	c0.1,0-0.1-0.2-0.3-0.5s-0.7-0.7-1.3-1.4c-1.2-1.2-2.8-2.9-4.4-4.5c-3.1-3.2-5.8-6-4.1-4.6c1.8,2,3.8,4,5.8,6.1l5.5,5.6l1.6-0.7
	c-0.5,0.1-1.1,0.3-1.6,0.5c-0.4-0.4-0.8-0.9-1.3-1.4l-1.8-1.9l-4.4-4.6c-2.8-3-5-5.4-4.6-5.2c1.2,1.1,4,4.2,6.7,7.2l2,2.2l1.8,1.9
	c0.5,0.6,1.1,1.1,1.8,1.6c0.1,0,0.1-0.1,0.2-0.1c0,0,0,0-0.1,0l-0.7-0.8c-0.3-0.4-0.7-0.8-1.2-1.2l-3.5-3.7l3.4,3.4l2.1,2l6.2-3.1
	c1.9-1,3.1-1.6,3.5-1.9s0.1-0.3-1.3,0.2c-0.7,0.2-1.6,0.6-2.7,1.1l-4.1,1.7l9.5-4.3c3.4-1.5,6.9-3.1,9.9-4.5l0,0l-10.8,4.9l10.1-4.5
	l-1.9,0.6c-2.5,1.1-5.1,2.2-7.7,3.4l6.7-3.1c-1.7,0.6-3.7,1.4-5.9,2.2l-7.2,3l-1.7,0.7l-0.8,0.3l-0.4,0.2H297l0,0
	c-0.2,0-0.3,0.1-0.5,0.1l-0.2-0.3l-0.1-0.1l0,0l0,0l-0.1-0.2c-0.8-0.9-1.5-1.7-2.2-2.4C267.4,267.8,240.9,240,214.3,212.4z"/>
<path class="st4" d="M347.9,369.2c-0.8,0.1,19.1,8.7,16.9,20.7c-0.9,4.8-6.1,24.1,5.9,24.1c9.2,0,9.8-14.5,3.4-25.1
	c-4.3-7.2,15.7-8.4,18.5-7.6C392.6,381.3,357.8,368.4,347.9,369.2z"/>
<path class="st3" d="M149.8,379.4c0-0.1-1.3,0.1,0.7-0.4c6.2-1.6,11.4-2.3,17.6-3.7l0.4-0.2c4.9-0.9,10-1.8,15.2-2.6
	c9.6-1.7,19.2-3.2,28.7-4.5c-0.3,0-0.4-0.1,0.6-0.2c2-0.3,4.4-0.6,7-0.8s5.4-0.5,8.3-0.8l2.5-0.3c0.3,0,0.6-0.1,0.9-0.2l7-0.5
	c14.1-1.1,28.3-1.8,43-1.6c15,0.1,30.1,1.2,45,3.1c6.5,0.9,13.1,1.8,19.3,3.1c10,2.1,19.9,4.7,29.5,7.9c-0.3-0.2,0.8,0,2.6,0.5
	s4.2,1.1,6.5,1.9l6,1.9c1.4,0.4,2,0.5,1,0c5.7,2.2,14.1,6,14.6,6.1c1.9,0.4,3.7,1,5.4,1.8c1.6,0.6,3.6,1.6,6.1,2.8s5.5,2.8,9.1,4.8
	c1.4,0.8,2.9,1.8,4.5,2.7s3.2,2,4.7,3c2.9,2,5.5,3.7,6.4,4.3c3,1.9-6.7-4.9-3.7-3.1C419,391.2,397.5,381,374.8,374
	c-22.7-6.9-46-11.4-69.6-13.2c-4.1-0.3-14-1-27.1-1.2s-29.2,0.3-45.7,1.8c-8.2,0.7-16.6,1.6-24.6,2.7s-15.8,2.3-23,3.5
	c-14.3,2.5-26.2,5.1-33.1,6.6l-2.5,0.6c-15,3.4-33,8.5-45.4,12.6c-5.7,1.9-11.4,3.9-17.1,6c2.7-0.8,5.2-1.5,7.4-2.2
	c-5.8,1.9-11.7,3.9-13.8,4.8c-12.2,4.7-5.2,2.4-0.3,1.1c3.5-1-1.1,0.8,4.3-0.9c-3.8,1.3-5.8,2-9.6,3.4c-0.2,0.2,2.8-1,5.4-1.9
	s5.1-1.8,3.8-1.2c-3.7,1.2-7.8,2.8-11.7,4.2c1.4-0.3,13.3-4.7,12.8-4.3c-2.1,0.8-10.9,3.6-11.6,4.1c-0.1,0.1,3.7-1.3,5.6-2
	c-5.9,2.1-10.4,4-12.1,4.8s-0.6,0.5,4.8-1.4c-3.7,1.4-9,3.3-12.8,5l0,0c1.9-0.8,5.3-2.1,7.1-2.8c-2.2,0.9-4.4,1.8-6.6,2.7l1.2-0.4
	l5.1-2l-4.4,1.8l3.8-1.3c5.3-1.9,10.5-3.5,13.3-4.5C102,391.9,125.7,385,149.8,379.4z"/>
<path class="st4" d="M364.8,389.8c-0.9,4.8-9.4,24.1,5.9,24.1c13.1,0,12.3-11.5,3.4-25.1"/>
</svg>
