<?xml version="1.0" encoding="utf-8"?>
<!-- Generator: Adobe Illustrator 25.4.1, SVG Export Plug-In . SVG Version: 6.00 Build 0)  -->
<svg version="1.1" id="Lager_1" xmlns="http://www.w3.org/2000/svg" xmlns:xlink="http://www.w3.org/1999/xlink" x="0px" y="0px"
	 viewBox="0 0 500 500" style="enable-background:new 0 0 500 500;" xml:space="preserve">
<style type="text/css">
	.st0{fill:#FFFFFF;}
	.st1{fill:#1D1D1D;}
	.st2{fill:#F9CDDE;}
	.st3{fill:#CC0066;}
</style>
<g id="Endokrina">
	<path class="st0" d="M195.2,239.4c0,0-8.8-31.1-4-39.9s29.6-23.1,43.9-11.3s19.3,1.9,19.3,1.9s21.6-12.8,33.6-2.5s14,33.7,6.9,60.3
		l8.8,37.9c0,0-16.4,45.4-19,44.4s-17.5,23.6-17.5,23.6l3.3,11.5l4.7,14.3v14.2l-2.1,12.4v17.5l-2.6,10.1l-43.5,3.7l-8.3-4.3
		c0,0-6.2-26.7-4.5-27s4.5-17.6,4.5-17.6l-4.5-0.5l2.3-16.3v-13.7c0,0-29.5-65.7-30.5-67.2S195.2,239.4,195.2,239.4z"/>
	<path class="st1" d="M269.5,427.9c0.2,0.1,0.4,0,0.4,0.3c-0.1,0.4-0.4,0.7-0.7,0.8c-0.3,0.1-0.6,0.3-0.9,0.5l0.1,0.3
		c-0.9,0.3-1.9,0.4-2.8,0.4c-1,0.2-2.2,0.4-3.6,0.6l-3.9,0.5c0.1,0.1,0.1,0.2-0.1,0.3c-1.1,0.2-2.6,0.2-4.2,0.3l-0.7,0.1
		c-0.1,0.1-0.2,0.2-0.2,0.3c-0.7,0-1.4,0-1.9,0.1c-3.9,0.6-7.7,1.1-11.8,1.6c-2,0.2-4,0.5-6.1,0.7L230,435c-1,0.1-1.9,0.1-2.9,0.1
		c-1.4,0.2-2.7-0.2-3.7-1.2c-0.7-1-1.1-2.1-1.2-3.3c-0.1-1.3-0.1-2.7-0.1-4c-1.2,0.4-1.7-5.8-2.9-4.6c0-1.7,0.1-4.3-0.3-4.4
		c-1-0.4-2.1-1.7-2.7-6.2c-0.1-1.8,0.3-4.5,0.1-5.1c-0.3-1-0.7,2.3-1,1.3c-0.2,6.6-0.1,13-0.1,19.5c0,2,0.2,4,0.6,6
		c0.3,1.3,0.8,2.5,1.4,3.6c0.7,1.3,1.7,2.5,2.9,3.4s2.5,1.5,3.9,1.9c1.1,0.3,2.3,0.5,3.5,0.5c2.1,0.1,3.6,0,5.3,0
		c2.3-0.3,11.1-0.6,20.4-1.4c2.3-0.2,4.6-0.4,6.9-0.7s4.4-0.4,6.7-0.8c2.4-0.3,4.7-1.1,6.7-2.4c1.7-1.1,3.2-2.5,4.2-4.3
		c0.2-0.3,0.3-0.6,0.5-1c1.2-2.7,1.8-5.6,1.6-8.6c0-1.2-0.1-2.4-0.3-3.6c-0.1-1-0.3-2-0.5-2.9c-0.4-1.6-0.8-3.3-1.3-4.9
		c-0.1,0.8-0.3,1.5-0.4,2.2c0-1.3-0.2-2.7-0.5-4c-0.8-3.6-1.2-1.5-1.9,0c-0.3,1-0.9-0.3-1.1,1.3c-0.1-1.1-0.1-1.7-0.2-2.8
		c-0.3-0.1,0.4,3.5-0.2,2.7c0-1.1-0.2-2.3-0.3-3.4c-0.4,0.4,0.1,3.9-0.3,3.8c-0.1-0.6,0.4-3.2-0.2-3.4c-0.1,0.6-0.1,1.1,0,1.7
		c-0.4-3.5-1.1-5.4-1.4-2.1c-0.1-1.1,0-2.7-0.1-3.8l0,0c0,0.6,0,1.6,0,2.1l-0.1-2c-0.1,0.1-0.1,0.2-0.2,0.4c0,0.5,0,1,0,1.5
		l-0.1-1.3c-0.2,0.4-0.3,0.8-0.4,1.2c-0.3,1.3-0.5,2.7-0.6,4c0.1,3.4,0.3,6.9,0.4,10.3c0.1,1.5,0.1,3,0,4.5
		C270.1,425.9,269.9,426.9,269.5,427.9z"/>
	<path class="st2" d="M322.5,281.9c4.8-3.8,5.6-10.8,1.8-15.6c-2.6-3.3-6.9-4.8-11-4c5.2-3.8,6.7-11.7,3.6-17.4
		c-3.4-5.7-10.1-8.5-16.6-6.9c-6.2,1.7-9.7,7.4-10.3,13.8l0,0c-11.6,2.8-19.9,16.6-15.9,26.6c-7.8,1.1-11.4,8.1-10.4,15.9
		c-7.7-5.8-18.9-3.7-26.9,1.5c1-2.5-0.8-5.2-2.4-7.3c-2.2-2.9-4.4-5.8-6.6-8.7c-3-4-7.6-8.4-12.2-6.4c4.3-2.4,4.1-9.2,0.7-12.8
		s-8.6-4.6-13.5-4.9c4.7-6.4-1-16.8-9-17.6s-15.2,6.3-16.4,14.2c-0.2,1.8-0.3,3.7-1.3,5.3c-0.8,1.3-2.2,2.2-3.3,3.3
		c-4.6,5.1-0.6,13.1,3.5,18.6c-5.7,3.7-4.5,14.1,2,16.3c-7.7,5.8-9.2,16.7-3.5,24.3c3.3,4.3,8.4,6.9,13.8,7
		c-4.7,6.5-0.1,17.3,7.9,18.4c-3.5,7.1-0.3,16.9,7.1,19.8s16.9-2.8,17.1-10.7c5.9,1.9,12.6-4.2,11.4-10.3c3.5,3.6,10.1,1.8,13.1-2.4
		s3.2-9.5,3.4-14.5c-0.1,4.2-0.1,8.6,1.9,12.3s7,6.1,10.6,4c-0.2,8.4,10.7,14.6,17.8,10.2c-0.9,3.6,2.4,7.3,6,8.1s7.4-0.4,11-1.6
		c3-1.1,6.4-2.6,7.2-5.7c0.5-2-0.3-4.2-0.1-6.3c0.4-3.7,3.9-6.2,6.4-9s4-7.8,0.8-9.9c7.4-3.5,11.2-13.2,8-20.8
		C328.3,304.5,330.6,289.1,322.5,281.9z"/>
	<circle class="st3" cx="191.3" cy="251.7" r="14.1"/>
	<circle class="st3" cx="278.3" cy="294.4" r="16.6"/>
	<circle class="st3" cx="303.8" cy="252.2" r="12.9"/>
	<circle class="st3" cx="314.5" cy="292.9" r="12.9"/>
	<circle class="st3" cx="191.3" cy="292.9" r="14.1"/>
	<circle class="st3" cx="209.3" cy="316.2" r="14.1"/>
	<circle class="st3" cx="200.1" cy="335.7" r="14.1"/>
	<circle class="st3" cx="290.9" cy="349.8" r="14.1"/>
	<circle class="st3" cx="238.9" cy="310.9" r="14.1"/>
	<circle class="st3" cx="263.3" cy="331.4" r="14.1"/>
	<circle class="st3" cx="206.6" cy="268.9" r="14.1"/>
	<path class="st1" d="M305.5,340.2c0,0.1,0.4-0.3,0.5-0.3s-0.1,0.2-1.3,1.5c-1.1,1.1-2,2.3-2.7,3.6c-0.8,1.5-1.2,3.1-1.2,4.8
		c0,1.5,0.3,2.8,0.2,3.7c0,0.4,0,0.8-0.1,1.1c-0.1,0.4-0.3,0.8-0.5,1.1c-1.1,1.7-2.6,3.1-4.3,4.1c-0.4,0.2-0.8,0.4-1.3,0.6
		s-1,0.3-1.5,0.4c-1,0.2-2.1,0.3-3.1,0.1c-0.2,0-0.5,0-0.7,0.1c-1.1-0.2-2.1-0.5-3.2-0.8c-0.5-0.1-0.9-0.3-1.4-0.5
		c-0.4-0.2-0.8-0.4-1.2-0.7c-0.7-0.5-1.4-1.2-1.8-1.9c-0.1-0.2-0.2-0.3-0.3-0.5l-0.1-0.3c-0.1-0.2-0.1-0.3-0.1-0.5l0.1-0.6
		c0-0.4,0.1-0.7,0.1-1.2l0.3-1.4l0.5-2.8c-0.4,0.2-0.6,0.3-1.1,0.5L280,351l-1.2,0.6l-1.3,0.6l-1.3,0.6l-0.3,0.1c-0.1,0-0.1,0-0.2,0
		h-0.3c-0.4,0.1-0.7,0.1-1.1,0.1c-1.5,0.1-3-0.2-4.4-0.9c-1.8-0.7-3.3-1.9-4.5-3.5c-0.5-0.7-1-1.5-1.3-2.4L264,346
		c0-0.1,0-0.2,0-0.3l-0.1-0.8l-0.2-1.5c-0.1-1.2-0.1-2.4-0.2-3.6l-1.6,0.8c-0.6,0.3-1.2,0.6-1.7,0.8c-0.5,0.3-1,0.5-1.6,0.5
		c-0.2,0-0.3,0-0.5,0c-0.7,0-1.4-0.2-2-0.5c-1.4-0.7-2.6-1.7-3.3-3.1c-1.6-2.9-1.7-6.9-1.6-10.9l-4.9-0.1c0,3-0.3,6-1,9
		c0.1-0.4,0.3-0.5-0.1,0.9c-0.4,1.1-0.9,2.2-1.5,3.2c-0.7,1-1.6,1.9-2.7,2.5c-1.1,0.7-2.4,1.1-3.7,1.1c-0.3,0-0.6,0-0.9-0.1
		c-0.2,0-0.3,0-0.5-0.1l-1.1-0.5l-0.3-0.1c-0.1,0-0.2-0.2-0.3-0.3l-0.7-0.6l-1.4-1.3l-2.8-2.4c0,0.5,0.1,1.1,0.2,1.7
		s0.1,1.2,0.2,1.8s0.2,1.4,0.2,2c0,0.3,0.1,0.6,0.1,0.9v1.7c0,0.1,0,0.2,0,0.3v0.2l0,0v0.1l-0.2,0.5c-0.2,0.4-0.3,0.7-0.6,1.1
		c-0.6,0.9-1.3,1.8-2.2,2.4c-0.7,0.5-0.9,0.6-1,0.7c-0.4,0.2-0.8,0.3-1.2,0.5c-0.4,0.1-0.8,0.2-1.2,0.2h-0.3c-0.1,0-0.3,0-0.4,0
		l-1.4-0.2c-0.9-0.1-1.8-0.4-2.6-0.6c-0.1,1-0.2,2-0.3,2.9c0,0.5-0.1,0.9-0.2,1.4l-0.1,0.4c0,0.1,0,0.2-0.1,0.3
		c-0.1,0.3-0.3,0.7-0.4,1l-0.5,0.9c-1.5,2.3-3.9,4-6.6,4.8c-1.3,0.4-2.7,0.5-4.1,0.4c-1.4-0.2-2.7-0.7-3.9-1.4
		c-2.5-1.7-4.3-4.2-5-7.1c-0.4-1.5-0.6-3-0.5-4.6c0-0.4,0.1-0.8,0.1-1.2l0.1-0.6c0-0.2,0.1-0.5,0.2-0.7c0.2-0.7,0.4-1.3,0.7-2
		l0.9-2.2l-2.4-0.5l-1.2-0.3l-0.9-0.3c-0.3-0.1-0.7-0.4-1-0.5c-0.3-0.2-0.6-0.4-0.9-0.7c-1.3-1-2.3-2.3-3-3.8s-1.1-3.2-1.1-4.9
		c0-0.9,0.1-1.7,0.4-2.5c0.1-0.4,0.3-0.9,0.6-1.3l0.7-1.3c0.5-0.9,1-1.6,1.5-2.5c-1.4-0.1-2.9-0.1-4.4-0.3c-0.4,0-0.7-0.1-1.1-0.1
		l-0.8-0.2c-0.4-0.1-0.7-0.2-1.1-0.3c-1.5-0.5-2.9-1.1-4.2-2c-2.7-1.8-4.8-4.3-6-7.3c-1.2-3.1-1.4-6.6-0.5-9.9
		c0.5-1.7,1.2-3.3,2.1-4.8c0.2-0.4,0.5-0.7,0.8-1.1c0.1-0.2,0.3-0.3,0.4-0.5l0.2-0.3c0.1-0.1,0.3-0.3,0.4-0.4
		c0.6-0.5,1.2-1.1,1.8-1.6l0.9-0.8l0.5-0.4l0.2-0.2c0,0,0.1-0.1,0.1-0.2l-1.7-0.7l-1.8-0.9c-0.3-0.1-0.5-0.3-0.7-0.5l-0.4-0.3
		c-1.2-1.2-1.9-2.8-2.2-4.5c-0.3-1.4-0.2-2.9,0.2-4.3c0.2-0.7,0.6-1.4,1-2c0.1-0.2,0.2-0.3,0.4-0.4c0.2-0.2,0.4-0.5,0.7-0.7
		c0.5-0.5,1.1-0.9,1.6-1.3c-0.5-0.9-1.3-1.8-1.9-2.7c-0.4-0.7-0.8-1.3-1.2-1.9c-0.8-1.3-1.5-2.7-2-4.2c-0.6-1.4-0.9-3-0.9-4.5
		c-0.1-1.5,0.4-3,1.3-4.2c0.8-1,1.8-2,2.8-2.8c0.6-0.6,1.1-1.3,1.4-2c0.3-0.7,0.5-1.5,0.6-2.2c0.2-1.5,0.3-2.8,0.6-4
		c0.3-1.3,0.7-2.5,1.3-3.6c1.1-2.3,2.8-4.4,4.8-5.9c2-1.6,4.4-2.5,6.9-2.8c1.9-0.2,3.7,0.2,5.4,1c1.8,0.9,3.3,2.2,4.4,3.9
		c1.2,1.7,1.9,3.6,2.1,5.6c0,0.5,0,1,0,1.5l-0.1,0.8l-0.2,0.7l-0.1,0.4c0,0.2-0.1,0.4-0.2,0.6l-0.5,1c-0.3,0.7-0.7,1.3-1.1,1.9
		c0,0,0,0.1,0.1,0.1h0.3h0.6l1.1,0.1c0.7,0.1,1.5,0.1,2.1,0.2s1.2,0.2,1.7,0.3s1.1,0.2,1.6,0.4c2,0.5,3.9,1.4,5.6,2.7
		c1.6,1.2,2.7,2.9,3.1,4.8c0.2,0.9,0.3,1.8,0.2,2.8c0,0.5-0.1,0.9-0.2,1.3l-0.2,0.6c-0.2,0.3-0.3,0.6-0.5,0.9c0.1-0.2,0.2-0.2,0.1,0
		c0,0.1-0.1,0.2-0.1,0.3l-0.5,0.5c-0.6,0.6-1.2,1.2-1.9,1.8l-1.4,1.1l-0.5,0.4l-0.3,0.2l-0.1,0.1l0,0c0.5-0.2,1-0.4,1.6-0.6
		s1.4-0.5,2-0.6l0.9-0.2l0.5-0.1h0.4l0.8-0.1c0.2,0,0.4,0,0.6,0.1c0.2,0,0.4,0.1,0.6,0.1l0.5,0.2c0.3,0.1,0.7,0.3,1,0.4
		c0.7,0.3,1.3,0.7,1.9,1.2c1.2,0.9,2.4,2,3.4,3.1s1.9,2.3,2.8,3.4c3.5,4.3,5.9,7.1,4.3,4.7c0.8,1.1,1.7,2.2,2.5,3.5
		c0.4,0.7,0.7,1.4,1,2.1c0.2,0.5,0.3,1.1,0.2,1.7c0,0.2-0.1,0.4-0.1,0.6v0.1v0.1l0,0l0.3-0.2c0.4-0.2,0.7-0.4,1.1-0.6l1.1-0.5
		l1.4-0.5c1.8-0.6,3.6-1,5.5-1.3c2-0.2,4-0.2,5.9-0.1c0.4,0,0.8,0,1.5,0c0.8,0.1,1.6,0.2,2.5,0.4c1.2,0.2,2.4,0.6,3.6,1.1
		c0.9,0.4,1,0.4,1.3,0.5c0.2,0.1,0.3,0.1,0.4,0.2l0.2,0.1h0.1c0,0,0.1,0.1,0.1,0c-0.1-0.3-0.1-0.6-0.1-0.8c0-0.4,0-0.8,0.1-1.1
		c0.3-1.9,1-3.8,2-5.5c1.2-2,2.7-3.8,4.5-5.3c1.1-0.8,2.2-1.5,3.4-2.1l1-0.4l0.4-0.1l0.2-0.1h0.1h0.2c0-0.1-0.1-0.2-0.1-0.3
		s0-0.1-0.1-0.2c-0.1-0.4-0.1-0.8-0.2-1.1c-0.1-0.8-0.2-1.6-0.3-2.4c0-0.8,0-1.6,0-2.5s0.2-1.7,0.4-2.5c0.7-3.3,2-6.4,4-9.1
		c1.7-2.4,3.8-4.4,6.3-5.9l0.7-0.3l0.8-0.4c0.5-0.2,1-0.5,1.4-0.6l2.1-0.7c1.4-0.4,1.3-0.4,0.4-0.2c-0.4,0.1-1.2,0.3-2,0.6l-0.6,0.2
		l-0.6,0.3l-1.3,0.6c-3.5,1.8-6.1,4.7-3.8,2.3c-1.7,1.5-3.2,3.3-4.5,5.2c-1.2,1.9-2.1,4-2.8,6.2c-0.6,2.2-0.9,4.5-0.9,6.8
		c0.1,1.2,0.2,2.3,0.4,3.5c0,0.2,0.1,0.3,0.1,0.5l0,0l-0.5,0.1l-1.6,0.7l-1.5,0.8c-3.9,2.4-6.7,6.1-8.1,10.5
		c-0.2,0.5-0.3,1.1-0.4,1.7c0,0.1,0,0.1,0,0.2v0.1v0.2l0,0l0,0l0,0l-0.4-0.2c-0.3-0.1-0.6-0.3-1-0.4c-0.6-0.2-1.3-0.5-2-0.7
		c-5.3-1.7-11-1.8-16.3-0.3l-1,0.3l-1,0.4l-0.6,0.2l0,0l0,0l0,0l0,0l-0.1-0.3l-0.2-0.6c-0.2-0.4-0.4-0.8-0.6-1.1
		c-0.8-1.3-1.6-2.5-2.5-3.6l-4.9-6.5c-0.8-1-1.7-2.2-2.7-3.3c-1-1.1-2.1-2.2-3.3-3.1c-0.6-0.5-1.3-0.9-2-1.3
		c-0.4-0.2-0.8-0.4-1.1-0.6l-0.6-0.2l-0.3-0.1h0.1l0,0l0,0l0,0c0.1-0.4,0.2-0.8,0.3-1.2c0.2-0.8,0.3-1.6,0.3-2.4
		c0-3.2-1.2-6.2-3.4-8.5c-2.1-2-4.6-3.5-7.4-4.3c-0.7-0.2-1.3-0.4-2-0.5l-1-0.2l-0.8-0.1h-0.2l0,0l0,0v0.1v-0.1l0.2-0.8
		c0.1-0.5,0.2-1,0.2-1.5c0.1-2-0.2-4-0.9-5.8c-1.4-3.6-4-6.7-7.5-8.5c-0.9-0.4-1.8-0.8-2.7-1.1l-1.5-0.3c-0.5-0.1-1-0.1-1.5-0.1
		c-1.9,0-3.9,0.3-5.7,1c-3.5,1.3-6.5,3.7-8.7,6.8c-1.1,1.5-2,3.1-2.6,4.9c-0.2,0.4-0.3,0.9-0.4,1.3c-0.1,0.4-0.3,0.9-0.4,1.4
		c-0.2,0.9-0.3,1.7-0.4,2.6c-0.1,0.7-0.2,1.3-0.3,2c-0.1,0.4-0.3,0.9-0.6,1.2c-0.5,0.5-1,1-1.5,1.4c-0.3,0.3-0.7,0.6-1,1
		s-0.7,0.8-1,1.2c-1.2,1.8-1.9,3.9-1.9,6c0,1.9,0.3,3.8,1,5.7c0.6,1.7,1.3,3.3,2.2,4.9c0.4,0.8,0.9,1.5,1.4,2.2l0.1,0.2l0,0l0,0l0,0
		l0,0l-0.1,0.1c-0.3,0.3-0.6,0.7-0.8,1.1l-0.4,0.6l-0.3,0.6c-0.8,1.6-1.2,3.3-1.2,5.1c0,1.7,0.3,3.5,0.9,5.1
		c0.6,1.7,1.7,3.2,3.1,4.4c0,0,0,0,0.1,0s0,0-0.1,0.1c-1,1.2-1.9,2.4-2.6,3.8c-1.8,3.3-2.6,7.1-2.5,10.8c0.1,2.2,0.6,4.4,1.5,6.5
		c1,2.2,2.3,4.2,4,5.9c1.8,1.8,3.9,3.3,6.2,4.4c0.6,0.3,1.2,0.5,1.9,0.7s1.3,0.4,2,0.5h0.2l0,0c0,0,0.1,0,0.2,0
		c0,0.1-0.1,0.1-0.1,0.2c0,0,0,0.1,0,0l-0.1,0.4l-0.2,0.8c-0.1,0.6-0.2,1.1-0.2,1.7c-0.1,2.3,0.2,4.6,1.1,6.7
		c0.9,2.2,2.2,4.2,3.9,5.7c0.5,0.4,1,0.8,1.5,1.2c0.5,0.3,1.1,0.7,1.6,0.9c0.1,0.1,0.3,0.1,0.4,0.2l0.2,0.1h0.1h0.2v0.1l-0.1,0.5
		c0,0.1,0,0.2,0,0.2l-0.1,0.4l-0.1,0.8c-0.1,0.5-0.1,1.1-0.2,1.6c-0.1,2.2,0.1,4.3,0.8,6.4c0.6,2.1,1.6,4.1,3,5.8
		c1.4,1.8,3.3,3.3,5.4,4.2c2.2,1,4.5,1.4,6.9,1.2c2.3-0.2,4.6-0.9,6.6-2.1c2.1-1.2,3.8-2.8,5.2-4.7c0.4-0.5,0.6-1,0.9-1.5
		s0.5-1.1,0.7-1.7c0.1-0.1,0.1-0.3,0.1-0.5v-0.2v-0.1l0,0v-0.1c0-0.1,0-0.1,0-0.2c0.1,0,0.3,0.1,0.4,0c0.5,0,1-0.1,1.5-0.1
		s0.9-0.2,1.4-0.3c3.7-1.1,6.6-3.8,8-7.4l0.2-0.7l0.1-0.4c0-0.1,0,0.1,0,0.1l0,0v-0.1c0-0.1,0-0.2,0-0.2l0.2,0.1
		c0.1,0,0.1,0,0.2,0.1h0.1h0.1h0.1h0.3c1.6,0.3,3.2,0.2,4.7-0.2c3-0.8,5.6-2.6,7.3-5.1c1.5-2.4,2.6-5,3-7.8c0.4-2.5,0.6-5.1,0.7-7.7
		l-4.5-0.1c-0.1,2.2,0,4.5,0.2,6.7c0.2,2.4,0.9,4.7,2.1,6.8c1.3,2.2,3.2,4,5.6,5c1.2,0.5,2.5,0.8,3.8,0.9c0.2,0,0.3,0,0.5,0h0.3h0.3
		c0.1,0,0.1,0,0.2-0.1c0,0,0,0.1,0,0.2l0.1,0.3c0,0.1,0,0.2,0.1,0.4c0.2,0.6,0.5,1.2,0.8,1.9c1.4,2.8,3.8,5.1,6.6,6.5
		c2.2,1.1,4.6,1.7,7,1.7c0.6,0,1.2,0,1.8-0.1l0.9-0.1h0.2l0,0l0,0c0.1,0,0.1,0,0.2-0.1c0.1,0,0.2-0.1,0.1,0c0,0.1,0,0.2,0,0.2
		s0,0,0,0.1c0.1,0.3,0.3,0.7,0.4,1c0.6,1.2,1.5,2.3,2.6,3.2c1,0.8,2.1,1.5,3.2,2c1,0.4,2.1,0.7,3.2,1c2.1,0.6,4.4,0.8,6.6,0.6
		c1.1-0.1,2.1-0.4,3.1-0.7c0.5-0.2,1-0.4,1.5-0.6s0.9-0.5,1.4-0.8c1.6-1,3.1-2.4,4.3-3.9c0.6-0.8,1.1-1.6,1.5-2.4
		c0.4-0.9,0.7-1.9,0.8-3c0-1.5-0.1-2.9-0.2-4.4c0-0.9,0.2-1.7,0.6-2.5c0.6-1,1.3-2,2.2-2.8l2.6-2.6c0.2-0.2,0.5-0.5,0.7-0.8
		s0.5-0.6,0.7-0.9c0.4-0.6,0.8-1.3,1.2-2c0.7-1.4,1.1-3,1.2-4.6c0-0.9-0.1-1.9-0.5-2.7c0,0-0.1-0.2-0.1-0.1l0,0l0,0l0,0
		c0,0,0-0.1-0.1-0.1l0,0l0,0h0.1l0.3-0.2l0.1-0.1h0.1l0.2-0.1c1.1-0.9,2.1-1.9,3-3c1.8-2.2,3-4.7,3.7-7.5c0.7-2.7,0.8-5.6,0.2-8.4
		l-0.1-0.5c0-0.1-0.1-0.4-0.1-0.3v-0.1v-0.1l0.1-0.1l0.1-0.1l0.7-0.6c0.6-0.4,1.1-0.9,1.6-1.4c2-1.9,3.5-4.2,4.5-6.8
		c0.9-2.5,1.4-5,1.4-7.7c0-2.5-0.5-5.1-1.5-7.4c-0.2-0.6-0.5-1.1-0.8-1.7c-0.1-0.3-0.3-0.5-0.5-0.8L327,283l-0.5-0.7
		c-0.2-0.2,0,0,0,0l0,0c-0.1-0.1-0.1-0.1-0.2-0.2l0.2-0.2l0.2-0.3c0.2-0.2,0.4-0.5,0.5-0.8c0.7-1,1.2-2,1.5-3.2
		c0.7-2.1,0.9-4.4,0.5-6.6c-0.4-2.3-1.4-4.4-3-6.1c-1.5-1.7-3.4-2.9-5.5-3.6c-0.3-0.1-0.5-0.2-0.8-0.3l-0.6-0.1l-0.5-0.1
		c-0.4,0-0.7,0-1,0.1c-0.2,0.1,0,0,0-0.1s0.1-0.1,0.2-0.2s0.3-0.3,0.4-0.5c0.1-0.1,0.2-0.4,0.3-0.5c0.3-0.6,0.6-1.1,0.9-1.7
		c-0.1,0.3-0.3,0.6-0.5,0.9l-0.3,0.5l-0.1,0.2l-0.1,0.1l0,0c-0.1,0.2-0.3,0.4-0.5,0.6s-0.4,0.4-0.5,0.5l-0.3,0.2l-0.2,0.1l0,0h0.1
		c0.4-0.1,0.9-0.1,1.3,0c0.2,0,0.4,0.1,0.6,0.1l0.6,0.2c0.2,0.1,0.5,0.2,0.7,0.2c-0.3-0.1-0.5-0.2-0.8-0.3L319,261
		c-0.2-0.1-0.5-0.1-0.7-0.1c-0.5,0-1,0-1.4,0.1h-0.1l0,0l0.1-0.1l0.3-0.2c0.2-0.2,0.4-0.3,0.5-0.5c0.2-0.2,0.3-0.4,0.4-0.6l0.2-0.3
		l0.4-0.7c0.9-1.7,1.5-3.5,1.7-5.4c0.3-2.7-0.1-5.4-1.2-7.9c-1-2.2-2.6-4.1-4.5-5.5c-1.1-0.8-2.3-1.5-3.6-2
		c-1.8-0.6-2.1-0.5-1.4-0.3c1.4,0.6,2.7,1.3,4,2.2c1.8,1.3,3.3,3,4.3,5c0.4,0.7,0.6,1.4,0.8,2.2c0,0.2-0.1,0.1-0.1,0.1s-0.1,0,0,0.7
		c0.1,0.5,0.2,1,0.2,1.5c0.1,0.9,0.1,1.8,0.1,2.7c0.1-2.8-0.6-5.5-2.2-7.9c-1.6-2.3-3.9-4-6.5-5.1c-0.2,0,0.9,0.4,2.5,1.3
		c0.9,0.6,1.7,1.2,2.4,1.9c0.8,0.8,1.5,1.7,2.1,2.7c0.9,1.7,1.5,3.6,1.6,5.5c0,1.3,0,1.8-0.1,0.6c0-3.3-1.3-6.5-3.7-8.9
		c-2.5-2.3-5.6-3.8-9-4.1c1.5,0.2,2.9,0.6,4.3,1.2c2.3,1,4.4,2.6,5.9,4.6c1.4,1.9,2.2,4.1,2.3,6.4c0.1,0.9,0.1,1.7-0.1,2.6
		c0.1-1.4,0.1-2.9-0.2-4.3c-0.4-2-1.3-3.9-2.7-5.5c-1.3-1.5-2.8-2.7-4.6-3.5c-0.9-0.5-1.9-0.8-2.9-0.9c1.1,0.3,2.2,0.7,3.2,1.2
		c1.8,0.9,3.4,2.2,4.6,3.7c-0.8-0.9-1.6-1.7-2.6-2.4c-0.9-0.6-1.9-1.2-2.9-1.6c-1.8-0.7-3.8-1.1-5.7-1.1c-2.5,0.1-5,0.9-7.1,2.3
		c-1.2,0.9-1.3,1.1-0.3,0.5c0.8-0.5,1.7-0.9,2.6-1.3c1.6-0.6,3.3-1,5.1-0.9c-3.5,0-6.8,1.3-9.3,3.8c-2.6,2.5-4.3,5.8-4.7,9.3v-0.1
		c0.2-2,0.8-3.9,1.8-5.6c0.9-1.7,2.2-3.2,3.7-4.4c-2.8,2.3-4.7,5.6-5.3,9.2c0.1-0.3,0.1-0.6,0.2-0.9c0.1-0.3,0.2-0.6,0.3-0.9
		c0.8-2.6,2.3-5,4.4-6.8c-1.8,1.6-3.1,3.6-4,5.9c0.4-0.9,0.8-1.7,1.4-2.5c0.6-0.9,1.3-1.7,2-2.4c1.4-1.4,3.2-2.6,5.1-3.2
		c1.7-0.6,3.6-0.8,5.4-0.6c2.9,0.3,5.6,1.6,7.7,3.6c2.4,2.3,3.7,5.5,3.4,8.8c-0.1,1.7-0.6,3.3-1.3,4.7l-0.3,0.5
		c-0.3,0.5-0.6,0.8-1,1.2l-0.5,0.6l-0.2,0.3c-0.1,0.1-0.2,0.2-0.4,0.3L312,261l-6,4.9l5.5-0.9l1.5-0.2l1.4-0.2l1.3-0.2l0.6-0.1h0.5
		l1,0.1h0.5c0.2,0,0.3,0,0.5,0.1c0.3,0.1,0.5,0.1,0.7,0.2c0.5,0.2,0.9,0.3,1.3,0.6c1.7,0.9,3.1,2.3,3.9,4c0.8,1.8,0.9,3.7,0.5,5.6
		c-0.2,0.9-0.6,1.8-1.1,2.7l-0.4,0.6l-0.2,0.3l-0.2,0.2c-0.1,0.1-0.2,0.2-0.3,0.3c-0.9,0.9-1.9,1.7-2.8,2.5c4.1,4.1,4.2,4.7,5.1,6.8
		c0.7,1.9,1,4,0.9,6c-0.2,4.1-2,7.9-5.1,10.6l-0.6,0.4l-0.3,0.2c-0.1,0-0.1,0.1-0.2,0.1l-0.4,0.2c-1,0.6-2.1,1.1-3,1.7l1.1,3.3
		l0.2,0.9c0.1,0.2,0.1,0.5,0.1,0.7c0.3,2,0.1,4-0.4,6c-0.6,1.9-1.5,3.8-2.8,5.3c-0.6,0.8-1.3,1.5-2.1,2.1c-0.1,0.1-0.2,0.1-0.3,0.2
		l-0.3,0.2l-0.7,0.4c-0.5,0.3-0.8,0.5-1.4,0.8l-3.1,1.7l1.8,1.5l0.9,0.7c0.3,0.2,0.6,0.4,0.8,0.7c0,0.1,0.1,0.1,0.1,0.2l0,0v0.1
		c0,0.1,0,0.1,0,0.2s0.1,0.3,0.1,0.4c0,0.8-0.2,1.6-0.5,2.3c-0.3,0.8-0.8,1.6-1.4,2.2C307.2,338.6,306.4,339.4,305.5,340.2z"/>
	<path class="st1" d="M225.3,380.8c0-0.2-0.2-0.4,0.2-0.5c1.4-0.1,2.4,0.7,3.8,0.6l0.1-0.3c1,0.2,2.1,0.5,3.2,0.7
		c2.1,0.1,4.1,0.2,6.2,0.2c0-0.1-0.1-0.2,0.1-0.3c0.9,0,2,0.1,3.2,0.2h0.6c0.1,0,0.2-0.1,0.2-0.2c0.6,0,1,0.1,1.5,0.1
		c3.1-0.2,6.3-0.6,9.4-1.1c1.6-0.3,3.2-0.6,4.8-1.1c0.8-0.2,1.6-0.5,2.4-0.7c0.8-0.3,1.7-0.6,2.5-0.9c1.4-0.7,2.6-1.5,3.9-2.3
		c1-0.6,2-1.2,3-1.9c1-0.7,1.8-1.6,2.5-2.6c-0.6-0.2-0.2-1.5-0.3-2.6s-0.3-2.1-1-1.8c0.3-1.1,0.3-2.8-0.1-2.9
		c-0.6-0.1-1.2-0.4-1.6-0.8c-0.8-0.7-1.4-1.6-1.9-2.5c-0.5-1-0.9-3-1.2-3.3c-0.6-0.5,0,1.8-0.6,1.3c0.8,1.8,1.3,3.7,1.6,5.6
		c0.2,1.2-0.1,2.3-0.7,3.3c-0.9,1.2-2.2,2.1-3.6,2.7c-0.9,0.4-1.8,0.7-2.7,1c-1,0.3-2.1,0.5-3.1,0.6c-1.7,0.4-3.4,0.7-5.1,0.9
		c-3,0.2-6,0.3-9.1,0.2c-3.4,0-6.9-0.4-9.9-0.5s-5.5-0.4-6.9-0.6h-0.5l-1.2-0.1h-0.2c-0.2,0-0.4,0-0.5,0.1c-0.1-0.1-0.2-0.3-0.3-0.4
		c-0.2-0.1-0.3-0.3-0.4-0.5c-0.1-0.6-0.2-1.3-0.3-1.9c-0.2,0.6-0.5,1.1-0.7,1.5c0.2-1,0.2-2,0.1-3c-0.3-2.8-1-1.3-1.8-0.3
		c-0.4,0.7-0.9-0.3-1.3,0.8l0.2-2.1c-0.3-0.1,0,2.6-0.5,2c0.1-0.9,0.1-1.7,0.1-2.6c-0.5,0.3-0.4,2.9-0.8,2.8
		c-0.1-0.5,0.8-2.4,0.2-2.5c-0.1,0-0.2,0.8-0.2,1.2c0-2.6-0.4-4.1-1.1-1.8c0.2-0.9,0.3-1.9,0.4-2.9l0,0c0,0.4-0.2,1.2-0.3,1.6
		l0.1-1.5c-0.1,0.1-0.2,0.2-0.2,0.2c-0.1,0.4-0.2,0.7-0.2,1.1l0.1-1c-0.2,0.3-0.4,0.5-0.6,0.8c-0.4,0.9-0.8,1.9-1.1,2.9l-0.3,2.3
		l-0.1,1.1l-0.1,0.6l-0.1,1.1c-0.3,3-0.6,6.1-0.8,9.1L225.3,380.8z"/>
	<path class="st1" d="M223.8,410.2c0-0.2-0.3-0.5,0.3-0.5c2,0,3.5,0.9,5.4,0.9l0.2-0.3c1.5,0.3,3.1,0.6,4.7,0.8c3,0.1,6,0.1,8.9,0
		c-0.1-0.1-0.1-0.2,0.2-0.3c1.2-0.1,2.9,0,4.7-0.1l0.8-0.1c0.1,0,0.2-0.1,0.3-0.3c0.8,0,1.5,0,2.1,0c4.3-0.6,8.5-1.4,12.9-2.5
		c1.1-0.3,2.2-0.5,3.2-0.8s2.1-0.6,3.3-0.9c1.3-0.4,2.5-0.9,3.6-1.5c1.3-0.7,2.5-1.8,3.3-3c1-2,1.6-4.2,1.8-6.4
		c0.6-3.1,0.9-6.2,1-9.3c-0.6,0.2-1-1.4-1.6-2.8s-1.2-2.6-1.7-1.9c-0.1-1.8-0.7-4.3-1.1-4.4c-0.7-0.2-1.4-0.6-1.9-1.1
		c-1-1.2-1.9-2.5-2.6-3.9c-0.7-1.5-1.6-4-2.1-4.4c-0.7-0.7,0.4,2.2-0.3,1.6c2.7,5.4,4.1,11.4,4.2,17.5c0,1.5,0,3-0.2,4.5
		c-0.1,0.7-0.2,1.5-0.3,2.2c-0.1,0.7-0.2,1.4-0.4,2.1c-0.1,0.8-0.5,1.5-1,2.1c-0.7,0.5-1.6,0.9-2.5,1.1c-2.4,0.7-4.8,1.3-7.3,1.6
		c-4.3,0.7-8.6,1.2-12.9,1.5c-4.5,0.3-9.1,0.3-13.6,0.1c-4.1-0.2-7.6-0.6-9.5-0.9l-0.7-0.1l-0.8-0.1h-0.1c-0.1,0-0.1,0-0.2-0.1
		c-0.1-0.1-0.2-0.2-0.3-0.4V400l0,0v-0.1c0-0.2-0.1-0.4-0.1-0.7c-0.1-0.6-0.1-1.1-0.2-1.7c-0.1-1.1-0.2-2.2-0.4-3.1
		c-0.3-1.7-0.7-3.5-1.1-5.3c-0.2,0.8-0.3,1.6-0.5,2.3c0-1.4-0.1-2.9-0.3-4.3c-0.6-3.8-1.1-1.6-1.9-0.1c-0.3,1.1-0.9-0.3-1.2,1.3
		c0-1.2,0-1.8-0.1-3c-0.3-0.1,0.3,3.7-0.3,2.9c0.1-1.2-0.2-2.5-0.2-3.6c-0.4,0.4,0,4.2-0.5,4c-0.1-0.6,0.5-3.4-0.1-3.6
		c-0.1,0.6-0.1,1.2-0.1,1.8c-0.3-3.7-0.9-5.7-1.4-2.3c0-1.2,0.1-2.8,0-4.1l0,0c0,0.6-0.1,1.7-0.1,2.3v-2.1l-0.2,0.4
		c0,0.5-0.1,1.1-0.1,1.6v-1.4c-0.2,0.4-0.3,0.8-0.5,1.2c-0.3,1.4-0.6,2.8-0.7,4.2c0,3.6,0,7.3,0.1,11c0,0.9,0,1.7,0.1,2.9v0.5
		l0.1,0.6c0.1,0.5,0.1,0.9,0.2,1.3c0.2,0.9,0.5,1.7,0.9,2.5c0.8,1.6,2.1,2.9,3.6,3.7c0.8,0.4,1.6,0.7,2.5,0.9
		c0.4,0.1,0.9,0.2,1.3,0.2L223.8,410.2z"/>
	<path class="st1" d="M201.5,192.1c-0.1-0.1-0.8,0.3-0.1-0.6c2.1-2.9,4.6-4.5,6.9-6.7v-0.4c1.8-1.4,3.9-2.2,6.1-2.5
		c1.9-0.3,3.8,0,5.5,0.9c2.2,1,4.3,2.4,6.2,3.9c0-0.2,0-0.3,0.4,0c1,0.8,2,1.6,3,2.5l1.7,1.6l0.8,0.8c0.2,0.2,0.5,0.5,0.7,0.8l1,1
		c0.1,0.1,0.4,0.2,0.6,0.2c1,1.2,2.2,2.4,3.4,3.5c0.6,0.5,1.2,0.9,1.9,1.2c0.8,0.4,1.7,0.8,2.6,1c1.9,0.4,3.8,0.3,5.6-0.5
		c0.7-0.3,1.5-0.7,2.1-1.2c0.6-0.4,1-0.8,1.4-1l2.5-1.9c3.3-2.4,6.8-4.8,10.4-7c3.5-2.2,7.3-4.1,11.2-5.5l1.5-0.5
		c0.5-0.1,1-0.2,1.4-0.4c0.9-0.2,1.7-0.3,2.6-0.3c1.9,0.3,3.6,1,5.1,2.2c1.6,1,3.1,2.1,4.6,3.3l2.3,1.8l1.2,0.9l0.9,0.8
		c0.9,0.9,1.5,2,1.9,3.2c0.4,1.4,0.6,2.8,0.6,4.2c0,2.9-0.3,5.8-0.8,8.7c0.6-0.3,0.6,2.8,0.7,5.7s0.2,5.6,1,4.4
		c-0.5,3.6-1.9,9-1.6,9.3c0.4,0.5,0.6,1.6,0.5,3.7c-0.3,3.4-1,6.8-2.1,10c-1.2,3.7-3.7,8.9-4,10.2c-0.5,2.1,2.4-4.3,2-2.2
		c2.8-6.6,5.1-13.3,7.1-20.2c1-3.5,1.7-7.1,2.2-10.8c0.1-0.9,0.2-1.8,0.3-2.8l0.2-2.4c0.2-1.6,0.4-3.3,0.7-5s0.4-3.6,0.5-5.5
		c0.1-2.1,0-4.2-0.3-6.2c-0.4-2.4-1.3-4.8-2.6-6.9c-0.7-1.1-1.6-2.1-2.6-2.9l-0.7-0.6l-0.4-0.3c-0.3-0.2-0.6-0.5-0.9-0.7l-3.9-3.4
		c-1.5-1.4-3.2-2.6-4.9-3.6c-2.2-1.4-4.8-2.2-7.4-2.3H280h-0.4l-0.9,0.1c-0.6,0-1.1,0.1-1.7,0.2l-1.6,0.3l-1.5,0.4
		c-2.1,0.7-4.2,1.5-6.2,2.4c-3.2,1.5-6.3,3.1-9.3,4.9c-3.4,2-7.1,4.4-11,7.1c-0.5,0.3-1,0.7-1.4,1c-0.3,0.3-0.7,0.5-1,0.7l-0.2,0.1
		h-0.1c-0.1,0-0.1,0-0.2,0c-0.1,0-0.1,0-0.2-0.1s-0.2-0.1-0.3-0.2l-0.4-0.3c-0.7-0.6-1.4-1.3-2.1-2c-0.8-0.8-1.6-1.8-2.6-2.8
		c-0.6-0.6-1-0.9-1.4-1.4l-1.4-1.3c-1.9-1.7-3.8-3.4-5.9-4.9c-2.2-1.6-4.5-2.9-7-4c-1.3-0.5-2.7-1-4.1-1.2c-1.4-0.3-2.9-0.4-4.4-0.3
		c-2.7,0.2-5.3,0.9-7.6,2.2c-1.9,1-3.7,2.2-5.3,3.6c-2.3,2-4.4,4.1-6.4,6.4l-1,1.2c-0.4,0.4-0.8,0.9-1.1,1.4l-0.6,0.7
		c-0.2,0.2-0.4,0.6-0.6,0.9c-0.8,1.2-1.6,2.5-2.2,3.9c-1.1,2.6-1.9,5.3-2.4,8.1c-0.7,4.8-0.7,9.6,0,14.4c0.6,3.7,1.5,7.3,2.8,10.9
		c-0.2-1.7-0.4-3.3-0.4-4.7c0.4,2.9,1.2,5.8,2.3,8.6c1.4,3.7,2.1,4.4,2.2,3.8s-0.2-2.4-0.3-4c-0.3-2.1,1,0.5,0.4-2.8
		c0.6,2.3,1,3.4,1.8,5.7c0.2,0.1-0.5-1.6-1-3.2s-0.9-3-0.4-2.3c0.6,2.3,1.4,4.6,2.4,6.8c-0.3-1.4-0.7-2.8-1.2-4.2
		c-0.6-1.8-0.9-3.5-0.7-3.4c0.2,0.6,0.5,2.2,0.9,3.7s0.9,2.9,1.2,3c-0.3-1.1-0.6-2.2-1-3.3c0.8,2.4,1.8,4.6,3.2,6.7
		c0.3,0.4,0.5,0.5,0.4,0s-0.4-1.4-0.8-2.9c0.9,2.4,2,4.7,3.4,6.8l0,0c-0.6-1-1.5-2.7-2-3.7c0.6,1.2,1.2,2.3,1.9,3.4l-0.2-0.7
		l-1.3-2.6c0.4,0.8,0.8,1.5,1.2,2.3c-0.2-0.6-0.4-1.4-0.6-2.1c-1.1-2.9-1.6-5.8-2.2-7.4c-2.1-6.5-3.1-13.2-3.1-20
		c0-3.2,0.4-6.4,1.2-9.5c0.4-1.4,0.9-2.7,1.6-4c0.3-0.6,0.7-1.1,1.1-1.7c0.2-0.3,0.5-0.6,0.7-0.9L201.5,192.1z"/>
	<path class="st1" d="M235.4,274.5c-0.1-0.2-0.3-0.3-0.1-0.5c0.7-0.5,1.6-0.1,2.2-0.6l-0.1-0.3c0.6-0.1,1.3-0.1,2-0.2
		c1.1-0.4,2.3-0.8,3.4-1.2c-0.1-0.1-0.1-0.2,0-0.3c0.6-0.2,1.2-0.3,1.9-0.3l0.3-0.1c0.1-0.1,0.1-0.2,0.1-0.3c0.3,0,0.6,0,0.9,0
		c1.7-0.5,3.4-0.9,5.1-1.2c1.9-0.2,3.8-0.3,5.7-0.1c0.9-0.1,1.7,0,2.6,0.2c1.2,0.5,2.4,1.1,3.4,1.9c0.2-0.5,1-0.5,1.8-0.5
		s1.5,0.1,1.7-0.5c0.7,0.6,1.6,1.5,1.9,1.4c0.8-0.5,2.2-0.9,4.4,1c0.8,0.8,1.2,2.5,1.6,2.7c0.6,0.4-0.1-1.6,0.5-1.2
		c-1.9-3.7-4.8-6.7-8.3-8.8c-1.7-1-3.4-1.8-5.3-2.5c-1.8-0.6-3.7-1.1-5.6-1.5c-0.7,0-2.3-0.2-4.3-0.2c-2.4,0-4.8,0.2-7.2,0.6
		c-4,0.7-8,1.8-11.8,3.3l-0.3,0.2c-2.2,0.8-4.2,1.9-6,3.3c-0.6,0.6-1.2,1.3-1.8,2c0.4,0,0.9,0,1.2,0c-0.7,0.2-1.2,0.6-1.7,1.1
		c-1.4,1.3-0.2,1.3,0.8,1.7c0.6,0.1,0.3,0.9,1.1,0.8l-1.2,0.6c0.1,0.3,1.4-1,1.4-0.3c-0.5,0.2-1,0.5-1.5,0.9
		c0.4,0.3,1.8-0.8,1.9-0.4c-0.2,0.2-1.7,0.2-1.5,0.8c0,0.1,0.5-0.1,0.8-0.3c-1.4,1-2,1.9-0.3,1.6c-0.6,0.2-1.2,0.5-1.7,0.8l0,0
		c0.3-0.1,0.8-0.3,1-0.4l-0.9,0.5l0.3,0.1c0.2-0.1,0.5-0.1,0.7-0.2l-0.6,0.3c0.2,0.1,0.5,0.1,0.7,0.2c0.7,0,1.4,0,2.1-0.2
		C229.6,277,232.5,275.7,235.4,274.5z"/>
	<path class="st1" d="M392.1,265.9c-0.2,0.1,0.2,0.8-0.7,0c-2.7-2.6-4.2-5.3-6.6-8.1h-0.4c-0.9-1.1-1.6-2.4-2.4-3.6
		c-0.4-0.6-0.8-1.3-1.2-1.9s-0.7-1.3-1.1-2c-0.7-1.2-1.5-2.3-2.2-3.5l-2-3.6c-0.6-1.2-1.1-2.5-1.7-3.7c-0.3-0.6-0.6-1.2-0.9-1.9
		l-0.8-1.9c-0.1,0.2-0.1,0.3-0.4-0.2c-1-2.8-1.8-5.6-2.4-8.4c-0.1-0.5-0.2-0.9-0.4-1.4s-0.3-0.4-0.4-0.5c-0.3-1.5-0.5-2.8-0.7-4
		c-3.5-16.1-4.1-33.7-5.7-52.4c-0.4-4-0.9-7.9-1.1-11.7c-0.2-5.7,0.1-12.9,0.1-18.4c-1.2,0.8-1.6-12.7-2.8-10c0-3.7,0.2-9.2-0.2-9.5
		c-1-0.9-2.1-3.7-2.4-13.6c0-1.9,0.1-4.4,0.3-6.6c0.1-1.1,0.2-2.2,0.3-3s0.3-1.8,0.3-2.3s0-0.5-0.2-0.2c-0.2,0.7-0.4,1.3-0.6,2
		c-0.3,1.4-0.6,2.7-0.6,1.5c-0.3,3.8-0.5,7.3-0.6,10.9s-0.2,7.1-0.2,10.6c-0.1,7.1-0.1,14.1-0.1,21.1c0,3.5,0,7,0,10.5
		s0,7.1,0.1,10.6c0.3,7.1,0.6,14.2,0.8,21.4c0.1,1.2,0.2,3.3,0.4,6.1s0.3,6.2,0.6,10.1c0.5,9.4,1.6,18.7,3.4,27.9
		c1.1,5.1,2.6,10.1,4.5,14.9c1.8,4.5,4,8.9,6.6,13.1c3.7,6,8,11.6,12.7,16.8c0.4,0.4,0.7,0.8,1.1,1.1c6.7,7,14.1,13.3,22.2,18.8
		l4.7,2.9l4.8,2.8c-1.3-1.1-2.5-2.2-3.5-3.1l4.3,3c1,0.7,2,1.3,3,1.9c6.8,4,3.4,1,1.4-1.3c-1.6-1.5,1.1-0.3-1.5-2.5l5.1,3.5
		c0.4-0.1-6.4-4.1-4.6-3.6c1.9,1.4,4.2,2.8,6.2,4.1c-0.5-0.8-7-4.9-6.4-5c1.1,0.7,5.4,4.4,6.1,4.2c-0.9-0.8-1.9-1.5-2.9-2.1
		c6.4,4.1,10.1,5.9,4.7,1.6c2,1.3,4.7,3.4,6.9,4.7l0,0l-3.8-2.6l3.6,2.4c-0.1-0.2-0.3-0.4-0.5-0.6c-0.9-0.6-1.7-1.3-2.7-1.9l2.4,1.6
		c-0.5-0.5-1.1-1.1-1.8-1.8c-2.6-2.2-5.1-4.4-6.6-5.4C413.7,285.1,401.9,276.2,392.1,265.9z"/>
	<path class="st1" d="M115.3,273c-0.1-0.2-0.8,0.3,0-0.7c2.6-3.1,5.3-5,7.7-8.4l-0.1-0.4c1.1-1.2,2-2.5,3.1-3.7c0.5-0.6,1-1.3,1.5-2
		s1-1.4,1.4-2.1c0.8-1.3,1.6-2.6,2.4-4l2.1-4.2c0.7-1.4,1.2-2.9,1.9-4.3c0.3-0.7,0.6-1.4,0.9-2.2l0.8-2.2c-0.2,0.1-0.3,0.1-0.1-0.4
		c0.8-2.4,1.9-5.8,2.8-9.3c0.1-0.5,0.2-1.1,0.3-1.6c0-0.2,0-0.4-0.1-0.6c0.3-1.6,0.7-3,0.9-4.3c1.1-8.8,1.6-17.6,1.6-26.4
		c0-8.9-0.1-17.9-0.1-27.3c-0.1-4-0.3-8-0.4-11.8c-0.1-5.7,0.1-12.9,0.1-18.5c-1.1,0.9-1.8-12.6-2.9-9.9c0-3.7,0-9.2-0.4-9.5
		c-1-0.8-2.1-3.7-3-13.4c-0.1-1.9-0.1-4.3-0.2-6.4c0-1-0.1-1.9-0.1-2.7c0-0.3-0.1-0.5-0.1-0.7s0-0.2,0-0.3v-0.1l0,0l0,0l0,0l0.3-0.1
		l-0.3,0.1l0,0v-0.1v-0.1l-0.1-0.1c0-0.1-0.1-0.1-0.1-0.1s-0.1,0.1-0.1,0.3c0,0.3-0.1,0.7-0.1,1.1c-0.1,1-0.2,2.3-0.4,1.3
		c0.2,3.3,0.3,6.9,0.3,10.3s0.1,7,0.2,10.5c0.1,7,0.1,14,0.2,21l0.1,10.5c0,3.5,0,7,0,10.4c-0.2,7-0.5,14.1-0.7,21.2
		c0,1.2,0,3.3,0,6.1s-0.1,6.2-0.3,10.1c-0.3,8.9-1.2,17.8-2.9,26.5c-0.9,4.6-2.2,9.1-3.9,13.5c-1.6,4.1-3.6,8-5.9,11.7
		c-3.4,5.5-7.3,10.6-11.8,15.3c-0.3,0.4-0.7,0.7-1,1.1c-6.5,6.5-13.3,12.6-20.4,18.4l-4,3.5c-1.4,1.2-2.8,2.3-4.1,3.5
		c1.5-0.8,2.8-1.5,4.1-2.2l-4.3,3c-1.1,0.6-2.1,1.3-3.1,2c-6.2,4.8-2.2,2.8,0.7,1.8c2-0.9-0.2,1.1,2.9-0.5l-5.1,3.4
		c0,0.5,6.2-4.4,5.1-3c-2,1.2-4.1,2.9-6.2,4.2c1-0.1,7.2-4.6,7.1-4.1c-1,0.8-6.1,3.4-6.2,4.1c1.1-0.6,2.1-1.2,3.1-1.9
		c-6.2,4.4-9.4,7.1-3.3,3.8c-2,1.3-5,3-7.1,4.4l0,0l4-2.4l-3.6,2.4c0.2-0.1,0.5-0.1,0.8-0.2c0.9-0.5,1.9-1.1,2.8-1.7l-2.4,1.6
		c0.7-0.2,1.5-0.5,2.3-0.9c3.1-1.6,6.1-3,7.6-4C92,293.1,104.6,284.2,115.3,273z"/>
	<path class="st1" d="M164.5,125.8c0.2-0.1-0.6-1.1,0.8,0.1c2.1,1.8,3.9,3.6,5.8,5.4c1.9,1.9,3.9,3.6,6,5.2h0.5
		c1.7,1.4,3.3,2.9,5.2,4.4l2.7,2.2l1.4,1.1l1.5,1l2.8,1.8c0.5,0.3,0.9,0.6,1.4,0.9l1.5,0.8l3.1,1.6c1,0.5,2,0.9,3,1.3
		c4,1.7,8.1,3.2,12.3,4.4c-0.2-0.2-0.3-0.3,0.6-0.1c1.8,0.4,3.8,1.1,6.1,1.7c2.3,0.5,4.8,1.1,7.3,1.6l2.3,0.3c0.3,0,0.6,0,0.9-0.1
		l3.3,0.5c1,0.1,2,0.2,3,0.3c1.6,0.1,3.2,0.2,4.8,0.2l4.8-0.1c0.8,0,1.6,0,2.4-0.1l2.4-0.2c1.6-0.2,3.2-0.2,4.8-0.5
		c3.2-0.5,6.4-1,9.5-1.9c3.2-0.7,6.2-1.8,9.4-2.8c12.5-4.6,24.2-11.5,34.2-20.2c4.3-3.7,8.6-7.4,12.9-11
		c6.3-5.1,14.6-11.4,20.7-16.5c-0.8,0,2.4-3.3,5.3-6.3s5.5-5.9,3.7-5.1c4-3.4,9.8-8.8,9.9-9.3c0.2-1.6,2.5-5.1,11.8-15.4
		c1.8-2,4.3-4.4,6.4-6.6s3.9-4,4.5-4.8c1.8-2.4-5.3,4.7-3.5,2.3c-6.9,7.3-14,14.4-21.2,21.2s-14.6,13.4-22.3,19.8
		s-15.5,12.6-23.3,18.8l-12,9.4c-2,1.4-3.9,2.9-5.9,4.3l-3.1,2c-1,0.6-2,1.3-3.1,1.9c-6.3,3.8-13.1,6.8-20.1,8.9
		c-2.5,0.9-5.3,1.4-8.1,2c-0.7,0.2-1.5,0.3-2.2,0.4l-2.2,0.3l-2.3,0.3c-0.8,0.1-1.6,0.1-2.3,0.2c-6.6,0.6-13.2,0.4-19.7-0.5
		l-2.5-0.4c-0.8-0.1-1.7-0.2-2.5-0.4l-5-1.1c-1.6-0.4-3.3-0.9-4.9-1.3c-0.8-0.2-1.6-0.4-2.4-0.7l-2.4-0.8c-1.6-0.6-3.1-1.1-4.7-1.7
		l-4.5-1.9c-1.4-0.6-2.8-1.2-4.1-2c-0.6-0.4-1.3-0.7-1.9-1l-1.9-1.2c-4.6-3-8.9-6.3-13.1-9.9c-1.9-1.5-3.5-3-5-4.3s-2.8-2.5-3.9-3.5
		l-1.6-1.4c-4.8-4.4-10-9.4-15-14.3L143,91.4l-5.6-5.3c-1.9-1.8-3.7-3.6-5.6-5.4c1.5,1.9,2.8,3.7,4,5.2c-3.5-3.9-7-7.8-8.5-9.2
		c-7.7-8.1-4-3-1.8,0.8c1.8,2.6-1.4-0.2,1.6,3.6c-2.3-2.6-3.5-4-5.8-6.7c-0.2,0,1.5,2,3.2,3.8s3.1,3.5,2.1,2.7
		c-2.2-2.6-4.8-5.3-7.1-8c1.2,1.8,2.5,3.5,4,5.1c1.8,2.1,3.6,4.1,3.2,4.1c-0.7-0.7-2.2-2.6-3.7-4.4s-3-3.7-3.4-3.7
		c-0.2,0,2.1,2.7,3.3,4c-1.8-2-3.4-3.8-4.8-5.2s-2.3-2.5-2.9-3c-1.2-1.1-0.8-0.2,2.2,3.8c-1.1-1.3-2.4-3-3.7-4.6s-2.6-3.3-3.8-4.7
		l0,0c1.2,1.4,3,4,4.1,5.2c-1.3-1.6-2.6-3.2-3.9-4.8c0.2,0.3,0.3,0.6,0.5,1c0.9,1.2,1.9,2.5,2.9,3.7c-0.9-1-1.7-2.1-2.6-3.2
		c0.5,0.9,1.1,2,1.8,3.1c2.9,4,5.6,7.9,7.3,9.9c7,8.2,14.2,16.2,21.6,24C148.9,110.8,156.5,118.5,164.5,125.8z"/>
	<path class="st1" d="M221.8,207.8c0.1-0.1,0.1-0.2,0.1-0.2s0,0.1,0.1,0.2c0.1,0.3,0.2,0.5,0.4,0.8h0.2l0.7,1.8
		c0.6,1.1,1.1,2.1,1.6,3.2c0-0.1,0.1-0.1,0.1,0c0.3,0.6,0.5,1.2,0.7,1.8l0.1,0.3c0,0,0.1,0.1,0.2,0.1c0.1,0.3,0.2,0.6,0.3,0.8
		c1.6,3.3,2.8,6.8,3.8,10.4c0.3,0.8,0.5,1.6,0.7,2.4c0.1,0.6,0.1,1.3,0.2,1.9s0,1.4,0.1,1.9c0.6-0.2,0.9,2.6,1.5,2.1
		c0,0.8-0.1,2,0.1,2c0.5,0.2,1.1,0.8,1.2,3c0,0.9-0.3,2.1-0.3,2.4c0.1,0.5,0.4-1.1,0.6-0.6c0.7-6.3,0.4-12.6-1-18.8
		c-0.3-1-1.3-5.1-3-9.2c-0.8-2.1-1.7-4.1-2.6-5.8c-0.4-0.9-0.9-1.6-1.2-2.3c-0.2-0.4-0.4-0.8-0.7-1.1c-0.3-0.4-0.6-0.7-1-1.1
		c-0.2-0.1-0.3-0.2-0.5-0.3c-0.4-0.2-0.9-0.4-1.3-0.5c-0.4-0.1-0.9-0.1-1.3-0.1c-0.6,0-1.2,0.1-1.8,0.2c-1.1,0.2-2.1,0.5-3.1,0.9
		c-0.8,0.4-1.5,0.8-2.2,1.2c0.4-0.1,0.8-0.1,1.1-0.1c-0.6,0.2-1.3,0.5-1.8,0.8c-1.5,1-0.4,0.8,0.3,0.9c0.5,0,0,0.4,0.8,0.3
		c-0.5,0.2-0.7,0.3-1.2,0.5c0,0.2,1.4-0.8,1.2-0.4c-0.5,0.2-1,0.4-1.4,0.7c0.3,0.1,1.6-0.7,1.6-0.4c-0.2,0.1-1.4,0.3-1.4,0.6
		c0,0.1,0.5-0.2,0.7-0.3c-1.4,0.8-1.9,1.4-0.6,1c-0.5,0.2-1,0.5-1.5,0.8l0,0c0.2-0.1,0.6-0.3,0.8-0.4c-0.2,0.1-0.5,0.3-0.7,0.4h0.2
		l0.6-0.3l-0.5,0.3h0.5c0.7-0.2,1.3-0.2,1.6-0.4c1.3-0.5,2.6-1,4-1.2c0.7-0.1,1.4-0.2,2.1-0.3c0.3,0,0.6,0,0.9,0L221.8,207.8z"/>
	<path class="st1" d="M253.7,223.1c-0.1,0-0.2,0.1-0.2-0.1c0.1-0.8,0.5-1.4,0.6-2.2l-0.1-0.1c0.2-0.6,0.5-1.2,0.8-1.8
		c0.3-1.2,0.7-2.4,1.1-3.5c-0.1,0-0.1,0-0.1-0.1c0.2-0.6,0.5-1.1,0.8-1.7l0.1-0.3c0-0.1,0-0.1,0-0.2c0.1-0.2,0.3-0.5,0.5-0.7
		c0.7-1.5,1.8-2.9,3-4.1c1.4-1.3,2.9-2.3,4.7-3c0.7-0.4,1.5-0.7,2.4-0.9c0.7-0.1,1.3-0.2,2-0.2s1.4,0.1,2,0.1
		c-0.1-0.3,0.6-0.4,1.3-0.6s1.3-0.2,1.1-0.5c0.7,0.2,1.4,0.4,2.2,0.4c0.3-0.4,1.2-0.8,3.5,0.1c0.8,0.5,1.6,1,2.3,1.6
		c0.5,0.2-0.8-1-0.3-0.8c-3-2.2-6.5-3.5-10.2-3.6c-3.6-0.1-7.2,0.6-10.4,2.2c-0.3,0.1-0.7,0.4-1.3,0.8c-0.7,0.5-1.4,1-2.1,1.5
		c-1.8,1.5-3.2,3.3-4.3,5.4c-1.8,3.5-3,7.1-3.8,10.9l-0.1,0.4c-0.5,2.2-0.6,4.4-0.5,6.6c0.1,0.8,0.3,1.7,0.4,2.5
		c0.1-0.4,0.2-0.7,0.3-1.1c0,0.7,0,1.3,0.1,2c0.3,1.8,0.6,0.7,0.9,0c0.1-0.5,0.4,0.1,0.6-0.6c0,0.5,0,0.8,0,1.4
		c0.2,0.1-0.2-1.7,0.1-1.3c0,0.5,0,1.1,0.1,1.6c0.2-0.2,0-1.9,0.2-1.8c0,0.3-0.2,1.5,0.1,1.6c0-0.3,0-0.5,0-0.8
		c0.2,1.6,0.5,2.5,0.7,1c0,0.6,0,1.2,0.1,1.8l0,0c0-0.3,0-0.7,0-1l0.1,0.9l0.1-0.2c0-0.2,0-0.5,0-0.7l0.1,0.6
		c0.1-0.2,0.1-0.4,0.2-0.6c0.1-0.7,0.3-1.4,0.3-1.8C252.9,229.2,253.2,226.1,253.7,223.1z"/>
</g>
</svg>
