<svg xmlns="http://www.w3.org/2000/svg" viewBox="0 0 500 500"><defs><style>.cls-1{fill:#b8e1f0;}.cls-2{fill:#1595bf;}.cls-3{fill:#1d1d1d;}</style></defs><g id="OUTLINE_1111" data-name="OUTLINE 1111"><path class="cls-1" d="M258.21,326.89c.42-2.93.82-5.79,1.24-8.58a61.15,61.15,0,0,0-3.44,13l-1.88-.57,0,0,1.89.57c0,.1,0,.2-.05.3l.13-.28,1.88.57v0l-1.87-.57Z"/><path class="cls-1" d="M253.85,330.64l.28.09c1-2.14,1.79-3.79,2.22-4.73C257.85,322.64,255.77,326.82,253.85,330.64Z"/><path class="cls-1" d="M289.76,257.93l.52-.52.43-.48Z"/><path class="cls-1" d="M280.45,268.32c3.26-3.88,6.42-7.38,9.31-10.39A122.58,122.58,0,0,0,280.45,268.32Z"/><path class="cls-1" d="M379.76,121.48a127.47,127.47,0,0,0-3.88-17.6c-.41-1.45-.92-2.87-1.38-4.31s-1-2.85-1.58-4.28A56.29,56.29,0,0,0,368.74,87a60.06,60.06,0,0,0-12-13.81,68.11,68.11,0,0,0-11.24-7.77c-1.11-.57-2.22-1.2-3.4-1.74-.59-.28-1.17-.57-1.79-.84L338.41,62a17.33,17.33,0,0,0-2-.69c-.67-.2-1.35-.44-2-.6-1.38-.32-2.79-.69-4.23-.89A75.62,75.62,0,0,0,312,59.3a144.15,144.15,0,0,0-19.43,3,91.83,91.83,0,0,0-20.15,6.4,59.06,59.06,0,0,0-9.55,5.68l-1.13.83-1.63,1.28-1,.79c.12,1.24,0,.08,0,.14l0,.16,0,.31.08.63.29,2.09,1.29,9.26c1.67-1.3,3.33-2.61,5.05-3.86l1.28-1,.71-.46c.45-.29.89-.59,1.35-.86a56.88,56.88,0,0,1,5.67-3,81.37,81.37,0,0,1,12.29-4.46A127.48,127.48,0,0,1,300,73.34a82.23,82.23,0,0,1,13-1.26c8.62-.17,17.18,1.46,24.31,5.5A45.8,45.8,0,0,1,347,84.91a57.82,57.82,0,0,1,7.48,9.28,75.11,75.11,0,0,1,9.21,20.59A87.26,87.26,0,0,1,367,134.71a84.91,84.91,0,0,1-3.94,30c-.45,1.59-1,3.14-1.61,4.68a105.78,105.78,0,0,1-10.73,20.7c-4.4,6.73-9.42,16-14.73,22.1-10.72,12.12-21.83,21.51-30.91,30.74-4.89,5-9.93,9.59-14.78,14.47-4,4.35-7.87,8.82-11,12.77s-5.68,7.58-6.93,9.59A59.32,59.32,0,0,0,266.23,291c-.81,2-.83,2.29-.44,1.53s1.26-2.55,2.43-4.65a64.58,64.58,0,0,1,4.22-6.48c2-2.83,1.83-2.4,1.83-2.22q-1.35,1.94-2.62,3.91c-6.9,10.7-9.25,21.51-11.09,33.5.72-1.88,1.51-3.71,2.37-5.52,0,.19-.07.37-.1.55-.54,3-1,5.95-1.42,8.8a57.93,57.93,0,0,0-2.33,9.75l.28.08c.18-.92.35-1.82.5-2.61s.36-1.44.47-1.89c.24-.89.29-.94,0,.64.18-.87.39-1.73.62-2.58-.08.53-.15,1.05-.22,1.56v-.07c.08-.49.15-1,.24-1.59,0-.13.07-.26.11-.4l-.15,1,.29-1.55c.44-1.52.93-3,1.48-4.5a69,69,0,0,1,3.43-7.79c2.56-5.1,4.72-6.85,7.88-11.74,1.58-2.43,4-5.84,5.62-8.23.81-1.18,2-3.59,2.81-4.76l3.25-3.24c3.43-4.6,8.53-9.2,12.33-13.52,15.24-17.3,30.37-29.54,46.15-46.77,7.86-8.64,15.17-22,21.44-32a119.93,119.93,0,0,0,8.32-15.74c1.21-2.73,2.23-5.54,3.2-8.37l1.32-4.29c.35-1.48.77-2.95,1.05-4.43a90.52,90.52,0,0,0,1.65-17.95A123.12,123.12,0,0,0,379.76,121.48ZM261.47,320.17c.5-3.27,1.07-6.83,1.53-9.3l0,0c-.56,3-1,6.06-1.48,9.12A1.72,1.72,0,0,1,261.47,320.17Zm.31-.87c.41-2.68.84-5.37,1.34-8.12-.48,2.62-.89,5.28-1.28,7.95Zm1.14-3.06c-.36.88-.68,1.75-1,2.63.35-1.92.73-4,1.19-6.28.2-1.1.42-2.19.65-3.27l2.67-.57C265.18,311.17,264,313.7,262.92,316.24Z"/><path class="cls-1" d="M223.24,275.27c-14.23-11.7-22.6-18.52-36.36-31.34-21.79-20.3-46.28-51.16-51.15-80.33s-1.32-64.08,20.57-84.27a55.33,55.33,0,0,1,19.6-12.15c20.81-7,35.89,2.42,35.89,2.42l24.76,4c-8.87-12-43-24.2-64.76-17.06C164.08,59,151.87,65,145.93,70.32,123,91,113.13,124.83,118.23,154.67s24.36,61,47.19,81.73c14.41,13.11,58.59,52.52,71,62.81,16.17,13.45,15,16,20.16,30.9l2.76.33C262.66,312.07,242.36,291,223.24,275.27Z"/><path class="cls-2" d="M249.58,92.28a3.6,3.6,0,0,0-.19,2.39,3.55,3.55,0,0,0,1.23,1.41,23.22,23.22,0,0,0,7.23,3.77,1.89,1.89,0,0,0,1.42,0,2,2,0,0,0,.8-1.18c3-8.16,6.12-12.32,10.28-19.95-.76-.47-2.64-6.15-3.69-6C260.94,73.79,252.21,84.68,249.58,92.28Z"/><path class="cls-2" d="M235.93,68.77C232.08,66,213.25,59,208.69,58.13L206,64.82c2.8,3.52,8.88,5.78,11.17,9.7s9,7.73,12.92,9.57a2.61,2.61,0,0,0,1.95.3,2.85,2.85,0,0,0,1.12-.9,27.74,27.74,0,0,0,4.7-7.53,4.08,4.08,0,0,0,.39-1.56C238.19,73.23,236.85,69.42,235.93,68.77Z"/><path class="cls-3" d="M354.3,74.1c.1,0-.86-1,.76.29a50.8,50.8,0,0,1,6.37,6.44c1.84,2.28,3.55,4.65,5.37,7.35l.38.31a76.28,76.28,0,0,1,6.8,14.13,97.8,97.8,0,0,1,6.62,28.85c0-.26.1-.39.17.59a72.58,72.58,0,0,1-.74,15.55c-.14.85-.23,1.72-.39,2.55a3.28,3.28,0,0,0-.08.94c-.28,1.3-.51,2.52-.87,3.66s-.58,2.25-1,3.26l-.83,2.56c-.32.85-.67,1.7-1,2.56q-1,2.56-2,5.13l-2,5.15q-1.2,2.51-2.38,5l-2.39,5-.6,1.27c-.21.42-.45.82-.67,1.23l-1.36,2.45c-.91,1.64-1.83,3.28-2.74,4.93-.47.81-.89,1.67-1.41,2.45l-1.53,2.39c-8,12.9-18,25-29.31,36.6-4.74,5-9.64,9.83-14.42,14.44-7.13,6.79-16.32,15.39-22.91,22.43.72-.34-2.85,3.85-6,7.83s-5.82,7.84-4.12,6.21c-1,1.21-2,2.7-3.11,4.15l-3.05,4.26a42.6,42.6,0,0,0-3.22,5.08,38.48,38.48,0,0,1-2.38,5.38,128.47,128.47,0,0,0-6.71,15.81,105,105,0,0,0-3.05,10.53c-.83,3.51-1.3,6.56-1.44,7.71-.19,1.83.21-.3.64-2.35s.95-4.11.68-2.33a90.33,90.33,0,0,1,5.09-17.17A107,107,0,0,1,273.7,301c1.57-2.55,3.26-5.05,5-7.45l2.61-3.65c.44-.6.86-1.22,1.32-1.82l1.41-1.74,2.84-3.49c.94-1.16,1.86-2.34,2.89-3.43,2-2.23,4-4.49,6-6.68,8.24-8.76,17.19-16.94,26.06-25.41a322.56,322.56,0,0,0,25.75-26.93c.67-.83,1.6-1.95,2.73-3.34s2.36-3.15,3.83-5.09l2.3-3.1c.4-.55.81-1.11,1.24-1.68s.78-1.21,1.19-1.83l5.26-8.08,5.36-9.45c.49-.81.9-1.68,1.32-2.55l1.28-2.64,2.62-5.4c.94-1.81,1.67-3.74,2.46-5.66s1.58-3.88,2.38-5.85a67.73,67.73,0,0,0,4-12.46c.22-1.09.5-2.17.66-3.27l.5-3.29c.24-2.2.48-4.41.54-6.62a86.5,86.5,0,0,0-.44-13.11,105.27,105.27,0,0,0-2.19-12.49c-1-4-2.18-7.85-3.48-11.48a84.88,84.88,0,0,0-9.4-18.72,66.5,66.5,0,0,0-9.76-11.53c-.7-.62-1.36-1.26-2.08-1.84a52,52,0,0,0-23.61-11.5,76,76,0,0,0-24.14-.7c-3.15.37-6.28.94-9.4,1.57s-6.2,1.43-9.25,2.15c2.87-.51,5.54-1,7.9-1.36-3.19.61-6.3,1.3-8.95,1.87s-4.82,1.09-6,1.42c-6.66,1.75-8,2.54-7.11,2.36s4.07-.9,6.68-1.3c3.72-.69-1.2.7,4.6-.42-4.15.91-6.23,1.38-10.32,2.58-.21.15,2.91-.83,5.8-1.52s5.5-1.24,4.08-.8a96.26,96.26,0,0,0-12.45,3.39c.72-.16,4.21-1.28,7.53-2.06a45.73,45.73,0,0,1,6.11-1.25c-1.12.27-4.06.82-6.77,1.47a31.19,31.19,0,0,0-5.55,1.68c-.15.08,3.89-1.16,6-1.64a55.48,55.48,0,0,0-12.58,4.6c-.83.47-1,.62-.24.32s2.33-1,5.1-1.92A50.6,50.6,0,0,0,269,72.55a39.7,39.7,0,0,0-5.94,3.81h0c.85-.63,2-1.48,3.24-2.22s2.44-1.43,3.32-1.86a38.74,38.74,0,0,0-6.12,3.83l1.08-.66c.73-.52,1.51-1,2.27-1.46s1.57-.94,2.42-1.34a41.62,41.62,0,0,0-4.11,2.45l1.68-.94,1.92-1a65.13,65.13,0,0,1,13.47-4.63c3.05-.8,6.18-1.46,9.34-2.12l4.75-1c1.57-.32,3.12-.65,4.69-.92a103.5,103.5,0,0,1,18.84-1.84,74.37,74.37,0,0,1,9.34.62,58.55,58.55,0,0,1,9,2,45.92,45.92,0,0,1,8.44,3.61c1.35.71,2.63,1.56,3.92,2.39S353.12,73.1,354.3,74.1Z"/><path class="cls-3" d="M344.35,85c.1,0-.72-1,.69.31,4.31,4.11,6.92,8.24,10,13.37l.35.3c1.13,2,2.11,4.22,3.07,6.44s1.75,4.55,2.48,6.93a87.76,87.76,0,0,1,4.47,26.88c.06-.23.12-.35.13.56a79.64,79.64,0,0,1-1.27,14.39c-.13.79-.23,1.59-.4,2.36a3.24,3.24,0,0,0-.06.88c-.26,1.2-.5,2.34-.8,3.4s-.53,2.09-.87,3.05c-3.63,12.86-10.45,24.84-18.86,36s-18.41,21.67-29,32.37c-4.42,4.58-8.89,9.13-13.21,13.5-3.21,3.22-6.87,6.89-10.46,10.59s-7.08,7.47-10,10.81c.68-.32-2.51,3.64-5.27,7.45-1.36,1.92-2.66,3.77-3.38,5s-.94,1.72-.19.93c-.86,1.2-1.86,2.52-2.77,3.91s-1.88,2.76-2.6,4.05a24.4,24.4,0,0,0-2.38,4.95,50.5,50.5,0,0,1-1.18,5.24,124.53,124.53,0,0,0-2.66,15.64c-.37,3-.83,6.89-1.24,10.25s-.84,6.29-.94,7.38c-.16,1.7.21-.26.56-2.25s.66-4,.53-2.25c.73-5.71,1.26-11.34,2.16-16.81a69,69,0,0,1,4.18-15.73,45,45,0,0,1,3.7-7l2.3-3.43,2.42-3.36c3.28-4.43,6.8-8.71,10.46-12.88,14.7-16.69,31.6-31.59,47.45-48.46,1.33-1.46,3.62-3.95,6.55-7.34s6.52-7.66,10.28-12.79a131.13,131.13,0,0,0,11.17-17.83,94.77,94.77,0,0,0,8.14-22.28A91.56,91.56,0,0,0,370,135.31a97.38,97.38,0,0,0-1.29-11.66,95.48,95.48,0,0,0-2.58-10.81,91.62,91.62,0,0,0-3.56-9.63,74.49,74.49,0,0,0-4.18-8.15A64.17,64.17,0,0,0,350,83.84c-.61-.61-1.17-1.25-1.81-1.82a48.54,48.54,0,0,0-9.62-7.31A45.41,45.41,0,0,0,327,70,63.64,63.64,0,0,0,304.59,69a118.17,118.17,0,0,0-17.28,3.63c2.67-.58,5.16-1,7.33-1.36a99.13,99.13,0,0,0-13.78,3.59,55.61,55.61,0,0,0-5.74,2.29c-.94.46-1,.58-.63.49.82-.19,3.69-1.15,6.07-1.7,3.38-.89-1.05.74,4.22-.66a87.69,87.69,0,0,0-9.3,3.15c-.18.16,2.61-1,5.21-1.86s5-1.5,3.7-1a75.82,75.82,0,0,0-11.17,4.08c.65-.19,3.76-1.53,6.75-2.5a33.61,33.61,0,0,1,5.53-1.55c-1,.31-3.67,1-6.12,1.81a26.32,26.32,0,0,0-5,2c-.12.09,3.49-1.39,5.34-2a55.4,55.4,0,0,0-11.21,5.24c-.74.49-.85.64-.2.33s2.1-1.05,4.59-2.13a59.69,59.69,0,0,0-5.7,3,45.19,45.19,0,0,0-5.38,3.75l0,0a52.26,52.26,0,0,1,5.94-4,46.72,46.72,0,0,0-5.54,3.79l1-.63c1.35-1,2.75-1.9,4.25-2.79-1.27.76-2.5,1.59-3.71,2.46l1.53-.93,1.74-1a70.16,70.16,0,0,1,12.1-5.26,114,114,0,0,1,16.95-4.42,86.17,86.17,0,0,1,17.33-1.62,50.58,50.58,0,0,1,16.72,3A42.15,42.15,0,0,1,344.35,85Z"/><path class="cls-3" d="M142.46,70.07c0,.11,1.12-.78-.43.75-4.86,4.84-8.75,8.86-12.44,14.69,0,.17-.09.33-.14.5a88.49,88.49,0,0,0-7.84,14.51,96.13,96.13,0,0,0-7,30.13c.08-.27.15-.39.08.63a109.82,109.82,0,0,0,.24,16.31c.08.91.16,1.81.32,2.69a3.45,3.45,0,0,0,.26,1c.2,1.37.38,2.67.56,3.91s.47,2.38.68,3.5c3.28,14.67,9.47,28.6,17.53,41.65a185.22,185.22,0,0,0,29.91,36.5l14.94,13.77,23.09,21.86c-.68-1.41,16.5,14.24,13.51,10.64,4.63,4.35,11.64,10.82,12.11,11a28.76,28.76,0,0,1,4.81,3.39c1.39,1.08,3.12,2.51,5.31,4.28s4.91,3.92,8.23,6.48c1.29,1,2.76,2.17,4.27,3.43a26.78,26.78,0,0,1,4.35,4.36,27.09,27.09,0,0,1,2.68,4.58l1.32,2.82c.8,1.65,0-.34-.81-2.39s-2-4.15-1-2.43a21,21,0,0,0-3-4.26,37.17,37.17,0,0,0-3.64-3.35l-7.11-5.75c-2.31-1.92-4.63-3.88-6.85-5.85s-4.47-4.06-6.7-6.09Q216.46,281,203.29,268.68t-26.41-24.87l-6.61-6.28L167,234.37l-3.21-3.19c-4.22-4.32-8.3-8.81-12.13-13.56-.68-.78-1.53-1.91-2.62-3.26l-1.75-2.25-2-2.67A154.81,154.81,0,0,1,136,195.05a141.8,141.8,0,0,1-9.5-19.69,111,111,0,0,1-6.34-23.54,95.91,95.91,0,0,1-.43-24.86,91.1,91.1,0,0,1,5.52-22.68,83.64,83.64,0,0,1,9.21-17.47c1.56-2.44,3.31-4.43,4.75-6.31s3-3.3,4.2-4.6l1.86-1.78a61.78,61.78,0,0,1,20.17-13.36,52.22,52.22,0,0,1,11.44-2.9l2.79-.31c.91-.12,1.83-.08,2.72-.14s1.76-.1,2.62,0l2.5.07a86.63,86.63,0,0,1,18.06,2.77l-4-1.19L198,58.08A144.84,144.84,0,0,1,212.45,62c6.38,2.11,7.76,2.63,7,2.14s-3.69-1.77-6.08-2.8c-3.5-1.36,1.4,0-4.13-2,4,1.28,6,2,10,3.54.25,0-2.8-1.15-5.6-2.12s-5.35-1.74-3.9-1.43c3.88,1.31,8.23,2.76,12.15,4.38-.32-.19-1.33-.63-2.66-1.18s-3-1.17-4.6-1.75l-4.27-1.5c-1.12-.36-1.79-.6-1.62-.61,1.12.29,3.94,1.31,6.56,2.29s5.06,2,5.48,2c.18,0-3.79-1.54-5.79-2.27,6.18,2.17,10.86,4.16,12.7,4.79s.82,0-4.66-2.38c3.85,1.57,9.18,4,13.18,5.82l0,0c-2-.91-5.41-2.5-7.27-3.31,2.28,1,4.56,2,6.82,3L234.61,68c-1.68-.8-3.38-1.58-5.16-2.36l4.54,2c-1.09-.59-2.36-1.25-3.76-1.94-5.33-2.54-10.52-4.89-13.55-6a120.48,120.48,0,0,0-18.83-5.5A70.25,70.25,0,0,0,178,53.06l-2.5.24-2.49.44c-.83.17-1.66.27-2.48.49l-2.44.65a49.31,49.31,0,0,0-9.42,3.63A67.67,67.67,0,0,0,142.46,70.07Z"/><path class="cls-3" d="M140.73,101.8c.08.08.69-1-.07.76-1.29,2.74-2.25,5.29-3.31,7.81-.47,1.27-.89,2.57-1.34,3.89-.22.67-.46,1.34-.65,2s-.35,1.41-.53,2.15c0,.15,0,.31,0,.46A104.16,104.16,0,0,0,132,133.12a106.43,106.43,0,0,0,.71,27.23c0-.24.06-.36.2.53.38,1.85.76,4.07,1.3,6.47s1.19,5,2.07,7.53c.25.76.51,1.51.75,2.26a2.32,2.32,0,0,0,.41.78c.43,1.14.84,2.22,1.22,3.24s.75,2,1.16,2.92a124.21,124.21,0,0,0,9.41,17.48,168.7,168.7,0,0,0,11.84,16.22,197.91,197.91,0,0,0,13.82,15.15c4.91,4.9,10.12,9.59,15.39,14.4,4.52,4,9.05,8,13.35,11.92C210,265.07,218,272.66,224,278.48c-.27-.66,3.35,2.5,6.69,5.44s6.4,5.68,5.16,4c2,2,4.45,4.47,6.46,6.51s3.54,3.65,3.74,3.76a20.73,20.73,0,0,1,4,3.39c1.1,1.11,2.48,2.51,4.19,4.4.43.47.88,1,1.34,1.54s1,1.14,1.45,1.8a15.36,15.36,0,0,1,2.68,5.17A16.07,16.07,0,0,1,260,320c-.16,1.81-.49,3.54-.77,5.14-.59,3.2-1.11,5.87-1.24,6.89-.42,3.21,1.67-7.35,1.25-4.15.48-2.67,1-5.32,1.29-8.25a17.15,17.15,0,0,0-.23-4.75,7.3,7.3,0,0,0-.32-1.22c-.14-.39-.25-.81-.42-1.18a16.1,16.1,0,0,0-1.11-2.11,58.82,58.82,0,0,0-5.16-6.69c-1.76-2-3.44-4-5.3-6.1-7.36-8-15-15.3-22.76-22.66S209.69,260.31,201.84,253q-5.86-5.47-11.79-11c-3.94-3.68-7.86-7.37-11.65-11.19-1.28-1.3-3.53-3.51-6.33-6.58-1.43-1.51-2.93-3.29-4.61-5.19-.83-1-1.65-2-2.53-3.06-.44-.52-.88-1.06-1.33-1.61s-.88-1.13-1.32-1.71c-7.22-9.18-15.16-21.49-20.26-35.31a91.57,91.57,0,0,1-5.14-21.29,99.37,99.37,0,0,1-.26-20.63,93.45,93.45,0,0,1,7.27-28.95l.94-2.07a81.82,81.82,0,0,1,11.56-18.2,53.15,53.15,0,0,1,3.62-4,50.31,50.31,0,0,1,3.72-3.61A57.54,57.54,0,0,1,171.19,73a44.29,44.29,0,0,1,6.94-3.69A48.4,48.4,0,0,1,185.7,67c-1.21.23-2.39.36-3.49.64l-3.11.78c1.31-.37,2.6-.8,3.86-1.13s2.5-.56,3.64-.71,2.17-.31,3.05-.37,1.61-.09,2.13-.13c1.44-.06,2.6,0,3.53,0l2.06.16c.95,0,1.08.05.73-.12s-1.23-.31-2.29-.54-2.33-.3-3.46-.47c-1.64,0-1.36-.15-1.3-.26s0-.11-.37-.15l-.83,0h-.67l-.86.07a23.82,23.82,0,0,1,2.52-.16c.76,0,1.47-.08,2.17,0l2.18.1c.76.07,1.58.19,2.51.31a6.88,6.88,0,0,0-1.57-.26c-1-.17-2.4-.14-3.71-.22l-3.32.11c-.75.07-1,.07-.37-.08a41.27,41.27,0,0,1,11.43.68,27.81,27.81,0,0,0-6.9-1,17.93,17.93,0,0,0-2.2,0l-1.84,0c-1,.09-1.67.14-1.54.07a16.6,16.6,0,0,1,2.55-.2,32.36,32.36,0,0,1,3.65.07c.63,0,1.25,0,1.82.13l1.57.2c.95.09,1.61.22,1.81.19a27.55,27.55,0,0,0-5.54-.67,42.52,42.52,0,0,1,12,2.13c.83.28,1,.29.37-.05a29.58,29.58,0,0,0-4.78-1.72,37.3,37.3,0,0,1,6.13,2.11,32.42,32.42,0,0,1,5.88,3.33l0,0a31.8,31.8,0,0,0-6.45-3.6,32.86,32.86,0,0,1,6.06,3.25c-.29-.25-.62-.5-1-.77a29.81,29.81,0,0,0-4.61-2.46,34.73,34.73,0,0,1,4.08,2.07,29.76,29.76,0,0,0-3.36-2,39.62,39.62,0,0,0-7.28-2.69,28.87,28.87,0,0,0-3.22-.66,20.5,20.5,0,0,0-2.61-.31l-2.25-.12-2.24.06-1.13,0c-.37,0-.74.08-1.12.12l-2.23.26c-1.47.26-2.94.55-4.39.9s-2.87.8-4.28,1.32a52.7,52.7,0,0,0-15.28,9c-1.13.94-2.24,1.9-3.3,2.91s-2.06,2.08-3.09,3.12c-.5.53-1,1-1.52,1.58l-1.41,1.68c-.92,1.13-1.93,2.2-2.75,3.4l-2.58,3.55-2.33,3.7c-.81,1.21-1.44,2.53-2.15,3.8l-1,1.92C141.32,100.47,141.05,101.14,140.73,101.8Z"/><path class="cls-3" d="M260.52,91.16c.09,0,.28-.14.17.23-.38,1.17-1.06,1.94-1.43,3.11l.12.15L258.1,97.3l-.46,1.3-.06.16h0v0c0,.06,0,.1-.1.1s0,.12,0,.14h0l-.11,0a5.5,5.5,0,0,1-.59-.23c-.4-.17-.83-.38-1.27-.59l-.4-.16a.22.22,0,0,0-.19,0,10.63,10.63,0,0,1-1-.61c-.53-.27-1.06-.56-1.58-.87s-1.17-.76-1.26-.82a.63.63,0,0,1-.28-.48,5.05,5.05,0,0,1,.33-1.48,30,30,0,0,1,3.36-7.33,16.92,16.92,0,0,1,.92-1.54,11.75,11.75,0,0,1,1-1.44,25.65,25.65,0,0,1,4.12-3.76c-.28-.15.35-.9,1-1.62s1.22-1.32.71-1.34c.48-.33,1.13-.66,1.64-1a3.75,3.75,0,0,0,.91-.65c0-.51.52-1.56,3.52-2.94,1.2-.5,3.18-.72,3.6-.92.67-.31-1.7,0-1-.27a30.07,30.07,0,0,0-12.7,6.22,37.37,37.37,0,0,0-9,10.79,45.29,45.29,0,0,0-2.08,5,9.94,9.94,0,0,0-.33,1.18,5.79,5.79,0,0,0-.09,1.79,4.47,4.47,0,0,0,.64,1.81,4.56,4.56,0,0,0,.61.78c.11.12.24.25.35.35l.28.24a25.4,25.4,0,0,0,4.19,2.7c.75.38,1.52.73,2.31,1l.59.23.76.26a7.12,7.12,0,0,0,2,.43,3.32,3.32,0,0,0,1.82-.49,3.51,3.51,0,0,0,1.26-1.36,5.49,5.49,0,0,0,.4-.89c.1-.28.21-.56.31-.83l.35-1c.94-2.49,1.8-4.55,2.32-5.73l.18-.44c1.12-2.59,2.49-5.73,3.34-8L269.33,82c-.31.41-.61.79-.89,1.14a19.29,19.29,0,0,0,1.16-2.45c.89-2.26,0-1.18-.77-.53-.47.52-.28-.41-.92.45l.9-1.69c-.11-.15-1,2.13-1,1.53.4-.62.68-1.4,1.05-2.07-.32.13-1.3,2.31-1.43,2.11.14-.39,1.24-1.78,1.08-2a4.76,4.76,0,0,0-.58,1c1-2.13,1.41-3.4.13-1.63.36-.66,1-1.54,1.31-2.25h0c-.21.33-.57.93-.75,1.24l.65-1.18-.21.15c-.19.28-.37.56-.54.87l.43-.79c-.18.16-.38.34-.59.56a22.59,22.59,0,0,0-1.63,2.15A135.27,135.27,0,0,0,260.52,91.16Z"/><path class="cls-3" d="M235.62,73.1c.08-.06.15-.15.21-.14s0,.11,0,.15l-.1,0a2.77,2.77,0,0,0-.17.46l.12.13c-.36.68-.79,1.36-1.24,2a30,30,0,0,1-2.35,3.79c.07,0,.12,0,0,.15a7.75,7.75,0,0,1-.69.83.25.25,0,0,1-.15.08.08.08,0,0,1,0,0v.14a.3.3,0,0,1-.18-.08,3.58,3.58,0,0,1-.59-.21l-.8-.33c-.54-.22-1.07-.44-1.6-.69-1.06-.48-2.12-1-3.17-1.56A25.38,25.38,0,0,1,219,73.81l-.56-.53c-.17-.19-.33-.38-.5-.56l-1.06-1.33c-1-1.29-2.25-2.9-3.28-4.07-.26.55-3-2-2.93-1.09-.69-.76-1.73-1.9-1.91-1.85-.52.16-1.47,0-3.56-1.86-.79-.75-1.75-2.2-2.08-2.46-.53-.4.68,1.37.15,1,2.67,3.23,5.4,5.92,8,8.78a40.62,40.62,0,0,1,3.45,4.23c.16.26.56.88.91,1.37a17.42,17.42,0,0,0,1.14,1.36A22.63,22.63,0,0,0,219.23,79c.57.4,1.89,1.36,3.68,2.44.89.55,1.91,1.12,3,1.7l1.7.87.89.43.46.21.26.12.42.17a4.32,4.32,0,0,0,3.47,0,4.88,4.88,0,0,0,1.42-1.07l.3-.34.18-.21.34-.4a31.1,31.1,0,0,0,4.08-6.49c.24-.52.43-.93.64-1.46.05-.15.11-.29.16-.44s.1-.37.14-.56a5.05,5.05,0,0,0,.11-1.07,4.63,4.63,0,0,0-.42-1.8,4.38,4.38,0,0,0-.4-.7,8,8,0,0,0-2-2c-.61-.42-1.23-.83-1.87-1.21a22.91,22.91,0,0,0-3.64-1.75,30.4,30.4,0,0,0-3.12-.81c.43.26.82.51,1.15.75a10.3,10.3,0,0,0-2.43-.8c-2.24-.43-1.07.22-.38.85.52.35-.34.34.5.81-.64-.23-1-.34-1.61-.53-.12.11,2,.54,1.48.66a13.63,13.63,0,0,0-2-.58c.18.26,2.21.76,2,1-.35-.09-1.71-.86-1.91-.63a3.83,3.83,0,0,0,.92.34c-2-.51-3.14-.46-1.43.26a16,16,0,0,0-2.14-.58h0c.33.08.88.25,1.18.33-.37-.1-.74-.18-1.12-.26l.18.15.83.25c-.24-.07-.49-.12-.74-.17l.58.38c.84.36,1.58.85,2,1a33.64,33.64,0,0,1,5.27,2.36c.84.47,1.65,1,2.45,1.52.38.26.83.58,1.13.81A2.68,2.68,0,0,1,235.62,73.1Z"/><path class="cls-2" d="M288.21,403a237.68,237.68,0,0,1-23-10.68c-4-2.08-5.12-3.77-9-5.95,8.93-9.33,11.87-22.87,11.64-35.15-.2-10.31-3.89-20.54-2.52-30.78a49.33,49.33,0,0,1,3.44-11.9,108.07,108.07,0,0,1,8-15.74,2.16,2.16,0,0,0-1-3.12,8.8,8.8,0,0,0-3.56-.87A7.85,7.85,0,0,0,266,292.2a19.6,19.6,0,0,0-2.64,6.27L261,306.73a4.7,4.7,0,0,1-1.11,2.24,2,2,0,0,1-2.47.29,2.57,2.57,0,0,1-.59-.83A55.12,55.12,0,0,0,247,295.18a6.54,6.54,0,0,0-2.08-1.56c-2.1-.85-4.19.28-5.87,1.88a2.32,2.32,0,0,0,.37,3.66c6.27,4.37,10.46,10.93,13.39,17.64,8.44,19.32,7.31,44.58-8.32,64.09-8.65-4.87-17.33-9.71-26.34-14-16.18-7.7-33.76-13.68-52-14.32s-37.35,4.59-49.94,16.57a57.1,57.1,0,0,0-13.39,20.28c-3.11,7.76-2.67,16.06.29,23.87a39.63,39.63,0,0,0,12.21,17.42c5.39,4.4,11.16,8.58,17.87,11.09,16.13,6,34.65,1.43,50.65-4.9,27.66-10.95,40.12-20.25,60.59-40,5.14,2.61,21.1,8.86,26.5,11,21.18,8.37,45.66,15.86,68.68,14l32.49-6.52A189.23,189.23,0,0,1,288.21,403ZM185.75,425.32c-12.34,6.16-35.84,13-48.87,8.15-5.42-2-10.07-5.4-14.43-9-4.78-3.9-5.35-7.09-7.44-12.6a26.19,26.19,0,0,1-.23-19.27,45.68,45.68,0,0,1,10.68-16.38c10.17-9.67,23.28-15.36,38-14.84S193,368.81,206,375c11.13,5.3,16,10.65,26.75,16.54C216,407.68,205,415.69,185.75,425.32Z"/><path class="cls-3" d="M243,394c-.08.06,1.07.76-.81-.14-5.89-2.95-10.39-5.75-16.15-9l-.49-.1c-4.41-2.6-8.89-5.45-13.62-8.29-1.1-.64-2.18-1.28-3.38-1.89l-1.74-.91-1.69-.81-6.79-3.26a122.65,122.65,0,0,0-14.12-5.81c.24.14.34.23-.63-.07a63.68,63.68,0,0,0-16.09-3.1c-.92-.07-1.82,0-2.72-.05a3.33,3.33,0,0,0-1,.12c-2.77,0-5.23.15-7.5.41a63.92,63.92,0,0,0-21.69,6.44,43.52,43.52,0,0,0-9.52,6.61,42.26,42.26,0,0,0-7.38,9,49.19,49.19,0,0,0-2.78,5.16A41.4,41.4,0,0,0,112.7,394,26.81,26.81,0,0,0,112,406a32.34,32.34,0,0,0,1.59,5.88,39.83,39.83,0,0,0,2.52,5.53,31.86,31.86,0,0,0,7.93,9.42,53,53,0,0,0,8.78,5.5,34.91,34.91,0,0,0,9.6,3.4c4.95.86,10.58.38,16-.54a111.41,111.41,0,0,0,15.29-3.86c-.78-.05,4.32-1.9,8.85-4.06s8.64-4.23,6.44-3.53c2.86-1.3,6.42-3,9.25-4.46a50.59,50.59,0,0,0,5.15-2.93,34.64,34.64,0,0,1,4.59-3.56c2.81-2,7.23-5,13.66-10.2,2.55-2,5.69-4.61,8.39-7s4.88-4.49,5.68-5.31c1.24-1.32-.33.11-1.91,1.48s-3.19,2.72-1.91,1.46a155.6,155.6,0,0,1-28.67,21,174.47,174.47,0,0,1-15.82,7.95A151.22,151.22,0,0,1,171,428.63a96.57,96.57,0,0,1-17,3.87,43.94,43.94,0,0,1-8.47.3,23.56,23.56,0,0,1-4-.64,29.39,29.39,0,0,1-3.91-1.37,48.72,48.72,0,0,1-7.54-4.08,33.87,33.87,0,0,1-6.52-5.37,28.23,28.23,0,0,1-4.69-6.92,39,39,0,0,1-1.66-3.94,30.5,30.5,0,0,1-1.11-4.06,23.11,23.11,0,0,1-.08-9.35,20.77,20.77,0,0,1,.93-3.24c.43-1.15,1-2.39,1.55-3.63a44.41,44.41,0,0,1,4.57-7.62,38.25,38.25,0,0,1,3.14-3.7l.88-.89.93-.84.95-.85,1-.79a43.44,43.44,0,0,1,9.41-5.46,63.6,63.6,0,0,1,23.23-4.84,53.7,53.7,0,0,1,12.16,1,68.18,68.18,0,0,1,11.68,3.46c3.78,1.47,7.44,3.16,11,4.87l5.28,2.57c.85.42,1.77.83,2.55,1.26l2.39,1.27c6.35,3.67,12.22,7.3,17.36,10.2s9.48,5.29,12.71,7l2.34,1.22,5.46,2.71,2.82,1.38,2.89,1.32,5.85,2.64,5.93,2.43c3.9,1.67,7.87,3,11.58,4.35,1.84.7,3.69,1.24,5.45,1.79l5.07,1.56c1.47.47,3,.85,4.48,1.22l4.53,1.13c1.52.37,3,.78,4.55,1.11l4.6.91c-2.81-.73-5.41-1.38-7.62-2.14,3,.92,6.16,1.5,8.77,2.11s4.76,1.06,6,1.23c13.35,2.05,5.84.46.83-.8-3.62-.87,1.35-.11-4.29-1.53,4.07,1,6.16,1.21,10.3,2,.25,0-2.94-.57-5.82-1.06-1.45-.21-2.79-.58-3.61-.76s-1.1-.3-.37-.2c1,.23,2,.48,3,.69l3.16.53,6.34,1.05c-.69-.23-4.27-.86-7.58-1.45-.83-.16-1.64-.28-2.38-.45l-2-.47a6.16,6.16,0,0,1-1.63-.47c2.18.6,11.51,2.48,12.35,2.35.17,0-4-.74-6-1.1l8.27,1.33c1.13.19,2.13.29,3,.35l2,.15c1,.06,1.15,0,.38-.14-.39-.08-1-.19-1.91-.33s-2.05-.29-3.49-.6l1.58.28,1.7.21,3.63.46c2.47.32,5,.63,7.11.86h0l-7.78-1,7.28.87-1.26-.26-5.52-.71,4.84.57c-1.2-.23-2.58-.47-4.09-.73-5.74-.72-11.12-2.05-14.19-2.56A254.51,254.51,0,0,1,277.71,409,293.1,293.1,0,0,1,243,394Z"/><path class="cls-3" d="M262.35,389.7c-.09.06,1.31.92-1-.24-7.13-3.73-12.6-7.26-19.72-11.14l-.59-.15c-5.44-3.13-11.14-6.37-17.09-9.49-2.75-1.39-5.59-2.75-8.32-4.05l-8.26-4c-5.53-2.64-11.15-5.2-17-7.35.28.17.41.28-.75-.14a86.65,86.65,0,0,0-19.26-4.73c-1.1-.15-2.22-.16-3.31-.24a4.72,4.72,0,0,0-1.22.06c-1.7,0-3.31-.09-4.84,0l-2.23.11-2.13.22a78.5,78.5,0,0,0-26.19,8.25,75.27,75.27,0,0,0-11.73,7.47,56.42,56.42,0,0,0-10.05,9.91,59.37,59.37,0,0,0-7.34,12.2c-.5,1.08-1,2.18-1.4,3.3l-.62,1.73c-.17.59-.37,1.17-.52,1.77a31.59,31.59,0,0,0-1,7.31A36.93,36.93,0,0,0,100.54,415a42.85,42.85,0,0,0,7.65,12.79,40.06,40.06,0,0,0,4.64,4.39c1.63,1.31,3.28,2.56,5,3.77a62.65,62.65,0,0,0,10.61,6.27,36.56,36.56,0,0,0,4.34,1.68,45.64,45.64,0,0,0,4.7,1.32,54.83,54.83,0,0,0,10,1.12,69.81,69.81,0,0,0,10-.65,89.52,89.52,0,0,0,9.13-1.79c-.93-.05,5.46-1.85,11.11-4.19,2.85-1.13,5.52-2.33,7.17-3.12s2.25-1.17.9-.78c3.56-1.42,8-3.28,11.56-4.89s6.27-3,6.5-3.18a58.18,58.18,0,0,1,5.91-3.88,174.53,174.53,0,0,0,17.13-11.74c3.14-2.38,7-5.59,10.28-8.47s6-5.49,7-6.49c1.55-1.59-.38.15-2.3,1.85s-3.89,3.35-2.31,1.82a171.11,171.11,0,0,1-16.92,13.8,143.2,143.2,0,0,1-18.63,11c-6.48,3.19-13.16,6-19.9,8.74a131.56,131.56,0,0,1-20.39,6.74,63.52,63.52,0,0,1-20.9,1.63,43,43,0,0,1-10.07-2.29,46.41,46.41,0,0,1-9.27-4.75,94.48,94.48,0,0,1-8.59-6.42,34.93,34.93,0,0,1-6.82-7.73,43.21,43.21,0,0,1-4.53-9.44,33.36,33.36,0,0,1-1.8-10.19,27,27,0,0,1,2.21-11.39,54.78,54.78,0,0,1,10.75-17A67.82,67.82,0,0,1,136,359a69.75,69.75,0,0,1,28.32-6.28,61.59,61.59,0,0,1,14.81,2,103.65,103.65,0,0,1,14.23,4.84c4.61,1.91,9.09,4,13.44,6.14l12.69,6.15c8.06,4,15.3,8.09,21.55,11.61s11.48,6.49,15.36,8.62l2.84,1.52,3.24,1.73c.57.29,1.19.58,1.78.87s1.19.52,1.78.78c2.38,1,4.79,1.92,7.22,2.82,4.88,1.79,9.85,3.49,14.75,5.1s9.74,3.14,14.35,4.5c2.31.68,4.56,1.33,6.76,1.9s4.34,1,6.34,1.44c7.34,1.5,14.84,3,22.47,3.83-3.53-.53-6.74-1.22-9.51-1.84,3.8.74,7.64,1.36,10.91,1.74a81.42,81.42,0,0,0,15.49.23c1.35-.12,1.52-.21,1-.25s-1.79-.09-3.3-.12-3.28-.13-4.86-.29c-2.27-.13-1.87-.26-1.78-.35s-.16-.2-3.68-.56a93.76,93.76,0,0,0,12.77.24c.29-.1-3.64.13-7.21,0s-6.74-.42-5-.38a98,98,0,0,0,15.51-.05c-.89-.06-5.31.23-9.4.15a41.3,41.3,0,0,1-7.44-.56c1.36.14,4.92.45,8.27.51a44,44,0,0,0,7-.28c.19,0-4.9.18-7.44.15a148.55,148.55,0,0,0,16.24-1.09c2.33-.31.89-.3-6.28.08,5-.33,12-.85,17.3-1.3h0l-9.61.72,9-.72h-1.58c-2.24.15-4.49.31-6.83.5l6-.49c-1.5,0-3.22.09-5.1.17-7.11.44-13.84.65-17.59.63a89.33,89.33,0,0,1-11.32-.67c-3.77-.45-7.55-1.16-11.33-1.89s-7.55-1.59-11.32-2.47c-1.87-.44-3.84-.86-5.61-1.33s-3.68-1-5.52-1.57c-7.4-2.24-14.77-4.66-22.08-7.19-3.66-1.26-7.3-2.56-10.89-3.93-1.79-.68-3.58-1.38-5.29-2.12-.89-.37-1.66-.76-2.47-1.15Z"/><path class="cls-3" d="M255.67,322c-.11,0,.07.86-.4-.41-.34-1-.77-1.94-1.1-2.87s-.67-1.84-1-2.72a39.4,39.4,0,0,0-2.7-5.4l-.3-.19a42.67,42.67,0,0,0-6.2-8.47,33.59,33.59,0,0,0-3.85-3.29l-.51-.37h0l0,0a.14.14,0,0,1,0-.09,7.23,7.23,0,0,1,.94-.74,3.54,3.54,0,0,1,1.22-.54,1.45,1.45,0,0,1,.88.08,3.89,3.89,0,0,1,1.14.88c-.05-.14-.08-.25.35.15a48.46,48.46,0,0,1,6,7.27c.31.42.61.86.9,1.28s.35.38.41.41c.43.68.82,1.34,1.17,2,.09.16.18.31.26.47l.21.39.25.42.49.83.24.41.28.32a3.64,3.64,0,0,0,2.79,1,4.44,4.44,0,0,0,2.82-1.24,6.17,6.17,0,0,0,1.57-2.93l.54-2c.67-2.51,1.34-5,2-7.6s1.53-4.7,3.22-6.09a5.67,5.67,0,0,1,2.85-1.35,4.88,4.88,0,0,1,1.57,0,7.36,7.36,0,0,1,.84.21l.43.14.29.11a.9.9,0,0,1,.66.82,1,1,0,0,1-.18.56l-.69,1.21c-1,1.73-1.93,3.54-2.85,5.4a104,104,0,0,0-5,11.82,42.45,42.45,0,0,0-2.37,12.54c-.31,6.18,1.17,13.85,2,19.63.22-.49.94,2.79,1.36,5.88.11.77.18,1.53.26,2.22s.11,1.29.17,1.76c.11.93.2,1.3.38.58a50.54,50.54,0,0,1-.67,6.46c-.34,2-.7,3.53-.67,3.7a9.46,9.46,0,0,1-.34,3.75,37.93,37.93,0,0,1-4.18,10.31,47.63,47.63,0,0,1-4.16,5.83c-1.53,1.79-3,3.2-3.43,3.78-.74.86.25,0,1.27-1s1.95-2,1.25-1a51.24,51.24,0,0,0,11.26-20.67A47.15,47.15,0,0,0,269,354,68.32,68.32,0,0,0,268,342.4c-1.15-7.43-2.62-14.61-1.53-21.45a47.79,47.79,0,0,1,3.07-10.25,103.07,103.07,0,0,1,4.69-10.07c.4-.79,1-2,1.86-3.47l.68-1.18c.15-.26.31-.53.48-.8a5.18,5.18,0,0,0,.58-1.37,4.54,4.54,0,0,0-.3-3,4.77,4.77,0,0,0-2.38-2.3l-.48-.2-.33-.13c-.2-.08-.41-.15-.63-.22a11.16,11.16,0,0,0-1.41-.36,8.87,8.87,0,0,0-3.21,0,10.33,10.33,0,0,0-5.71,3.28,15.6,15.6,0,0,0-3.09,5.77c-.63,2-1.11,3.84-1.68,5.82l-.84,3c-.15.5-.29,1-.43,1.51l-.08.27,0,.09a.3.3,0,0,1-.31.19.2.2,0,0,1-.14-.13l-.24-.43a57.22,57.22,0,0,0-8-10.88c-.38-.41-.77-.81-1.17-1.21a14.85,14.85,0,0,0-1.37-1.28,6.39,6.39,0,0,0-2.08-1.14,5.91,5.91,0,0,0-2.46-.29,8.06,8.06,0,0,0-4,1.59c-.27.19-.51.38-.75.58s-.21.17-.38.34-.35.32-.51.5a4.46,4.46,0,0,0-.66,5.15,4.86,4.86,0,0,0,.81,1.11,5.7,5.7,0,0,0,.52.46l.45.34c.74.53,1.46,1.09,2.13,1.68a31.84,31.84,0,0,1,3.62,3.75,41.88,41.88,0,0,1,5,7.71c.63,1.21,1.15,2.37,1.61,3.42l1.13,2.85c.2.49.39,1,.55,1.48a65,65,0,0,1,3.31,14.65,66.56,66.56,0,0,1,0,13.92,55.42,55.42,0,0,1-2.08,11,22.83,22.83,0,0,0,.89-2.35c.26-.75.51-1.47.75-2.13-.54,1.84-1,3.7-1.6,5.21l-.72,2.05c-.23.58-.43,1.06-.56,1.41-.38.94-.69,1.7-.93,2.31s-.48,1-.61,1.34c-.26.61-.24.73,0,.53s.56-.71,1-1.33.84-1.43,1.27-2.11c.55-1,.56-.79.65-.71s.1,0,.25-.17a6.68,6.68,0,0,0,.74-1.48,14.68,14.68,0,0,1-.66,1.64l-.62,1.38a30.56,30.56,0,0,1-1.46,2.95c0,.09.23-.32.58-.95s.7-1.53,1.08-2.36c.79-1.66,1.32-3.22,1.13-2.31-.46,1.18-1.06,2.38-1.58,3.64-.26.63-.58,1.23-.9,1.83l-1,1.76a12.79,12.79,0,0,0,1-1.53l.72-1.28.67-1.45c.43-1,.89-1.88,1.17-2.56s.45-1.08.46-1a13.33,13.33,0,0,1-.65,1.65l-1.11,2.3c-.19.39-.37.78-.55,1.14l-.53,1a4.4,4.4,0,0,0-.51,1.16,25.35,25.35,0,0,0,1.81-3.43l-.59,1.36-.65,1.23L250,373.54c-.71,1.28-1.3,2.2-1.58,2.75-.58,1.08,0,.57,2.1-2.56-.66,1.14-1.59,2.42-2.47,3.76s-2,2.54-2.81,3.64h0c.83-1.11,2.4-2.92,3.09-4-.87,1.31-1.9,2.51-2.85,3.76l.6-.58c.73-.92,1.51-1.82,2.21-2.83-.59.87-1.26,1.67-1.9,2.51.55-.57,1.17-1.23,1.84-2s1.1-1.51,1.64-2.23,1.05-1.43,1.46-2.13a34.77,34.77,0,0,0,2-3.53,60.54,60.54,0,0,0,4.22-11.63,68.34,68.34,0,0,0,1.72-12.24,70.63,70.63,0,0,0-.69-12.33c-.11-1-.36-2-.54-3s-.37-2-.65-3l-.78-3Z"/><path class="cls-1" d="M397.06,402.2c-3.11-9.27-9.9-17.78-19.16-20.89-7.13-2.39-17.69-.32-25.08,4.29l-.73.42c-10.56,5.64-17.82,17.4-17.21,29.35s9.64,23.24,21.36,25.62c6.24,1.27,12.73.16,18.84-1.6,7.47-2.16,15-5.57,19.52-11.91C399.68,420.31,399.86,410.53,397.06,402.2Z"/><path class="cls-2" d="M382.13,406.42c-1.69-5-5.38-9.67-10.43-11.36-3.87-1.3-9.62-.18-13.64,2.33l-.4.23c-5.74,3.07-9.7,9.47-9.36,16s5.24,12.65,11.62,14a21.7,21.7,0,0,0,10.25-.88c4.06-1.17,8.18-3,10.62-6.48C383.56,416.28,383.65,411,382.13,406.42Z"/><path class="cls-3" d="M392,395.62c.09,0-.18-.61.4.15a34.38,34.38,0,0,1,3.83,7.52l.23.15a33.4,33.4,0,0,1,1.57,7,26.54,26.54,0,0,1-1.19,13.13c.1-.09.17-.12,0,.3a18.4,18.4,0,0,1-3.69,5.78c-.25.3-.52.57-.78.85a.87.87,0,0,0-.21.39,23.64,23.64,0,0,1-2.54,2,37,37,0,0,1-8.87,4.83,64.91,64.91,0,0,1-10.11,3.06,33.69,33.69,0,0,1-10.6.69,23.46,23.46,0,0,1-10.18-3.68,25.79,25.79,0,0,1-7-6.32,27.13,27.13,0,0,1-3.56-6.6,25.71,25.71,0,0,1-1.58-7.2c-.25.37-.75-2.18-.69-4.63s.37-4.7-.17-3.65a22,22,0,0,1,.64-2.47c.13-.42.25-.84.39-1.25s.3-.8.44-1.17c.55-1.5,1.12-2.6,1.07-2.76a6.45,6.45,0,0,1,.76-2.91,26.42,26.42,0,0,1,5-7.27c.6-.6,1.32-1.24,2.07-1.88s1.55-1.25,2.35-1.74c1.54-1.08,3-1.79,3.47-2.15.74-.48-.2-.09-1.22.42s-2,1-1.22.43a35.67,35.67,0,0,0-12.7,13.85A32.19,32.19,0,0,0,334.39,419a31.42,31.42,0,0,0,7.86,17.08,30.3,30.3,0,0,0,7.46,6,27.88,27.88,0,0,0,9.2,3.27,35.91,35.91,0,0,0,5.48.28,45.46,45.46,0,0,0,8.79-1.17,70.62,70.62,0,0,0,10.62-3.29,36.7,36.7,0,0,0,10.93-6.62,24.77,24.77,0,0,0,4.36-5.19,25.07,25.07,0,0,0,2.75-6.13,31.2,31.2,0,0,0,1-12.34,37.76,37.76,0,0,0-2.56-10.07,41.3,41.3,0,0,0-3.41-6.6l-.77-1.12a37.45,37.45,0,0,0-4.08-4.9,32.93,32.93,0,0,0-5.16-4.17,25.67,25.67,0,0,0-20.94-3.61,16.18,16.18,0,0,1,2.13-.19,15.36,15.36,0,0,1,1.91,0,22.26,22.26,0,0,0-7.5,1.52c-3.18,1.32-3.67,2-3.23,1.86s2-.64,3.23-.88c.89-.22.77-.06.78,0s.12.15,1.49-.12a22.36,22.36,0,0,0-4.71,1.78c-.07.11,1.31-.61,2.63-1.09s2.55-.76,1.9-.47a21.11,21.11,0,0,0-5.58,2.37,8.32,8.32,0,0,0,1.26-.56c.6-.29,1.37-.61,2.11-.9a8.39,8.39,0,0,1,2.82-.73c-.26.08-.72.19-1.29.32s-1.19.36-1.81.58-1.2.47-1.64.7a2.41,2.41,0,0,0-.77.54,5.71,5.71,0,0,0,.94-.46l1.68-.72a16.49,16.49,0,0,0-5.26,3.3c-.31.32-.34.42,0,.25s1-.63,2.16-1.28a18,18,0,0,0-4.87,4.15h0c.33-.36.77-.86,1.23-1.32s1-.89,1.31-1.16c-.43.35-.81.74-1.23,1.12s-.74.82-1.12,1.22l.47-.36c.55-.62,1.2-1.13,1.82-1.72a18.78,18.78,0,0,0-1.57,1.52c.41-.36,1-.7,1.49-1.12a21.55,21.55,0,0,1,5.62-3,23.25,23.25,0,0,1,16.43-.35,26.13,26.13,0,0,1,7.34,4.14A32.09,32.09,0,0,1,392,395.62Z"/><path class="cls-3" d="M376.22,404.73c.09-.05,0-.35.3,0a16.06,16.06,0,0,1,1.71,3.54l.19,0a14.82,14.82,0,0,1,.6,3.29,12.16,12.16,0,0,1-.46,5.94c.07,0,.13,0,.09.17a7.66,7.66,0,0,1-1.64,2.54c-.11.14-.23.26-.34.39a.34.34,0,0,0-.05.23,9.08,9.08,0,0,1-1.17.91,24.14,24.14,0,0,1-9,4,16.26,16.26,0,0,1-5.05.47,10.94,10.94,0,0,1-4.87-1.61,11.45,11.45,0,0,1-3.5-2.92,12.63,12.63,0,0,1-2.47-6.71c-.27.2-.62-1-.7-2.27s0-2.4-.44-1.9a15.82,15.82,0,0,1,.75-2.49,6.79,6.79,0,0,0,.48-1.43,2.48,2.48,0,0,1,.08-1.68,11.2,11.2,0,0,1,2.42-4,13.67,13.67,0,0,1,2.35-1.91c.82-.55,1.59-.92,1.84-1.13s-.13-.12-.71.12-1.09.49-.71.13a19,19,0,0,0-6.84,7.4,17.35,17.35,0,0,0-1.89,10,17,17,0,0,0,4.27,9.24,15.64,15.64,0,0,0,9.09,5.05,20.57,20.57,0,0,0,2.95.11,24.14,24.14,0,0,0,4.64-.65,36,36,0,0,0,5.49-1.73,19.69,19.69,0,0,0,5.79-3.54,13.49,13.49,0,0,0,3.87-6.18,16.68,16.68,0,0,0,.53-6.61,21.14,21.14,0,0,0-3.13-8.84l-.42-.59a17.44,17.44,0,0,0-4.93-4.82,13,13,0,0,0-11.24-1.64,10.77,10.77,0,0,1,2.14,0,10.28,10.28,0,0,0-3.92.83c-1.65.75-1.86,1.15-1.6,1.15s1.08-.19,1.75-.22c.92-.12-.15.48,1.23.26a11.44,11.44,0,0,0-2.33.86c0,.1.66-.27,1.31-.51s1.25-.37.95-.17a9.48,9.48,0,0,0-2.72,1.18,16,16,0,0,0,1.67-.64c.73-.26,1.44-.4,1.39-.28a5.61,5.61,0,0,1-.62.14l-.9.24c-.6.2-1.13.47-1.14.64a1.69,1.69,0,0,0,.46-.2l.82-.34a6.34,6.34,0,0,0-2.45,1.68c-.25.37,0,.24,1.12-.31a8,8,0,0,0-2.28,1.88h0c.16-.16.37-.39.58-.59l.62-.53a9.27,9.27,0,0,0-1.09,1.08l.27-.13c.26-.27.56-.49.85-.76a7.82,7.82,0,0,0-.72.69c.22-.13.5-.25.77-.41a11.67,11.67,0,0,1,2.64-1.14,10.56,10.56,0,0,1,7.35-.07A13.06,13.06,0,0,1,376.22,404.73Z"/><path class="cls-1" d="M397.06,402.2c-3.11-9.27-9.9-17.78-19.16-20.89-7.13-2.39-17.69-.32-25.08,4.29l-.73.42c-10.56,5.64-17.82,17.4-17.21,29.35s9.64,23.24,21.36,25.62c6.24,1.27,12.73.16,18.84-1.6,7.47-2.16,15-5.57,19.52-11.91C399.68,420.31,399.86,410.53,397.06,402.2Z"/><path class="cls-2" d="M382.13,406.42c-1.69-5-5.38-9.67-10.43-11.36-3.87-1.3-9.62-.18-13.64,2.33l-.4.23c-5.74,3.07-9.7,9.47-9.36,16s5.24,12.65,11.62,14a21.7,21.7,0,0,0,10.25-.88c4.06-1.17,8.18-3,10.62-6.48C383.56,416.28,383.65,411,382.13,406.42Z"/><path class="cls-3" d="M392,395.62c.09,0-.18-.61.4.15a34.38,34.38,0,0,1,3.83,7.52l.23.15a33.4,33.4,0,0,1,1.57,7,26.54,26.54,0,0,1-1.19,13.13c.1-.09.17-.12,0,.3a18.4,18.4,0,0,1-3.69,5.78c-.25.3-.52.57-.78.85a.87.87,0,0,0-.21.39,23.64,23.64,0,0,1-2.54,2,37,37,0,0,1-8.87,4.83,64.91,64.91,0,0,1-10.11,3.06,33.69,33.69,0,0,1-10.6.69,23.46,23.46,0,0,1-10.18-3.68,25.79,25.79,0,0,1-7-6.32,27.13,27.13,0,0,1-3.56-6.6,25.71,25.71,0,0,1-1.58-7.2c-.25.37-.75-2.18-.69-4.63s.37-4.7-.17-3.65a22,22,0,0,1,.64-2.47c.13-.42.25-.84.39-1.25s.3-.8.44-1.17c.55-1.5,1.12-2.6,1.07-2.76a6.45,6.45,0,0,1,.76-2.91,26.42,26.42,0,0,1,5-7.27c.6-.6,1.32-1.24,2.07-1.88s1.55-1.25,2.35-1.74c1.54-1.08,3-1.79,3.47-2.15.74-.48-.2-.09-1.22.42s-2,1-1.22.43a35.67,35.67,0,0,0-12.7,13.85A32.19,32.19,0,0,0,334.39,419a31.42,31.42,0,0,0,7.86,17.08,30.3,30.3,0,0,0,7.46,6,27.88,27.88,0,0,0,9.2,3.27,35.91,35.91,0,0,0,5.48.28,45.46,45.46,0,0,0,8.79-1.17,70.62,70.62,0,0,0,10.62-3.29,36.7,36.7,0,0,0,10.93-6.62,24.77,24.77,0,0,0,4.36-5.19,25.07,25.07,0,0,0,2.75-6.13,31.2,31.2,0,0,0,1-12.34,37.76,37.76,0,0,0-2.56-10.07,41.3,41.3,0,0,0-3.41-6.6l-.77-1.12a37.45,37.45,0,0,0-4.08-4.9,32.93,32.93,0,0,0-5.16-4.17,25.67,25.67,0,0,0-20.94-3.61,16.18,16.18,0,0,1,2.13-.19,15.36,15.36,0,0,1,1.91,0,22.26,22.26,0,0,0-7.5,1.52c-3.18,1.32-3.67,2-3.23,1.86s2-.64,3.23-.88c.89-.22.77-.06.78,0s.12.15,1.49-.12a22.36,22.36,0,0,0-4.71,1.78c-.07.11,1.31-.61,2.63-1.09s2.55-.76,1.9-.47a21.11,21.11,0,0,0-5.58,2.37,8.32,8.32,0,0,0,1.26-.56c.6-.29,1.37-.61,2.11-.9a8.39,8.39,0,0,1,2.82-.73c-.26.08-.72.19-1.29.32s-1.19.36-1.81.58-1.2.47-1.64.7a2.41,2.41,0,0,0-.77.54,5.71,5.71,0,0,0,.94-.46l1.68-.72a16.49,16.49,0,0,0-5.26,3.3c-.31.32-.34.42,0,.25s1-.63,2.16-1.28a18,18,0,0,0-4.87,4.15h0c.33-.36.77-.86,1.23-1.32s1-.89,1.31-1.16c-.43.35-.81.74-1.23,1.12s-.74.82-1.12,1.22l.47-.36c.55-.62,1.2-1.13,1.82-1.72a18.78,18.78,0,0,0-1.57,1.52c.41-.36,1-.7,1.49-1.12a21.55,21.55,0,0,1,5.62-3,23.25,23.25,0,0,1,16.43-.35,26.13,26.13,0,0,1,7.34,4.14A32.09,32.09,0,0,1,392,395.62Z"/><path class="cls-3" d="M376.22,404.73c.09-.05,0-.35.3,0a16.06,16.06,0,0,1,1.71,3.54l.19,0a14.82,14.82,0,0,1,.6,3.29,12.16,12.16,0,0,1-.46,5.94c.07,0,.13,0,.09.17a7.66,7.66,0,0,1-1.64,2.54c-.11.14-.23.26-.34.39a.34.34,0,0,0-.05.23,9.08,9.08,0,0,1-1.17.91,24.14,24.14,0,0,1-9,4,16.26,16.26,0,0,1-5.05.47,10.94,10.94,0,0,1-4.87-1.61,11.45,11.45,0,0,1-3.5-2.92,12.63,12.63,0,0,1-2.47-6.71c-.27.2-.62-1-.7-2.27s0-2.4-.44-1.9a15.82,15.82,0,0,1,.75-2.49,6.79,6.79,0,0,0,.48-1.43,2.48,2.48,0,0,1,.08-1.68,11.2,11.2,0,0,1,2.42-4,13.67,13.67,0,0,1,2.35-1.91c.82-.55,1.59-.92,1.84-1.13s-.13-.12-.71.12-1.09.49-.71.13a19,19,0,0,0-6.84,7.4,17.35,17.35,0,0,0-1.89,10,17,17,0,0,0,4.27,9.24,15.64,15.64,0,0,0,9.09,5.05,20.57,20.57,0,0,0,2.95.11,24.14,24.14,0,0,0,4.64-.65,36,36,0,0,0,5.49-1.73,19.69,19.69,0,0,0,5.79-3.54,13.49,13.49,0,0,0,3.87-6.18,16.68,16.68,0,0,0,.53-6.61,21.14,21.14,0,0,0-3.13-8.84l-.42-.59a17.44,17.44,0,0,0-4.93-4.82,13,13,0,0,0-11.24-1.64,10.77,10.77,0,0,1,2.14,0,10.28,10.28,0,0,0-3.92.83c-1.65.75-1.86,1.15-1.6,1.15s1.08-.19,1.75-.22c.92-.12-.15.48,1.23.26a11.44,11.44,0,0,0-2.33.86c0,.1.66-.27,1.31-.51s1.25-.37.95-.17a9.48,9.48,0,0,0-2.72,1.18,16,16,0,0,0,1.67-.64c.73-.26,1.44-.4,1.39-.28a5.61,5.61,0,0,1-.62.14l-.9.24c-.6.2-1.13.47-1.14.64a1.69,1.69,0,0,0,.46-.2l.82-.34a6.34,6.34,0,0,0-2.45,1.68c-.25.37,0,.24,1.12-.31a8,8,0,0,0-2.28,1.88h0c.16-.16.37-.39.58-.59l.62-.53a9.27,9.27,0,0,0-1.09,1.08l.27-.13c.26-.27.56-.49.85-.76a7.82,7.82,0,0,0-.72.69c.22-.13.5-.25.77-.41a11.67,11.67,0,0,1,2.64-1.14,10.56,10.56,0,0,1,7.35-.07A13.06,13.06,0,0,1,376.22,404.73Z"/></g></svg>