<svg xmlns="http://www.w3.org/2000/svg" viewBox="0 0 500 500"><defs><style>.cls-1{fill:#f9cdde;}.cls-2{fill:#eb6f00;}.cls-3{fill:#1d1d1d;}</style></defs><g id="OUTLINE_ikons" data-name="OUTLINE ikons"><path class="cls-1" d="M184.08,115s14.54-41.64-24.52-38.13-71.17,48.74-54.77,92.22c9.24,24.52,27,7,42.91-14.22,20-26.68,25.13-4.42,31.6-23.56"/><path class="cls-1" d="M315.2,120S300.66,78.3,339.72,81.81s78.45,52.41,54.77,92.23c-15.17,25.51-50.57,11.8-50.91-12.08-.48-33.58-14.77-15.18-21.24-34.33"/><path class="cls-2" d="M182.6,328.43c30.16-31.52,71.25,34,101.34,23.79s42.8-37.53,43.49-13.48S312.1,408,271,420.37C232.63,431.92,115,399.05,182.6,328.43Z"/><path class="cls-3" d="M339.05,85.19c0-.2-.78-.31.39-.55a12.38,12.38,0,0,1,2.69-.2h1.29l1.27.13c1.69.13,3.36.47,5.24.61l.32-.27a48.44,48.44,0,0,1,8.66,2.85l2,.83,1,.41,1,.49,1.94,1,1.87,1.09.94.54.9.6,1.8,1.2L372,95.18l.86.65.82.71c0-.19,0-.32.44,0a40.31,40.31,0,0,1,6.21,6.75l.95,1.19a.88.88,0,0,0,.54.3c.48.62.83,1.29,1.21,1.88s.75,1.17,1,1.75A61.51,61.51,0,0,1,393,133.21a71.44,71.44,0,0,1,.55,13.92,68.42,68.42,0,0,1-2.29,14.28,35.48,35.48,0,0,1-4.68,11.24,23,23,0,0,1-3,3.52,20.11,20.11,0,0,1-3.86,2.86,18.2,18.2,0,0,1-4.39,1.7,16.82,16.82,0,0,1-4.34.39c.21.3-.48.56-1.65.67a16.59,16.59,0,0,1-4.35-.3c-3.13-.57-5.89-2-4.91-.71a23.29,23.29,0,0,1-5.27-4.45c-1.43-1.61-2.36-3-2.58-3.05-.66-.18-1.74-.79-3.18-2.86a23.56,23.56,0,0,1-3.69-11.81c0-.3,0-.61,0-.93v-.89c0-.52,0-1,0-1.6a16.59,16.59,0,0,0-.17-2.67,3.45,3.45,0,0,0-.19-.67c0-.08,0-.09,0-.11v0l.12-.08.22-.2a1.06,1.06,0,0,0,.16-.19l0,.07v0l0,.08a.94.94,0,0,0-.06.15,1.39,1.39,0,0,0-.05.23c-.07.29,0,.08,0,.14H345c-.08,0-.12,0-.13,0s.07.1.23.18l.14.07h0l.1-.42h0v0l0-.07a1.68,1.68,0,0,1,.1-.29l.05-.12,0,0-.05.07-.2.2a4.26,4.26,0,0,1-.35.28,2.85,2.85,0,0,1-.48.32c-.08,0-.05,0-.08.07l-.1.08h-.12l.09,0c-.15.08-.07,0-.09.06h0s0,0,0,.05,0,.09.06.21.09.42.13.72a15.35,15.35,0,0,1,.1,2.15l-.07,2.86a32.37,32.37,0,0,0,.16,3.42,31.6,31.6,0,0,0,4.16,13,28.31,28.31,0,0,0,4.25,5.55,26.29,26.29,0,0,0,5.64,4.33A25.56,25.56,0,0,0,372.29,188a22.45,22.45,0,0,0,7.18-1.45,23.41,23.41,0,0,0,6.29-3.5,29.5,29.5,0,0,0,2.67-2.29c.78-.83,1.59-1.66,2.28-2.55a36,36,0,0,0,3.69-5.51,45.11,45.11,0,0,0,2.71-5.83,55.41,55.41,0,0,0,2-6,85.57,85.57,0,0,0,2.24-12.2,89.28,89.28,0,0,0-.55-18.69,73.77,73.77,0,0,0-3.56-14.52,66,66,0,0,0-7.61-15,59.46,59.46,0,0,0-25.88-21,55,55,0,0,0-13.41-3.7l-2.93-.35-2.67-.12-1.23-.05-1.16,0-2.07.08a14.19,14.19,0,0,0-1.83.19,39.64,39.64,0,0,0-8.54,1.74,32.17,32.17,0,0,0-8.4,4.09,26,26,0,0,0-3.64,3A25,25,0,0,0,314.89,88a24.75,24.75,0,0,0-3.25,21,21.49,21.49,0,0,1,0-5.68,22.48,22.48,0,0,0,.73,6.32,15.73,15.73,0,0,0,1.57,4,15.34,15.34,0,0,0,2.56,3.75c.55.54.71.53.67.2-.12-.65-1-2.63-1.36-4.32-.36-1.17-.05-1.06.16-1.11s.33-.25-.08-2a20.9,20.9,0,0,0,2.84,5.81c.22,0-1-1.58-1.74-3.21s-1.22-3.19-.7-2.42a19.67,19.67,0,0,0,3.79,6.71c-.11-.47-1.42-2.23-2.29-4.06s-1.34-3.63-1.08-3.5a36.58,36.58,0,0,0,1.37,3.81c.69,1.5,1.59,2.78,2,2.8.12,0-1.31-2-1.82-3.13a15.75,15.75,0,0,0,5.14,5.8c.49.28.65.24.4-.15s-.92-1.13-1.87-2.47a21.28,21.28,0,0,0,2.72,2.76,14.35,14.35,0,0,0,3.32,2.12v0a18.12,18.12,0,0,1-3.56-2.42,16.48,16.48,0,0,0,3.36,2.2l-.52-.52a26.29,26.29,0,0,1-2.43-1.77,16.91,16.91,0,0,0,2.16,1.49c-.48-.48-1-1-1.56-1.64a22.27,22.27,0,0,1-4.24-6.19,17.1,17.1,0,0,1-2.06-9.15,18.33,18.33,0,0,1,3-9C325.36,88.82,332,86,339.05,85.19Z"/><path class="cls-3" d="M195.64,222.79c.11,0-.09-1.34.42.74.38,1.63.73,3.19,1,4.72s.55,3,.83,4.51c.54,3,1.09,6,1.69,9.26l.25.45c.44,2.57.86,5.19,1.23,7.86s.82,5.37,1.15,8.12l1.08,7.55c.32,2.52.63,5,.95,7.55.16,1.23.3,2.55.52,3.88a34.85,34.85,0,0,0,.87,4,20.58,20.58,0,0,0,1.61,4,11.71,11.71,0,0,0,3,3.68c-.23-.27-.35-.38.75.37a9.59,9.59,0,0,0,4.24,1.5,16.17,16.17,0,0,0,4.54-.29L224,290c1.41-.27,2.87-.43,4.34-.66.86-.13,1.74-.22,2.59-.33a3.48,3.48,0,0,0,.94-.24c2.68-.26,5.06-.41,7.27-.48a118,118,0,0,1,20.77.74c3.52.41,7,1.05,10.63,1.8,1.78.41,3.58.8,5.38,1.31l1.35.36.34.09.51.15,1.13.35,4.5,1.38q-.48-6.85-1-14c0-2-.09-3.95-.14-6,0-1,0-2-.07-3s0-2,0-3a235,235,0,0,1,1.6-25.18c.39-3.42.7-6.86,1.32-10.22.28-1.68.55-3.36.82-5l.42-2.48.54-2.45c1.89-9.67,5.69-21.67,8.91-30.7-.53.59,1.23-4.6,2.86-9.44,1.84-4.75,3.54-9.14,2.33-7.11,1.23-3,3.07-6.55,4.52-9.5l1.82-3.75c.49-1,.82-1.58.84-1.71a28.44,28.44,0,0,1,2.23-5.54c.4-.82.85-1.73,1.35-2.77s1.19-2.14,1.9-3.4l2.45-4.19,1.43-2.42,1.7-2.57,3.16-4.56c.56-.8,1.12-1.62,1.7-2.4l1.77-2.26c2.3-2.93,4.26-5.43,4.94-6.4,2.18-3-5.6,6.69-3.44,3.64-15.53,19.71-27.09,41.8-35.42,65a248,248,0,0,0-9.57,35.74l-.83,4.58c-.28,1.53-.56,3.06-.74,4.6L280,247.1q-.39,4.67-.8,9.35c-.16,1.56-.22,3.13-.27,4.71l-.18,4.72c0,1-.05,2.37-.09,4s.06,3.65.1,5.9,0,4.77.24,7.52c.08,1.38.18,2.81.27,4.3l.06.84v.09l0,.19-4.41-1.21c-2.72-.68-5.56-1.32-8.5-1.85a127,127,0,0,0-18.71-2,125.66,125.66,0,0,0-19.86,1c-1.66.26-3.33.46-5,.78l-2.48.45c-.82.17-1.58.32-2.31.43a6.73,6.73,0,0,1-3.67-.24,5.53,5.53,0,0,1-2.59-2.26c-1.42-2.19-2.08-5.21-2.49-8.15-.38-3.11-.76-6.18-1.12-9.16-.8-6-1.61-11.71-2.48-16.93-.21-1.31-.42-2.59-.62-3.84s-.44-2.45-.66-3.63c-.43-2.36-.8-4.6-1.21-6.67-.84-4.13-1.49-7.67-2.11-10.43-.2-.87-.39-1.74-.59-2.62-1.68-7.88-3.87-16.54-6.16-24.85-1.18-4.14-2.33-8.22-3.56-12-.6-1.92-1.16-3.78-1.75-5.56L187.33,175c-1-3-2.12-5.92-3.22-8.88s-2.27-5.92-3.43-8.87c.91,2.8,1.8,5.38,2.46,7.65-2.13-6.07-4.37-12.11-5.38-14.37-2.58-6.35-3.31-7.66-3.11-6.78s1.23,4,2,6.49c1.2,3.59-.89-1.08,1.09,4.5-1.55-4-2.32-6-3.87-10-.29-.41,4.86,12.25,3.54,9.57-1.45-3.85-3.14-8.13-4.79-12.07.42,1.42,5.34,13.79,4.88,13.27-.86-2.14-4-11.31-4.64-12-.06-.06.32.9.81,2.12s1,2.72,1.43,3.71c-4.92-12.19-8-18.72-3.71-7.54-1.53-3.87-3.79-9.3-5.58-13.33v0c.86,2,2.34,5.52,3.12,7.38-1-2.29-2-4.59-3-6.88l.42,1.25c.72,1.72,1.44,3.45,2.2,5.24-.66-1.52-1.31-3-2-4.57.41,1.18.9,2.52,1.45,4,1.12,2.73,2.07,5.46,3,7.85l2.23,6A510.85,510.85,0,0,1,195.64,222.79Z"/><path class="cls-3" d="M183.41,199.65c-.21,0,0,1.52-.71-.75-2.08-7.15-3.09-13.12-5.66-20.21l-.49-.4c-1.72-5.56-3.75-11.31-6.15-17.07-.71-1.58-1.41-3.15-2.2-4.68s-1.5-3.1-2.36-4.61-1.56-3-2.37-4.32L161,143.52q-2.43-4.1-4.87-8.17l-5.85,12-1.47,2.93-1.2,2.28c-.51.93-1,1.87-1.54,2.77.25-.17.41-.23-.09.7a45.42,45.42,0,0,1-10.1,12.34l-1,.83c-.32.26-.65.48-1,.72a2.25,2.25,0,0,0-.6.72,24.54,24.54,0,0,1-6.27,2.76,26.33,26.33,0,0,1-5,1,21,21,0,0,1-5-.21,16.92,16.92,0,0,1-4.5-1.57,16,16,0,0,1-1.94-1.35,11.25,11.25,0,0,1-1.74-1.65,26.28,26.28,0,0,1-4.88-9.55,54.91,54.91,0,0,1-2.25-11.48,64.7,64.7,0,0,1,14.87-46,55,55,0,0,1,16.37-14,43.67,43.67,0,0,1,16.16-5.14,42.52,42.52,0,0,1,8.66,0,34,34,0,0,1,7.75,1.83c-.13-.21.11-.26.63-.19a9.58,9.58,0,0,1,2.29.62,20.82,20.82,0,0,1,6.53,3.85,26.89,26.89,0,0,1,4.75,5.34c1,1.4,1.47,1.94,1.17.61a29.13,29.13,0,0,1,2.47,11.62c0,3.71-.47,6.55-.36,6.85.27.91.59,2.88-.39,7s-3.55,10.37-10,17.82a86.26,86.26,0,0,1-9.27,8.76c-3.16,2.64-5.88,4.76-6.81,5.66-1.46,1.39.47,0,2.42-1.34s3.9-2.8,2.42-1.35a104.72,104.72,0,0,0,15.21-14.77,55.74,55.74,0,0,0,6.08-9.27,43.09,43.09,0,0,0,3.82-10.68,40,40,0,0,0,.8-11.49,31.6,31.6,0,0,0-3.24-11.49,27.78,27.78,0,0,0-7.77-9.35A31.61,31.61,0,0,0,165.79,78a41.21,41.21,0,0,0-11.27-1.62,47.86,47.86,0,0,0-11.08,1.19,53.45,53.45,0,0,0-5.36,1.52c-.9.27-1.71.65-2.58,1s-1.69.7-2.51,1.08a61.77,61.77,0,0,0-9.5,5.41,69.3,69.3,0,0,0-15.55,15.12A70.51,70.51,0,0,0,93.8,138.84a65.39,65.39,0,0,0,.36,14.52,64.64,64.64,0,0,0,1.66,8.14,44.06,44.06,0,0,0,3.26,8.55,24.78,24.78,0,0,0,6.53,8.14,22.62,22.62,0,0,0,10,4.58,29,29,0,0,0,10.84-.08,32.85,32.85,0,0,0,10.09-3.7,34,34,0,0,0,4.49-3c.69-.55,1.36-1.11,2-1.71s1.27-1.19,1.88-1.81a55.92,55.92,0,0,0,6.4-7.92c.92-1.38,1.8-2.77,2.62-4.17.42-.7.83-1.39,1.21-2.1l.59-1,.44-.83c.19-.39.38-.76.57-1.13a8.27,8.27,0,0,1,.6,1c.19.35.38.7.56,1,.33.61.62,1.25.93,1.86.6,1.24,1.22,2.46,1.79,3.68,2.25,4.9,4.16,9.64,5.77,14.07,3.22,8.87,5.3,16.45,6.66,21.57.24.93.49,1.86.74,2.78,2.16,8.38,4.28,17.77,6.32,26.9,1,4.57,2,9,2.91,13.2s1.63,8.16,2.2,11.73a124,124,0,0,1,2.1,19.88c.15-1.54.3-3,.33-4.46s.18-2.77.16-4c.11,1.71.08,3.42.13,5.06s-.08,3.21-.09,4.65-.19,2.73-.24,3.83c0,.56-.06,1.06-.08,1.51s-.08.83-.11,1.16c-.34,3.59-.8,5.73-.92,6.91s0,1.37.23,1a41.32,41.32,0,0,0,2.42-6.9c.48-2,.64-1.62.85-1.53s.47-.08.92-3.31c-.11,1.16-.2,2.19-.29,3.14s-.28,1.81-.42,2.69-.22,1.75-.46,2.68l-.72,3.09c.05.16.27-.66.56-1.91.14-.63.34-1.36.46-2.15s.24-1.62.36-2.44.26-1.6.33-2.31.13-1.33.18-1.8c.12-.93.21-1.26.28-.43-.16,1.13-.19,2.3-.4,3.47s-.35,2.38-.52,3.59-.49,2.39-.74,3.58a28.44,28.44,0,0,1-1,3.49c.5-.7,1.67-4.68,2.28-8.46.15-.94.31-1.86.45-2.71s.18-1.64.26-2.29c.16-1.3.29-2.08.38-1.89,0,.64-.15,1.79-.31,3.17s-.53,3-.79,4.51c-.12.78-.31,1.53-.49,2.23s-.32,1.37-.45,1.94-.23,1.08-.28,1.47a2.13,2.13,0,0,0-.08.79c0,.05.11-.2.26-.64s.28-1.08.46-1.8a42.33,42.33,0,0,0,.91-4.37,80.51,80.51,0,0,1-3.91,14.86c-.78,2.09.29,1.11,2.9-5.31-.19.57-.37,1.17-.6,1.79l-.8,1.87a33.7,33.7,0,0,1-1.86,3.9l-1.07,1.94-.52.95c-.19.32-.4.61-.6.91l-2.26,3.41,0,0,2.67-3.89c.89-1.46,1.67-3,2.23-4-.68,1.28-1.37,2.56-2.06,3.83L183,307.29c.32-.34.67-.73,1-1.14.62-.89,1.29-1.76,1.86-2.7s1.07-1.95,1.61-2.95a43,43,0,0,1-2.92,5c.47-.57,1-1.16,1.5-1.83l1.45-2.21c.43-.76.93-1.49,1.31-2.25l1.1-2.29c.35-.75.75-1.48,1-2.23l.84-2.17c.26-.71.52-1.39.76-2.05s.38-1.31.56-1.91c.33-1.22.62-2.31.82-3.23a92.39,92.39,0,0,0,1.29-22.27,177.48,177.48,0,0,0-2.65-21.66c-1.27-7.11-2.8-14-4.28-21S185.19,206.57,183.41,199.65Z"/><path class="cls-3" d="M206.44,421.81c.13-.17-1.54-1,1.21-.09l3.14,1.1,3.05.95c2,.68,4,1.18,5.94,1.71s4,.92,6,1.36,4.21.62,6.46.88l.68-.27a107.21,107.21,0,0,0,21.7.36,102.36,102.36,0,0,0,38.92-12.22c-.37.07-.57.05.6-.65A92.28,92.28,0,0,0,311.66,402c.87-.86,1.67-1.78,2.49-2.65a3.21,3.21,0,0,0,.72-1.13c1.25-1.37,2.34-2.74,3.43-4s2-2.64,2.88-3.87a73,73,0,0,0,6.88-13.53c.51-1.16.83-2.39,1.25-3.58s.8-2.4,1.08-3.64.64-2.46.92-3.69l.67-3.75c.26-1.25.32-2.53.48-3.79s.29-2.53.3-3.81.09-2.55.11-3.83l-.16-3.84a63.68,63.68,0,0,0-2.85-15.21,58.51,58.51,0,0,0-6.89-14.1c-3-4.35-6.4-8-9-12a35.68,35.68,0,0,1-5.26-13.15,139.28,139.28,0,0,1-1.93-15.14c-1-8.78-1.91-17.56-2.26-26a180.54,180.54,0,0,1,.38-20.49c.31-3.52.67-7,1.2-10.39.24-1.68.6-3.31.88-4.91.15-.8.29-1.59.44-2.36s.35-1.53.52-2.27c-.39.4-.29-1.12,0-3.56.13-1.22.48-2.63.78-4.16s.63-3.17,1.08-4.73l1.17-4.52c.37-1.4.76-2.61,1-3.56.49-1.9.53-2.71-.29-1.41.72-1.94,1.68-4.06,2.63-6.2s2-4.24,2.9-6.14,1.78-3.56,2.41-4.79a12.6,12.6,0,0,0,1-2.23c0-1.1.65-3.13,2.62-7.35A116.54,116.54,0,0,1,335.66,143c1.38-1.69,2.92-3.63,4.65-5.48l2.56-2.82c.86-.93,1.75-1.8,2.59-2.67l2.42-2.46,2.17-2.09c1.32-1.26,2.32-2.26,2.84-2.83,1.62-1.74-.51,0-2.67,1.89-1.07.93-2.15,1.86-2.75,2.33s-.72.49.08-.42a184.22,184.22,0,0,0-29.62,38.3,153.69,153.69,0,0,0-17.25,45.07c-3.24,16-3.34,32.15-2.49,48,.42,8,1.05,15.78,1.69,23.73a93.52,93.52,0,0,0,1.75,12.43,47.85,47.85,0,0,0,1.89,6.39,39.72,39.72,0,0,0,2.94,6.18c.81,1.31,2,3,3.4,4.92s3.18,4.05,4.92,6.38c.43.58.86,1.18,1.29,1.79s.78,1.27,1.19,1.93l1.25,2c.35.74.72,1.49,1.09,2.26a42.07,42.07,0,0,1,2,4.94,25.13,25.13,0,0,1,.82,2.71c.24.94.58,1.85.74,2.84a60.1,60.1,0,0,1,1.29,12.6,67.77,67.77,0,0,1-1.73,13.81,64.2,64.2,0,0,1-5.06,13.85,65,65,0,0,1-3.77,6.56l-2.22,3.1c-.77,1-1.63,2-2.45,3a75.1,75.1,0,0,1-24.7,18.52,94.91,94.91,0,0,1-14.16,5.35,100.38,100.38,0,0,1-27.34,3.78,101.53,101.53,0,0,1-11.78-.78,92.92,92.92,0,0,1-17.42-3.91l-3.06-1.08a75.71,75.71,0,0,1-26-16c-.94-.87-1.77-1.85-2.65-2.75-.43-.47-.89-.91-1.29-1.39l-1.19-1.46a50.69,50.69,0,0,1-4.28-5.85,59.56,59.56,0,0,1-5.69-12,62.19,62.19,0,0,1-3.66-22.38,64.75,64.75,0,0,0-.41,9.78,64.56,64.56,0,0,1,0-11.2c.29-3.32.76-6,1-7.49.79-4.12,1.66-6.53,2-7.87s.35-1.54,0-1.1a19.25,19.25,0,0,0-1.67,3c-.32.72-.66,1.51-1,2.31l-.93,2.42c-.68,2.3-.8,1.85-1,1.72s-.53.06-1.28,3.83a58.32,58.32,0,0,1,1.36-6.77,53.31,53.31,0,0,1,2.15-6.58c0-.36-1.6,3.63-2.46,7.4s-1.25,7.22-1.28,5.27a60.18,60.18,0,0,1,4.82-16.16,19.76,19.76,0,0,0-1.75,3.41,52.36,52.36,0,0,0-2.08,6.14c-1.21,4.34-1.67,8.47-1.84,8a48.1,48.1,0,0,1,2-8.94c1.07-3.55,2.51-6.69,2.48-7.3a16.36,16.36,0,0,0-1.23,2.72,49.81,49.81,0,0,0-1.64,5,57,57,0,0,1,3.88-10.61c.71-1.39,1.31-2.62,1.9-3.6l.76-1.35.61-1c.66-1.13.71-1.42,0-.62A34.2,34.2,0,0,0,166,328a48.24,48.24,0,0,1,5.32-8.12,53.74,53.74,0,0,1,7-7.12l0,0-2,1.68c-.7.65-1.42,1.36-2.15,2.06s-1.37,1.47-2,2.16l-1.55,1.91a46.7,46.7,0,0,1,7-7.43l-1.5,1a41.48,41.48,0,0,0-5.37,5.68c.7-.89,1.42-1.79,2.2-2.62s1.57-1.67,2.39-2.47a37.28,37.28,0,0,0-4.34,4,52.88,52.88,0,0,0-6.72,9.57,45.19,45.19,0,0,0-3.51,8.14,66.1,66.1,0,0,0-2.46,26.5,67.94,67.94,0,0,0,7.89,25.47,69.38,69.38,0,0,0,17.31,20.28A83.36,83.36,0,0,0,206.44,421.81Z"/></g></svg>