<svg xmlns="http://www.w3.org/2000/svg" viewBox="0 0 500 500"><defs><style>.cls-1{fill:#f9cdde;}.cls-2{fill:#b8e1f0;}.cls-3{fill:#1d1d1d;}.cls-4{fill:#fff;}</style></defs><g id="OUTLINE_ikons" data-name="OUTLINE ikons"><path class="cls-1" d="M158,356.89c4.88-12.81,7-23.65,8.79-37.25,1.7-13.11,4-18.79,3.09-32-1.25-18.94-16.74-29.59-24.82-52.23-9.71-27.23-6.45-61.72,3.44-88.89,10.26-28.17,44-59.92,72.65-68.88s60.21-6,88.07,5.08c38.87,15.46,71.5,47.46,84.86,87.1,4.43,13.15,6.7,27.86,1.51,40.73-1.32,3.25-3.12,6.46-3.16,10s1.72,6.86,3.53,9.92a181.49,181.49,0,0,0,23.3,31.26c3.15,3.41,5.18,7.38,4.55,10.42a9.15,9.15,0,0,1-4,6.08c-6.91,4.76-15.84,5.6-23.68,7.64-2,5,.81,10.49,2.4,15.65s.92,12.36-4.27,13.84c3.53.87,3,6.33.57,9s-6.09,4.68-6.91,8.22,1.4,6.71,2.71,10a21.25,21.25,0,0,1-5.45,23.26c-7.35,6.51-18.25,7-28,5.57s-19.38-4.39-29.16-3.49c-16.09,1.46-29.71,13.4-37.55,27.52s-10.37,23.83-11.24,28.41l-152.62-1.05C146.25,387.07,144.6,392.16,158,356.89Z"/><path class="cls-2" d="M345.5,356.89c-4.89-12.81-7-23.65-8.8-37.25-1.7-13.11-3.95-18.79-3.08-32,1.25-18.94,16.73-29.59,24.81-52.23,9.72-27.23,6.45-61.72-3.44-88.89-10.26-28.17-44-59.92-72.65-68.88s-60.21-6-88.07,5.08c-38.87,15.46-71.49,47.46-84.86,87.1-4.43,13.15-6.7,27.86-1.5,40.73,1.31,3.25,3.11,6.46,3.16,10s-1.73,6.86-3.53,9.92a182,182,0,0,1-23.3,31.26c-3.16,3.41-5.19,7.38-4.56,10.42a9.16,9.16,0,0,0,4,6.08c6.9,4.76,15.84,5.6,23.67,7.64,2,5-.8,10.49-2.39,15.65s-.92,12.36,4.27,13.84c-3.53.87-3,6.33-.58,9s6.1,4.68,6.92,8.22-1.4,6.71-2.72,10a21.27,21.27,0,0,0,5.46,23.26c7.35,6.51,18.25,7,28,5.57s19.38-4.39,29.16-3.49c16.08,1.46,29.71,13.4,37.54,27.52s10.37,23.83,11.25,28.41l152.62-1.05C357.29,387.07,358.94,392.16,345.5,356.89Z"/><path class="cls-3" d="M97.25,279.12c-.13.17,2.94,1.06-1.93.08A40.36,40.36,0,0,1,85.44,276a10.84,10.84,0,0,1-1-.55,10.43,10.43,0,0,1-1-.59l-.46-.31-.23-.15-.16-.12a5.6,5.6,0,0,1-.56-.49,4.42,4.42,0,0,1-1.17-2.39l0-.21v-.05s0-.07,0-.12a3.55,3.55,0,0,1,.06-.43,6.34,6.34,0,0,1,.49-1.39,15.18,15.18,0,0,1,2.29-3.38c.25-.3.48-.53.79-.87l1-1.06c.65-.71,1.3-1.44,2-2.17q1.95-2.2,3.89-4.6c.16-.36.33-.74.49-1.12a188.3,188.3,0,0,0,11.66-15.5c1.85-2.74,3.61-5.5,5.36-8.42a32.69,32.69,0,0,0,2.55-5.13,17.75,17.75,0,0,0,1.25-6.68,19.63,19.63,0,0,0-1.21-6c-.62-1.72-1.3-3.19-1.87-4.51-.29-.66-.53-1.26-.75-1.88s-.48-1.22-.65-1.86-.39-1.26-.54-1.91l-.44-1.94a50,50,0,0,1-.13-16.34,84.32,84.32,0,0,1,4.31-16.52l1.49-4.07c.47-1.37,1.13-2.66,1.69-4l1.74-4,2-3.87c-.38.48-.61.69.41-1.38.27-.54.53-1.1.84-1.65l1-1.67,2.07-3.53c.69-1.24,1.56-2.42,2.38-3.68l2.58-3.82,2.91-3.83,1.49-2,1.61-1.92,3.29-3.88,3.55-3.78c.7-.74,1.36-1.53,2.1-2.24s1.45-1.43,2.18-2.13a9.89,9.89,0,0,0,1.44-1.75c1.11-1.11,2.28-2.09,3.41-3.06l3.31-2.84c2.21-1.77,4.37-3.39,6.42-5A154.37,154.37,0,0,1,181,91.72c3.8-2,7.76-3.71,11.72-5.41s8.07-3.09,12.23-4.32a133.13,133.13,0,0,1,51.84-5.5,116.76,116.76,0,0,1,13.1,2.12A91.58,91.58,0,0,1,282.6,82.3a106.66,106.66,0,0,1,23.59,13.08A146.6,146.6,0,0,1,327,113.62a122.52,122.52,0,0,1,17,22.41c.55.84,1,1.73,1.46,2.61l1.39,2.65a28.57,28.57,0,0,1,1.25,2.7l1.19,2.73c.74,1.85,1.39,3.77,2.08,5.66s1.25,3.82,1.82,5.74a150.46,150.46,0,0,1,4.91,23.25,129.71,129.71,0,0,1-.58,37.64,93.75,93.75,0,0,1-5.19,18.5,89,89,0,0,1-8.46,15.71c.7-.57-.58,1.92-3,5.79s-5.89,9.14-8.37,14.68a18.69,18.69,0,0,0-.87,2.08c-.26.7-.54,1.38-.78,2.07s-.39,1.38-.58,2.05c-.09.33-.19.67-.28,1s-.12.67-.18,1a24.75,24.75,0,0,0-.52,3.66c-.07,1.14-.17,2.15-.13,3.05.05,3.59.29,5,.67,2.24a62.1,62.1,0,0,0,.57,12.1c.62,4.19,1.44,8.47,1.95,12.33,1,7.7,2,13.57,2.26,14.12.81,1.64,1.79,5.34,4.14,13.24.59,2,1.31,4.2,2.18,6.69.43,1.24.92,2.55,1.45,3.93s1.13,2.8,1.8,4.39c2.64,6.28,5.69,14,9.66,23.11,1.55,3.56,3.37,7.48,5.42,11.48s4.27,8.11,6.34,11.94c4.16,7.67,7.71,14.24,9.13,16.64,4.5,7.54-9.25-18.29-4.76-10.75-3.5-6.44-7.09-12.85-10.32-19.19-1.61-3.17-3.1-6.35-4.5-9.61s-2.72-6.6-4-9.95l-3.9-10.14-1.93-5.08-.92-2.47c-.3-.8-.57-1.62-.84-2.44a137.34,137.34,0,0,1-4.85-20.34c-.59-3.48-1.11-7-1.59-10.55l-.71-5.37c-.25-1.84-.53-3.68-.82-5.5-.59-3.64-1.26-7.11-1.55-10.34a67,67,0,0,1-.06-10c0-.42,0-.9.09-1.26l.14-1.13a15.45,15.45,0,0,1,.33-2.25c.18-.74.32-1.49.51-2.23l.72-2.21a52,52,0,0,1,4.34-8.71c3.58-5.78,8-11.63,11.92-18.07.94-1.65,1.95-3.24,2.81-5l1.33-2.54,1.21-2.63c.85-1.72,1.47-3.57,2.19-5.36s1.19-3.63,1.79-5.45a111.73,111.73,0,0,0,4-22.31,157.9,157.9,0,0,0-9.69-66.35,94.37,94.37,0,0,0-11.05-20.25,149,149,0,0,0-14.56-17.52A156.85,156.85,0,0,0,313,90.67L309.34,88l-4.94-3.28c-1.82-1.21-3.94-2.37-6.16-3.71-1.12-.66-2.35-1.23-3.59-1.89s-2.5-1.36-3.9-1.93l-4.26-1.86c-1.48-.6-3.07-1.11-4.66-1.69s-3.24-1-4.92-1.49c-.84-.23-1.68-.49-2.54-.7l-2.63-.61a124.91,124.91,0,0,0-23.26-3,139,139,0,0,0-26.27,1.56,156.83,156.83,0,0,0-27.68,7,161.66,161.66,0,0,0-27.3,12.84,158.24,158.24,0,0,0-25.07,18.5,146.68,146.68,0,0,0-36.61,50.61c-1.1,2.34-1.94,4.78-2.84,7.18s-1.75,4.82-2.45,7.3a83.2,83.2,0,0,0-3,15.06,67.93,67.93,0,0,0-.32,7.68,53.14,53.14,0,0,0,.76,7.66c.19,1.26.52,2.51.8,3.76s.68,2.46,1.15,3.65.89,2.41,1.36,3.45.89,2,1.23,2.92a14.8,14.8,0,0,1,.72,2.42,7.17,7.17,0,0,1,.08,2,13.66,13.66,0,0,1-1.61,4.55c-.87,1.63-2,3.47-3,5.19s-2.17,3.43-3.25,5.08A179.38,179.38,0,0,1,81.61,254c-1.13,1.31-2.25,2.57-3.38,3.79l-.83.91c-.33.36-.66.72-1,1.1a25.43,25.43,0,0,0-1.78,2.35A19.29,19.29,0,0,0,72,267.68a12.76,12.76,0,0,0-.47,3.55c0,.33,0,.64.07,1s.1.71.16,1c.1.48.22,1,.37,1.46a13.58,13.58,0,0,0,3.17,5.44A14.74,14.74,0,0,0,77.52,282c.66.42,1.3.87,2,1.23a38.45,38.45,0,0,0,7.37,3.25c2.21.71,4.39,1.26,6.51,1.74l4.6,1,1.54.34.28.07a.7.7,0,0,1,.11.46v.05h0v.08c0,.22,0,.46-.07.69-.07.48-.16,1-.29,1.52-.5,2.14-1.47,4.55-2.37,7.37-.11.32-.23.76-.34,1.18s-.21.84-.3,1.26a19.66,19.66,0,0,0-.36,2.54,19.45,19.45,0,0,0,.23,5.3,13.85,13.85,0,0,0,2.29,5.61,10.64,10.64,0,0,0,5.74,4.08l.16-8.8a13.47,13.47,0,0,0-1.39.49,9.32,9.32,0,0,0-1.36.8,7.69,7.69,0,0,0-2,2.29,9.24,9.24,0,0,0-1.19,4.7,12,12,0,0,0,.66,3.89,12.55,12.55,0,0,0,1.8,3.48c.22.28.44.55.67.82l.55.58c.36.36.72.71,1.07,1l1.9,1.69a9.44,9.44,0,0,1,2.18,2.43,2.42,2.42,0,0,1,.16,1.81,19.89,19.89,0,0,1-1.42,3.66c-.34.74-.71,1.54-1.06,2.45a24.59,24.59,0,0,0-.9,2.84,24.07,24.07,0,0,0-.74,5.76,25.47,25.47,0,0,0,8.74,19.61,27.57,27.57,0,0,0,8.84,4.93,36.2,36.2,0,0,0,9,1.75,55.64,55.64,0,0,0,11.93-.54c3.88-.57,7.56-1.4,11.19-2.17,7.24-1.55,14.28-2.85,21-1.84-6.22-1.26-12.44-.56-17.86.19a74,74,0,0,1,10.78-1.22,35.69,35.69,0,0,1,5,.2l2.36.31,2.25.48a44.34,44.34,0,0,1,12.57,5.39,58.39,58.39,0,0,1,11.42,9.67c1.73,1.88,2,2.08,1.53,1.19a19.26,19.26,0,0,0-1.39-2c-.65-.87-1.47-1.92-2.44-3a54,54,0,0,0-6.81-6.5c-3.59-2.59-2.87-2.31-2.61-2.43s.12-.21-.69-.76c-.41-.29-1-.68-1.9-1.22l-1.62-.83a18.49,18.49,0,0,0-2.15-1,45.46,45.46,0,0,1,11.11,6.3A57.81,57.81,0,0,1,203,385a48.58,48.58,0,0,0-10.5-9.86c-5.85-4.21-12.12-6.14-8.62-5.16a53.88,53.88,0,0,1,13.06,8.32,60.61,60.61,0,0,1,10.43,11.8,42.55,42.55,0,0,0-4.09-5.76,56.31,56.31,0,0,0-8.56-8.35,49.53,49.53,0,0,0-9.4-5.83c-1.29-.66-2.38-1.06-3.06-1.37s-1-.45-.78-.43A46,46,0,0,1,196.05,377c5.28,4.41,9,9.6,9.88,10.21a6.22,6.22,0,0,0-.85-1.2c-.61-.8-1.49-1.92-2.56-3.11a55.65,55.65,0,0,0-7-6.71,63.68,63.68,0,0,1,13.87,15.46c1.53,2.44,2.74,4.58,3.73,6.38s1.76,3.27,2.32,4.3c1.1,2.09,1.41,2.46.71.64-.34-.91-1-2.36-1.91-4.38s-2.22-4.6-4.13-7.83c.69,1.08,1.36,2.28,2,3.49s1.33,2.46,2,3.77c1.32,2.61,2.63,5.38,3.83,8.23a91.3,91.3,0,0,1,5.48,17.09v-.08a73,73,0,0,0-2.6-9.72c-1.15-3.43-2.49-6.71-3.5-9a91.2,91.2,0,0,1,5.95,17.39c-.13-1-.33-2.08-.56-3.23a88.13,88.13,0,0,0-4.6-13.18A101.61,101.61,0,0,1,222.33,417a84,84,0,0,0-3.07-10c-1.33-3.38-2.78-6.65-4.28-9.76-.75-1.56-1.49-3-2.3-4.54l-1.23-2.22c-.43-.71-.86-1.42-1.29-2.11a59.4,59.4,0,0,0-10.38-12.44A51.7,51.7,0,0,0,183,365.61a44.94,44.94,0,0,0-19.76-2.46c-6.46.54-12.45,2-18.19,2.93a69.54,69.54,0,0,1-8.37,1,41.33,41.33,0,0,1-8-.35,24.07,24.07,0,0,1-7.09-2.2,16,16,0,0,1-5.3-4.27,16.6,16.6,0,0,1-3.19-13,14.87,14.87,0,0,1,.39-1.63c.19-.54.33-1,.59-1.59.5-1.17,1.21-2.54,1.89-4.28a18.81,18.81,0,0,0,.91-2.93,13.21,13.21,0,0,0,.26-3.68,11.5,11.5,0,0,0-1-3.84,13.81,13.81,0,0,0-1.9-3,31.45,31.45,0,0,0-3.78-3.72c-.53-.48-1-.91-1.39-1.3l-.26-.29a1.09,1.09,0,0,1-.09-.11,1.36,1.36,0,0,1-.18-.28,3,3,0,0,1-.38-1.47s0,0,0,0l-.67-.16c-.23-.07-.46-.18-.6-.23s-.36-.21-.42-.23c-.45-.32-.18-.33,0,.45l.52-8.45c-.27-.1-.3-.13-.53-.42a4.25,4.25,0,0,1-.63-1.69,11.75,11.75,0,0,1,.43-5.52c.72-2.31,1.8-4.9,2.59-8q.28-1.19.48-2.49c0-.45.11-.88.14-1.34l0-.9a6.89,6.89,0,0,0,0-1c-.07-.66-.07-1.33-.2-2a16.24,16.24,0,0,0-.42-1.89l-1.21-3.62-3.63-.9-1.82-.44-1.32-.29Z"/><path class="cls-3" d="M404.38,286.64c.1-.13-3.15.49,1.85-.67a53,53,0,0,0,11.41-3.76q.67-.31,1.32-.69c.44-.25.88-.48,1.3-.76a14.57,14.57,0,0,0,2.57-1.91A11.47,11.47,0,0,0,426.1,273l.09-.39.08-.47a8,8,0,0,0,.09-.95,9.72,9.72,0,0,0-.12-1.81,13.22,13.22,0,0,0-.95-3.18A22,22,0,0,0,422,261c-.31-.39-.68-.78-1-1.13l-.93-1-1.87-2.09q-1.87-2.11-3.77-4.38l-.85-.77a179.7,179.7,0,0,1-10.94-15.12c-1.72-2.65-3.39-5.39-5-8.14s-2.74-5.41-2.64-7.91c0-2.31,1.2-4.86,2.44-7.69a45.71,45.71,0,0,0,2.83-9.17,57.47,57.47,0,0,0,.1-18.87,91.54,91.54,0,0,0-4.75-17.89L394,162.53c-.51-1.44-1.21-2.81-1.81-4.22l-1.88-4.19-2.1-4.07c.24.6.32.89-.81-1.26-.3-.56-.58-1.15-.91-1.72s-.68-1.16-1-1.75c-.7-1.2-1.43-2.43-2.19-3.71s-1.63-2.54-2.49-3.86-1.78-2.65-2.69-4l-3-4-1.55-2.07-1.68-2-3.43-4.09c-1.22-1.32-2.46-2.64-3.7-4-.75-.78-1.45-1.59-2.23-2.33l-2.31-2.2a17.62,17.62,0,0,0-1.78-1.53c-1.16-1.17-2.38-2.2-3.56-3.22l-3.43-3c-2.3-1.86-4.53-3.57-6.66-5.25a159.89,159.89,0,0,0-22.91-13.86c-4-2-8.14-3.75-12.29-5.46s-8.45-3.09-12.79-4.31a138.4,138.4,0,0,0-54.05-4.9,122.32,122.32,0,0,0-13.63,2.41A97.42,97.42,0,0,0,215.71,78a110.6,110.6,0,0,0-24.39,14A150.5,150.5,0,0,0,170.17,111,126.68,126.68,0,0,0,153,134.37c-.55.89-1,1.83-1.44,2.76l-1.37,2.79c-.49.91-.83,1.9-1.23,2.85l-1.16,2.89c-.72,1.93-1.32,3.89-2,5.83s-1.17,3.93-1.7,5.9a163.89,163.89,0,0,0-4.53,23.71,137.6,137.6,0,0,0,.59,38.29,96.65,96.65,0,0,0,5.22,19A89.89,89.89,0,0,0,154,254.57c-.35-.82,1.27,1.5,3.95,5.17a113.4,113.4,0,0,1,9.17,14.08,20.83,20.83,0,0,1,1,2c.29.68.6,1.35.88,2l.7,2c.12.33.23.66.34,1s.17.66.25,1a27.7,27.7,0,0,1,.76,3.65c.16,1.13.35,2.16.4,3.06.3,3.59.44,5,.5,2.21a64.91,64.91,0,0,1-.61,12.43c-.64,4.28-1.44,8.49-1.93,12.33-1,7.68-1.86,13.63-1.88,14.22a85,85,0,0,1-2,13.94,105,105,0,0,1-4.67,15.91c-2.36,6.41-5.13,14.22-9,23.63-1.54,3.67-3.46,7.8-5.59,11.9s-4.41,8.21-6.53,12c-4.24,7.63-7.85,14.14-9.14,16.61-4.08,7.75,10.15-17.76,6.07-10,3.53-6.43,7.13-12.79,10.52-19.36,1.68-3.3,3.27-6.66,4.73-10.05s2.83-6.79,4.17-10.19L160.06,364l1.94-5.09c.64-1.68,1.31-3.47,1.88-5.22a145.22,145.22,0,0,0,5.17-21.5c.61-3.61,1.14-7.22,1.62-10.82s.93-7.13,1.51-10.66,1.27-7.11,1.61-10.89a73.54,73.54,0,0,0,.07-11.2,39.13,39.13,0,0,0-2.26-11.32,58.79,58.79,0,0,0-5-10.14c-3.92-6.3-8.26-12-11.93-18A78.87,78.87,0,0,1,146.09,230a104.48,104.48,0,0,1-3.79-20.75,144.94,144.94,0,0,1,3.07-42.41,142.74,142.74,0,0,1,6-20.54,85.81,85.81,0,0,1,10.16-18.64,139.91,139.91,0,0,1,13.76-16.58,149,149,0,0,1,16.24-14.38L195,94.09l4.62-3.15c1.71-1.17,3.68-2.26,5.76-3.54,1-.63,2.18-1.17,3.33-1.79s2.33-1.3,3.61-1.82l3.91-1.74c1.35-.56,2.78-1,4.22-1.56s3-.95,4.55-1.41c.79-.22,1.58-.47,2.39-.68l2.47-.57a116.75,116.75,0,0,1,21.9-2.94,131.35,131.35,0,0,1,24.93,1.39,149,149,0,0,1,26.42,6.63,153.81,153.81,0,0,1,26.12,12.21,151.07,151.07,0,0,1,24,17.65,139.62,139.62,0,0,1,35,48.21c1.05,2.22,1.84,4.54,2.7,6.82s1.67,4.57,2.32,6.88a78.17,78.17,0,0,1,2.79,13.85,58.5,58.5,0,0,1,.29,6.85,45.54,45.54,0,0,1-.66,6.66c-.16,1.1-.45,2.15-.68,3.22s-.57,2.1-1,3.1c-.66,2-1.69,4-2.54,6.24a21.19,21.19,0,0,0-1.05,3.6,14,14,0,0,0-.15,3.94,19.92,19.92,0,0,0,2.33,6.91c1.07,2,2.18,3.81,3.29,5.62s2.24,3.55,3.37,5.27a184.3,184.3,0,0,0,14,18.43q1.75,2,3.49,3.94l.87.94c.25.29.51.57.75.86a19.47,19.47,0,0,1,1.33,1.77,12.24,12.24,0,0,1,1.75,3.59,6,6,0,0,1,.22,1.6,3.32,3.32,0,0,1-.08.69c-.06.3-.14.59-.22.86a6.66,6.66,0,0,1-1.59,2.73,7.32,7.32,0,0,1-1.2,1c-.51.32-1,.66-1.5.94a31.6,31.6,0,0,1-6.07,2.63c-1.92.63-3.89,1.13-5.91,1.6l-5,1.08-2.57.58-.33.08-.51.13-1.17.31a9,9,0,0,0-1.14.34L394,285.2c-.12.39-.27.75-.37,1.16l-.23,1a14.51,14.51,0,0,0-.16,1.59,16.47,16.47,0,0,0,.16,3.08,33.25,33.25,0,0,0,1.45,5.56c.58,1.73,1.23,3.44,1.67,5a15,15,0,0,1,.51,4.66,8.86,8.86,0,0,1-1.1,4.13,4.06,4.06,0,0,1-.61.76l-.18.19a1.13,1.13,0,0,1-.25.14l-.33.16c-.45.22-.86.45-1.33.66l-3.07,1.16-.71.26-.34.13-.21.1-.43.18-.84.35,5.17,1.81,1,.37a1.59,1.59,0,0,1,.36.23l.14.1v0a.67.67,0,0,1,.1.24,3.85,3.85,0,0,1,.1,1.49,5.72,5.72,0,0,1-1.4,3.16c-.94,1-2.2,2-3.48,3.24a13,13,0,0,0-3.49,4.71,8.76,8.76,0,0,0-.6,3.19,11.1,11.1,0,0,0,.44,3,32.54,32.54,0,0,0,1.95,4.8,20.35,20.35,0,0,1,1.47,4.06,19.7,19.7,0,0,1,.48,4.18,19,19,0,0,1-6.45,14.39,21.25,21.25,0,0,1-6.68,3.79,31,31,0,0,1-7.34,1.54,49.48,49.48,0,0,1-10.66-.2c-3.58-.42-7.22-1.12-10.9-1.78s-7.43-1.3-11.26-1.6a44.66,44.66,0,0,0-11.59.45,44,44,0,0,1,10.32-.29,87.06,87.06,0,0,1,9,1.33,74.73,74.73,0,0,0-11.37-1.3,40.06,40.06,0,0,0-5.51.21l-2.63.36-2.49.53a42.85,42.85,0,0,0-13.65,6.13A52.47,52.47,0,0,0,297,384.41c-1.66,2.11-1.8,2.45-1.08,1.66.36-.38.92-1.07,1.71-1.88s1.71-1.82,2.81-2.84a51.8,51.8,0,0,1,7.51-6c3.8-2.42,3.22-1.84,3.13-1.69s.05.07.93-.34c.44-.21,1.08-.53,2-1l1.63-.72c.62-.28,1.33-.59,2.15-.87a44.36,44.36,0,0,0-10.9,6.15,57.1,57.1,0,0,0-9.12,8.68c-.29.54,4.58-5.62,10.43-9.58,5.72-4.15,11.83-6,8.58-4.69a47.65,47.65,0,0,0-12.69,8.07A61.73,61.73,0,0,0,294,390.93c.52-.69,2-2.82,4.23-5.41a56.83,56.83,0,0,1,8.36-8,44.1,44.1,0,0,1,9.07-5.48,24.66,24.66,0,0,1,2.95-1.19c.67-.23,1-.32.8-.23a46.9,46.9,0,0,0-14.05,8,49.2,49.2,0,0,0-9.36,10c0,.08.28-.36.9-1.1s1.46-1.82,2.5-3a54.06,54.06,0,0,1,6.75-6.39,58.58,58.58,0,0,0-13.06,15,109.69,109.69,0,0,0-5.5,10.58c-.92,2.11-1.06,2.54-.19.86.42-.84,1.11-2.2,2.13-4.12s2.37-4.41,4.22-7.33c-.65,1-1.27,2.11-1.94,3.26s-1.31,2.38-2,3.64c-1.31,2.51-2.61,5.18-3.81,7.91a78.6,78.6,0,0,0-5.27,16.18l0-.08a65.76,65.76,0,0,1,2.54-9.1c1.14-3.25,2.47-6.39,3.46-8.55A86.1,86.1,0,0,0,281,422.85c.23-.88.52-1.87.83-2.92a95,95,0,0,1,4.55-12.44,91.65,91.65,0,0,0-4,10.88,95.11,95.11,0,0,1,3.59-9.2c1.37-3.16,2.89-6.23,4.46-9.14a78.73,78.73,0,0,1,4.82-8,61.52,61.52,0,0,1,9.62-10.88,44.84,44.84,0,0,1,14.43-8.79,37.47,37.47,0,0,1,16.61-2c5.72.49,11.49,1.84,17.45,2.9a58.76,58.76,0,0,0,18.58.88,31,31,0,0,0,9.3-2.7,23.24,23.24,0,0,0,7.9-6,24.13,24.13,0,0,0,5.26-18.73,23.05,23.05,0,0,0-1.3-4.87c-.6-1.55-1.3-2.89-1.83-4.15a9.8,9.8,0,0,1-.9-3.39,4.22,4.22,0,0,1,.86-2.68,17.4,17.4,0,0,1,2.71-2.77c.55-.49,1.13-1,1.73-1.56a14.06,14.06,0,0,0,1.83-2,10.7,10.7,0,0,0,1.9-5.51,7.9,7.9,0,0,0-.47-3.24,3.89,3.89,0,0,0-.19-.42c-.05-.12-.19-.38-.13-.27s0,0,0,0l0,0s0,0,0,0h0l.11-.12a9.09,9.09,0,0,0,1.05-1.28,12.66,12.66,0,0,0,2-6,19.16,19.16,0,0,0-.35-5.86,42.59,42.59,0,0,0-1.6-5.18c-1.1-3.17-2.08-6.22-1.71-8.78a3.54,3.54,0,0,1,.07-.47c0-.12,0,0,0-.05v0s0,0,0,0l1.16-.27Z"/><path class="cls-4" d="M326.92,189.66a33.09,33.09,0,0,0-45.66-47.17,35.14,35.14,0,0,0-57-10.8,42.27,42.27,0,1,0-28.34,79.5A33.11,33.11,0,0,0,233,253.24a32.55,32.55,0,0,0,9.12-2.91,15.07,15.07,0,0,0,24.34,7.87,25.53,25.53,0,0,0,45-18.56,33.11,33.11,0,0,0,15.41-50Z"/><path class="cls-4" d="M268.35,340.63a21.24,21.24,0,0,0-.84-5.84,16.41,16.41,0,0,0-6.32-31.55c-.54,0-1.07,0-1.59.08a24.75,24.75,0,1,0-32.21,30.86,21,21,0,1,0,41,6.45Z"/><path class="cls-4" d="M267.13,383.6a15.08,15.08,0,0,0-13.78,21.25,12.79,12.79,0,1,0,20.56,7.33,15.09,15.09,0,0,0-6.78-28.58Z"/></g></svg>