<?xml version="1.0" encoding="utf-8"?>
<!-- Generator: Adobe Illustrator 25.4.1, SVG Export Plug-In . SVG Version: 6.00 Build 0)  -->
<svg version="1.1" id="Lager_1" xmlns="http://www.w3.org/2000/svg" xmlns:xlink="http://www.w3.org/1999/xlink" x="0px" y="0px"
	 viewBox="0 0 500 500" style="enable-background:new 0 0 500 500;" xml:space="preserve">
<style type="text/css">
	.st0{fill:#F9CFB5;}
	.st1{fill:#CC0066;}
	.st2{fill:#FFFFFF;}
	.st3{fill:#1D1D1D;}
</style>
<g id="OUTLINE_ikons">
	<path class="st0" d="M362.2,327.5c-13.6-10.9-27.5-21.7-43.2-29.3c-17.8-8.6-37.5-12.9-57-15.7c-3.2-0.5-6.7-1-9-3.3
		c-1.9-1.9-2.6-4.5-3.4-7.1c-10.6-37.6-13.7-83-34.1-116.3c-2.2-3.5-4.4-7.1-5.3-11.2c-0.8-3.9-0.3-7.9,0.1-11.8
		c0.6-5.7,1-11.5,1.3-17.3c0.5-12.2-25-59.5-99-52.9c-49.4,4.4-49.4,76.1-49.4,76.1c2.8,34.9,20.9,74.4,37.2,105.7
		c19.2,36.9,37.5,64.2,49.4,104c0.7,2.2,1.4,4.6,3,6.3c2.7,2.8,10.8,12.4,20.7,15.8c64.4,21.8,111.1,44.8,178.7,52.8
		c8.6,1,49.5-2.5,78.2,10.5l6.4-51C413.1,362.4,386.8,347.1,362.2,327.5z"/>
	<path class="st1" d="M153.2,95.6c0.7-15,99.8,48.2,94.4,240.2C247.5,335.8,146.1,249.9,153.2,95.6z"/>
	<path class="st1" d="M81.7,140c0.7-14.2,53.2,59.1,93.5,192.9C175.2,332.9,74.2,286,81.7,140z"/>
	<path class="st2" d="M213.8,300.1c-2.6-6.6-8.2-11.4-12.9-16.7C179,259.1,175,223.9,159.7,195c-7-13.3-31-70.8-37.5-84.4H90.5
		c10.9,29.7,21.9,59.5,37.9,86.9c7.6,12.9,16.2,25.2,23.2,38.4c14.2,26.7,21.7,56.5,21.7,86.7c0,2.4,0,5,1.6,6.8
		c1.2,1.3,2.8,2.1,4.6,2.5c9.3,2.6,19.9,0.8,27.2-5.5S217.3,309.1,213.8,300.1z"/>
	<path class="st2" d="M423.7,392.5c-44.6-31.7-93.2-62-147.6-67.5c-16.3-1.7-33.8-1.4-47.6-10.3c-6.5-4.2-5.3-4.9-13.6-7l-42.3,16.1
		c-14.5,10-10.8,27.9-1.4,31.1c8.2,2.8,16.9-1.8,24.8-5.4c39.6-18,86.6-13.5,127.1,2.4s76,42.2,110.9,68.2L423.7,392.5z"/>
	<path class="st2" d="M392.4,393.3L352,383c-84.5-21.5-116.5-44.4-116.5-44.4l-34.4,7.5c22.2,14,42.7,22.5,68,29.6
		c43.7,12.2,91.3,13.8,130.6,36.5L392.4,393.3z"/>
	<path class="st3" d="M97.2,249c0.2,0-0.4-1.7,0.9,0.7c4.3,7.7,7.1,14.2,11.5,21.8l0.6,0.4c3.1,6,6.4,12.2,9.6,18.6
		c3.1,5.8,6.1,11.6,8.9,17.5s5.5,11.8,8,17.7c0-0.4,0-0.5,0.6,0.6c1.1,2.5,2.1,5.5,3.3,8.8c0.6,1.6,1.1,3.4,1.7,5.1l0.9,2.7
		c0.3,1,0.7,2,1.1,3c0.5,1.2,1,2.3,1.6,3.4c0.2,0.4,0.5,0.8,0.8,1.1c1.6,3.1,3.5,6.1,5.7,8.9c1.7,2,3.6,3.9,5.6,5.6s4.2,3.3,6.6,4.6
		c2.4,1.3,4.8,2.4,7.4,3.2l6.9,2.2c9.3,3,18.6,6.1,28,9.2c18.9,6.2,38.2,12.7,58.6,18.9l12.9,3.6l12.7,3.5
		c12.3,3.5,28.1,7.9,40.3,10.6c-0.4-0.4,1.1-0.3,3.6,0l9.2,1.2l4.7,0.6c1.5,0.1,2.7,0.3,3.7,0.3c2,0.1,2.8,0,1.3-0.6l6.6,1.2
		c2.3,0.4,4.6,0.8,6.7,1c2.6,0.4,5.2,0.7,7.8,0.7c1-0.4,3.1-0.6,7.8-0.6c7.7,0.1,15.4,0.8,23,1.9c5,0.8,9.8,2,14.6,3.6l1.7,0.5
		l1.6,0.6c1.1,0.4,2,0.7,2.9,1.1c1.8,0.7,3.1,1.3,3.9,1.5c1.1,0.4,1.1,0.3,0.4-0.1s-2-1-3.4-1.7c-2.7-1.2-5.4-2.3-3-1.6
		c-7.9-2.7-16-4.7-24.2-5.9c-8-1.2-16-2.1-23.8-3c-3.9-0.5-7.8-1-11.6-1.5s-7.7-1.3-11.5-2s-7.7-1.5-11.5-2.2s-7.6-1.6-11.5-2.5
		c-30.5-6.9-60.6-16.4-91.1-26.9c-5.2-1.6-17.9-6-34.6-11.7c-8.3-2.9-17.7-6.1-27.6-9.4l-3.6-1.2c-1.1-0.4-2.1-0.8-3.2-1.4
		c-2.1-1.1-4.1-2.4-5.9-3.9c-3.8-3.2-7.1-7-9.5-11.4c-1.2-2.2-2.3-4.5-3.1-6.9c-0.9-2.7-1.8-5.3-2.7-8c-1.9-5.3-4-10.6-6.1-15.7
		c-4.4-10.2-9.1-19.9-13.7-28.6s-9-16.7-12.7-23.5s-6.8-12.5-9-16.7c-0.5-1-1.1-2-1.6-3c-4.8-9.2-10-19.4-14.5-29.4
		s-8.5-19.8-11.5-28c-1.4-3.7-2.7-7.5-4-11.3l-1.7-5.8c-0.6-1.9-1-3.9-1.6-5.8c0.3,1.8,0.6,3.6,0.9,5.3s0.7,3.3,0.9,4.8
		c-2.2-7.9-3.6-16-4.3-19.1c-0.8-4.3-1.2-6.9-1.5-8.3s-0.4-1.6-0.5-1c-0.2,1.2,0,5.3,0.1,8.8c0.5,4.9-1.2-1.6-0.2,6.1
		c-0.5-2.7-0.9-4.8-1.2-6.9s-0.5-4.1-0.9-6.9c-0.2-0.3,0.4,3.9,0.9,7.8s1.3,7.2,0.7,5.4c-0.4-2.6-1-5.4-1.3-8.3
		c-0.2-1.4-0.4-2.9-0.6-4.3s-0.3-2.8-0.4-4.2c-0.1,1.3,0,2.6,0.1,3.8c0.2,1.9,0.5,4.2,0.8,6.4c0.7,4.4,1.4,8.5,1.1,8.1
		c-0.2-0.7-0.4-2.1-0.6-3.7s-0.6-3.5-0.7-5.3s-0.4-3.6-0.6-5c-0.1-0.9-0.2-1.8-0.5-2.6c0,1,0,2,0.2,3c0.2,1.7,0.5,3.8,0.7,5.2
		c-0.3-2.1-0.6-4.1-0.9-6s-0.4-3.6-0.6-5.1c-0.4-3.1-0.5-5.4-0.7-6.7s-0.3-1.5-0.4-0.5c-0.2,2.5-0.2,4.9,0,7.4
		c-0.1-1.4-0.3-2.9-0.3-4.5s-0.1-3.3-0.1-5s0-3.4,0.1-5s0.1-3.2,0.1-4.7l0,0c0,1.5-0.1,3.4-0.2,5.4c0,1-0.1,1.9-0.1,2.8
		s0,1.7,0.1,2.4l-0.1-2.3c0-0.8,0-1.7,0-2.5l0.1-5c-0.1,0.5-0.2,1.1-0.3,1.7c0,1.2-0.1,2.5-0.2,3.7c0,0.6,0,1.3,0,1.9s0,1.3,0,1.9
		c-0.1-2.2,0-4.4,0-6.6c-0.2,1.6-0.5,3.6-0.5,5.6s-0.1,3.9-0.1,5.8s0.1,3.7,0.1,5.4c0.1,2.8,0.3,5.7,0.6,8.5
		c1.1,8.5,2.8,17,5.1,25.3c2.2,8.3,4.9,16.4,8,24.4C82.1,218.5,89.2,234,97.2,249z"/>
	<path class="st3" d="M224.5,188.6c0.2,0,0-1.3,0.7,0.6c1,3.1,1.7,5.9,2.4,8.8s1.3,5.7,2.1,8.9l0.4,0.4c1.1,4.9,2,10.1,3,15.4
		c2.1,9.7,4.1,19.5,6.4,29.2c0.1-0.3,0.1-0.4,0.4,0.5c0.5,2,1,4.4,1.6,7.1s1.3,5.5,2.1,8.4c0.2,0.9,0.5,1.7,0.7,2.5
		c0.1,0.3,0.3,0.6,0.5,0.9c0.3,1.4,0.8,2.7,1.2,4c0.5,1.5,1.3,2.9,2.3,4.2c0.9,1.1,2,2,3.1,2.7s2.2,1.2,3.4,1.5c2,0.6,4,0.9,6.1,1.1
		c3.6,0.4,7.2,0.9,10.8,1.5c7.2,1.1,14.3,2.5,21.5,4.3c3.6,0.9,7.1,2,10.7,3.1s7,2.5,10.5,4c7.1,3.1,13.9,6.7,20.4,10.8
		c5.7,3.4,11.3,7.2,16.5,11.1c7.7,5.8,17.1,13.7,24.4,19.6c-0.4-1.8,17.7,12.3,14.9,8.5c4.8,4,12,10.1,12.6,10.1
		c1.7,0.2,6.2,2.4,19.3,12.8c5,4.1,12.4,11,14.2,12.4c3,2.1-5.9-6.1-3-3.9c-18.2-16-36.5-31.3-55.1-46.3l-14-11.2
		c-4.7-3.7-9.4-7.4-14.3-11.1c-9.8-7.2-20.1-14.2-31.7-19.5c-8.7-3.8-17.7-6.8-26.9-9.1c-6.6-1.7-14-3.2-21.9-4.5
		c-2-0.3-4-0.6-6-0.9l-3-0.4c-0.9-0.1-1.8-0.3-2.5-0.5s-1.3-0.4-1.9-0.7c-0.4-0.2-0.8-0.5-1.1-0.9c-0.8-1.2-1.4-2.6-1.8-4
		c-4.5-15.9-7.7-32.7-10.8-47.3c-1.5-7.3-3-14-4.4-19.7c-0.7-2.9-1.4-5.5-2-7.9s-1.2-4.4-1.7-6.2c-0.3-0.9-0.5-1.7-0.8-2.6
		c-2.5-8.2-5.6-16.1-9.3-23.8c-0.5-1-1-1.9-1.4-2.9l-0.7-1.4l-0.8-1.4c-1.1-1.8-2.1-3.6-3.2-5.4c-1.9-2.6-3.4-5.5-4.6-8.6
		c-0.8-2.5-1.1-5.1-0.9-7.7c0.1-2.9,0.4-6.1,0.4-9.2c-0.4,2.9-0.9,5.6-1.4,7.8c0.7-5,1-10,1.1-15c0.1-6.8-0.2-8.2-0.5-7.3
		s-0.8,4-1.3,6.6c-0.6,3.7-0.8-1.3-1.5,4.4c0.3-4.2,0.4-6.2,0.6-10.4c-0.2-0.2-0.2,3-0.4,5.9s-0.4,5.5-0.5,4c0.4-4,0.4-8.5,0.5-12.6
		c-0.2,0.7-0.4,4.3-0.6,7.6s-0.5,6.4-0.7,6.1c0.1-1.1,0.4-4,0.6-6.8s0.3-5.3,0.1-5.7c-0.1-0.2-0.2,4-0.4,6.1
		c0.2-4.4,0.2-8.8-0.1-13.2c-0.2-1.9-0.5-0.7-0.9,5.1c0.1-4,0.3-9.7,0.1-14l0,0c0.1,2.1,0,5.8,0,7.8c0-2.4,0-4.8-0.1-7.3
		c-0.1,0.4-0.1,0.8-0.2,1.3c0,1.8,0,3.6,0,5.5c0-1.6,0-3.2-0.1-4.8c-0.1,1.2-0.3,2.6-0.4,4.1c-0.3,5.7-1,11.1-1.1,14.2
		s-0.4,6.2-0.7,9.3l-0.5,4.6l-0.5,4.8c-0.2,1.8-0.3,3.5-0.3,5.3c0,2,0.3,3.9,0.8,5.8c1,3.5,2.6,6.8,4.5,9.9c0.9,1.4,1.6,2.7,2.3,4
		s1.5,2.6,2.2,4l2,4.1l1,2.1l0.9,2.1l1.8,4.2c0.6,1.4,1.1,2.9,1.6,4.3C222.6,182.8,223.5,185.7,224.5,188.6z"/>
	<path class="st3" d="M141.9,222.1c0.1,0-0.7-1.5,0.7,0.7c4,6.5,7.8,13.3,11.1,20.2l0.4,0.5c2.8,5.9,5.3,12,7.4,18.3
		c4.2,11.7,7.1,23.7,8.9,36c0-0.3,0.1-0.5,0.2,0.7c0.9,6.5,1.4,13,1.5,19.5c0,1.1,0.1,2.2,0.1,3.2c0,0.4,0.1,0.8,0.1,1.2
		c-0.1,1.8,0.1,3.6,0.5,5.3c0.3,1,0.7,1.9,1.3,2.7c0.6,0.8,1.3,1.5,2.1,2c1.2,0.7,2.4,1.2,3.8,1.5l1.8,0.4l1.8,0.3
		c2.4,0.4,4.9,0.5,7.3,0.3c4.9-0.3,9.7-1.7,14-4.2c8.9-5.2,14-15.1,13-25.4c-0.3-2.5-1-5-2.1-7.3c-1.1-2.2-2.5-4.4-4.1-6.3
		c-3.1-3.9-6.8-7-9.8-10.7c-6.3-7.5-11.5-15.8-15.5-24.7c-3.6-7.6-6.6-15.6-9.4-23.3c-4.1-11.4-9-26.2-14.6-36.8
		c0.2,0.9-3.1-5-5.9-10.6s-5.3-10.8-4.4-8c-3.2-7.2-7.9-18.1-8.3-18.6c-1.2-1.5-4.1-6.8-12.7-26c-3.3-7.5-8.2-19.1-9.5-21.6
		c-1.1-2,0,0.4,1,2.8s2,4.9,1,2.9c6.1,13.9,12,27.8,18,41.6c3,6.9,6,13.8,9.1,20.6c1.5,3.4,3.1,6.9,4.7,10.3s3.4,6.9,5,10.1
		c6.5,13.2,10.9,27.5,16.1,41.8c2.6,7.2,5.5,14.3,8.9,21.2c3.4,7.1,7.6,13.7,12.6,19.8c0.9,1,2,2.5,3.6,4.1s3.4,3.5,5.3,5.6
		c2.1,2.2,3.9,4.8,5.3,7.5c1.5,3.2,2.1,6.7,1.7,10.2c-0.9,8.5-6.5,15.8-14.5,18.9c-4.4,1.7-9.2,2.3-13.9,1.7
		c-0.6-0.1-1.2-0.1-1.8-0.3c-0.6-0.1-1.2-0.2-1.8-0.4c-1.1-0.2-2.1-0.6-3.1-1.1c-0.7-0.4-1.3-1-1.6-1.8c-0.3-1-0.5-2.1-0.5-3.1
		l-0.1-4c0-1.4,0-2.7-0.1-4l-0.2-4c-0.1-1.3-0.2-2.7-0.3-4c-0.2-2.7-0.5-5.3-0.8-8s-0.7-5.3-1.2-7.9c-0.8-5.2-2-10.2-3.2-15.1
		c-0.7-2.4-1.2-4.9-2-7.2l-1-3.6l-1.1-3.4c-4.7-13.8-11-27.1-18.6-39.5c-0.6-0.9-1.2-1.9-1.7-2.8c-5.2-8.5-11.2-17.6-16.4-26.7
		s-9.8-18.1-13.3-25.6c-3.3-6.9-6.5-14-9.5-21.1c1.3,3.4,2.4,6.5,3.5,9.2c-3.1-7.3-5.9-14.6-7.1-17.4c-6.2-15.6-3.1-6.6-1.2-0.4
		c1.5,4.4-1-1.4,1.5,5.5c-1.9-4.9-2.9-7.4-4.7-12.3c-0.2-0.2,1.3,3.5,2.6,6.9s2.6,6.5,1.8,4.8c-1.8-4.7-3.9-10-5.8-14.9
		c0.2,0.9,1.8,5.2,3.3,9.1s2.9,7.6,2.7,7.2c-1.1-2.6-5.1-13.9-5.7-14.8c-0.1-0.2,1.7,4.8,2.7,7.2c-3-7.6-5.2-13.4-6.2-15.6
		s-0.6-0.8,1.9,6.2c-1.8-4.8-4.3-11.7-6.1-16.8l0,0l3.4,9.3l-3.2-8.7c0.1,0.5,0.3,1,0.4,1.6c0.8,2.2,1.5,4.3,2.4,6.6
		c-0.7-1.9-1.4-3.8-2.1-5.8c0.4,1.5,1,3.2,1.6,5c2.4,6.9,4.6,13.6,6,17.2c5.7,14.9,11.7,29.8,18.9,44.2c3.6,7.2,7.4,14.3,11.5,21.2
		C133.4,208.6,137.8,215.3,141.9,222.1z"/>
	<path class="st3" d="M209.8,346.8c0-0.1-1,0.1,0.5-0.4c0.6-0.2,1.2-0.4,1.8-0.6l1.8-0.5l3.4-0.9c2.2-0.6,4.6-0.9,7.1-1.5l0.3-0.2
		c1-0.2,2-0.4,3-0.5l3.1-0.4c2.1-0.2,4.1-0.6,6.3-0.7l5.9-0.5l5.9-0.2c2-0.1,3.9-0.1,5.9-0.1h2.9c1,0,2,0,2.9,0.1
		c-0.2-0.1-0.3-0.1,0.5-0.1c1.6,0.1,3.6,0.2,5.7,0.4s4.4,0.5,6.7,0.8l2,0.2c0.3,0,0.5,0,0.8,0l5.7,0.9c11.5,1.8,22.9,4.6,33.9,8.3
		c11.6,4,22.9,8.8,33.9,14.4c2.4,1.1,4.8,2.4,7.2,3.6s4.7,2.5,7,3.8c6.7,3.8,15,9.1,21.2,13.3c-0.6-1.2,14.7,8.9,12,6.4
		c4.1,2.9,10.2,7.3,10.6,7.3c1.2,0.3,4.7,2.1,15.6,9.7c4.2,3,10.5,8,12.1,9c2.4,1.6-5.2-4.3-2.8-2.7c-15.5-11.6-30.9-22.9-46.9-33.4
		c-8-5.2-16.2-10.3-24.6-15S344,358,335,354l-3.1-1.3l-4.6-1.9c-1.8-0.7-3.7-1.5-5.9-2.3l-3.4-1.2l-1.8-0.7l-1.9-0.6
		c-11.9-4-24.1-6.9-36.5-8.7c-13.1-1.9-26.3-2.3-39.4-1.1c-9.3,0.9-18.4,2.6-27.4,5.2c-0.7,0.2-1.3,0.5-2,0.7c-3,1-6.2,2-9.4,3.4
		c-1.6,0.7-3.2,1.3-4.8,2l-4.6,2.1c-2.8,1.3-5.7,2.4-8.8,3.2c-1.3,0.3-2.7,0.6-4.1,0.7c-1.2,0.1-2.5,0-3.7-0.2
		c-0.5-0.1-1-0.2-1.6-0.3c-0.5-0.1-1-0.3-1.4-0.5c-0.9-0.4-1.7-1-2.5-1.8c-1.5-1.6-2.6-3.5-3.2-5.6c0.4,1.9,1.1,3.6,2.2,5.2
		c-1.3-1.8-2.2-3.8-2.6-5.9c-0.3-1.5-0.4-3-0.4-4.5c0.1-1.6,0.3-3.2,0.7-4.8c0.2-0.8,0.2-0.9,0-0.6c-0.8,1.5-1.4,3.2-1.6,4.9
		c-0.2,1.4-0.2,1.2-0.4,1.1s-0.3,0.1-0.2,2.5c-0.1-1.4-0.1-2.8,0.1-4.2c0.2-1.4,0.5-2.8,1-4.1c-0.2,0.4-0.4,0.9-0.5,1.4
		c-0.3,1.1-0.5,2.2-0.6,3.3c-0.2,2.4,0.1,4.5-0.1,3.3c-0.2-3.5,0.4-7,1.9-10.1c-0.4,0.7-0.7,1.4-1,2.1c-0.4,1.3-0.8,2.6-0.9,3.9
		c-0.2,1.7-0.2,3.4-0.1,5.1c-0.2-1.9-0.2-3.8,0.2-5.6c0.4-2.3,1.2-4.2,1.2-4.6c-0.3,0.5-0.5,1.1-0.7,1.7c-0.3,1-0.6,2.1-0.7,3.2
		c0.3-2.3,1-4.6,2.1-6.6c0.6-1.2,1.3-2.4,2.1-3.6c0.5-0.7,0.5-0.8,0-0.4c-1.1,1.1-2,2.4-2.7,3.8c0.9-1.8,2.1-3.4,3.4-4.9
		c1.4-1.5,2.9-2.8,4.6-4l0,0l-1.3,0.9c-0.4,0.4-0.9,0.8-1.4,1.1c-0.8,0.7-1.6,1.5-2.3,2.3c1.4-1.6,2.9-3,4.6-4.2l-0.9,0.6
		c-1.3,0.9-2.4,2-3.5,3.2c0.9-1,1.9-2,3-2.9c-1,0.7-1.9,1.4-2.8,2.2c-1.7,1.7-3.2,3.6-4.3,5.8c-0.9,1.6-1.5,3.4-1.9,5.2
		c-0.6,2.8-0.6,5.7,0,8.5c0.6,2.9,1.9,5.6,3.7,7.9c1,1.2,2.2,2.2,3.5,3l1.1,0.5l1.1,0.4c0.7,0.2,1.4,0.4,2.1,0.6
		c2.8,0.5,5.7,0.5,8.5,0c5.4-1,10.2-3.3,14.8-5.4c2.3-1,4.6-1.9,6.9-2.9l1.7-0.7l1.8-0.6L209.8,346.8z"/>
	<path class="st3" d="M266,326.6c0-0.1-0.7-0.3,0.5-0.2c3.7,0.2,6.6,0.8,10.3,1.1l0.3-0.1l8.7,1.4l8.2,1.5c0.7,0.1,1.4,0.2,2,0.4
		l2,0.5l4,0.9c-0.1-0.1-0.2-0.2,0.4-0.1c1.1,0.3,2.5,0.5,3.9,1l4.6,1.4l1.4,0.4c0.2,0,0.4,0,0.5,0c1.4,0.4,2.7,0.8,3.9,1.2
		c16.1,5,31.8,11.5,46.7,19.3c3.4,1.7,6.8,3.4,10,5.2c2.3,1.4,5,2.9,7.6,4.5l7.4,4.7c-0.4-1,10.6,5.8,8.8,3.9c3,1.9,7.3,4.9,7.7,4.9
		c1,0,3.5,1.1,11.4,6.2c3,2,7.5,5.5,8.7,6.1c1.8,1-3.7-3-1.9-2c-22.2-15.9-44.4-30.3-69.2-42.6c-4.3-1.9-20.7-10-39.1-15.5l-6.9-2
		c-2.3-0.7-4.6-1.1-6.9-1.7l-3.4-0.8c-1.1-0.3-2.3-0.4-3.4-0.7l-6.4-1.2c-4.2-0.7-8-1.1-11.3-1.6s-6.1-0.6-8.1-0.7l-1.5-0.1
		c-4.4-0.4-9.2-0.8-13.8-1.4c-4.2-0.5-8.3-1.3-12.3-2.4c-3.2-0.9-6.3-2.1-9.3-3.6c0.6,0.5,1.3,0.8,1.9,1.2s1.2,0.7,1.8,1
		c-2.5-1.2-4.9-2.5-7.2-4c-3.1-2-3.8-2.5-3.5-2s1.6,1.6,2.7,2.6c1.6,1.3-0.9,0,1.8,1.9c-2-1.3-2.9-2-4.8-3.4c0.8,0.7,1.7,1.4,2.7,2
		c1.4,1,2.6,1.7,1.8,1.4l-2.9-2c-1-0.7-2-1.4-2.9-2.1c0.3,0.3,1.9,1.5,3.4,2.6s3,2.1,2.8,2c-1.1-0.7-2.2-1.4-3.2-2.2
		c-0.8-0.7-1.7-1.3-2.6-1.8c-0.1,0,1.8,1.4,2.7,2.1c-1.5-1-2.8-2-3.8-2.6c-0.8-0.4-1.6-0.8-2.4-1c-0.5-0.1-0.6-0.1-0.2,0.1
		c0.8,0.4,1.7,0.9,2.4,1.4c-1-0.6-2.1-1.1-3.2-1.5c-1.3-0.5-2.6-0.8-3.8-1.1l0,0c1.2,0.3,3.1,0.9,4.1,1.3c-1.2-0.4-2.5-0.8-3.8-1.2
		l0.7,0.3c1,0.3,1.9,0.6,2.9,0.9c-0.8-0.3-1.7-0.5-2.5-0.8c0.6,0.3,1.3,0.6,2.1,0.9c1.3,0.5,2.5,1.1,3.6,1.9c1,0.8,1.9,1.6,2.7,2.1
		c3,2.2,6.2,4.2,9.6,5.7c3.4,1.5,6.9,2.7,10.6,3.5C251.5,325.3,258.7,326.2,266,326.6z"/>
	<path class="st3" d="M248,372c0.1-0.1-0.6-0.5,0.5-0.1c1.6,0.6,3.1,1.2,4.6,1.8s2.9,1.2,4.6,1.8l0.3-0.1c2.5,1,5.2,1.9,8,2.9
		c2.5,0.8,5.1,1.5,7.7,2.2s5.1,1.3,7.7,2c-0.1-0.1-0.2-0.2,0.3,0l8.1,2l1.4,0.3c0.2,0,0.3,0,0.5,0l3.8,0.9c15.1,3,30.6,5.2,47.2,8.4
		c3.5,0.6,7,1.2,10.4,2c2.5,0.6,5.3,1.2,8.1,2.1s5.5,1.5,7.9,2.3c-0.3-0.4,2.5,0.2,5.1,0.8s4.9,1.3,3.9,0.6l5.1,1.8
		c1,0.4,2,0.8,3,1.1c1.1,0,2.1,0.1,3.1,0.5c2.9,0.9,5.8,1.9,8.6,3.2c1.6,0.7,3.5,1.8,5.2,2.8s3.1,1.8,3.7,2c1.8,0.8-3.8-2.5-2-1.7
		c-11.3-6.2-23.3-11.2-35.7-14.7c-12.2-3.6-24.6-6.3-37.3-8.8c-2.2-0.4-7.4-1.3-14.4-2.6s-15.4-2.9-24.1-4.8s-17.4-4.1-24.8-6.5
		s-13.5-4.6-17-6l-1.3-0.5c-7.7-3-16.8-7.1-23.1-10c-2.9-1.3-5.9-2.7-8.8-4.1l3.5,2.2c-2.9-1.6-5.8-3.2-6.9-3.7
		c-3.1-1.6-3.8-1.9-3.5-1.6c0.9,0.8,1.8,1.5,2.8,2.2c1.6,1.1-0.8,0,1.8,1.7l-4.8-2.7c-0.3,0,6,3.3,4.5,2.8c-1.8-1.1-4-2.2-5.9-3.3
		c0.5,0.6,6.6,3.9,6.2,3.9c-1.1-0.5-5.3-3.3-5.8-3.3c-0.1,0,1.8,1.1,2.8,1.7c-6-3.4-9.3-5.1-4.1-1.6c-1.9-1.1-4.4-2.8-6.4-4l0,0
		l3.5,2.3l-3.3-2.1l0.5,0.5c0.8,0.5,1.6,1.1,2.5,1.6l-2.2-1.4c0.5,0.4,1.1,0.9,1.8,1.4c2.5,1.8,5,3.5,6.4,4.3
		C223.2,361,235.4,367,248,372z"/>
	<path class="st3" d="M273.6,361.1c0.1-0.1-0.4-0.4,0.4-0.1c2.6,1.1,4.5,2.4,7.1,3.5l0.2-0.1l6.1,3c3.9,1.7,7.9,3.3,11.8,4.8
		c-0.1-0.1-0.1-0.2,0.3,0c1.6,0.6,3.9,1.5,6.3,2.4l1,0.4c0.1,0,0.3,0,0.4,0l2.9,1.1c11.8,3.8,24.1,6.4,37.3,9.3
		c2.8,0.5,5.6,1.1,8.3,1.7c4,0.9,9,2.4,12.8,3.5c-0.4-0.8,8.9,1.9,7.3,0.7l4.1,1.4c0.8,0.3,1.6,0.6,2.4,0.7c0.8-0.2,2.9-0.2,9.6,2.4
		c2.6,1,6.3,3.2,7.3,3.5c1.5,0.6-3.1-1.9-1.6-1.4c-4.6-2.4-9.4-4.4-14.2-6.2c-4.8-1.8-9.7-3.3-14.6-4.7c-9.8-2.8-19.7-5-29.6-7.5
		c-10.1-2.2-20.1-5.1-29.9-8.5c-11-4-21.7-8.5-32.2-13.6l-1-0.5c-6-2.9-13.1-6.4-18.2-8.8l-7.1-3.2l2.8,1.8
		c-2.4-1.2-4.7-2.5-5.6-2.9c-5.1-2.4-2.4-0.7-0.7,0.7c1.3,0.9-0.7,0.1,1.4,1.4l-3.9-2.1c-0.3,0,4.9,2.5,3.6,2.1
		c-1.5-0.8-3.2-1.6-4.8-2.5c0.4,0.5,5.4,2.9,5.1,3c-0.9-0.4-4.3-2.6-4.7-2.5c-0.1,0,1.5,0.8,2.3,1.3c-4.9-2.5-7.6-3.6-3.4-1
		c-1.5-0.8-3.6-2-5.3-2.9l0,0l2.9,1.6l-2.8-1.5l0.4,0.4c0.7,0.4,1.3,0.8,2.1,1.2l-1.8-1c0.4,0.3,0.9,0.7,1.4,1
		c2.1,1.3,4.1,2.6,5.2,3.2C254.3,351.4,263.9,356.4,273.6,361.1z"/>
</g>
</svg>
