<svg xmlns="http://www.w3.org/2000/svg" viewBox="0 0 500 500"><defs><style>.cls-1{fill:#fff;}.cls-2{fill:#1595bf;}.cls-3{fill:#b8e1f0;}.cls-4{fill:#1d1d1d;}</style></defs><g id="OUTLINE_1111" data-name="OUTLINE 1111"><path class="cls-1" d="M40.29,300.91s43.22-55.44,56.38-66.49,61.81-56.32,117.8-57.25,103,26.93,116.6,48.12S378.41,273,401.51,273.2c0,0-50.58,46.81-141.43,53.66S139.7,310.47,130.66,308.69s-35.23-10.84-61.5-3.29S40.29,300.91,40.29,300.91Z"/><circle class="cls-2" cx="220.9" cy="238.3" r="66.41"/><circle cx="220.82" cy="236.41" r="23.55"/><circle class="cls-3" cx="256.16" cy="267.92" r="10.52"/><path class="cls-4" d="M131.41,214.45c-.07-.19-1.33.36.41-.84,1.39-.93,2.74-1.76,4.06-2.55s2.68-1.46,4-2.17c2.64-1.45,5.35-2.76,8.22-4.44l.27-.52c4.62-2.3,9.49-4.56,14.54-6.64a190.71,190.71,0,0,1,28-10.41c-.28,0-.42-.13.52-.42a119.25,119.25,0,0,1,15.36-3.19l2.56-.41a1.77,1.77,0,0,0,.91-.38l1.92-.24,1.84-.14,3.42-.25a112.81,112.81,0,0,1,21.66.13,109,109,0,0,1,21.62,4.59c14.31,4.54,28.08,12.12,41.17,21.7a168.08,168.08,0,0,1,16,12.67c1.83,1.64,3.71,3.5,5.66,5.39s3.87,3.92,5.77,6l10.85,11.8c-.09-.94,4,2.83,7.93,6.14s7.73,6.12,6.38,4.13c2.36,2.16,5.38,4.77,8,6.74,1.31.95,2.48,1.8,3.37,2.38a8,8,0,0,0,1.65.9c.88,0,2.49.46,5.68,1.8A152.23,152.23,0,0,0,389.1,272c3,.95,7,2,10.43,2.79a56.69,56.69,0,0,0,7.62,1.22c1.86.05-.3-.36-2.29-.81s-4-1-2.26-.85a84.64,84.64,0,0,1-32.3-12.54c-9.65-6.38-18.05-14.83-26.35-23.69-4.16-4.42-8.31-9-12.7-13.43s-8.94-8.77-13.64-13-9.69-8.13-14.81-11.93-10.55-7.26-16.14-10.53c-2-1-5.28-2.85-9.85-4.93-2.24-1.12-4.89-2.12-7.71-3.32-1.43-.57-3-1.08-4.51-1.66-.79-.27-1.58-.58-2.4-.84l-2.51-.76a114.53,114.53,0,0,0-23-4.62,123,123,0,0,0-26.24.44A156.6,156.6,0,0,0,184.35,179,202,202,0,0,0,161,187.67c-7.12,3.11-13.47,6.34-18.83,9.27l-3.85,2.1-3.45,2c-2.19,1.25-4.1,2.37-5.69,3.38-.78.48-1.54,1-2.31,1.46A231,231,0,0,0,105.61,221a189.8,189.8,0,0,0-17.89,16.33c-2.15,2.37-4.35,4.72-6.38,7.23-1,1.25-2.08,2.48-3.08,3.74l-3,3.85c2.09-2.17,4-4.17,5.8-5.78-2.26,2.36-4.32,4.91-6.12,7s-3.07,4-3.78,5l-1.38,1.92c-.39.58-.72,1.11-1,1.58-.6.94-1,1.64-1.29,2.14-.55,1-.52,1.2-.13.92a20.52,20.52,0,0,0,2-2c.87-.94,1.89-2,2.88-2.94,2.62-2.79-.13,1.58,3.8-2.88-2.65,3.36-4,5-6.49,8.52,0,.15.46-.45,1.15-1.4s1.58-2.23,2.51-3.4c1.83-2.36,3.49-4.47,2.78-3.13-1.31,1.59-2.66,3.3-4,5.08s-2.51,3.64-3.76,5.37c.63-.47,2.77-3.47,4.86-6.2s4.12-5.14,4.09-4.74c-.67.94-2.63,3.2-4.44,5.36s-3.27,4.34-3.29,4.83c0,.2,2.47-3.27,3.75-5-1.9,2.67-3.55,5.07-4.8,7s-2.08,3.52-2.52,4.39c-.87,1.75,0,.9,3.5-3.9-1.13,1.72-2.54,3.76-4,5.85s-2.66,4.31-3.74,6.21l0,0c1.14-1.85,3.12-5,4.18-6.74-1.31,2.09-2.55,4.24-3.82,6.35l.85-1c1-1.55,2-3.12,3-4.77-.83,1.41-1.67,2.81-2.52,4.22.78-1,1.64-2.09,2.57-3.33,1.7-2.38,3.45-4.63,5-6.62s3-3.63,3.9-4.91a198.15,198.15,0,0,1,26-27.85A241.92,241.92,0,0,1,131.41,214.45Z"/><path class="cls-4" d="M110.22,306.1c0-.09-1.18-.38.77-.13,6.16.93,10.93,2.63,17,4.43l.49,0c4.63,1.56,9.42,3.39,14.36,5.22,2.29.8,4.59,1.6,6.9,2.36l7,2.21,7,2c2.33.64,4.7,1.19,7,1.79-.23-.12-.33-.21.61,0,3.92.9,9.34,2.19,15,3.24.84.15,1.68.32,2.51.44a3.84,3.84,0,0,0,.94,0l7,1.16,5.28.63,2.64.32,2.66.24,5.32.48,5.35.32,2.69.17,2.69.09,5.4.17,5.43,0H237l2.73-.07,5.49-.13,5.52-.3,2.78-.15,2.77-.23,5.59-.47c7.46-.77,15-1.77,22.66-3.12,3.23-.62,6.44-1.31,9.62-2l4.73-1.1c1.57-.35,3.12-.71,4.65-1.12,9.11-2.16,20.61-5.44,29.22-8.48-.76-.05,4.09-2,8.5-3.93,2.2-1,4.31-2,5.6-2.6s1.73-1,.66-.7l4.52-2,2.34-1,2.2-1c2.78-1.33,4.93-2.38,5.11-2.55a25.65,25.65,0,0,1,4.62-3.18l2.47-1.46,3.12-1.89,3.89-2.29,4.67-2.88c1.35-.78,2.86-1.73,4.4-2.69l4.59-2.85c2.89-1.9,5.36-3.52,6.25-4.17,2.79-2.07-6.93,4.23-4.13,2.16A273.9,273.9,0,0,1,330,311.45a283.39,283.39,0,0,1-67.41,14.45,252.47,252.47,0,0,1-26.39,1.28,275.83,275.83,0,0,1-44.5-3.7,267.16,267.16,0,0,1-45.34-11.7c-6.73-2.38-13-4.64-18.42-6.34a125.41,125.41,0,0,0-13.67-3.55c-.85-.16-1.69-.35-2.55-.46a67.76,67.76,0,0,0-12.2-1H97.92l-1.59.1c-1.06.08-2.13.12-3.18.28s-2.11.25-3.14.44-2.06.34-3.07.56c-4.06.8-7.94,1.79-11.59,2.62a101.77,101.77,0,0,1-10.13,1.92,40.63,40.63,0,0,1-8.46.27c-.7-.08-1.4-.13-2.1-.24L52.6,306c-.69-.14-1.34-.4-2-.59a11.29,11.29,0,0,1-1.91-.7,10,10,0,0,0,1.69.76l1.73.67c.57.18,1.14.31,1.69.47a12.46,12.46,0,0,0,1.61.38,17.09,17.09,0,0,1-2.13-.43l-1-.24c-.34-.1-.67-.23-1-.34-.65-.23-1.32-.43-1.91-.67a11.63,11.63,0,0,1-1.58-.81,3.4,3.4,0,0,1-1.86-3.62,11.18,11.18,0,0,1,1.28-3.29l1.06-2c.5-.91.51-1.07.23-.76a19.92,19.92,0,0,0-1.53,2.05,15.93,15.93,0,0,0-1.82,3.25c-.26.82-.29,1.18-.36,1.31s-.11,0-.16,0-.12,0-.16.4a3.87,3.87,0,0,0,.78,2.53,4.37,4.37,0,0,1-.92-2.71,6.56,6.56,0,0,1,.47-2.39,28.76,28.76,0,0,1,2.43-4.51,8.58,8.58,0,0,0-.94,1.44,17.42,17.42,0,0,0-1.74,3.69,5.94,5.94,0,0,0-.24,2.1,4.49,4.49,0,0,0,.42,1.63c.19.4.36.64.4.72s-.06,0-.3-.29a4.93,4.93,0,0,1-.6-3.2,10.09,10.09,0,0,1,1-3.06,49.34,49.34,0,0,1,3.24-5.37,32.6,32.6,0,0,0-4,6.47,7.56,7.56,0,0,0-.6,2.49,4.87,4.87,0,0,0,.38,2.23c.55,1.2,1.18,1.68,1,1.61a4.89,4.89,0,0,1-1.43-2.81,7.33,7.33,0,0,1,.89-4.18c1.27-2.46,2.68-4.5,2.79-4.92a34.57,34.57,0,0,0-3.08,5.22,61.11,61.11,0,0,1,7.12-11.08c.58-.74.66-.93.09-.39a38.14,38.14,0,0,0-3.54,4.14,51.44,51.44,0,0,1,4.42-5.35A65.8,65.8,0,0,1,57.7,281h0A58,58,0,0,0,52,286.34a57,57,0,0,1,5.22-5.09c-.31.22-.67.48-1,.76a48.15,48.15,0,0,0-4,3.86c1.1-1.19,2.24-2.34,3.44-3.44-1,.76-2,1.68-3.13,2.75a53.1,53.1,0,0,0-8.85,11.54,13.94,13.94,0,0,0-1.08,2.52,7.87,7.87,0,0,0-.33,3.24,6.51,6.51,0,0,0,1.39,3.26,9,9,0,0,0,2.36,2,14.6,14.6,0,0,0,2.44,1.17l2.36.82a31.71,31.71,0,0,0,4.87,1c6.59.9,13-.18,19.09-1.42s12-2.84,17.84-3.61a60,60,0,0,1,8.78-.48A70.75,70.75,0,0,1,110.22,306.1Z"/><path class="cls-4" d="M157.06,260.88c.11,0-.24-1.11.48.53.59,1.29,1.25,2.43,1.81,3.59.3.57.55,1.16.87,1.71l.95,1.63,1,1.63.48.83.55.79c.74,1.06,1.51,2.14,2.34,3.26l.38.21,2,2.55c.34.43.68.87,1,1.29s.75.81,1.12,1.23c.76.82,1.51,1.66,2.29,2.48s1.64,1.57,2.46,2.37a81.66,81.66,0,0,0,21,13.63c-.17-.15-.24-.24.51.09s1.66.72,2.6,1.1l3,1.21,3.31,1.14c.57.19,1.14.41,1.72.58l1.79.5,2.12.55a2.58,2.58,0,0,0,.8.09c2.19.44,4.13.95,6,1.23,1.52.19,3,.43,4.55.58s3.1.2,4.65.2a55.19,55.19,0,0,0,9.26-.86,67,67,0,0,0,17.68-5.87,80.27,80.27,0,0,0,8.2-4.66,57.51,57.51,0,0,0,7.61-5.88,45.91,45.91,0,0,0,9-11.58l1.18-2.17c.38-.73.72-1.48,1.09-2.22A78.39,78.39,0,0,0,286.21,257a77.49,77.49,0,0,0,2-12.85,67.4,67.4,0,0,0-.4-12.86c-.21.63-1-3.75-2.27-7.62s-2.94-7.23-2.5-5.41a57.86,57.86,0,0,0-3.5-7.5c-.32-.56-.6-1.1-.89-1.57s-.58-.89-.81-1.24a8.48,8.48,0,0,0-.87-1.22,11.41,11.41,0,0,1-1.16-1c-.54-.52-1.17-1.31-2.15-2.3L272,201.68l-2.12-2.13c-.83-.75-1.73-1.59-2.74-2.51s-2.16-1.86-3.5-2.8a59.6,59.6,0,0,0-7.18-4.76,45.73,45.73,0,0,0-5.56-2.59c-1.4-.46.2.24,1.64,1s2.88,1.58,1.61,1A54.09,54.09,0,0,1,275,207.19a57.18,57.18,0,0,1,9.54,25.94,67.35,67.35,0,0,1-2.84,27.8A72.61,72.61,0,0,1,276,274a42.26,42.26,0,0,1-8.49,11.13,46,46,0,0,1-6.26,5.05,71.8,71.8,0,0,1-11.89,6.5,60.74,60.74,0,0,1-16.6,4.52,47.49,47.49,0,0,1-9.4.17,82.74,82.74,0,0,1-9.77-1.59A81.8,81.8,0,0,1,194.86,293a77.93,77.93,0,0,1-15.58-10.42A73,73,0,0,1,168.51,271l-1.93-2.7L165,265.69a48.35,48.35,0,0,1-2.39-4.37,18.46,18.46,0,0,1-.91-1.84,49.33,49.33,0,0,1-4.21-18.84,68.58,68.58,0,0,1,2-18.08,81.07,81.07,0,0,1,4.8-13.87c-1,2-2.11,3.89-2.8,5.61.23-.59.44-1.18.69-1.75l.79-1.68c.52-1.09,1-2.16,1.47-3.1,1-1.87,1.83-3.42,2.28-4.27,1.41-2.28,2.21-3.72,2.68-4.46s.48-.88.21-.64a42.12,42.12,0,0,0-3.4,4.17c-1.69,2.5.12-1.17-2.34,2.88.83-1.5,1.42-2.64,2.15-3.7s1.37-2.18,2.37-3.57a35.51,35.51,0,0,0-2.7,4c-1.24,2-2.21,4-1.78,2.84l1.25-2.22q.7-1.09,1.41-2.22c.48-.74.94-1.5,1.43-2.23l1.57-2.1a20.87,20.87,0,0,0-1.51,1.82c-.7.93-1.45,2.15-2.22,3.3s-1.42,2.31-1.9,3.13-.78,1.31-.76,1.17c.74-1.73,5.2-8.16,5.53-8.74a14.42,14.42,0,0,0-1.13,1.43l-1.76,2.7c.72-1.11,1.35-2.2,2-3.15l1.86-2.57c1.06-1.57,2.05-2.61,2.51-3.27s.53-.79,0-.35c-.24.23-.61.61-1.13,1.15l-.9,1-1,1.29c1-1.4,2.42-2.87,3.79-4.44.66-.79,1.46-1.48,2.17-2.2l2.06-2h0l-2.4,2.31L173.49,190c-.36.42-.7.79-1,1.1l1-1.15,1.09-1.07,2.2-2.15-.85.67L174.3,189l-.85.81-.79.89c.86-1.06,1.9-1.95,2.86-2.92-.78.66-1.72,1.39-2.64,2.29-1.65,1.78-3.36,3.47-4.63,5.15l-1.85,2.28c-.5.72-.94,1.38-1.3,1.93-1.53,2.19-2.77,4.55-4.08,6.88-1.14,2.41-2.37,4.78-3.27,7.3-1.05,2.46-1.77,5-2.58,7.6a80,80,0,0,0-1.65,7.86,69.38,69.38,0,0,0-.81,8v4c0,.33,0,.67,0,1l.1,1,.18,2,.19,2,.36,2,.38,2,.18,1c.08.33.19.66.28,1l1.14,3.92C156,258.36,156.55,259.62,157.06,260.88Z"/><path class="cls-4" d="M143.3,157.58c0-.21-1.1-.15.5-.64a66.28,66.28,0,0,1,7.23-1.43c1.18-.19,2.35-.38,3.54-.6s2.44-.41,3.72-.69l.32-.39c2-.29,4.07-.6,6.17-.88l6.38-.72,3-.47,3-.39,5.91-.78c4-.47,7.89-.88,11.83-1.29-.21-.1-.32-.2.46-.3,3.28-.29,7.84-.59,12.57-.71l2.08-.15a1.34,1.34,0,0,0,.75-.29c2.14-.1,4.05-.14,5.81-.12a337.2,337.2,0,0,1,35.3-.28,185.79,185.79,0,0,1,36.53,5.17,113.93,113.93,0,0,1,15.35,4.52c7,2.84,15.34,8.42,21.57,12.66-.17-.79,3.68,1.25,7.2,3.25s6.78,3.85,5.63,2.27c4.12,3,10.11,7.74,10.61,7.73.77,0,2.11.35,4.61,1.77a81.84,81.84,0,0,1,11.49,8.23c1,.87,2.16,1.89,3.28,3s2.28,2.22,3.3,3.38c2.09,2.18,3.75,4.4,4.48,5.09.51.54.54.44.33,0s-.78-1.2-1.31-2c-1.06-1.6-2.2-3-1-2-7.06-7.68-14.58-13.94-22.26-20.08S336,168.71,327.85,163.29c-4.11-2.69-8.23-5.35-12.61-7.8-1.06-.64-2.22-1.21-3.34-1.81-.57-.3-1.11-.6-1.7-.89l-1.81-.83c-.6-.28-1.21-.57-1.8-.82l-1.76-.69c-1.17-.45-2.34-.93-3.52-1.35q-7.1-2.57-14.41-4.47c-4.89-1.23-9.83-2.32-14.82-3.16-3.41-.45-11.72-1.67-22.65-2.33s-24.39-.75-38.14-.19-27.79,1.87-39.79,3.57-22,3.81-27.73,5c-.71.15-1.4.31-2.09.5-3.12.77-6.43,1.54-9.76,2.43s-6.69,1.89-10,2.94-6.49,2.13-9.49,3.25-5.81,2.26-8.33,3.29c-4.54,2.15-9.17,4.24-13.61,6.69,2.23-.78,4.26-1.55,6.09-2.05-1.2.46-2.37,1-3.49,1.49l-3.19,1.44a46.92,46.92,0,0,0-4.41,2.19c-9.55,5.32-3.74,3.06.32,1.91,2.84-1-.59,1.2,3.81-.42-3.09,1.33-4.56,2.16-7.61,3.64-.1.23,2.21-1,4.3-2s4.06-1.86,3.1-1.15c-.75.3-1.52.63-2.29,1l-2.29,1.18c-1.54.8-3.08,1.63-4.59,2.37a42.5,42.5,0,0,0,5.68-2.5c1.21-.6,2.4-1.12,3.26-1.46s1.4-.51,1.33-.36c-1.65.75-8.76,3.58-9.1,4.35a48,48,0,0,0,4.46-2.07c-2.3,1.19-4.32,2.27-5.93,3.17a28,28,0,0,0-3.38,2.14c-1.22,1-.3.68,4-1.23-2.91,1.46-7,3.56-10,5.27h0l5.56-2.92L71,183.38l1-.3c1.31-.65,2.62-1.31,4-2l-3.41,1.86c.94-.31,2-.7,3.15-1.15,4.16-2,8.39-3.42,10.6-4.54A284.87,284.87,0,0,1,143.3,157.58Z"/><path class="cls-4" d="M380.72,273.57c.08-.19-.2-.51.37-.4a15.39,15.39,0,0,1,2.34.91,9.17,9.17,0,0,0,2.36.85l.22-.28c1.29.52,2.62,1.14,4,1.57a71.36,71.36,0,0,0,8,1.33c-.05-.13-.06-.25.21-.25,1.11.07,2.62.44,4.2.67h.71a.42.42,0,0,0,.29-.23c.71.07,1.35.15,1.94.24a99.5,99.5,0,0,0,24-3c1.71-.63,3.39-1.26,5-1.72,1.24-.25,2.62-.66,4-1s2.8-.61,4-1c-.67-1,4.75-3.45,3.23-4.15,1.54-.44,3.74-1.4,3.73-1.74a3,3,0,0,1,.75-1.95,17.73,17.73,0,0,1,3.35-2.87c1.36-.86,3.74-1.63,4.14-2.06.64-.69-2.17.35-1.53-.33l-3.95,1.93c-1.31.64-2.68,1.14-4,1.72l-2,.86c-.68.26-1.37.48-2.05.72L440,265c-2.81.73-5.57,1.67-8.46,2.16l-2.16.43a19.86,19.86,0,0,1-2.18.38l-4.42.55c-.24.06-.58.14-1,.21l-1.5.16-4.21.37c-1.63.08-3.45.05-5.39.07-1,0-2,0-3-.11l-3.07-.22A83.46,83.46,0,0,1,392.78,267a44,44,0,0,1-4.76-1.28c-1.37-.43-2.53-.76-3.36-1.07l-.6-.21c-1.79-.72-3.82-1.38-5.74-2.14s-3.77-1.47-5.34-2-2.94-.93-4.44-1.39c.53.51,1,1,1.44,1.44a18.48,18.48,0,0,0-3.37-1.68c-3.07-1.41-1.8.1-1.09,1.5.63.79-.76.6.37,1.63-.95-.51-1.37-.88-2.28-1.47-.14.11.58.53,1.23.93s1.25.7.78.76c-.86-.6-1.92-1.12-2.84-1.72,0,.29.81.84,1.53,1.36s1.43.91,1.24,1.07c-.61-.14-2.31-2.13-2.78-1.78-.1.07.82.68,1.28,1-2.93-1.69-4.82-2.3-2.51-.1-.91-.61-2.07-1.64-3.07-2.2h0c.47.33,1.24,1,1.68,1.26l-1.63-1.1a3.89,3.89,0,0,0,.16.38,12.33,12.33,0,0,0,1.18.92l-1.09-.73a9,9,0,0,0,.65,1,28.74,28.74,0,0,0,2.82,2.87c.35.24.7.5,1.06.73l1.11.66,2.23,1.32,2.24,1.31c.76.42,1.55.77,2.32,1.15,1.56.74,3.1,1.54,4.69,2.2Z"/><path class="cls-4" d="M371.88,268.15c.07-.19-.19-.48.34-.42,1.6.27,2.7,1.26,4.35,1.44l.19-.29c1.2.42,2.47.84,3.79,1.22l1.87.23c.62.06,1.24.09,1.86.13a35.76,35.76,0,0,0,3.72.13c-.06-.12-.09-.23.16-.27,1-.07,2.43.15,3.89.11l.64-.08a.36.36,0,0,0,.23-.26c.66,0,1.24,0,1.79,0A89.57,89.57,0,0,0,415.56,264c1.44-.73,2.85-1.51,4.24-2.12,2.09-.83,4.85-1.61,6.9-2.37-.71-.94,4-3.41,2.57-4.11,1.35-.51,3.36-1.31,3.33-1.66-.07-1,.52-2.48,3.78-4.53,1.32-.72,3.59-1.27,4-1.66.64-.62-2.05.15-1.42-.47-10.31,4.11-19.85,8.6-30.25,11.23a59,59,0,0,1-15.79,2.88c-.9,0-1.81.11-2.71.07l-2.68-.06c-.87,0-1.73-.15-2.57-.22s-1.66-.16-2.43-.29a43.26,43.26,0,0,1-7.15-1.66l-.54-.14c-3.22-1-7.07-2.45-9.88-3.31-1.33-.33-2.7-.64-4.06-1,.48.47.92.91,1.29,1.31a15.76,15.76,0,0,0-3-1.43c-2.86-1.05-1.68.28-1,1.55.57.71-.7.62.31,1.57l-2.1-1.22c-.25.23,2.69,1.32,1.85,1.45-.76-.56-1.78-.89-2.61-1.41.06.57,2.86,1.82,2.53,2.12-.53-.16-2.11-1.86-2.55-1.49-.09.08.76.58,1.18.83-2.7-1.35-4.4-1.8-2.32.14-.83-.5-1.87-1.42-2.77-1.89h0c.42.28,1.11.84,1.51,1.1l-1.47-.94.14.35a11,11,0,0,0,1.06.81l-1-.63a7.84,7.84,0,0,0,.58,1,19.44,19.44,0,0,0,2.55,2.52A72.35,72.35,0,0,0,371.88,268.15Z"/><path class="cls-4" d="M355.69,255.7c.09-.18-.06-.47.35-.38,1.22.36,1.9,1.36,3.16,1.66l.2-.27c.87.47,1.76,1,2.72,1.47a44.11,44.11,0,0,0,5.63,1.3c0-.13,0-.24.17-.24.79.08,1.85.39,3,.63h.51a.36.36,0,0,0,.22-.22c.51.08.95.18,1.37.27a54.61,54.61,0,0,0,16.88-2.6c1.17-.53,2.31-1.07,3.43-1.5,1.67-.53,3.86-1,5.49-1.55-.32-.49.44-1.24,1.11-2s1.21-1.45.62-1.83c1-.38,2.49-1.07,2.42-1.4-.21-1,.05-2.33,2.08-4.19.86-.63,2.42-1.22,2.63-1.58.32-.58-1.53.18-1.21-.4-6.59,3.92-13.64,6.88-21.43,7.71a22,22,0,0,1-4.39.6,42.58,42.58,0,0,1-20.36-4.09l-.38-.17c-2.3-1.1-5-2.55-7-3.4-1-.34-2-.64-3-1,.26.43.5.87.7,1.24a8.08,8.08,0,0,0-2.1-1.4c-2-1.06-1.45.18-1.24,1.38.29.67-.74.54-.14,1.44-.59-.45-.85-.72-1.42-1.21-.28.21,1.88,1.33,1.15,1.42A21.75,21.75,0,0,0,345,244c-.09.51,1.91,1.8,1.57,2.05-.41-.15-1.28-1.8-1.75-1.48-.09.07.49.57.78.82-1.92-1.35-3.23-1.91-2,0-.57-.51-1.2-1.41-1.85-1.9h0c.28.29.72.84,1,1.09l-1-.94c0,.1,0,.21,0,.32a5.83,5.83,0,0,0,.69.8l-.66-.63a6.62,6.62,0,0,0,.23.9,12,12,0,0,0,1.53,2.48A49,49,0,0,0,355.69,255.7Z"/><path class="cls-4" d="M335.27,235.7c.12-.16.05-.46.4-.33,1,.5,1.45,1.56,2.53,2l.24-.24c.69.57,1.39,1.21,2.15,1.78a41,41,0,0,0,4.73,2.06c0-.13,0-.24.2-.21.68.2,1.54.68,2.47,1.08l.43.1a.36.36,0,0,0,.25-.18c.42.17.79.34,1.13.5a76.16,76.16,0,0,0,15,1.48,29.84,29.84,0,0,1,3.31-.29c1.55.07,3.49.47,5,.64-.13-1.16,3.54-1.45,2.89-2.67,1,.09,2.47.21,2.56-.11.28-1,1.09-2,3.71-2.53,1-.09,2.58.36,2.94.18.58-.3-1.3-.73-.72-1-7.54-.6-14.71-.61-21.87-2A42.19,42.19,0,0,1,352,233.54a41.28,41.28,0,0,1-10.73-5.5l-.31-.21c-1.83-1.32-3.94-3-5.59-4-.78-.44-1.66-.83-2.48-1.32.14.44.24.87.34,1.24a6.56,6.56,0,0,0-1.57-1.56c-1.61-1.26-1.39,0-1.5,1.09.1.68-.82.4-.48,1.33-.44-.51-.62-.8-1-1.34-.31.15,1.42,1.52.73,1.49a17.8,17.8,0,0,0-1.34-1.58c-.21.46,1.33,2,.95,2.15-.34-.21-.74-1.88-1.26-1.65-.1.05.31.6.52.88-1.46-1.55-2.54-2.3-1.86-.3-.41-.57-.77-1.52-1.26-2.08h0c.19.31.46.9.65,1.18l-.69-1.05a2.82,2.82,0,0,0-.07.31,5.44,5.44,0,0,0,.45.86l-.47-.7a4.31,4.31,0,0,0,0,.88,10.07,10.07,0,0,0,.82,2.57A40.1,40.1,0,0,0,335.27,235.7Z"/><path class="cls-4" d="M318,219.69c.1-.18,0-.46.33-.39,1,.31,1.55,1.27,2.62,1.51l.2-.27c.71.44,1.43,1,2.21,1.41l2.33.76c.78.23,1.57.4,2.35.6,0-.13,0-.24.17-.24.66.13,1.52.5,2.44.76l.42,0a.41.41,0,0,0,.22-.21c.41.12.78.24,1.11.37a66.16,66.16,0,0,0,14.51-.27,26.21,26.21,0,0,1,3.12-.72c1.49-.19,3.4,0,4.86-.17-.17-.56.62-1.07,1.32-1.57s1.32-1.06.9-1.58c.92-.11,2.32-.26,2.33-.61,0-1,.55-2.24,2.71-3.3.86-.36,2.33-.31,2.6-.58.41-.43-1.34-.37-.93-.8a92.64,92.64,0,0,1-9.82,1.63,55.81,55.81,0,0,1-10,.23,24.24,24.24,0,0,1-3.87-.11,48.51,48.51,0,0,1-6.46-1.06l-1.74-.42-1.69-.5c-1.12-.31-2.17-.71-3.15-1.07s-1.85-.76-2.61-1.08a16.77,16.77,0,0,1-1.8-.89l-.34-.15-3.12-1.57c-1.08-.5-2.1-.95-2.91-1.24s-1.59-.4-2.35-.66c.13.37.26.73.37,1.06a6.16,6.16,0,0,0-1.48-1.15c-.72-.42-1-.43-1.21-.16a3.43,3.43,0,0,0-.22,1.36c.13.62-.79.43-.41,1.33a12,12,0,0,1-1.07-1.27c-.16.07.2.45.52.79s.62.63.27.66c-.37-.55-1-1-1.4-1.56-.12.23.22.75.57,1.2s.69.84.5,1c-.38-.19-.9-1.86-1.39-1.66-.11,0,.33.65.57.92a14.69,14.69,0,0,0-1.8-1.68c-.36-.21-.55.12-.15,1.26a22.19,22.19,0,0,1-1.17-2.6h0a12.75,12.75,0,0,0,.54,1.51,12.22,12.22,0,0,1-.6-1.38,3.19,3.19,0,0,0-.11.33,4.49,4.49,0,0,0,.38,1.12,10,10,0,0,1-.42-.94,4.18,4.18,0,0,0-.08,1,8.54,8.54,0,0,0,1,3.08,22.37,22.37,0,0,0,5.42,4.83A54.23,54.23,0,0,0,318,219.69Z"/><path class="cls-4" d="M302,206.31c.07-.19-.06-.46.29-.42,1.07.22,1.67,1.1,2.76,1.27l.18-.28c.74.39,1.51.86,2.33,1.24,1.59.39,3.17.8,4.78,1,0-.13,0-.24.16-.24a19.31,19.31,0,0,1,2.49.63l.43,0a.41.41,0,0,0,.2-.22c.43.08.8.18,1.15.28a79.53,79.53,0,0,0,14.65-.73,25.07,25.07,0,0,1,3.16-.78c1.51-.16,3.45-.1,4.93-.17-.31-1.12,3.14-2.09,2.29-3.16,1-.06,2.37-.28,2.39-.61.06-1,.61-2.19,2.87-3.26.89-.34,2.41-.25,2.69-.51.44-.42-1.36-.41-.92-.83-3.42.65-6.8,1.14-10.2,1.56a70.28,70.28,0,0,1-10.39.33,25.09,25.09,0,0,1-4,0,66.6,66.6,0,0,1-6.73-.81,63.52,63.52,0,0,1-6.92-1.63c-1.05-.27-2-.62-2.78-.9s-1.47-.53-2-.74l-.36-.12c-1-.46-2.23-.89-3.38-1.31a22,22,0,0,0-3.24-1c-.91-.16-1.87-.28-2.83-.42.29.36.55.71.77,1a6,6,0,0,0-2.05-.89c-2-.58-1.29.48-1,1.57.33.58-.61.68,0,1.4-.57-.3-.84-.5-1.4-.83-.23.25,1.82.84,1.18,1.08a17.18,17.18,0,0,0-1.76-.93c0,.5,1.88,1.28,1.6,1.6-.38-.06-1.32-1.43-1.7-1-.07.08.49.43.77.6-1.83-.87-3.08-1-1.76.46a17.69,17.69,0,0,0-1.87-1.29h0c.29.19.74.58,1,.75l-1-.62.06.3a4.86,4.86,0,0,0,.71.56l-.67-.41a4.5,4.5,0,0,0,.32.77,12.21,12.21,0,0,0,1.6,1.95A62.74,62.74,0,0,0,302,206.31Z"/><path class="cls-4" d="M285.59,197.85c.06-.19-.08-.45.26-.44,1,.13,1.69,1,2.75,1l.15-.3c.75.33,1.52.73,2.34,1a46.84,46.84,0,0,0,4.7.61c0-.12,0-.24.13-.26a21.48,21.48,0,0,1,2.45.41h.42a.52.52,0,0,0,.18-.24c.41.05.78.11,1.13.18a73.79,73.79,0,0,0,14-2.07,22.54,22.54,0,0,1,2.94-1.09c1.44-.29,3.3-.43,4.72-.64-.42-1.08,2.78-2.38,1.84-3.36.9-.15,2.23-.51,2.21-.84-.06-1,.34-2.23,2.35-3.51.81-.43,2.27-.49,2.51-.78.36-.46-1.35-.27-1-.73-3.18,1-6.33,1.8-9.51,2.54a62.34,62.34,0,0,1-9.83,1.31,22.82,22.82,0,0,1-3.8.39,59.15,59.15,0,0,1-6.47-.19,58.45,58.45,0,0,1-6.72-1c-1-.18-1.92-.45-2.71-.66s-1.44-.39-1.91-.56l-.35-.09c-1-.37-2.19-.69-3.31-1a19.74,19.74,0,0,0-3.16-.74c-.88-.09-1.81-.13-2.74-.19.29.34.56.66.79,1a5.86,5.86,0,0,0-2-.72c-1.92-.41-1.22.59-.88,1.64.35.55-.55.72.09,1.38-.57-.25-.83-.43-1.39-.72-.21.28,1.8.7,1.19,1a17.12,17.12,0,0,0-1.74-.79c0,.5,1.88,1.13,1.62,1.46-.37,0-1.35-1.32-1.7-.88-.07.09.5.39.78.54-1.82-.72-3.05-.76-1.69.59a16.78,16.78,0,0,0-1.88-1.14h0c.29.16.75.52,1,.67l-1-.54c0,.09,0,.19.07.29a3.69,3.69,0,0,0,.72.5l-.67-.35a4.4,4.4,0,0,0,.34.74,11.48,11.48,0,0,0,1.65,1.8A56.57,56.57,0,0,0,285.59,197.85Z"/><path class="cls-4" d="M262,185.94c.06-.2-.1-.44.25-.45,1.06.07,1.72.92,2.77.95l.14-.31,2.3,1c1.51.25,3,.41,4.45.57,0-.12,0-.23.14-.25a15.41,15.41,0,0,1,2.3.47h.39a.43.43,0,0,0,.19-.22c.39.08.73.17,1.05.26,4.38.13,8.85.16,13.67.26a21.71,21.71,0,0,1,3.07-.21,43,43,0,0,1,4.57,1c0-1.18,3.45-1.13,3-2.4.91.19,2.29.47,2.41.16.38-.92,1.28-1.91,3.82-2.06,1,0,2.37.7,2.74.57.58-.22-1.12-.9-.54-1.12-7-1.61-13.9-2.4-21-3.68A107.74,107.74,0,0,1,276.76,179c-2.46-.39-5-.8-7.14-1.21a48,48,0,0,1-4.76-1.12l-.36-.07c-2.09-.59-4.48-1.28-6.19-1.6-.82-.07-1.68-.13-2.52-.26.22.34.43.68.62,1a6,6,0,0,0-1.8-.86c-1.74-.59-1.29.42-1.09,1.5.27.59-.65.63-.09,1.39-.54-.34-.78-.55-1.31-.92-.25.24,1.73,1,1.08,1.16-.46-.44-1.16-.66-1.67-1.07-.1.53,1.78,1.42,1.48,1.72-.39-.08-1.23-1.51-1.64-1.15-.1.08.45.47.72.67-1.77-1-3-1.45-1.84.25-.56-.42-1.15-1.24-1.74-1.67h0c.26.25.67.76.92,1l-.93-.85c0,.09,0,.2,0,.31a4.41,4.41,0,0,0,.64.73l-.63-.57a4.35,4.35,0,0,0,.22.86,8.67,8.67,0,0,0,1.53,2.26A32.88,32.88,0,0,0,262,185.94Z"/><path class="cls-4" d="M243.21,181.19c0-.2-.16-.4.07-.5.73-.2,1.36.42,2.09.19l0-.33c.58.1,1.19.25,1.81.34a33.43,33.43,0,0,0,3.32-.6c0-.12-.07-.22,0-.28a9.36,9.36,0,0,1,1.76-.18l.28-.11a.46.46,0,0,0,.06-.27c.3,0,.57,0,.82-.06a69.25,69.25,0,0,0,9.18-4.42,12.4,12.4,0,0,1,1.82-1.39,31.71,31.71,0,0,1,3.21-1.06c-.56-1,1.45-2.47.54-3.35.61-.22,1.51-.61,1.41-.93a3.33,3.33,0,0,1,.92-3.43c.51-.41,1.58-.5,1.69-.78.17-.44-1.06-.23-.89-.67L265,166.21a55.19,55.19,0,0,1-6.61,2.4,28.49,28.49,0,0,1-7,2.08,43.14,43.14,0,0,1-8.15.81l-.26,0a17.79,17.79,0,0,0-4.75.46c-.61.24-1.24.53-1.88.81.27.21.53.41.75.61a2.83,2.83,0,0,0-1.52.08c-1.4.36-.69,1-.21,1.84.36.37-.21.86.38,1.25-.44,0-.66-.08-1.11-.14-.07.33,1.38,0,1,.46a7.51,7.51,0,0,0-1.35-.06c.11.46,1.53.31,1.43.73-.26.1-1.21-.7-1.34-.17,0,.11.42.17.64.2-1.39,0-2.23.48-1,1.19a8.48,8.48,0,0,0-1.53-.32h0c.24,0,.63.19.85.22l-.8-.11a2.56,2.56,0,0,0,.11.24,2.2,2.2,0,0,0,.6.19l-.53-.07a4,4,0,0,0,.4.55c.6.41,1.18,1,1.53,1A45.39,45.39,0,0,0,243.21,181.19Z"/><path class="cls-4" d="M218,180.2c0-.2-.25-.37,0-.51.84-.32,1.66.17,2.5-.2v-.33c.7,0,1.45,0,2.19,0a33.72,33.72,0,0,0,3.81-1.34c-.07-.1-.12-.2,0-.28a13.92,13.92,0,0,1,2-.6l.31-.18a.43.43,0,0,0,0-.29q.51-.16.93-.27a61.06,61.06,0,0,0,9.74-7.15,16.89,16.89,0,0,1,1.76-2c1-.78,2.33-1.55,3.33-2.24-.83-.81,1-3-.16-3.58.62-.45,1.48-1.21,1.31-1.49-.54-.86-.81-2.05.13-3.82.43-.63,1.54-1.17,1.58-1.5.07-.51-1.18.22-1.12-.29-2,1.88-4,3.64-6.1,5.38a50.29,50.29,0,0,1-6.79,4.61,16.2,16.2,0,0,1-2.65,1.75,45,45,0,0,1-4.86,2.26,42,42,0,0,1-9.25,2.51l-.3.06c-.9.1-1.88.29-2.83.47a14.91,14.91,0,0,0-2.62.68c-.68.3-1.39.67-2.1,1,.34.17.66.35,1,.52a4,4,0,0,0-1.78.24c-1.59.47-.7,1.06-.05,1.85.46.34-.15.89.58,1.21-.52,0-.79,0-1.32,0,0,.34,1.62-.16,1.27.37a10.91,10.91,0,0,0-1.61.05c.18.45,1.84.19,1.77.6-.29.14-1.51-.59-1.61,0,0,.11.52.13.78.14-1.64.15-2.59.66-1.06,1.27a12.61,12.61,0,0,0-1.85-.19h0c.28,0,.77.14,1,.15l-1,0,.16.23a3,3,0,0,0,.74.14l-.65,0a4.45,4.45,0,0,0,.54.52,8.39,8.39,0,0,0,1.93.89A45.37,45.37,0,0,0,218,180.2Z"/><path class="cls-4" d="M197,181.43c-.07-.19-.32-.3-.09-.5.78-.51,1.71-.19,2.48-.72l-.07-.32c.71-.15,1.46-.27,2.21-.44,1.24-.62,2.48-1.24,3.67-1.94-.09-.09-.15-.19,0-.28a13.77,13.77,0,0,1,2-.89l.3-.21a.41.41,0,0,0,0-.29c.34-.15.64-.27.93-.38,3.3-2.37,6.5-5,9.86-7.86a18.23,18.23,0,0,1,1.93-2.06c1.05-.79,2.56-1.53,3.66-2.2-.8-.85,1.45-3.05.28-3.66.71-.44,1.75-1.15,1.62-1.45-.41-.92-.52-2.19.89-3.95.6-.62,1.9-1.07,2-1.41.19-.53-1.3.11-1.11-.43-5.24,3.5-10.07,7.19-15.59,10.37a54.41,54.41,0,0,1-8.27,5,86.2,86.2,0,0,1-9.92,4.46l-.31.14a29.76,29.76,0,0,0-5.7,2.69c-.66.52-1.32,1.1-2,1.67a11.13,11.13,0,0,1,1.16.2,4.67,4.67,0,0,0-1.82.8c-1.53,1-.4,1.25.51,1.78.58.17.11.89,1,1-.53.18-.81.25-1.35.41,0,.33,1.6-.7,1.4-.08a10.91,10.91,0,0,0-1.62.6c.33.36,1.92-.45,2,0-.25.2-1.7-.06-1.63.49,0,.11.56-.05.83-.13-1.61.7-2.38,1.49-.66,1.56a14.43,14.43,0,0,0-1.9.43h0c.29-.07.81-.12,1.07-.2l-1,.28.24.17a3.43,3.43,0,0,0,.77-.12l-.65.19a4.48,4.48,0,0,0,.7.31,8.86,8.86,0,0,0,2.17.21A82.28,82.28,0,0,0,197,181.43Z"/><path class="cls-4" d="M168.07,194.52c-.09-.18-.35-.27-.13-.49.75-.61,1.73-.41,2.48-1l-.11-.32c.71-.24,1.48-.45,2.23-.73,1.21-.79,2.42-1.58,3.56-2.45-.09-.08-.17-.16-.07-.28A16.1,16.1,0,0,1,178,188l.28-.25a.38.38,0,0,0,0-.29c.33-.21.63-.37.91-.52a124.2,124.2,0,0,0,9.1-9.42,19.93,19.93,0,0,1,1.7-2.39c.95-1,2.38-2,3.4-2.83-.92-.72,1-3.31-.24-3.72.66-.57,1.6-1.46,1.42-1.74-.55-.85-.84-2.09.3-4.12.51-.72,1.74-1.42,1.81-1.78.11-.56-1.29.35-1.18-.21l-6.92,6.66c-2.33,2.18-4.69,4.34-7.28,6.34a53.17,53.17,0,0,1-7.77,6.25,82.69,82.69,0,0,1-9.6,5.76l-.31.17A33,33,0,0,0,158,189.3c-.63.59-1.25,1.24-1.88,1.88.43,0,.84,0,1.2.07a5.25,5.25,0,0,0-1.79,1c-1.48,1.17-.31,1.29.67,1.73.61.11.19.88,1.06.86-.53.23-.81.33-1.35.55.07.33,1.58-.87,1.43-.23a12,12,0,0,0-1.62.77c.37.33,1.94-.65,2-.23-.24.24-1.76.12-1.64.66,0,.11.57-.1.84-.21-1.6.86-2.33,1.74-.56,1.63a14.34,14.34,0,0,0-1.92.63h0c.29-.1.82-.21,1.08-.31l-1,.38a2,2,0,0,0,.25.14,3.64,3.64,0,0,0,.79-.19l-.65.25a4,4,0,0,0,.74.24,10.14,10.14,0,0,0,2.26,0A78.37,78.37,0,0,0,168.07,194.52Z"/><path class="cls-4" d="M142.43,204.3c-.15-.13-.4-.14-.33-.38.32-.71,1.23-.75,1.55-1.46l-.22-.24c.48-.37,1-.73,1.51-1.11.67-.92,1.33-1.85,1.95-2.79-.11-.06-.21-.11-.17-.23a9.87,9.87,0,0,1,1.17-1.36,2.15,2.15,0,0,0,.14-.26.4.4,0,0,0-.13-.25,8.19,8.19,0,0,1,.58-.59c1.58-3,3.1-6.06,4.8-9.36a12.87,12.87,0,0,1,.86-2.24,24.23,24.23,0,0,1,2.34-2.7c-1-.6.2-3-1-3.31.47-.54,1.17-1.35.95-1.6a3.29,3.29,0,0,1-.46-3.72c.36-.67,1.4-1.29,1.41-1.62,0-.52-1.14.31-1.13-.2-3.74,4.06-6.74,8.46-10.23,12.78-.79,1.79-8.62,11.85-10.85,14.26l-.18.24a19.34,19.34,0,0,0-3.07,4.54c-.22.71-.41,1.47-.6,2.21.35-.13.69-.25,1-.33-.47.54-.93,1.08-.94,1.42-.58,1.49.41,1.19,1.39,1.22.53-.11.59.67,1.27.37l-.78.9c.22.25.79-1.24,1-.65-.38.28-.55.8-.86,1.16.45.15,1.16-1.18,1.46-.85-.09.27-1.3.67-.94,1.08.07.09.39-.27.54-.45-.79,1.24-.89,2.2.41,1.53-.3.35-.9.71-1.15,1.14h0c.17-.18.52-.44.67-.61l-.55.63.27,0a2.24,2.24,0,0,0,.5-.41q-.18.19-.36.42a5.47,5.47,0,0,0,.69-.05,8.15,8.15,0,0,0,1.72-.73C138.64,208.65,140.6,206.52,142.43,204.3Z"/><path class="cls-3" d="M167,241c1.21,16.78,22.58,18.28,22.19,10.51-.35-6.94-4.53-37,17.8-42.47S163,186.07,167,241Z"/></g></svg>