<?xml version="1.0" encoding="utf-8"?>
<!-- Generator: Adobe Illustrator 25.4.1, SVG Export Plug-In . SVG Version: 6.00 Build 0)  -->
<svg version="1.1" id="Lager_1" xmlns="http://www.w3.org/2000/svg" xmlns:xlink="http://www.w3.org/1999/xlink" x="0px" y="0px"
	 viewBox="0 0 500 500" style="enable-background:new 0 0 500 500;" xml:space="preserve">
<style type="text/css">
	.st0{fill:#F9CDDE;}
	.st1{fill:#CC0066;}
	.st2{fill:#1D1D1D;}
</style>
<g id="OUTLINE_ikons">
	<path class="st0" d="M239.9,127c-3.6-4.2-10.6-22.2-13.5-30.7s13.3-12.6,13.3-12.6l18.9,23.8l7.1-2.9l-6.5-39.2l8.8-3.2l11.8,1.4
		l2.6,40.3l24.8-34l16.8,6.6l-23.8,36.3L239.9,127z"/>
	<path class="st0" d="M305.6,202.4c0,0,13-18.6,50.2-11.8l-3.1,11.5c0,0-14.7-2.6-15.8,3.1s10.2,1.9,9,8.2s-18,1.4-17.7,12.9
		s2,31.6,7.5,41c0,0-12-13-30.1-19.1C305.7,248.4,302,207.2,305.6,202.4z"/>
	<path class="st1" d="M349.1,155.3c-0.2-40.9-18.2-49.8-58.7-55.1s-67.6,37.3-67.6,37.3s-9.3-32.6-12-33.8s-21.6,7.2-21.6,7.2
		c9.7,55.5-22.4,83.4-22.4,83.4s-33.1,34.1-27.4,56.3c8.3,32.1,3.5,18.9,6.1,74.8c2.8,60.4,35.9,71,43.6,76.5s42.5,32.1,64.8,35.6
		s34.5-13.5,65-49.8s40.8-82.7,21.4-115.1c-3.4-5.9-8.3-10.7-14.2-14c-10.9-6.4-18.3-17.3-20.1-29.8c-1-7.2-1.8-14-1.7-15.9
		c1.6-37.5,37.5-28.8,37.5-28.8s12-3.4,14.2-0.2s4.1-24.3,4.1-24.3L349.1,155.3z M266,174.4c0.2,1.1-5.6-27.6,12.5-31.1
		s31.2-6.4,39,12C317.4,155.3,264,162.8,266,174.4z"/>
	<path class="st2" d="M148.5,228c-0.2-0.1-0.7,0.6-0.3-0.6c1.3-3.6,3.3-6,5-9.4l-0.1-0.4c1.7-2.6,3.6-5,5.5-7.4
		c3.4-4.7,7.4-9.2,11.4-13.8c-0.2,0-0.3,0,0-0.5c1.6-1.9,4.1-4.5,6.5-7.4l1-1.3c0.1-0.2,0.2-0.4,0.2-0.6c1.1-1.3,2-2.5,2.9-3.6
		c2.8-3.9,5.1-8.1,7-12.4c1.9-4.5,3.4-9.1,4.3-13.9c1.7-9.5,1.6-19.3,0.7-29.2c-0.5-4.2-1.2-8.3-1.7-12.3c-0.1-1.2-0.3-2.4-0.4-3.8
		l-0.1-0.4v-0.2c0-0.1,0.1-0.1,0.2-0.1l0.9-0.3l1.7-0.5l9.1-2.6c-0.3-0.2,0.4-0.7,1.2-1.2c0.4-0.3,1-0.6,1.7-0.9l1-0.5l0.6-0.2
		l0.3-0.1l0.1-0.1h0.1l0,0c0.6,1.1,1.2,2.4,1.7,3.2s0.9,1.2,0.9,0.3l1.9,6.2c0.3,1.2,0.7,2.4,1.2,3.4c1.1,0.6,3.2,3.2,6.1,13.2
		c1.1,3.9,1.9,10.1,2.3,11.5c0.8,2.1-0.3-5.3,0.4-3.2c-1.4-7.5-3.1-14.8-5.1-22c-0.5-1.8-1-3.6-1.5-5.4l-0.8-2.7l-1.2-3.7l-1.7-5.3
		l-0.4-1.3l-0.2-0.7l-0.1-0.3c0,0,0-0.1-0.1-0.1h-0.2l-2.6,0.8l-8.8,2.7l-13.2,4l-2.6,0.8h-0.2c0,0-0.1,0-0.1,0.1v0.3l0.1,0.7
		l0.1,1.4l0.6,5.5l0.6,5.7c0.8,7.2,1,14.4,0.8,21.6c0,1.2-0.1,3.3-0.3,6c-0.1,1.4-0.3,2.9-0.6,4.5s-0.6,3.4-1.1,5.2
		c-1,4-2.4,8-4.3,11.7c-2.2,4.2-4.8,8.2-7.9,11.9c-6.2,7.8-13.8,15.4-19.6,22.9c-2.6,3.4-5,7-7.2,10.8c-1.9,3.3-3.3,6.2-4.2,8.3
		c-0.2,0.5-0.4,1.1-0.6,1.6c-2.1,5.1-3.6,10.4-4.4,15.8c-0.7,5.1-0.7,10.2,0.1,15.3c0.7,4.1,2,8,3.6,11.8c-0.2-0.9-0.4-1.8-0.6-2.6
		s-0.3-1.6-0.4-2.4c0.7,3.2,1.8,6.2,3.3,9.1c0.6,1.3,1.4,2.4,2.2,3.5c0.4,0.5,0.6,0.5,0.6,0.2c0-0.6-0.7-2.5-1-4.2
		c-0.3-1.1-0.1-1,0.2-1.1s0.4-0.2-0.1-1.9c0.2,0.6,0.4,1.1,0.6,1.6l0.6,1.3c0.4,0.9,0.9,1.7,1.4,2.8c0.2,0-0.8-1.6-1.5-3.2
		c-0.3-0.7-0.6-1.3-0.9-2c-0.2-0.5-0.2-0.7,0.1-0.3c0.4,1.2,0.9,2.4,1.5,3.5c0.6,1.1,1.3,2.3,2,3.3c-0.1-0.5-1.1-2.4-2-4.2
		s-1.4-3.6-1.2-3.5c0.2,0.5,0.4,1,0.6,1.6c0.2,0.7,0.6,1.5,0.9,2.2c0.7,1.5,1.4,2.9,1.8,2.9c0.1,0-1.1-2.1-1.6-3.3
		c1.2,2.4,2.7,4.5,4.5,6.5c0.9,0.8,0.6,0.1-1-2.9c1.4,2.3,3,4.5,4.9,6.5l0,0l-1.5-1.8l-1.3-1.8l1.3,1.6l1.4,1.6
		c-0.1-0.2-0.2-0.5-0.3-0.7l-1-1.2c-0.3-0.4-0.6-0.9-1-1.3c0.6,0.7,1.1,1.5,1.8,2.1c-0.4-0.6-0.7-1.3-1.1-2.1
		c-1.4-2.3-2.6-4.8-3.6-7.2c-3-6.4-4.6-13.4-4.5-20.5C144.2,241.7,145.8,234.6,148.5,228z"/>
	<path class="st2" d="M170.9,392.7c0.2-0.1-0.8-1.5,1,0.4c5.9,5.5,11,10,17.9,13.8h0.7c5.2,3.2,10.7,6.2,16.1,9.3
		c5.1,2.7,9.7,5.6,14.5,8.8s9.7,6.5,15.1,9.4c-0.2-0.3-0.3-0.4,0.8,0.1l1.8,0.9l2,0.9c1.3,0.7,2.8,1.3,4.4,1.9
		c3.4,1.4,7,2.3,10.7,2.9l3.5,0.2c0.4,0,0.9-0.1,1.3-0.3l2.6-0.1l2.4-0.3c0.8-0.1,1.6-0.2,2.3-0.4c0.8-0.1,1.5-0.4,2.2-0.6
		c4.5-1.5,8.6-3.8,12.3-6.7c3.5-2.7,6.8-5.7,9.9-8.9c6.2-6.2,12-12.8,17.4-19.8c11.2-14.4,20.3-30.3,27.3-47.1
		c2.9-7.4,5.4-15,7.4-22.3c0.4-1.4,0.8-2.8,1.2-4.2s0.8-2.9,1.2-4.4s0.8-3.1,1.1-4.6s0.7-3.1,0.9-4.7c1.1-6,1.7-12.2,1.7-18.3
		c-0.6,0.9-1-5.5-2.4-11.2c-0.6-2.4-1.3-4.7-2.3-7c-0.8-1.6-1.2-2.1-1.1-0.8c-1.1-3.7-2.8-7.3-4.8-10.6l-1.4-2.1
		c-0.4-0.6-0.8-1.1-1.3-1.6c-0.4-0.6-0.9-1.1-1.4-1.5c-0.7-0.3-1.3-0.6-1.9-1c-0.9-0.6-2-1.4-3.6-2.5c-5.2-3.6-10.7-6.7-16.5-9.2
		c-3.3-1.5-7.6-3.4-11.4-5s-7.2-2.8-8.5-3.2c-2-0.6,0.2,0.4,2.5,1.4s4.4,2,2.4,1.4c6.4,2.3,12.5,5.1,18.5,8.2
		c5.6,3,10.7,6.9,15,11.6c4,4.7,7.1,10.2,8.8,16.1c1.8,6.1,2.6,12.5,2.4,18.9c-0.1,6.6-0.9,13.2-2.3,19.6c-0.3,1.6-0.7,3.2-1.1,4.9
		s-0.9,3.2-1.3,4.9l-0.7,2.5l-0.8,2.4c-0.5,1.6-1,3.2-1.5,4.8c-4.4,13-10.2,25.4-17.3,37.2c-5.2,9-11.2,17.6-17.9,25.6
		c-5.3,6.4-11,12.4-17.1,18.1c-3.1,3-6.6,5.7-10.3,7.9c-1.8,1.1-3.7,1.9-5.7,2.6c-2,0.6-4,1-6.1,1.1c-4.3,0.2-8.5-0.6-12.5-2.1
		c-4.3-1.6-8.4-3.7-12.2-6.1c-4-2.4-7.8-5-11.7-7.6s-7.8-5.1-11.7-7.2c-7.7-4.3-14.7-7.8-20.3-11.2c-2.8-1.7-5.3-3.4-7.4-5
		c-1-0.8-2-1.5-2.9-2.3s-1.7-1.4-2.4-2.1s-1.4-1.3-2.1-1.9c-6.4-6.6-11.6-14.1-15.5-22.4c-3.7-7.8-6.4-16-8.3-24.4
		c-1.6-6.8-2.8-13.7-3.6-20.7c0,3.3,0.1,6.3,0.2,9c-0.8-7.1-1-14.4-1.3-17.1c-0.4-7.7-0.6-9.4-1-8.4s-0.6,4.7-0.9,7.7
		c-0.2,4.3-1-1.5-1,5.3c-0.2-4.9-0.2-7.3-0.3-12.2c-0.2-0.3-0.1,3.5,0,6.9s0.3,6.4-0.1,4.8c-0.1-4.7-0.4-9.9-0.4-14.8
		c-0.3,3-0.3,6-0.2,9c0.1,3.9,0.2,7.5,0,7.2c-0.1-1.3-0.1-4.8-0.1-8s0.1-6.2-0.2-6.7c-0.1-0.2-0.1,4.7-0.1,7.1
		c-0.2-7.5-0.3-13.4-0.5-15.6s-0.5-0.9-0.9,6c0-4.8,0.4-11.5,0.4-16.5l0,0c-0.1,2.5-0.3,6.8-0.3,9.1c0.1-2.9,0.1-5.7,0.2-8.6
		c-0.1,0.5-0.2,1-0.3,1.5c-0.1,2.1-0.2,4.3-0.3,6.5c0-1.9,0.1-3.8,0.1-5.7c-0.2,1.4-0.4,3-0.6,4.8c-0.5,6.8-1,13.3-0.9,17
		c0.1,14.9,1.3,30.2,5.6,45c1,3.7,2.3,7.3,3.8,10.9c1.5,3.6,3.2,7.1,5,10.5c1.9,3.4,4,6.7,6.2,9.9
		C165.7,386.8,168.2,389.9,170.9,392.7z"/>
	<path class="st2" d="M218.4,157.5c-0.2-0.1-0.6,0.6-0.4-0.5c0.8-3.4,2.3-5.9,3.5-9.1l-0.2-0.4c1.3-2.4,2.7-4.8,4.3-7
		c2.8-4.4,6.1-8.4,9.9-12c-0.2,0-0.3,0,0.1-0.4c2-1.9,4.2-3.7,6.5-5.3l1.1-0.9c0.2-0.3,0.3-0.4,0.3-0.5c1.2-0.8,2.3-1.5,3.3-2.2
		c6.5-4.7,13.5-8.6,20.9-11.6c7.8-3.2,16.1-5,24.5-5.4c3.7-0.3,7.4-0.2,11,0.3c2.8,0.5,5.6,1.3,8.3,2.3l2.1,0.8l2,1
		c1.3,0.6,2.5,1.3,3.6,1.9c0-0.3,0.7-0.3,1.7,0.1s2.4,0.9,3.6,1.6s2.5,1.3,3.3,1.6s1.2,0.4,0.9-0.2c2.9,2.2,6.4,6.4,6.8,6.5
		c0.6,0,1.7,0.3,3.3,1.8c0.4,0.4,0.8,0.8,1.3,1.3c0.5,0.6,1,1.2,1.5,1.8c1.3,1.7,2.4,3.6,3.3,5.6c0.4,1,0.8,2.1,1.1,3.2
		s0.5,2.4,0.8,3.5c0.1,0.3,0.1,0.6,0.2,0.8s0,0.5,0.1,0.8c0.1,0.5,0.1,1,0.1,1.4c0.1,0.6,0.1,1.3,0.3,1.9c0.1,0.5,0.2,0.4,0.2,0.1
		c0.1-0.6,0.1-1.1,0.1-1.7c0-1.4,0-2.8,0.3-1.6c-0.1-1-0.3-1.9-0.5-2.9c-0.2-0.9-0.4-1.9-0.7-2.9l-0.9-2.8c-0.3-0.9-0.8-1.8-1.1-2.7
		c-0.8-1.7-1.7-3.4-2.7-5.1c-0.5-0.8-1.1-1.6-1.6-2.3c-0.5-0.8-1.1-1.6-1.7-2.3l-1.8-2.2c-0.6-0.7-1.3-1.3-2-2l-1-1
		c-0.3-0.3-0.7-0.6-1-0.9l-2.2-1.9c-2.9-2.3-6-4.4-9.2-6.1c-1.6-0.9-3.3-1.6-5-2.4c-0.8-0.4-1.7-0.7-2.6-1s-1.7-0.7-2.6-0.9
		c-1.8-0.6-3.6-1-5.4-1.4c-0.9-0.2-1.8-0.4-2.7-0.5l-2.7-0.4c-0.9-0.2-1.8-0.2-2.7-0.3s-1.8-0.2-2.7-0.2c-1.8,0-3.7-0.1-5.5,0
		c-3.7,0.2-7.3,0.5-10.9,1.2c-5.4,1.2-10.6,2.7-15.8,4.7c-8.5,3.4-16.6,7.8-24.1,13.1c-8.1,5.7-15.6,13-20.6,20.5
		c-3.8,5.8-6.8,12.1-8.7,18.8c-0.1,0.5-0.3,1-0.4,1.5c-1.3,4.7-2.2,9.6-2.7,14.5c-0.5,4.5-0.6,9-0.4,13.5c0.2,3.7,0.8,7.3,1.6,10.9
		c0-0.9,0-1.7,0-2.5s0.1-1.5,0.1-2.2c0.1,3,0.6,5.9,1.5,8.7c1.2,3.8,1.9,4.5,2,3.9s-0.2-2.4-0.1-4c-0.2-2.1,1,0.5,0.6-2.7
		c0.4,1.9,0.8,3.8,1.4,5.6c0.2,0.1-0.4-1.6-0.8-3.2s-0.7-3-0.2-2.3c0.4,2.3,1.1,4.5,2,6.7c0-0.5-0.2-1-0.4-1.5
		c-0.2-0.8-0.5-1.6-0.7-2.6c-0.4-1.8-0.7-3.5-0.4-3.3c0.2,0.6,0.3,2.2,0.6,3.7s0.8,2.8,1.1,2.9c0.1,0.1-0.6-2.1-0.9-3.2
		c0.6,2.3,1.6,4.5,3,6.4c0.3,0.4,0.5,0.4,0.4,0c-0.1-0.3-0.2-0.7-0.3-1c-0.1-0.4-0.3-1-0.6-1.8c0.2,0.5,0.4,1,0.7,1.6l0.8,1.7
		c0.3,0.6,0.6,1.1,1,1.6s0.7,1,1,1.4l0,0c-0.3-0.4-0.7-1.1-1.1-1.7s-0.7-1.3-0.9-1.7c0.6,1.1,1.3,2.1,2,3.1
		c-0.1-0.2-0.1-0.4-0.2-0.7c-0.5-0.8-0.9-1.6-1.4-2.4c0.4,0.7,0.8,1.4,1.3,2.1c-0.2-0.6-0.4-1.3-0.7-2c-0.9-2.2-1.5-4.5-2-6.9
		c-1.6-6.1-1.7-12.9-1.2-19.7C215.7,170.8,216.7,164.1,218.4,157.5z"/>
	<path class="st2" d="M286,165.6c-0.1-0.2-0.9,0,0.2-0.7c1.6-0.8,3.4-1.4,5.2-1.8c1.8-0.4,3.5-0.7,5.5-1.2l0.2-0.4
		c3.1-0.5,6.6-0.9,10-1.1c6.3-0.9,12.6-1.4,19-1.6c-0.2-0.1-0.2-0.2,0.4-0.3c3.4-0.1,6.7,0,10.1,0.3h1.7c0.4,0,0.6-0.1,0.6-0.2
		c1.7,0.1,3.2,0.3,4.6,0.5c2.5,0.1,5.1,0.4,7.7,0.6l3.9,0.5c0.3,0,0.6,0.1,0.8,0.1l0.5,0.1c0.2,0,0.4,0.1,0.5,0.2
		c0.2,0.1,0.3,0.3,0.4,0.5c0.1,0.3,0.1,0.7,0.1,1c0,0.7-0.2,1.3-0.3,2c-0.2,0.8-0.4,1.6-0.7,2.4c-0.5,1.6-1.1,3.1-1.7,4.7
		c-0.3,0.8-0.7,1.5-1,2.3s-0.7,1.5-1.1,2.1c-0.3,0.5-0.6,0.9-1.1,1.3c-0.4,0.3-0.9,0.6-1.5,0.8c-1.5,0.4-3,0.5-4.5,0.3
		c-0.9-0.1-1.7-0.1-2.7-0.3s-1.9-0.2-2.9-0.3c-1.9-0.2-3.9-0.3-5.8-0.4c-4.6-0.1-9.2,0.4-13.6,1.5c-1.7,0.4-3.4,0.9-5,1.6
		c-1.8,0.7-3.4,1.7-5,2.8c-3,2.1-5.4,5-7.1,8.2c0.4-0.1,0.2,0.7-0.1,2c-0.1,0.6-0.3,1.4-0.5,2.2s-0.3,1.6-0.4,2.5
		c-0.4,3.3-0.3,6.3,0.5,4.9c-0.3,2.2-0.5,4.4-0.6,6.6c-0.1,1.3,0,2.6,0.2,3.8c0.5,0.5,1,1.5,1.6,3.7c0.4,1.5,0.6,3,0.8,4.5
		c0.2,1.8,0.4,4,0.7,6.6c0.2,2.1,0.4,4.2,0.9,6.3c0.2,1.2,0.7,2.4,1.5,3.4c0.4,0.4,0.5,0.4,0.3,0c-0.1-0.2-0.1-0.3-0.2-0.5
		c-0.1-0.2-0.1-0.4-0.2-0.6c-0.1-0.2-0.1-0.4-0.2-0.6s-0.1-0.4-0.1-0.6s0-0.3,0.3,0c-1-2.6-1.3-6.3-1.4-10c0-2,0-3.9-0.1-5.9
		s-0.1-3.9-0.1-5.9c-0.1-3.6,0.1-7.3,0.6-10.9c0.4-3.3,1.5-6.4,3-9.3c1.5-2.6,3.6-4.8,6.2-6.3c1.4-0.8,2.8-1.4,4.3-1.8
		c1.6-0.5,3.3-0.8,4.9-0.9c3.6-0.3,7.2-0.3,10.8,0.1c1.9,0.2,3.8,0.5,5.7,0.8c2.4,0.4,4.7,0.6,7.1,0.5c0.8-0.1,1.7-0.2,2.5-0.4
		c1.3-0.3,2.4-0.8,3.6-1.5c1.4-0.8,2.6-2,3.6-3.3c0.4-0.6,0.8-1.2,1.2-1.9c0.3-0.6,0.6-1.2,0.9-1.8c1.4-2.7,2.5-5.5,3.5-8.3
		c0.3-0.8,0.5-1.6,0.8-2.4c0.3-1,0.5-2.1,0.6-3.1c0-0.3,0-0.6,0.1-0.9c0-0.2,0-0.3,0-0.5s0-0.4,0-0.6c0-0.8-0.2-1.6-0.4-2.3
		c-0.4-1.5-1.2-2.9-2.4-4.1c-1.1-1.1-2.5-1.9-4-2.3c-1-0.3-2.1-0.6-3.2-0.7c-1.7-0.3-3.5-0.6-5.3-0.8c-3.6-0.5-7.3-0.8-11.1-1.1
		c-7.4-0.5-14.8-0.5-22.2,0c-6.5,0.4-13,1.2-19.4,2.3c-4.7,0.8-9.3,2-13.7,3.6c-0.6,0.2-1.2,0.5-1.7,0.8c-5.6,2.4-10.6,6-14.7,10.4
		c-3.8,4-6.9,8.6-9.2,13.7c-1.7,4-2.9,8.1-3.7,12.4c0.6-1.7,1.4-3.4,2.2-5c-0.2,0.5-0.4,1-0.6,1.5s-0.3,1-0.5,1.5
		c-0.3,1-0.6,1.9-0.8,2.8c-0.3,1.3-0.6,2.7-0.7,4.1c-0.5,4.6-0.2,5.6,0.1,5s1-2.6,1.7-4.2c0.8-2.3,0.6,1,1.8-2.6
		c-0.3,1.1-0.5,2.2-0.7,3.3c-0.1,1-0.4,2-0.5,3.4c0.3-1.2,0.6-2.5,0.7-3.8c0.3-1.9,0.8-3.5,0.8-2.6c-0.2,0.6-0.3,1.3-0.5,1.9
		s-0.2,1.4-0.3,2.1s-0.2,1.4-0.3,2.1s-0.1,1.4-0.2,2c0.2-0.6,0.3-1.2,0.4-1.8c0.1-0.9,0.4-2,0.5-3.1c0.1-0.9,0.4-1.9,0.6-2.8
		c0.2-0.7,0.4-1.1,0.5-1c-0.3,1.4-2,7.3-1.4,7.9c0.1-0.5,0.2-0.9,0.2-1.4c0.1-0.8,0.3-1.8,0.4-2.5c-0.1,1-0.3,2-0.4,2.9
		s-0.1,1.7-0.1,2.4c-0.1,1.1,0,2.1,0.1,3.2c0.1,0.6,0.2,0.7,0.4,0.2c0.1-0.4,0.2-0.8,0.2-1.2c0.1-0.6,0.2-1.3,0.4-2.2
		c-0.2,1.3-0.2,2.8-0.3,4.4c-0.1,1.5,0,3,0.1,4.5l0,0c0-0.7,0-1.6,0-2.5c0-0.4,0-0.9,0-1.3s0-0.8,0.1-1.1v1.1v1.1l0.1,2.3
		c0.1-0.2,0.1-0.5,0.2-0.8c0-1.1,0-2.3,0-3.5c-0.1,1,0,2,0,3c0.2-0.8,0.3-1.6,0.4-2.6c0.2-1.8,0.4-3.5,0.8-5
		c0.2-0.8,0.3-1.5,0.4-2.1s0.3-1.2,0.4-1.7c0.3-1.9,0.8-3.8,1.2-5.6s1.1-3.7,1.8-5.5c0.7-1.8,1.5-3.5,2.3-5.2
		c0.9-1.7,1.9-3.3,2.9-4.9c2.1-3.1,4.5-5.9,7.4-8.4c0.3-0.3,0.7-0.6,1-0.9l1.1-0.8c0.7-0.6,1.5-1.1,2.2-1.6l2.3-1.4L286,165.6z"/>
	<path class="st2" d="M279.5,147.2c-0.1-0.2-0.4-0.2-0.2-0.5c0.6-0.7,1.6-0.4,2.2-1l-0.1-0.3c0.7-0.2,1.4-0.3,2-0.5
		c0.6-0.3,1.1-0.5,1.7-0.8s1.1-0.5,1.7-0.7c-0.1-0.1-0.1-0.2,0-0.3c0.3-0.1,0.6-0.2,0.9-0.2l1.1-0.1l0.3-0.1
		c0.1-0.1,0.1-0.2,0.1-0.3c0.3,0,0.6,0,0.9,0c0.9-0.2,1.8-0.4,2.7-0.5c1-0.1,1.9-0.1,2.9-0.1c2.1,0.1,4.2,0.5,6.2,1.2
		c0.5,0.1,1,0.2,1.4,0.4c0.5,0.1,0.9,0.3,1.4,0.6c0.6,0.4,1.2,0.9,1.8,1.4l0.8,0.8c0.2,0.3,0.5,0.6,0.7,0.8c0.3-0.4,1.2-0.2,2,0.1
		s1.6,0.6,1.8,0c0.6,0.8,1.3,2.2,1.7,2c0.6-0.2,1.2-0.1,1.8,0.2c1,0.5,1.8,1.4,2.3,2.4c0.1,0.3,0.3,0.6,0.4,0.9
		c0.1,0.4,0.1,0.7,0.2,1.1c0,0.5,0.1,1,0.3,1.4c0.2,0.2,0.3-0.1,0.4-0.5s0.1-0.9,0.4-0.6c-0.1-0.6-0.2-1.2-0.4-1.7l-0.6-1.7
		l-0.3-0.8l-0.4-0.8l-0.8-1.6c-1.1-2-2.5-3.8-4-5.4c-3.1-3.2-6.9-5.6-11-7.2c-0.2,0-0.4-0.1-0.7-0.2l-1.1-0.3l-1.4-0.4l-1.7-0.3
		c-2.8-0.5-5.7-0.5-8.6-0.2c-2.9,0.4-5.7,1.2-8.4,2.4c-1.8,0.8-3.6,1.7-5.3,2.7l-0.4,0.3c-2.3,1.4-4.3,3.2-6,5.3
		c-0.6,0.9-1.1,1.8-1.5,2.7c0.4-0.2,0.9-0.3,1.3-0.5c-0.6,0.5-1.2,1.1-1.6,1.8c-1.1,1.9,0.2,1.4,1.3,1.4c0.6-0.2,0.5,0.8,1.4,0.4
		c-0.5,0.4-0.7,0.7-1.1,1.1c0.2,0.3,1.2-1.5,1.3-0.8c-0.5,0.4-0.9,0.9-1.3,1.4c0.5,0.1,1.6-1.5,1.9-1.1c-0.2,0.3-1.6,0.9-1.3,1.3
		c0.1,0.1,0.5-0.4,0.7-0.6c-1.2,1.5-1.5,2.6,0.1,1.8c-0.5,0.4-1.1,0.9-1.5,1.4l0,0c0.2-0.2,0.7-0.6,0.9-0.8l-0.7,0.8h0.3
		c0.2-0.2,0.4-0.3,0.6-0.5l-0.5,0.5c0.3,0,0.5-0.1,0.8-0.1c0.7-0.2,1.4-0.6,2.1-0.9C273.8,151.2,276.6,149.1,279.5,147.2z"/>
	<path class="st2" d="M229.6,99.7c-0.1,0-0.1,0.2-0.3-0.1c-0.3-1-0.1-1.9-0.4-2.9h-0.2c-0.1-0.8-0.1-1.6-0.1-2.4
		c-0.1-0.5-0.1-1,0-1.5c0.1-0.4,0.3-0.7,0.6-0.9c-0.1,0-0.1-0.1,0-0.2c0.6-0.5,1.2-0.8,1.8-1.2l0.4-0.2c0.1,0,0.1-0.1,0.1-0.2
		c0.4-0.2,0.7-0.4,1-0.6l5.8-4l0.4-0.3c0.1-0.1,0.2-0.1,0.4-0.1c0.3,0,0.5,0.1,0.7,0.3c0.4,0.4,0.7,0.8,1,1.3l1.1,1.6
		c0.7,0.9,1.4,1.7,2,2.6c0.9,1.3,1.8,3.1,2.6,4.4c0.4-0.5,2.5,2.6,2.7,1.6c0.4,0.8,0.9,1.5,1.5,2.2c0.5,0,1.4,0.3,3.1,2.5
		c0.6,0.9,1.3,2.4,1.6,2.7c0.4,0.4-0.4-1.4,0-0.9c-2-3.4-4-6.7-6-10l-3.1-5c-0.5-0.8-1-1.7-1.5-2.5l-0.8-1.3c-0.3-0.5-0.6-1-1-1.5
		c-0.7-0.9-1.6-1.5-2.7-1.8c-0.8-0.2-1.6-0.2-2.4,0c-0.7,0.2-1.4,0.5-2,0.9l-6.5,4c-0.6,0.4-1.2,0.7-1.8,1.1c-0.7,0.5-1.4,1-2,1.7
		c-0.7,0.8-1.2,1.7-1.4,2.7c-0.2,0.8-0.3,1.7-0.2,2.5c0.1,1.2,0.2,2.4,0.5,3.5c0.2,0.9,0.3,1.8,0.4,2.3l0.1,0.4
		c0.5,2.7,1.3,5.4,2.5,7.8c0.5,0.9,1.2,1.8,1.8,2.7c-0.2-0.4-0.3-0.9-0.4-1.3c0.2,0.5,0.5,1,0.7,1.4c0.2,0.3,0.4,0.6,0.6,0.8
		c1.6,1.8,1,0.5,0.8-0.4c-0.2-0.6,0.5-0.1,0.1-1c0.3,0.5,0.6,1,0.9,1.4c0.1,0-0.2-0.4-0.5-0.8s-0.5-0.7-0.2-0.6
		c0.3,0.6,0.7,1.1,1.2,1.6c-0.1-0.4-0.3-0.8-0.6-1.1c-0.3-0.5-0.5-0.9-0.4-0.9c0.2,0.3,0.4,0.7,0.5,1c0.2,0.4,0.4,0.7,0.6,0.7
		s-0.3-0.6-0.5-0.8c0.4,0.6,0.9,1.1,1.4,1.5c0.3,0.2,0.3-0.1-0.2-0.8c0.2,0.2,0.4,0.5,0.6,0.8c0.2,0.3,0.5,0.5,0.7,0.8l0,0l-0.8-0.9
		l0.8,0.8l-0.1-0.2c-0.2-0.2-0.3-0.4-0.5-0.6l0.5,0.5c-0.1-0.2-0.1-0.4-0.2-0.6c-0.4-0.7-0.7-1.5-1-1.9
		C231.4,107.4,230.4,103.6,229.6,99.7z"/>
	<path class="st2" d="M261.8,78.5c-0.1,0-0.2,0.3-0.3-0.1c-0.2-1.4,0-2.6-0.2-4l-0.2-0.1c0-1.1,0-2.2,0.1-3.4s-0.1-2.2-0.1-3.2
		c0-0.2,0-0.5,0-0.7c0,0,0-0.1,0-0.1s-0.1-0.1,0-0.1c0.9-0.4,1.9-0.7,2.9-1l0.5-0.2c0.1,0,0.1-0.1,0.1-0.2c0.5-0.2,1-0.3,1.5-0.4
		c2.8-0.9,5.6-1.3,8.3-0.4c1.3,0.4,2.4,1.2,3.2,2.4c0.8,1.3,1.2,2.8,1.2,4.3c0.2,1.4,0.2,2.9,0.2,4.3c0,2.1-0.3,4.8-0.5,6.8
		c0.6-0.3,0.5,4.8,1.2,3.8c-0.2,1.2-0.2,2.4-0.1,3.6c0.5,0.4,0.9,1.5,0.9,5.2c-0.1,1.4-0.5,3.6-0.5,4.1c0.1,0.8,0.5-1.8,0.6-1
		c0.6-5.3,1.1-10.5,1.4-15.8c0.2-2.6,0.3-5.2,0.4-7.9c0.1-1.4,0.1-2.8,0-4.2c-0.1-1.7-0.5-3.3-1.2-4.8c-0.5-0.9-1.1-1.7-1.9-2.4
		c-1.2-1.1-2.6-1.9-4.1-2.4c-1.8-0.6-3.7-0.8-5.7-0.7c-2,0.2-3.9,0.6-5.8,1.2c-0.9,0.3-1.8,0.6-2.7,0.9c-0.4,0.2-0.9,0.3-1.5,0.6
		c-0.2,0.1-0.3,0.1-0.5,0.2c-0.2,0.1-0.4,0.2-0.5,0.3c-0.3,0.2-0.7,0.5-0.9,0.9c-0.5,0.6-0.9,1.4-1,2.2c-0.1,0.6-0.1,1.1-0.1,1.7
		c0,0.9,0,1.8,0.1,2.6c0.1,3.3,0.3,6.1,0.4,7.7l0.1,0.6c0.3,3.6,0.9,7.1,1.8,10.6c0.4,1.3,0.8,2.6,1.3,3.9c0-0.6-0.1-1.2-0.1-1.8
		c0.2,1.1,0.4,2.2,0.8,3.2c0.9,2.8,0.8,1.1,0.9-0.1c0-0.8,0.5,0.2,0.4-1.1l0.5,2.2c0.2,0.1-0.7-2.7-0.3-2.2c0.1,0.9,0.5,1.8,0.7,2.7
		c0.1-0.4-0.7-3.1-0.4-3c0.1,0.5,0.3,2.6,0.6,2.7c-0.1-0.4-0.1-0.9-0.2-1.3c0.7,2.7,1.4,4.1,1,1.6c0.2,0.9,0.4,2.1,0.7,3l0,0
		c-0.1-0.4-0.3-1.2-0.4-1.7l0.4,1.5c0-0.1,0-0.2,0-0.3c-0.1-0.4-0.1-0.8-0.2-1.2l0.3,1c0-0.3,0-0.6,0-0.9c-0.1-1.3-0.2-2.5-0.3-3.1
		C263.1,89.3,262.3,83.9,261.8,78.5z"/>
	<path class="st2" d="M301.6,81.4c-0.1-0.1-0.3,0.1-0.1-0.3c0.8-1.1,1.7-1.8,2.4-2.9l-0.1-0.2l2.2-2.4l1.8-2.4l0.2-0.3l0.1-0.1l0,0
		l0,0c0,0,0,0,0.1,0s0-0.1,0-0.1s0,0,0.1,0l0.7,0.2l1.6,0.4l0.5,0.1c0.1,0,0.2,0,0.2-0.1c0.5,0.2,0.9,0.3,1.4,0.4
		c2.8,0.7,5.5,1.6,8.2,2.7l0.3,0.1l0.2,0.1l0.2,0.1c0.2,0,0.3,0.1,0.4,0.2c0.2,0.3,0.3,0.6,0,0.9l-0.1,0.2v0.1l-0.1,0.1l-0.2,0.2
		l-0.6,1l-1.3,2c-0.7,1.2-1.4,2.4-2.2,3.4c-1.2,1.6-2.9,3.4-4.1,4.8c0.6,0.2-2.3,3.8-1.2,3.5c-0.8,0.8-1.5,1.6-2.2,2.5
		c0.1,0.6-0.1,1.7-2.4,4.3c-0.9,1-2.6,2.2-2.9,2.6c-0.5,0.6,1.5-0.9,1.1-0.3c3.7-3.3,7.3-6.9,10.5-10.7c1.6-1.9,3.2-3.8,4.7-5.8
		c0.8-1,1.5-2,2.2-3l1.1-1.5l0.5-0.8l0.3-0.4c0.2-0.2,0.4-0.5,0.5-0.8c0.7-1.1,0.9-2.4,0.5-3.7c-0.3-0.9-1-1.7-1.8-2.2
		c-0.2-0.2-0.5-0.3-0.8-0.4l-0.6-0.3l-0.9-0.4c-3-1.4-6.1-2.6-9.3-3.5c-0.9-0.2-1.7-0.5-2.6-0.7l-1.6-0.3l-2.3-0.4h-0.1v0.1
		l-0.1,0.1l-0.2,0.2l-0.4,0.5l-0.7,0.9l-1,1.2l-1.4,1.9c-1.9,2.4-3.4,4.4-4.4,5.5l-0.3,0.4c-2,2.5-4.4,5.6-5.9,7.9l-2,3.3
		c0.4-0.4,0.8-0.8,1.2-1.1c-0.7,0.8-1.3,1.6-1.8,2.5c-1.5,2.3-0.3,1.3,0.6,0.7c0.6-0.5,0.2,0.5,1-0.3c-0.5,0.7-0.8,1-1.3,1.7
		c0.1,0.2,1.5-2.1,1.4-1.5c-0.5,0.6-1,1.4-1.6,2.1c0.4-0.1,1.9-2.3,2-2.1c-0.2,0.4-1.7,1.7-1.6,2c0.3-0.3,0.6-0.6,0.8-0.9
		c-1.5,2.1-2.2,3.4-0.5,1.7c-0.5,0.7-1.3,1.5-1.8,2.2l0,0l1-1.2l-0.9,1.2l0.2-0.1c0.3-0.3,0.5-0.6,0.8-0.9l-0.6,0.8
		c0.3-0.2,0.5-0.3,0.7-0.5c0.9-0.8,1.8-1.6,2.2-2.1C295.1,89.5,298.4,85.5,301.6,81.4z"/>
	<path class="st2" d="M351.8,198.1c0.1,0,0.3-0.3,0.2,0.3c-0.1,0.4-0.2,0.9-0.4,1.3l-0.1,0.3c0,0.1,0,0,0,0h-0.1c-0.1,0-0.1,0-0.2,0
		l-0.1,0.1L350,200l-1.3-0.2c-0.9-0.1-1.7-0.2-2.6-0.2c-1.6,0-3.2,0.2-4.8,0.5c-1.8,0.3-3.5,1-5,2.1c0.1,0,0.2,0-0.1,0.3
		c-0.4,0.3-0.7,0.6-1,1c-0.4,0.5-0.7,1-0.9,1.6c-0.5,1.4-0.5,2.9,0.1,4.2c0.2,0.4,0.5,0.8,0.8,1.2c0.1,0.1,0.3,0.2,0.5,0.3
		c0.5,0.4,1.1,0.8,1.8,0.9c0.5,0.1,1,0.2,1.5,0.2c1.4,0,2.4-0.2,3.1-0.2c0.5,0,1,0.3,1.4,0.7c0.4,0.5,0.7,1.1,0.7,1.8
		c0.1,0.6-0.2,1.2-0.7,1.5c-1,1-3.1,1.1-5.4,1.1c-1.2,0-2.4,0.1-3.7,0.2c-1.4,0.2-2.7,0.8-3.7,1.7c-0.8,0.8-1.4,1.8-1.8,2.9
		c-0.4,1-0.6,2-0.8,3c-0.6,3.1-1.1,6.1-1.4,9.2c0.3-0.2,0.4,1.4,0.6,2.9s0.4,2.8,0.7,2.1c-0.1,1.6,0,3.1,0.3,4.7
		c0.5,0.4,1.1,1.8,2.1,6.4c0.4,1.8,0.8,4.6,1.1,5.2c0.4,1-0.2-2.4,0.2-1.5c-1.5-6.6-2-13.4-1.5-20.2c0.1-1.7,0.3-3.4,0.6-5
		c0.1-0.8,0.3-1.7,0.4-2.5c0.1-0.7,0.3-1.5,0.6-2.2c0.2-0.6,0.5-1.2,0.8-1.7c0.3-0.4,0.7-0.7,1.1-0.9c1.3-0.5,2.6-0.6,4-0.5
		c0.6,0,1.6,0,3.2-0.1c1,0,2-0.2,2.9-0.5c0.6-0.2,1.2-0.5,1.7-0.8c0.3-0.2,0.6-0.4,0.8-0.6c0.3-0.3,0.6-0.6,0.8-0.9
		c0.5-0.7,0.8-1.5,1-2.3c0.2-0.8,0.2-1.6,0-2.4c-0.1-0.8-0.4-1.6-0.8-2.3c-0.4-0.8-1-1.5-1.6-2c-0.7-0.6-1.6-1-2.5-1.2
		c-0.8-0.2-1.6-0.2-2.4-0.1c-0.7,0-1.2,0.1-1.6,0.1c-0.1,0-0.3,0-0.5,0c0,0-0.1,0-0.1-0.1c-0.1,0-0.1-0.1-0.1-0.2
		c-0.1-0.2-0.1-0.4,0-0.6c0-0.1,0.1-0.2,0.1-0.3c0.1-0.1,0.2-0.2,0.2-0.3c0.3-0.3,0.6-0.5,0.9-0.6c0.9-0.4,1.8-0.7,2.8-0.8
		c1-0.2,2-0.3,3-0.3c0.9,0,1.9,0,2.8,0.1c0.5,0,0.9,0.1,1.3,0.2c0.6,0.1,1.2,0.2,1.8,0.2c1.5,0,2.8-0.7,3.6-1.9
		c0.2-0.3,0.3-0.6,0.4-0.9c0.1-0.3,0.2-0.6,0.3-0.8l0.3-0.9l0.2-0.8c0.3-1.2,0.6-2.4,0.9-3.6l0.2-0.9l0.2-1.1
		c0.2-1.2,0.3-2.3,0.5-3.4c0.1-0.6,0.1-1.1,0.2-1.7v-0.4c0-0.1-0.2,0-0.4,0h-0.8c-1.1,0-2.2,0.1-3.2,0.2l-1.5,0.1l-0.8,0.1l-1.5,0.1
		l-5.4,0.7l2.3,0.2c-1.9,0.1-3.7,0.2-4.4,0.3c-3.9,0.4-1.7,0.6-0.1,0.9c1.1,0.1-0.4,0.4,1.4,0.6l-3.1,0.1c-0.1,0.2,3.8-0.3,2.9,0
		c-1.2,0-2.5,0.2-3.7,0.2c0.4,0.2,4.2-0.1,4.1,0.1c-0.7,0.1-3.5-0.1-3.7,0.1c0.6,0,1.2,0,1.8,0c-3.8,0.3-5.8,0.6-2.4,0.8
		c-1.2,0.1-2.9,0-4.2,0.1l0,0h2.3l-2.2,0.1l0.4,0.1c0.5,0,1.1,0,1.6,0l-1.4,0.1c0.4,0.1,0.8,0.1,1.2,0.2c1.7,0.1,3.4,0.3,4.3,0.2
		l10.9-0.4h0.1v0.1l-0.4,2.1C352.2,196.4,352,197.2,351.8,198.1z"/>
	<path class="st2" d="M210.7,270.1c0.1-0.1-0.2-0.5,0.4,0c1.7,1.8,3.5,3.4,5.6,4.8h0.2c1.7,1.2,3.4,2.3,5.2,3.4
		c3.4,1.7,7,3.1,10.7,4.2c-0.1-0.1-0.1-0.1,0.3-0.1c1.5,0.5,3.5,1.1,5.5,1.8c0.3,0.1,0.6,0.2,0.9,0.3c0.1,0,0.2,0,0.4,0
		c0.7,0.3,1.4,0.7,2.1,1.1c1,0.5,1.8,1.2,2.6,2c0.7,0.8,1.2,1.8,1.5,2.8c0.6,2.2,0.4,4.8,0.2,7.6c-0.1,1.4-0.2,2.9-0.2,4.4
		c0,1.6,0.3,3.1,0.7,4.6c0.9,3,2.3,5.6,3.2,8.2c0.8,2.3,1.2,4.6,1.2,7c0,3.5-0.9,8-1.7,11.4c0.3-0.2,0.1,1.8,0,3.7s-0.2,3.6,0.2,2.8
		c-0.2,1.1-0.4,2.6-0.5,3.7c-0.1,0.7-0.1,1.5,0,2.2c0.4,0.6,0.7,1.3,0.8,2.1c0.4,1.9,0.9,3.8,1.6,5.7c0.4,1.1,0.9,2.2,1.4,3.3
		c0.4,0.7,0.9,1.4,1.5,2c0.3,0.2,0.3,0.2,0.2,0l-0.4-0.8c-0.4-0.5-0.6-1.2-0.3-0.8c-1.1-1.6-1.8-3.4-2.3-5.2c-0.4-2-0.6-4-0.6-6
		c0-2.1,0.2-4.2,0.6-6.2c0.4-2.1,0.8-4.2,1.2-6.4c1.1-4.5,1.6-9.2,1.4-13.9c-0.2-2.5-0.7-4.9-1.5-7.2c-0.8-2.2-1.7-4.3-2.3-6.2
		c-0.3-1-0.5-2.1-0.6-3.2c0-2,0.1-4.1,0.3-6.1c0.1-1.4,0.2-2.8,0.2-4.2c0-1.7-0.3-3.4-0.9-5c-0.7-1.8-1.8-3.3-3.2-4.6
		c-1.4-1.2-2.9-2.1-4.6-2.8c-3.2-1.4-6.3-2.1-9.1-3.1c-2.7-0.9-5.3-2-7.9-3.2c-3.7-1.7-7-4-9.9-6.8l-0.6-0.6c-2-2-3.6-4.3-4.7-6.9
		c-1-2.4-1.6-4.9-1.6-7.5c-0.1-2.1,0.1-4.2,0.7-6.2c-0.2,0.4-0.4,0.9-0.6,1.3l-0.4,1.2c0.1-0.5,0.2-1.1,0.4-1.6l0.5-1.4
		c0.4-0.8,0.6-1.5,0.8-1.9s0.5-0.9,0.7-1.2s0.3-0.5,0.4-0.7c0.2-0.3,0.2-0.4,0-0.4c-0.3,0.2-0.5,0.4-0.8,0.6c-0.3,0.3-0.6,0.7-1,1.1
		c-0.4,0.5-0.5,0.4-0.6,0.3s-0.2-0.1-0.8,0.9l0.5-1c0.2-0.3,0.3-0.5,0.5-0.8l0.5-0.8c0.2-0.3,0.4-0.5,0.6-0.8
		c-0.5,0.5-1,1.1-1.3,1.8c-0.2,0.4-0.5,0.8-0.7,1.2c-0.1,0.3-0.2,0.4-0.2,0.1c0.7-1.5,1.6-2.8,2.6-4.1c-0.3,0.2-0.6,0.5-0.8,0.8
		l-0.6,0.7c-0.2,0.3-0.4,0.6-0.5,0.8s-0.3,0.6-0.5,0.8l-0.4,0.7c-0.2,0.4-0.4,0.6-0.4,0.6s0.3-0.6,0.5-1s0.6-0.9,0.9-1.3
		c0.3-0.4,0.5-0.8,0.9-1.2c0.2-0.2,0.3-0.4,0.4-0.7c-0.6,0.6-1.1,1.2-1.5,1.9c0.9-1.5,2-2.9,3.3-4.1c0.3-0.3,0.3-0.4,0-0.2
		c-0.2,0.1-0.5,0.3-0.7,0.4c-0.3,0.2-0.6,0.5-1.1,0.9c1.4-1.4,3-2.5,4.7-3.4l0,0c-1,0.5-1.9,1-2.7,1.7c0.8-0.6,1.6-1.2,2.5-1.6
		l-0.5,0.2c-0.7,0.3-1.4,0.7-2,1.2c0.3-0.2,0.5-0.4,0.8-0.6l0.9-0.5c-0.6,0.2-1.1,0.4-1.6,0.7c-0.5,0.3-1,0.6-1.5,1l-1.3,1.1
		c-0.6,0.6-1.2,1.3-1.7,2c-2.9,4.5-4.1,9.9-3.3,15.2c0.4,2.6,1.2,5.2,2.4,7.5C207.3,266.1,208.9,268.2,210.7,270.1z"/>
	<path class="st2" d="M218.4,287.8c0.1,0.1,0.3,0,0.1,0.2c-0.4,0.8-1.1,1.3-1.4,2.2l0.1,0.1c-0.2,0.3-0.4,0.6-0.6,1
		s-0.3,0.7-0.5,1.1c-0.4,1.5-0.5,3.1-0.3,4.6c0.1,0,0.1-0.1,0.1,0.1c0.1,0.6,0.2,1.4,0.4,2.2l0.1,0.3c0,0.1,0.1,0.1,0.2,0.1
		c0.1,0.3,0.2,0.6,0.2,0.9c0.7,1.8,1.6,3.4,2.2,4.9c0.6,1.7,1,3.4,1.2,5.2c0.2,0.8,0.2,1.6,0.2,2.4c-0.1,1.2-0.4,2.5-0.9,3.6
		c0.3,0,0.3,0.7,0.3,1.3s0,1.3,0.3,1.1c-0.3,0.6-0.6,1.2-0.8,1.9c0.3,0.4,0.6,1.2-0.4,3.3c-0.4,0.8-1.5,1.7-1.6,2
		c-0.2,0.5,1-0.7,0.8-0.2c4.4-5.1,6.4-11.8,5.5-18.5c-0.2-1.2-0.5-2.5-0.9-3.7c-0.5-1.7-1.4-3.6-1.9-5.4c-0.3-0.8-0.4-1.7-0.5-2.5
		c0-0.7,0.1-1.5,0.2-2.2c0.3-1.1,0.8-2.2,1.5-3.2l0.1-0.2c1-1.4,2.4-3.2,3.3-4.7c0.4-0.7,0.7-1.4,1-2.2c-0.3,0.2-0.6,0.5-0.8,0.6
		c0.4-0.5,0.8-1,1.1-1.6c0.7-1.6-0.1-0.9-0.7-0.6c-0.4,0.3-0.3-0.4-0.8,0.1c0.3-0.4,0.4-0.6,0.7-1.1c-0.1-0.1-0.8,1.4-0.8,0.9
		c0.3-0.4,0.6-0.8,0.8-1.3c-0.2,0-1,1.4-1.1,1.2c0.1-0.2,1-1,0.8-1.2c0,0-0.3,0.4-0.4,0.6c0.7-1.4,0.9-2.2-0.1-1.2
		c0.3-0.4,0.6-0.9,0.8-1.4l0,0c-0.1,0.2-0.4,0.6-0.4,0.8l0.4-0.7l-0.2,0.1c-0.1,0.2-0.2,0.3-0.3,0.5l0.2-0.5
		c-0.2,0.1-0.3,0.2-0.4,0.3c-0.4,0.5-1,0.9-1.2,1.2C222.5,282.7,220.3,284.9,218.4,287.8z"/>
	<path class="st2" d="M265,318.8c0-0.1-0.1-0.2,0.1-0.2c0.3,0,0.7,0.1,1,0.3c0.3,0.2,0.6,0.3,0.9,0.4l0.1-0.1
		c0.4,0.3,0.9,0.6,1.2,0.9c0.8,0.6,1.5,1.3,2.1,2.2c0-0.1,0.1-0.1,0.1,0c0.3,0.5,0.6,1.1,0.9,1.6l0.2,0.3c0,0,0.1,0.1,0.2,0
		c0.1,0.3,0.2,0.6,0.3,0.9c0.9,1.6,1.7,3.4,2.8,5.3c1,2,2.5,3.8,4.3,5.2c0.8,0.5,1.7,1,2.6,1.3c1.3,0.6,2.8,1,4.2,1.2
		c-0.1-0.3,0.7-0.4,1.4-0.6s1.3-0.4,1-0.7c0.7,0.1,1.4,0,2.1-0.2c0.2-0.5,0.7-1.1,2.8-1.7c0.8-0.2,2.1-0.2,2.4-0.4
		c0.4-0.2-1.1-0.1-0.7-0.4c-2.9,0.5-5.8,0.7-8.7,0.5c-1.2-0.1-2.5-0.5-3.6-1.1c-1.1-0.6-2-1.5-2.6-2.6c-0.7-0.9-1.2-1.8-1.7-2.8
		c-0.7-1.5-1.5-3.5-2.5-5.7c-1-2.3-2.5-4.4-4.5-6c-0.9-0.7-1.9-1.2-2.9-1.6l-1.2-0.4l-1-0.2l-0.4-0.1c-2.3-0.3-4.5-0.3-6.8,0.1
		c-0.8,0.1-1.6,0.3-2.3,0.4l1,0.3c-0.6,0-1.3,0-1.9,0c-1.7,0-0.8,0.4-0.2,0.9c0.5,0.2-0.2,0.4,0.5,0.7c-0.5,0-0.9-0.1-1.4-0.2
		c0,0.1,0.4,0.1,0.8,0.2s0.7,0.1,0.5,0.2c-0.5-0.1-1.2-0.1-1.7-0.2c0.1,0.1,0.6,0.2,1,0.3s0.9,0.1,0.8,0.2c-0.3,0-1.6-0.5-1.7-0.2
		c0.3,0.1,0.6,0.2,0.9,0.2c-0.6-0.1-1.3-0.1-1.9-0.1c-0.3,0-0.2,0.2,0.6,0.6c-0.3-0.1-0.6-0.2-1-0.3c-0.3-0.1-0.7-0.3-1-0.4l0,0
		c0.3,0.1,0.8,0.4,1.1,0.4l-1.1-0.4l0.1,0.2c0.3,0.1,0.5,0.2,0.8,0.3l-0.7-0.2c0.2,0.2,0.3,0.3,0.5,0.5c0.4,0.2,0.8,0.4,1.2,0.6
		c0.3,0.1,0.6,0.2,0.9,0.3C258.7,318.9,262.2,318.3,265,318.8z"/>
	<path class="st2" d="M274.8,340.9c0.1,0,0.2-0.1,0.2,0.1c-0.1,0.8-0.5,1.4-0.6,2.2l0.1,0.1c-0.2,0.6-0.4,1.3-0.6,2
		c-0.2,1.5-0.2,2.9,0,4.4c0.1,0,0.1-0.1,0.1,0.1c0.2,0.9,0.4,1.7,0.7,2.5c0.1,0.1,0.1,0.3,0.2,0.4c0,0.1,0.1,0.1,0.2,0.1
		c0.2,0.3,0.4,0.7,0.6,1c0.2,0.2,0.4,0.4,0.6,0.6l0.5,0.5l1,0.9c0.7,0.6,1.3,1.2,2,1.9c1.3,1.3,2.6,2.7,3.9,4.1
		c0.6,0.6,1.2,1.2,1.7,1.8c0.7,1,1.3,2.1,1.8,3.3c0.2-0.2,0.7,0.3,1.1,0.8s0.8,1,1,0.7c0.1,0.7,0.3,1.4,0.5,2
		c0.4,0.1,0.7,0.4,0.8,0.7c0.4,0.8,0.5,1.7,0.5,2.6c-0.2,0.9-0.5,1.9-0.9,2.8c-0.1,0.6,0.8-1.1,0.8-0.5c0.7-1.8,1-3.7,0.8-5.6
		c-0.2-1.8-0.7-3.5-1.4-5c-0.3-0.8-0.7-1.5-1.2-2.2c-0.4-0.7-0.9-1.4-1.4-2c-0.9-1.2-1.8-2.5-2.8-3.7c-0.4-0.4-1.2-1.4-2.3-2.6
		l-1.9-2.1l-1-1.1c-0.1-0.1-0.3-0.3-0.4-0.5l-0.3-0.4c-0.6-1.4-0.8-3-0.5-4.5c0.2-1.7,0.6-3.1,0.8-4l0-0.3c0.5-2.1,0.7-4.2,0.5-6.4
		c-0.1-0.4-0.1-0.8-0.2-1.3s-0.3-0.8-0.4-1.2c0,0.4-0.1,0.8-0.1,1.1c0-0.7-0.2-1.4-0.4-2c-0.7-1.7-0.7-0.6-0.9,0.1
		c-0.1,0.5-0.5,0-0.5,0.7c-0.1-0.5-0.2-0.7-0.3-1.2c-0.2,0,0.5,1.5,0.1,1.2c-0.1-0.5-0.3-1-0.4-1.5c-0.2,0.2,0.4,1.7,0.1,1.6
		c-0.1-0.2-0.1-1.4-0.3-1.4c-0.1,0,0,0.5,0.1,0.7c-0.1-0.3-0.2-0.6-0.3-0.9c-0.1-0.2-0.2-0.3-0.4-0.5c-0.2-0.1-0.3,0-0.1,0.7
		c-0.2-0.4-0.3-1-0.5-1.5l0,0c0.1,0.2,0.2,0.6,0.3,0.8l-0.3-0.7v0.2c0,0.2,0.1,0.4,0.2,0.6l-0.2-0.5c0,0.2-0.1,0.3-0.1,0.5
		c0,0.3,0.1,0.6,0.1,0.9c0,0.2,0,0.4,0,0.7c0.3,1.3,0.3,2.6,0.2,4C275.5,338.1,275.2,339.5,274.8,340.9z"/>
	<path class="st2" d="M313,270.9c0.1,0,0.3-0.1,0.1,0.2c-0.7,1-1.4,2.1-2.2,3l0.1,0.2c-0.7,0.8-1.5,1.6-2.3,2.4l-2.1,2.5
		c-0.7,0.9-1.4,1.8-2,2.8c0.1,0,0.1,0,0,0.2c-0.5,0.8-1.3,1.9-1.9,3.2l-0.2,0.6c0,0.2,0,0.2,0,0.3c-0.3,0.6-0.5,1.1-0.7,1.6
		c-0.6,1.8-0.7,3.7-0.5,5.6c0.3,1.9,1.1,3.8,2.4,5.3c2.5,2.9,5.8,4.2,8.4,6.2c1.2,0.7,2.2,1.6,3.1,2.7c1.2,1.8,2.1,3.8,2.4,6
		c0.3-0.2,0.7,0.9,1,1.9s0.5,2.1,0.8,1.5c0.1,1.4-0.1,3.5,0,3.6c0.5,0.4,1,1.5,0.7,5.2c-0.2,1.5-0.8,3.6-0.8,4.1
		c0,0.8,0.7-1.8,0.7-1c0.6-2.7,1-5.3,1.3-8.1c0.3-2.8,0.1-5.7-0.4-8.5c-0.6-3-1.9-5.8-3.9-8.1c-1-1.1-2.1-2.1-3.3-3
		c-1.1-0.9-2.2-1.6-3.3-2.3c-1.5-0.8-2.7-2-3.8-3.3c-0.6-1-1-2.1-1-3.3c0-1.5,0.3-2.9,0.9-4.2c0.7-1.5,1.5-3,2.5-4.3
		c0.5-0.7,1-1.3,1.5-1.9l1.6-1.9c1.8-2,3.4-4,4.8-6.3c0.1-0.2,0.2-0.4,0.3-0.5c1.1-1.8,1.7-3.8,2-5.9c0.2-2-0.1-4-0.9-5.9
		c-0.6-1.3-1.4-2.6-2.3-3.7c0.2,0.6,0.4,1.2,0.6,1.7c-0.5-1-1-2-1.7-2.9c-1.7-2.4-1.1-0.8-0.9,0.4c0.3,0.8-0.5,0,0,1.1l-1.1-2
		c-0.2,0,1.5,2.4,0.9,2c-0.4-0.8-1-1.6-1.4-2.4c0,0.4,1.5,2.8,1.3,2.8c-0.3-0.4-1-2.3-1.4-2.4c0.2,0.4,0.4,0.8,0.6,1.2
		c-1.5-2.4-2.5-3.7-1.5-1.2c-0.4-0.8-1-2-1.4-2.9l0,0c0.2,0.5,0.5,1.3,0.7,1.7c-0.2-0.5-0.5-1-0.7-1.5c0,0.1,0,0.2,0,0.3
		c0.1,0.4,0.3,0.8,0.5,1.2c-0.2-0.3-0.3-0.7-0.5-1c0,0.3,0.1,0.7,0.2,1c0.3,1,0.7,2.1,1.2,3.1c1.4,2.4,2.6,4.6,2.9,6.8
		C314.7,266.9,314.2,269.1,313,270.9z"/>
	<path class="st2" d="M306.2,274.9c0,0.1,0.1,0.2,0,0.2c-0.4,0.2-0.8,0-1.2,0.1v0.2c-0.4,0-0.8-0.1-1.2-0.2c-0.8,0-1.6,0-2.5-0.1
		c0,0.1,0,0.1-0.1,0.1c-0.5,0-1-0.1-1.4-0.2h-0.2c-0.1,0-0.1,0.1-0.1,0.1l-0.7-0.1c-1.5,0-3,0.1-4.4,0.4c-1.6,0.4-3,1-4.4,1.9
		c-0.5,0.4-1,0.9-1.5,1.3c-0.7,0.6-1.7,1.2-2.3,1.9c0.5,0.3-0.8,2,0,2.1c-0.4,0.4-0.9,1-0.8,1.2c0.3,0.4,0.5,1.1-0.2,2.4
		c-0.3,0.5-0.9,1.1-1,1.3s0.7-0.4,0.7-0.1c1.2-1.6,2.4-3.2,3.8-4.6c1.2-1.3,2.8-2.3,4.5-2.9c0.6-0.3,1.2-0.5,1.9-0.5
		c1.3-0.1,2.5-0.1,3.8,0.1c1.5,0.1,3.1,0.4,4.6,0.4c0.7,0.1,1.4,0.1,2.1,0c0.5,0,1.1-0.1,1.6-0.2l0.3-0.1c1.8-0.4,3.4-1.5,4.6-2.9
		c0.4-0.6,0.8-1.3,1-2.1c-0.2,0.2-0.4,0.5-0.7,0.7c0.4-0.5,0.6-1,0.7-1.6c0.1-0.3,0.1-0.5,0-0.8c0-0.1-0.1-0.1-0.2-0.1
		s-0.4,0.4-0.6,0.6s-0.4-0.2-0.7,0.2c0.1-0.3,0.2-0.6,0.2-0.8c-0.1-0.1-0.2,1.1-0.4,0.7c0.1-0.3,0.2-0.7,0.2-1
		c-0.2,0.1-0.3,1.1-0.5,0.9c0-0.1,0.5-0.8,0.2-0.9c-0.1,0-0.1,0.3-0.1,0.4c0-0.2,0-0.4,0-0.6c0-0.1,0-0.2-0.1-0.3
		c-0.1-0.1-0.3,0-0.4,0.3c0-0.1,0-0.3,0-0.4c0-0.1,0-0.3-0.1-0.4l0,0c0,0.1,0,0.3,0,0.4c0-0.1,0-0.3-0.1-0.4l-0.1,0.1
		c0,0.1,0,0.2,0,0.3l0-0.2l-0.2,0.2c-0.1,0.3-0.4,0.4-0.5,0.5C309.5,273.3,307.9,274.5,306.2,274.9z"/>
	<path class="st2" d="M196.7,394c-0.1,0-0.1,0.3-0.3,0c-0.5-1-0.9-2-1.2-3.1h-0.2c-0.2-0.9-0.4-1.8-0.5-2.8
		c-0.4-1.7-0.5-3.4-0.3-5.1c-0.1,0-0.1,0-0.1-0.1c0.1-0.9,0.3-1.8,0.6-2.6l0.1-0.5c0-0.1,0-0.2-0.1-0.2c0.2-0.5,0.4-0.9,0.5-1.3
		c0.5-1.5,0.9-2.9,1.2-4.5c0.3-1.7,0.3-3.5-0.2-5.2c-1.1-3.4-3.3-5.8-5.4-8.1c-1-0.9-1.9-1.8-2.7-2.9c-1.2-1.6-2.1-3.4-2.9-5.3
		c-0.2,0.2-0.8-0.6-1.3-1.5s-0.9-1.7-1.1-1.2c-0.2-1.1-0.5-2.1-0.8-3.2c-0.4-0.2-0.7-0.6-0.9-1.1c-0.5-1.1-0.7-2.4-0.8-3.6
		c0.1-1.3,0.2-2.7,0.4-4c0-0.8-0.6,1.7-0.6,1c-0.7,5.2,0,10.5,2.1,15.2c1,2.4,2.4,4.6,4,6.6c1.6,2,3.1,3.7,4.3,5.5
		c0.9,1.1,1.6,2.5,1.9,3.9c0.2,1.1,0.1,2.2-0.2,3.3c-0.3,1.3-1,2.8-1.6,4.4c-0.6,1.8-1,3.6-1.2,5.4c-0.1,1.7,0,3.5,0.3,5.2
		c0.4,2.4,1.2,4.8,2.3,7.1c0.1,0.2,0.2,0.3,0.2,0.5c1.5,3,3.6,5.7,6.1,8c0.9,0.8,2,1.6,3,2.3c-0.4-0.5-0.7-0.9-0.9-1.3
		c0.7,0.7,1.4,1.4,2.2,2c2.2,1.6,1.2,0.4,0.7-0.6c-0.4-0.6,0.5-0.1-0.2-1l1.5,1.4c0.2,0-1.9-1.6-1.3-1.5c0.5,0.6,1.3,1.1,1.9,1.6
		c-0.1-0.3-2.1-2-1.8-2c0.4,0.3,1.5,1.8,1.8,1.7c-0.3-0.3-0.5-0.6-0.9-0.8c1.9,1.6,3.2,2.3,1.6,0.6c0.6,0.5,1.4,1.3,2.1,1.9l0,0
		l-1.1-1l1.1,0.9l-0.1-0.2c-0.3-0.3-0.5-0.5-0.8-0.8l0.7,0.6c-0.1-0.2-0.3-0.5-0.5-0.7c-0.8-0.9-1.4-1.8-1.8-2.2
		C202.1,401.9,199.1,398.2,196.7,394z"/>
	<path class="st2" d="M200.1,386c-0.1,0-0.2,0-0.2-0.2c0.2-0.5,0.7-0.7,0.9-1.2l-0.1-0.1c0.3-0.3,0.6-0.6,1-0.9
		c0.5-0.6,1-1.2,1.6-1.8c-0.1,0-0.1-0.1-0.1-0.1c0.3-0.3,0.6-0.6,1-0.8l0.1-0.1c0,0,0-0.1,0-0.1c0.2-0.1,0.3-0.2,0.5-0.3
		c0.9-0.8,1.9-1.6,2.9-2.2c0.7-0.4,1.4-0.8,2-1.2c0.8-0.6,1.4-1.3,1.7-2.2c0.2-0.7,0.3-1.4,0.4-2c0.2-0.9,0.6-2,0.8-2.8
		c-0.6,0-0.4-2.1-1.1-1.8c0.1-0.6,0.3-1.4,0.1-1.5c-0.5-0.2-0.9-0.7-1.1-2.2c0-0.6,0.2-1.4,0.1-1.6s-0.4,0.7-0.5,0.4
		c-0.2,2-0.5,4.1-0.9,6.1c-0.2,1-0.5,2-0.8,3c-0.1,0.3-0.2,0.7-0.4,1c-0.1,0.2-0.2,0.3-0.4,0.4c-0.6,0.4-1.2,0.8-1.9,1
		c-1.5,0.7-2.8,1.5-4.1,2.5c-2.3,1.8-4.2,3.9-5.7,6.3l-0.1,0.2c-0.9,1.4-1.5,3-1.7,4.6c0,0.6,0,1.3,0,1.9c0.1-0.3,0.3-0.5,0.4-0.7
		c-0.2,0.5-0.2,1-0.2,1.5c0.1,1.3,0.5,0.6,0.9,0.2c0.2-0.3,0.4,0.2,0.6-0.3c-0.1,0.4-0.1,0.6-0.1,0.9c0.2,0.1,0-1.2,0.3-0.9
		c-0.1,0.4-0.1,0.8-0.1,1.1c0.2-0.1,0.2-1.3,0.4-1.2c0,0.2-0.4,1-0.1,1.1c0.1,0,0.1-0.3,0.1-0.5c-0.1,1.1,0.3,1.7,0.6,0.8
		c-0.1,0.4-0.1,0.8-0.1,1.2l0,0c0-0.2,0.1-0.5,0.1-0.7v0.6l0.1-0.1c0-0.2,0.1-0.3,0.1-0.5v0.4c0.1-0.1,0.2-0.2,0.3-0.3
		c0.2-0.5,0.5-0.9,0.5-1.1C198.4,389.7,199.1,387.8,200.1,386z"/>
	<path class="st2" d="M226.9,271.1c0-0.1-0.2-0.1,0-0.3c0.6-0.3,1.3-0.1,1.9-0.4v-0.2l1.6-0.3l2.8-1c-0.1,0-0.1-0.1,0-0.1
		c0.5-0.2,1-0.3,1.5-0.4l0.2-0.1c0,0,0.1-0.1,0.1-0.1c0.2-0.1,0.5-0.1,0.7-0.1c1.3-0.5,2.6-0.9,4-1.3c1.4-0.3,2.9-0.5,4.4-0.4
		c0.7-0.1,1.3-0.1,2,0c1,0.2,2,0.6,2.9,1c0-0.3,0.6-0.3,1.2-0.3s1.1,0,1-0.3c0.6,0.3,1.4,0.8,1.5,0.7c0.4-0.3,1.1-0.6,2.8,0.3
		c0.6,0.4,1.3,1.3,1.6,1.4c0.4,0.2-0.5-0.9-0.1-0.7c-4-3.8-9.3-5.9-14.9-6c-0.5,0-1.6,0.1-3.1,0.3c-1.7,0.2-3.4,0.6-5,1.1
		c-3.4,1-6.7,2.2-8.1,2.6l-0.2,0.1c-1.5,0.4-3.2,0.8-4.4,1.2c-0.5,0.2-1.1,0.4-1.6,0.6l0.7,0.2c-0.5,0-0.9,0-1.4,0.1
		c-1.3,0.2-0.6,0.5-0.1,0.9c0.4,0.2-0.1,0.4,0.4,0.6l-1.1,0c-0.1,0.2,1.3,0,1,0.2c-0.4-0.1-0.9,0-1.3,0c0.1,0.2,1.5,0.1,1.4,0.4
		c-0.2,0-1.2-0.3-1.3-0.1c0,0.1,0.4,0.1,0.6,0.1c-0.5,0-1,0.1-1.4,0.1c-0.2,0.1-0.1,0.2,0.5,0.5c-0.4-0.1-1.1-0.3-1.6-0.3l0,0
		c0.2,0,0.6,0.1,0.9,0.2l-0.8-0.1l0.1,0.1c0.2,0.1,0.4,0.1,0.6,0.1l-0.5-0.1c0.1,0.1,0.3,0.2,0.4,0.3l0.9,0.4
		c0.2,0.1,0.5,0.2,0.7,0.2C221.3,272.3,224.2,271.9,226.9,271.1z"/>
</g>
</svg>
