<?xml version="1.0" encoding="utf-8"?>
<!-- Generator: Adobe Illustrator 25.4.1, SVG Export Plug-In . SVG Version: 6.00 Build 0)  -->
<svg version="1.1" id="Lager_1" xmlns="http://www.w3.org/2000/svg" xmlns:xlink="http://www.w3.org/1999/xlink" x="0px" y="0px"
	 viewBox="0 0 500 500" style="enable-background:new 0 0 500 500;" xml:space="preserve">
<style type="text/css">
	.st0{fill:#1595BF;}
	.st1{fill:#F9CFB5;}
	.st2{fill:#B8E1F0;}
	.st3{fill:#EB6F00;}
	.st4{fill:#E10558;}
	.st5{fill:#1D1D1D;}
</style>
<g id="OUTLINE_ikons">
	<ellipse class="st0" cx="205.5" cy="301.4" rx="78.1" ry="57.6"/>
	<path class="st1" d="M76,201.3c-0.4-0.2-0.8-0.5-1.2-0.9l-0.1-0.2l-2.5-0.9L76,201.3z"/>
	<path class="st1" d="M411.8,347c-2.5-3-4-6.5-5.6-10.1l-6.2-14c-1.3-2.6-2.2-5.3-2.8-8.1c-0.7-4.2,0-8.4,0.7-12.6
		c2.5-14.2,5.2-28.6,4.1-43.1c-1.3-16.7-7.7-33.5-4-49.8c0.7-3.1,1.8-6.3,1.5-9.5c-0.7-5.8-6-9.9-11.6-11.6
		c-8-2.4-16.6-0.9-24.8,0.9c-23.2,4.9-55.4,12.5-79.5,19.9l-19.8-6.2l-12.1-1.9c0.2-0.6,1.5-3,1.7-4.6l0.6-3.7
		c1.6-1.7-1.2-0.4-0.9-2.8c0.1-1.1-0.5-1.3-1.2-2c-0.5-0.5-1.1-0.8-1.8-1c-8.6-3-18.9-3.1-28-4c0,0,0.9-0.5-1.5-0.6
		c-4.4-2.6-9.7-6.4-14-9c-2.2-1.4-4.5-2.6-7-3.4c-5-1.4-7.3,1.3-12.8,2.6c-3.5,0.8-6.9,2.1-10,3.9c-6.6,4-9.2,7.8-15,14.3
		c-2.8,1.3-5.7,2.5-8.6,3.5L137,182.2l4.9-2.1c1.1-0.6,1.4-2.2,1.8-3.5c0.2-0.8,0.2-1.7-0.1-2.5c-1.6-4.1-4-7.7-7.2-10.7
		c-0.8-0.5-1.3-1.3-1.6-2.2c-0.4-2.4,3.7-4.1,2.8-6.4c-5.9-1.1-12.4-2.7-15.6-7.8c-1-1.5-1.6-3.3-2.6-4.8c-2.4-3.3-6.5-4.8-10.5-3.8
		v-0.2c-11.8-4.3-25.6,0.5-34.6,9.3c-2,1.9-3.7,4-4.9,6.5c-1.3,3-1.9,6.1-1.8,9.4c0.1,11.1,4.9,21.7,13.3,29l-4.8-0.7
		c-1.1,1.2-1.8,2.7-2.3,4.2c-0.4,1.5-0.1,3.1,0.8,4.4l4.8,1.7c1.4-0.1,2.7-0.5,3.9-1.2c1.5-1.1,2.7-2.6,3.4-4.3
		c8.8,5,15.2,4.5,26.9,2.9l4.4,4.4l6.2,7.6c2.1,4.9,3.7,10.1,6,14.8c6.7,13.8,20.2,23.2,35.6,24.6l8.2-3.6
		c14.7-1.8,31.5-0.7,43.8-1.9c11.9,1.8,23.5,5.4,34.3,10.7c8.7,4.3,17.5,9.9,27.3,9.6c5.2-0.2,10.2-2,15-3.9
		c17.8-7.1,37.9-16.1,56.9-25.8c-4.6,10.4-2.2,23.3,0.9,34.3c3.3,11.8,8.4,23.2,9.5,35.5c0.9,10.4-1,20.8-5.6,30.1
		c-1.6,3.1-1.3,6.9,0.8,9.7c2.5,3.3,5.3,3.5,9.2,2c6.3-2.4,12.5-3,16.3-1.1l6.8,2.3c2.4,2.5,4.6,5.2,6.6,8.1c1.5,2.1,3,4.4,5.3,5.5
		c1.9,0.7,3.8,1.1,5.8,1l15.2,0.4c4.3,0.1,10.2-1.2,10.1-5.5C424.8,355.7,416.9,353,411.8,347z"/>
	<path class="st2" d="M315.3,200.3c-1,0-0.8,40.9,10.4,47.1c0,0-35.5,15.3-46.3,17.3s-32.6-16.9-50.2-17.3s-51-0.3-63.3,2.5
		s-25-9.3-29.2-15s-7.8-32.4,16.6-41.4l11-3.1L154,202.8l-5.5,7.1c0,0-7.6,1.2-1.3,16.1s24.7,5.9,34,8.8c3.2,1,31.2-12.3,34.8-11.2
		c3.8,1.2,28.7-13.7,32.4-12.5c0,0,1.6-9.4,4.2-8.7c15.5,4.2,35.8,6.6,42.1,4.2S315.3,200.3,315.3,200.3z"/>
	<path class="st2" d="M168.5,202.9c0,0,8.3-5.7,11.3-6.6s12.4-6.4,12.4-6.4l5.6-4.2l4.2,4.7c0,0,5.8,6.2,12,6.4
		c3.7,0.1-22.2,9.5-26.6,8.7S168.5,202.9,168.5,202.9z"/>
	<path class="st3" d="M108.9,138.2c0,0-4-0.9-2.5,13s1,16.8,1,16.8s-9.9-1.5-10.4,1.9s2.5,9.8,9,11.1s10.3,10.5,10.3,12.2
		s-0.6,6.2-0.6,6.2s-17.2,4.3-26-1.3s-21.4-17-22.2-30s6.7-25.2,16.8-27.7S98.7,132.4,108.9,138.2z"/>
	<path class="st3" d="M73.8,195.9c0,0,5.9,9.2,9.7,7.9c0,0-9.8,0.6-4.1,10s9.5,14.8,8.8,23.8s-4.6,23.9-12.3,26.4
		c0,0,1.1-10.2-1.6-18S60.7,223,73.8,195.9z"/>
	<path class="st4" d="M85.5,195.4c0,0,3.6,8.9-1.9,8.4c-1.1-0.1-10.7-5.1-11.4-5.8c-3.1-2.9-2-9.5,3-11.5L85.5,195.4z"/>
	<path class="st5" d="M127.8,312.7c0.2,0,0.1-1.2,0.7,0.5c0.4,1.3,0.7,2.6,1.1,3.8s0.7,2.4,1.1,3.6c0.8,2.5,1.9,4.8,3.2,7.1l0.5,0.2
		c2,4,4.4,7.7,7.2,11.2c5.6,6.2,12.4,11.3,19.9,14.9c-0.1-0.2-0.2-0.4,0.6,0c3.9,1.9,7.9,3.5,12,4.9c0.7,0.2,1.4,0.4,2.1,0.5
		c0.3,0.1,0.6,0.1,0.8,0c1,0.3,2,0.6,3,0.8s1.9,0.5,2.7,0.7c11.6,2.1,23.5,2.4,35.3,1c6-0.7,11.9-1.7,17.8-3.2
		c6.1-1.5,12-3.4,17.7-5.9c4.8-2.3,9.3-5.1,13.5-8.4c3.3-2.5,6.4-5.5,9.1-8.7c2.6-3.2,4.9-6.7,6.8-10.4c-0.8,0.3,0.7-3.8,1.5-7.6
		c0.4-1.6,0.6-3.3,0.7-4.9c0-1.2-0.1-1.6-0.6-0.9c0.6-2.5,1-5.1,1.2-7.7c0.1-1.2,0.1-2.3,0.1-3.1c0-0.5,0-0.9-0.2-1.4
		c-0.5-0.5-1-1.7-1.7-4.2c-0.3-1.2-0.7-2.8-1.3-4.8c-0.7-2.4-1.5-4.8-2.4-7.1c-0.9-2.5-1.9-4.8-3.1-7.1c-0.3-0.6-0.6-1.1-0.9-1.6
		s-0.5-1-0.8-1.4c-0.5-0.8-1-1.4-1.2-1.7c-0.5-0.5-0.5-0.4-0.3,0s0.5,1,0.9,1.7c0.7,1.3,1.3,2.7,0.5,1.7c4.3,7.2,6.6,15.5,6.6,24
		c0.1,8.4-1.9,16.7-5.7,24.2c-1.9,3.7-4.3,7.1-7.1,10.2c-1.4,1.5-2.9,3-4.5,4.3c-0.8,0.7-1.6,1.2-2.5,1.9s-1.7,1.2-2.6,1.7
		c-7.2,4.5-15.7,7.3-24.6,9.3c-6.7,1.7-13.5,2.7-20.3,3.2c-5.5,0.4-10.9,0.4-16.4,0c-6.1-0.4-12.1-1.4-18-2.9
		c-12-3.1-23.3-9.4-30.4-17.2c-3.3-3.5-6-7.4-8.2-11.7c-1.6-3-2.8-6.2-3.8-9.5c-0.2-0.6-0.4-1.2-0.5-1.8c-1.4-5.7-1.9-11.7-1.4-17.6
		l0.1-1.1l0.2-1c0.1-0.7,0.2-1.4,0.3-2.1c0.3-1.4,0.7-2.7,1.1-4c0.8-2.4,1.8-4.8,3-7c2.1-4,4.6-7.7,7.6-11c-1.6,1.4-3.1,2.7-4.3,3.9
		c3-3.6,6.5-6.7,7.8-8c3.7-3.4,4.6-4.1,3.8-4c-1.6,0.6-3.2,1.4-4.6,2.3c-2.4,1.6,0.2-1.4-3.4,1.4c1.2-1.1,2.2-1.9,3.1-2.7
		s1.9-1.5,3.2-2.5c0.1-0.3-1.9,1.3-3.7,2.8c-0.9,0.8-1.7,1.5-2.2,1.9s-0.7,0.5-0.4,0c2.5-2,5.1-4.4,7.8-6.2c-0.7,0.3-1.4,0.7-2,1.1
		c-0.9,0.6-2,1.5-3.1,2.3s-2,1.6-2.7,2.2s-1.1,0.9-1.1,0.8c1.3-1.2,2.7-2.3,4.2-3.4c0.9-0.6,1.7-1.2,2.4-1.8s1.1-0.9,1.2-1.1
		c-0.5,0.2-1,0.6-1.5,0.9l-2.5,1.9c3.9-3.3,7.2-5.5,8.4-6.5s0.2-0.8-3.9,1.6c2.7-1.8,6.8-4,9.8-5.7l0,0l-2.9,1.4
		c-1,0.5-2,1.1-2.7,1.5l2.5-1.5l2.6-1.4l-1,0.3l-2,1l-2,1.1c1.1-0.7,2.2-1.3,3.4-1.9c-1.1,0.3-2.1,0.7-3.2,1.2
		c-3.6,1.7-7,3.6-10.2,5.9c-4.2,3.2-8,6.8-11.4,10.9c-3.5,4.1-6.4,8.8-8.4,13.8c-1,2.6-1.8,5.3-2.3,8l-0.4,2.1
		c-0.1,0.7-0.2,1.3-0.2,2l-0.2,2l-0.1,2C125.8,302,126.5,307.4,127.8,312.7z"/>
	<path class="st5" d="M209.7,247.6c0-0.1-0.7-0.3,0.5-0.2c1.9,0.2,3.6,0.4,5.3,0.7s3.4,0.7,5.3,0.9l0.3-0.1c1.5,0.3,2.9,0.7,4.4,1
		l2.2,0.6l2.3,0.7c5.6,1.5,11.1,3.3,16.4,5.6c-0.1-0.1-0.1-0.2,0.4,0c1.1,0.5,2.4,1.1,3.8,1.8s2.9,1.5,4.5,2.3l1.4,0.7
		c0.2,0.1,0.4,0.1,0.6,0.1l3.9,2c4.1,2,8.4,3.4,12.8,4.2c2.3,0.4,4.7,0.5,7,0.3c2.3-0.2,4.6-0.7,6.8-1.4c4.4-1.4,8.5-3.3,12.7-5
		l12.8-5.5l10.8-4.9c5.2-2.3,12-5.2,17-7.5c-1-0.1,11.1-6.3,8.4-5.7c1.6-0.8,3.7-1.9,5.4-2.8c1-0.5,2-1.1,3-1.8
		c0.8-0.9,1.7-1.7,2.6-2.3c0.8-0.6,1.9-1.3,3.3-2.2s3.1-2,5.1-3.3c1.6-1,3.7-2.3,5.5-3.4s3.3-2.1,3.8-2.6c1.7-1.3-4.3,2.5-2.6,1.2
		c-5.9,3.9-12,7.4-18.1,10.8s-12.4,6.4-18.7,9.4c-12.7,6-25.7,11.4-39.1,16.7l-5.7,2.4c-3,1.3-6.1,2.4-9.3,3.2c-3.9,1-7.9,1-11.8,0
		c-4.5-1.2-8.9-3-13-5.3c-2.2-1.1-4.4-2.3-6.7-3.4l-3.5-1.6c-1.1-0.5-2.3-1.1-3.4-1.5c-2.3-0.9-4.6-1.9-6.9-2.6l-3.4-1.1
		c-1.1-0.4-2.2-0.6-3.3-0.9l-3.2-0.9c-1-0.3-2.1-0.5-3-0.7c-2-0.4-3.8-0.9-5.6-1.1s-3.3-0.6-4.8-0.8l-3.8-0.4l-1.6-0.2
		c-2.4-0.2-4.9-0.3-7.4-0.5h-3.8c-1.3,0-2.6,0-3.8,0.1c-2.5,0.1-5,0.2-7.4,0.5s-4.6,0.5-6.5,0.9c-3.6,0.6-7.2,1.5-10.8,2.5
		c1.7-0.3,3.3-0.5,4.6-0.7c-1.8,0.4-3.7,0.7-5.2,1.1s-2.8,0.8-3.5,1c-1.2,0.3-2.5,0.8-3.7,1.3c-0.6,0.3-0.7,0.4-0.4,0.4
		c0.5,0,2.4-0.5,3.9-0.6c2.2-0.4-0.6,0.6,2.7-0.1c-2.4,0.6-3.6,0.9-5.9,1.7c0.3,0,0.7-0.1,1-0.3l1.1-0.4l1.2-0.3
		c1.7-0.4,3.2-0.8,2.4-0.5c-1.1,0.3-2.4,0.6-3.6,0.9L162,251c0.4,0,2.5-0.7,4.4-1.2c1.2-0.4,2.3-0.6,3.5-0.8
		c-0.6,0.2-2.3,0.6-3.9,0.9c-1.1,0.2-2.2,0.6-3.2,1.1c-0.1,0.1,2.3-0.7,3.5-1c-1.8,0.5-3.4,1.1-4.7,1.6c-0.9,0.3-1.8,0.7-2.7,1.1
		c-0.5,0.2-0.6,0.4-0.1,0.2c0.2,0,0.6-0.1,1.1-0.3l2-0.5l-1.9,0.6l-2,0.7c-1.4,0.5-2.8,1-3.9,1.5l0,0l4.3-1.6l-4,1.5l0.8-0.2
		c1-0.4,2-0.7,3.1-1.1l-2.7,1c0.7-0.2,1.5-0.4,2.4-0.6l2.4-0.8l2.2-0.6c1.4-0.4,2.6-0.7,3.5-1C180.2,247.7,195,246.3,209.7,247.6z"
		/>
	<path class="st5" d="M380.9,190.5c0.1-0.1-1.5-0.3,0.9-0.2c1.8,0.1,3.6,0.5,5.4,1c1.5,0.5,3,1.2,4.2,2.2c1.2,0.9,2.2,2.1,3,3.5
		c0.4,0.7,0.7,1.4,0.9,2.1c0.2,0.8,0.4,1.7,0.5,2.6l0.2,0.5c0.1,1.5,0.2,3,0.1,4.5c0,0.7-0.1,1.5-0.2,2.2c0,0.4-0.1,0.6-0.2,1
		l-0.3,1.3c-0.7,3.4-1.2,6.9-1.4,10.3c-0.5,12.9,2.1,25.3,3.1,37.4c0-0.3,0.1-0.5,0.2,0.7c0.5,6.4,0.7,12.9,0.5,19.4
		c0,1.1,0,2.2-0.1,3.2c0,0.4,0,0.8,0.1,1.2c-0.2,3.3-0.4,6.2-0.7,8.9c-0.2,2.2-0.5,4.4-0.8,6.7s-0.7,4.4-1,6.7
		c-0.4,2.4-0.5,4.8-0.4,7.2c0.1,2.5,0.6,5,1.5,7.3c0.9,2.3,1.9,4.4,2.8,6.5l2.9,6.3c0.9,2.1,1.9,4.2,2.9,6.3c1,2.2,2.1,4.3,3.3,6.4
		c1.3,2.1,2.9,4.1,4.8,5.7c1.9,1.6,4,3,6.2,4.1c2.2,1.1,4.4,2,6.8,2.8l1.7,0.6l1.5,0.5l0.8,0.2l0.2,0.1c0.1,0,0.1,0,0.1,0.1
		c0,0.1,0,0.3,0,0.4c-0.1,0.3-0.2,0.5-0.4,0.8c-0.2,0.2-0.4,0.4-0.7,0.6c-0.9,0.5-1.9,0.9-2.9,1.1c-1.1,0.2-2.2,0.4-3.4,0.4
		c-1.1,0-2.4,0-3.6,0l-7.4-0.1l-3.7-0.1c-1.2,0-2.5,0-3.6-0.1c-0.9,0-1.9-0.2-2.8-0.6c-0.9-0.4-1.6-0.9-2.3-1.5
		c-1.4-1.5-2.7-3.1-3.8-4.8c-2.4-3.4-5.1-6.6-8.1-9.5c-1.1-1.1-2.4-2.1-3.6-3.1c-1.4-1-2.8-1.9-4.3-2.6c-1.5-0.8-3.2-1.3-4.7-1.9
		c-1.5-0.6-2.8-1.5-3.8-2.8c-0.9-1.3-1.3-2.8-1.3-4.4c-0.1-1.5,0.2-3.1,0.9-4.4c1.5-2.6,4.5-4.2,6.2-6.8c-0.4,0.3,0.5-1,1.4-3.2
		c1-2.8,1.5-5.7,1.5-8.6c0-2.6-0.3-5.3-1-7.9c-0.5-1.8-0.8-2.5-0.6-1c-0.9-4.2-1.9-8.3-3.2-12.3c-0.7-2.3-1.6-4.6-2.6-6.9
		c-1.3-2-2.4-4.2-3.4-6.3c-1-1.9-2.2-4.4-3.6-7.7c-1.8-4.1-3-8.5-3.6-13c-0.2-2.1-0.5-4.3-0.7-6.7c-0.3-2.5-0.2-5,0.1-7.5
		c0.3-2.1,0.9-4.2,1.6-6.2c0.6-1.6,1.1-2.9,1.3-3.6c0.8-2.1-0.3,0.2-1.3,2.8s-1.8,5.3-1.2,2.9c-0.6,2-1,4.1-1.1,6.1
		c-0.1,2,0,4,0.2,6l0.5,5.6c0.2,2,0.5,4,1,5.9c1.9,7.7,5.4,14.5,8.1,21.3c2.7,6.8,4.7,13.8,6.2,20.9c0.7,3.3,0.8,6.8,0.4,10.2
		c-0.4,3.2-1.7,6.2-3.8,8.6c-0.3,0.3-0.5,0.5-0.9,0.8l-1,1c-0.8,0.7-1.5,1.5-2.2,2.3c-0.8,1-1.4,2-1.8,3.2c-0.4,1.1-0.6,2.3-0.6,3.5
		c0,1.1,0.1,2.3,0.3,3.4c0.5,2.5,1.9,4.7,3.9,6.2c0.9,0.7,1.9,1.2,2.9,1.6c0.5,0.2,1,0.4,1.5,0.6l1.2,0.5c0.4,0.1,0.8,0.3,1.1,0.5
		s0.8,0.3,1.1,0.5c1.5,0.8,2.9,1.7,4.2,2.8c2.7,2.3,5.2,4.8,7.3,7.7c1.1,1.4,2.2,2.9,3.2,4.4c1.1,1.7,2.4,3.3,3.9,4.8
		c0.9,0.8,1.9,1.5,3.1,2c1.1,0.4,2.2,0.7,3.4,0.8c2.2,0.2,4,0.2,5.9,0.2l11.3,0.3c0.9,0,2,0,3.1,0c1.1-0.1,2.2-0.2,3.2-0.5
		c1.1-0.3,2.2-0.6,3.3-1.2c0.3-0.1,0.5-0.3,0.8-0.5c0.2-0.1,0.4-0.2,0.5-0.4l0.5-0.5c0.3-0.3,0.7-0.6,0.9-1c0.3-0.3,0.5-0.7,0.7-1.1
		c0.1-0.1,0.1-0.3,0.2-0.4l0.1-0.4c0.1-0.3,0.2-0.6,0.2-0.9c0.1-0.6,0.1-1.3,0.2-2.1c0-0.1,0-0.2,0-0.3l-0.2-0.1l-0.4-0.3l-0.9-0.6
		c-0.4-0.2-0.8-0.4-1.2-0.5l-1.4-0.5l-1.8-0.6l-1.7-0.6c-1.2-0.4-2.4-0.9-3.7-1.5c-2.8-1.2-5.4-2.8-7.7-4.7
		c-1.3-1.1-2.4-2.4-3.3-3.7c-1-1.6-2-3.2-2.8-4.9c-1.7-3.7-3.5-7.8-5.3-11.9c-0.9-2.1-1.9-4.2-2.8-6.4c-1-2-1.7-4.2-2.1-6.4
		c-0.3-2.3-0.4-4.5,0-6.8c0.3-2.4,0.7-4.9,1.1-7.5c0.8-5.1,1.3-10.4,1.6-15.7c0.6-10.6,0.3-21.2-0.9-31.7
		c-1.2-10.3-2.7-20.1-2.6-29.1c0-4.3,0.4-8.5,1.3-12.7c0.1-0.5,0.2-1.1,0.3-1.6s0.2-1.1,0.2-1.7c0.1-1.1,0.1-2.2,0.1-3.2
		c0-2-0.2-4.1-0.6-6.1c-0.2-1-0.6-2-1-3c-0.4-0.9-0.9-1.8-1.5-2.6c-1.1-1.5-2.4-2.8-3.9-3.9c-1.3-0.9-2.8-1.7-4.3-2.2
		c-1.3-0.4-2.6-0.8-3.9-1c-1.2-0.2-2.3-0.4-3.5-0.5c-5.3-0.3-10.6,0.1-15.8,1.2c-5.2,1-10.4,2.2-15.5,3.3
		c-10.2,2.2-20.1,4.5-28.1,6.5c-7.4,1.9-14.8,4-22.2,6.2c3.5-0.9,6.7-1.6,9.5-2.3c-7.6,1.9-15.1,4.1-18,5.1l-4.9,1.6
		c-1.3,0.4-2.2,0.8-2.8,1c-1.3,0.5-1.4,0.6-0.9,0.5c1.1-0.2,4.9-1.2,8-2c4.5-1.1-1.5,0.9,5.5-1c-2.5,0.7-4.4,1.3-6.2,1.8
		s-3.7,1.1-6.2,1.9c-0.3,0.2,3.5-1.1,7-2.1s6.6-1.9,4.9-1.3c-4.8,1.3-10.2,3.1-15.1,4.7c0.9-0.1,5.2-1.6,9.2-2.7
		c2.4-0.8,4.9-1.5,7.4-2c-2.7,0.8-14.1,3.9-15,4.5c-0.2,0.1,4.8-1.5,7.3-2.2c-7.6,2.4-13.5,4.5-15.7,5.4s-0.8,0.5,6.1-1.7
		c-4.8,1.6-11.6,3.9-16.5,6l0,0c2.5-1,6.8-2.6,9.1-3.4c-2.9,1-5.7,2.1-8.5,3.2l1.5-0.5c2.1-0.8,4.3-1.6,6.5-2.4l-2.8,1l-2.8,1.1
		c1.4-0.5,3.1-1,4.9-1.6c6.8-2.3,13.4-4.2,17.1-5.3c15-4.6,30.4-8.3,45.7-11.8c7.7-1.7,15.4-3.4,23.2-5
		C366,192,373.6,190,380.9,190.5z"/>
	<path class="st5" d="M322.4,237.6c-0.1,0-0.1,0.2-0.3,0c-0.4-0.7-0.2-1.5-0.6-2.2h-0.2c-0.1-0.6-0.3-1.3-0.4-1.9
		c-0.4-1.2-0.7-2.4-1-3.6c-0.1,0.1-0.1,0.1-0.1,0c-0.2-0.5-0.2-1.2-0.4-1.9c0-0.1,0-0.2-0.1-0.3c0-0.1-0.1-0.1-0.1-0.1
		c0-0.3-0.1-0.6-0.1-0.9c-1-3.6-1.7-7.4-2-11.2c-0.2-0.8-0.3-1.7-0.3-2.5c0.1-1.3,0.2-2.6,0.5-3.9c-0.7,0.1-0.4-2.8-1-2.4
		c0.2-0.7,0.3-1.4,0.4-2.1c-0.4-0.3-0.8-1.1-0.3-3.3c0.3-0.9,1-2.1,1-2.4c0.1-0.5-0.8,0.9-0.7,0.4c-1.4,3-2.3,6.2-2.7,9.5l-0.3,2.4
		l-0.1,2.4c-0.1,0.8,0,1.6,0,2.4s0,1.6,0,2.4c0.1,0.6,0.2,1.9,0.4,3.7l0.4,2.9c0.2,1,0.4,2.1,0.6,3.2c0.7,3.6,1.7,7.2,2.9,10.7
		c0,0.1,0.1,0.2,0.1,0.3c0.4,1,0.8,2.1,1.2,3.1s1,2,1.5,2.7s1,1.3,1.6,1.9c-0.1-0.4-0.2-0.7-0.2-1c0.3,0.6,0.6,1.2,1,1.7
		c1.2,1.4,0.9,0.4,0.8-0.4c-0.1-0.5,0.5-0.1,0.2-0.8c0.2,0.4,0.4,0.8,0.7,1.1c0.1,0-0.2-0.4-0.4-0.7s-0.3-0.6-0.1-0.5
		c0.2,0.5,0.5,0.9,0.9,1.4c0-0.1-0.2-0.5-0.4-0.9s-0.4-0.7-0.2-0.8c0.1,0.2,0.5,1.4,0.8,1.4c0.1,0-0.2-0.4-0.4-0.7
		c1,1.3,1.6,1.9,1.1,0.5c0.3,0.4,0.6,1.1,0.9,1.5l0,0c-0.1-0.2-0.3-0.6-0.5-0.9l0.5,0.8v-0.2c-0.1-0.2-0.2-0.4-0.3-0.6l0.3,0.5
		c0-0.2,0-0.4-0.1-0.6c-0.2-0.6-0.4-1.2-0.6-1.7C324.7,243.4,323.5,240.6,322.4,237.6z"/>
	<path class="st5" d="M205.1,231c0-0.1-0.7,0,0.3-0.4c3.2-1.3,6-1.9,9.3-3.2l0.2-0.2l8-2.6l14.9-5.4c-0.1,0-0.2,0,0.3-0.2
		c1-0.4,2.2-0.8,3.6-1.3l1-0.4l1.1-0.4c0.8-0.3,1.6-0.7,2.3-1.1c0.5-0.3,0.9-0.5,1.4-0.8c0.2-0.1,0.3-0.3,0.4-0.4
		c1.4-0.9,2.5-2.1,3.3-3.6c0.6-1.2,0.8-2.6,0.6-4c-0.2-1.2-0.6-2.4-1.3-3.5c-0.6-0.9-1.2-1.8-1.8-2.6c-0.6-0.8-1.3-1.6-2-2.3
		c-2.8-3-5.9-5.6-9.3-7.8c-3.4-2.3-6.9-4.3-10.4-6.3l-10.8-6.2c-3.1-1.7-6.3-3.4-9.3-5.1c-2.4-1.6-5.1-2.7-7.8-3.4
		c-2.8-0.6-5.7-0.6-8.5,0c0.4,0.2-2.4,0.9-4.8,1.9s-4.7,2-3.4,1.9c-1.7,0.6-3.4,1.2-5,2c-1,0.4-1.9,0.9-2.7,1.5
		c-0.6,0.8-1.3,1.6-2.2,2.2c-0.7,0.6-1.5,1.3-2.5,2.3c-1.2,1.2-2.4,2.5-3.4,3.8c-1.1,1.4-2,2.9-2.8,4.5c-0.6,1.1-1,2.3-1.2,3.5
		c-0.1,0.5,0,0.4,0.1,0.2l0.4-1.2c0.4-0.9,0.8-1.8,0.6-1c1-2.7,2.6-5.1,4.6-7.1c2-2.1,4.4-3.9,6.9-5.3c2.6-1.4,5.4-2.6,8.2-3.6
		c2.8-1,5.7-1.8,8.7-2.3c2.7-0.5,5.5-0.4,8.1,0.5c2.5,0.9,5.2,2.6,7.9,4.2l16.5,9.8c1,0.5,2.6,1.5,4.7,2.7s4.7,2.9,7.4,4.9
		c3,2.2,5.7,4.7,8.1,7.5c1.2,1.5,2.5,3.3,2.8,4.5c0.1,0.6,0.1,1.2-0.2,1.7c-0.4,0.7-0.8,1.3-1.5,1.7c-0.8,0.6-1.6,1.1-2.4,1.5
		c-0.9,0.4-1.8,0.8-2.9,1.2l-6.2,2.2l-11.8,4.2l-17.2,6.1l-1.3,0.5c-3.9,1.4-8.2,2.9-12.4,4.2c-3.8,1.2-7.6,2.1-11.6,2.8
		c-3.1,0.6-6.2,0.8-9.4,0.8c1.5,0.2,2.8,0.3,4,0.4c-1.6,0-3.2,0-4.6-0.1s-2.5-0.2-3.1-0.3c-3.4-0.5-4.1-0.7-3.7-0.4
		c1,0.5,2.1,0.9,3.3,1.2c1.9,0.5-0.8,0.4,2.3,0.9c-1.9-0.2-3.7-0.5-5.5-1c1,0.3,2,0.6,3.1,0.7c1.5,0.3,2.9,0.4,2.1,0.4
		c-2.3-0.3-4.5-0.7-6.7-1.3c1.3,0.5,2.6,0.9,4,1.1c1.1,0.1,2.2,0.3,3.2,0.6c-1.2-0.1-2.4-0.3-3.6-0.6c-1-0.3-2-0.5-3-0.6
		c1,0.4,2.1,0.6,3.2,0.8c-2.4-0.4-4.7-1-7-1.8c-1-0.4-0.5,0.2,2.5,1.3c-2.5-0.8-4.9-1.9-7.1-3.3l0,0c1.2,0.8,2.5,1.5,3.8,2.1
		c-1.2-0.5-2.5-1.2-3.6-1.9l0.6,0.4c0.4,0.3,0.9,0.5,1.3,0.8c0.5,0.3,0.9,0.5,1.4,0.7c-0.8-0.4-1.6-0.8-2.4-1.2
		c0.6,0.5,1.3,0.9,2,1.3c2.4,1.3,4.9,2.3,7.6,2.9c6.9,1.4,14.1,1.3,21-0.3C192.2,235.4,198.7,233.4,205.1,231z"/>
	<path class="st5" d="M158.1,205.9c0-0.1-0.3-0.1,0.1-0.3c0.5-0.1,1.1-0.2,1.7-0.2c0.6,0,1.2,0,1.8,0l0.1-0.2c1,0,2,0.1,3.1,0.3
		c1.9,0.1,3.9,0.4,5.9,0.6c0-0.1-0.1-0.1,0.1-0.1c0.8,0.1,2,0.4,3.2,0.6l0.5,0.1c0.1,0,0.2,0,0.2-0.1l1.5,0.3
		c3.1,0.4,6.3,0.6,9.5,0.5c3.3-0.1,6.6-0.6,9.8-1.3c1.4-0.4,2.8-0.9,4.1-1.3c2-0.6,4.4-1.3,6.3-1.9c-0.5-0.4,3.9-2.3,2.9-2.5
		c1.1-0.3,2.1-0.7,3.2-1.2c0.2-0.5,0.9-1.5,4.4-2.6c1.4-0.4,3.6-0.5,4.1-0.7c0.8-0.3-1.9-0.1-1.1-0.4c-5.4,0.7-10.2,2.6-14.8,4.2
		c-2.3,0.8-4.6,1.6-6.9,2.1c-2.3,0.6-4.6,1-7,1.2c-1.8,0.2-3.6,0.3-5.4,0.3c-3.1-0.1-6.2-0.4-9.3-1c-3.4-0.6-7-1.3-10.3-1.5
		c-2.6-0.2-5.1-0.2-7.7,0.2l-0.6,0.1c-1.9,0.4-3.7,1-5.4,1.9c-1.6,0.8-3.1,1.9-4.3,3.2c-1,1.1-1.8,2.3-2.5,3.6
		c0.4-0.5,0.8-0.9,1.3-1.3c-0.8,0.9-1.4,1.8-1.8,2.9c-0.5,1.4-0.4,1.8-0.2,1.7c0.2-0.1,0.3-0.3,0.4-0.5c0.2-0.2,0.4-0.5,0.6-0.7
		c0.5-0.6,0.2,0.4,1-0.6c-0.2,0.3-0.3,0.6-0.5,0.9c-0.2,0.3-0.3,0.7-0.4,1c0,0.1,1-2.4,1-1.8c-0.4,0.7-0.7,1.5-0.9,2.3
		c0.2-0.4,0.5-0.9,0.6-1.4c0.3-0.6,0.6-1.1,0.7-1c-0.2,0.4-1.2,2-1,2.2c0,0,0.3-0.7,0.5-1.1c-0.3,0.8-0.5,1.6-0.5,2.5
		c0.1,0.4,0.2,0.1,0.6-0.8c-0.1,0.3-0.2,0.8-0.3,1.2c-0.1,0.4-0.1,0.9-0.1,1.3l0,0c0-0.4,0.1-1,0.1-1.4c-0.1,0.4,0,0.9-0.1,1.3
		l0.1-0.2c0.1-0.3,0.1-0.6,0.1-1c0,0.3,0,0.6-0.1,0.9c0.1-0.2,0.2-0.4,0.3-0.7c0.3-0.8,0.6-1.5,1-2.2c1-2,2.4-3.6,4.3-4.8
		C153.8,207.3,155.9,206.4,158.1,205.9z"/>
	<path class="st5" d="M168,192.1c-0.1-0.1-0.3-0.1,0-0.3c0.9-0.7,1.8-0.8,2.8-1.4v-0.2c0.8-0.4,1.6-0.7,2.4-1.1
		c1.5-0.8,2.9-1.5,4.4-2.2c-0.1,0-0.1-0.1,0-0.2c0.8-0.4,1.6-0.7,2.4-0.9l0.4-0.2c0.1-0.1,0.1-0.1,0.1-0.2c0.4-0.1,0.8-0.2,1.1-0.3
		c1.1-0.4,2.2-0.8,3.4-1.2s2.4-0.7,3.6-1c1.1-0.3,2.2-0.5,3.3-0.4c0.5,0.1,0.9,0.2,1.3,0.5c0.2,0.1,0.4,0.3,0.6,0.5
		c0.2,0.2,0.4,0.5,0.7,0.7c0.8,0.8,1.5,1.6,2.2,2.6c0.9,1.4,1.9,3.2,2.9,4.6c0.2-0.3,0.9,0.4,1.6,0.9s1.4,1,1.4,0.5
		c0.7,0.8,1.8,1.9,2,1.8c0.4-0.1,0.8-0.1,1.2,0c0.6,0.1,1.4,0.4,2.5,0.7c0.8,0.3,1.6,0.5,2.4,0.5c0.3-0.1-0.1-0.2-0.3-0.3
		s-0.5-0.2-0.3-0.3c-1.5-0.3-3-1-4.2-2c-1.4-1.2-2.6-2.5-3.5-4.1c-1.1-1.6-2.1-3.4-3.3-5.2c-0.6-0.9-1.3-1.8-2-2.7
		c-0.1-0.1-0.2-0.2-0.3-0.4l-0.4-0.4c-0.3-0.3-0.6-0.5-0.9-0.8c-0.7-0.5-1.4-0.8-2.2-1c-0.8-0.2-1.6-0.3-2.5-0.2
		c-1.1,0.1-2.3,0.2-3.4,0.5l-1.8,0.4c-0.7,0.1-1.3,0.3-2,0.5c-1.4,0.4-2.8,0.8-4.3,1.3c-4.6,1.7-9.1,3.8-13.4,6.3l-0.4,0.2
		c-2.4,1.4-4.7,3.1-6.9,4.9c-0.8,0.8-1.5,1.5-2.3,2.3c0.4-0.2,0.9-0.4,1.2-0.6c-0.7,0.5-1.4,1.1-2,1.7c-1.6,1.7-0.4,1,0.5,0.8
		c0.6-0.3,0.1,0.5,1,0l-1.4,1.1c0,0.2,1.7-1.5,1.4-0.9c-0.6,0.4-1.1,0.9-1.7,1.4c0.3,0,2-1.5,2-1.3c-0.3,0.3-1.8,1-1.7,1.3
		c0,0.1,0.6-0.4,0.9-0.6c-1.6,1.5-2.4,2.5-0.7,1.4c-0.5,0.4-1.4,1-1.9,1.5l0,0l1.1-0.8l-1,0.8l0.2-0.1c0.2-0.2,0.5-0.4,0.8-0.6
		l-0.6,0.5c0.2-0.1,0.5-0.2,0.7-0.3c0.9-0.5,1.7-0.9,2.1-1.2C160.8,196.7,164.3,194.3,168,192.1z"/>
	<path class="st5" d="M226.5,184.4c0-0.1-0.1-0.2,0.1-0.2c0.8,0.1,1.3,0.5,2.1,0.6l0.1-0.1l1.8,0.6l3.4,0.6c0-0.1,0-0.1,0.1-0.1
		c0.6,0.1,1.2,0.3,1.8,0.4h0.3c0.1,0,0.1,0,0.1-0.1l0.8,0.2c3.4,0.5,6.8,0.9,10.5,1.7c0.8,0.1,1.6,0.2,2.3,0.4
		c0.5,0.1,1,0.4,1.4,0.7c0.3,0.3,0.5,0.8,0.5,1.2c0.3-0.1,0.6,0.4,0.8,1s0.3,1.2,0.6,1c-0.2,0.7-0.3,1.3-0.4,2
		c0.3,0.3,0.4,0.6,0.4,1c0,0.8-0.2,1.6-0.6,2.4c-0.5,0.7-1.1,1.4-1.7,2c-0.2,0.5,1.1-0.6,0.8-0.2c1.2-1.3,2.1-2.8,2.7-4.5
		c0.3-0.8,0.5-1.7,0.6-2.5c0.2-1,0.1-2-0.1-3c-0.1-0.3-0.2-0.6-0.3-0.9c-0.1-0.3-0.3-0.6-0.5-0.9c-0.4-0.6-0.9-1.1-1.5-1.5
		c-0.5-0.3-1-0.5-1.5-0.7l-1.1-0.4c-1.4-0.4-2.8-0.9-4.2-1.2c-1-0.2-4.7-1.1-8.6-1.9l-9.7-2.1h-0.3c-1.9-0.4-3.8-0.7-5.7-0.8
		c-0.7,0-1.5,0.1-2.2,0.1l0.9,0.4c-0.6-0.1-1.2-0.2-1.8-0.2c-1.6,0-0.7,0.4-0.2,0.9c0.4,0.2-0.2,0.4,0.4,0.7l-1.2-0.2
		c-0.1,0.2,1.5,0.1,1.1,0.3c-0.5-0.1-1-0.1-1.5-0.2c0.1,0.2,1.7,0.3,1.6,0.5c-0.3,0-1.3-0.5-1.4-0.2c0,0,0.5,0.1,0.7,0.2
		c-1.5-0.1-2.3,0.1-1,0.5c-0.5-0.1-1.1-0.2-1.6-0.3l0,0c0.2,0,0.7,0.1,0.9,0.2l-0.8-0.1l0.1,0.1c0.2,0.1,0.4,0.1,0.6,0.1l-0.6-0.1
		c0.1,0.1,0.3,0.2,0.4,0.3c0.5,0.2,1.1,0.5,1.6,0.6C220.7,183.2,223.6,183.8,226.5,184.4z"/>
	<path class="st5" d="M259.2,205.1c0-0.1-0.1-0.2,0.1-0.2c0.8,0.1,1.3,0.5,2,0.6l0.1-0.1c0.5,0.2,1.1,0.4,1.7,0.7
		c1.1,0.3,2.2,0.6,3.3,0.8c0-0.1,0-0.1,0.1-0.1c0.6,0.2,1.1,0.4,1.7,0.6l0.3,0.1c0.1,0,0.1,0,0.1-0.1c0.3,0.1,0.5,0.2,0.8,0.3
		c1.6,0.4,3.2,0.9,4.9,1.4c1.8,0.6,3.7,1.1,5.5,1.3c0.9,0,1.7,0,2.5,0c1.2,0.1,2.6,0.2,3.8,0.1c-0.2-0.6,2.5-1.1,1.9-1.6
		c0.7-0.1,1.8-0.2,1.8-0.4c0.1-0.5,0.6-1.1,2.4-1.8c0.7-0.2,1.9-0.2,2.1-0.4c0.4-0.2-1-0.1-0.6-0.4c-5.5,0.9-10.6,1.9-15.3,0.1
		c-1-0.3-2-0.6-2.9-1c-1.4-0.6-3.3-1.3-5.2-2c-3.2-1.1-6.4-2-9.6-2.8l-0.3-0.1c-1.9-0.5-3.8-0.7-5.7-0.8c-0.8,0-1.5,0.1-2.2,0.2
		c0.3,0.1,0.6,0.3,0.9,0.4c-0.6-0.1-1.2-0.1-1.8-0.1c-1.6,0.1-0.7,0.5-0.2,0.9c0.4,0.2-0.2,0.4,0.5,0.6l-1.2-0.1
		c-0.1,0.2,1.5,0,1.1,0.3c-0.5-0.1-1-0.1-1.5-0.1c0.1,0.2,1.7,0.2,1.6,0.4c-0.3,0-1.3-0.4-1.4-0.1c0,0,0.5,0.1,0.7,0.1
		c-1.5-0.1-2.3,0.2-1,0.6c-0.5,0-1.1-0.2-1.6-0.2l0,0c0.2,0,0.7,0.1,0.9,0.1l-0.8-0.1l0.1,0.1c0.2,0.1,0.4,0.1,0.6,0.1h-0.6
		c0.1,0.1,0.3,0.2,0.5,0.3c0.5,0.2,1.1,0.4,1.6,0.6C253.6,204,256.4,204.6,259.2,205.1z"/>
	<path class="st5" d="M349.1,268.3c0.1,0,0.1-0.5,0.3,0.2c0.7,2.2,0.9,4.1,1.6,6.3l0.2,0.1c0.5,1.7,0.9,3.5,1.5,5.3
		c1.1,3.3,2.2,6.5,3.3,9.7c0-0.1,0.1-0.1,0.2,0.2c0.5,1.3,0.9,3.2,1.4,5.1c0.1,0.3,0.2,0.6,0.2,0.9c0,0.1,0.1,0.2,0.2,0.3
		c0.2,0.9,0.4,1.6,0.5,2.4c1.3,4.8,1.9,9.6,2,14.6c0,5.2-0.7,10.4-2.2,15.4c-0.5,2.2-1.4,4.4-2.1,6.5c-0.7,1.8-1.1,3.6-1.3,5.5
		c-0.3,2,0.2,4,1.3,5.6c0-0.2,0.4,0.1,0.9,0.5c0.7,0.5,1.4,0.9,2.2,1.2c1.7,0.6,3.2,0.5,2.5,0.1c1.1,0.2,2.2,0.3,3.4,0.2
		c0.7,0,1.3-0.1,2-0.3c0.5-0.5,1.1-0.8,1.8-1.1c1.9-0.8,3.9-1.3,5.9-1.6c1.4-0.2,2.9-0.1,4.3,0.1c1.1,0.2,2.1,0.6,3.1,1
		c0.3,0.1,0.3,0.1,0.1-0.1c-0.3-0.2-0.7-0.4-1-0.6c-0.8-0.4-1.7-0.7-0.9-0.6c-2.4-0.6-4.9-0.7-7.3-0.3c-1.1,0.2-2.2,0.4-3.2,0.6
		s-2,0.4-2.9,0.5c-1.7,0.3-3.4,0.3-5.1,0c-1.3-0.2-2.5-1-3.2-2.1c-0.6-1.3-0.8-2.8-0.4-4.2c0.4-1.9,1-3.7,1.7-5.4
		c0.4-0.9,0.8-1.9,1.1-3s0.7-2,1-3.1c0.6-2.1,1.1-4.2,1.5-6.4c0.5-3.3,0.8-6.6,0.8-9.9c0-5.5-0.8-11.1-2.1-16.4
		c-1.4-5.8-3.4-11.4-5-16.3s-2.8-8.9-3.4-11.2l-0.2-0.9c-0.6-2.6-1.2-5.4-1.6-8.2c-0.4-2.5-0.6-5.1-0.7-7.6c-0.1-2-0.1-4.1,0.1-6.1
		c-0.3,0.9-0.4,1.8-0.6,2.5c0.2-2.1,0.6-4.1,0.7-4.9c0.4-2.2,0.5-2.7,0.2-2.4c-0.2,0.2-0.4,0.5-0.5,0.8l-0.6,1.2
		c-0.5,1.2-0.4-0.6-0.9,1.4c0.1-0.7,0.3-1.2,0.4-1.8s0.3-1.1,0.5-1.8c-0.2-0.2-1,4.4-1,3.3c0.3-1.4,0.6-2.9,1.1-4.3
		c-0.4,0.8-0.7,1.7-0.9,2.6c-0.1,0.7-0.3,1.4-0.6,2.1c0-0.8,1.2-3.9,1.1-4.3c-0.3,0.7-0.5,1.3-0.7,2.1c0.5-2.2,1.1-3.9,1.3-4.6
		s-0.1-0.4-1,1.6c0.2-0.7,0.6-1.5,1-2.3s0.8-1.6,1.1-2.3l0,0c-0.3,0.7-1,1.9-1.3,2.5c0.3-0.8,0.8-1.6,1.1-2.4
		c-0.1,0.1-0.2,0.2-0.3,0.4c-0.3,0.6-0.7,1.2-0.9,1.8c0.2-0.6,0.5-1.1,0.8-1.6c-0.3,0.4-0.6,0.8-0.9,1.2c-0.9,1.6-1.6,3.2-2.2,4.9
		c-0.6,2.2-1.1,4.5-1.3,6.8c-0.2,2.3-0.3,4.6-0.2,6.9C347.4,259.4,348,263.9,349.1,268.3z"/>
	<path class="st5" d="M140.7,237.2c-0.1,0.1,0,0.3-0.3,0.1c-0.8-0.7-1-1.5-1.7-2.2l-0.2,0.1c-0.4-0.6-0.9-1.3-1.3-2
		c-0.9-1.2-1.8-2.4-2.6-3.6c0,0.1-0.1,0.1-0.2,0c-0.4-0.7-0.8-1.4-1.1-2.1l-0.2-0.3c0,0-0.1-0.1-0.2-0.1c-0.2-0.4-0.3-0.7-0.5-1
		c-2.2-3.8-4.1-8-6.4-12.6c-0.5-0.9-1.1-1.9-1.6-2.8c-0.7-1.4-1.4-3.2-2.1-4.5c-0.2,0.2-0.8-0.4-1.4-1s-1.1-1.1-1.2-0.6
		c-0.4-0.7-0.9-1.4-1.5-2c-0.5,0.1-1.4-0.2-3.2-1.9c-0.6-0.7-1.2-1.3-1.9-1.9c-0.5-0.2,0.6,1.1,0.2,0.8c2.4,2.5,4.5,5.3,6,8.4
		c1.7,3.3,3.2,6.6,4.5,10.1c0.3,0.6,0.9,2,1.8,4s1.9,4.4,3.2,6.8c1.3,2.4,2.7,4.6,4.3,6.8c1.5,2,2.8,3.5,3.6,4.4l0.3,0.3
		c1.8,2,3.8,3.7,6,5.1c0.9,0.5,1.8,1,2.7,1.4c-0.3-0.3-0.6-0.7-0.9-1c0.6,0.5,1.3,0.9,2,1.3c2,0.9,1.1,0,0.6-0.7
		c-0.4-0.5,0.4-0.2-0.2-0.9c0.5,0.4,0.8,0.6,1.4,0.9c0.1-0.1-1.7-1-1.2-1c0.5,0.4,1.1,0.7,1.7,1c-0.1-0.3-1.9-1.3-1.6-1.4
		c0.3,0.2,1.4,1.2,1.6,1.1c0,0-0.5-0.4-0.8-0.6c1.7,1,2.8,1.3,1.4,0.1c0.5,0.3,1.2,0.9,1.8,1.1l0,0l-1-0.6l1,0.6l-0.1-0.2
		c-0.2-0.2-0.5-0.3-0.7-0.5l0.6,0.4c-0.1-0.2-0.3-0.3-0.4-0.5c-0.7-0.6-1.2-1.2-1.6-1.5C146.2,242.4,143.3,240,140.7,237.2z"/>
	<path class="st5" d="M151.3,191c-0.1,0.1-0.1,0.2-0.2,0.2c-0.3-0.1-0.3-0.5-0.6-0.6l-0.1,0.1c-0.1-0.2-0.3-0.4-0.5-0.6l-1.2-0.7
		c0,0-0.1,0.1-0.1,0.1c-0.2-0.1-0.4-0.3-0.5-0.5l-0.1-0.1c0,0-0.1,0-0.1,0.1c-0.1-0.1-0.2-0.2-0.2-0.2c-1.3-0.6-2.5-1.4-3.6-2.3
		c-0.3-0.1-0.6-0.3-0.8-0.6c-0.3-0.4-0.5-0.8-0.7-1.3c-0.5,0.4-1.2-0.6-1.7-0.1c-0.1-0.3-0.3-0.8-0.4-0.7c-0.7,0.2-1.4-0.2-1.7-0.8
		c-0.2-0.4-0.1-1-0.2-1.1s-0.2,0.6-0.4,0.4c0.6,2.8,1.9,5.3,3.8,7.4c0.4,0.3,1.7,1.6,3.1,2.7s3,2.2,3.6,2.6l0.1,0.1
		c0.7,0.5,1.4,0.9,2.2,1.1c0.3,0,0.7,0.1,1,0.1c-0.1-0.1-0.1-0.3-0.2-0.4c0.3,0.2,0.5,0.3,0.7,0.3c0.7,0.1,0.5-0.3,0.5-0.8
		c-0.1-0.2,0.3-0.3,0.1-0.6l0.4,0.3c0.1-0.1-0.6-0.2-0.3-0.4c0.1,0.2,0.4,0.2,0.6,0.3c0-0.2-0.6-0.4-0.4-0.6c0.1,0,0.4,0.6,0.5,0.3
		c0,0-0.1-0.1-0.2-0.2c0.6,0.2,1,0.2,0.7-0.4c0.2,0.1,0.4,0.4,0.6,0.4l0,0c-0.1-0.1-0.2-0.2-0.3-0.2l0.3,0.2v-0.1
		c-0.1-0.1-0.1-0.1-0.2-0.2l0.2,0.1c0-0.1,0-0.2-0.1-0.3c-0.2-0.3-0.3-0.6-0.4-0.7C153.2,192.3,152.2,191.6,151.3,191z"/>
	<path class="st5" d="M119.9,149c0.1-0.1,0-0.4,0.3,0.1c0.9,1.4,2,2.7,3.3,3.8h0.2c1.1,0.9,2.2,1.7,3.4,2.3c2.2,1,4.6,1.7,7,2.2
		c-0.1-0.1,0-0.1,0.1-0.1c0.1,0,0.2,0,0.3,0.1c0,0,0.1,0,0.1,0.1c0,0,0,0,0,0.1h0.2c0,0.1-0.1,0.2-0.2,0.2c0,0,0,0.1,0,0.1
		c-0.2,0.3-0.5,0.6-0.7,1c-0.1,0.2-0.3,0.4-0.4,0.7c-0.1,0.3-0.3,0.6-0.4,0.9c-0.2,0.6-0.2,1.3-0.1,1.9c0.1,0.6,0.3,1.1,0.6,1.6
		c0.2,0.2,0.3,0.5,0.5,0.7l0.5,0.4c0.6,0.5,1,0.9,1.5,1.3c0.9,0.8,1.8,1.7,2.6,2.7c0.8,1,1.6,2.1,2.3,3.2c0.4,0.6,0.7,1.2,1,1.8
		c0.3,0.6,0.6,1.2,0.8,1.8c0.2,0.5,0.3,1,0.1,1.6c-0.3,0.6-0.7,1-1.2,1.4c-2,1.1-4.2,2-6.4,2.6c0.2,0.2-0.9,0.8-1.9,1.3
		s-2,0.9-1.5,1.1c-1.4,0.3-3.6,0.6-3.7,0.7c-0.3,0.5-1.3,1.3-5.4,1.6c-1.6,0-4-0.4-4.5-0.4c-0.9,0.1,2,0.6,1.1,0.6
		c5.8,0.7,11.7,0.1,17.3-1.8c1.4-0.5,2.7-1,4-1.6c0.7-0.3,1.3-0.6,2-1c0.9-0.4,1.6-1,2.3-1.7c0.4-0.5,0.8-1,1-1.6
		c0.3-0.6,0.4-1.3,0.4-1.9c0-1-0.2-2.1-0.6-3c-0.6-1.4-1.2-2.8-2-4.1c-0.8-1.3-1.7-2.5-2.6-3.6c-0.7-0.8-1.5-1.7-2.4-2.6
		c-0.4-0.4-1-1-1.4-1.3l-0.2-0.2h-0.1c0,0,0-0.1-0.1-0.1c0,0,0-0.1,0-0.1l0,0c0,0,0,0,0.1-0.1c0.1-0.2,0.3-0.4,0.4-0.6l0.4-0.5
		c0.2-0.2,0.4-0.5,0.6-0.7c0.7-0.9,1.2-1.9,1.3-3.1c0-0.3,0-0.5,0-0.8l-0.2-0.8l-0.1-0.4l-0.1-0.3l-0.2-0.6l-2.4-0.5l-1.2-0.2
		l-0.9-0.2c-0.8-0.2-1.6-0.4-2.3-0.6c-1.4-0.4-2.7-0.9-4-1.5c-1.7-0.8-3.2-2-4.3-3.6l-0.3-0.4c-0.4-0.7-0.8-1.5-1.1-2.2
		c-0.2-0.5-0.5-1-0.8-1.5c-0.3-0.6-0.7-1.1-1.2-1.5c-1.4-1.5-3.1-2.6-5-3.4c-1.5-0.5-3-0.8-4.6-0.9c0.6,0.2,1.2,0.4,1.8,0.7
		c-1.2-0.4-2.4-0.5-3.6-0.5c-0.5,0-1.1,0-1.6,0.2c-0.3,0.1-0.3,0.1-0.2,0.2s1,0.3,1.6,0.5c0.8,0.2-0.3,0.4,1,0.7
		c-0.4-0.1-0.8-0.1-1.2-0.1c-0.4,0-0.8,0-1.2,0c0.4,0.1,0.9,0.1,1.3,0.1c0.7,0,1.2,0.1,0.9,0.2c-0.9-0.1-1.9-0.1-2.8,0
		c0.6,0.1,1.1,0.1,1.7,0.1c0.7,0,1.4,0.2,1.3,0.3c-0.2,0-0.9-0.2-1.5-0.2s-1.2-0.1-1.2,0.1c0.4,0,0.9,0.1,1.3,0.1
		c-0.9-0.1-1.9,0.1-2.8,0.4c-0.4,0.2-0.1,0.2,1.1,0.2c-0.9,0-1.8,0.2-2.7,0.5l0,0c0.2-0.1,0.4-0.1,0.7-0.2l0.7-0.1
		c-0.5,0.1-0.9,0.2-1.3,0.4h0.3c0.3-0.1,0.7-0.1,1-0.2c-0.3,0.1-0.6,0.1-0.9,0.2c0.2,0,0.5,0,0.8,0c0.9,0,1.9,0,2.8,0.2
		c2.5,0.1,4.9,0.9,6.9,2.2l0.7,0.5l0.7,0.6l0.6,0.6c0.1,0.2,0.3,0.3,0.4,0.5C118.5,145.9,118.9,147.3,119.9,149z"/>
	<path class="st5" d="M78.9,141.4c0,0.1,0.5-0.1-0.1,0.3c-1.7,1.1-3.3,2.3-4.8,3.6v0.2c-1.4,1.1-2.6,2.3-3.8,3.6
		c-1.1,1.4-2.1,2.8-2.8,4.4c-0.7,1.6-1.2,3.3-1.5,5c0.1-0.1,0.1-0.1,0.1,0.2c-0.3,1.7-0.4,3.5-0.5,5.2c0,0.3,0,0.6,0.1,0.9
		s0.1,0.3,0.1,0.3c0,0.9,0,1.7,0.1,2.4c0.3,2.4,0.8,4.7,1.5,7c0.7,2.3,1.6,4.5,2.8,6.6c1.2,2.2,2.5,4.2,4,6.2c1.6,2,3.3,3.8,5.2,5.5
		c1.7,1.3,3.4,2.6,5.2,3.7c2.8,1.8,5.7,3.3,8.8,4.4c-0.1-0.3,1.5,0,3.1,0.2s3,0.2,2.3-0.2c1.6,0.4,3.3,0.5,4.9,0.5
		c0.5-0.6,2-0.7,6.8-1.5l1.6-0.2l1.6-0.3c0.8-0.1,1.5-0.3,2.2-0.5c1-0.4-2.5,0.3-1.5-0.1c-13.6,3-28.6-1.8-36.9-13.4
		c-1.6-2.1-3-4.4-4.1-6.8c-0.9-1.9-1.6-3.9-2.1-6c-0.6-2.3-0.9-4.7-1-7.1c-0.2-2.4,0-4.8,0.6-7.1c0.5-2.1,1.5-4,2.8-5.7
		c1.2-1.5,2.5-2.9,4-4.2c0.7-0.6,1.3-1,1.8-1.5s1.1-0.8,1.5-1.1c0.2-0.2,0.4-0.3,0.6-0.4c3.9-2.6,8.2-4.4,12.8-5.6l1.3-0.4l1.3-0.3
		c0.9-0.2,1.8-0.3,2.7-0.4c-0.8-0.1-1.6-0.2-2.3-0.2c0.9-0.1,1.9-0.1,2.6-0.1c0.6,0,1.2,0,1.8,0c2,0.1,2.4,0,2.2-0.2
		c-0.6-0.3-1.3-0.6-1.9-0.7c-1.1-0.2,0.4-0.4-1.4-0.7l1.6,0.1c0.5,0.1,1,0.1,1.6,0.2c-0.6-0.2-1.2-0.3-1.8-0.3
		c-0.9,0-1.7-0.1-1.3-0.2c0.6,0.1,1.3,0.1,2,0.1s1.4,0.1,2,0.2c-0.8-0.2-1.6-0.4-2.4-0.5c-0.7,0-1.3-0.1-1.9-0.2
		c0.7,0,1.4,0.1,2.2,0.2c0.6,0.2,1.2,0.2,1.8,0.2c-0.6-0.1-1.3-0.2-1.9-0.3c1,0.1,1.9,0.2,2.7,0.3s1.3,0.2,1.6,0.2
		c0.6,0,0.3-0.2-1.5-0.7c0.7,0.1,1.4,0.3,2.2,0.6s1.6,0.5,2.2,0.7l0,0c-0.7-0.2-1.8-0.6-2.4-0.8c0.8,0.2,1.5,0.5,2.3,0.7l-0.4-0.2
		c-0.6-0.2-1.1-0.4-1.7-0.6l1.5,0.5c-0.3-0.2-0.8-0.4-1.2-0.6c-0.9-0.3-1.8-0.6-2.6-0.9c-0.7-0.2-1.3-0.3-2-0.4
		c-4.2-0.5-8.5-0.1-12.6,1C86.3,137.3,82.5,139,78.9,141.4z"/>
	<path class="st5" d="M118.5,194.3c-0.1,0-0.2,0.1-0.2,0c-0.1-0.4,0.2-0.7,0-1.1h-0.2c0-0.3,0.1-0.6,0.1-0.9
		c-0.1-0.5-0.3-1.1-0.4-1.6c-0.1,0-0.1,0.1-0.1,0c-0.1-0.3-0.1-0.6-0.2-0.9l-0.1-0.1c0,0-0.1,0-0.1,0c0-0.1-0.1-0.3-0.1-0.4
		c-0.8-1.5-1.7-2.9-2.7-4.2c-0.3-0.2-0.6-0.5-0.8-0.8c-0.3-0.5-0.5-1-0.7-1.5c-0.5,0.3-1.3-0.5-1.7,0c-0.1-0.3-0.4-0.7-0.5-0.6
		c-0.6,0.3-1.2,0.2-1.7-0.2c-0.2-0.2-0.3-0.7-0.5-0.8s0,0.5-0.3,0.5c1.2,1.8,2.4,3.8,3.3,5.8c0.6,1,1.1,2,1.4,3.1
		c0.4,1.2,0.6,2.5,0.7,3.7v0.1c0,0.7,0.1,1.5,0.3,2.2c0.1,0.3,0.3,0.6,0.4,0.9c0.1-0.1,0.2-0.2,0.3-0.3c-0.1,0.2-0.1,0.5,0,0.7
		c0.2,0.6,0.5,0.3,0.9,0.1c0.2-0.2,0.4,0.1,0.6-0.2c0,0.2,0,0.3-0.1,0.5c0.2,0,0-0.7,0.2-0.5c0,0.2,0,0.4,0,0.7
		c0.2-0.1,0.2-0.7,0.4-0.7s-0.4,0.6-0.1,0.7c0,0,0.1-0.2,0.1-0.3c0,0.7,0.2,1.1,0.6,0.5c-0.1,0.2-0.2,0.5-0.2,0.8l0,0
		c0-0.1,0.1-0.3,0.1-0.4l-0.1,0.4l0.1-0.1c0.1-0.1,0.1-0.2,0.1-0.3l-0.1,0.3l0.3-0.2c0.2-0.3,0.5-0.6,0.6-0.8
		C118.4,197.2,118.6,195.7,118.5,194.3z"/>
	<path class="st5" d="M103.6,177.7c0,0.1,0,0.2-0.1,0.2c-0.5-0.1-0.8-0.5-1.2-0.6l-0.1,0.1c-0.3-0.2-0.5-0.5-0.8-0.7
		c-0.5-0.4-1-0.8-1.4-1.3c0,0-0.1,0.1-0.1,0c-0.2-0.3-0.4-0.6-0.5-0.9l-0.1-0.1c0,0-0.1,0-0.1,0c-0.1-0.2-0.1-0.3-0.1-0.5
		c-0.8-1.9-1.1-3.8,1.5-4.6c0.5-0.2,1.1-0.4,1.6-0.4c0.9,0.1,1.8,0.3,2.6,0.6c0-0.3,0.6-0.4,1.1-0.4s1,0,0.9-0.4
		c0.6,0.2,1.3,0.7,1.4,0.6c0.4-0.4,1.1-0.7,2.7,0.1c0.6,0.4,1.2,1.2,1.5,1.3c0.4,0.1-0.4-0.9,0-0.7c-1.9-1.8-4.2-3.1-6.7-3.8
		c-1.3-0.4-2.6-0.6-4-0.6c-1.6,0-3.2,0.4-4.6,1.2c-0.4,0.3-0.8,0.7-1.2,1.1c-0.6,0.6-1,1.4-1.3,2.2c-0.5,1.9-0.4,4,0.4,5.8
		c0.7,1.8,1.9,3.4,3.4,4.5c1,0.8,2.2,1.4,3.5,1.9l0.3,0.1c1.5,0.5,3,0.8,4.6,0.9c0.6,0,1.2,0,1.8-0.1c-0.2-0.1-0.5-0.3-0.7-0.4
		c0.4,0.1,0.9,0.2,1.4,0.2c1.3,0,0.6-0.4,0.3-0.9c-0.3-0.2,0.2-0.4-0.3-0.7l0.9,0.2c0.1-0.1-1.2-0.2-0.9-0.4
		c0.4,0.1,0.8,0.2,1.2,0.2c-0.1-0.2-1.3-0.4-1.2-0.6c0.2,0,1,0.5,1.1,0.3c0,0-0.3-0.1-0.5-0.2c1.2,0.2,1.9,0.1,0.9-0.5
		c0.4,0.1,0.8,0.3,1.2,0.4l0,0c-0.2,0-0.5-0.2-0.7-0.2l0.7,0.2l-0.1-0.1c-0.2-0.1-0.3-0.1-0.5-0.2l0.4,0.1c-0.1-0.1-0.2-0.2-0.3-0.3
		c-0.4-0.3-0.8-0.5-1.2-0.7l-3.3-0.9C105.7,178.3,104.5,178,103.6,177.7z"/>
	<path class="st5" d="M110.8,159.1c-0.1,0-0.2,0.1-0.2-0.1c-0.1-0.5,0.2-0.9,0-1.4h-0.2c0-0.4,0.1-0.8,0.1-1.2
		c-0.1-0.7-0.3-1.4-0.5-2.1c0,0-0.1,0.1-0.1,0c-0.1-0.4-0.2-0.7-0.2-1.1l-0.1-0.2c0,0-0.1,0-0.1,0c0-0.2,0-0.4-0.1-0.5
		c-0.8-1.8-1.4-3.7-1.8-5.7c-0.1-0.4-0.2-0.9-0.3-1.3c0.1-0.7,0.2-1.3,0.5-1.9c-0.3,0-0.4-0.4-0.4-0.8s-0.1-0.8-0.5-0.8
		c0.2-0.4,0.6-1,0.5-1.1c-0.3-0.3-0.7-1,0.1-2.3c0.3-0.5,1.2-0.9,1.3-1.1s-0.8,0.2-0.7-0.1c-1.8,1.3-3.1,3.2-3.7,5.3
		c-0.5,1.9-0.7,3.9-0.6,5.9c0.1,0.6,0.6,3.1,1.1,5.3c0.3,1.1,0.5,2.2,0.7,3.2c0.1,0.7,0.2,1.4,0.2,2.1v0.1c0,1,0,2,0.1,2.8
		c0.1,0.4,0.2,0.7,0.2,1.1l0.4-0.4c-0.1,0.3-0.2,0.6-0.2,0.9c-0.1,0.8,0.3,0.6,0.8,0.4c0.2-0.2,0.4,0.2,0.7-0.1
		c-0.1,0.3-0.2,0.4-0.3,0.7c0.1,0.1,0.2-0.9,0.4-0.6c-0.2,0.2-0.2,0.6-0.3,0.9c0.3,0,0.5-1,0.7-0.8c0,0.2-0.6,0.7-0.4,0.9
		c0,0,0.2-0.2,0.2-0.4c-0.3,0.9-0.3,1.6,0.3,0.8c-0.2,0.3-0.5,0.6-0.6,1l0,0c0.1-0.1,0.3-0.4,0.4-0.5l-0.3,0.5h0.2
		c0.1-0.1,0.2-0.2,0.3-0.4l-0.2,0.4c0.1,0,0.3-0.1,0.4-0.2c0.4-0.3,0.7-0.6,0.9-0.9C110.4,163.4,110.9,161.3,110.8,159.1z"/>
	<path class="st5" d="M68.9,193.1c0.1,0,0.2-0.1,0.2,0.1c0,0.4-0.1,0.8-0.2,1.2c-0.1,0.4-0.1,0.9,0,1.3l0.2,0.1c0,0.4,0,0.7,0.1,1.1
		c0.1,0.4,0.2,0.8,0.3,1.1c0.6,1.1,1.5,2.1,2.6,2.8c0-0.1,0-0.1,0.1-0.1c0.4,0.3,0.9,0.6,1.4,0.9l0.2,0.1c0.1,0,0.1,0,0.2-0.1
		c0.2,0.1,0.4,0.2,0.6,0.4l0.4,0.1c0.1,0,0.3,0.1,0.5,0.2l1,0.4c0.7,0.3,1.3,0.6,2,0.8c1.4,0.5,2.9,0.9,4.4,1.1c0.7,0,1.4,0,2.1-0.1
		c0.6,0,1.1-0.1,1.7-0.3c0.6-0.2,1.1-0.5,1.5-1c-0.3-0.1-0.1-0.7-0.1-1.2s-0.2-1-0.5-0.8c0.2-0.5,0.3-1.3,0.1-1.4
		c-0.5-0.2-1-0.6-1.1-2.2c0.1-0.7,0.3-1.3,0.4-2c0-0.5-0.6,0.9-0.6,0.4c-0.3,1.2-0.5,2.3-0.6,3.5c0,0.6-0.2,1.1-0.4,1.6
		c0,0-0.1,0.2-0.8,0.1c-0.9-0.1-1.7-0.3-2.5-0.6c-0.7-0.2-1.4-0.5-2.1-0.8c-0.5-0.2-1.1-0.5-1.7-0.9l-0.9-0.5l-0.6-0.4l-0.5-0.3
		c-0.6-0.3-1.1-0.6-1.6-1c-0.2-0.2-0.4-0.3-0.5-0.5l-0.2-0.2c0-0.1-0.1-0.2-0.1-0.2c-0.2-0.5-0.3-1-0.2-1.6c0,0,0-0.1,0-0.1
		c0.4-1.1,0.8-2.2,1.4-3.3c0.2-0.5,0.4-1,0.6-1.5c-0.2,0.1-0.4,0.2-0.6,0.3c0.3-0.3,0.6-0.7,0.8-1.1c0.6-1,0-0.7-0.7-0.7
		c-0.4,0.1-0.2-0.4-0.7-0.1c0.3-0.3,0.4-0.4,0.7-0.7c-0.1-0.1-0.8,0.9-0.8,0.6c0.3-0.3,0.5-0.6,0.8-0.9c-0.2,0-1,0.9-1.1,0.8
		c0.1-0.2,1-0.6,0.8-0.9c0,0-0.3,0.2-0.4,0.4c0.8-0.9,1-1.6,0.1-1c0.4-0.3,0.7-0.6,1-0.9l0,0c-0.2,0.1-0.4,0.4-0.6,0.5l0.5-0.5h-0.2
		c-0.1,0.1-0.3,0.2-0.4,0.3l0.3-0.3c-0.2,0-0.3,0.1-0.5,0.1c-0.4,0.2-0.9,0.4-1.3,0.7c-0.5,0.4-0.9,0.9-1.3,1.4l-0.6,0.7l-0.6,0.8
		l-0.6,0.8c-0.2,0.3-0.3,0.6-0.5,1c-0.2,0.3-0.3,0.7-0.4,1C69.1,192.4,69,192.7,68.9,193.1z"/>
	<path class="st5" d="M67.8,235.5c0.1,0,0-0.5,0.3,0.2c0.8,2.1,1.2,3.8,2,5.8l0.2,0.1c0.5,1.6,1,3.2,1.4,4.9
		c0.9,2.9,1.5,5.9,1.6,8.9c0.1-0.1,0.1-0.1,0.1,0.2c0,0.7,0,1.4-0.1,2.1v0.3c0,0.1,0,0.3-0.1,0.4c-0.1,0.4-0.2,0.7-0.2,1.1
		c-0.2,1-0.6,1.9-1,2.8c-0.1,0.3-0.2,0.6-0.4,0.9l-0.6,1.1c-0.2,0.5-0.2,0.6-0.2,0.6l-1.6,3l0.8-0.1h0.3l0.3,0
		c0.1,0,0.3-0.1,0.4-0.1l1.4-0.4c0.9-0.3,1.7-0.5,2.5-0.9c1.8-0.6,3.5-1.5,5-2.7l1.1-1c0.2-0.1,0.3-0.3,0.4-0.4l0.3-0.4
		c0.5-0.5,0.9-1,1.3-1.5c0.8-1.1,1.4-2.2,2-3.3c1.3-2.3,2.3-4.7,3.1-7.2c0.8-2.5,1.4-5.1,1.7-7.7c0.2-2.2,0.3-4.5,0.2-6.8
		c-0.1-3.5-0.7-7-2-10.4c-0.2,0.3-1-1.3-2-2.6s-2-2.5-1.8-1.7c-0.9-1.5-1.8-3-2.9-4.5c-0.6-0.3-1.2-0.8-1.6-1.4
		c-0.5-0.6-0.9-1.3-1.3-2.1c-0.3-0.6-0.5-1.2-0.6-1.8c-0.2-0.9-0.2-1.8,0-2.7c0.2-0.8,0.6-1.5,1.1-2.2c0.4-0.6,0.8-1.1,1.3-1.6
		c0.8-0.9,1.5-1.6,1.7-1.9c0.7-1-2.1,1.8-1.4,0.8c-0.8,0.8-1.5,1.7-2.1,2.6c-0.4,0.6-0.8,1.3-1,2c-0.2,0.8-0.4,1.6-0.3,2.4
		c0.1,1.3,0.4,2.6,1,3.8c0.4,1,0.9,1.9,1.4,2.9c2,3.6,4.3,6.7,5.6,9.9c1.3,3.4,1.8,6.9,1.6,10.5c-0.2,3.7-0.9,7.4-2.2,10.9
		c-0.8,2.6-1.9,5.1-3.3,7.4c-0.5,0.8-1.1,1.6-1.8,2.4c-0.3,0.4-0.7,0.8-1.1,1.1l-0.2,0.2l-0.1,0.1l-0.1,0.1
		c-0.1,0.1-0.3,0.2-0.4,0.2l-0.2,0.1c0,0,0.1-0.1,0.1-0.2s0-0.2,0.1-0.2v-0.1l0.1-0.4c0,0,0.1-0.6,0.1-0.9s0.1-0.8,0.1-1.2
		c0-0.8,0-1.6,0-2.3c-0.1-2.8-0.6-5.7-1.4-8.4c-0.7-2.6-1.5-4.8-2.2-6.6s-1.3-3.4-1.7-4.5l-0.3-0.8c-0.9-2.4-1.6-5-2.1-7.5
		c-0.4-2.3-0.6-4.7-0.4-7c0.1-1.9,0.3-3.9,0.6-5.8c-0.3,0.9-0.6,1.7-0.8,2.4c0.4-2,1-3.9,1.1-4.7c1.1-4.2,0.1-2-0.8-0.5
		c-0.5,1.1-0.3-0.5-1,1.2c0.4-1.3,0.6-2,1.1-3.3c-0.1-0.2-1.2,4.1-1.2,3.1c0.4-1.3,0.8-2.7,1.3-4c-0.4,0.4-1.6,4.5-1.7,4.3
		c0.1-0.8,1.4-3.6,1.3-4c-0.3,0.6-0.5,1.3-0.7,1.9c1.3-4.1,1.9-6.4,0.3-2.8c0.5-1.3,1.2-3,1.7-4.4l0,0c-0.3,0.7-0.7,1.8-1,2.4
		l0.9-2.3c-0.1,0.1-0.2,0.2-0.3,0.4c-0.2,0.6-0.5,1.1-0.7,1.7l0.6-1.5c-0.2,0.3-0.5,0.8-0.7,1.2c-0.8,1.7-1.7,3.4-2,4.4
		c-1.6,4.2-2.4,8.6-2.5,13C65.3,226.9,66.2,231.3,67.8,235.5z"/>
	<path class="st5" d="M178.6,199.2c0-0.1-0.2-0.2,0-0.3c0.5-0.2,1,0,1.5-0.3v-0.2c0.4-0.1,0.9-0.1,1.4-0.2c0.8-0.3,1.6-0.6,2.4-0.9
		c0-0.1-0.1-0.1,0-0.1c0.4-0.2,0.8-0.3,1.3-0.4l0.2-0.1c0,0,0-0.1,0-0.1l0.6-0.2c2.3-1.2,4.4-2.6,6.5-4.1c0.4-0.4,0.9-0.8,1.3-1.1
		c0.7-0.5,1.6-0.9,2.2-1.4c-0.2-0.2,0-0.6,0.2-1s0.4-0.8,0-0.9c0.4-0.3,1-0.8,0.9-0.9c-0.2-0.4-0.3-1.1,0.4-2.2
		c0.3-0.4,0.9-0.8,0.9-1s-0.7,0.2-0.6-0.1c-2.5,2.5-5.5,4.6-8.7,6.2c-1.7,1-3.4,1.8-5.2,2.5c-1.2,0.5-2.6,0.9-3.6,1.3
		s-2.1,0.6-2.6,0.7l-0.2,0.1c-1.3,0.3-2.6,0.8-3.8,1.4c-0.5,0.3-0.9,0.6-1.4,1c0.3,0,0.5,0,0.7,0c-0.4,0.1-0.8,0.3-1.2,0.6
		c-1,0.7-0.2,0.7,0.3,0.9c0.4,0,0.1,0.4,0.6,0.4l-0.8,0.3c0,0.2,0.9-0.5,0.8-0.2c-0.3,0.1-0.6,0.3-0.9,0.4c0.2,0.1,1.1-0.4,1.1-0.2
		c-0.1,0.1-1,0.1-0.9,0.4c0,0.1,0.3-0.1,0.5-0.1c-0.9,0.5-1.2,1-0.3,0.9c-0.3,0.1-0.7,0.2-1,0.4l0,0c0.1-0.1,0.4-0.2,0.5-0.2
		l-0.5,0.3l0.1,0.1c0.1,0,0.3-0.1,0.4-0.1l-0.3,0.2c0.1,0,0.3,0.1,0.4,0.1c0.4,0,0.8,0,1.1-0.1C174.8,200.2,176.7,199.6,178.6,199.2
		z"/>
</g>
</svg>
