<?xml version="1.0" encoding="utf-8"?>
<!-- Generator: Adobe Illustrator 25.4.1, SVG Export Plug-In . SVG Version: 6.00 Build 0)  -->
<svg version="1.1" id="Lager_1" xmlns="http://www.w3.org/2000/svg" xmlns:xlink="http://www.w3.org/1999/xlink" x="0px" y="0px"
	 viewBox="0 0 500 500" style="enable-background:new 0 0 500 500;" xml:space="preserve">
<style type="text/css">
	.st0{fill:#FFFFFF;}
	.st1{fill:#F9CDDE;}
	.st2{fill:#1D1D1D;}
	.st3{fill:#CC0066;}
</style>
<g id="Lager_13">
	<path class="st0" d="M425.5,123.9L368,172.6c-5.1,4.3-10.3,8.8-13.1,14.8c-7,14.9,3,32.1,3.2,48.6c0.3,19.6-15.5,38.3-35,41.1
		s-40-10.4-45.4-29.3c-1.8-6.4-2.5-14-7.9-18c-7.2-5.3-17.4-0.5-26.1-2.4c-13.1-2.9-17.8-18.7-20-31.9c-1.9-10.9-3.8-22-1.6-32.8
		s9.2-21.4,19.7-24.4c15-4.3,30.6,7.4,46.1,5.5c13-1.6,20.7-15.3,29.9-24.7c20-20.6,43.9-39.9,63.9-59.9"/>
	<path class="st0" d="M76.7,383c22-25.2,41.9-52.2,63.8-77.4c4.8-5.5,9.8-11.4,11.7-18.5c3.1-11.6-2.5-23.7-1.8-35.7
		c0.8-14.1,11.4-27.2,25.1-30.8s29.4,2.4,37.1,14.3c6.2,9.5,7.5,21.9,15.1,30.3c14,15.5,41.6,9.9,56.8,24.3c13.4,12.8,9.8,37-4,49.5
		s-34,15.1-52.4,12.7c-8.2-1.1-16.8-3-24.6-0.3s-10.3,10-15.5,16.6c-18.7,23.3-37.6,51.3-56.9,72.7"/>
	
		<ellipse transform="matrix(0.651 -0.759 0.759 0.651 -107.9272 278.2924)" class="st1" cx="248.7" cy="256.5" rx="48.1" ry="74.2"/>
	<path class="st2" d="M352.8,232.6c0.2,0,0.2-1.8,0.6,1c0,0.5,0.1,1.1,0.1,1.6s0,1,0,1.5c-0.1,1,0,2-0.2,2.9s-0.3,1.9-0.5,2.8
		s-0.5,1.8-0.7,2.8c-1.2,3.8-2.9,7.3-5.1,10.7c0,0.2,0,0.5-0.1,0.7c-2,2.7-4.3,5.2-6.9,7.4c-2.7,2.2-5.6,4-8.7,5.4
		c-2.9,1.3-5.9,2.2-9,2.8c-3.1,0.4-6.3,0.4-9.4,0c-3.1-0.5-6.2-1.3-9.2-2.5c-2.9-1.2-5.7-2.8-8.3-4.7c0.2,0.3,0.2,0.5-0.8-0.2
		c-2.5-1.9-4.7-4.1-6.6-6.5c-2.2-2.9-4-6.1-5.2-9.5c-0.4-1-0.8-2-1.1-3.2c-0.1-0.4-0.3-0.8-0.6-1.2c-0.9-3.7-1.6-7.4-3.2-10.9
		c-1.5-3.2-3.8-5.9-6.8-7.7c-0.8-0.5-1.6-0.9-2.4-1.2s-1.6-0.6-2.5-0.8c-1.6-0.3-3.2-0.5-4.8-0.5c-2.8,0-5.6,0.2-8.4,0.5
		c-2.4,0.3-4.8,0.4-7.2,0.2c-4.3-0.4-8-2.8-10.8-6.4c-2.8-4.1-4.9-8.6-6.2-13.4c-0.7-2.5-1.3-5.1-1.9-7.7s-1-5.4-1.5-8
		c-1-5.3-1.5-10.7-1.6-16.1c-0.1-5.3,0.8-10.6,2.6-15.6c1.9-5,5-9.4,9.2-12.8c3.5-2.8,7.9-4.4,12.4-4.6c4.6-0.1,9.3,0.5,13.7,1.7
		c3.4,0.9,6.9,1.9,10.7,2.9c3.9,1,7.9,1.6,12,1.7c1,0,2.1-0.1,3.1-0.2s2.1-0.3,3.1-0.5c2-0.4,3.9-1.1,5.8-1.9
		c3.5-1.5,6.7-3.4,9.7-5.8c-0.6,0.1,0.6-1.1,2.6-3.1s4.5-4.7,6.9-7.5c4.7-5.5,9.1-10.5,6.4-8.6c6.4-6.5,16.6-15.6,16.9-16.3
		c0.5-1.1,1.8-3,5.2-6.7s9-9.2,17.8-17.4L373.6,67c3.8-3.5,7-6.6,8.1-7.8c1.7-2-0.5,0.1-2.8,2.1s-4.6,3.9-2.8,2
		c-12.6,11.9-25.8,23.1-38.8,34.8c-6.5,5.8-12.9,11.8-19,18c-3.1,3.1-6,6.3-9,9.2c-2.8,2.9-5.9,5.5-9.2,7.9c-3,2.2-6.3,3.8-9.9,4.8
		c-0.9,0.2-1.7,0.4-2.6,0.5s-1.8,0.1-2.6,0.2s-1.8,0-2.7-0.1s-1.9-0.2-2.8-0.3c-4.1-0.7-8.1-1.6-12-2.8c-4.4-1.3-8.9-2.3-13.4-3
		c-5.1-0.7-10.3-0.2-15.2,1.4c-2.5,0.9-4.8,2.2-7,3.7c-2.1,1.5-4,3.3-5.7,5.2c-3.3,3.8-5.8,8.2-7.4,13c-0.8,2.3-1.4,4.8-1.8,7.2
		c-0.4,2.4-0.6,4.8-0.7,7.2c-0.1,5.3,0.3,10.6,1.1,15.8c0.5,3.5,1.2,7.3,1.9,11.5c0.8,4.7,2.1,9.3,3.7,13.8c0.9,2.6,2.1,5.1,3.4,7.5
		c1.5,2.7,3.4,5.1,5.6,7.2c2.5,2.3,5.5,4.1,8.7,5.2c0.8,0.2,1.7,0.5,2.5,0.7s1.7,0.3,2.6,0.4c1.6,0.1,3.2,0.2,4.9,0.1
		c3.1-0.1,6-0.5,8.6-0.6s5,0.1,6.6,0.9c1.8,0.8,3.2,2.3,4,4.1c1.1,2.5,1.9,5.1,2.4,7.7c0.4,1.5,0.7,3,1.2,4.6l0.8,2.4l0.4,1.2
		l0.5,1.2l1.1,2.3c0.4,0.8,0.8,1.5,1.2,2.2c0.8,1.5,1.8,2.9,2.8,4.2c0.5,0.7,1,1.4,1.6,2c0.5,0.6,1.1,1.3,1.6,1.9l1.8,1.8l0.9,0.9
		l1,0.8l1.9,1.6c0.6,0.5,1.3,1,2,1.5c1.3,1,2.7,1.8,4.2,2.6c5.7,3.2,12,5.2,18.5,5.8c6.2,0.6,12.5-0.2,18.4-2.4
		c5.3-2,10.2-5,14.5-8.8c3.8-3.3,7-7.3,9.6-11.6c2.2-3.7,3.9-7.7,5-11.8c0.2-1,0.4-1.9,0.6-2.8s0.3-1.8,0.4-2.6
		c0.2-1.6,0.3-3.2,0.4-4.8V236v-1l-0.1-2.1c-0.5-6.2-2-12.2-3.3-18.1c-0.7-2.9-1.3-5.8-1.7-8.7c-0.2-1.4-0.4-2.8-0.5-4.2
		c-0.1-1.3-0.1-2.7,0-4s0.2-2.6,0.4-3.8c0.3-1.2,0.6-2.4,1.1-3.5c0.9-2.3,2.1-4.4,3.7-6.3c3.1-3.9,7.2-7.2,10.8-10.4
		c6.5-5.9,13.2-12,19.8-18c-3.3,2.5-6.4,4.9-9,6.9c7-5.9,13.9-11.7,16.4-14.2c14.5-12.9,5.7-6.2-0.5-2c-4.3,3.2,0.9-1.9-5.8,3.3
		l11.4-9.8c0.3-0.7-14.1,12.2-11.3,9.1c4.5-3.7,9.4-8.1,14-12c-1.9,1-16.1,13.5-15.7,12.5c2.4-2.2,13.4-10.6,13.9-11.7
		c0.1-0.2-4.5,3.7-6.8,5.6c14.1-12.2,21.6-19.2,8.2-8.7c4.5-3.8,11-9,15.8-13.2l0,0l-8.8,7.3l8.1-6.9l-1.6,1
		c-2.1,1.7-4.1,3.3-6.2,5.1l5.4-4.6c-1.5,1-3.1,2.2-4.9,3.5c-6.6,5.2-13.1,10-16.6,12.9L378,157.9l-10.6,8.9
		c-3.7,3-7.3,6.2-10.7,9.6c-1.8,1.9-3.4,4-4.8,6.2c-0.7,1.2-1.4,2.4-1.9,3.7c-0.6,1.3-1,2.6-1.4,3.9c-1.3,5.1-1.6,10.4-0.9,15.6
		c0.7,4.7,1.6,9.4,2.7,14C351.5,224,352.3,228.3,352.8,232.6z"/>
	<path class="st2" d="M157.2,267.8c-0.2,0-0.1,2-0.7-1.1c-0.9-4.2-1.3-8.4-1.4-12.6c0-1.9,0.2-3.7,0.6-5.6c0.4-1.9,0.9-3.8,1.6-5.6
		c0-0.2,0-0.4-0.1-0.7c2.8-6.1,7.5-11,13.4-14.2c2.7-1.5,5.6-2.5,8.6-3.1c3-0.5,6.1-0.5,9.2,0c6.2,1,11.9,3.8,16.4,8.1
		c-0.1-0.3-0.2-0.5,0.7,0.3c2.1,2.2,3.9,4.7,5.2,7.4c1.6,3.2,2.9,7,4.5,11.1c0.5,1.2,1,2.4,1.5,3.6c0.2,0.5,0.5,0.9,0.8,1.2
		c1.5,3.6,3.4,7,5.8,10.1c1.9,2.4,4.2,4.4,6.8,6.1c2.5,1.6,5.1,3,7.8,4.1c5.2,1.9,10.6,3.4,16,4.4c5.1,0.9,10.2,2.1,15.3,3.6
		c4.7,1.3,9.1,3.7,12.9,6.9c3.6,3.3,6,7.6,7.1,12.4c1.1,5,1,10.2-0.2,15.2c-1.2,5.1-3.5,10-6.8,14.1c-3.4,4.2-7.7,7.7-12.5,10.2
		c-8.2,4.6-17.8,6.8-27,7.2c-3.6,0.1-7.3,0-10.9-0.3c-3.8-0.4-7.7-1-11.6-1.5c-4-0.6-8.1-0.7-12.1-0.3c-3.9,0.5-7.6,1.8-10.8,3.9
		c0.6,0-0.8,1.1-2.8,3c-2.4,2.4-4.7,5-6.7,7.7c-4.3,5.9-8,11.4-5.5,9.1c-5.7,7.1-14.3,17.7-14.5,18.5c-0.6,2.3-4.1,8.4-18.7,27.6
		c-5.8,7.5-15.2,18.5-17.2,21.3c-3,4.3,8.2-9.1,5.2-4.8l32.9-40.7l16.2-20.2c2.7-3.4,5.3-6.8,8-9.7c2.4-2.8,5.3-5.2,8.6-7
		c1.5-0.8,3.1-1.3,4.8-1.7c1.8-0.3,3.6-0.5,5.4-0.5c4.1,0.2,8.2,0.6,12.2,1.3c9.1,1.4,18.3,1.5,27.4,0.2c9.5-1.3,18.5-4.7,26.5-10
		c2-1.4,3.9-2.9,5.7-4.6c1.8-1.7,3.5-3.6,4.9-5.7c2.9-4,5.1-8.6,6.5-13.3c0.6-2.2,1.1-4.4,1.4-6.7c0.4-3.4,0.5-6.8,0.1-10.1
		c-0.5-4.4-1.8-8.7-3.9-12.6c-1.2-2.3-2.8-4.4-4.5-6.2c-1.9-2-4-3.7-6.3-5.2c-4.8-2.9-9.9-5.1-15.4-6.4c-5.4-1.5-10.9-2.5-16.3-3.8
		s-10.6-2.9-15-5.6c-2.2-1.3-4.1-3-5.7-5c-1.7-2.1-3.1-4.4-4.2-6.8c-2.4-5.1-4.1-11-7-17c-0.3-0.8-0.7-1.5-1.1-2.2s-0.8-1.5-1.3-2.2
		c-0.4-0.7-0.9-1.5-1.5-2.1l-0.8-1.1l-0.8-1c-2.2-2.6-4.8-4.9-7.6-6.9c-5.5-3.7-11.8-6.1-18.4-6.8c-6.3-0.7-12.8,0.3-18.6,2.8
		c-5.3,2.4-10,5.9-13.8,10.3l-0.7,0.8L154,230c-0.4,0.5-0.8,1.1-1.2,1.6l-1.1,1.7l-0.5,0.8l-0.5,0.9l-0.9,1.7
		c-0.3,0.6-0.5,1.1-0.8,1.7c-0.6,1.1-0.9,2.3-1.3,3.4c-1.4,4.2-2,8.6-1.9,13c0.1,3.3,0.5,6.5,1,9.7l0.6,3.8
		c0.9,5.6,1.7,11.1,0.7,16.1s-3.8,9.6-7.5,14.1c-1.8,2.2-3.8,4.5-5.7,6.8l-5.6,6.6c-3.7,4.3-7.1,8.4-10.2,12.1l-16.9,20.8l7.9-8.2
		c-6,6.8-12,13.7-14.2,16.5c-12.4,14.9-4.7,7,0.8,1.9c3.8-3.8-0.6,2,5.2-4.1l-10,11.4c-0.2,0.7,12.2-14.2,9.8-10.7
		c-3.9,4.3-8.1,9.4-12.1,13.9c1.7-1.3,14-15.7,13.7-14.7c-2.1,2.5-11.7,12.5-12,13.7c-0.1,0.2,3.9-4.3,5.9-6.6
		c-12.2,14.2-18.6,22.3-6.9,9.8c-3.9,4.4-9.6,10.6-13.6,15.4l0,0l7.6-8.5l-7,8l1.4-1.2c1.8-2,3.6-3.9,5.4-6l-4.7,5.3
		c1.3-1.2,2.8-2.6,4.3-4.2c5.8-6.1,11.5-11.8,14.5-15.2l36.5-41.4l9.1-10.4c3.3-3.6,6.3-7.4,9-11.5c1.4-2.2,2.6-4.6,3.5-7.1
		c0.9-2.6,1.5-5.3,1.7-8C158.4,277.8,158.1,272.7,157.2,267.8z"/>
	<path class="st3" d="M344.1,302.9c0.4,0.2,0.8,0.2,0.8,0.6c-0.1,0.6-0.5,0.9-1,1.2c-0.5,0.3-0.8,0.7-1,1.2l0.5,0.4
		c-0.7,0.6-1.5,1.1-2.3,1.7c-0.9,1.4-1.9,2.9-2.8,4.3c0.2,0.1,0.4,0.3,0.3,0.4c-0.6,0.7-1.2,1.4-2,1.9l-0.2,0.4
		c0,0.2,0.1,0.3,0.2,0.5c-0.3,0.3-0.6,0.5-1,0.8c-3.2,4.9-7,9.5-11.2,13.6c-0.8,1.2-1.7,2.3-2.8,3.3c-1.6,1.2-4,1.9-5.7,2.7
		c1.3,1.9-2.4,5-0.6,6.7c-1.2,0.5-3,1.3-2.8,1.9c0.6,1.9,0.6,4.4-2.1,6.9c-1.1,0.8-3.3,0.9-3.6,1.5c-0.4,0.9,2.2,0.5,1.7,1.4
		c9.4-3.5,18.3-8.5,27.6-14.5c1.3-1.5,7.2-5.7,12.8-11.5c2.7-2.8,5.2-5.7,7.4-8.9c2.1-2.8,3.6-5.4,4.6-6.9l0.3-0.6
		c1.9-3.3,3.5-7.9,3.5-11.3c-0.2-1.6-0.4-3.2-0.9-4.8c-0.4,0.6-0.9,1.1-1.4,1.6c0.3-1.4,0.6-2.9,0.3-3.5c-0.7-3.2-2-1.5-3.7-0.6
		c-0.8,0.7-1.7-0.5-2.5,0.6c0.2-0.8,0.2-1.2,0.3-2.1c-0.3-0.1-0.3,0.6-0.3,1.1s-0.2,1.1-0.6,0.7c0.4-0.7,0-1.7,0.2-2.5
		c-0.9,0.2-0.6,2.8-1.5,2.5c-0.1-0.4,1.4-2.1,0.4-2.3c-0.2,0-0.3,0.7-0.4,1.1c0.1-0.9-0.2-1.8-0.8-2.5c-0.5-0.4-1-0.1-1.6,0.8
		c0.2-0.8,0.4-1.6,0.4-2.4l0,0c0,0.4-0.3,1-0.3,1.4l0.1-1.3c-0.2,0.1-0.3,0.1-0.5,0.2c-0.1,0.3-0.2,0.6-0.3,0.9l0.1-0.8
		c-0.3,0.2-0.7,0.4-1,0.7c-0.7,0.9-1.8,1.7-1.9,2.2C347.7,295.6,346.1,299.4,344.1,302.9z"/>
	<path class="st3" d="M366.4,332.1c0.2,0.1,0.4,0,0.4,0.3c-0.2,0.8-1.1,1-1.3,1.8l0.2,0.2c-0.4,0.4-0.9,0.9-1.4,1.3
		c-0.6,1-1.3,2-2,3c0.1,0,0.2,0.1,0.2,0.2c-0.4,0.5-0.9,1-1.4,1.4l-0.2,0.3c0,0.1,0,0.2,0.1,0.3c-0.2,0.2-0.4,0.4-0.7,0.6
		c-2.4,3.2-5.1,6.1-8.1,8.6c-0.6,0.7-1.3,1.4-2,2c-1.2,0.7-2.5,1.3-3.8,1.9c0.7,1-1.9,2.8-0.8,3.6c-0.8,0.4-2,0.9-1.9,1.2
		c0.2,1,0.1,2.3-1.8,3.8c-0.8,0.5-2.2,0.7-2.4,1c-0.3,0.5,1.3,0.1,1,0.6c6.4-2.5,12.4-5.7,18.2-9.5c0.9-0.9,4.8-3.6,8.4-7.3
		c1.7-1.8,3.4-3.7,4.8-5.7c1.4-1.8,2.3-3.5,2.9-4.5l0.2-0.4c1.3-2.2,2.1-4.6,2.3-7.2c0-1-0.1-2-0.3-3c-0.2,0.4-0.5,0.7-0.8,1.1
		c0.2-0.7,0.3-1.5,0.2-2.2c-0.3-2-1-0.9-1.8-0.3c-0.4,0.5-0.8-0.3-1.3,0.4c0.1-0.5,0.1-0.8,0.2-1.4c-0.3-0.1,0,1.7-0.5,1.3
		c0.1-0.5,0.2-1.1,0.1-1.7c-0.5,0.2-0.4,1.9-0.8,1.7c0-0.3,0.8-1.4,0.2-1.6c-0.1,0-0.2,0.5-0.2,0.8c0-1.7-0.5-2.5-1.2-1.1
		c0.1-0.6,0.2-1.1,0.2-1.7l0,0c0,0.3-0.1,0.7-0.2,1V322c-0.1,0-0.2,0.1-0.2,0.2c-0.1,0.2-0.1,0.4-0.1,0.7V322
		c-0.2,0.1-0.4,0.3-0.5,0.5c-0.3,0.7-0.9,1.2-1,1.6C368.8,326.9,367.8,329.6,366.4,332.1z"/>
	<path class="st3" d="M162.9,195.6c-0.4-0.1-0.9,0-0.9-0.5c0-1.4,1.7-1.9,1.8-3.2l-0.6-0.3c0.6-0.9,1.4-1.6,2.1-2.4
		c0.3-0.9,0.7-1.8,1.1-2.6l0.6-1.3l0.6-1.2c-0.2-0.1-0.4-0.2-0.4-0.4c0.2-0.4,0.4-0.8,0.7-1.1c0.3-0.4,0.7-0.8,1-1.2
		c0.1-0.1,0.1-0.3,0.2-0.4c-0.1-0.2-0.2-0.3-0.3-0.5c0.3-0.3,0.6-0.6,1-0.9c2.4-5.4,6.3-10,11.1-13.4c1-1.1,2.2-2,3.5-2.7
		c1.9-0.8,4.6-0.9,6.6-1.1c-0.3-1.1,0.7-2.1,1.8-3.1s2-1.9,1.4-3c1.5-0.1,3.6-0.1,3.8-0.7c0.2-2,1.4-4.3,5.3-5.4
		c1.6-0.3,3.7,0.6,4.2,0.2c0.8-0.6-1.8-1.4-1-2c-2.6-0.2-5.6-0.3-8.5-0.2c-3.1,0.1-6.2,0.3-9.2,0.8c-6.6,1.1-13,3.2-18.9,6.4
		c-0.9,0.8-3.3,2.4-6.2,4.9c-3.3,2.8-6.2,6-8.8,9.4c-2.5,3.5-4.7,7.2-6.6,11.1c-0.8,1.7-1.6,3.3-2.1,4.7s-1.1,2.5-1.4,3.4l-0.2,0.6
		c-1.5,3.7-2.3,7.7-2.3,11.7c0.2,1.6,0.6,3.1,1,4.7c0.5-0.6,1-1.1,1.4-1.6c-0.3,1.4-0.6,2.9-0.3,3.5c0.5,3.2,1.9,1.6,3.6,0.8
		c0.8-0.7,1.7,0.6,2.6-0.6c-0.2,0.9-0.3,1.4-0.5,2.3c0.3,0.1,0.3-0.6,0.4-1.3s0.2-1.2,0.7-0.8c-0.4,0.8-0.2,1.9-0.3,2.8
		c0.5-0.1,0.7-0.9,0.9-1.6s0.4-1.4,0.8-1.2c0.1,0.5-1.6,2.4-0.6,2.7c0.2,0.1,0.4-0.9,0.5-1.3c-0.1,2.9,0.7,4.5,2.3,2.2
		c-0.4,1-0.6,2-0.8,3l0,0c0.1-0.5,0.4-1.2,0.5-1.6l-0.3,1.6c0.2-0.1,0.3-0.1,0.5-0.2c0.2-0.4,0.3-0.7,0.4-1.1l-0.2,1
		c0.4-0.2,0.8-0.5,1.1-0.8c0.9-1.1,2.1-2.1,2.2-2.8C159.7,205.3,161.2,200.3,162.9,195.6z"/>
	<path class="st3" d="M142.9,157.7c-0.2-0.1-0.4,0-0.4-0.3c0.2-0.9,1.2-1.2,1.4-2l-0.2-0.2c0.5-0.5,1-1,1.6-1.5
		c0.2-0.3,0.3-0.6,0.5-0.8l0.6-0.8l1.1-1.6c-0.1-0.1-0.2-0.1-0.1-0.2c0.5-0.5,1-1,1.6-1.4l0.2-0.3c0-0.1,0-0.2-0.1-0.3
		c0.2-0.2,0.5-0.4,0.8-0.6c2.8-3.2,6.3-5.9,10.1-7.8c0.8-0.6,1.7-1.2,2.6-1.6c1.5-0.4,3.1-0.7,4.6-0.9c-0.4-1.1,3-2.1,2.1-3.2
		c1-0.1,2.4-0.2,2.5-0.6c0.1-1,0.8-2.2,3.5-2.9c1.1-0.2,2.7,0.2,3.1,0c0.6-0.3-1.4-0.6-0.8-1c-8.1-0.3-16.1,1.2-23.5,4.4
		c-1.2,0.8-6.3,3.2-10.7,7.1l-1.6,1.5c-0.5,0.5-1,1-1.5,1.6l-1.4,1.6c-0.4,0.5-0.9,1-1.2,1.6c-0.7,1.1-1.4,2-1.9,2.9l-1.3,2.2
		l-0.2,0.4c-0.3,0.6-0.6,1.3-0.9,2c-0.3,0.7-0.5,1.4-0.8,2.1c-0.2,0.7-0.3,1.4-0.5,2.1c-0.1,0.3-0.1,0.7-0.2,1s0,0.6,0,0.9
		c0,1.1,0.1,2.2,0.3,3.2c0.2-0.4,0.5-0.8,0.8-1.2c-0.2,0.8-0.3,1.6-0.2,2.5c0.2,2.2,1,1,1.8,0.3c0.4-0.5,0.8,0.3,1.3-0.5
		c-0.1,0.6-0.1,0.9-0.2,1.6c0.3,0.1,0.1-1.9,0.6-1.4c-0.1,0.6-0.2,1.3-0.1,1.9c0.4-0.2,0.4-2.1,0.8-2c0.1,0.3-0.8,1.6-0.3,1.8
		c0.1,0,0.2-0.6,0.2-0.9c-0.1,0.7,0,1.4,0.3,2c0.2,0.3,0.5,0.1,0.8-0.7c-0.1,0.7-0.2,1.3-0.2,2l0,0c0-0.3,0.2-0.8,0.2-1.1l-0.1,1
		c0.1-0.1,0.2-0.1,0.2-0.2c0.1-0.2,0.1-0.5,0.2-0.8l-0.1,0.7c0.2-0.2,0.4-0.4,0.5-0.6c0.4-0.6,0.7-1.2,1-1.9
		C140.4,163.9,141.4,160.7,142.9,157.7z"/>
</g>
</svg>
