<?xml version="1.0" encoding="utf-8"?>
<!-- Generator: Adobe Illustrator 25.4.1, SVG Export Plug-In . SVG Version: 6.00 Build 0)  -->
<svg version="1.1" id="Lager_1" xmlns="http://www.w3.org/2000/svg" xmlns:xlink="http://www.w3.org/1999/xlink" x="0px" y="0px"
	 viewBox="0 0 500 500" style="enable-background:new 0 0 500 500;" xml:space="preserve">
<style type="text/css">
	.st0{fill:#F9CDDE;}
	.st1{fill:#B8E1F0;}
	.st2{fill:#CC0066;}
	.st3{fill:#1595BF;}
	.st4{fill:#F9CFB5;}
	.st5{fill:#1D1D1D;}
</style>
<g id="OUTLINE_ikons">
	<path class="st0" d="M159.3,230.8c43.2,0,88,50.9,88.1,84.3c0.2,42.6-25.9,65.9-69.1,65.9S91,352.3,91,309.7
		S116.1,230.8,159.3,230.8z"/>
	<ellipse transform="matrix(0.9926 -0.1213 0.1213 0.9926 -25.9878 49.124)" class="st1" cx="390.5" cy="238" rx="32.4" ry="87.8"/>
	<circle class="st2" cx="68.2" cy="236.8" r="13.5"/>
	<circle class="st2" cx="66.3" cy="354.7" r="13.5"/>
	<ellipse class="st2" cx="255.4" cy="232.7" rx="13.5" ry="13.5"/>
	<circle class="st2" cx="299.4" cy="349.4" r="14"/>
	<ellipse class="st3" cx="406.6" cy="278.8" rx="7.5" ry="16.5"/>
	<ellipse class="st3" cx="391.7" cy="216.2" rx="5.2" ry="8.2"/>
	<ellipse class="st3" cx="377.4" cy="199.9" rx="9.5" ry="13.6"/>
	<circle class="st2" cx="194.8" cy="272.4" r="10.1"/>
	<circle class="st2" cx="193.4" cy="330.4" r="10.1"/>
	<circle class="st2" cx="125.3" cy="302" r="10.1"/>
	<circle class="st2" cx="145.9" cy="415.7" r="13.5"/>
	<circle class="st2" cx="239.7" cy="409.5" r="18.3"/>
	<circle class="st2" cx="158.4" cy="185.4" r="18.3"/>
	<path class="st4" d="M243.6,65.5c0,0,31.6,2.8,33.1,19.3s-4.4,31.9-16.1,45.6s-20.5,39.6-0.3,40.2s40.8-25,49.3-25.6
		s17.7,6.3,8.6,15.7s-44.1,38.9-74.5,26s-26.2-27.3-14.1-38.4s39.1-32.8,32.9-50.2s-26-24.2-39.3-16.8s-40.3,34.8-56.8,38.7
		s-35.3-3.1-9.7-20.4S228.3,62.2,243.6,65.5z"/>
	<path class="st4" d="M330.1,333.8c1.5,2.9,12.8,19.2,8.7,30.8s-9.6,15.9-27.6,30.4s-10.6,40.7,1.7,40.3s22.7-4.3,8.6-15.1
		s-1.6-19.8,7.3-26.6s23.2-20.6,20.8-41.1s-12.3-41.8-23.8-47.1S301,307,313,315.3C320,320,325.9,326.4,330.1,333.8z"/>
	<path class="st5" d="M186.2,242.7c0.1-0.2-1.2-1,1-0.1c6.7,3.1,11.4,7,17.2,11.7l0.6,0.1c4.4,4.1,8.5,8.5,12.2,13.3
		c3.6,4.4,6.9,9.1,9.9,14s5.7,9.9,8.1,15.1c0-0.3,0-0.5,0.5,0.5c1.1,2.5,2.1,5,3,7.6c1,3.1,1.8,6.2,2.5,9.3c0.2,1,0.4,1.9,0.6,2.9
		c0.1,0.4,0.2,0.7,0.4,1c0.2,1.5,0.4,2.9,0.4,4.2c0,0.7,0.1,1.3,0.1,2s0,1.2,0,1.9c0.1,4-0.3,7.9-1.2,11.8l-0.3,1.5l-0.5,1.4
		l-0.9,2.8l-1.3,2.7c-0.2,0.5-0.4,0.9-0.6,1.4l-0.8,1.3c-2,3.5-4.5,6.8-7.4,9.7l-2.3,2.1c-0.8,0.7-1.6,1.3-2.4,2
		c-1.6,1.4-3.4,2.5-5.1,3.7c-7.4,4.6-15.6,7.9-24.1,9.8c-8.9,2-18.1,2.5-27.2,1.7c-7.8-0.5-15.5-2.1-22.9-4.7
		c-5.8-2.1-11.4-4.8-16.5-8.2c-5.1-3.3-9.8-7.2-14-11.6c0.1,0.5-1.1-0.2-2.7-1.8l-1.3-1.2c-0.5-0.5-1-1-1.4-1.5l-2.8-3.3
		c-0.9-1.2-1.8-2.4-2.5-3.4l-0.6-0.8l-0.5-0.7l-0.9-1.3c-1-1.5-1.6-2-1.2-0.6c-0.9-1.7-1.7-3.7-2.6-5.6c-0.5-1-0.8-2-1.1-3l-1-2.9
		c-0.5-1.9-1-3.5-1.3-4.8c-0.1-0.7-0.4-1.5-0.6-2.2c-0.6-0.8-1.6-2.5-2.5-6.8c-0.1-0.5-0.2-1.1-0.4-1.7s-0.2-1.3-0.2-2
		s-0.2-1.4-0.2-2.2c0-0.4-0.1-0.8-0.1-1.2s0-0.9,0-1.3c0-0.9,0-1.8,0-2.8c0-0.5,0-1,0-1.5s0.1-1,0.1-1.6c0.1-1.1,0.2-2.2,0.3-3.4
		s0.4-2.5,0.6-3.8c0.4-2.2,1-4.5,1.7-6.6c0.3-1.2,0.9-2.3,1.3-3.4s0.9-2.2,1.4-3.3c2-4.2,4.3-7.4,5-8.7c0.6-0.9,0.4-0.9,0-0.4
		s-1.3,1.7-2,2.8c-1.7,2.2-2.9,4.6-2,2.5c-3.8,6.9-6.2,14.4-7.2,22.2c-1,7.6-0.8,15.4,0.6,23c1.4,7.5,3.9,14.8,7.4,21.6
		c3.5,6.8,8,13,13.4,18.3c10.9,10.6,24.3,18.2,39,22.2c7.3,2,14.8,3.3,22.3,3.7l5.7,0.2c1.9,0,3.8-0.1,5.7-0.2s3.8-0.3,5.7-0.5
		l2.9-0.4l1.4-0.2l1.4-0.3l2.3-0.5c0.9-0.2,1.8-0.4,2.9-0.7l3.5-1c1.2-0.4,2.6-0.9,4-1.3c6.9-2.4,13.4-5.8,19.4-9.9
		c3.7-2.6,7.1-5.6,10.1-9c1.6-1.8,3.2-3.7,4.6-5.7l2-3.2c0.7-1.1,1.3-2.2,1.8-3.4c2.4-4.8,4-9.9,4.7-15.1c0.7-5.3,0.7-10.8,0-16.1
		c-1.4-10.7-5.1-20.8-9.6-29.9c-4.3-8.7-9.4-17-15.4-24.7c-5.1-6.6-10.9-12.6-17.3-17.9c-4.6-3.8-9.6-7.2-14.9-10l-2.9-1.5
		c-9.5-4.6-19.8-7.2-30.4-7.7c-5.2-0.2-10.4,0.2-15.5,1.2c-4.6,0.9-9,2.4-13.3,4.3c-6.9,3.4-13.3,8-18.8,13.4
		c0.7-0.6,1.4-1.1,2.1-1.6l2-1.4c1.3-1,2.7-1.7,3.8-2.5c-5.1,3.5-9.7,7.5-13.8,12.1c-1.8,1.9-3.5,3.9-5,6.1c-0.8,1.1-0.8,1.3-0.3,1
		c0.9-0.7,1.7-1.4,2.5-2.1c1.1-1,2.4-2.1,3.6-3.1c1.7-1.5,1.6-1,1.7-0.8s0.2,0.1,0.6-0.1s1.1-0.9,2.4-2c-3,2.8-5.9,5.8-8.6,9
		c-0.1,0.3,2.4-2.6,4.8-5.1s4.7-4.6,3.6-3.2c-3.6,3.5-7,7.2-10.1,11.1c0.7-0.5,3.5-3.8,6.2-6.7c1.4-1.4,2.7-2.8,3.7-3.7
		s1.7-1.4,1.6-1.2c-0.9,0.9-3.5,3.2-5.8,5.6c-1.2,1.2-2.2,2.3-3,3.3c-0.6,0.6-1,1.2-1.4,1.9c-0.1,0.2,3.2-3.5,4.9-5.3
		c-3.6,3.9-6.8,8-9.7,12.4c-0.6,1-0.6,1.2,0,0.6s2-2.2,4.3-4.8c-3,3.7-7.3,9-10.2,13.3l0,0c1.5-2.1,4.1-5.6,5.6-7.4
		c-1.7,2.3-3.4,4.6-5.1,7l1.1-1.1l4-5.2c-1.2,1.5-2.3,3.1-3.4,4.6c1-1.1,2.1-2.3,3.3-3.7c4.3-5.3,8.9-9.9,11.3-12.5
		c4.8-5.3,10.3-10.1,16.2-14.1c2.9-1.9,6-3.6,9.2-5s6.5-2.4,9.9-3.2C158.8,234.4,173.5,236.8,186.2,242.7z"/>
	<path class="st5" d="M161,222.9c-0.1,0-0.2,0.1-0.3-0.1c-0.2-0.6,0.2-1.1,0-1.8h-0.2c0-0.5,0.1-1,0.2-1.5c0-1-0.1-1.9-0.1-2.9
		c-0.1,0-0.1,0-0.1-0.1c0-0.4,0.1-1,0.1-1.6v-0.3l-0.1-0.1c0-0.3,0.1-0.5,0.1-0.7c-0.2-3-0.3-6-0.7-9.4c-0.2-0.7-0.4-1.4-0.5-2.1
		c-0.1-1-0.2-2.3-0.3-3.3c-0.5,0.2-1.3-2-1.8-1.4c-0.1-0.6-0.4-1.5-0.6-1.5c-0.3,0-0.6-0.1-0.9-0.3c-0.4-0.4-0.8-0.8-1.2-1.2
		c-0.3-0.5-0.6-1.4-0.8-1.5s0.1,0.9-0.2,0.6c0.2,0.5,0.4,1,0.7,1.4s0.4,1,0.5,1.5l0.3,0.7c0.1,0.3,0.1,0.5,0.2,0.8l0.4,1.6
		c0.4,2.3,0.5,4.5,0.5,6.8c0.1,0.9,0.1,1.8,0,2.7c0,1.3-0.1,3-0.2,4.7s-0.1,3.5-0.1,5.1s0.1,2.9,0.1,3.7v0.3
		c0.1,0.9,0.3,1.8,0.5,2.7c0.2,0.8,0.5,1.6,0.9,2.4c0.4,0.6,0.8,1.2,1.2,1.8c0-0.3,0-0.6,0-0.9c0.1,0.5,0.4,1,0.7,1.5
		c0.9,1.2,0.8,0.3,0.9-0.3c0-0.4,0.4-0.1,0.4-0.7c0.1,0.3,0.3,0.6,0.5,0.9c0.2,0-0.7-1.1-0.3-1c0.2,0.4,0.4,0.8,0.6,1.1
		c0.1-0.2-0.6-1.3-0.4-1.3c0.1,0.2,0.3,1.1,0.5,1.1c0.1,0-0.1-0.4-0.2-0.6c0.7,1.1,1.2,1.5,1,0.4c0.2,0.4,0.4,0.8,0.6,1.2l0,0
		c-0.1-0.2-0.2-0.5-0.3-0.7l0.3,0.6V231c-0.1-0.2-0.1-0.3-0.2-0.5l0.2,0.4c0-0.2,0-0.3,0-0.5c0-0.5-0.1-0.9-0.2-1.4
		C161.7,227.4,161.2,225.1,161,222.9z"/>
	<path class="st5" d="M141.7,180.1c-0.1-0.1-0.3,0.2-0.2-0.3c0.1-0.3,0.3-0.7,0.4-1l0.6-0.8c0.4-0.6,0.9-1,1.2-1.6l-0.1-0.2
		c0.4-0.4,0.9-0.8,1.3-1.2s1-0.7,1.5-1c1.8-1.3,4-2.1,6.2-2.4c-0.1,0-0.1-0.1,0.1-0.1c1.2-0.2,2.4-0.2,3.6-0.1c0.2,0,0.4,0,0.6,0
		c0.1,0,0.2,0,0.2-0.1c0.6,0.1,1.1,0.2,1.7,0.3c1.7,0.3,3.3,0.8,4.9,1.5c1.6,0.8,3,1.8,4.3,3c1.3,1.3,2.3,2.8,3.1,4.4
		c0.8,1.7,1.2,3.6,1.1,5.5c0.1,1.6-0.3,3.2-1.1,4.6c-0.7,1.1-1.6,2.1-2.6,2.9c-1,0.8-2.2,1.4-3.4,1.9c0.3,0.2-0.9,0.9-2.1,1.5
		s-2.4,0.9-1.8,1.1c-1.7,0.3-4.2,0.2-4.4,0.4c-0.4,0.4-1.8,1.1-6.3,0.6c-1.8-0.2-4.3-1-4.9-1c-1,0,2.1,0.8,1.1,0.8
		c3.2,0.8,6.5,1.3,9.8,1.5c1.8,0.1,3.5,0,5.3-0.3s3.5-0.8,5.1-1.6c1.7-0.8,3.2-1.8,4.6-3.1c1.4-1.3,2.5-2.9,3.3-4.7
		c0.7-1.8,1.1-3.7,1-5.6c0-1.9-0.4-3.7-1-5.5c-0.4-1-0.9-1.9-1.4-2.8l-0.6-1c-0.2-0.3-0.5-0.6-0.8-1s-0.5-0.7-0.9-1.1l-1-1l-0.5-0.5
		l-0.6-0.5l-1.3-1c-1-0.6-1.9-1.2-3-1.6c-1.1-0.5-2.2-0.9-3.3-1.3c-1.2-0.3-2.4-0.6-3.6-0.8c-2.4-0.3-4.9-0.3-7.3,0.2
		c-2.3,0.5-4.5,1.3-6.5,2.6c-0.5,0.3-0.9,0.6-1.3,0.9c-0.4,0.3-0.8,0.6-1.2,1c-0.7,0.6-1.3,1.3-1.9,2.1c-0.5,0.6-1,1.3-1.4,2
		c-0.3,0.5-0.6,1.1-0.9,1.6L137,178c-1.8,4.3-2.1,9.2-0.8,13.7c0.6,1.7,1.3,3.3,2.3,4.8c-0.3-0.8-0.5-1.5-0.7-2.1
		c0.4,0.8,0.7,1.6,1.1,2.3c0.3,0.5,0.6,1,1,1.4c2.5,2.8,1.4,0.9,0.9-0.4c-0.4-0.9,0.5,0-0.1-1.3c0.3,0.5,0.5,0.8,0.7,1.1l0.8,1.1
		c0.1,0-0.4-0.6-0.9-1.2s-0.7-1.2-0.4-1c0.5,0.9,1.2,1.8,1.9,2.6c-0.3-0.6-0.7-1.1-1.1-1.6c-0.5-0.7-0.8-1.4-0.7-1.4
		c0.2,0.2,0.4,0.9,0.9,1.5s0.8,1.1,0.9,1.1c-0.3-0.4-0.6-0.9-0.9-1.2c0.7,0.9,1.5,1.7,2.4,2.3c0.4,0.2,0.3-0.1-0.6-1.2
		c0.4,0.3,0.7,0.8,1.2,1.2s0.9,0.8,1.4,1l0,0c-0.4-0.3-1.1-0.9-1.4-1.2l1.4,1.1l-0.2-0.3c-0.3-0.3-0.6-0.6-1-0.8l0.9,0.7
		c-0.2-0.2-0.4-0.5-0.6-0.8c-0.4-0.5-0.8-1-1.2-1.5c-0.3-0.5-0.6-0.9-0.8-1.2c-1.7-2.4-2.7-5.2-3-8.1
		C140.2,185.7,140.6,182.8,141.7,180.1z"/>
	<path class="st5" d="M227.1,253.6c-0.1-0.1-0.2-0.1-0.1-0.2c0.4-0.5,1-0.6,1.4-1l-0.1-0.1c0.4-0.2,0.8-0.5,1.3-0.8
		c0.7-0.6,1.4-1.2,2.2-1.8c-0.1,0-0.1-0.1,0-0.1c0.4-0.3,0.8-0.6,1.2-0.8l0.2-0.1v-0.1l0.6-0.3c2.3-1.8,4.7-3.5,7.2-4.9
		c0.5-0.4,1.1-0.7,1.7-1c1-0.4,1.9-0.6,2.9-0.9c-0.3-0.5,1.8-1.4,1.2-1.8c0.6-0.2,1.5-0.3,1.6-0.5c0-0.5,0.4-1.2,2-1.8
		c0.6-0.2,1.7-0.1,1.9-0.3s-0.9-0.2-0.6-0.4c-2.5,0.3-4.9,0.8-7.3,1.6c-2.4,0.8-4.7,1.7-7,2.7c-0.4,0.2-1.3,0.8-2.5,1.4
		s-2.7,1.5-4.1,2.5c-2.4,1.6-4.7,3.3-6.9,5.1l-0.2,0.2c-0.6,0.5-1.3,1.1-1.9,1.8c-0.5,0.6-1,1.2-1.5,1.9c-0.3,0.6-0.6,1.1-0.9,1.7
		c0.3-0.2,0.5-0.3,0.7-0.4c-0.4,0.4-0.7,0.8-0.9,1.2c-0.6,1.2,0.1,0.8,0.7,0.6c0.4-0.2,0.2,0.4,0.8,0c-0.3,0.3-0.4,0.5-0.7,0.8
		c0.1,0.1,0.7-1,0.8-0.6c-0.3,0.3-0.5,0.6-0.8,1c0.3,0,1-1,1.1-0.9c-0.1,0.2-0.9,0.7-0.8,0.9c0,0,0.3-0.3,0.4-0.4
		c-0.7,1-0.9,1.7,0,1c-0.2,0.3-0.7,0.7-0.9,1l0,0c0.1-0.1,0.4-0.4,0.5-0.5l-0.4,0.5h0.2c0.1-0.1,0.3-0.2,0.4-0.4l-0.3,0.4
		c0.2,0,0.3-0.1,0.4-0.1c0.4-0.2,0.8-0.5,1.2-0.8C223.5,256.8,225.3,255.2,227.1,253.6z"/>
	<path class="st5" d="M262,222.9c0-0.1-0.1-0.2,0.2-0.2c0.5,0.1,0.9,0.3,1.4,0.5c0.4,0.2,0.7,0.5,1.2,0.7l0.1-0.1
		c0.6,0.5,1.2,1.1,1.6,1.7c1,1.1,1.7,2.5,2,4c0.1-0.1,0.1-0.1,0.1,0.1c0.2,0.8,0.2,1.7,0.1,2.5c0,0.1,0,0.3,0,0.4
		c0,0.1,0.1,0.1,0.1,0.2c0,0.4-0.1,0.8-0.2,1.2c-0.2,1.2-0.5,2.4-1,3.5c-0.3,0.6-0.6,1.1-0.9,1.6l-0.5,0.8l-0.6,0.7l-0.3,0.4
		l-0.4,0.3l-0.7,0.7l-0.8,0.6c-0.1,0.1-0.3,0.2-0.4,0.3l-0.4,0.2c-1.2,0.6-2.5,1-3.8,1.1c-0.6,0.1-1.2,0.1-1.8,0.1l-0.9-0.1
		c-0.3,0-0.6-0.1-0.9-0.2c-1.8-0.6-3.5-1.6-4.9-2.9c-0.1,0.3-1-0.2-1.8-0.8c-0.4-0.3-0.8-0.6-1-0.8s-0.4-0.2-0.4,0.1
		c-0.8-1-1.6-2.7-1.7-2.8s-0.6-0.2-1.1-0.9c-0.3-0.4-0.6-0.8-0.7-1.3c-0.2-0.3-0.3-0.7-0.4-1c-0.1-0.4-0.2-0.8-0.3-1.3
		c-0.1-0.4-0.1-0.8,0-1.2c0-0.4,0-0.9,0.1-1.3c0.1-0.6,0.2-1.2,0.3-1.8c0-0.4-0.2,0-0.3,0.5s-0.3,1-0.3,0.5c-0.5,2.8-0.1,5.7,1,8.2
		s2.7,4.7,4.8,6.5s4.6,3.1,7.3,3.7c2.8,0.6,5.8,0.3,8.4-0.8l0.9-0.4l1.2-0.8c1.1-0.8,2.1-1.6,2.9-2.6c0.5-0.6,1-1.2,1.4-1.9
		c0.5-0.7,0.9-1.5,1.2-2.2c0.8-1.7,1.3-3.4,1.5-5.2c0.2-1.9,0.1-3.8-0.4-5.7c-0.5-1.8-1.3-3.5-2.4-4.9c-1-1.2-2.2-2.3-3.5-3.1
		c-0.5-0.3-1.1-0.6-1.6-0.9c-0.5-0.2-1-0.4-1.4-0.5l-0.6-0.1c-3.5-0.9-7.2-0.6-10.5,0.9c-0.6,0.3-1.2,0.7-1.7,1.1
		c-0.5,0.4-1.1,0.9-1.6,1.3c0.5-0.3,1-0.5,1.6-0.7c-0.9,0.5-1.8,1.2-2.5,2c-1.8,2.3-0.4,1.2,0.6,0.8c0.6-0.4,0.1,0.4,1.1-0.1
		c-0.3,0.2-0.5,0.4-0.7,0.7l-0.7,0.7c0,0.1,0.4-0.4,0.8-0.8s0.8-0.7,0.6-0.4c-0.3,0.2-0.6,0.5-0.8,0.8c-0.3,0.3-0.5,0.6-0.7,0.9
		c0.2-0.1,1.8-1.9,1.9-1.6c-0.3,0.2-1.7,1.3-1.6,1.6c0.3-0.2,0.5-0.5,0.8-0.8c-0.5,0.6-1,1.3-1.2,2c-0.1,0.3,0.1,0.2,0.8-0.5
		c-0.2,0.3-0.5,0.7-0.7,1c-0.2,0.4-0.4,0.7-0.5,1.1l0,0c0.2-0.3,0.5-0.9,0.6-1.2l-0.5,1.1l0.2-0.1c0.2-0.3,0.3-0.5,0.4-0.8l-0.3,0.7
		c0.2-0.2,0.4-0.3,0.5-0.5c0.5-0.6,1-1.1,1.6-1.6c1.4-1.4,3.2-2.4,5.2-2.9C258,222.5,260,222.5,262,222.9z"/>
	<path class="st5" d="M257.9,334c0-0.1-0.1-0.2,0.1-0.2c0.8,0,1.3,0.5,2,0.5l0.1-0.1l1.7,0.6l3.3,0.6c0-0.1,0-0.1,0.1-0.1
		c0.5,0.1,1.1,0.3,1.7,0.4h0.3c0.1,0,0.1,0,0.1-0.1c0.3,0.1,0.5,0.1,0.8,0.2c3.3,0.5,6.6,1,10.1,1.7c0.8,0.1,1.5,0.2,2.3,0.4
		c1.1,0.3,2.4,0.8,3.4,1.2c0-0.6,2.6,0,2.3-0.7c0.7,0.2,1.7,0.6,1.8,0.5c0.3-0.4,1-0.7,3-0.3c0.7,0.2,1.7,0.8,2,0.8
		c0.5,0-0.8-0.7-0.3-0.7c-5.1-2.1-10.4-4-15.8-5.4c-1-0.2-4.6-1.1-8.4-2s-7.8-1.7-9.4-2h-0.3c-1.8-0.4-3.7-0.6-5.5-0.7
		c-0.7,0-1.4,0.1-2.2,0.1c0.3,0.1,0.6,0.3,0.9,0.4c-0.6-0.1-1.1-0.2-1.7-0.2c-1.6,0-0.7,0.4-0.2,0.9c0.4,0.2-0.2,0.4,0.4,0.7
		l-1.2-0.2c-0.1,0.1,1.5,0.1,1.1,0.3c-0.5-0.1-1-0.1-1.4-0.1c0.1,0.2,1.6,0.3,1.5,0.5c-0.3,0-1.3-0.5-1.4-0.2c0,0,0.4,0.1,0.7,0.1
		c-1.5-0.1-2.3,0.1-1,0.5c-0.5-0.1-1.1-0.3-1.6-0.3l0,0c0.2,0,0.6,0.1,0.9,0.2l-0.8-0.1l0.1,0.1c0.2,0.1,0.4,0.1,0.6,0.1l-0.6-0.1
		c0.1,0.1,0.3,0.2,0.4,0.3c0.5,0.3,1,0.5,1.6,0.6L257.9,334z"/>
	<path class="st5" d="M306.8,341.4c0.1-0.1,0-0.3,0.3-0.1c0.4,0.4,0.8,0.8,1.1,1.3l0.4,0.7c0.1,0.2,0.3,0.5,0.5,0.7h0.2l0.3,0.7
		c0.1,0.2,0.1,0.5,0.2,0.7c0.1,0.5,0.3,1,0.3,1.5c0.5,1.8,0.6,3.7,0.3,5.6c0.1,0,0.1,0,0.1,0.1c-0.2,1-0.5,2-0.9,2.9l-0.2,0.5
		c0,0.1,0,0.1,0,0.2c-0.2,0.4-0.4,0.8-0.7,1.2c-0.7,1.2-1.5,2.3-2.6,3.2c-1,1-2.3,1.7-3.6,2.1c-1.3,0.5-2.8,0.5-4.1,0.1
		c-1.5-0.5-2.8-1.4-3.9-2.5c-1.1-0.9-2.1-2-3-3.1c-1.3-1.9-2.4-3.9-3.2-6c-0.2,0.3-0.9-0.8-1.4-1.7s-1-1.9-1.2-1.4
		c-0.4-1.4-0.8-3.5-1-3.5c-0.4-0.3-0.8-0.7-1-1.2c-0.5-1.3-0.8-2.6-0.9-4c-0.1-0.9-0.1-1.7,0-2.6c0.1-0.6,0.1-1.2,0.1-1.9
		c-0.1-0.9-0.5,2-0.6,1.1c-0.2,2.9-0.1,5.8,0.4,8.6c0.5,2.8,1.3,5.6,2.5,8.2c1.1,2.6,2.6,5.1,4.3,7.4c0.9,1.2,1.9,2.3,3,3.4
		c1.2,1.2,2.6,2.1,4.1,2.8c1,0.4,2,0.6,3,0.7c1.6,0.1,3.2-0.1,4.8-0.6c1.8-0.6,3.5-1.6,5-2.9c1.6-1.4,2.9-3.1,3.8-5
		c1.9-3.7,2.4-8,1.6-12.1c-0.4-1.7-1-3.3-1.8-4.8c-0.4-0.6-0.8-1.2-1.2-1.7s-0.8-0.9-1.1-1.3l-0.5-0.5c-3-2.8-7-4.4-11.1-4.4
		c-0.8,0-1.5,0.1-2.3,0.2s-1.5,0.3-2.2,0.6c0.6,0,1.3,0,1.9,0c-0.7,0.1-1.4,0.2-2.1,0.4c-0.3,0.1-0.6,0.1-0.8,0.2
		c-0.2,0.1-0.4,0.1-0.5,0.2l-0.9,0.4c-0.2,0.1-0.3,0.2-0.5,0.3c-0.2,0.2-0.2,0.2-0.1,0.3c0.2,0,0.4,0,0.7,0c0.3,0,0.6,0,1,0
		c0.8-0.1-0.1,0.5,1.1,0.3c-0.5,0.1-0.8,0.2-1.1,0.3c-0.4,0.1-0.7,0.2-1.1,0.4c-0.1,0.1,2.6-1,2.1-0.6c-0.9,0.2-1.7,0.6-2.5,1
		c0.5-0.1,1.1-0.3,1.6-0.5c0.3-0.1,0.7-0.2,0.9-0.3s0.4,0,0.4,0c-0.5,0.1-2.5,0.5-2.5,0.9c0,0.1,0.8-0.3,1.2-0.4
		c-0.5,0.2-1.1,0.5-1.6,0.8c-0.3,0.2-0.6,0.4-0.8,0.6c-0.3,0.3,0,0.3,1.1-0.2c-0.4,0.2-0.8,0.4-1.2,0.6s-0.8,0.6-1.1,0.8l0,0
		c0.4-0.2,1-0.7,1.3-0.9c-0.4,0.2-0.8,0.6-1.2,0.9l0.3-0.1c0.3-0.2,0.6-0.4,0.9-0.6c-0.3,0.2-0.5,0.4-0.8,0.6
		c0.2-0.1,0.5-0.2,0.8-0.3c0.9-0.3,1.7-0.6,2.6-0.9C298,337.3,303.1,338.2,306.8,341.4z"/>
	<path class="st5" d="M216.1,384.1c0.1-0.1,0.1-0.2,0.2-0.1c0.4,0.4,0.4,0.9,0.8,1.3l0.1-0.1c0.2,0.4,0.4,0.8,0.6,1.2
		c0.5,0.6,1,1.3,1.5,1.9c0,0,0.1-0.1,0.1,0c0.3,0.3,0.5,0.7,0.7,1l0.1,0.1h0.1c0.1,0.2,0.2,0.4,0.3,0.5c1.7,1.7,3.4,3.4,5.2,5.3
		c0.4,0.3,0.9,0.7,1.3,1.1c0.5,0.6,1,1.5,1.4,2.1c0.4-0.4,1.7,0.9,2,0.3c0.3,0.4,0.7,1,0.9,1c0.5-0.2,1.1-0.2,2.2,0.7
		c0.4,0.4,0.7,1.2,0.9,1.3s-0.1-0.8,0.2-0.6c-2.2-3.3-4.6-6.2-6.9-9.4c-1-0.9-6.5-8.2-7.8-10.2c0-0.1-0.1-0.1-0.1-0.2
		c-0.7-1.1-1.6-2.1-2.5-3c-0.4-0.3-0.8-0.6-1.3-0.9c0.1,0.2,0.1,0.5,0.1,0.7c-0.2-0.4-0.5-0.7-0.8-0.9c-0.8-0.7-0.7-0.1-0.8,0.5
		c0,0.3-0.4,0.2-0.3,0.6l-0.5-0.7c-0.1,0.1,0.7,0.8,0.3,0.8c-0.2-0.3-0.4-0.6-0.6-0.8c-0.1,0.2,0.6,1,0.4,1.1
		c-0.1-0.1-0.3-0.9-0.6-0.8c-0.1,0,0.1,0.3,0.2,0.5c-0.7-0.8-1.2-1.1-0.9-0.2c-0.2-0.3-0.4-0.7-0.6-1l0,0c0.1,0.1,0.2,0.4,0.3,0.5
		c-0.1-0.2-0.2-0.3-0.3-0.5v0.1c0.1,0.1,0.1,0.3,0.2,0.4l-0.2-0.3c0,0.1,0,0.3,0,0.4c0.1,0.4,0.2,0.8,0.3,1.2
		C213.7,380.7,214.9,382.4,216.1,384.1z"/>
	<path class="st5" d="M250.5,398.5c0.1,0,0.1-0.3,0.3,0c0.7,1.2,0.7,2.5,1.2,4.1l0.2,0.1c0.2,1.3,0.4,2.6,0.5,4
		c0.4,2.4,0.4,4.9,0.2,7.3c0.1,0,0.1-0.1,0.1,0.2c-0.1,1.2-0.4,2.5-0.9,3.6c0,0.2-0.1,0.4-0.2,0.6c0,0.1,0,0.2,0,0.2l-0.4,0.8
		c-0.1,0.2-0.3,0.5-0.4,0.7c-0.7,1.5-1.7,2.8-3,3.9s-2.8,1.9-4.5,2.3c-5.5,0.9-11.1-0.7-15.1-4.5c-1.8-1.9-3-4.3-3.5-6.9
		c-0.1,0.1-0.3-0.1-0.5-0.6c-0.2-0.6-0.4-1.2-0.4-1.8c-0.2-1.3-0.2-2.6-0.6-2c0.2-1.7,0.9-4.2,0.9-4.3c-0.3-0.5-0.5-2,1-6.3
		c0.6-1.6,1.9-4,2-4.6c0.2-0.9-1.2,1.9-1,1c-1.4,3-2.7,6-3.8,9.1c-0.6,1.7-1,3.4-1.2,5.2c-0.5,3.8,0.4,7.6,2.5,10.8
		c1,1.5,2.2,2.9,3.6,4.1c1.4,1.2,2.9,2.2,4.5,3s3.4,1.5,5.2,1.8c2.8,0.5,5.7,0.4,8.4-0.3c2.2-0.6,4.3-1.8,6-3.3
		c1.9-1.7,3.4-3.8,4.3-6.1c2-4.7,2-9.8,1.5-13.9c-0.2-1.9-0.6-3.7-1-5.5c-0.3-1.4-0.7-2.7-1.2-4c-0.1-0.2-0.2-0.5-0.4-0.8
		c-0.6-1.2-1.4-2.2-2.4-3.2c-0.9-0.8-1.9-1.6-2.9-2.3l-0.7-0.5l-0.4-0.2l-0.2-0.1l-0.3-0.2c-0.6-0.3-1.3-0.5-2-0.7
		c-1.1-0.2-2.1-0.4-3.2-0.4c-1.8,0-3.5,0.1-5.3,0.5c0.7,0,1.5,0.1,2.2,0.1c-1.4,0-2.8,0.1-4.2,0.5c-0.6,0.1-1.2,0.3-1.7,0.6
		c-0.3,0.2-0.3,0.2-0.2,0.3c0.3,0.1,1.2,0,1.9,0c1,0-0.2,0.5,1.3,0.4c-0.5,0.1-0.9,0.1-1.3,0.2c-0.5,0.1-0.9,0.2-1.3,0.3
		c0.5-0.1,1-0.2,1.5-0.3c0.8-0.2,1.4-0.2,1.1-0.1c-1.1,0.1-2.2,0.4-3.2,0.8c0.7-0.1,1.3-0.2,1.9-0.4c0.8-0.2,1.6-0.2,1.6-0.1
		c-0.3,0.1-1,0.1-1.7,0.2c-0.5,0-1,0.2-1.4,0.5c0,0.1,1-0.3,1.5-0.4c-1.1,0.2-2.1,0.7-3.1,1.3c-0.3,0.3-0.1,0.2,1.3-0.1
		c-1.1,0.3-2.1,0.9-3,1.5l0,0c0.5-0.3,1-0.6,1.6-0.9c-0.5,0.3-1,0.5-1.5,0.9l0.3-0.1c0.4-0.2,0.7-0.4,1.1-0.6l-0.5,0.3l-0.4,0.3
		c0.3-0.1,0.6-0.2,0.9-0.3c1-0.4,2.1-0.6,3.2-0.8c3-0.6,6-0.6,9,0.1c0.3,0.1,0.7,0.2,1,0.3l0.2,0.1c0.1,0,0.1,0,0.1,0l0,0l0.1-0.2
		c0.1-0.1,0.2-0.3,0.3-0.4l0.1-0.2l0,0c0.1-0.2-1,1.5-0.5,0.8l0,0h0.1l0.1,0.1c0.7,0.5,1.3,0.9,1.9,1.4
		C248.9,396.4,249.8,397.4,250.5,398.5z"/>
	<path class="st5" d="M152.6,374.7c0.1,0,0.2-0.1,0.2,0.2c-0.1,0.7-0.6,1.2-0.8,1.9l0.1,0.1c-0.2,0.5-0.5,1.1-0.8,1.6
		c-0.3,1.1-0.6,2.1-0.8,3.2c0.1,0,0.1,0,0.1,0.1c-0.1,0.5-0.3,1-0.5,1.7l-0.1,0.3c0,0.1,0,0.1,0.1,0.1c-0.1,0.3-0.2,0.5-0.3,0.8
		c-0.6,3.2-1,6.4-1.5,9.9c0,0.8-0.1,1.5-0.2,2.2c-0.2,1-0.6,2.3-0.9,3.3c0.6,0,0.3,2.5,1,2.1c-0.2,0.7-0.4,1.7-0.2,1.8
		c0.4,0.2,0.9,0.9,0.8,2.7c-0.1,0.7-0.5,1.7-0.4,2c0.1,0.4,0.5-0.8,0.6-0.4c1.2-5.1,2.1-10.1,3.4-15.2c0.1-0.9,0.9-4.3,1.9-7.8
		s2.1-7.2,2.6-8.6l0.1-0.3c0.6-1.6,1.1-3.3,1.4-5c0.1-0.7,0.1-1.4,0.2-2c-0.2,0.2-0.4,0.5-0.6,0.7c0.2-0.5,0.4-1,0.5-1.6
		c0.3-1.5-0.3-0.8-0.9-0.4c-0.3,0.3-0.4-0.3-0.7,0.3l0.4-1.1c-0.1-0.1-0.4,1.4-0.5,1c0.2-0.4,0.3-0.9,0.4-1.3
		c-0.3,0.1-0.6,1.5-0.8,1.3c0-0.2,0.7-1.1,0.5-1.3c-0.1,0-0.2,0.4-0.3,0.6c0.4-1.4,0.4-2.2-0.3-1.1c0.2-0.4,0.5-1,0.6-1.4l0,0
		c-0.1,0.2-0.3,0.6-0.4,0.8l0.3-0.8l-0.1,0.1c-0.1,0.2-0.2,0.4-0.3,0.5l0.2-0.5c-0.1,0.1-0.3,0.2-0.4,0.3c-0.3,0.4-0.7,0.9-0.9,1.4
		C154.4,369.4,153.4,372,152.6,374.7z"/>
	<path class="st5" d="M151.4,406.5c0-0.1-0.1-0.2,0.2-0.2c0.5,0.1,0.9,0.3,1.3,0.5c0.4,0.3,0.8,0.5,1.2,0.7l0.1-0.1
		c0.3,0.2,0.6,0.5,0.9,0.8c0.2,0.3,0.5,0.6,0.7,0.9c1,1.1,1.6,2.4,1.9,3.9c0,0,0.1-0.1,0.2,0.1c0.1,0.8,0.2,1.6,0.1,2.5
		c0,0.1,0,0.3,0,0.4s0,0.1,0.1,0.2c-0.1,0.4-0.1,0.8-0.2,1.1c-0.3,2.4-1.4,4.6-3,6.4c-0.8,0.9-1.9,1.6-3,2.1l-0.9,0.4
		c-0.3,0.1-0.7,0.2-1,0.2c-0.7,0.2-1.4,0.3-2.1,0.3c-1.2,0.2-2.4,0.2-3.6,0.1c-1.8-0.4-3.5-1.2-5-2.3c0,0.1-0.3,0.1-0.6,0
		c-0.4-0.2-0.8-0.4-1.1-0.6c-0.8-0.5-1.5-1.2-1.4-0.6c-0.4-0.6-0.7-1.2-1-1.8c-0.1-0.4-0.3-0.7-0.5-1.1c-0.5-0.2-0.8-0.5-1-1
		s-0.4-0.9-0.6-1.4c-0.2-0.8-0.3-1.5-0.3-2.3s0.2-1.6,0.4-2.4c0.2-0.5,0.3-1.1,0.4-1.6c0.1-0.8-0.8,1.6-0.8,0.9
		c-0.8,2.7-0.9,5.5-0.1,8.2c0.8,2.7,2.6,5.1,4.9,6.7c2.2,1.5,4.8,2.5,7.5,2.8c1.3,0.2,2.6,0.2,3.9,0.1c0.7,0,1.3-0.1,2-0.3
		c0.7-0.1,1.3-0.3,2-0.5c2-0.8,3.8-2,5.3-3.5c2.3-2.6,3.8-5.8,4.3-9.2c0.5-3.7-0.4-7.4-2.7-10.4c-0.5-0.6-1.1-1.2-1.7-1.8
		c-0.6-0.5-1.2-0.9-1.8-1.3c-0.6-0.3-1.1-0.6-1.6-0.8l-1.4-0.5c-0.2-0.1-0.4-0.1-0.6-0.1c-1.8-0.4-3.6-0.5-5.5-0.3
		c-1.7,0.2-3.3,0.7-4.8,1.5c-0.6,0.3-1.1,0.7-1.7,1.1s-1,0.9-1.5,1.4c0.5-0.3,1-0.5,1.5-0.7c-0.9,0.5-1.7,1.2-2.4,2
		c-1.6,2.3-0.3,1.2,0.6,0.7c0.6-0.4,0.1,0.5,1-0.1c-0.5,0.4-0.9,0.9-1.3,1.4c0,0.1,0.4-0.4,0.8-0.8s0.7-0.7,0.6-0.4
		s-0.3,0.2-0.4,0.4l-0.4,0.5c-0.2,0.3-0.5,0.6-0.7,0.9c0.4-0.3,0.7-0.6,1-1c0.4-0.5,0.9-0.8,0.9-0.7c-0.3,0.2-1.6,1.3-1.5,1.6
		c0.3-0.2,0.5-0.5,0.7-0.8c-0.5,0.6-0.9,1.3-1.1,2c-0.1,0.3,0.2,0.2,0.8-0.5c-0.2,0.3-0.4,0.6-0.6,1c-0.2,0.3-0.3,0.7-0.5,1.1l0,0
		c0.2-0.3,0.4-0.9,0.6-1.1l-0.5,1.1l0.2-0.1c0.1-0.3,0.3-0.5,0.4-0.8l-0.3,0.7c0.2-0.2,0.3-0.3,0.5-0.5c0.5-0.6,1-1.1,1.6-1.6
		C143.5,406.8,147.6,405.7,151.4,406.5z"/>
	<path class="st5" d="M111.8,268.2c-0.1,0.1,0,0.3-0.2,0.1c-0.8-0.5-1.2-1.2-1.9-1.7l-0.2,0.1l-1.6-1.6l-3.3-2.5c0,0.1,0,0.1-0.2,0
		c-0.5-0.3-1-0.9-1.7-1.4l-0.3-0.2c-0.1,0-0.1,0-0.2,0c-0.3-0.2-0.5-0.5-0.7-0.7c-3.2-2.4-6.6-4.9-10-7.6c-0.8-0.6-1.6-1.1-2.3-1.7
		c-1-0.9-2.2-2.2-3.1-3.1c-0.3,0.6-2.7-1.5-2.7-0.7c-0.6-0.6-1.5-1.6-1.7-1.5c-0.5,0.2-1.4,0.1-3.2-1.4c-0.7-0.6-1.5-1.8-1.8-2
		c-0.5-0.3,0.6,1.1,0.1,0.8c4.5,5,9.3,9.8,14.3,14.4c0.9,0.7,4.3,3.7,8,6.8s7.5,6.1,9.1,7.4l0.3,0.2c1.7,1.4,3.6,2.7,5.5,3.9
		c0.8,0.4,1.6,0.8,2.4,1.2c-0.3-0.3-0.5-0.6-0.7-0.9c0.5,0.4,1.1,0.8,1.8,1.2c1.7,0.9,1,0,0.6-0.7c-0.3-0.4,0.4-0.2-0.2-0.9l1.2,0.9
		c0.1-0.1-1.5-1-1-1c0.5,0.4,1,0.7,1.5,1c0-0.3-1.6-1.2-1.4-1.4c0.3,0.1,1.2,1.2,1.4,1c0.1,0-0.4-0.4-0.7-0.5c1.5,1,2.5,1.3,1.3,0.1
		c0.5,0.3,1,0.9,1.6,1.2l0,0c-0.2-0.2-0.6-0.5-0.8-0.7l0.8,0.6l-0.1-0.2c-0.2-0.2-0.4-0.3-0.6-0.5l0.6,0.4c-0.1-0.2-0.2-0.4-0.3-0.5
		c-0.4-0.5-0.9-1-1.4-1.5L111.8,268.2z"/>
	<path class="st5" d="M73.5,225.4c0.1-0.1-0.1-0.3,0.2-0.2c0.9,0.5,1.7,1.1,2.4,1.9h0.2c0.6,0.7,1,1.5,1.3,2.3
		c0.8,1.5,1.1,3.2,1,4.9c0.1,0,0.1-0.1,0.1,0.1c-0.1,0.9-0.3,1.8-0.7,2.7c0,0.1-0.1,0.3-0.1,0.4c0,0.1,0,0.2,0,0.2
		c-0.2,0.5-0.4,0.9-0.7,1.3c-0.9,2.3-2.2,4.3-3.9,6c-1.9,1.7-4.2,3.1-6.7,3.9c-0.3,0.1-0.7,0.2-1,0.2c-1.7,0.1-3.4-0.4-4.8-1.4
		c-0.8-0.7-1.4-1.5-1.8-2.5c-0.1-0.3-0.2-0.5-0.3-0.8c-0.1-0.2-0.1-0.5-0.2-0.7c-0.1-0.6-0.2-1.1-0.2-1.6c-0.3,0.2-0.6-0.9-0.9-2
		s-0.4-2.1-0.7-1.6c0-1.4,0.4-3.4,0.3-3.6c-0.4-0.4-0.8-1.7,0.2-5.3c0.5-1.4,1.5-3.3,1.6-3.8c0.2-0.8-1,1.5-0.9,0.8
		c-1.1,2.3-2,4.8-2.7,7.3c-0.6,2.6-0.8,5.3-0.5,8c0.1,0.6,0.2,1.3,0.3,1.9c0.1,0.4,0.1,0.8,0.2,1.2c0.1,0.4,0.3,0.7,0.4,1.1l0.2,0.5
		l0.3,0.5c0.2,0.3,0.4,0.7,0.6,1c0.4,0.7,1,1.3,1.6,1.8c1.2,1.1,2.6,1.9,4.1,2.4c0.8,0.2,1.6,0.4,2.4,0.4c0.4,0,0.8,0,1.2,0
		c0.2,0,0.4,0,0.6,0c0.3,0,0.6-0.1,0.8-0.2c0.7-0.2,1.3-0.4,2-0.6c0.4-0.2,1.2-0.5,2.2-1c1.3-0.6,2.5-1.4,3.6-2.2
		c1.4-1.1,2.7-2.4,3.7-3.9c1.1-1.6,2-3.2,2.8-5c0.2-0.4,0.4-0.9,0.6-1.4s0.3-1,0.4-1.5c0.2-1,0.4-2.1,0.4-3.1c0-2-0.4-4-1.2-5.9
		c-0.7-1.6-1.7-3-2.9-4.2c-0.9-0.9-1.9-1.6-3-2.2l-0.6-0.3c-2-0.9-4.1-1.3-6.3-1.1c-1.9,0.2-3.7,0.7-5.4,1.5
		c-1.3,0.7-2.5,1.4-3.6,2.3c0.6-0.2,1.2-0.4,1.7-0.6c-1,0.5-2,1.1-2.8,1.7c-2.3,1.8-0.8,1.1,0.4,0.9c0.8-0.3,0,0.5,1.1,0
		c-0.8,0.4-1.1,0.7-1.9,1.2c0,0.2,2.3-1.6,1.9-1c-0.8,0.5-1.5,1-2.2,1.5c0.4,0,2.6-1.6,2.6-1.3c-0.4,0.3-2.2,1.1-2.2,1.4
		c0.4-0.2,0.8-0.4,1.1-0.7c-2.2,1.6-3.2,2.7-1.1,1.5c-0.7,0.5-1.8,1.1-2.5,1.7l0,0l1.4-1l-1.2,0.9l0.3-0.1c0.3-0.2,0.7-0.4,1-0.6
		l-0.8,0.6c0.3-0.1,0.6-0.2,0.8-0.3c1.1-0.6,2.2-1,2.7-1.4c2.1-1.4,4.3-2.4,6.7-3.1C69.3,224.4,71.5,224.5,73.5,225.4z"/>
	<path class="st5" d="M84.9,346.7c-0.1-0.1-0.2-0.1-0.1-0.2c0.4-0.4,0.9-0.4,1.3-0.8l-0.1-0.1l1.2-0.6l1.9-1.5c0,0-0.1-0.1,0-0.1
		c0.3-0.3,0.7-0.5,1.1-0.7l0.2-0.1v-0.1l0.5-0.3c1.8-1.6,3.6-3.2,5.6-4.9c0.4-0.4,0.8-0.8,1.2-1.2c0.7-0.5,1.5-0.9,2.3-1.2
		c-0.4-0.4,1.1-1.6,0.5-1.9c0.5-0.2,1.2-0.6,1.1-0.8c-0.1-0.5,0-1.2,1-2.1c0.5-0.3,1.3-0.5,1.4-0.7s-0.8,0-0.6-0.2
		c-3.6,1.8-7.1,3.8-10.5,6c-0.5,0.5-2.8,2-5.1,3.7l-5.7,4.1l-0.2,0.1c-1.1,0.8-2.1,1.7-3,2.7c-0.3,0.4-0.6,0.9-0.9,1.3
		c0.2-0.1,0.5-0.1,0.7-0.2c-0.3,0.2-0.7,0.5-0.9,0.9c-0.7,0.9,0,0.7,0.6,0.8c0.3-0.1,0.2,0.4,0.7,0.2l-0.7,0.5
		c0.1,0.1,0.8-0.8,0.8-0.4c-0.3,0.2-0.5,0.4-0.8,0.7c0.2,0.1,1-0.7,1.1-0.5c-0.1,0.1-0.9,0.4-0.8,0.6c0,0,0.3-0.2,0.4-0.3
		c-0.8,0.8-1,1.3-0.1,0.9c-0.3,0.2-0.6,0.4-0.9,0.7l0,0c0.1-0.1,0.4-0.3,0.5-0.4l-0.5,0.4h0.2c0.1-0.1,0.3-0.2,0.4-0.2l-0.3,0.2
		c0.1,0,0.3,0,0.4,0c0.4-0.1,0.8-0.2,1.2-0.4L84.9,346.7z"/>
	<path class="st5" d="M70.5,341.9c0-0.1-0.3-0.2,0.2-0.2c1.2,0.1,2.4,0.4,3.5,1.1l0.2-0.1c0.8,0.6,1.5,1.3,2,2.2
		c1.1,1.9,1.7,4,1.8,6.2c0-0.1,0.1-0.1,0.1,0.1c0.1,1.2,0.1,2.5,0,3.8c0,0.2,0,0.4,0,0.6s0.1,0.2,0.1,0.2c-0.1,0.6-0.2,1.2-0.3,1.7
		c-0.4,3.4-1.9,6.5-4.4,8.9c-2.8,2.3-6.6,3.1-10.1,2.1c-2.9-0.5-5.6-2-7.4-4.4c-0.8-1-1.4-2.1-1.9-3.3c-0.1,0.1-0.3-0.1-0.6-0.5
		c-0.1-0.2-0.3-0.5-0.4-0.7l-0.4-0.9c-0.5-1.2-0.9-2.4-1.1-1.7c0-0.4-0.1-0.9-0.2-1.4s0-1-0.1-1.4c0-0.5,0-1.1-0.1-1.6
		c-0.4-0.5-0.6-1-0.6-1.6c-0.1-1.6,0.1-3.3,0.6-4.8c0.1-0.5,0.3-1,0.6-1.4c0.2-0.5,0.4-1,0.7-1.4c0.5-0.9,1-1.6,1.1-1.9
		c0.4-1-1.5,1.9-1.2,0.9c-1.8,3-2.8,6.4-3.1,10s0.3,7.1,1.8,10.4c0.4,0.8,0.8,1.6,1.3,2.4l0.8,1.1l0.9,1c1.3,1.3,2.7,2.4,4.3,3.3
		c3.2,1.8,7,2.5,10.7,2.1l1.3-0.3c0.5-0.1,1.1-0.3,1.8-0.6c1.7-0.7,3.2-1.6,4.5-2.8c1.6-1.5,2.9-3.3,3.8-5.4c1-2.2,1.6-4.5,1.9-6.8
		s0.3-4.7,0-7.1c-0.2-2.4-0.9-4.6-2-6.7c-1.1-1.9-2.7-3.5-4.7-4.4c-1.4-0.7-2.8-1.1-4.3-1.2c-0.3,0-0.5,0-0.8,0
		c-2.5-0.1-5,0.4-7.3,1.5c-1.1,0.5-2.1,1.2-3.1,2c-0.8,0.7-1.6,1.4-2.2,2.2c-1.1,1.3-2,2.7-2.9,4.2c0.5-0.6,1-1.1,1.5-1.5
		c-0.9,1-1.6,2.2-2.2,3.4c-1.6,3.2-0.3,1.6,0.7,0.6c0.7-0.7,0.2,0.5,1.1-0.7c-0.6,0.9-0.9,1.4-1.4,2.3c0,0.2,1.7-2.9,1.5-2.1
		c-0.6,0.9-1.1,1.9-1.7,2.8c0.3-0.2,2-3.2,2.1-2.9c-0.3,0.5-1.8,2.4-1.7,2.7c0.3-0.4,0.6-0.9,0.8-1.3c-1.6,2.9-2.2,4.6-0.5,2.1
		c-0.5,0.9-1.3,2.2-1.8,3.2l0,0l1-1.8l-0.9,1.7l0.3-0.2c0.2-0.4,0.5-0.8,0.7-1.2l-0.6,1.1c0.2-0.2,0.5-0.5,0.7-0.8
		c0.8-1.2,1.8-2.3,2.2-3c1.5-2.6,3.5-4.9,5.8-6.8c0.3-0.2,0.6-0.4,0.9-0.6c0.3-0.2,0.6-0.4,0.9-0.5
		C66.5,342.4,68.5,341.9,70.5,341.9L70.5,341.9z"/>
	<path class="st5" d="M143.8,307.1c-0.1,0.1-0.1,0.2-0.2,0.2c-0.3-0.1-0.3-0.6-0.6-0.7l-0.1,0.1c-0.2-0.2-0.3-0.5-0.5-0.7
		c-0.4-0.3-0.8-0.6-1.2-0.9l-0.1,0.1c-0.2-0.2-0.4-0.3-0.6-0.5l-0.1-0.1c0,0-0.1,0-0.1,0.1c-0.1-0.1-0.2-0.2-0.2-0.3
		c-1.3-0.7-2.7-1.3-4.2-2c-0.3-0.1-0.7-0.2-1-0.4c-0.4-0.3-0.8-0.6-1.2-1c-0.3,0.5-1.4,0-1.6,0.6c-0.2-0.2-0.6-0.5-0.7-0.4
		c-0.5,0.4-1.2,0.6-1.7,0.3c-0.3-0.1-0.6-0.6-0.7-0.6s0.1,0.5-0.1,0.5c1.8,1.7,3.7,3,5.6,4.5c2.2,1.4,4.3,3,6.2,4.8l0.1,0.1
		c0.6,0.6,1.3,1,2,1.4c0.3,0.1,0.7,0.2,1,0.2c0-0.2-0.1-0.3-0.1-0.5c0.2,0.2,0.5,0.4,0.6,0.4c0.7,0.2,0.6-0.2,0.6-0.7
		c0-0.2,0.3-0.3,0.2-0.6l0.4,0.4c0.1-0.1-0.5-0.4-0.3-0.5c0.1,0.2,0.4,0.2,0.5,0.4c0.1-0.2-0.5-0.5-0.3-0.7c0.1,0,0.3,0.6,0.5,0.4
		c0,0-0.1-0.2-0.2-0.2c0.6,0.3,1,0.4,0.7-0.2c0.1,0.1,0.3,0.4,0.5,0.5l0,0c-0.1-0.1-0.2-0.2-0.3-0.3l0.3,0.2v-0.1
		c0-0.1-0.1-0.2-0.2-0.2l0.2,0.2c0-0.1,0-0.2,0-0.3c-0.1-0.3-0.1-0.5-0.3-0.8C145.7,308.8,144.8,307.9,143.8,307.1z"/>
	<path class="st5" d="M131,296.3c0.1-0.1,0-0.2,0.2-0.1c0.6,0.4,0.6,1.1,1,1.6h0.2c0.1,0.3,0.2,0.5,0.2,0.8s0.1,0.5,0.1,0.8
		c0.2,1.1,0.2,2.2,0,3.2c0.1,0,0.1,0,0.1,0.1c-0.2,0.6-0.4,1.2-0.7,1.7l-0.1,0.3c0,0.1,0,0.1,0.1,0.2c-0.2,0.3-0.4,0.5-0.5,0.7
		c-0.8,1.6-2.1,2.9-3.7,3.9c-0.8,0.5-1.7,0.8-2.6,0.9l-0.7,0.1h-0.8c-0.5,0-1-0.1-1.5-0.2c-0.4-0.1-0.8-0.2-1.2-0.4
		c-0.4-0.2-0.8-0.4-1.1-0.7c-1-1-1.7-2.2-2-3.6c-0.2,0.2-0.7-0.5-1-1.2s-0.6-1.4-0.8-1c0-0.8,0-1.6-0.1-2.5c-0.4-0.2-0.6-0.6-0.7-1
		c-0.2-0.9-0.3-1.9-0.1-2.8c0.2-1,0.9-2.5,0.9-2.9c0-0.6-0.8,1.2-0.7,0.6c-0.7,1.9-1.1,3.8-1.3,5.8c-0.2,2.1,0,4.1,0.6,6.1
		c0.6,2.2,2,4.2,3.9,5.6l0.8,0.5c0.3,0.1,0.5,0.3,0.8,0.4s0.5,0.3,0.8,0.4l0.8,0.2c0.3,0.1,0.6,0.2,0.8,0.2l0.8,0.1l0.8,0.1h0.9
		c0.6,0,1.3-0.2,1.9-0.3c1-0.2,2-0.6,2.9-1.1c2.4-1.3,4.3-3.3,5.7-5.7c1.4-2.5,2-5.4,1.7-8.3c-0.1-0.6-0.3-1.3-0.5-1.9
		s-0.5-1.1-0.7-1.6c-0.5-0.8-1-1.5-1.6-2.1l-0.4-0.3c-1.1-1-2.5-1.8-3.9-2.3c-1.3-0.4-2.6-0.6-4-0.5c-1.1,0.1-2.1,0.4-3.1,0.9
		c0.4,0,0.9,0,1.3,0c-0.8,0.1-1.6,0.3-2.4,0.7c-1,0.5-1.1,0.8-0.9,0.9s0.7,0,1.1,0c0.6,0,0,0.4,0.8,0.4c-0.5,0.1-0.9,0.3-1.4,0.5
		c0,0.1,1.7-0.8,1.4-0.4c-0.6,0.2-1.1,0.4-1.6,0.7c0.3,0,1.8-0.8,1.8-0.5c-0.3,0.1-1.6,0.3-1.6,0.6c0,0.1,0.5-0.2,0.8-0.3
		c-0.5,0.2-1,0.6-1.4,1c-0.1,0.2,0.1,0.2,0.8,0c-0.2,0.1-0.5,0.3-0.7,0.4c-0.2,0.2-0.5,0.3-0.7,0.5l0,0c0.2-0.1,0.6-0.4,0.8-0.6
		c-0.2,0.2-0.4,0.4-0.7,0.6h0.2c0.2-0.1,0.4-0.2,0.5-0.4c-0.2,0.1-0.3,0.2-0.4,0.4l0.5-0.1c0.7-0.2,1.3-0.3,1.6-0.5
		C125.8,294.1,128.8,294.5,131,296.3z"/>
	<path class="st5" d="M199.8,326c0.1-0.1,0-0.3,0.2-0.1c0.3,0.2,0.5,0.5,0.7,0.8c0.1,0.1,0.2,0.3,0.2,0.4c0.1,0.2,0.1,0.3,0.2,0.5
		h0.2c0.2,0.6,0.3,1.2,0.3,1.8c0.2,1.3,0.1,2.5-0.2,3.8c0.1,0,0.1,0,0.1,0.1c-0.2,0.7-0.5,1.4-0.8,2l-0.1,0.3c0,0.1,0,0.1,0,0.2
		c-0.2,0.3-0.4,0.6-0.6,0.8c-0.5,0.8-1,1.6-1.7,2.3c-0.6,0.6-1.4,1-2.3,1.1c-2.2,0.3-4.4-0.3-6.1-1.6c-0.9-0.5-1.7-1.2-2.4-1.9
		c-1-1.2-1.6-2.7-1.9-4.3c-0.3,0.2-0.6-0.6-0.9-1.4s-0.3-1.6-0.7-1.2c0.2-0.9,0.3-1.8,0.4-2.7c-0.4-0.3-0.7-1.3-0.4-3.9
		c0.2-0.9,0.4-1.8,0.6-2.7c-0.1-0.5-0.5,1.1-0.6,0.6c-0.3,1.7-0.9,3.5-1.4,5.5c-0.7,2.2-0.8,4.6-0.4,6.9c0.6,2.3,1.7,4.5,3.3,6.2
		c1.6,1.8,3.6,3.2,5.8,4.1c1.8,0.6,3.7,0.8,5.6,0.5c0.4-0.1,0.7-0.1,1.1-0.2s0.8-0.3,1.2-0.5s0.7-0.4,1.1-0.6c0.3-0.2,0.7-0.5,1-0.8
		c1.2-1.1,2.2-2.3,3-3.7c0.8-1.4,1.3-2.9,1.7-4.4c0.3-1.5,0.4-3,0.3-4.6c-0.1-0.7-0.2-1.4-0.5-2.1l-0.3-1c-0.2-0.3-0.3-0.6-0.4-0.9
		c-0.3-0.5-0.6-1-1-1.4c-0.2-0.2-0.3-0.4-0.5-0.6l-0.4-0.4l-0.4-0.3c-2.2-1.9-4.8-3.2-7.7-3.9c-1.1-0.2-2.2-0.3-3.3-0.3
		c0.4,0.1,0.9,0.3,1.3,0.5c-0.8-0.3-1.7-0.4-2.6-0.3c-2.4,0.2-1,0.5-0.2,0.9c0.6,0.2-0.2,0.4,0.7,0.7c-0.5-0.1-1.1-0.1-1.6-0.1
		c0,0.1,0.5,0,0.9,0.1s0.9,0.1,0.6,0.2c-0.7-0.1-1.3-0.1-2,0c0.4,0.1,0.8,0.1,1.2,0.1c0.5,0.1,1,0.1,0.9,0.2c-0.3,0-0.7-0.1-1-0.2
		c-0.4,0-0.8-0.1-0.9,0.1c0.3,0.1,0.6,0.1,0.9,0.1c-0.6,0-1.3,0.1-1.9,0.4c-0.1,0.1-0.1,0.1,0,0.2c0.1,0,0.2,0,0.3,0
		c0.2,0,0.3,0,0.5,0c-0.6,0-1.1,0.1-1.6,0.4l0,0c0.3-0.1,0.6-0.2,0.8-0.3c-0.3,0.1-0.5,0.2-0.8,0.3h0.2c0.2-0.1,0.4-0.1,0.6-0.2
		c-0.2,0-0.3,0.1-0.5,0.2c0.2,0,0.3,0,0.5,0.1c0.6,0,1.1,0.1,1.7,0.2c1.8,0.2,3.5,0.6,5.1,1.4C196.8,323.9,198.4,324.8,199.8,326z"
		/>
	<path class="st5" d="M180.2,285.6c-0.1-0.1-0.2-0.1-0.2-0.2s0.4-0.2,0.5-0.4l-0.1-0.1c0.2-0.1,0.4-0.2,0.5-0.2
		c0.2-0.3,0.4-0.5,0.6-0.8l-0.1-0.1c0.1-0.1,0.3-0.3,0.4-0.3l0.1-0.1c0,0,0-0.1-0.1-0.1l0.2-0.1c0.7-1,1.5-1.8,2.4-2.5
		c0.2-0.2,0.4-0.4,0.6-0.6c0.4-0.1,0.8-0.2,1.2-0.2c-0.2-0.5,0.8-1,0.5-1.5c0.3,0,0.7,0,0.7-0.2c0-0.6,0.4-1.2,1.1-1.4
		c0.3,0,0.8,0.2,1,0.1s-0.4-0.4-0.2-0.5c-1.2-0.2-2.5-0.1-3.7,0.1c-1.2,0.3-2.4,0.7-3.5,1.2c-0.3,0.3-1.8,1.1-3.1,2.1
		c-1.1,0.9-2,1.9-2.9,3l-0.1,0.1c-0.3,0.3-0.5,0.7-0.7,1.1s-0.3,0.7-0.4,1.1c0,0.3,0,0.7,0.1,1c0.1-0.1,0.3-0.2,0.4-0.2
		c-0.1,0.3-0.2,0.5-0.2,0.7c0,0.7,0.4,0.4,0.9,0.3c0.2-0.1,0.4,0.2,0.6,0c-0.1,0.1-0.1,0.3-0.2,0.4c0.1,0.1,0.1-0.5,0.3-0.3
		c-0.1,0.1-0.1,0.4-0.1,0.5c0.2,0,0.2-0.5,0.5-0.4c0,0.1-0.4,0.3-0.2,0.5c0.1,0,0.1-0.1,0.1-0.2c-0.1,0.5,0.1,0.8,0.5,0.5
		c-0.1,0.1-0.2,0.3-0.2,0.5l0,0c0-0.1,0.1-0.2,0.1-0.3l-0.1,0.3h0.1c0,0,0.1-0.1,0.1-0.2l-0.1,0.2l0.3-0.1c0.2-0.1,0.5-0.2,0.6-0.3
		C179.2,286.9,179.7,286.2,180.2,285.6z"/>
	<path class="st5" d="M202.4,267.1c0.1-0.1,0-0.3,0.2-0.1c0.3,0.3,0.6,0.6,0.7,1c0.1,0.2,0.2,0.4,0.3,0.5c0.1,0.2,0.2,0.4,0.3,0.5
		h0.2c0.1,0.3,0.2,0.7,0.3,1c0,0.2,0.1,0.3,0.1,0.5v0.5c0.2,1.2,0.1,2.5-0.4,3.6c0.1,0,0.1,0,0.1,0.1c-0.3,0.7-0.6,1.3-1.1,1.8
		l-0.2,0.3c0,0.1,0,0.1,0,0.2c-0.2,0.3-0.5,0.5-0.7,0.7c-0.3,0.4-0.7,0.8-1.1,1.1c-0.4,0.3-0.8,0.6-1.3,0.9c-0.9,0.5-1.9,0.9-2.9,1
		c-1.1,0.2-2.1,0.1-3.1-0.3c-0.5-0.2-1.1-0.4-1.6-0.8c-0.3-0.1-0.5-0.3-0.7-0.5l-0.7-0.6c-0.4-0.3-0.8-0.7-1.1-1.1s-0.6-0.9-0.9-1.3
		c-0.7-1.6-1.1-3.3-1.1-5c-0.3,0.1-0.6-0.7-0.8-1.6s-0.4-1.6-0.7-1.3c0.1-0.9,0.1-1.9,0.1-2.8c-0.3-0.3-0.5-0.7-0.6-1.1
		c-0.2-1-0.2-2.1,0-3.2c0.2-1.2,1-2.9,1.1-3.3c0.1-0.7-0.8,1.4-0.8,0.7c-1.5,4.2-2.1,8.7-1.7,13.2c0.2,2.4,0.9,4.7,2.1,6.8
		c1.3,2.3,3.2,4.1,5.6,5.2c0.7,0.3,1.4,0.5,2.2,0.7c0.5,0.1,1.1,0.1,1.7,0.2c0.7,0,1.3,0,2-0.1c1.5-0.2,3-0.8,4.4-1.5
		c1.5-0.9,2.8-2,4-3.3c1.1-1.3,2-2.8,2.6-4.5c0.6-1.6,0.7-3.3,0.6-5c-0.3-2.4-1.4-4.7-3.1-6.5l-0.4-0.4c-1.2-1.2-2.7-2.1-4.2-2.8
		c-1.4-0.6-3-0.9-4.5-1c-0.6,0-1.2,0.1-1.8,0.1s-1.2,0.2-1.8,0.4c0.6,0,1.1,0.1,1.5,0.1c-1,0-1.9,0.2-2.8,0.5
		c-2.3,1-0.8,0.8,0.1,0.9c0.7,0-0.1,0.5,0.9,0.4c-0.6,0.1-1.1,0.3-1.7,0.5c0,0.1,0.5-0.1,0.9-0.3s0.9-0.2,0.7,0
		c-0.3,0-0.7,0.1-1,0.2s-0.7,0.2-1,0.4c0.4,0,0.8-0.1,1.2-0.3c0.5-0.1,1-0.2,1-0.1s-0.6,0-1.1,0.2s-0.8,0.2-0.9,0.4
		c0.3,0,0.6-0.1,0.9-0.2c-0.7,0.2-1.3,0.5-1.8,1c-0.2,0.2,0,0.3,0.9,0c-0.3,0.1-0.6,0.2-0.9,0.4s-0.6,0.4-0.9,0.6l0,0
		c0.3-0.2,0.8-0.4,1-0.6l-0.9,0.6h0.2c0.2-0.1,0.5-0.2,0.7-0.4l-0.6,0.4c0.2,0,0.4-0.1,0.6-0.1c0.7-0.2,1.3-0.3,2-0.4
		C196.2,263.8,199.8,264.7,202.4,267.1z"/>
	<path class="st5" d="M361.7,275.3c0.2,0,0-1.4,0.7,0.6c2.3,6.3,3.6,11.6,6.8,17.7l0.5,0.3c2.3,5,4.9,9.8,7.9,14.4
		c1.5,2.1,3.1,4.2,4.7,6.2c1.7,2.1,3.5,4.1,5.4,6c1.2,1.1,2.4,2,3.8,2.9c1.6,1,3.4,1.6,5.2,1.9c2,0.3,4,0.1,5.9-0.6
		c1.6-0.6,3.1-1.4,4.5-2.4c-0.3,0.1-0.5,0.1,0.4-0.6s1.8-1.5,2.9-2.4s2-1.8,3-2.8l0.8-0.8l0.8-0.8l1.5-1.7c1-1.2,2-2.4,2.9-3.7
		l1.5-2.4c0.3-0.6,0.3-0.9,0.3-1c0.7-1.2,1.4-2.4,2-3.5s1.1-2.2,1.6-3.3c1.5-3.5,2.7-7.2,3.6-10.9c0.9-3.7,1.5-7.5,1.9-11.3
		s0.5-7.6,0.4-11.4s-0.5-7.6-1-11.4c-2.2-15.1-7.2-29.7-12.4-44.6c-2.4-6.3-4.7-12.5-6.8-18.6c-1.5-4.5-3.2-9.7-4.8-14.8
		c-1.4-5-3.2-9.9-5.4-14.7c-0.2,0.9-2.8-3.9-6.5-7.4c-1.5-1.5-3.2-2.7-5.1-3.7c-1.3-0.6-1.9-0.6-1.2,0.2c-1.3-0.9-2.8-1.6-4.2-2.1
		c-1.5-0.5-3.1-0.8-4.6-0.9c-1.8-0.1-3.6,0.2-5.3,1c-0.5,0.7-1.7,1.5-3.9,3.5c-1.4,1.3-2.7,2.7-3.8,4.3c-1.7,2.4-2.9,5.1-3.6,7.9
		c-0.9,3.1-1.3,6.3-1.3,9.5c-0.1,2.4,0.1,4.8,0.5,7.1c0.2,0.9,0.3,0.8,0.3,0.2s0-1.5-0.1-2.5c0-1.9,0.1-3.8,0.3-2.2
		c-0.4-5.1,0.4-10.2,2.4-14.9c1.9-4.2,5.4-7.5,9.6-9.1c1-0.4,2-0.6,3-0.7c1-0.1,2-0.1,3,0.1c2.2,0.4,4.2,1.3,6,2.6
		c3.9,2.6,6.7,6.7,8.9,11.6c1.1,2.5,2.1,5.1,3,7.8l2.8,8.3c1.8,5.6,3.7,11.2,5.5,16.9c1.9,5.6,3.7,11.3,5.5,16.9
		c1.8,5.6,3.6,11.3,5.2,17c2.6,8.4,4.3,17,5.3,25.7c0.7,6.8,0.5,13.7-0.5,20.5c-1.1,7.5-3.6,14.7-7.4,21.3c-1.9,3.3-4.2,6.4-6.8,9.1
		l-2,2l-2.1,1.8c-1.1,1-2.3,1.8-3.7,2.3c-0.4,0.1-0.8,0.2-1.2,0.1c-0.5-0.1-1-0.2-1.4-0.5c-1.3-0.7-2.5-1.6-3.5-2.7
		c-0.6-0.6-1.2-1.3-1.8-2l-1.8-2.1c-1.1-1.4-2.2-2.8-3.2-4.2c-6.3-8.9-11.2-18.7-14.6-29.1c-0.3-0.8-0.5-1.6-0.8-2.4
		c-1.2-3.6-2.2-7.4-3.1-11.3s-1.7-7.9-2.4-11.9c-1.3-8-2.1-15.8-2.6-22.2c-0.6-5.9-1-12-1.3-18c-0.2,2.8-0.4,5.4-0.5,7.7
		c-0.1-6.2,0-12.3-0.1-14.7c-0.1-13.2-0.9-5.7-1.8-0.7c-0.4,3.6-0.9-1.3-1.3,4.4c0.1-4.1,0.1-6.2,0.3-10.4
		c-0.3-0.5-0.1,12.8-0.6,9.9c0.2-4,0.1-8.4,0.3-12.6c-0.5,1.4-0.5,14.3-0.9,13.7c-0.1-2.2,0.8-11.6,0.3-12.4c-0.1-0.2-0.2,4-0.3,6.1
		c0.2-12.8,0-19.8-1-8.2c0.2-4,0.6-9.7,0.7-14l0,0c-0.1,2.1-0.4,5.8-0.5,7.8l0.3-7.3c-0.1,0.4-0.2,0.8-0.3,1.3
		c-0.1,1.8-0.3,3.6-0.4,5.5c0.1-1.6,0.1-3.2,0.2-4.8c-0.2,1.2-0.5,2.6-0.7,4.1c-0.6,5.7-1.3,11.2-1.4,14.3
		c-0.6,12.7-0.4,25.4,0.5,38.1C355.6,250.2,357.9,263,361.7,275.3z"/>
	<path class="st5" d="M398,147c-0.1-0.1-0.2,0-0.2-0.2c0.1-0.4,0.6-0.6,0.8-1l-0.1-0.1l0.8-0.8l1-1.8c-0.1,0-0.1,0-0.1-0.1
		c0.2-0.3,0.4-0.6,0.6-0.9l0.1-0.2c0,0,0-0.1-0.1-0.1c0.1-0.1,0.2-0.3,0.3-0.4c0.9-1.8,1.7-3.7,2.8-5.6c0.2-0.4,0.3-0.9,0.6-1.3
		c0.4-0.6,0.9-1.1,1.4-1.6c-0.5-0.3,0.3-1.7-0.4-1.8c0.3-0.3,0.7-0.8,0.6-0.9c-0.4-0.6-0.4-1.5,0-2.1c0.2-0.4,0.9-0.8,0.9-1
		s-0.6,0.2-0.6-0.1c-2.3,2.5-4.5,5.1-6.5,7.9c-0.2,0.5-1.5,2.4-2.8,4.4s-2.6,4.1-3.2,4.9l-0.1,0.2c-0.6,0.9-1.1,1.9-1.5,3
		c-0.1,0.4-0.1,0.9-0.2,1.4c0.2-0.1,0.3-0.2,0.5-0.3c-0.2,0.3-0.4,0.6-0.4,0.9c-0.2,1,0.3,0.6,0.8,0.5c0.3-0.1,0.3,0.3,0.7,0
		c-0.1,0.2-0.2,0.4-0.4,0.6c0.1,0.1,0.4-0.8,0.5-0.5c-0.2,0.2-0.3,0.5-0.4,0.8c0.2,0,0.5-0.8,0.7-0.7c0,0.1-0.6,0.6-0.4,0.8
		c0,0,0.2-0.2,0.2-0.4c-0.3,0.8-0.3,1.4,0.3,0.8c-0.2,0.3-0.4,0.5-0.5,0.8l0,0c0.1-0.1,0.2-0.3,0.3-0.4l-0.2,0.4h0.1
		c0.1-0.1,0.2-0.2,0.2-0.3l-0.2,0.3c0.1,0,0.2-0.1,0.4-0.1c0.3-0.3,0.8-0.5,0.9-0.7C396.2,149.9,397.1,148.4,398,147z"/>
	<path class="st5" d="M411.5,182.8c0-0.1-0.2-0.1-0.1-0.2c0.4-0.4,1-0.3,1.4-0.7v-0.2c0.4-0.2,0.8-0.3,1.3-0.5l2.2-1.3
		c0,0-0.1-0.1,0-0.1c0.4-0.2,0.8-0.4,1.2-0.6l0.2-0.1V179l0.6-0.2c2.2-1.4,4.4-2.7,6.7-3.9c0.5-0.3,1-0.6,1.5-0.9
		c0.9-0.3,1.7-0.5,2.6-0.7c-0.3-0.5,1.6-1.3,1.1-1.8c0.5-0.1,1.4-0.3,1.4-0.4c0-0.5,0.3-1.2,1.7-1.7c0.6-0.2,1.5-0.1,1.7-0.3
		s-0.8-0.2-0.5-0.4c-4.3,0.7-8.5,1.8-12.5,3.4c-0.7,0.4-3.3,1.5-6,2.8s-5.5,2.9-6.6,3.5l-0.2,0.1c-1.3,0.7-2.4,1.6-3.5,2.5
		c-0.4,0.4-0.7,0.9-1.1,1.3l0.7-0.2c-0.4,0.2-0.7,0.5-1,0.8c-0.8,0.9-0.1,0.7,0.5,0.8c0.4-0.1,0.2,0.4,0.7,0.3
		c-0.3,0.2-0.4,0.3-0.7,0.5c0.1,0.1,0.8-0.7,0.8-0.4c-0.3,0.2-0.6,0.4-0.9,0.7c0.2,0.1,1-0.7,1.1-0.5c-0.1,0.1-1,0.4-0.9,0.6
		c0,0.1,0.3-0.2,0.5-0.3c-0.8,0.7-1.1,1.3-0.2,0.9c-0.3,0.2-0.7,0.4-1,0.7l0,0c0.1-0.1,0.4-0.2,0.6-0.4l-0.5,0.4h0.2
		c0.1-0.1,0.3-0.1,0.4-0.2l-0.3,0.2c0.1,0,0.3,0,0.4,0c0.4-0.1,0.8-0.2,1.2-0.4C407.9,185,409.7,183.9,411.5,182.8z"/>
	<path class="st5" d="M420.4,217.5c0-0.2-0.2-0.4-0.1-0.5c0.5-0.4,1.2,0.2,1.7-0.2v-0.3c0.5,0,1,0.1,1.5,0.1
		c0.9-0.3,1.8-0.6,2.6-0.9c-0.1-0.1-0.1-0.2,0-0.3c0.5-0.2,0.9-0.3,1.4-0.3l0.2-0.1c0-0.1,0-0.2,0-0.3c0.2,0,0.5-0.1,0.7-0.1
		c2.5-1.3,5-2.6,7.8-4c0.5-0.4,1.1-0.8,1.7-1.1c1-0.2,1.9-0.4,2.9-0.4c-0.4-1.1,1.7-2.1,1-3.1c0.6-0.1,1.5-0.2,1.5-0.5
		c-0.1-1.3,0.6-2.4,1.7-3c0.6-0.2,1.6,0,1.8-0.2s-0.9-0.6-0.6-0.9c-4.7,0.4-9,1.6-13.6,2.6c-2.2,0.9-4.5,1.6-6.9,2.1
		c-3.1,0.9-6.4,1.8-7.8,2l-0.2,0.1c-1.5,0.3-3,0.9-4.3,1.8c-0.5,0.4-1,0.9-1.4,1.4c0.3,0.1,0.6,0.2,0.9,0.3
		c-0.6,0.2-1.2,0.3-1.3,0.6c-1.1,0.9-0.2,1.2,0.5,1.8c0.4,0.2,0.1,0.9,0.8,1l-1,0.3c0,0.3,1.1-0.5,1,0.1c-0.4,0-0.8,0.3-1.1,0.4
		c0.3,0.4,1.4-0.3,1.4,0.2c-0.2,0.1-1.2-0.2-1.1,0.3c0,0.1,0.4,0,0.6,0c-1.1,0.5-1.6,1.2-0.3,1.4c-0.4,0-0.9,0.1-1.3,0.2l0,0
		c0.2-0.1,0.6-0.1,0.7-0.1l-0.7,0.2l0.2,0.2c0.2,0,0.4,0,0.5,0l-0.4,0.1c0.2,0.1,0.3,0.3,0.5,0.4c0.6,0.2,1.3,0.5,1.5,0.4
		C415.8,218.6,418.1,218.1,420.4,217.5z"/>
	<path class="st5" d="M423.7,240.6c0-0.1-0.1-0.2,0-0.2c0.5-0.1,0.9,0.2,1.4,0.1v-0.2c0.4,0.1,0.8,0.1,1.2,0.2c0.8,0,1.5,0,2.3,0
		c0-0.1,0-0.1,0.1-0.1c0.4,0,0.8,0,1.2,0.1h0.2l0.1-0.1l0.6,0.1c2.4-0.1,4.8,0,7.2,0.3c0.6,0,1.1,0,1.6,0.1c0.8,0.2,1.6,0.5,2.4,0.9
		c0.1-0.6,1.9-0.2,1.8-0.9c0.5,0.2,1.2,0.5,1.3,0.4c0.3-0.4,0.9-0.8,2.3-0.4c0.5,0.2,1.2,0.7,1.4,0.7s-0.5-0.6-0.1-0.6
		c-1.8-1-3.7-1.8-5.6-2.5c-2-0.6-3.9-1.2-6-1.7c-0.7,0-3.4-0.5-6.3-0.8s-5.9-0.2-7.1-0.2h-0.2c-1.4,0-2.7,0.2-4.1,0.6
		c-0.5,0.2-1,0.4-1.5,0.7l0.7,0.2c-0.4,0-0.8,0.1-1.2,0.3c-1.1,0.4-0.4,0.6,0.1,0.9c0.3,0.1,0,0.4,0.5,0.5c-0.3,0-0.5,0.1-0.8,0.1
		c0,0.2,1-0.3,0.8,0c-0.3,0-0.7,0.1-1,0.2c0.2,0.2,1.2-0.1,1.1,0.1c-0.2,0.1-1-0.1-1,0.1c0,0.1,0.3,0,0.5,0c-1,0.3-1.5,0.6-0.5,0.8
		c-0.4,0-0.7,0.1-1.1,0.1l0,0c0.2,0,0.5,0,0.6,0l-0.6,0.1l0.1,0.1c0.1,0,0.3,0,0.5,0l-0.4,0.1c0.1,0.1,0.2,0.1,0.4,0.2
		c0.4,0.1,0.8,0.2,1.2,0.2C419.7,240.8,421.7,240.6,423.7,240.6z"/>
	<path class="st5" d="M429.1,273.5c0-0.1-0.1-0.2,0.1-0.2c0.5-0.1,0.8,0.4,1.3,0.3l0.1-0.1c0.4,0.1,0.7,0.3,1.1,0.5
		c0.7,0.1,1.4,0.3,2.1,0.5c0-0.1,0-0.1,0.1-0.1c0.4,0.1,0.7,0.3,1.1,0.4l0.2,0.1c0,0,0.1,0,0.1-0.1c0.2,0.1,0.3,0.2,0.5,0.3
		c2.2,0.7,4.3,1.8,6.1,3.1c0.5,0.3,0.9,0.6,1.3,0.9c0.5,0.6,1,1.3,1.4,2c0.4-0.4,1.6,1.1,1.9,0.5c0.3,0.5,0.5,1.2,0.7,1.2
		c0.3,0,0.6,0,0.9,0.2c0.5,0.3,0.8,0.8,1.1,1.3c0.2,0.6,0.2,1.5,0.4,1.7s0.2-0.8,0.4-0.5c-0.4-2.2-1.2-4.4-2.5-6.3
		c-1.2-1.9-2.7-3.5-4.4-5l-2.1-1.4c-1.2-0.7-2.4-1.4-3.7-2c-1.4-0.6-2.8-1.1-4.2-1.5c-0.6-0.2-1.2-0.3-1.8-0.4l-1.3-0.2h-0.2
		c-0.8-0.1-1.5-0.1-2.3-0.1c-0.7,0.1-1.4,0.2-2.1,0.4c-0.5,0.2-1.1,0.5-1.6,0.8l0.7,0.1c-0.4,0-0.9,0.1-1.3,0.3
		c-1.1,0.6-0.3,0.7,0.2,0.9c0.3,0.1,0,0.4,0.5,0.5c-0.3,0.1-0.5,0.1-0.8,0.2c0,0.2,1-0.4,0.8,0c-0.3,0-0.6,0.2-1,0.3
		c0.2,0.2,1.1-0.3,1.1,0c-0.2,0-1,0-1,0.2c0,0,0.3,0,0.5-0.1c-0.9,0.4-1.4,0.8-0.4,0.8c-0.3,0.1-0.7,0.1-1,0.2l0,0
		c0.2,0,0.4-0.1,0.6-0.1l-0.5,0.1l0.1,0.1c0.1,0,0.3,0,0.4-0.1l-0.4,0.1c0.1,0.1,0.2,0.1,0.4,0.1c0.4,0.1,0.7,0.1,1.1,0.1
		C425.5,273.4,427.3,273.3,429.1,273.5z"/>
	<path class="st5" d="M426.6,298.7c0.1-0.1,0-0.2,0.2-0.1c0.5,0.3,0.6,0.8,1.1,1.1l0.1-0.1c0.3,0.3,0.6,0.7,0.9,1.1
		c0.6,0.6,1.3,1.1,1.9,1.7l0.1-0.1c0.3,0.3,0.6,0.6,0.9,1l0.2,0.1h0.1c0.1,0.2,0.3,0.3,0.4,0.5c2,1.7,3.9,3.5,5.6,5.5
		c0.4,0.4,0.9,0.8,1.2,1.3c0.5,0.8,0.9,1.6,1.3,2.4c0.5-0.4,1.6,1.3,2,0.7c0.3,0.5,0.6,1.3,0.8,1.2c0.5-0.1,1.2,0.1,2.1,1.4
		c0.3,0.5,0.5,1.5,0.6,1.6s0-0.9,0.3-0.6c-0.8-2.1-1.7-4.1-2.8-6.1c-1.1-1.9-2.3-3.8-3.7-5.6c-0.5-0.5-2.4-2.9-4.6-5.1
		s-4.6-4.4-5.6-5.3l-0.2-0.1c-1.1-1-2.4-1.8-3.7-2.5c-0.5-0.2-1.1-0.4-1.7-0.5c0.2,0.2,0.3,0.4,0.4,0.6c-0.4-0.3-0.8-0.5-1.2-0.7
		c-1.2-0.4-0.7,0.2-0.5,0.8c0.2,0.3-0.3,0.3,0,0.7c-0.3-0.2-0.5-0.3-0.8-0.5c-0.1,0.1,1,0.5,0.7,0.6c-0.3-0.2-0.7-0.4-1-0.5
		c0,0.2,1,0.7,0.9,0.9c-0.2-0.1-0.7-0.8-0.9-0.6c0,0,0.3,0.2,0.4,0.3c-1-0.5-1.7-0.6-0.9,0.2c-0.3-0.2-0.7-0.5-1-0.7l0,0
		c0.2,0.1,0.4,0.3,0.5,0.4l-0.5-0.3v0.2c0.1,0.1,0.2,0.2,0.4,0.3l-0.4-0.2c0,0.1,0.1,0.3,0.2,0.4c0.2,0.4,0.5,0.7,0.8,1
		C423.2,296.1,424.9,297.4,426.6,298.7z"/>
	<path class="st5" d="M416.9,321c0.1,0,0.1-0.2,0.3,0c0.3,0.5,0.1,1.1,0.5,1.7h0.2c0.1,0.5,0.2,1,0.3,1.5l1,2.6c0,0,0.1-0.1,0.1,0
		c0.2,0.5,0.3,0.9,0.4,1.4l0.1,0.2h0.1c0.1,0.2,0.1,0.5,0.1,0.7c1.1,2.5,2.1,5.1,3.2,8c0.3,0.6,0.5,1.2,0.8,1.8c0.2,1,0.4,2,0.5,3
		c0.5-0.2,1.2,1.9,1.7,1.4c0.1,0.6,0.2,1.5,0.4,1.5c0.5,0.1,1.1,0.4,1.6,2c0.1,0.6,0.1,1.6,0.2,1.8s0.2-0.9,0.4-0.5
		c-0.5-4.7-1.4-9.3-2.5-13.8c-0.3-0.8-1.1-3.8-2.1-6.9s-2.1-6.4-2.5-7.7l-0.1-0.2c-0.5-1.5-1.1-2.9-1.9-4.3c-0.4-0.5-0.7-1-1.1-1.5
		c0,0.3,0,0.6,0,0.8c-0.1-0.5-0.4-0.9-0.6-1.3c-0.8-1.1-0.7-0.3-0.9,0.3c0,0.4-0.5,0-0.4,0.6c-0.1-0.4-0.2-0.5-0.4-0.9
		c-0.2,0,0.6,1.1,0.2,1c-0.1-0.4-0.3-0.7-0.5-1.1c-0.1,0.2,0.5,1.3,0.2,1.3c-0.1-0.2-0.2-1.1-0.5-1.1c-0.1,0,0.1,0.4,0.2,0.6
		c-0.6-1.1-1.1-1.6-0.9-0.5c-0.1-0.4-0.3-0.9-0.5-1.3l0,0c0.1,0.2,0.2,0.5,0.2,0.7l-0.3-0.6l-0.1,0.2c0,0.2,0.1,0.3,0.1,0.5
		l-0.2-0.4c0,0.2-0.1,0.3-0.1,0.5c0,0.5,0.1,1,0.1,1.4C415.3,316.5,416.1,318.8,416.9,321z"/>
	<path class="st5" d="M396.7,326.7c0.1,0,0.2-0.1,0.2,0.1c0,0.5-0.3,1-0.3,1.5l0.1,0.1c-0.1,0.4-0.2,0.9-0.4,1.3
		c-0.1,0.8-0.1,1.6-0.2,2.5c0.1,0,0.1,0,0.1,0.1c0,0.4-0.1,0.9-0.2,1.3v0.2c0,0.1,0.1,0.1,0.1,0.1c0,0.2-0.1,0.4-0.1,0.6
		c-0.1,2.4-0.1,4.9-0.4,7.6c0,0.6,0,1.1,0,1.7c-0.2,0.9-0.4,1.7-0.7,2.5c0.6,0,0.4,2,1,1.8c-0.1,0.5-0.4,1.3-0.2,1.4
		c0.4,0.2,0.9,0.8,0.7,2.3c-0.1,0.6-0.5,1.3-0.5,1.5s0.5-0.6,0.6-0.2c1.3-3.9,2.4-7.9,3.1-12c0-0.7,0.5-3.5,0.9-6.3s0.7-5.9,0.9-7.1
		v-0.2c0.2-1.4,0.2-2.8,0.1-4.1c-0.1-0.5-0.2-1.1-0.4-1.6c-0.1,0.2-0.2,0.5-0.3,0.7c0.1-0.4,0.1-0.9,0-1.3c-0.2-1.1-0.5-0.5-0.9-0.1
		c-0.2,0.3-0.4-0.1-0.6,0.4v-0.9c-0.2,0,0,1.1-0.2,0.8c0-0.4,0-0.7,0-1.1c-0.2,0.1-0.1,1.2-0.3,1.1c0-0.2,0.3-1,0.1-1
		c-0.1,0-0.1,0.3-0.1,0.5c0-1.1-0.3-1.7-0.6-0.7c0-0.3,0.1-0.8,0.1-1.2l0,0c0,0.2-0.1,0.5-0.1,0.6V319l-0.1,0.1
		c0,0.2-0.1,0.3-0.1,0.5v-0.4c-0.1,0.1-0.2,0.2-0.3,0.3c-0.2,0.4-0.4,0.8-0.5,1.2C397.1,322.5,396.9,324.6,396.7,326.7z"/>
	<path class="st5" d="M372.7,307.6c0.1,0.1,0.2,0.1,0.1,0.2c-0.3,0.4-0.8,0.3-1.1,0.7l0.1,0.1l-1,0.5c-0.5,0.5-1,1-1.5,1.5
		c0.1,0,0.1,0.1,0.1,0.1c-0.3,0.3-0.5,0.5-0.9,0.7l-0.1,0.1v0.1c-0.1,0.1-0.3,0.2-0.4,0.3c-1.3,1.6-2.5,3.3-3.7,5.2
		c-0.2,0.4-0.4,0.9-0.7,1.3c-0.4,0.5-1,1.1-1.5,1.6c0.5,0.3-0.3,1.7,0.3,1.8c-0.3,0.3-0.7,0.8-0.6,0.9c0.4,0.6,0.5,1.4,0.1,2
		c-0.2,0.4-0.8,0.8-0.8,1s0.6-0.2,0.6,0c2.1-2.4,4-4.9,6.2-7.2c1-1.3,2.1-2.5,3.4-3.6c1.3-1.3,2.7-2.5,4.2-3.6l0.1-0.1
		c0.9-0.6,1.7-1.3,2.4-2.1c0.2-0.4,0.5-0.7,0.7-1.1c-0.2,0-0.4,0.1-0.6,0.1c0.3-0.2,0.6-0.4,0.8-0.6c0.6-0.7,0-0.7-0.5-0.8
		c-0.3,0-0.2-0.4-0.6-0.3l0.6-0.4c-0.1-0.1-0.7,0.6-0.7,0.2c0.2-0.2,0.5-0.3,0.7-0.5c-0.2-0.1-0.9,0.5-1,0.3
		c0.1-0.1,0.8-0.2,0.7-0.5c0,0-0.3,0.1-0.4,0.2c0.7-0.6,1-1.1,0.1-0.9c0.3-0.1,0.6-0.3,0.9-0.5l0,0c-0.1,0.1-0.4,0.2-0.5,0.2
		l0.4-0.3h-0.1c-0.1,0-0.2,0.1-0.4,0.2l0.3-0.2c-0.1,0-0.3,0-0.4,0c-0.4,0-0.7,0.1-1.1,0.2C375.6,305.5,374.1,306.5,372.7,307.6z"/>
	<path class="st5" d="M360.8,284c0,0.1,0.2,0.1,0.1,0.2c-0.3,0.3-0.8,0.1-1.1,0.4v0.2l-1,0.2l-1.7,1c0,0,0.1,0.1,0,0.1
		c-0.3,0.2-0.6,0.3-1,0.4l-0.1,0.1v0.1l-0.5,0.1c-1.6,1.1-3.2,2.1-5.1,3.2c-0.4,0.3-0.7,0.6-1.1,0.8c-0.7,0.3-1.3,0.5-2,0.6
		c0.3,0.5-1.1,1.3-0.6,1.7c-0.4,0.1-1,0.3-1,0.5c0,0.5-0.1,1.1-1.1,1.7c-0.4,0.2-1.1,0.2-1.2,0.3s0.6,0.2,0.5,0.4
		c3.2-0.8,6.3-1.9,9.3-3.2c0.5-0.3,2.5-1.2,4.6-2.2s4.2-2.1,5.1-2.5l0.2-0.1c1-0.5,1.9-1.1,2.8-1.8c0.3-0.3,0.6-0.7,0.9-1
		c-0.2,0-0.4,0-0.6,0c0.3-0.1,0.6-0.3,0.8-0.6c0.7-0.7,0.1-0.7-0.4-0.8c-0.3,0-0.1-0.4-0.6-0.4l0.6-0.3c-0.1-0.1-0.7,0.5-0.7,0.2
		c0.3-0.1,0.5-0.3,0.7-0.5c-0.2-0.1-0.9,0.4-1,0.2c0.1-0.1,0.8-0.1,0.7-0.4c0,0-0.3,0.1-0.4,0.1c0.7-0.5,1-1,0.1-0.8
		c0.3-0.1,0.6-0.3,0.9-0.4l0,0c-0.1,0.1-0.4,0.1-0.5,0.2l0.4-0.2h-0.1c-0.1,0-0.2,0.1-0.3,0.1l0.3-0.2c-0.1,0-0.2-0.1-0.4-0.1
		c-0.3,0-0.7,0-1,0.1L360.8,284z"/>
	<path class="st5" d="M352.4,257.5c0,0.1,0.1,0.2-0.1,0.3c-0.6,0.1-1.2-0.3-1.8-0.2v0.2c-0.5-0.1-1-0.2-1.6-0.3c-1,0-2,0-3-0.1
		c0,0.1,0,0.1-0.1,0.1c-0.5,0-1-0.1-1.6-0.2H344c-0.1,0-0.1,0.1-0.1,0.1l-0.7-0.1c-3.1-0.1-6.1-0.4-9.1-0.9c-0.7,0-1.4-0.1-2.1-0.3
		c-1-0.3-2-0.7-3-1.1c-0.1,0.6-2.4,0-2.2,0.7c-0.6-0.2-1.5-0.7-1.6-0.6c-0.3,0.4-1,0.7-2.8,0.2c-0.6-0.3-1.5-0.9-1.8-1
		c-0.4,0,0.6,0.7,0.2,0.7c2.2,1.3,4.6,2.4,7,3.3s4.9,1.6,7.4,2.3c0.9,0.1,4.3,0.8,7.9,1.2s7.4,0.5,8.9,0.6h0.3c0.9,0,1.8,0,2.7-0.1
		c0.8-0.1,1.6-0.2,2.5-0.4c0.6-0.2,1.3-0.4,1.9-0.7c-0.3-0.1-0.6-0.1-0.9-0.2c0.5,0,1.1-0.1,1.6-0.3c1.4-0.5,0.5-0.6-0.1-0.9
		c-0.4-0.1,0.1-0.4-0.5-0.5c0.4,0,0.6-0.1,1.1-0.1c0-0.2-1.3,0.3-1,0c0.4,0,0.9-0.1,1.3-0.2c-0.2-0.2-1.5,0.1-1.5-0.1
		c0.2-0.1,1.2,0.1,1.3-0.2c0,0-0.4,0-0.6,0c1.3-0.3,2-0.6,0.7-0.8c0.5,0,1-0.1,1.4-0.1l0,0c-0.2,0-0.6,0-0.8,0.1l0.7-0.1l-0.1-0.1
		c-0.2,0-0.4,0-0.6,0l0.5-0.1c-0.1-0.1-0.3-0.1-0.5-0.2c-0.5-0.1-1-0.2-1.5-0.2C357.4,257.3,354.9,257.5,352.4,257.5z"/>
	<path class="st5" d="M351.4,216.6c0,0.1,0.1,0.2,0,0.2c-0.4,0.1-0.7-0.2-1.1-0.1c0,0.1,0,0.1,0,0.2l-0.9-0.2
		c-0.6,0-1.1,0.1-1.7,0.1c0,0.1,0,0.1,0,0.1c-0.3,0-0.6,0-0.9,0h-0.1l-0.1,0.1h-0.4c-1.6,0.3-3.3,0.7-5.1,1.1
		c-0.4,0.2-0.7,0.3-1.1,0.4c-0.6,0-1.2,0-1.8-0.1c0.1,0.6-1.2,0.9-1,1.4c-0.4,0-0.9,0-0.9,0.1c-0.1,0.7-0.6,1.2-1.3,1.4
		c-0.4,0.1-0.9-0.1-1.1,0s0.5,0.4,0.3,0.5c2.8,0.2,5.4,0,8.2,0c3-0.3,6-0.4,9-0.2h0.1c0.9,0.1,1.8,0,2.7-0.2c0.3-0.1,0.7-0.3,1-0.5
		c-0.2-0.1-0.3-0.2-0.5-0.3c0.3,0,0.6,0,0.9-0.1c0.8-0.2,0.3-0.5,0-0.9c-0.2-0.2,0.1-0.4-0.3-0.6h0.6c0-0.2-0.7,0.1-0.6-0.2
		c0.2,0,0.5,0,0.7,0c-0.1-0.2-0.8-0.1-0.8-0.3c0.1,0,0.7,0.3,0.7,0c0-0.1-0.2-0.1-0.4-0.1c0.7-0.1,1.1-0.4,0.5-0.6
		c0.3,0,0.5,0.1,0.8,0.1l0,0c-0.1,0-0.3-0.1-0.4-0.1h0.4l-0.1-0.1c-0.1,0-0.2-0.1-0.3-0.1h0.3c-0.1-0.1-0.1-0.2-0.2-0.3
		c-0.3-0.2-0.5-0.3-0.8-0.4C354.3,216.7,352.9,216.6,351.4,216.6z"/>
	<path class="st5" d="M353.3,193.6c0,0.1,0,0.2-0.2,0.2c-0.4-0.1-0.5-0.6-0.9-0.7l-0.1,0.1l-0.7-0.7c-0.5-0.3-1.1-0.6-1.6-0.9
		c0,0.1,0,0.1-0.1,0.1c-0.3-0.2-0.6-0.3-0.8-0.6l-0.1-0.1c0,0-0.1,0-0.1,0.1c-0.1-0.1-0.2-0.2-0.4-0.3c-1.7-0.7-3.5-1.4-5.4-2.1
		c-0.4-0.1-0.8-0.2-1.2-0.4c-0.6-0.3-1.1-0.7-1.6-1.1c-0.2,0.5-1.6,0-1.7,0.7c-0.3-0.2-0.8-0.6-0.9-0.4c-0.5,0.5-1.3,0.7-1.9,0.4
		c-0.4-0.2-0.8-0.7-1-0.7s0.3,0.6,0,0.6c2.5,1.8,5,3.1,7.6,4.8c2.9,1.5,5.7,3.2,8.5,5l0.1,0.1c0.8,0.6,1.7,1.1,2.7,1.4
		c0.4,0.1,0.8,0.2,1.2,0.2c-0.1-0.2-0.2-0.4-0.3-0.5c0.2,0.2,0.5,0.4,0.8,0.4c0.8,0.2,0.6-0.3,0.5-0.8c-0.1-0.3,0.3-0.3,0.1-0.7
		l0.5,0.4c0.1-0.1-0.7-0.4-0.4-0.5c0.2,0.2,0.4,0.3,0.7,0.4c0-0.2-0.7-0.6-0.6-0.7c0.1,0,0.5,0.6,0.6,0.4c0,0-0.2-0.2-0.3-0.3
		c0.7,0.4,1.2,0.4,0.8-0.3c0.2,0.2,0.5,0.4,0.7,0.6l0,0c-0.1-0.1-0.3-0.2-0.4-0.3l0.4,0.3v-0.1c-0.1-0.1-0.2-0.2-0.3-0.2l0.2,0.2
		c0-0.1,0-0.2-0.1-0.4c-0.1-0.3-0.3-0.6-0.5-0.9C356,195.3,354.6,194.4,353.3,193.6z"/>
	<path class="st5" d="M356.8,162.7c-0.1,0.1-0.1,0.2-0.2,0.1c-0.4-0.3-0.4-0.8-0.7-1.1l-0.1,0.1l-0.5-1c-0.5-0.5-1-1-1.5-1.5
		c0,0.1-0.1,0.1-0.1,0.1c-0.3-0.3-0.5-0.5-0.7-0.8l-0.1-0.1h-0.1c-0.1-0.1-0.2-0.3-0.3-0.4c-1.6-1.2-3.3-2.5-5.1-3.8
		c-0.4-0.2-0.8-0.4-1.2-0.7c-0.5-0.5-1-1-1.5-1.6c-0.3,0.5-1.7-0.4-1.8,0.2c-0.3-0.3-0.8-0.8-0.9-0.7c-0.6,0.4-1.5,0.4-2.1-0.1
		c-0.4-0.3-0.7-0.9-0.9-0.9s0.2,0.6-0.1,0.6c2.3,2.4,4.7,4.4,7,6.8c1.3,1.1,2.5,2.2,3.6,3.5c1.6,1.6,3.1,3.4,3.8,4.2l0.1,0.1
		c0.7,0.9,1.4,1.6,2.3,2.3c0.4,0.2,0.8,0.4,1.2,0.7c-0.1-0.2-0.1-0.4-0.1-0.6c0.3,0.3,0.5,0.7,0.7,0.7c0.8,0.6,0.7,0,0.7-0.6
		c0-0.3,0.4-0.2,0.3-0.6l0.4,0.6c0.1-0.1-0.6-0.6-0.3-0.6c0.2,0.2,0.4,0.5,0.6,0.7c0.1-0.2-0.6-0.8-0.4-0.9c0.1,0.1,0.3,0.8,0.5,0.7
		c0,0-0.1-0.2-0.2-0.4c0.6,0.6,1.1,0.9,0.9,0c0.2,0.3,0.3,0.6,0.5,0.8l0,0c-0.1-0.1-0.2-0.4-0.3-0.5l0.3,0.4v-0.1
		c0-0.1-0.1-0.2-0.2-0.3l0.2,0.3c0-0.1,0-0.3,0-0.4c-0.1-0.4-0.2-0.7-0.3-1.1C359,165.5,357.9,164.1,356.8,162.7z"/>
	<path class="st5" d="M375.2,146.8c-0.1,0-0.2,0.1-0.2,0c-0.1-0.5,0.1-1,0-1.6h-0.2c0-0.4,0.1-0.9,0.1-1.3c-0.1-0.8-0.2-1.6-0.4-2.5
		c-0.1,0-0.1,0-0.1,0c-0.1-0.4-0.1-0.9-0.1-1.3c0-0.1,0-0.1,0-0.2l-0.1-0.1c0-0.2,0-0.4,0-0.6c-0.5-2.4-1.2-4.8-1.8-7.4
		c-0.2-0.5-0.4-1.1-0.5-1.6c-0.1-0.8-0.1-1.8-0.2-2.6c-0.6,0.2-1-1.7-1.6-1.3c0-0.5-0.1-1.3-0.2-1.3c-0.5-0.1-1.1-0.4-1.5-1.8
		c-0.1-0.5,0-1.4-0.1-1.6s-0.3,0.7-0.5,0.4c0.2,4,0.8,7.9,1.2,12c0.4,1.4,1.4,10.7,1.5,13.1v0.2c0.1,1.4,0.3,2.7,0.6,4
		c0.2,0.5,0.4,1,0.6,1.5c0.1-0.2,0.1-0.5,0.2-0.7c0,0.4,0.1,0.8,0.2,1.2c0.4,1.1,0.6,0.4,0.9,0c0.1-0.3,0.5,0.1,0.6-0.4
		c0,0.4,0,0.5,0.1,0.9c0.2,0-0.2-1.1,0.1-0.8c0,0.4,0.1,0.7,0.1,1.1c0.2-0.1,0-1.2,0.2-1.2c0.1,0.2-0.2,1,0.1,1.1c0,0,0-0.3,0-0.5
		c0.2,1.1,0.5,1.6,0.7,0.6c0,0.4,0,0.8,0,1.2l0,0c0-0.2,0-0.5,0-0.7v0.6l0.1-0.1c0-0.2,0-0.3,0-0.5v0.4c0.1-0.1,0.2-0.2,0.2-0.4
		c0.1-0.4,0.3-0.8,0.3-1.2C375.5,151,375.4,148.9,375.2,146.8z"/>
	<path class="st5" d="M275.3,102.2c0.1,0.1,0.7-1.9-0.1,1.2c-0.8,2.4-1.8,4.6-3,6.8c-1.2,2.1-2.5,4.1-3.9,6c-2.8,3.9-5.9,7.6-9.3,12
		l-0.4,0.7c-2.7,3.5-5.2,7.3-7.2,11.2c-2.2,4.2-3.7,8.7-4.4,13.4c-0.6,4.6,0.1,9.2,2,13.4c0.5,1.2,1.2,2.2,2,3.2
		c0.9,1.1,2.1,2,3.5,2.5c1.3,0.5,2.7,0.6,4.1,0.5c1.2-0.1,2.3-0.3,3.5-0.6c8.2-2.1,16-5.3,23.3-9.6c-0.4,0.2-0.6,0.2,0.8-0.6
		c3.5-2.1,6.8-4.5,10-7c3.6-2.8,6.9-6.4,10.8-8.5c0.5-0.3,1.1-0.6,1.7-0.8c0.5-0.2,1.1-0.4,1.7-0.6c0.4-0.1,0.9-0.2,1.3-0.3
		c1.7-0.2,3.4,0.1,4.9,0.8c1.3,0.6,2.2,1.7,2.7,3c0.8,2,0.4,4.6-0.8,7c-0.6,1.2-1.3,2.4-2.1,3.5c-0.4,0.6-0.8,1.1-1.3,1.6
		s-1,1.1-1.5,1.6c-4,4.3-8.5,8.2-13.4,11.4c-10,6.6-21.5,10.8-33.5,12.2c-6.1,0.7-12.2,0.6-18.2-0.2c-6-0.9-12.1-2.6-17-6.2
		c-2.5-1.7-4.6-4-6.1-6.6c-1.6-2.6-2.5-5.5-2.8-8.5c-0.2-3,0.5-6.1,2.1-8.7c1.7-2.7,3.7-5.2,6-7.4c7.7-7.9,16.8-14.7,23.6-23.3
		c1.3-1.6,2.5-3.4,3.6-5.2c1.1-1.9,2.1-3.9,2.9-5.9c0.9-2.1,1.5-4.3,2-6.5c0.5-2.3,0.7-4.6,0.6-6.9c0-9.2-5.7-17.4-14.3-20.7
		c0.2,0.2-0.1,0.1-0.9-0.1l-1.5-0.4l-1-0.3l-1.1-0.2c-3.8-0.7-7.7-0.9-11.5-0.4c-3.5,0.4-6.9,1.3-10.1,2.8c-2.2,1.1-3,1.5-1.2,0.9
		c-2.6,1.1-5,2.4-7.4,3.9c-2.5,1.5-4.9,3.2-6.9,4.8c-4.2,3.2-7.2,5.9-7.5,6.2c-2.1,2.4-4.4,4.6-6.8,6.7c-2.8,2.5-5.8,4.9-8.9,7.1
		c-2.2,1.5-4.4,3-6.8,4.2c-2.9,1.6-5.9,3-9,4c-3,1-6.1,1.6-9.2,1.8c-1.7,0.1-3.3,0.1-5,0c-0.9,0-1.7-0.2-2.6-0.3
		c-0.9-0.2-1.7-0.5-2.5-0.8c-1.7-0.7-3.2-1.8-4.3-3.3c-0.6-0.8-1-1.7-1.1-2.6c0-0.2-0.1-0.5-0.1-0.7V113c0-0.4,0.1-0.9,0.2-1.3
		c0.3-1.3,1-2.5,1.9-3.4c0.5-0.6,1-1.1,1.6-1.6c1.1-1,1-1,0.2-0.4c-1.5,1.1-2.7,2.4-3.5,4c-0.3,0.6-0.5,1.2-0.6,1.8
		c-0.1,0.3-0.1,0.7-0.1,1s0,0.6,0,0.9c0.1,1,0.5,1.9,1,2.8c0.4,0.6,0.6,0.9,0.6,0.8c-0.4-0.4-0.8-0.8-1-1.4c0.9,1.5,2.2,2.8,3.7,3.6
		c1.3,0.7,2.8,1.2,4.3,1.5c1.4,0.2,2.8,0.4,4.2,0.4c1.3,0,2.7,0,4-0.2c2.7-0.2,5.3-0.7,7.8-1.5c2.5-0.7,5-1.7,7.3-2.8
		c2.3-1.1,4.6-2.3,6.8-3.7c2.2-1.3,4.3-2.8,6.3-4.3c4.1-3,7.9-6.3,11.6-9.5c7.5-6.3,15-12.5,23.8-15.9c4.3-1.7,8.8-2.5,13.4-2.5h0.9
		l0.9,0.1c0.6,0,1.1,0.1,1.7,0.1c1.1,0.1,2.2,0.3,3.3,0.6c1.1,0.3,2.2,0.6,3.2,1s2,0.9,3,1.4s1.9,1.1,2.8,1.7
		c0.8,0.7,1.6,1.4,2.3,2.2c0.4,0.4,0.7,0.8,1,1.2c0.3,0.4,0.6,0.9,0.9,1.3l0.8,1.4c0.2,0.5,0.4,1,0.6,1.5c0.8,2,1.2,4.2,1.4,6.4
		c0.1,2.2-0.1,4.5-0.5,6.7c-0.4,2.3-1.1,4.5-2,6.6s-2,4.2-3.2,6.1c-2.7,3.9-5.8,7.5-9.3,10.8c-3.5,3.4-7.2,6.6-11,9.9
		c-1.9,1.7-3.7,3.4-5.5,5.2c-1.9,1.8-3.6,3.8-5.2,5.9c-1.7,2.2-3,4.8-3.8,7.5c-0.7,2.8-0.8,5.7-0.2,8.6c1.1,5.5,4.1,10.5,8.5,14.1
		c1.9,1.6,4.1,2.9,6.3,4c3.2,1.6,6.7,2.7,10.2,3.4c2.1,0.5,4.2,0.8,6.3,1l3.4,0.3l3.6,0.1c5.3,0.1,10.6-0.4,15.8-1.3
		c12.3-2.3,23.9-7.5,33.9-15.1c1.3-1,2.6-2.1,3.9-3.2s2.5-2.3,3.8-3.5s2.4-2.5,3.5-3.8c1.2-1.4,2.3-2.9,3.2-4.5
		c1-1.7,1.7-3.5,2.2-5.4c0.5-2.1,0.4-4.3-0.2-6.3c-0.7-2.1-2.2-4-4.1-5.2c-1.8-1.1-3.9-1.7-6-1.8c-2-0.1-4.1,0.2-6,0.9
		c-1.8,0.7-3.5,1.6-5.1,2.8c-3.1,2.2-5.6,4.7-8.2,6.8c-7.7,6.4-16.5,11.4-26,14.7l-2.3,0.8l-2.3,0.7c-1.5,0.5-3,0.8-4.5,1.1
		c-1.1,0.3-2.3,0.1-3.3-0.4c-1-0.7-1.7-1.6-2.2-2.7c-1.2-2.5-1.8-5.3-1.9-8.1c-0.1-5.6,1.9-11,4.3-15.7c1.2-2.3,2.5-4.5,4-6.7
		c1.4-2.1,2.9-4,4.4-5.9c3-3.8,5.8-7.3,8.1-10.7c2.1-3,3.9-6.1,5.5-9.4l0.9-2.1l0.8-2.2c2.4-7,2-14.6-1-21.4
		c-3.2-6.8-8.3-12.5-14.7-16.4c-3.1-1.9-6.4-3.4-9.9-4.5l-1.3-0.4l-1.3-0.3c-0.9-0.2-1.7-0.4-2.6-0.5l-2.6-0.2c-0.9,0-1.7,0-2.6,0
		c-6.2,0.2-12.3,1-18.3,2.3c-10,2.3-19.8,5.4-29.3,9.4c2.2-0.9,4.4-1.6,6.5-2.3l3-1l2.9-0.8c-2.5,0.7-5,1.7-7.3,2.5
		s-4.6,1.8-6.7,2.6l-2.9,1.2l-2.5,1.1l-3.7,1.8c-2.5,1.2-4.4,2.3-6,3.2s-2.7,1.5-3.4,2c-1.5,1-1.7,1.2-1,0.9s2.1-1.1,4-2l5.9-2.7
		c5.6-2.4-1.8,1.3,7-2.5c-5.3,2.3-10.4,4.8-15.5,7.7c-0.1,0.2,0.9-0.5,2.6-1.4l6.1-3.1c4.4-2,8.3-3.8,6.2-2.7l-4.6,2.1l-1.2,0.6
		l-1.2,0.6l-2.4,1.2c-3.2,1.6-6.2,3.4-9.2,5.2c0.6-0.2,2.1-1.1,4.1-2.3l1.6-0.9l1.8-0.9c1.2-0.6,2.5-1.3,3.7-1.9
		c0.6-0.3,1.2-0.6,1.8-0.9l1.8-0.8l3-1.4c0.8-0.4,1.7-0.8,2.6-1c-0.9,0.3-2.4,1.1-4.2,1.9l-2.9,1.3c-1,0.5-2,1-3.1,1.5l-2.9,1.5
		l-1.3,0.7l-1.2,0.7c-1,0.5-1.9,1.1-2.8,1.7c-0.1,0.1,1.3-0.7,3.2-1.8s4.2-2.2,5.7-3c-4.8,2.3-8.8,4.8-12,6.8
		c-3.1,2.1-5.5,3.7-6.7,4.6c-2.4,2-1,0.8,7.2-4.3c-2.8,1.9-6.2,3.9-9.4,6.4c-3.1,2.3-6.1,4.8-9,7.4l0,0l4.9-4.2
		c0.9-0.8,1.9-1.4,2.7-2.1l2.3-1.7c-1.6,1.2-3.2,2.3-4.8,3.6l-4.5,3.9l1.6-1.3l3.4-2.9c1.2-0.9,2.4-1.8,3.7-2.8l-3.2,2.4
		c-1,0.8-2,1.7-3,2.6l2.5-2c0.9-0.7,1.9-1.3,2.9-2.1c1.9-1.4,3.8-2.8,5.7-3.9s3.7-2.4,5.5-3.4l4.9-2.7c1.5-0.8,2.9-1.5,4-2.1
		c9.2-4.7,18.8-8.6,28.7-11.6c9.8-3.1,19.9-5.1,30.2-5.9c1.3-0.1,2.5,0,3.7-0.1h0.9l0.9,0.1l1.8,0.2c2.4,0.4,4.7,1,7,1.9
		s4.5,2,6.5,3.3c2,1.4,3.9,2.9,5.7,4.7c3.5,3.4,6.1,7.6,7.5,12.2c0.2,0.6,0.3,1.1,0.5,1.7c0.1,0.6,0.3,1.2,0.4,1.7
		c0.2,1.2,0.3,2.3,0.2,3.5C276.3,97.5,276,99.9,275.3,102.2z"/>
	<path class="st5" d="M327.1,381c0,0.1,1-0.6-0.4,0.6c-4.4,3.6-8.7,5.5-13.7,9l-0.3,0.4c-3.9,2.6-8.1,5.7-11.1,10.2
		c-1.4,2.1-2.4,4.4-3,6.9c-0.6,2.4-0.9,4.9-0.7,7.4c0.1,2.5,0.6,4.9,1.3,7.2c0.8,2.3,1.8,4.6,3.2,6.6c-0.1-0.2-0.1-0.4,0.4,0.4
		c1.4,1.9,3.1,3.7,4.9,5.1c0.5,0.4,1.1,0.8,1.7,1.2l0.9,0.6l1,0.5c1.3,0.7,2.7,1.2,4.2,1.5c0.9,0.2,1.8,0.3,2.7,0.4
		c0.3,0,0.7,0,1-0.1c1.4,0,2.7-0.2,4-0.6c1.2-0.4,2.4-1,3.4-1.8c1.6-1.3,2.8-3,3.5-4.9c0.7-2.1,0.6-4.3-0.2-6.3
		c-0.9-1.8-2.2-3.3-3.8-4.5c-1.5-1.1-2.9-1.9-4.2-2.8c-2.7-1.7-4.3-3.6-4.3-6.5c0-1.4,0.2-2.9,0.8-4.2c0.3-0.7,0.6-1.4,1-2
		c0.4-0.7,0.8-1.4,1.2-2c2-2.6,4.3-4.9,6.9-6.8c2.6-2.1,5.5-4,8.2-6.3c2.8-2.2,5.3-4.8,7.5-7.7c2.2-2.9,4-6.1,5.4-9.5
		c2.2-5.7,3.4-11.8,3.5-17.9c0.1-2.3,0-4.6-0.2-7s-0.6-4.9-1.1-7.3s-1.2-4.8-2-7.1s-1.6-4.4-2.5-6.4c0,0.7-2.1-3.6-4.6-7.4
		s-5-7-4.1-5.1c-1.7-2.5-3.5-4.9-5.6-7.2c-1.2-1.3-2.5-2.4-4-3.4c-0.5-0.2-1-0.4-1.5-0.6c-0.7-0.3-1.7-0.8-3.1-1.2
		c-1.7-0.6-3.6-0.9-5.4-1c-2.7-0.2-5.4,0.5-7.7,2c-1.1,0.7-2,1.6-2.6,2.7c-0.6,1-0.9,2.1-0.6,3.3c0.2,0.9,0.8,1.7,1.5,2.2
		c0.4,0.3,0.9,0.4,1.3,0.3c0.8-0.1,0.7-0.1,0.2-0.1h-0.2h-0.1c-0.1,0-0.2,0-0.2,0c-0.2,0-0.4-0.1-0.6-0.2c-0.4-0.2-0.7-0.5-0.9-0.9
		c-0.1-0.3-0.1-0.3,0.2,0c-0.5-0.6-0.8-1.3-0.8-2c0-0.9,0.3-1.7,0.8-2.4c1.2-1.7,3-2.9,5-3.5c2.2-0.6,4.5-0.6,6.7-0.1
		c2.3,0.5,4.4,1.5,6.4,2.9c4,2.8,7.1,6.8,10,11.1c2.9,4.3,5.4,8.9,7.4,13.6c4,9.5,6,19.9,4.5,30s-6.2,19.9-14.3,26.3
		c-1.3,1.2-3.8,3-7.3,5.5c-2,1.4-3.8,3-5.6,4.6c-2.2,2.1-4.1,4.5-5.6,7.2c-0.8,1.6-1.4,3.3-1.7,5c-0.4,2-0.3,4,0.3,5.9
		c0.7,2,1.9,3.8,3.5,5.2c1.4,1.1,3,2.2,4.5,3.2c1.3,0.8,2.5,1.7,3.4,2.9c0.3,0.5,0.6,1,0.8,1.6c0.1,0.6,0.1,1.2,0,1.8
		c-0.3,1.3-1.1,2.5-2.1,3.4c-0.5,0.4-1.1,0.8-1.8,1c-0.7,0.3-1.4,0.4-2.1,0.5c-3.3,0.1-6.5-0.9-9.1-2.9c-2.7-2-4.9-4.7-6.3-7.8
		c-1.4-3-2.1-6.3-2.1-9.6c0-3.1,0.7-6.1,2.2-8.9c1.4-2.5,3.3-4.8,5.5-6.7c2.1-1.8,4.3-3.4,6.5-4.8c4.3-2.8,8.2-5.1,10.9-7.1l1.9-1.5
		c3.1-2.5,5.7-5.5,7.7-8.9c2-3.6,3.3-7.5,3.7-11.6c0.7-7.2-0.3-14.5-2.9-21.3c-2-5.3-4.6-10.3-7.8-15c1.2,2.1,2.3,4.2,3.3,6.4
		c-1.2-2.4-2.6-4.7-4.1-7c-1-1.5-2.1-3-3.3-4.4c-1.2-1.5-2.6-3-4.1-4.3c-0.8-0.7-0.9-0.7-0.7-0.4c0.5,0.6,2.4,2.8,3.7,4.8
		c1,1.4,0.7,1.2,0.6,1.2s-0.1,0.2,1.4,2.4c-1.8-2.6-3.8-4.9-6-7.1c-0.2-0.1,1.9,1.9,3.5,3.9s3,4,2.1,3c-1.1-1.5-2.2-3-3.5-4.4
		s-2.6-2.7-4-4c0.4,0.5,2.8,2.7,4.6,5c1.2,1.3,2.3,2.8,3.2,4.4c-0.6-0.8-2-3-3.6-4.8c-1-1.3-2.2-2.5-3.5-3.6c-0.1,0,0.6,0.6,1.4,1.4
		s1.7,1.8,2.3,2.5c-1.6-1.9-3.4-3.6-5.2-5.1c-1.1-0.9-2.3-1.7-3.6-2.5c-0.7-0.4-0.9-0.4-0.4,0c0.3,0.2,0.7,0.5,1.3,1s1.4,1.1,2.4,2
		c-1.5-1.3-3.2-2.5-4.9-3.5c-1.8-1.1-3.6-1.9-5.5-2.6l0,0c1.1,0.4,2.1,0.8,3.1,1.3c0.6,0.2,1.1,0.6,1.6,0.8c0.4,0.2,0.9,0.5,1.3,0.8
		c-1.8-1.1-3.7-2-5.6-2.7l1,0.5c0.7,0.3,1.4,0.7,2.1,1s1.4,0.8,2.1,1.2c-0.6-0.4-1.2-0.7-1.8-1s-1.2-0.6-1.9-0.9l1.5,0.8
		c0.5,0.3,1,0.6,1.6,1c3.4,2.3,6.5,5,9.1,8.2c3.6,4.2,6.6,8.8,9,13.7c1.2,2.5,2.3,5,3.1,7.6c0.5,1.3,0.8,2.6,1.2,3.9s0.7,2.6,0.9,4
		c0.5,2.6,0.7,5.3,0.7,8c0,2.6-0.4,5.2-1.1,7.8c-0.7,2.5-1.7,4.9-3.2,7C330.9,377.6,329.2,379.4,327.1,381z"/>
</g>
</svg>
