<svg xmlns="http://www.w3.org/2000/svg" viewBox="0 0 500 500"><defs><style>.cls-1{fill:#f9cdde;}.cls-2{fill:#f9cfb5;}.cls-3{fill:#fff;}.cls-4{fill:#1d1d1d;}.cls-5{fill:#b8e1f0;}</style></defs><g id="OUTLINE_ikons" data-name="OUTLINE ikons"><path class="cls-1" d="M339.27,311.3s17.4,12.55,14,17-15.62,26.91-15.6,36.36-1.82,13.51-1.82,13.51l-28.78,2s-22.55-27.33-38.1-37.9-71.23-55.43-109.56-39.88c0,0-1.34-5.58,6.33-11.42s21-14.69,23.23-36,21.5-11.75,60,3.53S339.27,311.3,339.27,311.3Z"/><path class="cls-2" d="M172.71,181.73c1.58-5.89,6.4-10.21,10.27-14.93s7-11.19,4.46-16.74a81.48,81.48,0,0,1,19.17-24.32l-17.22,0c15.72-9.63,28.09-23.89,43.17-34.5a79.5,79.5,0,0,1,16.08-8.8l7-.47c27.67-14.85,55.09-13.08,83.7-.12S387.61,117,399.49,146c3.31,8.11,5.88,17,4.21,25.54l-1.87-1.08c0,.24,0,.47,0,.7-.15,3-.39,6.14-.85,9.2l.28-.62C413.36,197.43,422.59,209,424.65,224c.34,2.43,3.36,5.65,1.93,7.63-.73,1-1.12,2.61-2.32,2.95-3.7,1-8.13.7-12,.75s-7.71-.1-8.62,3.63c-.7,2.88.2,5.88-.75,8.69-1.07,3.11.05,4.48-3.35,4.92.93,2.3-6.36,2.84-5.59,3.26,3.71,2,4.42,6.7,3.5,8.34-1.07,1.91-2.94,3.31-2.78,5,.23,2.45,1.44,4.68,2.47,6.91,2.73,5.87,4.24,13.25.43,18.48-3.59,4.93-8.12,8.38-14.11,7.23-2.36-.45-6.24-1.4-8.56-.79-3.48.92-7.07,7.09-9.63,9.62-3.19,3.15-21.19,6.66-30.35,11l-9.14-21.91-58.75-33.07L194.79,243,189,245.26c-3,1.36-6.54-7-6.07-10.26.66-4.67-1.27-5.63-3.53-8.09-1.16-1.26-1.15-4.19-2.43-5.34-3.28-3,.23-7.42,0-11.84C176.59,200.2,170.24,191,172.71,181.73Z"/><path class="cls-3" d="M287.5,93.11s-22.67-24.4-54.94-1.84-28.62,30.18-43.17,34.5l17.22,0s-20.24,22.17-19.17,24.32-11.57,27.46-11.57,27.46l-3.73,14.78L176,212.38s-1.85,3.43-.13,9.11c2,6.63,7.33,6.36,7.23,9.48-.43,14.29,5.92,14.29,5.92,14.29s24.63-12.24,32.14-7.58a147.16,147.16,0,0,0,13.77,7.58s-1.25-17.94,3.75-17.11,8,19.13,12.94,11.68,6.82-17.39,6.82-17.39l7.07-6.29s-17-25.37-16.3-34.22-2.65-24.28,6.35-26.38,21.18-7.49,28.44,5.64l11.85-5.64s9.3-3.34,6.78-6.7c-3.78-5-2-8.79,1-15.78,1.79-4.12-9.72-16.74-6.42-20.23,2.89-3.07-.24-8.18-4.2-9.89C289.47,101.43,289.86,96.73,287.5,93.11Z"/><path class="cls-4" d="M391.09,124.67c-.1,0,.22.69-.44-.22-1-1.44-1.83-2.83-2.73-4.15s-1.79-2.65-2.88-4l-.29-.11c-1.68-2.16-3.33-4.51-5.25-6.71a122.9,122.9,0,0,0-11.39-11.32c.06.14.07.22-.34-.11-1.72-1.4-4-3.47-6.53-5.38l-1.13-.84a1.12,1.12,0,0,0-.48-.21c-1.14-.87-2.21-1.58-3.16-2.28A109.74,109.74,0,0,0,311.6,72c-1.78-.28-3.58-.4-5.36-.55l-2.64-.24L301,71.11c-1.28,0-2.65-.21-4.06-.21l-4.31-.08c-1.46,0-2.9.07-4.3.1s-2.74.08-4,.23c.4.27-2.42.7-5,1.26s-4.91,1.2-3.68,1.3c-3.24.55-8.06,1.65-8.24,1.94-.58.75-3,1.64-10.88,5-3.12,1.25-7.79,3.44-8.82,4-1.59,1,4.06-1.64,2.46-.66,2.76-1.43,5.64-2.55,8.5-3.71l4.36-1.5c1.46-.49,3-.84,4.42-1.27a100.86,100.86,0,0,1,18.08-3.11,111,111,0,0,1,18.41.19,104.79,104.79,0,0,1,18.32,3.51l2.08.56,1.42.39c.5.16,1,.35,1.61.55L331.21,81l4.45,1.82A110.74,110.74,0,0,1,356.5,94.76a120.79,120.79,0,0,1,18.68,17,118,118,0,0,1,10.88,14.11l.76,1.12c2.24,3.4,4.49,7.3,6.56,11.12,1,1.93,1.95,3.85,2.87,5.65s1.66,3.57,2.38,5.14a81.36,81.36,0,0,1,3.55,8.83c-.29-1.45-.61-2.78-.91-3.94,1.07,3.08,1.77,6.22,2.1,7.42.72,3.35.8,4.1.94,3.64a19.69,19.69,0,0,0,0-3.48c-.21-1.94.59.6.11-2.44a43.69,43.69,0,0,1,.93,5.47,14.71,14.71,0,0,0-.4-3.11c-.29-1.52-.62-2.87-.31-2.15a49.9,49.9,0,0,1,1.05,6.69,19.5,19.5,0,0,0-.35-4.1,26,26,0,0,1-.52-3.25,34.17,34.17,0,0,1,.64,3.6,20.18,20.18,0,0,0,.45,3.05,8.81,8.81,0,0,0-.06-1.2c-.09-.68-.19-1.52-.29-2.08a60.2,60.2,0,0,1,.78,7.18c0,1,.33.43.35-2.81a35.8,35.8,0,0,1-.57,7.79v0a30.24,30.24,0,0,0,.58-4.31,29.1,29.1,0,0,1-.48,4l.23-.68c.11-.5.19-1,.25-1.52a13.3,13.3,0,0,0,.14-1.56c0,.9-.15,1.8-.27,2.7a22.71,22.71,0,0,0,.5-2.28,32.58,32.58,0,0,0,0-8.1c-1-7-3.55-13.47-6.31-19.66A134.55,134.55,0,0,0,391.09,124.67Z"/><path class="cls-4" d="M224.48,93.88c.1.17.92-.23-.11.71-3.29,2.88-6.37,4.63-9.48,7.6l0,.45-8,6.38-3.58,3.13-1.8,1.53-2.3,1.91c-1.21,1-2.47,2-3.8,2.91l-3.9,2.87-8.94,5.84c.63-.26,1.05-.4,0,.34l-3.6,2.35c-1.26.79-2.6,1.65-4,2.54l1,.05h2.19l5.81,0,11.24,0,.2-.06a1.51,1.51,0,0,0,.2-.26,3.64,3.64,0,0,1,.69.08l.64-.1.38-.05.2,0c.06,0,0,0,0,.06l-.68,1-.5.75,0,.05s0,0-.06.08l-.3.39-.61.77c-.39.53-.79,1.05-1.19,1.58-1.56,2.13-3,4.37-4.45,6.71-.7,1.17-1.37,2.37-2,3.59l-1.06,2c-.47,1-1,1.93-1.42,2.9.25.62.53,1.24.77,1.87l.18.48.11.37a2.2,2.2,0,0,1,.12.44,5.51,5.51,0,0,1,.14.92,6.44,6.44,0,0,1,0,1,12.41,12.41,0,0,1-.91,4.32,22.3,22.3,0,0,1-2.31,4.46c-.94,1.43-2.11,2.87-3.33,4.37-2.62,3.44-5.56,7.13-7.07,11.48a12.57,12.57,0,0,0-.39,1.23,9.46,9.46,0,0,0-.31,1.3,11.74,11.74,0,0,0-.25,1.34l-.15,1.37a26.59,26.59,0,0,0,.28,5.57,83.89,83.89,0,0,0,2.47,9.94c.4-.6,1.87,2.54,2.89,5.59s1.34,6.14,1.93,4.61a48.52,48.52,0,0,0,.22,6.45c.28,1.9,1,3,1.24,3a5.77,5.77,0,0,1,1.1.27c.49.13.87.21,1.84.52a12.83,12.83,0,0,1,1.94.81,9.49,9.49,0,0,1,1.41.92,8.85,8.85,0,0,1,1.48,1.56,10.76,10.76,0,0,1,1.82,4.23,28.93,28.93,0,0,1,.46,4.27,21.81,21.81,0,0,0,.13,2.55,4.42,4.42,0,0,0,.65,1.63,3.14,3.14,0,0,0,.29.37s0,0,0,0a1.51,1.51,0,0,0-.11.22,1.19,1.19,0,0,0-.09.15,1.89,1.89,0,0,0-.13.33.89.89,0,0,0-.06.2c-.06.28,0,.25-.05.13s0-.16-.07-.26a1.3,1.3,0,0,0-.1-.23c-.52-1.17-.14-.32-.26-.58h0l0,0,.08,0,.11-.08c.06,0,.08-.08.08-.1s-.11,0-.3,0l-.15,0h0l.38.84v0l0,.06a1.29,1.29,0,0,1,.1.33.32.32,0,0,1,0,.14c0,.05,0,0,0,0a.09.09,0,0,1,0,0,3.45,3.45,0,0,1,.61-1.37,3.15,3.15,0,0,0,.22-.3l-.34.48c.09-.14.18-.22.28-.39l.16-.22.11-.12s0-.05-.05-.05-.14-.2-.23-.36a3.68,3.68,0,0,1-.36-1c0-.09,0-.14,0-.2s0-.34,0-.5V235c0-.94,0-2-.06-3.28a14.4,14.4,0,0,0-.91-4.37,11.25,11.25,0,0,0-1.3-2.43,10.93,10.93,0,0,0-1.91-2,26.5,26.5,0,0,0-2.91-2,4.93,4.93,0,0,1-.49-.35c-.06-.08-.13-.14-.18-.22a5.85,5.85,0,0,1-.65-2.76c-.11-1.53,0-3.37-.11-5.61a37.9,37.9,0,0,0-.94-6.66c-.49-2.08-1.07-4-1.63-5.89s-1.1-3.6-1.53-5.29a25.2,25.2,0,0,1-.82-4.75,13.41,13.41,0,0,1,.3-4.11,14.15,14.15,0,0,1,1.72-3.84c1.64-2.64,4.19-5.32,6.87-8.48.65-.78,1.39-1.69,2-2.61a30.59,30.59,0,0,0,1.87-2.9,25,25,0,0,0,2.75-6.81,20.73,20.73,0,0,0,.4-4,18.06,18.06,0,0,0-.31-2.93,6.94,6.94,0,0,0-.18-.78c-.05-.13-.05-.13-.06-.13l0-.07a.11.11,0,0,1,0-.08c0-.07-.07.09.25-.5.45-.85,1-1.73,1.5-2.64,1.08-1.83,2.35-3.76,3.79-5.74q1.1-1.49,2.31-3l.62-.76.32-.38.61-.71c.92-1,1.81-2,2.78-3l1.53-1.51c.52-.5,1-1,1.61-1.53l3.51-3.15,7.12-6.34-.89,0c-.3,0-.71,0-1.06,0h-2.19l-4.4,0-8.85,0-4.44,0h6.53l0,0,.07,0c.48-.32,1-.7,1.46-1.09l.52-.43,1.3-1.06,2.5-2.11c1.61-1.39,3.18-2.74,4.67-4,5.92-5.22,10.75-9.4,13.83-11.8l1.27-1c1.93-1.53,4-3.06,6.11-4.58s4.28-2.9,6.49-4.18a84.67,84.67,0,0,1,12.62-6A55.83,55.83,0,0,1,266,83.76c-1.74,0-3.37,0-4.79.14a76.7,76.7,0,0,1,9.07-1c2-.13,3.27-.07,4-.14s.79-.19.54-.37A17.25,17.25,0,0,0,270.71,81c-1.17-.2-1-.41-.92-.63s-.09-.51-2-.56a32.14,32.14,0,0,1,3.41,0c.51,0,1,0,1.58.08l1.84.2a12.08,12.08,0,0,0-3.85-.37c-1.91-.09-3.62.09-2.68-.25l1,0,1,0,2.11,0c.71,0,1.42.11,2.13.16a16.12,16.12,0,0,1,2.09.25,5.34,5.34,0,0,0-1.86-.47,24.83,24.83,0,0,0-3.2-.33c-2.23-.16-4.29,0-4.09-.26a18.43,18.43,0,0,1,1.87,0l2.68.21c1.83.18,3.53.48,3.84.22a5.51,5.51,0,0,0-1.47-.27,21.66,21.66,0,0,0-2.61-.23c1.08,0,2.1.12,3,.17L276,79l1.22.17c.77.12,1.45.2,2,.27s1,.17,1.35.2c.66.08.82,0,.33-.29a9,9,0,0,0-1.23-.57c-.6-.2-1.38-.43-2.37-.7,2.83.41,6.57,2,9.35,3.09l0,0a42.79,42.79,0,0,0-5.09-2,38.17,38.17,0,0,1,4.81,1.8c-.22-.17-.47-.36-.74-.55A22,22,0,0,0,282,79c.54.17,1.1.31,1.63.52l1.59.65a16.58,16.58,0,0,0-2.59-1.49,35.25,35.25,0,0,0-10-2.78c-9.12-.65-18,1.41-26.08,4.69a78.93,78.93,0,0,0-11.62,5.94A110,110,0,0,0,224.48,93.88Z"/><path class="cls-4" d="M292.37,94.37c0,.1,0,.23-.14.22-.54-.07-.85-.53-1.4-.59l-.08.15-1.17-.6c-.79-.2-1.59-.38-2.38-.53,0,.06,0,.12-.08.12a10.19,10.19,0,0,1-1.24-.35l-.21,0a.22.22,0,0,0-.11.1l-.56-.18c-2.37-.23-4.79-.35-7.39-.39-.57.06-1.1.11-1.68.12a21.51,21.51,0,0,0-2.66,0c.09.27-.33.55-.68.84s-.62.59-.38.83c-.45.1-1.07.36-1,.53a2.58,2.58,0,0,1,.09.81,2.2,2.2,0,0,0,0,.79s0,0,0,.07a.14.14,0,0,1-.06.08c0,.05-.06.14,0,.16s.08.06.12,0,.1,0,.14-.06a.43.43,0,0,1,.25,0s0,0,0,0a1.07,1.07,0,0,1,.28-.18,5.16,5.16,0,0,1,1.73-.48,8.83,8.83,0,0,1,2.18,0c.92.12,1.84.27,2.77.44a37.82,37.82,0,0,1,5.68.94,54.92,54.92,0,0,1,6.23,1.76l.19,0a22.15,22.15,0,0,0,3.62,1c.49,0,1,0,1.51.07q-.27-.26-.48-.48a3.49,3.49,0,0,0,1.13.34c1.07.15.62-.33.38-.84-.21-.27.26-.37-.11-.7l.77.32c.1-.14-1-.29-.68-.46a6.06,6.06,0,0,0,1,.34c0-.25-1.05-.49-.92-.68.18,0,.77.61.93.39,0,0-.28-.18-.44-.24,1,.29,1.62.27.85-.36a11,11,0,0,0,1,.51h0c-.16-.07-.41-.23-.56-.3l.54.24-.05-.15a2.46,2.46,0,0,0-.39-.22l.36.15a2.32,2.32,0,0,0-.22-.36,5.21,5.21,0,0,0-.93-.84A54,54,0,0,0,292.37,94.37Z"/><path class="cls-4" d="M297.56,109.61c0,.1.06.21-.08.24-.45,0-.76-.34-1.2-.3l-.06.15-1-.37c-.66-.06-1.32-.11-2-.14,0,.06,0,.12-.06.13a6.7,6.7,0,0,1-1-.16H292a.21.21,0,0,0-.08.12,4.8,4.8,0,0,1-.47-.1l-3,.13c-.48,0-1.07,0-1.63.11a14.06,14.06,0,0,0-1.69.25c-.48.16-.95.36-1.39.48-.66.14-1.54.24-2.2.44.14.26-.15.59-.37.92s-.35.66-.08.85c-.34.16-.77.49-.67.64a5.81,5.81,0,0,1,.58,1.43c0,.09-.06.14-.08.25s-.08.18,0,.21.16,0,.26,0a.28.28,0,0,1,.26,0c.07-.22.1-.22.27-.4a3.34,3.34,0,0,1,1.07-.59,9.66,9.66,0,0,1,3.75-.47,28.33,28.33,0,0,1,4.75.32c2.22.24,4.54.55,5.48.73h.18a13,13,0,0,0,3.19.19l1.28-.3c-.18-.12-.34-.24-.48-.35a2.32,2.32,0,0,0,1,0c.92-.13.45-.48.17-.91-.23-.21.14-.43-.22-.65l.69.11c.05-.16-.86,0-.64-.27a3.92,3.92,0,0,0,.84.08c-.06-.23-.94-.2-.87-.41.16,0,.74.39.82.13,0,0-.25-.1-.39-.12.86,0,1.36-.17.62-.56a7,7,0,0,0,.93.2h0c-.14,0-.37-.12-.5-.14l.48.08-.07-.12a1.65,1.65,0,0,0-.36-.11l.32,0a2.17,2.17,0,0,0-.24-.29,4.46,4.46,0,0,0-.9-.56C300.89,110.15,299.23,109.85,297.56,109.61Z"/><path class="cls-4" d="M314.12,122.19c0,.1.1.22-.11.24-.64,0-1.11-.39-1.76-.38l-.06.15-1.5-.42c-1-.09-1.93-.16-2.89-.21,0,.06,0,.12-.07.13a12.8,12.8,0,0,1-1.52-.18H306a.24.24,0,0,0-.11.12l-.69-.1c-1.42,0-2.84.09-4.3.17a44.31,44.31,0,0,0-4.59.43c-.66.17-1.32.36-1.95.49-.94.16-2.17.23-3.09.46.14.25-.33.6-.72,1s-.7.72-.4.91c-.55.17-1.31.56-1.28.71.14.52,0,1.16-.79,2.17-.32.35-1,.79-1,1s.67-.25.61.06c2.23-2.41,6.35-3.2,10.72-3.07a18.25,18.25,0,0,1,2.54,0c1.25,0,2.81.14,4.4.27,3.18.25,6.48.67,7.82.91l.25,0a31.45,31.45,0,0,0,4.54.44l1.8-.17c-.26-.14-.49-.27-.69-.4a5,5,0,0,0,1.42.16c1.29,0,.64-.43.22-.9-.32-.23.2-.41-.32-.68l1,.19c.08-.15-1.23-.13-.91-.34a9.53,9.53,0,0,0,1.21.18c-.1-.24-1.36-.32-1.26-.53.22,0,1.06.49,1.19.24,0,0-.37-.13-.57-.17,1.23.13,1.95,0,.89-.49a13.6,13.6,0,0,0,1.33.33h0c-.21,0-.55-.16-.74-.2l.7.14-.1-.13a2.4,2.4,0,0,0-.52-.16l.46.09a2.72,2.72,0,0,0-.35-.32,7.56,7.56,0,0,0-1.3-.68C319,123,316.55,122.55,314.12,122.19Z"/><path class="cls-4" d="M308.78,140.77c0,.1.07.22-.11.23-.57,0-1-.4-1.54-.4l-.06.16c-.42-.14-.85-.3-1.3-.43-.86-.07-1.7-.15-2.55-.15,0,.06,0,.12-.06.13a9.28,9.28,0,0,1-1.33-.14l-.23,0c-.06,0-.07.09-.09.13l-.61-.07a54.62,54.62,0,0,0-7.59,1.19,13.29,13.29,0,0,1-1.62.53c-.78.14-1.81.18-2.58.27.2.55-1.61,1.15-1.13,1.66-.5.06-1.25.21-1.26.37,0,.51-.29,1.12-1.49,1.71-.48.19-1.3.18-1.45.32s.73.18.5.4A68.5,68.5,0,0,1,295.36,145a28.06,28.06,0,0,1,5.81-.25,41.06,41.06,0,0,1,6.49.76l.2,0a25.51,25.51,0,0,0,3.74.56l1.53-.06c-.2-.15-.37-.3-.53-.44a3.78,3.78,0,0,0,1.18.24c1.09.08.6-.38.31-.88-.24-.25.22-.39-.19-.68.33.09.49.16.82.26.09-.15-1-.22-.73-.41a7.87,7.87,0,0,0,1,.28c-.05-.25-1.12-.44-1-.62.2,0,.84.56,1,.32,0-.05-.3-.16-.47-.21,1,.23,1.69.16.84-.41a9.82,9.82,0,0,0,1.11.43h0c-.17-.07-.45-.21-.61-.27l.58.2-.06-.14a2.39,2.39,0,0,0-.43-.2l.39.13a2.56,2.56,0,0,0-.26-.34,6.45,6.45,0,0,0-1-.79A41.33,41.33,0,0,0,308.78,140.77Z"/><path class="cls-4" d="M298.33,156.44c0,.1,0,.21-.06.24-.33.06-.54-.3-.86-.25,0,.06,0,.11,0,.16-.24-.09-.48-.21-.73-.32-.47,0-.95-.05-1.42-.05,0,.06,0,.11-.05.13a3.31,3.31,0,0,1-.74-.12l-.13,0a.27.27,0,0,0-.06.12l-.33-.08c-1.42.15-2.86.36-4.41.56a5,5,0,0,1-1,.25,9,9,0,0,1-1.48-.24c0,.58-1.12.74-1,1.34-.3,0-.74-.12-.78,0a1.57,1.57,0,0,1-1.25,1.21c-.31,0-.76-.23-.88-.14s.36.39.17.52c2.27.45,4.5.5,6.81.78a48.6,48.6,0,0,1,7.47.62h.13a6.87,6.87,0,0,0,2.3,0c.3-.1.62-.23.93-.35a3.58,3.58,0,0,1-.34-.33c.3.05.59.1.72,0,.66-.17.33-.5.14-.92-.16-.19.11-.43-.14-.63l.49.08c0-.16-.62,0-.45-.24.18.08.41,0,.6,0,0-.23-.67-.16-.62-.37.12,0,.52.36.59.09,0,0-.18-.08-.28-.1.62,0,1-.23.47-.59a3.55,3.55,0,0,0,.66.17h0c-.11,0-.27-.1-.37-.11l.35,0,0-.12a.8.8,0,0,0-.26-.09l.23,0a1.56,1.56,0,0,0-.16-.28c-.26-.21-.49-.49-.64-.52C300.72,156.83,299.53,156.6,298.33,156.44Z"/><path class="cls-4" d="M263.91,148.77c0,.11.66.1-.34.31-3.12.71-5.78,1.47-8.32,3.54l-.08.27a22.2,22.2,0,0,0-5.26,5.57,28.45,28.45,0,0,0-4.06,13.37c.07-.11.13-.17.12.29a36.84,36.84,0,0,0,.38,7.29c.08.39.13.79.23,1.17a.91.91,0,0,0,.21.4c.23,1.2.49,2.24.73,3.21,1.94,6.3,5.07,12,8.3,17.63l10,17.34c1.55,2.49,3,5,4.54,7.43a20.48,20.48,0,0,0,4.6,5.35,10.87,10.87,0,0,0,6.71,2.4c-.17-.15.39-.24,1.21-.51a8.13,8.13,0,0,0,2.74-1.48,6.58,6.58,0,0,0,1.69-2.14c.26-.59.28-.84-.11-.54a11,11,0,0,0,1.58-3.87,7.5,7.5,0,0,0,.22-2.44,7.69,7.69,0,0,1-.76-2.33c-.32-1.38-.92-3.48-1.76-7.05a28.81,28.81,0,0,1-.59-5,30.71,30.71,0,0,1,.19-3.78c0-.39,0-.37-.1-.13s-.19.78-.29,1.29c-.17,1-.23,2.06-.31,1.17a37.64,37.64,0,0,0,.93,8.3,31.57,31.57,0,0,1,.82,7.08,11.26,11.26,0,0,1-1.75,5.88,4.68,4.68,0,0,1-4.31,2.11,8.42,8.42,0,0,1-5.16-2.56,24.37,24.37,0,0,1-4-5.72l-7.49-13.73c-.9-1.54-3.06-5.37-5.8-10.37s-5.94-11.21-7.42-18a28.48,28.48,0,0,1-.56-10,24.15,24.15,0,0,1,2.86-8.84,17.23,17.23,0,0,1,5.06-5.68,14.17,14.17,0,0,1,4.85-2.2l.95-.21a17.8,17.8,0,0,1,9.33,1,18.62,18.62,0,0,1,4.12,2.21,20,20,0,0,1,3.11,2.81,20.85,20.85,0,0,1,3.89,6.17,23.58,23.58,0,0,0-1-3,29.61,29.61,0,0,1,2.07,5.74c.17.66.26,1.21.37,1.64s.14.75.2,1c.11.44.19.5.25.32a15.34,15.34,0,0,0,.15-2.84c-.19-1.59.58.47.15-2a23.66,23.66,0,0,1,.77,4.5,10.06,10.06,0,0,0-.29-2.56c-.25-1.25-.56-2.36-.27-1.78a30.36,30.36,0,0,1,.85,5.53,12.87,12.87,0,0,0-.2-3.4,24.07,24.07,0,0,1-.47-2.7,16.85,16.85,0,0,1,.57,3,14.73,14.73,0,0,0,.35,2.52,14.12,14.12,0,0,0-.24-2.71,41.32,41.32,0,0,1,.54,6c0,.43.08.52.17.17a12.15,12.15,0,0,0,.27-2.49,30.23,30.23,0,0,1-.69,6.42h0a27,27,0,0,0,.6-3.54,26.88,26.88,0,0,1-.5,3.32l.22-.56a17,17,0,0,0,.42-2.52c-.07.74-.16,1.48-.3,2.22a19.31,19.31,0,0,0,.52-1.87,23.44,23.44,0,0,0-8.12-22.46A22.34,22.34,0,0,0,263.91,148.77Z"/><path class="cls-4" d="M281,171.8c-.09,0-.07.32-.29,0l-.47-.83-.26-.44c-.11-.17-.24-.35-.37-.52a4.21,4.21,0,0,0-2.15-1.52l-.38-.09-.18.14a4.9,4.9,0,0,0-2.37.08,7.21,7.21,0,0,0-1.92.88,8.63,8.63,0,0,0-1.16,1,7.78,7.78,0,0,0-1,1.07c-.3.38-.62.76-.89,1.16l-.74,1.25c.08,0,.14,0,.06.16a28,28,0,0,0-1.2,2.73c-.05.16-.09.32-.14.48a.22.22,0,0,0,.08.2c-.13.48-.25.9-.36,1.3a22.84,22.84,0,0,0,.32,7.79A33.28,33.28,0,0,0,270,194.1l1.63,2.92c.72,1.41,1.55,3.26,2.3,4.62.37-.47,2.54,2.57,2.65,1.61.53.86,1.37,2.13,1.55,2.09.54-.09,1.4.25,3.25,2.12.67.76,1.54,2.08,1.86,2.28.49.33-.61-1.22-.12-.9a67.31,67.31,0,0,1-6.34-9.15,54.65,54.65,0,0,1-2.53-4.94,32.32,32.32,0,0,1-1.85-5.15,18.62,18.62,0,0,1-.8-3.29,19.53,19.53,0,0,1-.14-5.62,11.48,11.48,0,0,1,2.11-5.51,8.2,8.2,0,0,1,.9-1,7.71,7.71,0,0,1,.91-.81,2.7,2.7,0,0,1,.37-.23l.12,0a.27.27,0,0,1,.18,0c.15.09.1,0,.36.49l.15.27a27.36,27.36,0,0,1,2,6.63,24.1,24.1,0,0,1,.49,2.74c.11-.42.22-.81.32-1.18,0,1-.11,1.91,0,2.29,0,2.06.4,1,.91.21.23-.58.41.26.67-.67-.06.69-.12,1-.23,1.71.09,0,.13-.48.19-1s.08-.91.2-.66c-.12.66-.11,1.42-.26,2.1.31-.19.41-2.38.6-2.26,0,.39-.51,1.92-.29,2.1a3.32,3.32,0,0,0,.22-1,20.9,20.9,0,0,0-.16,2.27c0,.34.23.19.57-.78-.13.7-.5,1.64-.67,2.37h0c.11-.36.36-1,.43-1.3-.09.42-.24.82-.35,1.23l.17-.18a8.46,8.46,0,0,0,.32-.93c-.07.28-.16.55-.24.83a4.76,4.76,0,0,0,.44-.64,11.83,11.83,0,0,0,.92-2.46A22.77,22.77,0,0,0,281,171.8Z"/><path class="cls-4" d="M251,234.93c0,.09.15.24-.19.21-1.12-.26-1.9-1.2-2.83-2l-.19,0c-.72-.9-1.41-2.05-2.29-3.3a20,20,0,0,0-1.47-1.67,11.25,11.25,0,0,0-.87-.81,5.86,5.86,0,0,0-.66-.52c-.26-.18-.51-.39-.78-.54a4.68,4.68,0,0,0-3.31-.81,3.87,3.87,0,0,0-2.69,1.82c.11,0,.17-.07,0,.33a5,5,0,0,0-.53,1.48L235,230c0,.15-.07.3-.1.46l0,.31a17.66,17.66,0,0,0-.15,2.55c0,.25,0,.5.06.75s.1.24.14.27c0,.76.11,1.42.16,2,.28,1.64.64,3.21.92,4.76.15.77.26,1.54.34,2.32l.06.54,0,.19a.87.87,0,0,1,0,.42.61.61,0,0,1-.36.39,1,1,0,0,1-.58,0,1.52,1.52,0,0,1-.32-.11,4.66,4.66,0,0,1-.61-.34,10,10,0,0,1-1.24-.88l-1.39-1.15c-.52-.36-1-.76-1.59-1.07a18.43,18.43,0,0,0-3.47-1.66,28.28,28.28,0,0,0-5.37-1.09,37.1,37.1,0,0,0-4.24-.3,30.19,30.19,0,0,0-4.19.29c.23.25-1.15.68-2.38,1.19s-2.3,1-1.66,1.17a16,16,0,0,0-3.92,1.43c-.18.61-1.15,1.49-4.92,3.54-1.5.76-3.94,1.72-4.44,2.07-.78.56,2.14-.65,1.36-.1,5.7-2.66,11.21-5.14,16.91-6a23.74,23.74,0,0,1,8.41.23,16.1,16.1,0,0,1,7.31,3.55c.32.2,1.19,1.11,2.55,2l.55.35c.2.12.38.21.74.4a7.12,7.12,0,0,0,2.14.67,4.12,4.12,0,0,0,4.13-1.83,5.77,5.77,0,0,0,.78-3.58c0-.79-.11-1.58-.21-2.36-.19-1.58-.48-3.13-.71-4.66a25.35,25.35,0,0,1-.37-4.42c0-.35,0-.7.06-1l0-.31,0-.08a.3.3,0,0,1,.16-.27.33.33,0,0,1,.3.08l.06.05.18.15c.22.19.44.41.65.63.85.91,1.62,2,2.44,3.08.41.53.83,1.05,1.27,1.55a15.37,15.37,0,0,0,1.45,1.38,11.85,11.85,0,0,0,2.79,1.67,8.65,8.65,0,0,0,3.09.6,6.58,6.58,0,0,0,2.46-.52,7,7,0,0,0,3.38-3.34,15.35,15.35,0,0,0,1.19-3.49c.25-1,.44-2,.57-2.93a46.5,46.5,0,0,0,.34-5c-.18.76-.37,1.46-.56,2.06a22.19,22.19,0,0,0,.37-4c-.07-3.6-.44-1.56-.91-.24-.25,1-.41-.36-.71,1.13.1-1.08.15-1.63.2-2.72-.13-.13-.12,3.36-.35,2.58a27.48,27.48,0,0,0,.15-3.29c-.19.37-.27,3.74-.5,3.55,0-.58.5-3,.22-3.23a12.47,12.47,0,0,0-.14,1.57,16,16,0,0,0-.15-3.43c-.12-.49-.24-.18-.41,1.31a30.85,30.85,0,0,0,0-3.6h0c0,.54,0,1.49,0,2q0-.93-.06-1.86l-.1.33c0,.46,0,.93,0,1.41l0-1.23c-.07.31-.15.67-.22,1.06-.13,1.46-.44,2.84-.49,3.62a48.24,48.24,0,0,1-1.62,9.32,9.47,9.47,0,0,1-1.48,3.54A1.71,1.71,0,0,1,251,234.93Z"/><path class="cls-5" d="M401.2,164.38c-2.41-1.44-5.86-1-8.31.38a16.11,16.11,0,0,0-5.45,5.87A49.15,49.15,0,0,0,380.7,189c-.54,3.63-.62,7.44,1.06,10.81a11.11,11.11,0,0,0,9.76,6.11l-.82-.82c10.93-7,12.93-20.11,13.59-31.77C404.47,170.06,404.31,166.24,401.2,164.38Z"/><path class="cls-4" d="M404.22,185.7c-.1,0-.26.31-.21-.25.22-1.76.75-3.13.84-4.89l-.15-.15c.22-1.34.42-2.74.6-4.17.12-2.56.44-5.58-.92-8.78,0,.1-.05.16-.21-.14a8.49,8.49,0,0,0-3.87-4,7.64,7.64,0,0,0-.87-.32.51.51,0,0,0-.36,0,11,11,0,0,0-2.39-.44,11.63,11.63,0,0,0-6.53,2,15.7,15.7,0,0,0-4.42,4.72,51,51,0,0,0-5.13,11.27c-.48,1.74-.85,3.49-1.19,5.18a46.5,46.5,0,0,0-1.29,8.2c.3-.19.46,1.25.82,2.52s.88,2.34,1,1.71a10.93,10.93,0,0,0,.83,2.39,3,3,0,0,0,.82,1.18,3.15,3.15,0,0,1,1.4.62,22,22,0,0,0,3.32,1.82,12.69,12.69,0,0,0,2.15.77,4.76,4.76,0,0,0,1.59.16c.23,0,.21-.08.07-.12l-.55-.15c-.41-.11-.8-.25-.45-.29a8.83,8.83,0,0,1-5.87-3.7,11.89,11.89,0,0,1-1.7-7.25A39.85,39.85,0,0,1,383,185a44.9,44.9,0,0,1,3.21-8.3c.2-.48.58-1.27,1.13-2.3a30.57,30.57,0,0,1,2.18-3.5,10.49,10.49,0,0,1,3.43-3.09,7,7,0,0,1,4.61-.66,3.64,3.64,0,0,1,1.76,1,4.17,4.17,0,0,1,1,1.85,16.26,16.26,0,0,1,.23,5.36,72.91,72.91,0,0,1-1,8.64l-.1.64a48.27,48.27,0,0,1-3.4,11.24,21.93,21.93,0,0,1-.94,2,16.45,16.45,0,0,1-1.11,2l.74-.7.62-.68a19.88,19.88,0,0,1-1.31,1.77l-.52.7a3.7,3.7,0,0,0-.38.48c-1,1.29-1.24,1.61-1,1.57a7,7,0,0,0,1.55-.82c.77-.59.1.56,1.23-.46-.71.83-1.12,1.2-1.89,2,0,.23,2.28-2.5,1.94-1.78-.36.39-.76.79-1.14,1.22l-.57.63-.63.56a2.42,2.42,0,0,0,.65-.41c.28-.25.6-.59.92-.9l.85-.84c.2-.22.34-.35.36-.28a9.14,9.14,0,0,1-1.3,1.29c-.27.25-.52.49-.71.7s-.34.34-.33.42.22-.12.48-.35l.73-.75-.82.9-.74.72a12.85,12.85,0,0,0-.93,1c-.36.38,0,.36,1.32-.61a38,38,0,0,1-3.15,2.29h0l1.8-1.19-1.65,1.15.35-.11c.43-.26.86-.53,1.29-.83l-1.11.77c.33-.12.7-.28,1.09-.46.74-.37,1.37-.86,2-1.24a7.79,7.79,0,0,0,1.39-1.11,29.07,29.07,0,0,0,6-8.81A42.61,42.61,0,0,0,404.22,185.7Z"/><path class="cls-4" d="M357.45,170c0,.09.31.3-.28.18-1.87-.43-3.29-1.11-5.17-1.51l-.17.12c-1.42-.43-2.9-.92-4.42-1.34-2.84-.64-5.66-1.3-8.49-1.81.06.07.08.13-.2.1-1.19-.21-2.8-.62-4.48-1l-.75-.11a.43.43,0,0,0-.29.07l-2.07-.43c-8.35-1.25-16.86-2.19-26.1-2.84-2,0-3.93-.1-5.81-.21l-9-.79c.37.59-6.25.51-5,1.16a25.42,25.42,0,0,0-4.66-.07c-.44.49-1.85,1-6.63,1.16-1.87.05-4.74-.19-5.4-.1-1,.15,2.43.38,1.39.52,6.93.11,13.73.4,20.54.78s13.62,1,20.55,2c1.19.06,4.06.45,7.83.94s8.43,1.3,13.17,2.21c9.49,1.76,19.27,4.29,23.23,5.4l.72.2,6.88,1.93c2.31.67,4.55,1.28,6.4,1.74l5.17,1.22-2-1c1.71.58,3.42,1.14,4.11,1.28,3.7,1.05,1.75.05.47-.82-.95-.51.51-.3-1-1,1.15.37,1.71.6,2.85,1,.19-.12-3.54-1.15-2.66-1.12,1.08.42,2.34.78,3.48,1.18-.32-.35-3.92-1.47-3.68-1.6.64.14,3.11,1.4,3.42,1.22a12.81,12.81,0,0,0-1.65-.66c3.54,1.17,5.57,1.61,2.45.19,1.12.41,2.65,1.07,3.85,1.46h0l-2.12-.83,2,.73-.31-.23c-.49-.21-1-.41-1.51-.6l1.33.48c-.3-.2-.65-.42-1.05-.64-1.52-.73-3-1.51-3.81-1.82C371.58,174.23,364.55,171.91,357.45,170Z"/><path class="cls-4" d="M416.87,208.61c.09,0,0-.44.34.09a24.33,24.33,0,0,1,1.23,2.53,23.45,23.45,0,0,0,1.13,2.57l.2.06.8,2.22c.23.76.47,1.53.71,2.31.46,1.41.92,2.82,1.25,4.27.18.71.36,1.43.47,2.16l.44,2.32c0-.1.08-.15.17.19.17.72.38,1.51.53,2.24a5,5,0,0,1,.14,1.79,1.59,1.59,0,0,1,0,.28.2.2,0,0,0,.08.14,2.06,2.06,0,0,1-.81.71,7,7,0,0,1-2.44.88,17.48,17.48,0,0,1-3.07.26c-2.18,0-4.52-.24-7.11-.06a14.82,14.82,0,0,0-3.88.81,11.19,11.19,0,0,0-3.61,2,8.52,8.52,0,0,0-1.46,1.64,7.19,7.19,0,0,0-.9,2.07,9.9,9.9,0,0,0,0,4.2c.45,2.12,1,4.06.13,5.64a5.77,5.77,0,0,1-3.43,2.61,19.58,19.58,0,0,1-4.61.88c.26.26-1.39.63-2.94.92s-3,.54-2.26.81a39.7,39.7,0,0,0-5.09.23c-.44.5-2,1-7.16,1.44-2,.1-5.1.06-5.79.23-1.1.23,2.6.17,1.5.4,3.69-.17,7.43-.15,11.2-.19s7.51-.08,11.48-.49a18.68,18.68,0,0,0,6.28-1.72,9.2,9.2,0,0,0,3-2.44,8,8,0,0,0,1.6-3.81,13.27,13.27,0,0,0-.09-3.5c-.14-1-.29-1.88-.33-2.62a4.42,4.42,0,0,1,.2-1.77,3.36,3.36,0,0,1,.95-1.33,5.69,5.69,0,0,1,2-1.24,11,11,0,0,1,4.39-.76c1.91,0,4.2.31,6.94.29a17.38,17.38,0,0,0,4.34-.55,10,10,0,0,0,2.35-1,6.5,6.5,0,0,0,2.19-2,5.8,5.8,0,0,0,1-3,9.28,9.28,0,0,0-.26-2.54c-.15-.73-.33-1.38-.46-2s-.2-1-.33-1.77a50.59,50.59,0,0,0-1.8-7.57,66,66,0,0,0-4.39-10.28l-.4-.74a104.93,104.93,0,0,0-8.32-12.84c-1.19-1.51-2.44-3-3.67-4.52.43.8.83,1.54,1.16,2.19-1.11-1.64-2.23-3.26-2.74-3.82-2.6-3.3-1.48-1.19-.88.36.52,1-.59-.09.3,1.51l-1.85-2.71c-.22,0,2.37,3.27,1.63,2.68-.67-1.08-1.56-2.18-2.3-3.26.08.5,2.53,3.78,2.23,3.73-.44-.55-1.86-3.19-2.23-3.25a14.66,14.66,0,0,0,1.05,1.62c-2.38-3.27-3.86-5-2-1.75-.73-1.06-1.66-2.62-2.46-3.72h0l1.35,2.08-1.31-1.91c.05.12.09.26.14.39.3.49.61,1,.94,1.48l-.86-1.27c.14.37.32.78.53,1.22.89,1.61,1.68,3.18,2.24,4C408.59,195.33,413.16,201.84,416.87,208.61Z"/><path class="cls-4" d="M397.38,283.11c.1,0,.09-.4.31.13a20.56,20.56,0,0,1,.76,4.85l.17.11a12.3,12.3,0,0,1-.57,3.89,8.94,8.94,0,0,1-3.89,5.53c.08,0,.14.05-.06.19a10.81,10.81,0,0,1-3.65,1.41l-.65.17a.43.43,0,0,0-.23.16,15.26,15.26,0,0,1-1.9.19,22.19,22.19,0,0,1-5.9-.22c-1-.17-2.17-.39-3.4-.49a10.73,10.73,0,0,0-3.93.35,9.61,9.61,0,0,0-3.45,2,20.51,20.51,0,0,0-2.48,2.67c-.73.91-1.42,1.81-2.14,2.63a18.86,18.86,0,0,1-2.4,2.23,19.42,19.42,0,0,1-4.86,2.93,54.05,54.05,0,0,1-8.84,2.34c.53.45-6,2.21-4.56,2.49-.9.21-2,.49-2.9.77a4.44,4.44,0,0,0-1.56.67,3.69,3.69,0,0,1-1.15,1.33,21.23,21.23,0,0,0-3.15,3,6.26,6.26,0,0,0-1.13,1.95,4,4,0,0,0-.15.89,3.77,3.77,0,0,0,.07.56c.08.26.12.23.13.06s.07-.33.08-.52c.1-.37.2-.69.27-.39a3.69,3.69,0,0,1,.51-1.43,7.29,7.29,0,0,1,1.24-1.42,13.34,13.34,0,0,1,3.76-2.24,37.9,37.9,0,0,1,4.68-1.37c1.66-.4,3.37-.77,5.1-1.15a52.48,52.48,0,0,0,10.63-3.25,24.74,24.74,0,0,0,5.09-3.11,27.48,27.48,0,0,0,2.21-2.09c.66-.72,1.26-1.43,1.83-2.09a19.86,19.86,0,0,1,1.83-2.06,5.58,5.58,0,0,1,3.1-1.66c1.35-.2,3.27.27,5.75.73a24.83,24.83,0,0,0,8,.09,17.15,17.15,0,0,0,7.85-3.22,13.54,13.54,0,0,0,4.68-6.77,17.52,17.52,0,0,0,.65-6.72,26.15,26.15,0,0,0-.81-4.56c-.07-.27-.14-.54-.23-.8a32.21,32.21,0,0,0-1.33-3.65c-.53-1.23-1.11-2.36-1.6-3.41a15.49,15.49,0,0,1-1.09-2.93,6.77,6.77,0,0,1-.2-1.24,8.83,8.83,0,0,1,0-1.26,12.31,12.31,0,0,1,.31-2.33,9.34,9.34,0,0,1,.31-1.1c.07-.16.12-.3.27-.64a6.92,6.92,0,0,0,.28-.88,6.47,6.47,0,0,1-.36.75l-.22.34-.15.21a8.75,8.75,0,0,0-.5.8,9.6,9.6,0,0,1,.49-1.07,5.1,5.1,0,0,0,.58-1.52,5.31,5.31,0,0,0-1-4.39c-.27-.29-.37-.27-.34-.11a7.31,7.31,0,0,1,.4,2.19c0,.58-.13.49-.23.48s-.16.08-.29.87a4.27,4.27,0,0,0-.11-1.43,4.43,4.43,0,0,0-.57-1.32,14.35,14.35,0,0,1,.56,1.51c.19.78.05,1.5,0,1.1a4.09,4.09,0,0,0-1.16-3.1,8.33,8.33,0,0,1,.84,1.83c.23.84.06,1.63,0,1.52a5.17,5.17,0,0,0-.06-1.67c-.17-.68-.56-1.23-.73-1.22s.11.21.26.48a4.73,4.73,0,0,1,.36.87,3.4,3.4,0,0,0-.49-1,3.68,3.68,0,0,0-.3-.39l-.37-.4c-.46-.5-.82-.89-1-1.1-.44-.43-.36,0,.65,1.48a24.14,24.14,0,0,1-2.44-3.74v0a19,19,0,0,0,1.26,2.17,16.36,16.36,0,0,1-1.23-2,4.19,4.19,0,0,0,.1.42,12.4,12.4,0,0,0,.91,1.56c-.3-.43-.58-.88-.85-1.34a9.52,9.52,0,0,0,.51,1.29c.46.83,1,1.61,1.35,2.23a2.72,2.72,0,0,1,.33.62c.05.16.1.29.14.4a2.34,2.34,0,0,1,0,1.36,2.83,2.83,0,0,1-.11.31c-.06.13-.06.1-.24.45a11.7,11.7,0,0,0-.71,1.6,15.81,15.81,0,0,0-.81,3.2,15,15,0,0,0-.15,1.69,10.86,10.86,0,0,0,.11,1.82,22.19,22.19,0,0,0,2.06,6c.41.86.76,1.63,1.08,2.44S397.14,282.29,397.38,283.11Z"/><path class="cls-4" d="M325.65,296.29c-.09.07.65.73-.62-.14-2-1.37-3.79-2.48-5.55-3.59s-3.49-2.17-5.49-3.27l-.36,0-9.39-5.68c-6-3.4-12.05-6.75-18.13-9.94.12.13.17.22-.44-.08L276,268.47l-1.64-.78a1.89,1.89,0,0,0-.65-.19l-4.49-2.27a292.48,292.48,0,0,0-28.38-11.62,209.7,209.7,0,0,0-31.09-8.29l-7-1a25.54,25.54,0,0,0-7-.23,10.28,10.28,0,0,0-5.27,2,6.59,6.59,0,0,0-1.89,2.47,8,8,0,0,0-.6,3,24.67,24.67,0,0,0,.15,2.9c.1.92.11,1.82.16,2.7a39.36,39.36,0,0,1-.21,5.07c.36-.46.22,3.22-.52,6.58-.33,1.69-.83,3.27-1.07,4.29s-.35,1.41.11.73a46.36,46.36,0,0,1-3.3,6.37c-.59.95-1.18,1.76-1.57,2.38a9.12,9.12,0,0,0-.72,1.08,10.46,10.46,0,0,1-2.12,3.59,29.21,29.21,0,0,1-3.36,3.54,32.74,32.74,0,0,1-2.64,2.16c-1,.73-2,1.45-3.06,2.31a18.11,18.11,0,0,0-4.64,4.74,3.11,3.11,0,0,0-.19,3.28c.32.54.33.47.19.1a3.06,3.06,0,0,1-.15-.53,1.7,1.7,0,0,1-.1-.59,2.21,2.21,0,0,1,.16-1c.07-.21.11-.22.1.12a7.84,7.84,0,0,1,2.55-3.77,36.7,36.7,0,0,1,4.58-3.54l.63-.42.67-.48,1.36-1c.88-.67,1.71-1.39,2.56-2.1a43.11,43.11,0,0,0,14.06-28.86c.13-1.09.07-2.19.11-3.29s-.11-2.2-.17-3.3c-.24-2.13-.38-3.85.09-4.83a3.06,3.06,0,0,1,1.05-1.32,5.78,5.78,0,0,1,1.92-.86,15.38,15.38,0,0,1,5.26-.26c.47,0,.94.1,1.41.17l1.51.26,3,.52,3,.52,3,.66c2,.47,4,.83,6,1.38l6,1.59c1.37.37,3.7,1.06,6.78,2,1.54.45,3.24,1.07,5.11,1.69l2.91,1c1,.36,2,.76,3.09,1.16A301.79,301.79,0,0,1,271,271.1C281.37,276.23,291.74,282,300.6,287c4.43,2.52,8.49,4.87,12,6.9s6.44,3.71,8.39,5l1.41,1a20.58,20.58,0,0,1,5.36,5.33,16.54,16.54,0,0,1,2.37,7.24,47.73,47.73,0,0,1,0,8c-.16,2.68-.31,5.21-.45,7.5-.18,4.19-.37,8.47-.55,12.73.25-1.95.5-3.77.71-5.36-.36,4.32-.72,8.64-.74,10.3-.49,9.22.21,4,.89.53.37-2.53.36.93.85-3-.24,2.87-.36,4.31-.59,7.19.13.35.62-8.87.73-6.85-.29,2.76-.43,5.87-.67,8.75.3-1,.87-10,1.06-9.5-.08,1.56-.94,8.06-.72,8.64,0,.11.29-2.77.41-4.21-.63,8.87-.76,13.77.18,5.71-.23,2.81-.66,6.76-.86,9.74v0c.13-1.47.37-4,.5-5.39l-.42,5.05c.06-.27.12-.57.18-.87.14-1.26.26-2.52.37-3.84l-.27,3.36c.15-.83.31-1.79.48-2.84.49-4,1.05-7.77,1.23-9.93q1.11-13.06,2.24-26.16c.34-4.39.69-9.09-.56-13.9a18.82,18.82,0,0,0-3.27-6.75A25.79,25.79,0,0,0,325.65,296.29Z"/><path class="cls-4" d="M305.29,368.05c.1,0,.31-.71.19.49-.21,1.88-.49,3.56-.74,5.25l0,.15V374h0l0,0,0,.05s0,.07-.06.06a1.74,1.74,0,0,1,.05.22l-.2-.18s0,0-.06-.06l-.44-.29-.87-.62q-1.74-1.25-3.45-2.69a163.36,163.36,0,0,1-12.26-11.28c.06.14.07.23-.34-.15-1.7-1.62-4-3.94-6.37-6.3l-1.09-1c-.3-.24-.41-.27-.48-.28l-3-2.89c-6.12-5.57-12.43-11.06-19.23-16.29-3.39-2.62-6.9-5.19-10.56-7.64s-7.46-4.85-11.45-7.07c-1.69-.95-3.44-1.78-5.14-2.65s-3.44-1.65-5.13-2.41A132.62,132.62,0,0,0,207.94,306c.15.2-.52.13-1.58-.06l-1.82-.35-2.08-.36c-2.79-.52-5.4-.72-4.18-.21a50.22,50.22,0,0,0-9-1.29,3.9,3.9,0,0,1-1.08.26l-2.21.19c-1.95.11-4.94.1-9.53.46-1.8.06-4.07.3-6.06.45s-3.65.5-4.27.64c-2,.47,4.66-.37,2.71.09a84.08,84.08,0,0,1,9.89-.76c1.65,0,3.3,0,4.94.1s3.29.16,4.92.38a101.2,101.2,0,0,1,19.31,4,130,130,0,0,1,35.65,18c1.94,1.26,6.58,4.52,12.38,9.21s12.72,10.87,19.59,17.46c3.43,3.29,6.86,6.67,10.18,10s6.63,6.54,10,9.29a61.14,61.14,0,0,0,5,3.74c.41.28.82.55,1.24.81.64.41,1.43.87,2.12,1.24q2.13,1.17,4.16,2.23l.25.13c.06.05,0,0,.05-.07l0-.14.07-.55c0-.37.09-.73.13-1.09.09-.71.18-1.41.26-2.1.16-1.26.3-2.46.44-3.59.16-1.35.31-2.53.45-3.53.06-.49.12-1,.19-1.46,1.19-8.74,3.27-19.25,4.93-26.54.71-3.36,1.46-6.77,2.31-10.14-.54,1.52-1,2.93-1.49,4.16,1-3.41,2-6.79,2.33-8.12.5-1.8.87-2.78,1.07-3.32s.18-.63,0-.47a13.15,13.15,0,0,0-1.85,3.16c-.79,1.95-.2-.84-1.34,2.25a36.09,36.09,0,0,1,2-5.62,11.66,11.66,0,0,0-1.3,3.14c-.49,1.58-.93,3-.82,2.17.76-2.13,1.27-4.73,2.79-6.79a5.48,5.48,0,0,0-1,1.4,18,18,0,0,0-1.11,2.61,20.29,20.29,0,0,1-1.19,3.3c.17-.63.7-2.19,1.27-3.69s1.32-2.86,1.35-3.13a5.53,5.53,0,0,0-.69,1.15,19.5,19.5,0,0,0-.86,2.14,14,14,0,0,1,2.25-4.53,7.28,7.28,0,0,1,2.57-2c.6-.27.72-.36.17-.26a5.63,5.63,0,0,0-1.28.48,6.6,6.6,0,0,0-.95.62,7.75,7.75,0,0,0-1,.94,7.58,7.58,0,0,1,1.76-1.55,6.87,6.87,0,0,1,2.46-.91,6,6,0,0,1,2.73.15,4.87,4.87,0,0,1,2.31,1.47v0a4.91,4.91,0,0,0-2.72-1.6,6.09,6.09,0,0,0-2.83.07,6.22,6.22,0,0,1,2.69-.12,4.86,4.86,0,0,1,2.61,1.31,3.7,3.7,0,0,0-.78-.74,5.69,5.69,0,0,0-4.21-.69,6,6,0,0,1,3.72.37,5.77,5.77,0,0,0-3.22-.7,7.43,7.43,0,0,0-3.12,1,8.44,8.44,0,0,0-2.25,2,13.1,13.1,0,0,0-2.06,3.63c-.68,1.85-1.16,3.51-1.72,5.26s-1.06,3.47-1.55,5.22q-1.5,5.23-2.75,10.55C307.65,353.72,306.31,360.87,305.29,368.05Z"/><path class="cls-4" d="M347.5,331.81c.08.06.29-.08.13.25-.55,1-1.38,1.63-1.9,2.69l.1.16-1.62,2.31c-.8,1.59-1.62,3.16-2.27,4.8.08,0,.13,0,.08.15-.26.68-.75,1.57-1.14,2.54l-.14.44a.28.28,0,0,0,.05.21l-.51,1.17a70.8,70.8,0,0,0-2.94,15.6c0,1.22,0,2.43-.06,3.5-.06.84-.16,1.78-.21,2.73s-.18,1.88-.18,2.69c.58-.22.84,3.71,1.43,2.91a10.48,10.48,0,0,0,.26,2.73c.48.22,1.12,1,1.68,3.71.22,1.06.25,2.74.4,3.1.25.57.14-1.44.39-.87a70.48,70.48,0,0,1,.54-23.62,40.72,40.72,0,0,1,.88-4.48,65.31,65.31,0,0,1,5.75-14.69c.6-1.07,1.19-2,1.67-2.87s1-1.49,1.32-2l.23-.37c.34-.53.77-1.09,1.22-1.84a8,8,0,0,0,1.09-2.78,6.25,6.25,0,0,0-.34-3.16,6.72,6.72,0,0,0-.62-1.23,10.49,10.49,0,0,0-.69-.92,17.92,17.92,0,0,0-2.67-2.23c.29.42.55.81.77,1.18a16,16,0,0,0-1.86-1.77c-.84-.7-1.06-.8-1.1-.59a4.44,4.44,0,0,0,.35,1.16c.32.57-.47.14.1,1-.5-.51-.75-.78-1.22-1.33-.2.07,1.59,1.57,1,1.39-.44-.54-1.07-1-1.52-1.63,0,.39,1.66,2,1.42,2-.32-.23-1.21-1.68-1.49-1.65-.07,0,.42.6.67.87-.82-.79-1.42-1.53-1.73-1.78s-.32,0,.26,1.05a11.39,11.39,0,0,1-1.34-2.58h0c.07.21.18.51.29.8a6.11,6.11,0,0,0,.35.72c-.12-.22-.25-.44-.36-.67l-.29-.73a2.71,2.71,0,0,0,0,.29,4.75,4.75,0,0,0,.47,1.11,6.83,6.83,0,0,1-.46-.94,3.6,3.6,0,0,0,.17.92,10.12,10.12,0,0,0,1.42,2.64c.8.91,1.59,1.68,2.25,2.41a6.6,6.6,0,0,1,1.34,1.92,1.72,1.72,0,0,1,.1.65,1.45,1.45,0,0,1-.14.66A16,16,0,0,1,347.5,331.81Z"/><path class="cls-4" d="M407.68,230.8c0,.1.09.21-.09.25-.56.06-1-.29-1.57-.18l0,.16c-.44-.06-.9-.12-1.37-.16-.85.11-1.61.27-2.28.41,0,.06,0,.11,0,.14a4.13,4.13,0,0,1-1,.07l-.16,0a.27.27,0,0,0-.05.13,2.46,2.46,0,0,1-.41,0,5,5,0,0,1-2.41-.11,8.35,8.35,0,0,1-2.63-1.43,5.63,5.63,0,0,1-1.18-.85,10.18,10.18,0,0,1-1.18-1.9c-.47.41-1.47-1-1.85-.47-.2-.46-.39-1.19-.56-1.19a1.19,1.19,0,0,1-.84-.33,2.58,2.58,0,0,1-.71-1.71,3.34,3.34,0,0,1,.25-1.24,7.18,7.18,0,0,0,.33-.85c0-.16-.15-.08-.34.16s-.35.43-.35.19a6.87,6.87,0,0,0-.18,4.18,11.68,11.68,0,0,0,1.35,3.09,19.19,19.19,0,0,0,4,4.79,17.07,17.07,0,0,0,2.29,1.29,8.85,8.85,0,0,0,2.09.67,9.16,9.16,0,0,0,2.38.17c1.53-.08,2.82-.36,3.78-.45a11.81,11.81,0,0,1,2.22,0h.17c1,.08,2.22.26,3.12.28.42,0,.86,0,1.31-.06l-.42-.44a3,3,0,0,0,1,.27c.95.13.6-.33.39-.84-.19-.26.26-.37-.09-.69.3.12.44.19.73.32.1-.14-.94-.29-.63-.46a8.18,8.18,0,0,0,.91.35c0-.26-1-.51-.88-.69.19,0,.73.62.9.4,0,0-.27-.18-.42-.25,1,.31,1.59.35.86-.33.3.14.67.46,1,.58h0c-.15-.09-.39-.28-.53-.35l.52.28a.83.83,0,0,0,0-.15,2.55,2.55,0,0,0-.38-.26l.35.19a1.92,1.92,0,0,0-.19-.38c-.35-.37-.67-.8-.92-.9A17,17,0,0,0,407.68,230.8Z"/><path class="cls-4" d="M385.57,224.53c.09,0,.24-.1.21.17-.14.84-.63,1.41-.73,2.23l.14.09-.67,1.8c-.25,1.15-.51,2.23-.82,3.23.06,0,.12,0,.1.11a7.24,7.24,0,0,1-.7,1.5l-.1.26a.18.18,0,0,0,.07.15,5,5,0,0,1-.42.66,32.51,32.51,0,0,1-6.14,8.38,22.16,22.16,0,0,1-1.57,1.87c-.84.82-2,1.74-2.88,2.52.51.3-1.27,2.44-.45,2.46-.52.54-1.31,1.34-1.2,1.5a1.49,1.49,0,0,1,.14,1,3.57,3.57,0,0,1-.23.8,7.94,7.94,0,0,1-.45,1.09,17.68,17.68,0,0,0-1.12,1.72c-.06.41.77-.62.7-.2,2.71-4.34,7.09-7.73,11.56-11.89.33-.42,1.23-1.32,2.36-2.62a29.51,29.51,0,0,0,3.54-5.07,26.09,26.09,0,0,0,2.19-6.07c.43-1.8.77-3.2,1-4l.07-.28c.49-1.68,1.27-3.59,1.82-5,.2-.66.43-1.34.7-2-.26.2-.5.4-.73.59a9.83,9.83,0,0,0,.9-1.47c.74-1.37,0-.87-.7-.61-.4.26-.25-.39-.81.08.3-.41.46-.61.78-1-.1-.16-.88,1.31-.88.87.34-.37.59-.87.93-1.27-.31,0-1.16,1.38-1.28,1.19.12-.27,1.1-1,1-1.24,0-.05-.36.36-.52.57.91-1.32,1.35-2.17.14-1.22.33-.4.91-.88,1.26-1.31h0c-.19.2-.56.51-.72.71.2-.24.42-.47.64-.69l-.2,0a4.79,4.79,0,0,0-.52.49l.42-.46a4.06,4.06,0,0,0-.55.23,10,10,0,0,0-1.54,1.19A25.05,25.05,0,0,0,385.57,224.53Z"/><path class="cls-4" d="M383.21,210.26c.05.1.15.15.08.25-.24.24-.61,0-.84.17l0,.16a2.25,2.25,0,0,1-.73,0,6.81,6.81,0,0,1-1.27.26c0,.06,0,.12,0,.14a1.63,1.63,0,0,1-.71-.05h-.13a.27.27,0,0,0-.06.12l-.34-.09a15.29,15.29,0,0,1-5-.72,7.09,7.09,0,0,1-1.25-.22,18.61,18.61,0,0,1-1.69-.94c-.17.55-1.57.21-1.55.86-.34-.17-.84-.42-.93-.27a1.8,1.8,0,0,1-1.66.83c-.33,0-.76-.35-.9-.28s.34.45.12.55a26.78,26.78,0,0,1,3.49,1.44c1.25.58,2.58,1.26,4.05,1.94a28.91,28.91,0,0,0,5.07,1.28,9.37,9.37,0,0,0,1.91.06,8.69,8.69,0,0,0,1.81-.24,6.59,6.59,0,0,0,1.47-.42l1-.36.16-.1c.51-.27,1.06-.59,1.57-.93a7.39,7.39,0,0,0,1.15-1.17,6,6,0,0,0,.64-1.16,4.71,4.71,0,0,1-.56.15,2,2,0,0,0,.63-.75c.43-.79-.13-.63-.62-.68-.28,0-.25-.37-.62-.25l.46-.43c-.1-.14-.49.61-.55.3.21-.13.33-.39.51-.57-.22-.09-.66.56-.79.38.06-.13.69-.29.53-.51,0-.05-.21.12-.29.21.47-.61.55-1.06-.13-.79a4.35,4.35,0,0,0,.63-.52h0c-.09.08-.28.2-.36.28l.3-.29-.13,0a1.31,1.31,0,0,0-.27.19l.2-.19a2.08,2.08,0,0,0-.35,0,3.43,3.43,0,0,0-.88.27c-.26.21-.51.46-.78.66l-.81.55A11.83,11.83,0,0,1,383.21,210.26Z"/><path class="cls-4" d="M375.76,213.37c0,.1.1.19.05.25s-.39-.14-.54,0l0,.16a4.37,4.37,0,0,1-.49-.12c-.27.08-.53.19-.8.29,0,.06,0,.11,0,.14a1.21,1.21,0,0,1-.45,0l-.07,0a.62.62,0,0,0,0,.13.74.74,0,0,1-.21,0,17.48,17.48,0,0,1-2.6,1.24,2.17,2.17,0,0,1-.62.35,3.2,3.2,0,0,1-1-.13c0,.58-.77.77-.7,1.37-.21,0-.51-.11-.56,0a1.48,1.48,0,0,1-1,1.19c-.24,0-.55-.26-.65-.18s.22.4.06.53a15.42,15.42,0,0,0,5.24.48c.3-.14,1.46-.27,2.66-.5s2.42-.55,2.94-.64l.08,0a3.39,3.39,0,0,0,1.56-.78c.15-.21.29-.45.43-.68a3,3,0,0,1-.36-.16c.2-.07.41-.14.44-.27.32-.42,0-.57-.36-.86-.18-.1-.14-.41-.38-.5l.31-.11c0-.16-.33.24-.36,0,.14,0,.23-.15.35-.19-.13-.19-.44.11-.51-.1s.45.12.36-.14c0-.05-.14,0-.2,0,.33-.24.4-.57,0-.68.11-.05.32,0,.42-.11h0c-.06,0-.18,0-.24,0l.21-.08-.09-.09a.37.37,0,0,0-.18,0l.14,0-.22-.18c-.23-.08-.48-.25-.56-.22Z"/><path class="cls-5" d="M120,357.94s6.91,3.24,29.22,13.31,86.67,7,94.6,18.83,8,25.78,8,25.78-99.61,42.74-141.22-29C110.6,386.9,113.25,359.68,120,357.94Z"/><path class="cls-2" d="M263.67,148.17c3.25-.27,55.9,19.47,46.82,42.73s-16.58,35.65-5.51,48.5c0,0,17.38,15,17.21,18.89s4.38,8.76-.93,15.65S311.9,281,305,280.23c0,0-5.94,1.77-1.42,8.85s-1.72,9.27-1.72,9.27,1.08,9.72.74,12.22,5.69,25.23-6.77,27.87-14.92.28-19.39,1.71-9.09,5.44-11.07,6.32-13.29,3.78-15.86,8.9-11.63,24.42-11.23,31.19-1.58,7.2-15.15,6.57-93.3-16.52-97.2-20.65-2.72-9.36.82-16.28,3.93-35.45,2.16-38.2,8.07-65,22.6-70.85,64.6-13.14,70.18-35.37S263.67,148.17,263.67,148.17Z"/><path class="cls-3" d="M76.6,233.58s24.86-98,46.43-106.66c20.8-8.37,44.48-25.15,90.63-17.34a30.3,30.3,0,0,0,9.92,0c10.06-1.6,33.69-4.36,48.95,1.84,19.81,8.06,42.17,23.26,41.79,54.57s-10.67,36.7-10.67,36.7-10.09-34.21-18.38-36.2-13.66-7.66-18.14-7.06c0,0,9.32,25.42-41.25,41.63,0,0-8.53,23.59-28.81,32.57s-39.88,8.28-45.58,13.57-12,20.57,3.55,39.74,30.7,35.57-7.16,34.68-70.72-42-74.57-64.7C71.86,246.68,76.6,233.58,76.6,233.58Z"/><path class="cls-4" d="M299,213.33c.1,0,.27-.28.19.25-.31,1.68-1,3-1.3,4.8l.14.17a24.4,24.4,0,0,0-.77,4.54,17.5,17.5,0,0,0,.56,4.52,25.57,25.57,0,0,0,1.48,4.08c0-.09.07-.15.2.1.5,1.05,1.16,2.48,1.91,3.88.12.2.24.41.36.6s.19.16.24.17l.93,1.71a89.8,89.8,0,0,0,7.07,9.52c1.3,1.53,2.67,3,4.1,4.51s3,2.87,4.26,4.39a11.44,11.44,0,0,1,2.6,4.15,11.24,11.24,0,0,1,.49,3.87,14,14,0,0,1-.72,3.78c.33-.09.14,1.28-.34,2.52s-1.12,2.31-.49,2a15.66,15.66,0,0,1-2,2,10.77,10.77,0,0,0-1.26,1.06c0,.32-.27.78-1.06,1.45a10.41,10.41,0,0,1-4.69,2,12,12,0,0,1-3.34,0c-1.1-.13-2-.38-2.36-.41s0,.18.67.41,1.28.37.7.38a16,16,0,0,0,10.86-2.17,15.5,15.5,0,0,0,4.2-3.76,15.75,15.75,0,0,0,2.52-5,16.26,16.26,0,0,0-.68-11,18.5,18.5,0,0,0-3-4.58c-1.11-1.31-2.24-2.44-3.25-3.6a60.14,60.14,0,0,1-4.61-5.32,82.19,82.19,0,0,1-6.61-9.91,44.93,44.93,0,0,1-2.83-5.63,15,15,0,0,1-1.16-5.27,21.05,21.05,0,0,1,.55-4.71c.31-1.42.65-2.65.9-3.57l.16-.68A75.18,75.18,0,0,0,305.8,202c.08-1.63.1-3.29.09-4.94-.17.75-.33,1.45-.49,2a26.92,26.92,0,0,0,.28-4c0-3.56-.43-1.56-.91-.24-.24,1-.4-.37-.7,1.13.09-1.09.13-1.64.22-2.74-.14-.13-.16,3.38-.37,2.6.15-1.05.13-2.23.19-3.32-.22.37-.33,3.77-.55,3.58,0-.58.53-3,.26-3.26a12.33,12.33,0,0,0-.17,1.59c.14-3.36-.09-5.21-.51-2.18.07-1.05.23-2.54.22-3.66h0c0,.55-.09,1.52-.13,2l.07-1.9q-.06.15-.12.33c-.05.47-.08.94-.1,1.44l0-1.26c-.1.31-.19.67-.28,1.06-.23,1.49-.56,2.91-.63,3.71A124.11,124.11,0,0,1,299,213.33Z"/><path class="cls-4" d="M303.7,291.78c.1,0,.21-.07.24.08.06.49-.37.78-.47,1.27l.14.1a5.76,5.76,0,0,1-.83,1,7.51,7.51,0,0,1-1.73,1.79c.05,0,.09.08,0,.14a5.36,5.36,0,0,1-1.3.68l-.22.13a.25.25,0,0,0,0,.16,6.07,6.07,0,0,1-.68.23,27.83,27.83,0,0,1-4.4,1.67c-1.61.49-3.27.94-5,1.33a14.94,14.94,0,0,1-2.2.59,27.93,27.93,0,0,1-3.53.14c.19.59-2.41.91-1.89,1.48-.72,0-1.8,0-1.86.12-.18.48-.75,1.05-2.72,1.24-.76,0-1.92-.28-2.19-.2-.44.12,1,.43.52.55a64.87,64.87,0,0,0,16.92-.63c.47-.14,1.64-.37,3.16-.72a31.65,31.65,0,0,0,5.52-1.68,15.22,15.22,0,0,0,2.93-1.65,12,12,0,0,0,2.39-2.33,10.28,10.28,0,0,0,2-4.62c0-.13,0-.27,0-.4a8.12,8.12,0,0,0-.55-3.71,22.92,22.92,0,0,0-1.12-2.36,5.61,5.61,0,0,1-.7-1.38,4.91,4.91,0,0,0-.25.66c-.07-.54,0-1.06,0-1.26,0-.55,0-.7-.2-.7s-.44.22-.7.44-.41-.25-.68.41a4.49,4.49,0,0,1,.33-1.23c-.07-.06-.2.32-.27.68s-.1.67-.21.47a5.81,5.81,0,0,1,.44-1.56c-.15,0-.38.47-.5.9s-.18.83-.29.77a2.7,2.7,0,0,1,.26-.87c.13-.35.3-.66.2-.77a2,2,0,0,0-.35.78,7.26,7.26,0,0,1,.71-1.86c.07-.15.05-.22-.09-.17a2,2,0,0,0-.74.63,3.44,3.44,0,0,1,.82-.92,5.11,5.11,0,0,1,1.06-.66h0a3.84,3.84,0,0,0-1.19.71,4,4,0,0,1,1.08-.73h-.26a2.75,2.75,0,0,0-.87.54,4.25,4.25,0,0,1,.73-.53,2.6,2.6,0,0,0-.79.26,4.52,4.52,0,0,0-1.83,2.14,7.17,7.17,0,0,0-.26,3.2,13.63,13.63,0,0,0,.71,2.58c.26.71.49,1.32.62,1.81A3.86,3.86,0,0,1,303.7,291.78Z"/><path class="cls-4" d="M301.07,326.92c.09,0,.28-.3.19.27a15.81,15.81,0,0,1-2.12,4.56l.07.19a14.34,14.34,0,0,1-3,3.05,16.17,16.17,0,0,1-7.16,3.55c.08,0,.12.1-.14.17a13.9,13.9,0,0,1-4.29.19l-.7,0a.41.41,0,0,0-.28.09,14.82,14.82,0,0,1-2-.47c-1-.24-2.15-.57-3.38-.83a18.55,18.55,0,0,0-1.95-.3,4.24,4.24,0,0,0-1.51.1,5.18,5.18,0,0,0-1.28.54,18.52,18.52,0,0,0-3,2.4c-.87.79-1.7,1.57-2.56,2.31a17.9,17.9,0,0,1-5.53,3.49,9,9,0,0,1-1.53.39,6.9,6.9,0,0,1-.78.09,4.61,4.61,0,0,0-.52.06l-.58.09a13,13,0,0,0-3.77,1.63,34.2,34.2,0,0,0-5,4.09,45.38,45.38,0,0,0-6.65,7.45c.18,0,.07.36-.18.91l-.88,2c-.67,1.42-1.06,2.83-.49,2.32a31.25,31.25,0,0,0-1.41,2.84,6.88,6.88,0,0,0-.6,1.73,4,4,0,0,1,.05,1.91c-.09,1.09-.51,2.66-.93,5.14-.1.48-.24,1-.39,1.56s-.22,1.13-.32,1.66a21.87,21.87,0,0,0-.41,2.32c0,1.1.77-2.45.74-1.35a47.33,47.33,0,0,1,7.94-19.54,38.09,38.09,0,0,1,7.11-7.66,20.61,20.61,0,0,1,4.23-2.72l.53-.25c.18-.07.33-.1.5-.16l.48-.16a1.55,1.55,0,0,0,.31,0,.63.63,0,0,1,.2,0l.45,0a9,9,0,0,0,.91-.08,11.49,11.49,0,0,0,1.75-.33,17.77,17.77,0,0,0,3.51-1.54,30.61,30.61,0,0,0,4.73-3.42l2.49-2.13c.42-.35.83-.68,1.22-1a5.72,5.72,0,0,1,.52-.32c.09,0,.11,0,.11-.06h.1l.2,0c.25,0,.51.08.78.13.54.11,1.1.26,1.7.43a33.25,33.25,0,0,0,4,1,20.81,20.81,0,0,0,16.18-4.14,19.6,19.6,0,0,0,4.66-5.3,21.57,21.57,0,0,0,2.06-4.59c.09-.29.17-.59.24-.88a19.59,19.59,0,0,0,.31-8.71,35.42,35.42,0,0,0-1.07-3.88,14.48,14.48,0,0,1-.67-2.84,4.55,4.55,0,0,1,.12-2c.21-.68.7-1.51,1.16-2.53-.57.87-1.11,1.47-1.47,2,.39-.75,1-1.58,1.41-2.47a6.37,6.37,0,0,0,.58-2.16,6.23,6.23,0,0,0-.12-2.3c-.1-.37-.18-.41-.24-.25a21.3,21.3,0,0,1-.52,2.19c-.19.58-.28.45-.38.41s-.19,0-.54.81a6.21,6.21,0,0,0,.34-1.52,7.4,7.4,0,0,0,0-1.58c-.09-.06,0,.91-.08,1.77s-.42,1.58-.39,1.14a7.21,7.21,0,0,0,.15-3.7c-.07.23.08,1.3,0,2.26s-.46,1.76-.53,1.63a7.79,7.79,0,0,0,.49-1.83,2.65,2.65,0,0,0-.14-1.64s.08,1.16,0,1.74a8.12,8.12,0,0,0-.75-3.74c-.3-.51-.24-.12,0,1.52a17.49,17.49,0,0,0-1.18-4v0c.25.61.58,1.66.75,2.21-.21-.68-.47-1.36-.74-2.05,0,.13,0,.26,0,.4.17.52.33,1,.5,1.57-.14-.45-.3-.9-.48-1.36.06.39.12.81.18,1.24a11.69,11.69,0,0,1,.26,3.76,4.53,4.53,0,0,1-.49,1.9c-.31.62-.92,1.42-1.52,2.59a8.72,8.72,0,0,0-.85,4,15.23,15.23,0,0,0,.53,3.5l.77,2.87a17,17,0,0,1,.42,2.52A16.06,16.06,0,0,1,301.07,326.92Z"/><path class="cls-4" d="M253.81,334.25c0,.09.16.15.05.25-.37.28-.85.08-1.22.34l0,.17c-.35.06-.71.12-1.09.15-.64.24-1.26.51-1.9.72,0,.06.06.11,0,.15a6.26,6.26,0,0,1-1.05.25l-.16.07a.18.18,0,0,0,0,.13,3.2,3.2,0,0,1-.49.07,33.79,33.79,0,0,1-6.12,1.83,8.45,8.45,0,0,1-1.42.36,13.82,13.82,0,0,1-2.24-.18c.06.59-1.63.68-1.38,1.29-.46-.05-1.15-.2-1.21,0-.19.45-.65,1-2,1-.51-.05-1.22-.43-1.42-.37s.56.49.24.57a26.25,26.25,0,0,0,5.59,1,44.75,44.75,0,0,0,5.67-.05c.64-.17,3.15-.47,5.69-1.14a55,55,0,0,0,6.17-2l.18-.09a17.54,17.54,0,0,0,1.75-.85,12,12,0,0,0,1.49-1c.34-.37.66-.76,1-1.14a5.72,5.72,0,0,1-.66.07,3,3,0,0,0,.93-.66c.69-.79.05-.69-.47-.81-.32,0-.16-.4-.61-.33.26-.15.38-.24.64-.4-.06-.16-.73.59-.7.25.28-.1.49-.38.74-.54-.21-.12-.9.52-1,.3.12-.11.86-.22.76-.48,0-.05-.27.11-.4.19.71-.59,1-1.08.12-.86a6.13,6.13,0,0,0,.86-.49h0c-.13.08-.38.18-.49.26l.43-.28-.14-.05a2,2,0,0,0-.36.17l.28-.18a1.58,1.58,0,0,0-.38,0,4.42,4.42,0,0,0-1.06.2A49.27,49.27,0,0,1,253.81,334.25Z"/><path class="cls-4" d="M280.9,277.69c.07.07.21.08.13.22-.3.39-.8.44-1.09.86l.09.14c-.31.22-.66.43-1,.69a18.93,18.93,0,0,0-1.36,1.77c.06,0,.11.05.08.12a8,8,0,0,1-.74.9l-.09.18a.19.19,0,0,0,.07.13c-.12.16-.23.29-.34.42a30.82,30.82,0,0,0-2.28,6.24,9.37,9.37,0,0,1-.19,1.46c-.19.66-.55,1.46-.77,2.08.58.08.44,1.68,1.09,1.52-.14.4-.27,1-.12,1.09.47.2.92.62,1.05,1.72,0,.42-.29,1-.21,1.18s.42-.49.54-.24c.26-1.5.6-2.95,1-4.4a26.29,26.29,0,0,1,1.6-4.24,16.52,16.52,0,0,1,2.2-4.17,22.66,22.66,0,0,1,3.49-4l.12-.12c.39-.32.78-.7,1.18-1.06a10,10,0,0,0,1-1.08c.24-.34.47-.7.71-1.06l-.58.06a2.58,2.58,0,0,0,.77-.63c.62-.67.05-.65-.47-.8-.31,0-.16-.42-.59-.34.24-.16.37-.22.63-.37-.07-.16-.72.54-.69.22a8,8,0,0,0,.74-.5c-.21-.14-.92.46-1,.27.1-.15.86-.2.76-.46,0-.05-.27.1-.4.17.73-.54,1-1,.16-.85a7.18,7.18,0,0,0,.92-.46h0c-.14.07-.4.16-.52.24l.46-.27-.14,0a1.8,1.8,0,0,0-.38.16l.31-.18a2.28,2.28,0,0,0-.39-.06,4.82,4.82,0,0,0-1.14.19A23.87,23.87,0,0,0,280.9,277.69Z"/><path class="cls-4" d="M288.14,266.52c.09.05.24,0,.19.17-.16.6-.67.92-.8,1.54l.14.1c-.22.42-.47.86-.68,1.33s-.21.92-.29,1.38c0,.24-.06.47-.09.7s-.06.44-.08.77c.06,0,.12-.05.13.11a6.36,6.36,0,0,0,.22,2.37,2.31,2.31,0,0,0,.18.35.17.17,0,0,0,.17.06l.22.39a5.93,5.93,0,0,0,.37.5,4.28,4.28,0,0,0,1.38.82,5.42,5.42,0,0,0,1.36.35c.64.09,1.29.16,1.94.2a33.41,33.41,0,0,0,4,0c.59-.1,1.16-.22,1.71-.27.81,0,1.85.07,2.64.05-.14-.55,1.72-1,1.29-1.53.5,0,1.26-.11,1.27-.28.05-.5.36-1.09,1.55-1.62.48-.15,1.27-.14,1.42-.27s-.71-.19-.48-.41a32.66,32.66,0,0,1-10.76.49,11.66,11.66,0,0,1-2-.21c-.48-.08-1-.21-1.57-.33l-.16,0h0a.24.24,0,0,1-.11-.06.34.34,0,0,1-.06-.12s0,0,0-.07a1.76,1.76,0,0,0,0-.18,12.48,12.48,0,0,1,.34-1.68,11.44,11.44,0,0,1,.89-2.34,1.34,1.34,0,0,1,.07-.18c.5-1,1.18-2.17,1.61-3.06.17-.42.33-.88.53-1.32l-.61.24a3.67,3.67,0,0,0,.72-.88c.57-.88,0-.72-.62-.69-.33.09-.23-.39-.69-.17.25-.24.37-.37.64-.6-.1-.15-.71.82-.73.46.28-.2.48-.54.75-.77-.25-.09-.94.79-1,.61.1-.18.91-.5.78-.74,0-.05-.3.19-.42.31.73-.82,1.06-1.42.08-.95.27-.25.75-.48,1-.76h0c-.15.12-.44.28-.58.39l.51-.4-.15,0a2.39,2.39,0,0,0-.43.27l.34-.27a2.42,2.42,0,0,0-.45,0,5.81,5.81,0,0,0-1.29.57A17.67,17.67,0,0,0,288.14,266.52Z"/><path class="cls-4" d="M264.38,236.3c-.07-.07-.2-.08-.14-.21.25-.39.76-.35,1-.72l-.08-.14a10.79,10.79,0,0,1,1-.5c.51-.42,1-.87,1.53-1.26-.05,0-.08-.08,0-.14a5.69,5.69,0,0,1,.9-.56l.13-.11a.22.22,0,0,0,0-.14l.45-.21a27.74,27.74,0,0,1,5.25-3.45,8.55,8.55,0,0,1,1.27-.72,12.91,12.91,0,0,1,2.19-.39c-.2-.55,1.42-1,1-1.58.46-.06,1.17-.06,1.19-.23.08-.48.41-1.11,1.73-1.4.51-.06,1.3.16,1.48.06s-.65-.36-.36-.51a22.91,22.91,0,0,0-5.74.29,36.38,36.38,0,0,0-5.53,1.54c-.3.15-1,.53-2,1s-2.09,1.09-3.21,1.79a43,43,0,0,0-5.23,3.94l-.14.15a15.45,15.45,0,0,0-1.36,1.43,10.7,10.7,0,0,0-1,1.51c-.18.47-.34,1-.5,1.43.21-.12.41-.23.59-.31a2.88,2.88,0,0,0-.62,1c-.35,1,.21.66.74.56.29-.12.3.32.69.09-.19.23-.26.36-.44.61.11.12.44-.82.55-.49-.22.19-.3.53-.47.77.23,0,.62-.82.79-.65-.07.15-.71.53-.51.73,0,0,.2-.21.28-.33-.42.81-.46,1.36.23.83a7.68,7.68,0,0,0-.6.78h0c.09-.12.28-.31.35-.42l-.28.42.14,0a1.42,1.42,0,0,0,.26-.29l-.18.28a1.92,1.92,0,0,0,.37-.11A4.6,4.6,0,0,0,261,240,36.19,36.19,0,0,1,264.38,236.3Z"/><path class="cls-4" d="M266.44,241.92c0-.1,0-.22.1-.23.41,0,.67.38,1.09.37l.06-.15c.3.13.6.28.92.41.62.09,1.23.16,1.85.19,0-.06,0-.12.06-.13a5.19,5.19,0,0,1,1,.17h.17a.25.25,0,0,0,.07-.12,3.76,3.76,0,0,1,.44.09,52.25,52.25,0,0,0,5.6-.67,7.43,7.43,0,0,1,1.21-.35,16.93,16.93,0,0,1,1.89,0c-.1-.58,1.26-.91.95-1.49.37,0,.93,0,.94-.18a1.72,1.72,0,0,1,1.22-1.45c.37-.1,1,.05,1.08-.06s-.52-.3-.33-.47c-2.74.1-5.37.39-8.15.26a20.42,20.42,0,0,1-4.22-.11,32,32,0,0,1-4.68-.8l-.14,0a11.8,11.8,0,0,0-2.72-.43l-1.15.15.36.4a1.89,1.89,0,0,0-.86-.16c-.81,0-.48.4-.3.87.16.23-.21.4.08.66l-.6-.2c-.07.15.76.15.52.35a5.33,5.33,0,0,0-.74-.2c0,.24.81.34.71.54-.15,0-.59-.5-.71-.25,0,0,.21.13.33.18-.77-.16-1.26,0-.67.46a5.12,5.12,0,0,0-.79-.35h0c.12.05.32.17.43.21l-.42-.15,0,.13a1,1,0,0,0,.3.16l-.28-.09a2.38,2.38,0,0,0,.17.31c.28.28.53.63.72.69A30.57,30.57,0,0,0,266.44,241.92Z"/><path class="cls-4" d="M261.28,223.32c-.07-.08-.24-.07-.11-.24.46-.53,1.09-.61,1.54-1.12l-.06-.16c.44-.27.91-.55,1.39-.82.77-.64,1.54-1.25,2.32-1.85-.06,0-.1-.07,0-.14a11.37,11.37,0,0,1,1.31-.81l.21-.15a.23.23,0,0,0,0-.16l.63-.32a19.51,19.51,0,0,1,3.67-2.1,17,17,0,0,1,4.36-1.24,9.22,9.22,0,0,1,2-.3,10.34,10.34,0,0,1,3,.68c0-.31.59-.33,1.16-.34s1.1.05,1-.34c.3.18.69.36,1,.54s.55.31.62.26c.4-.29,1.26-.55,2.94.81.66.54,1.13,1.77,1.39,1.94s-.3-1.08.08-.78a12.63,12.63,0,0,0-7.36-5.42,19.92,19.92,0,0,0-8.64-.47c-.48.14-1.65.39-3.14.88a25.57,25.57,0,0,0-4.89,2.32,63.85,63.85,0,0,0-7.36,5.43l-.2.19a32.51,32.51,0,0,0-3.65,3.52c-.35.5-.75,1.05-1.14,1.59l.8-.31a5.7,5.7,0,0,0-1.13,1.06c-.92,1.06-.13.8.54.76.4-.12.17.42.75.17l-.87.68c.07.16,1-.93.93-.53-.36.23-.67.6-1,.88.26.07,1.25-.91,1.33-.7-.15.2-1.15.56-1.05.83,0,.05.37-.22.55-.36-1,.93-1.46,1.6-.28,1.05-.35.27-.91.56-1.26.87h0c.19-.13.54-.33.71-.46l-.63.47h.17a5.58,5.58,0,0,0,.52-.32l-.42.32c.15,0,.33,0,.51-.08a9,9,0,0,0,1.5-.64C257.25,226.78,259.3,225,261.28,223.32Z"/><path class="cls-4" d="M300.05,196c.11,0-.07-.74.39.32l.37.93c.15.38.29.76.43,1.13l1.21,3.37c.81,2.31,1.61,4.58,2.42,6.92.8-1.43,1.65-3,2.5-4.69l.17-.68,1.85-3.47.46-.91.39-.86.49-1c.63-1.4,1.26-2.82,1.81-4.3a73.32,73.32,0,0,0,3.75-16.84c-.08.14-.14.21-.1-.36.2-2.37.47-5.66.42-9.08l-.06-1.51a1.05,1.05,0,0,0-.16-.54c0-.77-.08-1.5-.11-2.2s-.13-1.35-.19-2a65.75,65.75,0,0,0-7.87-24,56.14,56.14,0,0,0-17.74-19.48,57.38,57.38,0,0,0-10.18-5.11,82.89,82.89,0,0,0-8.43-2.9c-3-.85-6-1.52-8.57-2,.17.17-.5.18-1.56.14s-2.51-.16-3.91-.21c-2.8-.11-5.36,0-4.11.33l-2.83-.17-2.87-.07a20,20,0,0,0-3.28.15,9.59,9.59,0,0,1-3.16.88c-1.89.36-4.82.77-9.29,1.63-.88.16-1.88.33-2.89.53s-2.06.39-3,.6c-1.93.39-3.55.86-4.15,1-1.87.66,4.55-.85,2.67-.19a92.89,92.89,0,0,1,38.76-1.11,72.69,72.69,0,0,1,18.4,5.77c1.44.7,2.85,1.47,4.21,2.3.68.42,1.33.88,2,1.32.33.22.67.44,1,.67l.95.74a46.82,46.82,0,0,1,7.06,6.6l1.32,1.46,1.75,2.24c.66.85,1.31,1.88,2.07,3s1.48,2.34,2.18,3.7a61.81,61.81,0,0,1,6.8,20.65,68.24,68.24,0,0,1-1,24.22,69.92,69.92,0,0,1-3.24,10.54c-.31.79-.62,1.56-1,2.3l-.29.65-.07.14a2.61,2.61,0,0,1-.27.49l-.34-1-.53-1.38a124.36,124.36,0,0,0-5.71-13,62.86,62.86,0,0,0-7.3-11.16,49.15,49.15,0,0,0-7.76-7.35,42.08,42.08,0,0,1,3.14,3.25,37.24,37.24,0,0,0-6.65-5.45,25.31,25.31,0,0,0-3.28-1.78c-.57-.25-.69-.2-.5,0,.36.37,1.86,1.4,2.95,2.38,1.6,1.32-.82-.08,1.69,1.95a40.08,40.08,0,0,0-4.85-3.18c-.16,0,1.42.84,2.77,1.74s2.49,1.79,1.77,1.41a33.41,33.41,0,0,0-6-3.65c.31.27,2.08,1.18,3.61,2.23a11.79,11.79,0,0,1,2.66,2.06l-1.22-.93c-.53-.42-1.16-.87-1.79-1.29a10.13,10.13,0,0,0-2.76-1.51c-.09,0,1.92,1.08,2.86,1.74A25.27,25.27,0,0,0,271.8,159c-.51-.12-.62-.1-.25.11s1.24.61,2.63,1.33a29.08,29.08,0,0,0-7.13-2.49h0c.56.14,1.32.31,2.06.54s1.46.45,2,.65a32.48,32.48,0,0,0-3.77-1.08l.64.27c1,.23,1.87.57,2.83.88-.82-.27-1.64-.55-2.48-.74.61.21,1.28.55,2,.84A41,41,0,0,1,277,163a46.7,46.7,0,0,1,14,14.35A103.53,103.53,0,0,1,300.05,196Z"/><path class="cls-4" d="M258.15,144.32c.09,0,0-.41.34,0a49.83,49.83,0,0,1,2.62,4.3l.2,0c.32.62.63,1.25.9,1.91s.57,1.32.8,2a31.46,31.46,0,0,1,2.26,7.54c.05-.07.1-.11.16.14a12.47,12.47,0,0,1,.2,1.9,20.82,20.82,0,0,1,0,2.25c0,.23,0,.46,0,.69a.43.43,0,0,0,.12.26c-.07.7-.14,1.32-.2,1.9a26.14,26.14,0,0,1-1.14,5.64,23.08,23.08,0,0,1-2.57,5.29,24.13,24.13,0,0,1-4,4.61,35.1,35.1,0,0,1-5.27,3.8,43,43,0,0,1-4.93,2.77c-2.48,1.16-5.81,2.3-8.33,3.24.59.39-5.44,3-4,3.07a28.92,28.92,0,0,0-4.28,1.78c-.21.6-1.3,1.62-5.65,3.59-1.72.73-4.47,1.56-5,1.89-.91.51,2.39-.54,1.48,0,6.5-2.38,12.85-4.82,19.21-7.27,3.17-1.23,6.41-2.47,9.63-4a47.06,47.06,0,0,0,9.42-5.6,31.45,31.45,0,0,0,2.35-2.23c.25-.27.53-.55.81-.84s.54-.66.83-1,.59-.71.88-1.11l.85-1.26a28,28,0,0,0,4.38-13.68,34.16,34.16,0,0,0-.51-7.72,34.62,34.62,0,0,0-2-6.93,47.86,47.86,0,0,0-5-9l-.45-.63a58.43,58.43,0,0,0-9.65-10.33c-1.39-1.11-2.84-2.19-4.3-3.23.57.61,1.08,1.2,1.52,1.7a36.56,36.56,0,0,0-3.33-2.75c-3.13-2.25-1.63-.64-.74.59.7.81-.56.1.59,1.3-.9-.78-1.37-1.15-2.28-1.92-.21,0,2.88,2.28,2.07,2-.83-.79-1.89-1.52-2.81-2.28.19.42,3.13,2.69,2.84,2.74-.51-.38-2.38-2.36-2.73-2.3a11.13,11.13,0,0,0,1.3,1.16c-2.89-2.26-4.64-3.29-2.21-1-.9-.74-2.12-1.84-3.11-2.57h0l1.71,1.44-1.63-1.31.22.32c.38.35.78.69,1.2,1l-1.08-.87c.22.29.48.6.77.93,1.18,1.16,2.24,2.35,2.92,2.92A92.42,92.42,0,0,1,258.15,144.32Z"/><path class="cls-4" d="M214.58,216.52c.07.08.48-.31,0,.42a31.43,31.43,0,0,1-2.48,2.88c-.84.89-1.78,1.67-2.67,2.69l0,.25a46.59,46.59,0,0,1-5.11,4l-1.21.91c-.41.31-.86.55-1.28.82-.87.52-1.7,1.1-2.59,1.57l-2.69,1.37c-.45.24-.92.42-1.38.62s-.92.4-1.4.57c.12,0,.18,0-.19.21a47,47,0,0,1-6.23,1.86l-1.05.28a.72.72,0,0,0-.36.22c-1.09.25-2.08.43-3,.61-6,1.38-12.22,2.39-18.53,4.21a55.33,55.33,0,0,0-9.36,3.66,38.15,38.15,0,0,0-8.61,5.84,28.57,28.57,0,0,0-5.4,7,25.31,25.31,0,0,0-2.48,6.51c-.13.59-.19,1.19-.29,1.79,0,.29-.09.59-.13.88s0,.59,0,.88c0,.58-.05,1.15-.07,1.71s.08,1.1.11,1.61c.15-.17.27.34.5,1.13.13.41.26.87.41,1.36.07.25.14.51.22.77l.28.76c.19.5.37,1,.55,1.43a10.77,10.77,0,0,0,.54,1.08c.32.56.52.75.5.24.82,2.51,2.66,6.06,2.94,6.14.79.26,2,1.88,6.46,7.23,1.7,2.12,4.35,5.4,5.08,6.05,1.13,1-2.11-2.88-1-1.85a74.45,74.45,0,0,1-8.74-12,37.3,37.3,0,0,1-3-6.51,24.48,24.48,0,0,1-1.41-6.77,19.28,19.28,0,0,1,3.71-12.74,29.76,29.76,0,0,1,11.11-8.77,46.86,46.86,0,0,1,10.57-3.85c5.37-1.39,12.33-2.34,19.52-3.95a64.83,64.83,0,0,0,10.67-3.3c.86-.33,1.68-.76,2.5-1.16s1.63-.79,2.42-1.21,1.5-.92,2.24-1.37a21.6,21.6,0,0,0,2.12-1.4,56.85,56.85,0,0,0,11.14-10.5,10.26,10.26,0,0,0,.72-.91c1-1.42,2.19-2.85,3.14-4.45l1.49-2.37,1.35-2.45c.92-1.61,1.61-3.29,2.35-4.83s1.25-3.1,1.77-4.45.79-2.56,1.19-3.86.67-2.61,1-3.91l-1.3,3.16,1.17-3.7a25.68,25.68,0,0,0,.61-2.55c.66-2.82.58-3.48.38-3.15a7.32,7.32,0,0,0-.49,1.07c-.22.49-.47,1.05-.71,1.57-.58,1.49-.28-.65-1.09,1.7.46-1.73.75-2.57,1.15-4.32-.05-.22-1.32,5.34-1.25,4.08.51-1.65.93-3.52,1.3-5.26-.29.56-1.6,5.95-1.74,5.63.2-.93,1.58-4.75,1.35-5.16,0-.08-.42,1.66-.68,2.51,1.22-5.34,1.49-8.34.18-3.54.43-1.67.93-4.05,1.24-5.85h0c-.18.89-.5,2.43-.67,3.25.19-1,.39-2,.58-3.05-.07.16-.14.34-.21.52-.17.75-.34,1.51-.49,2.3.13-.67.25-1.35.38-2-.18.49-.37,1-.56,1.67-.29,1.19-.67,2.33-1,3.33s-.56,1.89-.75,2.51C225.22,198.36,220.91,208.27,214.58,216.52Z"/><path class="cls-4" d="M149.1,275.93c.1,0,.1-.34.29.09.55,1.36.63,2.59,1.25,4l.19,0c.36,1.1.73,2.25,1.19,3.4a37.76,37.76,0,0,0,3.48,5.95c0-.08.05-.13.19,0,.59.77,1.34,1.86,2.24,2.93l.45.43c.13.1.2.09.25.08.42.49.83.87,1.2,1.24A24.38,24.38,0,0,0,169,299a21.13,21.13,0,0,0,5.29.78,16.51,16.51,0,0,0,5.45-.89,17.38,17.38,0,0,0,2.13-1,8.58,8.58,0,0,0,1-.67,4,4,0,0,0,.92-1,4.11,4.11,0,0,0,.56-1.93c0-.58.1-1.18.16-1.77.1-1.19.2-2.38.22-3.43-.29.16-.48-1-.77-2.1s-.64-2-.86-1.49a15.09,15.09,0,0,0-.4-2.11,2.76,2.76,0,0,0-.48-1.14,2.33,2.33,0,0,1-1.12-.78c-.5-.5-1.14-1.34-2.22-2.33a13,13,0,0,0-1.39-1.25,3.24,3.24,0,0,0-1.13-.61c-.19,0-.19,0-.1.09l.35.3c.26.22.5.46.22.39a9,9,0,0,1,3.56,4.68,18.71,18.71,0,0,1,.9,6.68c0,1.2-.1,2.45-.19,3.73,0,.64-.11,1.37-.1,1.22h0l0,0a.73.73,0,0,1-.15.11,11,11,0,0,1-1.34.61,12.92,12.92,0,0,1-1.53.47,13.15,13.15,0,0,1-3.27.27,14,14,0,0,1-5.09-.92A20.35,20.35,0,0,1,162,290a30.66,30.66,0,0,1-5.48-8.17,55,55,0,0,1-2.6-6.71l-.18-.52c-1-3.16-2.15-7.14-3.17-9.85-.5-1.21-1-2.47-1.55-3.72.08.62.15,1.2.2,1.71a23.93,23.93,0,0,0-1-3.1c-1-2.73-.86-1.07-.93.12.06.81-.49-.16-.31,1.1-.25-.87-.37-1.31-.61-2.19-.19,0,.85,2.67.42,2.14-.18-.86-.55-1.77-.79-2.65-.12.36.79,3.05.54,3-.18-.45-.42-2.53-.73-2.62a7,7,0,0,0,.31,1.29c-.86-2.66-1.53-4.07-1.11-1.54-.24-.85-.47-2.09-.77-3h0l.4,1.66-.42-1.54,0,.3c.07.39.16.78.27,1.18l-.29-1c0,.28,0,.6,0,.94.18,1.26.26,2.49.45,3.14q1.05,4,2.12,8C147.5,270.57,148.23,273.25,149.1,275.93Z"/><path class="cls-4" d="M166.79,259.85c.1,0,.22,0,.22.13-.06.46-.51.66-.6,1.11l.14.1c-.22.29-.45.59-.7.89a24.44,24.44,0,0,0-1,2.32c.07,0,.12,0,.11.1-.1.34-.33.78-.52,1.27l0,.24a.19.19,0,0,0,.09.12l-.22.61a10.06,10.06,0,0,0,.16,4.24,5.86,5.86,0,0,0,2.79,3.64,10,10,0,0,0,1.77.53c.8.24,1.76.54,2.5.68,0-.58,1.79-.6,1.52-1.23.49.09,1.22.24,1.3.09.22-.43.67-1,2.31-.75a3.81,3.81,0,0,1,1,.48,3,3,0,0,0,.71.43c.42.07-.59-.76-.18-.7a10.5,10.5,0,0,0-3.4-1.29c-1-.21-2-.31-2.83-.44a8.36,8.36,0,0,1-2-.49,2,2,0,0,1-1-.81,1.45,1.45,0,0,1-.46-.94,5.84,5.84,0,0,1,.28-2.63,18,18,0,0,1,1.3-3.14c.57-1.1,1-2.1,1.24-2.68l.07-.22a11.92,11.92,0,0,0,.59-2.18,7.08,7.08,0,0,0,0-2.25,7.6,7.6,0,0,0-.69-1.8,7.09,7.09,0,0,1-.13.82,2.91,2.91,0,0,0-.45-1.39c-.79-1.09-.69-.22-.88.3-.06.34-.43.07-.46.54a3.58,3.58,0,0,0-.27-.71c-.08,0,0,.22.14.41s.13.37,0,.32c0-.3-.26-.54-.39-.79a.88.88,0,0,0,.1.53c.07.21.1.42,0,.43s0-.83-.29-.74c-.05,0,0,.25.11.37a1.1,1.1,0,0,0-.61-.56c-.15,0-.22.13-.17.45a1.79,1.79,0,0,0-.4-.61h0c.07.09.16.27.23.35l-.25-.29,0,.13a.58.58,0,0,0,.14.24l-.16-.18-.06.32c0,.31-.09.6-.06.71A6.82,6.82,0,0,1,166.79,259.85Z"/><path class="cls-4" d="M126,117.86c.08.19,1.29-.4-.36.85a72.56,72.56,0,0,0-7,5.88,38.52,38.52,0,0,0-5.78,6.94c0,.18,0,.37,0,.56A88.88,88.88,0,0,0,105.33,145c-1.88,4.24-3.48,8.49-5,12.66S97.2,166,95.66,170.15c.19-.17.33-.24.06.6-1.24,3.47-3.17,8.18-5.09,13.1l-.78,2.2a1.61,1.61,0,0,0-.06.88l-2.39,6-13.13,37.2a85.18,85.18,0,0,0-2.9,10.09,38.38,38.38,0,0,0-.81,11,42.22,42.22,0,0,0,2.34,10.82,69.62,69.62,0,0,0,4.48,10A133.32,133.32,0,0,0,87.46,287.2a140.21,140.21,0,0,0,9.05,11A113.32,113.32,0,0,0,106.67,308c-.13-.87,3.82,2,7.72,4.17s7.6,3.92,6.18,2.37c1.15.75,2.52,1.49,3.87,2.26s2.76,1.46,4.05,2l1.8.79c.56.22,1.07.39,1.51.55a5.54,5.54,0,0,0,1.56.42,6.38,6.38,0,0,1,1.78-.17c.83,0,1.92.17,3.41.3a70.1,70.1,0,0,0,14.14.68,41.06,41.06,0,0,0,8.5-1.43c.68-.19,1.29-.47,1.89-.68a10.12,10.12,0,0,0,1.61-.68c.94-.49,1.66-.87,2-1.12.65-.48.55-.52.07-.33s-1.2.44-2,.75c-.38.14-.74.31-1.08.41s-.65.16-.87.2c-.43.08-.51,0,.09-.29a30.9,30.9,0,0,1-13.53,2.11,50.76,50.76,0,0,1-14.09-3,69.67,69.67,0,0,1-13.28-6.54,107.36,107.36,0,0,1-32.26-31.81,101.07,101.07,0,0,1-7.42-13.37,42.56,42.56,0,0,1-3.92-13.89,26.32,26.32,0,0,1,.3-7.88A77.63,77.63,0,0,1,83,230l14.68-38.88,8-21c2.65-6.88,5.11-13.62,7.64-19.49a76.24,76.24,0,0,1,8.09-14.82,39.22,39.22,0,0,1,7.93-8.33,18.53,18.53,0,0,1,1.65-1.27c5.11-3.64,11.84-6.33,18.74-8.05a192.93,192.93,0,0,1,19.72-3.55c5.32-.84,10.69-1.62,16.05-2.06-2.5-.14-4.83-.21-6.86-.25,5.51-.39,11-.33,13.08-.44,1.45,0,2.62,0,3.55,0s1.61,0,2.08,0c1,0,1.1-.17.74-.36a35.41,35.41,0,0,0-5.73-1.46c-1.63-.24-1.34-.44-1.27-.66s-.11-.46-2.7-.65a92.08,92.08,0,0,1,9.37.51c.23-.15-2.66-.41-5.28-.48s-5-.08-3.66-.35c3.61.14,7.69.17,11.43.69-.61-.34-3.87-.73-6.91-.93s-5.83-.2-5.54-.43c1,0,3.68.12,6.17.35s4.8.55,5.2.31a11.58,11.58,0,0,0-2-.31c-1.17-.14-2.59-.22-3.54-.29,5.85.23,10.38.92,12.16,1.07.88.08,1.08,0,.4-.3a11.89,11.89,0,0,0-1.72-.56c-.82-.21-1.87-.5-3.22-.75A77.43,77.43,0,0,1,214,110.47l0,0a65.85,65.85,0,0,0-7-2.15,63.64,63.64,0,0,1,6.6,1.9l-1.07-.59a25.33,25.33,0,0,0-2.46-.82c-.83-.26-1.68-.52-2.55-.7.74.15,1.48.36,2.21.57s1.48.39,2.21.65c-1-.53-2.27-1-3.64-1.55a65.61,65.61,0,0,0-13.36-2.87,124.39,124.39,0,0,0-17.59,0c-2.9.18-5.77.43-8.62.71s-5.72.58-8.6,1a111.28,111.28,0,0,0-17.39,3.53,67.64,67.64,0,0,0-8.57,3.18A51.27,51.27,0,0,0,126,117.86Z"/><path class="cls-4" d="M127.54,333.9c.11,0,.19-.14.26.06.17.63-.18,1.17,0,1.8l.16,0c0,.5-.1,1-.2,1.55,0,1,.06,1.93,0,2.9.06,0,.11,0,.13.07a12.28,12.28,0,0,1-.15,1.52v.26a.21.21,0,0,0,.12.11c0,.26-.09.48-.14.7a43.65,43.65,0,0,1-1,8.95,18.32,18.32,0,0,1-.39,2,25,25,0,0,1-1.36,2.86c.59.12-.28,2.33.45,2.2-.3.58-.86,1.4-.74,1.53.32.37.58,1.13-.2,2.78-.36.62-1.15,1.38-1.22,1.64-.11.41.81-.54.71-.13a36.56,36.56,0,0,0,4.15-6.65,53.45,53.45,0,0,0,2.8-7.34c.09-.44.28-1.53.61-2.93s.57-3.18.75-5a61.76,61.76,0,0,0,.2-9l0-.29a26.45,26.45,0,0,0-.33-2.68,18.74,18.74,0,0,0-.63-2.42c-.28-.62-.59-1.23-.9-1.83,0,.32,0,.62-.08.88A5.84,5.84,0,0,0,130,326c-.65-1.29-.69-.43-.92.18-.06.41-.44,0-.47.61-.08-.42-.16-.62-.27-1-.17,0,.45,1.24.1,1a7,7,0,0,0-.39-1.23c-.16.2.35,1.43.1,1.43-.08-.22,0-1.22-.33-1.23,0,0,.06.41.12.61-.46-1.22-.91-1.81-.85-.61-.11-.39-.17-1-.33-1.37h0c.05.2.1.57.16.76l-.2-.7-.07.16a3.53,3.53,0,0,0,.1.55l-.13-.47c0,.15-.09.3-.13.47a7.93,7.93,0,0,0,0,1.48A53,53,0,0,1,127.54,333.9Z"/><path class="cls-4" d="M272.4,231.5c.09,0,.18-.09.24-.06s-.15.33,0,.45l.16,0a2.83,2.83,0,0,1-.17.4c.05.21.1.42.15.65.06,0,.12,0,.14,0a.65.65,0,0,1-.06.35v.07l.13,0a.35.35,0,0,1-.07.15,4.48,4.48,0,0,1-.14,2.63,2,2,0,0,1-.16.72,2.73,2.73,0,0,1-.82.62c.4.43-.13,1.13.31,1.53-.21.13-.54.28-.48.44a1.37,1.37,0,0,1-.31,1.63c-.24.19-.75.13-.81.26s.47.2.37.4a9.51,9.51,0,0,0,5.36-4.13,14.14,14.14,0,0,0,1.12-3.51,10.61,10.61,0,0,0-.32-4.06l0-.11a3.94,3.94,0,0,0-1.22-2,4.52,4.52,0,0,0-.86-.41,3.1,3.1,0,0,1,0,.44c-.15-.22-.31-.44-.46-.45-.57-.26-.55.19-.72.59,0,.21-.35.25-.36.52-.08-.12-.13-.17-.22-.29-.13.1.36.28.09.38,0-.15-.22-.19-.31-.3-.13.19.26.41.08.54-.08,0,0-.48-.25-.32,0,0,0,.14.08.19-.34-.26-.67-.19-.64.25-.07-.09-.11-.28-.23-.35h0a2.12,2.12,0,0,1,.11.21l-.14-.16-.05.11a.52.52,0,0,0,.07.15l-.09-.1a1.43,1.43,0,0,0-.09.27c0,.23-.11.51-.06.57A8.25,8.25,0,0,1,272.4,231.5Z"/><path class="cls-4" d="M249.34,243.06c0-.1-.06-.2,0-.24.3-.1.55.22.85.12v-.17c.24.07.49.15.74.2a10.06,10.06,0,0,0,1.35-.26c0-.06,0-.11,0-.14a2.85,2.85,0,0,1,.7-.06l.11,0a.34.34,0,0,0,0-.14h.33a29.7,29.7,0,0,0,3.55-2,3.45,3.45,0,0,1,.69-.6,7,7,0,0,1,1.26-.36c-.25-.53.54-1.11.16-1.6.25-.07.61-.19.57-.35a1.57,1.57,0,0,1,.37-1.59c.22-.16.67-.12.71-.24s-.44-.2-.36-.4c-1.85.56-3.48,1.38-5.28,1.87a9.57,9.57,0,0,1-2.67.87,12.37,12.37,0,0,1-3.05.27h-.09a5,5,0,0,0-1.74.14c-.23.1-.48.24-.73.36.09.11.18.22.25.32-.23,0-.47-.08-.57,0-.54.14-.33.48-.19.91.12.2-.13.43.08.63a3.2,3.2,0,0,1-.42-.1c0,.16.54,0,.38.26-.16-.08-.36,0-.54-.07,0,.23.59.2.53.4-.11,0-.44-.38-.53-.12,0,0,.16.1.25.12-.56,0-.93.16-.47.56a3.16,3.16,0,0,0-.61-.22h0c.1,0,.25.11.33.14l-.32-.08,0,.12a.74.74,0,0,0,.24.11l-.22-.05c0,.09.08.19.13.28.22.23.43.53.57.57A13.31,13.31,0,0,0,249.34,243.06Z"/><path class="cls-4" d="M147.83,381c0-.1-.36-.31.32-.17,2.15.5,3.78,1.29,5.93,1.79l.2-.12,5.06,1.62c3.25.84,6.48,1.65,9.72,2.41-.07-.08-.1-.14.23-.08,1.35.3,3.19.81,5.11,1.3l.86.19a.51.51,0,0,0,.34-.05l2.36.6c9.55,1.94,19.32,3.61,30,4.91,2.26.21,4.52.38,6.69.6,3.21.39,7.29.91,10.31,1.56-.18-.33,1.61-.21,3.26,0s3.18.61,2.56.07a30.1,30.1,0,0,1,3.21,1.41,13,13,0,0,0,1.81.94,3.51,3.51,0,0,1,2.08.62,12.91,12.91,0,0,1,6.32,8.2,15.2,15.2,0,0,1,.37,1.86c.06.53.1.94.15,1.16s.1.28.13.08a10.41,10.41,0,0,0,0-1.05c0-.85-.14-1.71.09-1a14,14,0,0,0-1.1-3.47,16.58,16.58,0,0,0-1.81-3.05,20.85,20.85,0,0,0-4.93-4.73,31.22,31.22,0,0,0-12.1-4.57c-4.12-.74-8.06-1.07-12-1.64s-7.88-1.17-11.86-1.88c-1.37-.19-4.68-.73-9-1.58s-9.67-2-15.12-3.29c-10.9-2.59-22.21-5.71-26.82-7.05l-.84-.23c-2.52-.71-5.31-1.49-8-2.22l-4-1c-1.25-.32-2.36-.61-3.38-.92a29.39,29.39,0,0,1-5.42-2c.71.54,1.4,1,2,1.42a34.5,34.5,0,0,1-4-2.4c-1.59-1.26-1.85-1.63-1.84-1.3a6.9,6.9,0,0,0,1.09,1.86c.84.91-.64.07.8,1.41a15.68,15.68,0,0,1-1.38-1.12,13.08,13.08,0,0,1-1.24-1.29,5.84,5.84,0,0,0,1.38,1.47c.77.64,1.49,1.16,1,1a14.36,14.36,0,0,1-3.14-3.09,6.64,6.64,0,0,0,1.68,2.13c.85.81,1.74,1.42,1.58,1.45a11.45,11.45,0,0,1-1.8-1.57,12.21,12.21,0,0,0-1.41-1.47,7.5,7.5,0,0,0,1.42,1.66,14.26,14.26,0,0,1-2-2.24,18.11,18.11,0,0,1-1-1.6c-.17-.32-.26-.38-.22-.07a5.35,5.35,0,0,0,.18.75,12.75,12.75,0,0,0,.57,1.26c-.21-.34-.4-.74-.61-1.15s-.33-.9-.49-1.36-.19-1-.27-1.44,0-.93-.08-1.36v0c0,.42,0,1,.08,1.56a7.7,7.7,0,0,0,.33,1.5,9.68,9.68,0,0,1-.46-2.87c0,.17,0,.34-.08.52a8.07,8.07,0,0,0,.31,2.21c-.1-.31-.14-.64-.22-1a4.53,4.53,0,0,1-.13-1,7.22,7.22,0,0,0,0,1.72,10.75,10.75,0,0,0,2.68,5.23,21.82,21.82,0,0,0,5.88,4,43.6,43.6,0,0,0,6.32,2.37C139.69,378.67,143.76,379.85,147.83,381Z"/><path class="cls-4" d="M241.69,391.58c.08-.07.07-.22.22-.13.44.3.48.83.87,1.15l.15-.08a10.1,10.1,0,0,1,.55,1.09,8.31,8.31,0,0,1,.63.92,10.1,10.1,0,0,1,.59,1s.09-.08.14,0a4.93,4.93,0,0,1,.44,1.13l.09.18a.22.22,0,0,0,.15,0,5.14,5.14,0,0,1,.15.55,28.87,28.87,0,0,1,2.15,7.34,12.75,12.75,0,0,1,.43,1.75c.08.85,0,1.95,0,2.79.57-.14.91,1.9,1.48,1.47,0,.55,0,1.38.19,1.42.5.1,1.07.5,1.48,1.88.12.54,0,1.4.14,1.58s.26-.75.45-.47c-.32-4-.29-8.1-.63-12.67a44.44,44.44,0,0,0-1.61-7A19.21,19.21,0,0,0,247.5,391a23.12,23.12,0,0,0-2.19-2.68l-.19-.18a14.37,14.37,0,0,0-3.69-2.76c-.54-.22-1.11-.41-1.66-.59.16.23.31.44.43.64a4,4,0,0,0-1.17-.69c-1.15-.46-.73.16-.56.74.18.32-.34.3,0,.73l-.77-.53c-.12.12,1,.56.64.64a7,7,0,0,0-1-.59c0,.25,1,.77.86.92-.19-.07-.7-.82-.91-.63,0,0,.26.25.41.35-1-.55-1.66-.66-1,.15a11,11,0,0,0-1-.75h0c.16.11.4.34.55.44l-.54-.37,0,.16a2.37,2.37,0,0,0,.39.32l-.36-.24a2.75,2.75,0,0,0,.17.41,8.19,8.19,0,0,0,.83,1.06A44.21,44.21,0,0,1,241.69,391.58Z"/><path class="cls-4" d="M114.6,360c.08.06.24,0,.16.2-.27.58-.84.82-1.07,1.41l.12.12c-.31.39-.64.78-.93,1.2a22,22,0,0,0-1,2.59c.06,0,.12,0,.1.1-.1.37-.33.84-.53,1.35l-.05.23a.22.22,0,0,0,.09.13l-.25.61c-.49,2.62-.67,5.19-.94,7.93a12.49,12.49,0,0,1,0,1.74,19.31,19.31,0,0,1-.77,2.55c.6,0,.26,2,.93,1.82-.18.51-.5,1.27-.36,1.37.4.3.8.91.42,2.44-.18.58-.83,1.31-.84,1.54s.68-.53.66-.16c2.36-4,3-8.31,4-12.33a35.09,35.09,0,0,1,1.34-6,20.75,20.75,0,0,1,2.82-5.86l.11-.17c.7-1,1.6-2,2.2-2.83.26-.37.5-.81.81-1.19-.23.05-.47.07-.66.12a4.1,4.1,0,0,0,.92-.72c.78-.72.15-.7-.44-.82-.36,0-.13-.44-.65-.31a8,8,0,0,1,.81-.45c-.06-.18-.94.63-.86.29.33-.16.64-.42,1-.6-.22-.14-1.18.57-1.23.37.13-.18,1.07-.28,1-.56,0,0-.35.13-.52.22,1-.66,1.52-1.14.36-.94.35-.17.92-.28,1.28-.48h0c-.19.08-.54.17-.72.25l.66-.28-.16-.05a3.45,3.45,0,0,0-.52.16l.44-.19a3.14,3.14,0,0,0-.48-.06,4.84,4.84,0,0,0-1.49.27A15.84,15.84,0,0,0,114.6,360Z"/><path class="cls-4" d="M183.46,125c0,.1.38.11-.15.29-1.69.5-3.15.52-4.84,1.09l-.08.19c-1.35.29-2.75.63-4.18,1l-1.92.68-1.89.78c-1.25.53-2.52,1-3.71,1.66.09,0,.14.06-.09.2-1,.55-2.45,1.09-3.84,1.9l-.6.38c-.14.12-.16.19-.17.24l-1.73.93a70.65,70.65,0,0,0-9.36,7.41c-1.53,1.32-2.87,2.87-4.32,4.35-.68.78-1.35,1.58-2,2.38-.34.4-.69.79-1,1.21s-.63.85-1,1.27L141,153.15c-.48.76-1,1.51-1.43,2.23-.36.53-.78,1.07-1.17,1.66s-.78,1.21-1.18,1.81-.81,1.21-1.18,1.8-.68,1.2-1,1.74c.35,0-.18,1.31-.58,2.58s-.7,2.45-.18,2c-.34.74-.83,1.64-1.11,2.43a4.82,4.82,0,0,0-.45,1.48c.33.54.28,1.88-.7,6-.42,1.61-1.19,4-1.26,4.63-.07.93.87-2,.79-1.08A69.76,69.76,0,0,1,149.18,149a63.57,63.57,0,0,1,14.72-11.66c.94-.51,1.85-1.11,2.82-1.55l2.87-1.39c1-.42,1.93-.78,2.86-1.17l1.38-.55,1.37-.47a85.66,85.66,0,0,1,8.51-2.37l.66-.16c4-.91,8.87-1.92,12.26-2.87,1.55-.47,3.12-1,4.68-1.52-.76.09-1.47.15-2.09.19a30,30,0,0,0,3.85-1c3.37-1.12,1.34-.9-.06-.94-1,.07.22-.5-1.3-.31l2.67-.65c.08-.19-3.26.91-2.58.46,1-.2,2.16-.57,3.21-.86-.41-.09-3.69.87-3.58.61.56-.18,3.06-.46,3.19-.79a11.84,11.84,0,0,0-1.56.34c3.23-.93,4.91-1.71,1.9-1.17,1-.26,2.48-.59,3.54-1h0l-2,.52,1.82-.54H208c-.46.11-.93.22-1.4.36l1.21-.36c-.33,0-.7,0-1.1.07-1.48.26-2.93.39-3.71.57C196.64,122.4,190.05,123.44,183.46,125Z"/><path class="cls-4" d="M208.55,155.31c.09.05.28-.2.17.26-.39,1.4-1.21,2.33-1.67,3.71l.11.16c-.47,1-1.12,2-1.7,3.06-.89,2-2,3.92-3,5.87.08,0,.14,0,0,.18-.44.8-1.15,1.85-1.86,3l-.27.5a.32.32,0,0,0,0,.25l-.93,1.31a140.48,140.48,0,0,1-11.79,16.52c-.91,1.23-1.86,2.43-2.82,3.55-1.47,1.62-3.48,3.54-5,5,.64.18-2.88,4-1.73,3.71a18.94,18.94,0,0,0-2.57,2.64c.1.58-.31,1.74-2.88,4.55-1,1.06-2.85,2.45-3.17,2.88-.49.68,1.65-1.05,1.15-.38a253.16,253.16,0,0,0,23.17-23.37c1.15-1.53,5.91-7.23,10.15-13.79,1-1.65,2.08-3.33,3-5s1.86-3.28,2.58-4.85c1.57-3.07,2.62-5.78,3.3-7.31l.19-.58c.61-1.73,1.35-3.62,1.84-5.52a46.49,46.49,0,0,0,1.14-5.26c.18-1.41.3-2.85.39-4.27-.21.63-.42,1.21-.61,1.71a20.46,20.46,0,0,0,.53-3.39c.23-3.07-.32-1.39-.89-.3-.31.8-.38-.36-.77.9.16-.93.24-1.39.39-2.33-.13-.13-.37,2.89-.53,2.2.21-.89.27-1.91.41-2.84-.25.29-.58,3.22-.78,3,0-.5.72-2.56.47-2.78a8.8,8.8,0,0,0-.28,1.35c.37-2.88.29-4.49-.35-1.92.14-.9.41-2.17.49-3.14h0c-.07.47-.21,1.3-.28,1.74l.22-1.64-.15.28c-.08.4-.16.81-.22,1.23l.15-1.09c-.12.27-.25.57-.37.9-.34,1.26-.77,2.44-.89,3.13A88,88,0,0,1,208.55,155.31Z"/><ellipse class="cls-1" cx="178.97" cy="303.62" rx="11.67" ry="10.89"/><path class="cls-4" d="M187.33,299.46c.1,0,.1-.24.27,0a6.37,6.37,0,0,1,.59,2.22l.17,0a6.81,6.81,0,0,1-.3,2,8.61,8.61,0,0,1-1.49,3.62c.06,0,.12,0,.05.15a6.22,6.22,0,0,1-1.53,1.49c-.09.09-.18.16-.27.24a.19.19,0,0,0,0,.18,7.26,7.26,0,0,1-.88.49,10,10,0,0,1-6.08,1.57,9.18,9.18,0,0,1-6.13-3,8.62,8.62,0,0,1-1.91-2.55,8.1,8.1,0,0,1-.62-2.44,9.16,9.16,0,0,1,0-1.28,3.55,3.55,0,0,1,.21-1c-.31,0-.3-.85.1-1.64s.89-1.49.38-1.44c.87-.78,2.36-1.58,2.37-1.74,0-.53.53-1.57,3.31-2.86,1.11-.46,2.87-.75,3.23-1,.57-.32-1.53.09-1-.24a32.28,32.28,0,0,0-6.3,2.31,14.73,14.73,0,0,0-3.12,2.1,7.89,7.89,0,0,0-2.42,3.85,8.55,8.55,0,0,0-.18,1.25,8.79,8.79,0,0,0,0,1,13.59,13.59,0,0,0,.22,1.92,13.18,13.18,0,0,0,1.27,3.6,13.94,13.94,0,0,0,5.16,5.54,14.28,14.28,0,0,0,5.57,1.65,14.49,14.49,0,0,0,9.13-2.38,13.39,13.39,0,0,0,5.58-8.2,11.52,11.52,0,0,0,.13-4.27,11.87,11.87,0,0,0-.92-3c-.09-.16-.17-.34-.27-.5a10.45,10.45,0,0,0-3.66-3.92,8.49,8.49,0,0,0-5-1.3,8.59,8.59,0,0,0-3.75,1.24,7.2,7.2,0,0,1,1.61-.25,6.42,6.42,0,0,0-2.72,1.26c-1,.88-1.08,1.23-.87,1.21s.79-.28,1.28-.36,0,.45,1,.12a6.49,6.49,0,0,0-1.42,1c0,.09.4-.29.8-.56s.78-.46.63-.23a5.34,5.34,0,0,0-1.6,1.25c.16,0,.58-.39,1-.68s.89-.48.89-.37-.57.26-.95.48-.68.48-.62.63a8.34,8.34,0,0,0,.75-.56,3.34,3.34,0,0,0-1.2,1.57c0,.3.13.18.75-.31a4,4,0,0,0-1,1.54h0a5.47,5.47,0,0,1,.52-.89,4.81,4.81,0,0,0-.44.84l.17-.1c.1-.21.25-.39.37-.6a5.61,5.61,0,0,0-.29.54c.13-.11.31-.22.45-.34a7.53,7.53,0,0,1,1.46-1,5,5,0,0,1,4.16-.78A5.82,5.82,0,0,1,187.33,299.46Z"/></g></svg>