<svg xmlns="http://www.w3.org/2000/svg" viewBox="0 0 500 500"><defs><style>.cls-1{fill:#1d1d1d;}.cls-2{fill:#b8e1f0;}</style></defs><g id="OUTLINE_ikons" data-name="OUTLINE ikons"><path class="cls-1" d="M421.27,212.7c0-.08-.75,0,.41-.25a21.82,21.82,0,0,1,5.41-.06c1.77.18,3.52.45,5.47.79l.31-.08a48.71,48.71,0,0,1,9,3,39.16,39.16,0,0,1,14.3,10c-.06-.15-.07-.24.34.18a32.65,32.65,0,0,1,4.9,7.79c.25.45.41.94.62,1.4a1.46,1.46,0,0,0,.32.47,18.56,18.56,0,0,1,.73,2.13,18.22,18.22,0,0,1,.55,2,48.53,48.53,0,0,1,1.59,13A68.69,68.69,0,0,1,464,266.56a37.32,37.32,0,0,1-5,12.71,29.81,29.81,0,0,1-2.05,2.82,30.91,30.91,0,0,1-2.37,2.63,36.56,36.56,0,0,1-5.61,4.53,51,51,0,0,1-11,5.62,107,107,0,0,1-18.93,4.66c.47.11-2.82.78-5.9,1.29-1.54.24-3,.48-3.94.64s-1.27.25-.54.27c-3.92.37-9.81.71-10.11.79a20,20,0,0,1-3.59.44c-2.17.17-5.54.3-10.76.29-4.08,0-10.35-.26-11.79-.32-2.26-.07,5.29.21,3,.14,7.58.34,15.11.46,22.61.26a194.52,194.52,0,0,0,22.46-1.76A96.5,96.5,0,0,0,442.74,296a51.3,51.3,0,0,0,10.37-5.59,36.85,36.85,0,0,0,8.61-8.48l.7-1,.81-1.36a40.67,40.67,0,0,0,1.91-3.64,47,47,0,0,0,3.26-10.83A76.12,76.12,0,0,0,469.49,251a47.6,47.6,0,0,0-2.76-15.88,41.37,41.37,0,0,0-3.77-7.49,40,40,0,0,0-5.28-6.41,39.5,39.5,0,0,0-6.27-5,42.88,42.88,0,0,0-6.64-3.56,47.22,47.22,0,0,0-21.9-4c-.58.07-1.16.14-1.74.23a18.3,18.3,0,0,0-2,.46c-.37.11-.61.16-.9.23l-.84.2c-.29.07-.56.15-.86.2l-.93.14-1.87.27-3.88.37-3.91.25c-5.21.26-10.26.37-14.41.45-3.8.08-7.68.12-11.54.11l4.89.18-9.35-.17c-8.37-.18-3.63,0-.42.23,2.31.15-.82.09,2.8.3l-6.54-.34c-.3,0,8.05.39,6.23.37l-7.94-.42c.9.11,9.05.53,8.64.56-1.41-.06-7.33-.48-7.84-.46l3.82.25c-8.05-.46-12.47-.86-5.14-.22-2.54-.21-6.14-.51-8.83-.76h0l4.9.44-4.58-.41.8.08,3.47.32-3-.28,2.59.26,9,.87c7.9.67,15.84,1.23,23.8,1.51,4,.14,8,.22,12,.13,1,0,2-.08,3-.12l1.52-.07,1.53-.16,1.54-.16a15.71,15.71,0,0,0,1.59-.29L420,213A12.2,12.2,0,0,1,421.27,212.7Z"/><path class="cls-1" d="M416.36,221.87c0-.08-.76-.08.43-.23a28,28,0,0,0,2.81-.49l1.11-.24,1.06-.13a32.85,32.85,0,0,1,4.64,0l.25-.11a35.11,35.11,0,0,1,8,1.89,34.26,34.26,0,0,1,13.09,7.61c0-.13-.06-.22.31.12a26.92,26.92,0,0,1,4.81,6.34c.22.39.46.76.66,1.15s.26.35.32.38a31.71,31.71,0,0,1,1.39,3.43,38.63,38.63,0,0,1,2.16,11.09,44.58,44.58,0,0,1-.86,11.62,32.19,32.19,0,0,1-4.56,10.95,34.87,34.87,0,0,1-8.6,8.94,47.44,47.44,0,0,1-9.26,5.51,67,67,0,0,1-8,2.94c-1.43.4-2.84.84-4.24,1.16l-2,.5-1.95.42c.21.05-.39.27-1.37.56s-2.38.58-3.7.89c-2.67.55-5.15,1-3.88,1-3.41.45-8.55.9-8.81,1-.78.21-3.4.8-12.54.88-3.57,0-9-.22-10.31-.28-2-.08,4.63.21,2.65.14,13.24.6,26.39.31,39.4-2.15a91.46,91.46,0,0,0,9.67-2.37,63.59,63.59,0,0,0,9.43-3.62,42.61,42.61,0,0,0,16.26-12.83l1.36-2.05.82-1.45c.3-.53.62-1.09.9-1.72a37.11,37.11,0,0,0,3.14-9.49,48.58,48.58,0,0,0,.69-12.56,38.84,38.84,0,0,0-3.48-13.79,33,33,0,0,0-9-11.52,38.32,38.32,0,0,0-12-6.5,39.39,39.39,0,0,0-11.32-2.05,25.29,25.29,0,0,0-4.72.28l-1.06.21-1,.28-1.38.33a9.7,9.7,0,0,1-1.3.24c-4.06.58-8.82.79-13.37,1s-9,.26-12.61.32c-3.33.09-6.71.14-10.09.15l4.28.16-8.19-.11c-7.31-.1-3.17,0-.36.24,2,.12-.72.08,2.44.27l-5.71-.28c-.26,0,7,.32,5.45.32l-6.94-.36c.78.09,7.9.45,7.55.49-1.23-.06-6.41-.42-6.86-.4l3.34.21c-7-.37-10.9-.71-4.49-.16l-7.72-.65h0l4.28.37-4-.34.7.06,3,.28-2.66-.24,2.27.22,7.89.78c6.91.6,13.84,1.1,20.79,1.44,3.48.17,7,.28,10.46.32A96.73,96.73,0,0,0,416.36,221.87Z"/><path class="cls-1" d="M82.09,209.07c0,.08.85.1-.5.22-4.18.4-7.61.36-11.84,1.08l-.28.18a72,72,0,0,0-10.14,2.08A44.52,44.52,0,0,0,42,222.2c.17-.07.26-.09-.22.37a35.42,35.42,0,0,0-6.54,8.4l-.79,1.58a1.18,1.18,0,0,0-.16.64c-.36.83-.69,1.61-1,2.36s-.51,1.49-.76,2.19a45.81,45.81,0,0,0-1.63,14.37,62.65,62.65,0,0,0,2,14.36A39.72,39.72,0,0,0,39.19,280,40.36,40.36,0,0,0,50.56,290.2a63.53,63.53,0,0,0,11.73,5.25,113.75,113.75,0,0,0,19.38,4.84c-.21-.13.53-.09,1.72,0s2.83.26,4.4.42c3.15.26,6,.48,4.63.15,2,.25,4.44.47,6.46.67s3.58.26,3.74.24a30.13,30.13,0,0,1,3.66,0c2.19.09,5.59.26,10.85.55,4.13.24,10.47.54,11.93.6,2.29.11-5.36-.27-3.06-.17-15.33-.86-30.39-2-45.06-4.89-1.84-.33-3.64-.79-5.46-1.19s-3.62-.89-5.39-1.44a77.46,77.46,0,0,1-10.41-3.79c-6.71-3-12.86-7.22-17.09-13.08a36.17,36.17,0,0,1-6.36-15A63.75,63.75,0,0,1,35.17,250,38.37,38.37,0,0,1,38,235.66a29.8,29.8,0,0,1,3.72-6.45,32,32,0,0,1,5.17-5.29,42.33,42.33,0,0,1,12.49-6.79,71.26,71.26,0,0,1,12-3c3.59-.61,6.63-.9,8.91-1.15l1.63-.18c4.87-.46,10.38-.73,15.67-1l14.62-.67c3.86-.18,7.79-.35,11.69-.46l-5,0,9.48-.13c8.47-.05,3.67-.08.42-.24-2.35-.07.82-.1-2.85-.21l6.63.15c.31,0-8.16-.16-6.32-.19,2.55.06,5.41.1,8,.2-.91-.1-9.18-.28-8.77-.32,1.43,0,7.45.26,8,.24.1,0-2.55-.11-3.87-.15,8.16.22,12.65.64,5.21.09,1.29.07,2.85.17,4.43.3.79.07,1.58.14,2.34.24.38,0,.76.1,1.12.16.18,0,.36.07.53.12a1.06,1.06,0,0,1,.25.09c.07,0,.2.08.15.18v0c0-.18-.28-.2-.45-.26l-.61-.13-1.34-.19c-.92-.1-1.82-.18-2.45-.23a29.81,29.81,0,0,1,4.62.61,6.56,6.56,0,0,0-.79-.19c-1.15-.19-2.31-.3-3.52-.41,1,.09,2.06.19,3.09.34-.77-.12-1.66-.22-2.63-.32-3.66-.34-7.18-.59-9.17-.7-8-.44-16.09-.69-24.14-.83S90.21,208.65,82.09,209.07Z"/><path class="cls-1" d="M89.88,216.29c0,.08.77.12-.47.21-2,.13-3.66.2-5.41.27s-3.49.18-5.43.45l-.26.17A78.53,78.53,0,0,0,69,218.83a46.67,46.67,0,0,0-16.54,7.3c.16,0,.25,0-.23.32a32.08,32.08,0,0,0-6.91,6.94l-.9,1.37a1.24,1.24,0,0,0-.19.59,31.59,31.59,0,0,0-2.06,4A35.92,35.92,0,0,0,40,252.61a42,42,0,0,0,2.29,13.22,33.12,33.12,0,0,0,7.17,11.71,42.31,42.31,0,0,0,11.24,8.29,75.1,75.1,0,0,0,10.92,4.33c2.67.91,5.76,1.72,8.85,2.49,1.55.35,3.09.7,4.59,1s3,.57,4.31.77c-.38-.27,2.71.14,5.6.36s5.53.42,4.23.12c3.6.48,9,.92,9.32.87.85-.15,3.64-.07,13.26.52,3.77.23,9.57.53,10.9.6,2.09.1-4.9-.28-2.8-.18-14-.86-27.75-2-41.15-4.69a108.22,108.22,0,0,1-19.52-5.66c-6.21-2.57-12.15-6-16.59-10.87-.39-.4-.88-1-1.5-1.68-.31-.35-.58-.79-.92-1.22a16.34,16.34,0,0,1-1-1.47,29,29,0,0,1-3.68-8.43,40.21,40.21,0,0,1-1.18-11.9c0-1.08.19-2.14.28-3.24.09-.53.19-1.07.29-1.61l.15-.81.21-.8a24.91,24.91,0,0,1,2.43-6.19,26.64,26.64,0,0,1,9.25-9.62,45.72,45.72,0,0,1,12-5.22,104.22,104.22,0,0,1,19.27-3.15l1.47-.13c4.47-.32,9.5-.48,14.34-.65l13.38-.43,10.69-.33-4.53-.07,8.67-.07c7.75-.08,3.36-.09.38-.24-2.14-.08.76-.1-2.59-.22l6.05.14c.28,0-7.46-.14-5.78-.18l7.37.18c-.84-.07-8.39-.25-8-.3,1.31,0,6.81.27,7.27.23l-3.54-.13c7.46.2,11.57.42,4.76.05l8.2.43h0l-4.54-.24,4.25.23-.74,0-3.23-.18,2.82.16-2.4-.16-8.38-.56q-11-.65-22-1.06C104.64,216.31,97.3,216.11,89.88,216.29Z"/><path class="cls-2" d="M381.74,238.77c-5.71-5.69,4.08-37.36,0-42.23s-119.89-40.62-132.42-41.43S123.19,202.22,120.74,203h0c-.14.74-1.08,5.38-.47,8.13l1.88,16.14c-8,14-6.3,44-5.48,48s-11.75,39.4-6,41.84,117,32.07,147.7,27.2,136.46-34.12,136.46-34.12C399.68,287.5,387.45,244.46,381.74,238.77Z"/><path class="cls-1" d="M299.77,172.43c.12-.13-2.33-1,1.57.06,12.26,3.47,21.87,7.08,34,10.95l1,0c9.31,3.23,19,6.74,28.67,10.57,2.58,1,5.14,2,7.63,3,1.24.52,2.47,1,3.63,1.59.57.27,1.14.54,1.62.81l.12.06h0s0,0,0,.11a6.45,6.45,0,0,1,.08.83c0,.3,0,.68,0,1,0,1.45-.13,3.06-.29,4.69-.33,3.27-.81,6.66-1.27,10.08s-.91,6.9-1.16,10.52a54.67,54.67,0,0,0-.13,5.63,24.84,24.84,0,0,0,.27,3.1,13.56,13.56,0,0,0,.35,1.7,13.25,13.25,0,0,0,.61,1.89c-.09-.4-.14-.7,0-.54a3.92,3.92,0,0,1,.3.62c.11.19.24.43.39.71a4.87,4.87,0,0,0,.65,1l1,1.26.28.4c.1.14.21.35.31.52a28.67,28.67,0,0,1,1.32,2.61c.86,2,1.7,4.19,2.49,6.56,1.57,4.75,3,10.07,4.21,15.53.38,1.6.74,3.22,1.07,4.81a6.48,6.48,0,0,0,.59,1.72c.91,5,1.5,9.43,1.87,13.55a105.4,105.4,0,0,1,.64,10.69c0,1.79,0,3.61-.19,5.42l-.12,1.37-.08.68,0,.27v.08a4.65,4.65,0,0,1-.08.61l-.43.15-.11,0-.06,0-.15,0-1.09.31-4.37,1.26-8.78,2.52-17.72,5q-17.82,5-36.12,10.05c-12.21,3.35-24.6,6.67-37.22,9.83-6.31,1.59-12.67,3.11-19.1,4.52-1.61.37-3.22.64-4.83,1l-2.42.48c-.79.12-1.56.2-2.35.31a69.93,69.93,0,0,1-9.75.27c-6.44-.14-12.94-.74-19.36-1.52s-12.76-1.74-19-2.84c-18.39-3.25-41.61-8.76-59.27-13.24,1.26.71-8.91-1.55-18.28-3.86s-18-4.71-13.8-3.11c-1.47-.45-3-.91-4.61-1.5a2.75,2.75,0,0,1-1.29-.78,3.58,3.58,0,0,1-.72-1.38,10,10,0,0,1-.35-2.72,52.56,52.56,0,0,1,1.31-10c1.29-6.09,2.55-10.72,2.59-11.2.13-1.42.79-4.43,2.22-10.94.17-.81.34-1.68.47-2.58a10.21,10.21,0,0,0,.11-1.3c0-.08,0-.17,0-.21l0-.37c0-.28-.09-.57-.13-.86-.26-2.22-.39-4.66-.48-7.42a142,142,0,0,1,.86-20.28,89,89,0,0,1,1.89-10.33,50.82,50.82,0,0,1,1.74-5.32c.18-.43.32-.87.52-1.29l.63-1.23c.2-.38.39-.76.58-1.14,0,0,0,0,0-.12l0-.33-.09-.65c-.85-6.94-1.58-12.85-1.85-15.07-.26-1.74-.24-1.59-.08-.51s.38,3.12.63,5.16c.48,4.07,1,8.14.53,4.65l.51,4.38.26,2.18,0,.27s0,0,0,0,0,0,0,0l0,.06-.06.12-.13.25-.52,1-.52,1c-.15.34-.27.69-.41,1l-.82,2.08L119,235a20.72,20.72,0,0,0-.58,2.15,104.82,104.82,0,0,0-2.55,17.48,157,157,0,0,0-.2,17.63c0,.73.11,1.5.16,2.24l.08.61,0,.31,0,.15v.08c.21,0-.46.14.48,0-.7.16-.42.05-.48.12v.14c0,.1,0,.25,0,.39a35.88,35.88,0,0,1-.85,4c-.7,2.76-1.51,5.55-2.28,8.34-1.56,5.59-3.14,11.18-4.21,17.07a43.63,43.63,0,0,0-.59,4.56,20.24,20.24,0,0,0,0,2.48,13.65,13.65,0,0,0,.14,1.36,8,8,0,0,0,.45,1.7,5.15,5.15,0,0,0,1.16,1.81,4.16,4.16,0,0,0,.85.65,4.25,4.25,0,0,0,.94.45l1.16.42,1.07.37,4.17,1.35c11.09,3.45,22.21,6.61,33.39,9.62s22.41,5.85,33.73,8.47,22.71,5,34.28,7c5.78,1,11.62,1.87,17.53,2.53a118.41,118.41,0,0,0,18.21.85l1.18-.05,1.22-.13c.81-.09,1.66-.16,2.42-.28l4.44-.77c1.49-.24,3-.53,4.41-.83l4.37-.88q8.7-1.83,17.36-3.86c6.44-1.58,20.43-5,39-9.86,9.28-2.42,19.71-5.17,30.93-8.19l17.35-4.72,21-5.81c.21-1.11.41-2.21.62-3.31l.3-1.66c.06-.27.08-.56.13-.84l.1-.77c.2-1.31.27-2.59.39-3.89.16-2.58.19-5.15.13-7.71a129.18,129.18,0,0,0-1.36-15.23,178.76,178.76,0,0,0-7-29.8c-.82-2.45-1.69-4.87-2.73-7.31-.53-1.22-1.07-2.44-1.75-3.7-.16-.31-.33-.62-.53-.95s-.36-.64-.6-1-.47-.69-.73-1l-.45-.51-.22-.26-.1-.11v0s-.07,0-.06-.1a.6.6,0,0,1-.1-.21,5.54,5.54,0,0,1-.27-1,19,19,0,0,1-.27-2.93,60.88,60.88,0,0,1,.33-6.78c.43-4.66,1.13-9.37,1.68-14.14.28-2.39.54-4.79.64-7.3a32,32,0,0,0-.06-4c0-.17,0-.35-.06-.55l-.09-.62a11.25,11.25,0,0,0-.36-1.53,9.54,9.54,0,0,0-1.41-2.77c-.34-.35-.71-.67-1.08-1s-.81-.56-1.24-.8-.75-.42-1-.54l-.8-.4c-1.05-.5-2.06-.94-3.07-1.37-2-.85-4-1.62-5.92-2.36-3.9-1.47-7.7-2.83-11.41-4.11-7.4-2.57-14.41-4.85-20.88-6.9-12.94-4.09-23.76-7.23-31.45-9.39l-4.9-1.34c-7.37-2-15.16-4-23.16-5.86a212.11,212.11,0,0,0-24.51-4.42,42.78,42.78,0,0,0-6.43-.23,57.11,57.11,0,0,0-6.27.63c-4,.65-7.89,1.58-11.61,2.55-7.4,2-14.21,4.29-20.3,6.47-11.15,4-22.3,8.59-33.32,13.27,5.16-2.08,10-3.92,14.17-5.47-11.37,4.4-22.57,9.16-26.85,11.05-11.88,5.18-14.41,6.41-12.86,5.77s7.24-3,11.88-4.82c6.66-2.65-2.25,1.15,8.18-3-7.5,3-11.25,4.57-18.74,7.72-.41.21,5.33-2.23,10.56-4.38s9.94-4,7.36-2.91c-7.25,2.87-15.3,6.27-22.76,9.42l13.8-5.68c6-2.46,11.62-4.65,11.06-4.36l-12.28,4.89c-5,2-9.55,3.93-10.25,4.28l11-4.5c-11.54,4.73-20.42,8.56-23.83,10s-1.33.58,9.21-3.74c-7.32,3-17.6,7.39-25.32,10.61l.06,0c3.87-1.58,10.48-4.43,14-5.91l-13.12,5.55,2.29-1,10-4.19-8.72,3.67,7.44-3.09c10.37-4.31,20.4-8.21,26.06-10.41,11.42-4.46,22.91-8.79,34.48-12.81s23.25-7.8,35-10.7a109.11,109.11,0,0,1,17.63-3.06c1.42,0,2.84-.12,4.22,0s2.88.27,4.34.47c2.93.42,5.89,1,8.84,1.6C276.28,165.69,288.07,169,299.77,172.43Z"/><path class="cls-1" d="M196.54,207.06c0-.09-.72,0,.38-.28,3.47-.87,6.34-1.17,9.82-2l.22-.18c2.71-.54,5.55-1,8.44-1.54,2.65-.57,5.3-1.05,7.93-1.58s5.27-1,7.9-1.47c-.15,0-.23-.07.3-.18,1.09-.2,2.39-.45,3.82-.64l4.54-.6,1.38-.22a1.09,1.09,0,0,0,.49-.2c1.42-.14,2.68-.24,3.85-.33,1-.1,1.93-.25,2.88-.32l2.83-.11a43,43,0,0,1,5.77.15c3.89.31,7.85.79,11.86,1.39,8,1.16,16.21,2.61,24.71,4.27,3.61.62,7.22,1.3,10.68,2,5.11,1.1,11.6,2.69,16.56,3.87-.33-.27,2.54.26,5.19.79s5.1,1,3.93.57c3.3.85,8.23,2.17,8.5,2.17.82,0,3.42.42,12.09,3,3.39,1,8.57,2.67,9.76,3,1.87.6-4.37-1.42-2.49-.83-12.51-4.09-24.9-7.76-37.38-11.15s-25.07-6.52-38.06-9.31l-5.54-1.06-4.22-.8-5-.84c-1.79-.32-3.71-.59-5.71-.84l-3.07-.41-3.25-.26a50,50,0,0,0-6.83-.07l-.87,0-.86.09-1.72.17-3.47.36c-18.34,2.49-36.83,7.39-44.42,9.26l-1.38.36c-8.26,2.11-18.2,5-25.1,7.16l-9.55,3.05,4.1-1.11c-3.27,1-6.54,1.92-7.78,2.33-6.93,2.14-3,1-.28.33,1.95-.49-.65.29,2.4-.48l-5.48,1.48c-.24.1,6.74-1.85,5.24-1.36L153,216.53c.77-.16,7.6-2,7.28-1.84-1.19.3-6.18,1.55-6.59,1.71l3.21-.82c-6.75,1.79-10.48,2.74-4.28,1.23l-7.46,1.85h0l4.13-1-3.87,1,.68-.16,2.94-.72-2.57.63,2.19-.52,7.67-1.74C169.7,213,183.16,210,196.54,207.06Z"/><path class="cls-1" d="M185.47,262.15c0-.08-.75-.08.43-.24,3.71-.46,6.74-.48,10.46-.94l.25-.16,9-.7,16.85-1.79c-.15,0-.22-.08.33-.16,2.32-.28,5.55-.53,8.9-.85l1.46-.17a1.34,1.34,0,0,0,.53-.18l4.1-.36c16.37-1.9,33-3.83,51.06-5.45,3.82-.42,7.64-.76,11.33-1.05,2.73-.17,5.85-.33,8.94-.48l8.84-.33c-.41-.18,2.63-.4,5.46-.59s5.43-.3,4.13-.46l5.83,0c1.81,0,3.22,0,3.36,0,.83-.15,3.59-.48,13,.3,1.85.22,4.19.41,6.22.74l4.4.68c2,.32-4.74-.76-2.71-.45a179.3,179.3,0,0,0-20.44-2c-6.81-.37-13.59-.45-20.37-.44-13.57.09-27.14.71-41,1.61-4.71.39-22.94,1.81-42,3.85s-38.87,4.59-47,5.68l-1.47.21c-8.83,1.2-19.54,2.87-27,4.16l-10.33,1.83,4.41-.59c-3.53.53-7.05,1.08-8.4,1.33-7.49,1.24-3.24.59-.33.29,2.08-.24-.72.21,2.54-.17l-5.88.77c-.27.07,7.25-1,5.62-.68l-7.16.92c.82-.07,8.16-1,7.81-.9-1.27.16-6.63.74-7.08.86l3.45-.41c-7.25.92-11.25,1.37-4.61.67l-8,.87h0l4.43-.48-4.15.45.73-.08,3.15-.33-2.76.29,2.35-.22,8.2-.74Z"/><path class="cls-1" d="M306.92,294.57c0,.08.71-.07-.34.32-3.34,1.17-6.14,1.77-9.49,2.93l-.19.21-8.18,2.33-7.67,2.34-7.64,2.22c.15,0,.23.06-.27.22-2.11.64-5.08,1.29-8.13,2.07-.45.13-.9.22-1.34.33a1.05,1.05,0,0,0-.47.23l-3.76.77-1.41.33-1.4.25-2.81.51c-.47.08-.94.18-1.41.24L251,310l-2.85.24c-.47,0-.94.09-1.43.1h-4.39c-2,.05-3.94-.09-5.94-.18-4-.12-8-.56-12.14-.89s-8.29-.87-12.53-1.48l-5.4-.64-5.27-.78c-2.56-.39-5.46-.94-8.34-1.49s-5.74-1.1-8.22-1.59c.34.25-2.52-.16-5.17-.58s-5.08-.84-3.91-.42c-3.29-.72-8.22-1.88-8.49-1.87-.81,0-3.4-.3-12.06-2.61-3.38-.92-8.55-2.45-9.73-2.81-1.87-.56,4.35,1.32,2.48.77,12.48,3.8,24.87,7.05,37.37,9.92s25.14,5.34,38.21,7.19c1.12.14,3,.32,5.58.6,1.27.13,2.69.32,4.25.44l5.07.37c1.79.17,3.73.17,5.75.21l3.09.06,3.24-.19c1.1-.09,2.23-.09,3.33-.26l3.35-.54c2.27-.3,4.46-.89,6.71-1.37,17.82-4.29,35.59-10.89,42.89-13.49l1.32-.49c7.93-2.91,17.45-6.73,24-9.53l9.12-3.95c-1.44.56-2.77,1.07-3.93,1.49,3.13-1.25,6.25-2.54,7.44-3.05,6.62-2.81,2.85-1.27.24-.37-1.87.68.61-.35-2.32.71l5.26-2c.23-.12-6.46,2.49-5,1.86,2-.74,4.28-1.63,6.38-2.41-.74.23-7.29,2.72-7,2.53,1.14-.42,5.94-2.13,6.33-2.34l-3.08,1.13c6.47-2.44,10.05-3.74,4.1-1.63l7.16-2.57h0l-4,1.43,3.72-1.33-.65.23-2.83,1,2.48-.88-2.12.73-7.39,2.47C332.79,286.08,319.83,290.38,306.92,294.57Z"/></g></svg>