<?xml version="1.0" encoding="utf-8"?>
<!-- Generator: Adobe Illustrator 25.4.1, SVG Export Plug-In . SVG Version: 6.00 Build 0)  -->
<svg version="1.1" id="Lager_1" xmlns="http://www.w3.org/2000/svg" xmlns:xlink="http://www.w3.org/1999/xlink" x="0px" y="0px"
	 viewBox="0 0 500 500" style="enable-background:new 0 0 500 500;" xml:space="preserve">
<style type="text/css">
	.st0{fill:#F9CDDE;}
	.st1{fill:#CC0066;}
	.st2{fill:#EB6F00;}
	.st3{fill:#1D1D1D;}
</style>
<g id="OUTLINE_ikons">
	<path class="st0" d="M164.8,303.8c0,0-27.7-59.1-6.2-84.9c63.9-76.7,233.9-43.9,215.1,33.2s-60.3,52.1-107.7,64.4
		C253,320,167.8,313.4,164.8,303.8z"/>
	<path class="st0" d="M369.6,226.1c20-2.7,36.1-19,43.5-37.8s7.4-39.6,5.7-59.6c-1.9-22-2.6-31.3-8.2-52.6L398.4,76
		c0.1,23.3,0.2,46.5,0.3,69.8c0.1,11,0.1,22.2-2.7,32.9s-8.8,21-18.2,26.6c-6.3,3.8-13.7,5.2-21,6.6L369.6,226.1z"/>
	<path class="st0" d="M155.8,231.9c-22-2.6-40.9-17.2-52.3-35.2s-16.2-39-18.8-59.9s-3.2-41.9-7.1-62.5h18.8
		c0.2,26.7,3.4,53.3,9.7,79.2c3.4,13.9,7.8,27.9,16,39.9s20.7,21.9,35.6,24.6L155.8,231.9z"/>
	<circle class="st1" cx="217.2" cy="274.3" r="10.4"/>
	<circle class="st1" cx="319.7" cy="241.6" r="10.4"/>
	<circle class="st1" cx="240.2" cy="238.4" r="10.4"/>
	<path class="st0" d="M223.6,341.2c2.4-0.5,64.9,0.9,64.9,0.9S269.6,375.2,273,418h-18c0,0-15.8-58.6-24.8-67.5
		S223.6,341.2,223.6,341.2z"/>
	<ellipse class="st1" cx="250" cy="219.4" rx="6.5" ry="6.5"/>
	<circle class="st1" cx="309.3" cy="260.9" r="6.5"/>
	<circle class="st1" cx="274.6" cy="254.5" r="6.5"/>
	<circle class="st1" cx="205.8" cy="254.4" r="6.5"/>
	<path class="st2" d="M155.4,279.3c0,0,5.6-14,32.8-9.3s19.1,12.1,43.8-1s30.3,6.5,48.6,9.6s15.8-20.4,39.4-14.1s9.5,16.5,30.7,6.7
		s30.2,1.2,4.8,21.2c-74,58.2-61.8,47.6-75.7,71.8c-19.5,33.7-41-12.1-58.6-22.4S161.7,313.8,155.4,279.3z"/>
	<path class="st3" d="M162.3,287.7c-0.2,0,0.8,2.2-1.1-1c-2.7-4.6-4.8-9.5-6.2-14.6c-1.5-5.1-2.5-10.3-3-15.5l-0.4-0.8
		c-0.3-4.4-0.1-8.9,0.6-13.3c0.7-4.5,1.9-8.8,3.6-13c0.8-1.9,1.6-3.8,2.6-5.6s2.1-3.6,3.3-5.3s2.5-3.3,3.9-4.9
		c0.7-0.8,1.5-1.5,2.2-2.3l1.1-1.1l1.2-1c6.4-5.7,13.7-10.3,21.5-13.8c-0.4,0.1-0.7,0,0.9-0.7c3.9-1.7,7.8-3.2,11.9-4.5
		c4.5-1.4,9.5-2.8,14.7-3.9l4.6-1c0.6-0.1,1.1-0.3,1.6-0.6c4.7-0.9,8.9-1.6,12.9-2.1c13-2,26.1-2.9,39.2-2.7
		c6.6,0.1,13.3,0.4,19.8,1.1c6.6,0.7,13.2,1.9,19.6,3.5c6.5,1.6,12.8,3.8,18.9,6.6s11.8,6.4,17,10.7c5.2,4.4,9.5,9.7,12.7,15.7
		c1.6,3,2.9,6.2,3.9,9.5c1,3.4,1.6,6.8,1.9,10.3l0.2,2.2l0.1,2.2c0.1,1.5,0,3,0,4.5c-0.5,8.9-2.7,17.6-6.5,25.7
		c-4.2,8.5-9.7,16.3-16.4,23c-6.6,6.7-13.8,12.7-21.6,18c0.7-0.1-0.9,1.3-3.6,3.3s-6.6,4.8-10.4,7.4c-7.5,5.2-14,10.4-10.3,8.5
		c-5.1,3.4-9.9,7.4-14.3,11.7c-1,1-1.9,2-2.6,3c-0.4,0.5-0.8,0.9-1.1,1.4l-0.9,1.3c-0.7,0.9-1.2,1.8-1.8,2.8c-0.2,1.4-1.4,4-3.5,9.7
		s-4.6,14.8-5.4,29.6c-0.4,5.8-0.5,13.2-0.4,19.7s0.4,12.1,0.6,14.2c0.3,3.3,0.3-0.6,0.3-4.4s0-7.6,0.3-4.4
		c-0.2-5.5-0.3-10.9-0.2-16.2c0.1-5.3,0.5-10.6,1.2-15.9c0.7-5.1,1.8-10.2,3.3-15.1l0.6-1.8c0.2-0.6,0.4-1.2,0.6-1.8l1.4-3.5
		l1.7-3.4c0.5-1.1,1.2-2.2,1.9-3.2c0.3-0.5,0.6-1.1,1-1.6l1.1-1.5c0.7-1,1.4-2,2.2-2.9c1.6-1.9,3.3-3.7,5.2-5.4
		c3.9-3.5,8-6.6,12.4-9.5c4.4-3,8.9-5.9,13.5-8.8s9.3-5.9,13.9-9.2c9.3-6.5,17.7-14.2,25-22.9c3.7-4.4,7-9.2,9.8-14.2
		c2.9-5.1,5.2-10.5,6.9-16c3.6-11.4,4.3-23.5,1.9-35.2c-1.3-5.9-3.5-11.6-6.5-16.9c-1.5-2.6-3.2-5.1-5.1-7.5c-1.9-2.3-4-4.6-6.2-6.6
		c-5-4.5-10.6-8.4-16.5-11.5c-9.7-5-20.1-8.7-30.9-10.8c-6.5-1.4-13-2.3-19.6-2.9c-6.8-0.6-14-0.9-21.3-0.9
		c-15.3,0-30.5,1.5-45.6,4.3c-7.8,1.4-15.5,3.3-23,5.6c-7.6,2.3-14.9,5.4-21.9,9.1c-6.9,3.6-13.3,8.2-19,13.6
		c-5.4,5.2-9.9,11.4-13.2,18.2c-0.8,1.6-1.5,3.3-2.1,5s-1.1,3.4-1.7,5s-0.9,3.4-1.2,5c-0.1,0.8-0.3,1.7-0.4,2.5s-0.3,1.6-0.4,2.4
		c-0.7,6.1-0.7,12.2,0.1,18.3c0.6,5.1,1.8,10.2,3.4,15.1c1.2,3.9,2.8,7.7,4.6,11.3l1.1,2.2l1.2,2.2c3.8,6.8,8.5,13.1,13.8,18.9
		c5.4,5.9,11.3,11.3,17.6,16.1c6.1,4.6,12.4,8.9,19,12.7c6.3,3.6,12.1,6.8,17.1,9.9c2.3,1.4,4.6,2.9,6.7,4.4
		c6.5,4.4,11.3,10.9,13.7,18.4c-1.3-4.3-3.1-8.4-5.6-12.2c3,4.2,5.2,8.9,6.7,13.9c1.4,4.5,2.3,8.3,2.8,10.4
		c1.3,5.9,1.8,9.5,2.2,11.4s0.5,2.2,0.6,1.4c0-4-0.3-8-0.7-12c-0.5-3.3-0.2-2.8,0.1-2.7s0.2,0,0.2-0.8c-0.2-1.6-0.5-3.2-0.9-4.8
		c1,3.7,1.6,6.5,2.1,9.4s0.9,5.7,1.4,9.5c0.2,0.4-0.5-5.5-1.5-10.7s-2.4-9.9-1.4-7.4c1.8,7.6,3.1,15.3,3.9,23
		c-0.2-4.7-0.7-9.4-1.5-14.1c-1-6.1-2.6-11.7-2.2-11.1c1.1,4.1,2,8.2,2.5,12.4c0.8,5,1.2,9.7,1.5,10.5c-0.3-3.8-0.7-7.5-1.4-11.2
		c1,5.9,1.7,11.1,2.1,15.3s0.7,7.4,0.9,9.1s0.3,2.1,0.4,0.6s0.1-4.7-0.2-10.1c0.7,7.5,0.8,18.2,0.9,26.1v-0.1
		c0-3.9-0.1-10.8-0.2-14.4c0.2,4.5,0.3,9,0.3,13.5c0.1-0.7,0.1-1.5,0.2-2.4c0-3.4,0-6.7-0.2-10.3c0.1,3,0.2,6,0.2,9
		c0.1-2.2,0.2-4.8,0.3-7.7c0-5.4-0.1-10.6-0.4-15.3s-0.7-8.7-1.1-11.6c-0.9-6-2.2-11.9-4-17.7c-1.8-6.1-4.8-11.9-8.7-16.9
		c-2.1-2.5-4.4-4.7-7-6.7c-2.4-1.9-4.9-3.7-7.4-5.3c-5-3.3-10.1-6.2-15.1-9.1c-9.8-5.6-19-12.1-27.5-19.5
		C175.2,305.7,168,297.2,162.3,287.7z"/>
	<path class="st3" d="M393.7,194.2c-0.1-0.1-0.5,0.3,0-0.4c1.4-2.1,2.7-4.2,3.8-6.5l-0.1-0.2c1-1.9,1.8-3.9,2.6-5.9
		c1.2-3.8,2.1-7.8,2.6-11.8c-0.1,0.1-0.1,0.1-0.1-0.3c0.2-1.6,0.5-3.9,0.7-6.2c0-0.4,0-0.7,0-1c0-0.1,0-0.3-0.1-0.4
		c0.1-1,0.1-2,0.2-2.9c0.1-5.7-0.1-11.4-0.4-17.2s-0.4-11.8-0.6-18c-0.2-2.6-0.3-5.2-0.4-7.8c-0.1-3.8,0-8.5,0-12.2
		c-0.6,0.6-0.9-8.3-1.5-6.6c0.1-2.1,0-4.2-0.2-6.3c-0.5-0.6-1.1-2.4-1.4-8.9c-0.1-2.5,0.1-6.4,0-7.3c-0.2-1.4-0.3,3.3-0.5,1.9
		c-0.1,18.8,0.2,37,0.3,55.9c0.1,1.6,0.1,5.5,0.2,10.7s0.2,11.5-0.2,17.9c-0.3,6.1-1.3,12.2-3,18.1c-0.7,2.4-1.7,4.7-2.7,6.9
		c-0.8,1.6-1.6,3.1-2.6,4.6c-0.2,0.3-0.3,0.6-0.5,0.8c-1.7,2.5-3.7,4.8-5.9,6.9c-2.1,1.9-4.4,3.5-6.8,4.9c-2,1.1-4.1,2.1-6.2,2.9
		c1.1-0.2,2-0.5,2.9-0.7c-2.2,0.8-4.5,1.4-5.4,1.8c-4.9,1.4-2,1.1,0,1c1.4-0.2-0.4,0.6,1.9,0.1c-1.6,0.4-2.4,0.6-4,1
		c0.8-0.1,1.5-0.2,2.2-0.5c1.1-0.3,2.1-0.6,1.6-0.3c-1.5,0.4-3.2,0.9-4.8,1.2c1-0.1,2-0.3,3-0.5c0.8-0.3,1.6-0.4,2.4-0.5
		c-0.8,0.3-4.5,0.9-4.8,1.2c0.8-0.1,1.6-0.3,2.4-0.5c-2.4,0.6-4.3,1.1-5,1.4s-0.2,0.3,2,0c-1.6,0.3-3.8,0.6-5.5,1l0,0l3-0.5
		l-2.8,0.5h0.5c0.7-0.1,1.4-0.2,2.1-0.4l-1.9,0.4c0.5,0,1,0,1.6-0.1c2.3-0.3,4.5-0.5,5.7-0.8c5.1-1,10-2.9,14.5-5.6
		C386.9,202.4,390.7,198.6,393.7,194.2z"/>
	<path class="st3" d="M408.9,204.1c-0.1-0.1-0.5,0.4,0-0.4c0.8-1.2,1.7-2.2,2.4-3.4c0.8-1.1,1.6-2.3,2.2-3.5v-0.3c0.6-1,1.2-2,1.8-3
		s1.2-2.1,1.6-3.2c1.8-4.1,3.2-8.3,4.2-12.6c-0.1,0.1-0.1,0.1-0.1-0.3c0.2-0.9,0.5-2,0.7-3.1s0.5-2.4,0.8-3.7
		c0.1-0.4,0.1-0.8,0.2-1.1c0-0.1,0-0.3,0-0.4c0.2-1.2,0.4-2.2,0.5-3.2c1.4-12.8,0.7-25.7-0.8-39.5c-0.4-2.9-0.8-5.8-1.1-8.6
		c-0.4-4.2-0.9-9.5-1.4-13.5c-0.2,0.3-0.8-1.9-1.3-4s-1.1-4-1.2-3c-0.3-2.3-0.8-4.6-1.4-6.8c-0.6-0.5-1.5-2.5-3.4-9.4
		c-0.7-2.7-1.6-6.9-2-7.9c-0.5-1.5,0.6,3.6,0,2.1c2.6,9.9,4.6,20,5.9,30.2c0.7,5.1,1.2,10.2,1.6,15.3s1,10.3,1.2,15.6
		c0.2,1.8,0.4,6.1,0.5,11.8c0,2.8-0.1,6-0.3,9.4s-0.6,6.9-1.2,10.4c-1,6.8-2.9,13.4-5.6,19.8c-1.9,4.4-4.2,8.6-7,12.4l-0.6,0.9
		c-4,5.4-8.8,10.1-14.2,14.1c-2.1,1.6-4.2,2.9-6.5,4.2c1.2-0.4,2.2-0.9,3.1-1.2l-1.7,0.9l-1.6,0.8c-1,0.5-1.8,0.9-2.3,1.1
		c-5.2,2.1-2.2,1.3,0.1,1c0.8-0.2,0.7,0,0.7,0.1s0.1,0.2,1.3-0.2c-0.7,0.3-1.4,0.6-2.1,0.8l-2.1,0.8c0.8-0.2,1.6-0.5,2.4-0.8
		c1.2-0.4,2.2-0.9,1.7-0.5c-0.8,0.4-1.7,0.6-2.6,1s-1.8,0.7-2.7,0.9c0.7,0.2,6-2,5.8-1.8s-0.6,0.3-1.1,0.5l-1.7,0.5
		c-0.8,0.2-1.6,0.5-2.4,0.9c0.9-0.2,1.7-0.5,2.6-0.8l-1.9,0.7c-0.6,0.2-1.1,0.4-1.6,0.5c-1,0.3-1.7,0.6-2.1,0.7s-0.5,0.2-0.1,0.2
		s1.1-0.2,2.4-0.4c-1,0.3-2,0.5-3,0.7c-1.1,0.2-2.2,0.4-3.2,0.5l0,0l3.5-0.6l-3.2,0.6h0.6c0.8-0.1,1.6-0.2,2.5-0.4l-2.2,0.4
		c0.6,0,1.2,0,1.9-0.1c2.2-0.2,4.3-0.7,6.4-1.3C392.8,220.7,402.1,213.2,408.9,204.1z"/>
	<path class="st3" d="M127.4,195.9c-0.1,0.1,0.2,0.6-0.4-0.1c-1.4-2-2.8-4.1-4-6.3l-0.2-0.1c-1-1.8-1.9-3.8-2.9-5.8
		c-1.8-3.7-3.4-7.4-4.8-11.2c0,0.1-0.1,0.2-0.2-0.2c-0.6-1.6-1.3-3.8-2-6.2l-0.3-1c-0.1-0.3-0.2-0.3-0.2-0.3c-0.3-1.1-0.6-2-0.8-2.9
		c-3.6-12.1-6.6-24.3-8.8-36.8c-0.6-2.8-1.1-5.6-1.6-8.2c-0.6-4-1.1-9.1-1.4-13c-0.6,0.7-1.6-8.9-2-7c-0.2-2.6-0.4-6.6-0.6-6.8
		c-0.5-0.6-1.2-2.6-1.7-9.6c-0.2-2.8,0-7-0.1-7.9c-0.2-1.5-0.3,3.6-0.5,2c0.2,20.3,2.1,40.5,5.8,60.4c0.4,1.7,1.2,5.9,2.4,11.4
		s2.8,12.2,4.8,19.1c1.9,6.7,4.3,13.2,7.3,19.5c2.1,4.5,4.6,8.7,7.5,12.8c0.2,0.3,0.5,0.6,0.7,0.9c2.1,2.9,4.5,5.6,7.1,8.1
		c2.4,2.3,5.1,4.4,7.9,6.2c2.3,1.4,4.6,2.7,7.1,3.7c-1.1-0.6-2-1.3-2.8-1.9c1.2,0.7,2.3,1.3,3.4,1.8l1.4,0.6c0.4,0.2,0.8,0.3,1,0.4
		l1.6,0.6c0.4,0.1,0.8,0.2,1,0.2c0.5,0.1,0.5,0,0.4-0.1c-0.3-0.2-0.7-0.4-1-0.6c-0.5-0.3-1-0.6-1.4-0.9c-1.4-0.8,0.6-0.2-1.5-1.3
		c0.8,0.4,1.4,0.6,2,0.9s1.2,0.5,2,0.8c0.2,0-5-2-3.8-1.7c1.6,0.7,3.2,1.4,4.9,1.9c-0.2-0.2-1.7-0.7-2.9-1.2
		c-0.8-0.3-1.6-0.6-2.2-1.2c0.8,0.4,4.4,2.2,4.8,2c0.1,0-1.6-0.6-2.3-0.9c1.2,0.5,2.4,0.8,3.3,1.1c0.7,0.2,1.3,0.3,2,0.4
		c0.8,0.1,0.4-0.1-1.9-1c0.8,0.3,1.8,0.5,2.7,0.8s2,0.5,2.8,0.6l0,0c-0.9-0.2-2.3-0.5-3.1-0.8c1,0.3,1.9,0.4,2.9,0.7l-0.5-0.2
		L156,217c0.6,0.2,1.3,0.3,1.9,0.4c-0.5-0.2-1-0.4-1.6-0.6c-2.2-0.8-4.2-1.7-5.4-2.2C141.6,211,133.5,204,127.4,195.9z"/>
	<path class="st3" d="M118.1,210.8c-0.1,0.1,0.3,0.6-0.4-0.1c-0.6-0.5-1.1-1.1-1.5-1.6s-0.9-1.1-1.3-1.6s-0.9-1.1-1.3-1.6
		s-0.9-1.1-1.4-1.7l-0.3-0.1c-0.7-0.9-1.4-1.9-2.1-3l-1-1.5l-1-1.6c-2.6-3.9-4.8-7.9-6.8-12.1c0,0.1,0,0.2-0.2-0.2
		c-0.4-0.9-0.9-1.9-1.4-3.1l-1.5-3.7l-0.4-1.1c-0.1-0.1-0.1-0.3-0.3-0.4c-0.4-1.2-0.8-2.2-1.1-3.2c-4.7-12.9-7.5-26.7-9.6-41.8
		c-0.5-3.2-1-6.4-1.3-9.5c-0.5-4.6-0.9-10.5-1.2-15c-0.5,0.7-1.8-10.2-2.2-7.9c-0.2-2.6-0.5-5.1-0.9-7.7c-0.6-0.6-1.3-2.9-2.7-10.7
		c-0.2-1.5-0.5-3.5-0.8-5.2s-0.5-3.1-0.6-3.7c-0.4-1.7,0.3,4-0.1,2.3c3.7,22.6,4.2,45,7.6,68.3c0.7,3.9,2.9,19.4,8.6,34.8
		c1.4,3.9,3,7.6,4.8,11.3c1.7,3.5,3.6,6.8,5.6,10.1c3,4.8,6.5,9.2,10.3,13.4l0.9,0.9c5.5,5.7,11.8,10.5,18.8,14.1
		c2.7,1.3,5.5,2.5,8.4,3.4c-1.3-0.6-2.4-1.2-3.4-1.7l2.1,0.9c0.7,0.3,1.4,0.5,2,0.7c0.9,0.4,1.8,0.7,2.8,0.9
		c6.3,1.6,2.8,0.3,0.6-0.8c-0.8-0.3-0.6-0.4-0.6-0.5s0-0.2-1.3-0.8c0.8,0.3,1.6,0.6,2.4,0.8l2.4,0.7c-0.9-0.4-1.8-0.6-2.7-0.9
		c-1.3-0.4-2.5-0.9-1.8-0.7c0.9,0.4,1.9,0.7,2.8,0.9c1,0.3,2,0.6,2.9,0.8c-0.6-0.3-6.6-2-6.2-2.2c0.2,0.1,0.7,0.3,1.2,0.5l1.8,0.6
		c0.8,0.4,1.7,0.6,2.6,0.7c0.1,0-1.8-0.6-2.8-0.9l2.1,0.6c0.6,0.2,1.2,0.3,1.8,0.4c1.1,0.2,1.9,0.3,2.3,0.4c0.9,0.1,0.4-0.1-2.2-0.9
		c0.9,0.2,2,0.6,3.2,0.7s2.3,0.4,3.3,0.5l0,0l-3.6-0.6l3.4,0.6l-0.6-0.2c-0.8-0.2-1.7-0.3-2.6-0.5l2.2,0.4c-0.6-0.2-1.2-0.4-1.9-0.6
		c-2.6-0.6-5-1.5-6.4-2C136.4,225.7,126.2,219.3,118.1,210.8z"/>
</g>
</svg>
