<?xml version="1.0" encoding="utf-8"?>
<!-- Generator: Adobe Illustrator 25.4.1, SVG Export Plug-In . SVG Version: 6.00 Build 0)  -->
<svg version="1.1" id="Lager_1" xmlns="http://www.w3.org/2000/svg" xmlns:xlink="http://www.w3.org/1999/xlink" x="0px" y="0px"
	 viewBox="0 0 500 500" style="enable-background:new 0 0 500 500;" xml:space="preserve">
<style type="text/css">
	.st0{fill:#CC0066;}
	.st1{fill:#F9CDDE;}
	.st2{fill:#FFFFFF;}
	.st3{fill:#1D1D1D;}
	.st4{fill:#1595BF;}
	.st5{fill:#B8E1F0;}
	.st6{clip-path:url(#SVGID_00000160903114836737188820000008390914210182592679_);}
</style>
<g id="Smile_2">
	<path class="st0" d="M38.1,270.5c0.2-0.2,0.4-0.4,0.6-0.6c33.1-34.3,78.4-63.8,117.1-91.8c14.5-10.5,29.8-21.1,47.4-24.5
		c12.9-2.4,26.1-0.9,39,1c2.1,0.3,4.4,0.6,6.4-0.2s3.4-2.7,4.8-4.4c10.8-13.2,27.2-21.5,44.2-23.7c15.5-2,32.8,1.5,47.5,7.6
		c2.6,1.1,4.3,3.6,4.4,6.4c2.1,47.2,4.3,95.4-8.2,141.1c-4.6,17-10.8,33.8-20.6,48.6s-23.6,27.7-40.7,34.6
		c-9.3,3.7-19.3,5.6-29.3,6.6c-13.6,1.4-27.2,1.4-40.8-0.1c-29.2-3.2-57.2-13.2-83.8-25.2c-12.8-5.8-26.1-11-37.4-19.3
		c-13.3-9.8-35.4-30.9-50.2-46.4c-2.5-2.6-2.7-6.6-0.5-9.4L38.1,270.5z"/>
	<path class="st1" d="M338.3,157.2c0,0,4.6,117.7-65.3,148.6c-47.5,21-107.1,14.9-215.3-16.4c-9.4-2.7-36.5-18.1,2.7-24.8
		C60.3,264.6,261,231.7,338.3,157.2z"/>
	<path class="st2" d="M325.5,168.2c0.7-0.5,12.3,27.6,7.6,38.2l-18,2.3c0,0-0.1,6.7-4.9,8.4s-10.2-0.5-10.2-0.5s2.2,10.8,0.5,10.8
		s-29.8,13.8-29.8,13.8l-10.3-11.6l0.6,12.1c0,0-11.3,21.4-35.8,20.8c0,0-6-9.2-5.5-8.1s5,6.6-5.2,11.3s-18.2,9.7-26,0.2
		c0,0-10.4,12.2-20.8,14.3s-14.8-1.5-18.5-8.3c-1.2-2.2-4.1-9.5-4.1-9.5s2.6,10.3,0.7,12.4c-6.7,7.4-14.4,19.3-24.5,10.8
		s-6.6-3.2-6.6-3.2s-3.2,8.6-9.7,8.5s-21-1.5-21.5-30.8C83.4,260.3,214.8,248.1,325.5,168.2z"/>
	<path class="st3" d="M349.6,263.5c-0.2,0-0.1-1.7-0.7,0.9c-0.4,2.1-0.9,4.1-1.2,6s-0.7,3.9-1.1,5.7c-0.8,3.9-1.7,7.8-2.9,11.6
		l-0.5,0.5c-1.7,6.4-3.7,13-6.2,19.7c-4.8,12.3-11.4,23.8-19.7,34.1c0.1-0.4,0.1-0.5-0.7,0.4c-1.8,2.1-3.9,4.5-6.4,7.1
		c-2.7,2.7-5.5,5.3-8.4,7.7l-2.8,2.1c-0.4,0.3-0.8,0.4-1.2,0.5c-2.6,1.9-5.3,3.7-8.2,5.3c-4.3,2.3-8.8,4.2-13.5,5.7
		c-4.6,1.5-9.4,2.6-14.1,3.4c-9.5,1.5-19.2,2.3-28.8,2.2c-19.9-0.1-39.8-3.1-58.9-8.9c-8.3-2.6-16.4-5.6-24.1-8.6
		c-11.5-4.4-26-10.4-36.8-15.6c1.1-0.2-4.9-3.5-10.3-6.9s-10.2-6.6-7.4-5.8c-3.5-1.9-7.7-4.4-11.1-6.6c-2.1-1.3-4.2-2.7-6.1-4.2
		c-0.5-1-1.8-2.5-5-5.5s-8.4-7.3-16-14.4c-3-2.7-6.8-6.2-10.1-9.3s-5.9-5.9-6.8-7c-1.4-1.8,0.5,0,2.5,1.8s3.9,3.5,2.5,1.8
		c10.5,10.6,22,20.1,34.3,28.5c12.3,8.3,25.3,15.6,38.7,21.9c13.5,6.5,27.3,12.2,41.4,17.2c14.1,5,28.7,8.6,43.6,10.8
		c11.2,1.8,22.6,2.5,33.9,2c9-0.3,17.9-1.3,26.8-3.2c9.6-2.1,18.7-6,26.9-11.5c8.3-5.8,15.6-13,21.5-21.2c5.6-7.8,10.3-16.3,14-25.3
		c3.2-7.7,5.8-15.5,8-23.5c1-3.5,1.7-6.8,2.5-9.7s1.1-5.5,1.6-7.7c0.2-1.1,0.5-2.1,0.6-3.2c1.8-10.2,3.1-20.5,3.8-30.8
		c0.8-10.5,1.1-20.6,1.3-29c0.2-7.7,0.4-15.5,0.4-23.3c0.3,3.6,0.6,7,0.9,9.9c-0.2-7.9-0.6-15.9-0.5-18.9c-0.3-17,0.8-7.4,1.9-0.9
		c0.6,4.7,0.9-1.7,1.5,5.6c-0.2-5.3-0.4-7.9-0.6-13.3c0.3-0.6,0.6,16.4,1,12.6c-0.4-5.1-0.4-10.8-0.7-16.1c0.6,1.8,1,18.4,1.4,17.5
		c0-2.9-1.3-14.9-0.8-15.9c0.1-0.2,0.4,5.1,0.5,7.8c-0.6-16.4-0.5-25.4,0.9-10.5c-0.3-5.2-0.9-12.5-1-17.9l0,0
		c0.2,2.7,0.5,7.4,0.6,9.9c-0.1-3.1-0.3-6.2-0.5-9.3c0.1,0.5,0.2,1,0.3,1.6c0.2,2.3,0.4,4.6,0.5,7.1c-0.1-2.1-0.2-4.1-0.3-6.2
		c0.3,1.5,0.5,3.3,0.8,5.2c0.7,7.3,1.6,14.3,1.8,18.3c0.9,16.1,1.6,32.3,1.4,48.6c-0.1,8.1-0.5,16.3-1.1,24.5
		c-0.4,4.1-0.7,8.2-1.3,12.2c-0.3,2-0.5,4.1-0.8,6.1L349.6,263.5z"/>
	<path class="st3" d="M100.6,212.6c0.2,0.1-0.6,1.1,0.9,0c4.7-3.5,8-7,12.8-10.4h0.6c3.5-2.9,7.2-5.9,11-9
		c7.2-5.3,14.4-10.5,21.6-15.6c-0.1,0.2-0.1,0.4,0.6-0.1c3-2.1,7.1-5.2,11.4-8.3l2-1.3c0.3-0.2,0.6-0.3,0.9-0.3
		c2-1.4,3.8-2.6,5.5-3.7c5.8-3.5,11.8-6.5,18.1-9c1.6-0.6,3.2-1.2,4.9-1.7s3.3-1,5-1.4c3.4-0.8,6.8-1.4,10.3-1.7
		c7-0.5,14-0.3,20.9,0.6c3.5,0.4,6.9,0.9,10.4,1.5l5.1,0.9c1.3,0.3,2.6,0.2,3.9-0.1c1.8-0.6,3.7-3.2,5.9-5.4
		c2.1-2.1,4.3-4.2,6.7-6.1c3.6-3.1,7.4-5.9,11.4-8.5c3.9-2.6,8.1-4.8,12.4-6.8c-0.4,0.8,4.3-0.8,8.6-1.6s8.4-1,6.6-0.1
		c2.9-0.5,5.9-0.9,8.9-1c1.7-0.2,3.5-0.1,5.2,0.1c0.6,0.5,2,1.1,4.9,1.8l5.6,1.3c2.3,0.5,5.1,1.3,8.5,2.3c2.6,0.8,6,1.8,8.9,2.8
		c2.1,0.7,4.2,1.6,6.2,2.6c1.4,0.8-0.4,0.2-2.1-0.4s-3.5-1-2.1-0.3c-9.2-3.9-19.1-6-29.1-6.2c-2.5,0-4.9,0-7.4,0.3
		c-1.2,0.1-2.5,0.3-3.7,0.4s-2.3,0.4-3.5,0.6c-4.8,1.1-9.4,2.6-13.8,4.7c-4.5,2.1-8.9,4.6-13,7.4c-4.1,2.8-8,5.9-11.5,9.4
		c-0.9,0.9-1.7,1.7-2.5,2.7l-1.2,1.4c-0.4,0.5-0.9,1-1.4,1.7c-1.3,1.6-2.9,2.9-4.7,3.9c-1.1,0.5-2.3,0.9-3.5,1.1
		c-1,0.2-2.1,0.2-3.1,0.2c-1.5-0.1-3.1-0.3-4.6-0.5l-3.9-0.6c-2.6-0.4-5.2-0.7-7.9-0.9c-1.8-0.2-4.8-0.6-8.8-0.8
		c-4.8-0.2-9.5,0-14.3,0.7c-6,1-11.8,2.8-17.3,5.4c-6.4,3-12.5,6.5-18.3,10.4c-6.1,4.1-12.2,8.5-18.1,12.8s-11.6,8.5-16.9,12.4
		c-10.5,7.9-19.1,14.6-24.1,18.6l-1.8,1.4c-5.4,4.3-11.3,9.2-17.1,13.9l-15.7,13.1l-6.3,5.1l-6.3,5.2c1.7-1.9,3.3-3.6,4.6-5.2
		l-5.8,5.4c-1.7,1.6-3.1,2.9-4,3.6c-4.4,3.9-5.5,4.7-5.2,3.9c1-1.7,2.2-3.3,3.4-4.9c2.1-2.5-1.5,0.1,2-3.7c-2.7,2.6-4,3.9-6.6,6.5
		c-0.6,0,8.3-7.9,6.1-6.5c-1.2,1.3-2.6,2.6-4,3.9s-2.8,2.7-4.1,4c1.4-1.8,3-3.5,4.6-5.1c2.1-2.1,4.1-4.1,3.7-4
		c-0.8,0.7-2.5,2.6-4.2,4.4s-3.3,3.5-3.7,3.5c1.2-1.4,2.4-2.7,3.8-4c-8.3,8-13,12.2-6.2,4.2c-2.6,2.6-5.9,6.5-8.7,9.2l0,0l4.8-5.2
		l-4.5,4.8c0.2-0.3,0.4-0.6,0.6-1c1.1-1.2,2.2-2.5,3.4-3.7l-3,3.2c0.6-0.9,1.3-2,2.2-3.1c1.7-2,3.3-4,4.7-5.7s2.7-3.2,3.7-4.2
		C65.9,241.9,82.8,226.8,100.6,212.6z"/>
	<path class="st3" d="M286.5,199c-0.1-0.2,0.7-0.9-0.8-0.1c-2.4,1.2-4.4,2.5-6.5,3.7c-2.1,1.3-4.3,2.5-6.6,3.6l-0.5-0.1l-5.5,3.1
		c-1.9,1-3.8,2-5.8,3.1c-7.3,3.5-14.7,6.6-22.1,9.7c0.1-0.2,0.2-0.4-0.6-0.1c-3.1,1.2-7.3,3-11.7,4.9l-2,0.7c-0.3,0.1-0.5,0.1-0.8,0
		l-5.4,2.2c-11,3.9-22.2,7.5-33.8,11c-5.8,1.8-11.6,3.4-17.6,5.1l-9,2.4c-3,0.8-6.1,1.6-9.2,2.4L133,254c-7.5,1.9-17,4.5-24.3,6.4
		c0.8-1.5-17.1,2.2-13.9,0.1c-4.8,1.1-12.2,2.8-12.6,2.5c-1.3-0.7-5.4-1.1-18.5,0.9c-5.1,0.8-12.9,2.8-14.7,2.9
		c-2.9,0.2,6.5-2,3.6-1.8c37.8-7.6,74-15.9,111-27.3c6.4-1.7,30.9-9.1,55.7-18.9c12.4-4.9,25-10.2,35.6-15.3s19.2-9.6,24.2-12.4
		l1.8-1c10.8-6.1,23.5-14,31.9-20l2.9-2l1.5-1l1.4-1.1l2.9-2.2c1-0.7,1.9-1.5,2.8-2.3l-2.1,2.4l-2,2.1c0.9-0.8,1.9-1.6,2.7-2.4
		l2.4-2.3c1.5-1.4,2.7-2.6,3.4-3.2c1.9-1.8,2.9-3,3.6-3.5s0.8-0.6,0.8-0.2c-0.7,1.6-1.5,3.2-2.5,4.7c-1.8,2.4,1.4-0.1-1.5,3.5
		c2.3-2.5,3.5-3.6,5.6-6.3c0.1,0-0.2,0.5-0.8,1.2l-1,1.2l-1.2,1.3c-1.6,1.7-3,3.2-2,2.6c1.1-1.2,2.3-2.5,3.5-3.7s2.3-2.7,3.3-4
		c-0.3,0.7-0.8,1.4-1.3,2l-1.2,1.5l-0.6,0.8l-0.7,0.8c-1.8,2-3.5,3.9-3.2,3.8c1.3-1.3,2.5-2.7,3.7-4.2c1.4-1.8,2.7-3.4,3.1-3.5
		c-0.9,1.4-2,2.7-3.1,3.9c0.9-0.9,1.7-1.9,2.5-2.8s1.5-1.7,2-2.4c1.1-1.5,2.1-2.6,2.6-3.3s0.7-0.7,0.5-0.1c-0.6,1.5-1.3,2.8-2.2,4.1
		c2.3-3.4,4.2-7,5.7-10.8l0,0c-0.3,0.9-0.8,2.1-1.3,3.3c-0.4,1-0.9,2-1.5,3c0.5-0.9,1-1.8,1.5-2.8l1.2-3c0,0.3-0.1,0.7-0.2,1.1
		c-0.3,0.8-0.6,1.6-0.9,2.3s-0.7,1.4-1.1,2.2l1-1.9c0.3-0.6,0.6-1.3,0.9-2c-0.1,0.6-0.3,1.1-0.4,1.8s-0.4,1.2-0.7,1.8
		c-1,2.2-2.1,4.3-3.4,6.4c-1.2,1.8-2.3,3.3-3.1,4.4c-7,7.8-14.9,14.9-23.6,20.9C304.2,188.5,295.5,194,286.5,199z"/>
	<path class="st3" d="M264.4,237.5c-0.1,0.1-0.3-0.3-0.2,0.3c0.3,1.1,0.4,2.2,0.5,3.3c0,1.3-0.3,2.5-1,3.6l-0.2,0.1
		c-0.9,1.5-2,2.8-3.3,3.9c-2.2,1.8-4.4,3.5-6.8,5c0-0.1,0-0.2-0.2,0c-1,0.6-2.3,1.5-3.7,2.4l-0.6,0.3c-0.2,0.1-0.3,0-0.3,0
		c-0.6,0.4-1.2,0.7-1.8,1c-3.2,1.6-6.6,2.9-10,4c-1.8,0.5-3.5,1.1-5.4,1.5c-0.9,0.2-1.8,0.4-2.8,0.6c-0.5,0.1-0.9,0.2-1.5,0.3
		c-0.6,0.1-1.3,0.1-1.9,0c-0.7-0.2-1.4-0.5-1.9-1s-0.9-1-1.3-1.5c-0.5-0.9-0.9-1.7-1.2-2.7c-0.4-0.9-0.7-1.7-1-2.5
		c-1.1-2.4-2.5-5.5-3.4-7.9c0.4,0.1,0.1-1.4-0.2-2.7s-0.4-2.6,0.1-2.1c-0.6-1.4-1-2.8-1.3-4.2c0.4-0.5,0.5-1.9-0.2-6.4
		c-0.4-1.7-1.1-4.3-1.1-4.9c0-1,0.8,2.1,0.8,1.2c1.3,5.8,2.9,11.4,4.9,17c1,2.8,2.1,5.5,3.3,8.2l0.9,2c0.3,0.6,0.7,1.4,1,1.9
		c0.2,0.5,0.5,0.9,0.9,1.4c0.1,0.1,0.3,0.3,0.4,0.4c0.1,0,0.3,0,0.4,0c0.3-0.1,0.9-0.2,1.3-0.3c2.4-0.5,4.7-1.1,7-1.9
		c3.9-1.4,7.6-3.1,11.2-5.1c3.7-2.1,7.3-4.6,10.6-7.4c1.2-0.9,2.3-1.9,3.1-3.2c0.2-0.4,0.3-0.7,0.3-1.1c0-0.4,0-0.8-0.1-1.1
		c0-0.2-0.1-0.4-0.1-0.6c-0.7-2-1.4-4.2-2.1-6.3s-1.4-4.3-1.8-6.1l-1.2-4.9c0.4,0.7,0.7,1.4,1,1.9c-0.5-1.3-0.9-2.6-1.2-3.9
		c-0.9-3.5,0-1.7,0.9-0.5c0.5,0.9,0.3-0.5,1,0.9c-0.4-1.1-0.6-1.6-0.9-2.7c0.1-0.2,1,3.4,1.1,2.5c-0.4-1-0.7-2.2-1.1-3.3
		c0.4,0.3,1.3,3.7,1.5,3.5c-0.1-0.6-1.3-2.9-1.1-3.2c0.2,0.5,0.4,1,0.6,1.6c-1-3.4-1.4-5.3-0.1-2.4c-0.4-1.1-1-2.5-1.3-3.6l0,0
		c0.2,0.5,0.6,1.5,0.8,2l-0.7-1.9l0.2,0.3c0.2,0.5,0.4,0.9,0.6,1.4l-0.4-1.3c0.2,0.3,0.4,0.7,0.6,1c0.7,1.4,1.4,2.8,1.7,3.6l3.5,9.8
		l1.7,4.9l0.9,2.4C263.8,235.7,264.1,236.5,264.4,237.5z"/>
	<path class="st3" d="M208,272.1c0-0.1,0.1-0.3-0.2-0.2c-0.9,0.4-1.9,0.7-2.8,1l-0.1-0.1c-0.8,0.3-1.7,0.5-2.6,0.7
		c-1.7,0.2-3.3,0.1-5-0.2c0,0,0.1-0.1-0.1-0.2c-0.7-0.1-1.6-0.2-2.6-0.5l-0.4-0.1c-0.1,0-0.1-0.1-0.1-0.2c-0.4-0.1-0.8-0.3-1.2-0.4
		c-2.3-1.1-4.3-2.8-5.8-4.9c-1.3-2.1-2.2-4.4-2.6-6.9c-0.2-1-0.3-2-0.5-3c-0.3-1.4-0.8-3.2-1.1-4.6c0.6,0.1,0.4-3.3,1.1-2.7
		c-0.2-0.8-0.3-1.6-0.2-2.4c0.5-0.3,1-1,1.2-3.4c0-0.9-0.2-2.3-0.1-2.7c0.2-0.5,0.4,1.2,0.6,0.7c0.2,3.4,0.5,6.7,1.1,10
		c0.3,1.6,0.7,3.3,1.1,4.9c0.4,1.6,1,3.2,1.6,4.7c0.3,1.1,0.9,2,1.6,2.9c1.2,1.4,2.8,2.5,4.5,3c2,0.6,4.1,0.9,6.1,0.7
		c1.5-0.1,3-0.5,4.4-1l0.3-0.1c2-0.7,4.3-1.9,6.1-2.7l2.5-1l-0.8,0.9c0.6-0.4,1.2-0.8,1.9-1.1c1.8-0.9,1,0,0.6,0.8
		c-0.4,0.5,0.4,0.3-0.2,0.9l1.3-0.9c0.2,0.1-1.6,1-1.1,1c0.5-0.4,1.1-0.7,1.6-1c0,0.3-1.7,1.3-1.5,1.4c0.3-0.1,1.3-1.2,1.5-1.1
		c0.1,0-0.5,0.4-0.7,0.6c1.6-1,2.6-1.4,1.4-0.1c0.5-0.4,1.1-1,1.7-1.3l0,0c-0.2,0.2-0.7,0.6-0.9,0.7l0.9-0.6c0,0.1,0,0.1-0.1,0.2
		c-0.2,0.2-0.4,0.4-0.6,0.5l0.6-0.4c-0.1,0.2-0.2,0.4-0.4,0.6c-0.5,0.6-1,1.1-1.5,1.6C215.1,268.6,211.7,270.6,208,272.1z"/>
	<path class="st3" d="M174,279.8c-0.1-0.1,0.1-0.3-0.3-0.1c-0.9,0.7-1.8,1.4-2.8,2l-0.2-0.1c-2.6,1.8-5.8,2.3-8.8,1.4
		c0.1,0,0.1-0.1-0.1-0.2c-0.8-0.2-1.8-0.4-2.9-0.8l-0.4-0.2c-0.1,0-0.1-0.1-0.1-0.2l-1.2-0.5c-2.2-1.3-4.3-2.7-6.2-4.3
		c-0.9-0.8-1.9-1.5-2.9-2.5c-1.1-1-1.9-2.2-2.5-3.5c-0.3-1.1-0.6-2.2-0.8-3.4c-0.4-1.5-1.1-3.4-1.6-4.9c0.7,0-0.2-3.6,0.6-3.1
		c-0.3-0.8-0.6-1.7-0.6-2.5c0.4-0.4,0.8-1.3,0.3-4c-0.2-1-0.9-2.5-1-2.9c0-0.6,0.8,1.2,0.8,0.6c1.3,3.7,2.4,7.4,3.5,11.1
		c0.6,1.8,1.1,3.7,1.7,5.5c0.2,0.7,0.5,1.5,0.9,2.1s0.8,1.1,1.4,1.6c0.3,0.4,0.7,0.7,1.1,1c0.6,0.4,1.3,1,2.2,1.6
		c1.9,1.4,3.9,2.6,6.1,3.6c2,1,4.2,1.3,6.3,0.9c1.5-0.4,2.8-1.1,4-2.1l0.3-0.2l3.1-2.5c1.1-0.9,2.1-1.6,3-2.2s1.7-1,2.6-1.6
		c-0.3,0.4-0.6,0.7-0.8,1c0.6-0.6,1.2-1.1,1.9-1.5c1.8-1.2,1.1-0.2,0.7,0.7c-0.3,0.5,0.5,0.2-0.1,1l1.3-1.1c0.2,0.1-1.7,1.3-1.1,1.2
		c0.5-0.5,1.1-0.9,1.6-1.3c0,0.3-1.7,1.6-1.5,1.7c0.3-0.2,1.2-1.5,1.5-1.3c0.1,0-0.5,0.5-0.7,0.7c1.7-1.3,2.7-1.8,1.5-0.3
		c0.5-0.4,1.1-1.1,1.7-1.6l0,0l-0.9,0.9l0.9-0.8l-0.1,0.2c-0.2,0.2-0.4,0.4-0.6,0.6l0.6-0.5c-0.1,0.2-0.2,0.4-0.3,0.6
		c-0.5,0.7-1,1.3-1.5,1.9l-4.6,4.1C177.2,277.1,175.8,278.4,174,279.8z"/>
	<path class="st3" d="M138.7,284.4c-0.1-0.1,0-0.3-0.3-0.1c-1,0.7-1.5,1.5-2.5,2.2l-0.2-0.1l-2,1.9l-2.1,1.5
		c-0.9,0.7-1.9,1.2-2.9,1.6c0-0.1,0-0.1-0.2-0.1c-0.6,0.2-1.3,0.3-1.9,0.4c-0.8,0.1-1.6,0-2.3-0.3l-0.6-0.2
		c-0.1-0.1-0.2-0.2-0.2-0.2c-0.6-0.2-1-0.4-1.3-0.6c-2.3-1.4-4.5-2.9-6.5-4.6c-2.3-1.8-4.1-4.2-5.2-6.9c-0.4-1.2-0.7-2.4-1-3.5
		c-0.5-1.6-1.2-3.6-1.7-5.2c0.7,0.1-0.2-3.8,0.6-3.2c-0.3-0.9-0.6-1.8-0.7-2.7c0.4-0.4,0.8-1.4,0.2-4.2c-0.3-1.1-1-2.7-1-3.1
		c0-0.6,0.8,1.3,0.8,0.6c1.3,4,2.5,7.9,3.7,11.9s2.1,7.8,4.4,10.3c0.8,1.1,1.9,2.1,3,2.9c1,0.7,2,1.3,3,1.9l1.8,1
		c0.6,0.3,1.3,0.7,1.8,1c0.3,0.2,0.7,0.3,1.1,0.3s0.7-0.1,1-0.3c0.5-0.3,0.9-0.6,1.4-0.9l1.6-1.3c2.1-1.6,3.7-2.9,4.6-3.6l0.3-0.3
		c2-1.7,4.3-3.8,5.7-5.3c0.7-0.7,1.4-1.4,2.1-2.1l-0.4,1.2c0.6-0.9,1-1.7,1.3-2c0.6-0.9,0.8-1.1,0.9-0.9c0.1,0.4,0.1,0.8,0,1.2
		c-0.1,0.6,0.5,0,0.2,1c0.3-0.7,0.5-1,0.8-1.7c0.2,0-1.1,2-0.6,1.7c0.3-0.7,0.8-1.3,1-2c0.2,0.4-1,2.4-0.8,2.4c0.2-0.3,0.7-2,1-2
		c-0.1,0.4-0.2,0.7-0.4,1c1.1-2.1,1.7-3.3,1.2-1.1c0.3-0.7,0.5-1.8,0.7-2.6l0,0c-0.1,0.4-0.2,1.1-0.3,1.5l0.4-1.4
		c0,0.1,0,0.2,0.1,0.3c-0.1,0.4-0.1,0.7-0.2,1l0.2-0.9c0,0.3,0,0.6,0,0.8c-0.1,0.5-0.1,1.1-0.3,1.6c-0.1,0.4-0.2,0.8-0.3,1.2
		C145.6,278,142.2,281.5,138.7,284.4z"/>
	<path class="st3" d="M100.5,293.8c0-0.1,0.2-0.2-0.2-0.2c-0.5,0-1,0.1-1.6,0.1s-1.2-0.1-1.7-0.3v-0.2c-0.9-0.2-1.7-0.5-2.5-1
		c-0.6-0.4-1.1-0.9-1.7-1.3l-0.8-0.7l-0.7-0.7c0.1,0,0.1-0.1,0-0.2c-0.4-0.4-1-0.9-1.6-1.5l-0.2-0.3c0-0.1,0-0.1,0-0.2
		c-0.2-0.3-0.5-0.5-0.7-0.7c-2.3-3.3-4.1-6.9-5.2-10.8c-0.2-0.9-0.4-1.7-0.6-2.5c-0.4-1.2-1-2.6-1.4-3.8c0.6,0,0-2.9,0.8-2.5
		c-0.2-0.8-0.6-1.9-0.4-2c0.4-0.3,0.8-1.1,0.6-3.1c-0.1-0.8-0.7-2-0.7-2.3c0-0.5,0.6,0.9,0.7,0.5c1.8,5.8,3.1,11.4,5.8,16.6
		c1.1,2.7,2.7,5.2,4.6,7.3c1.2,1.4,2.6,2.6,4.2,3.7c0.5,0.3,1,0.6,1.6,0.8c0.3,0.1,0.7,0.1,1,0.1h0.2c0.9-0.1,1.8-0.3,2.6-0.5
		l2.6-0.7c0.7-0.1,1.4-0.3,2.2-0.5c-0.2,0.2-0.5,0.5-0.7,0.7c0.5-0.3,1.1-0.5,1.6-0.7c1.5-0.6,0.9,0.1,0.6,0.8
		c-0.3,0.4,0.4,0.3-0.2,0.9c0.5-0.3,0.7-0.4,1.2-0.7c0.2,0.1-1.5,0.7-1,0.8c0.4-0.3,1-0.5,1.4-0.8c0,0.3-1.6,1-1.4,1.2
		c0.3-0.1,1.2-1,1.4-0.8c0,0-0.4,0.3-0.7,0.5c1.5-0.8,2.4-1.1,1.3,0c0.5-0.3,1-0.8,1.5-1.1l0,0c-0.2,0.2-0.6,0.5-0.8,0.7l0.8-0.6
		c0,0.1,0,0.1-0.1,0.2c-0.2,0.2-0.4,0.3-0.6,0.5l0.5-0.4c-0.1,0.2-0.2,0.4-0.3,0.5c-0.4,0.5-0.9,1-1.4,1.5c-1.5,0.9-3.1,1.7-4.7,2.4
		c-0.8,0.3-1.7,0.6-2.5,0.8C102.4,293.4,101.5,293.6,100.5,293.8z"/>
	<path class="st3" d="M264.7,231.9c-0.1,0.1-0.4-0.2-0.1,0.3c0.8,1.5,1.8,2.4,2.6,3.9l-0.1,0.2c0.4,0.5,0.8,1,1.2,1.5
		c0.2,0.3,0.6,0.6,0.9,0.8c0.1,0.1,0.2,0.1,0.4,0.1c0.4,0,0.7-0.1,1.1-0.2c0.5-0.1,1.1-0.4,1.7-0.6l1.8-0.6c0,0.1,0,0.1,0.2,0.1
		c1-0.3,2.3-0.9,3.7-1.6l0.6-0.2c0.1,0,0.2,0,0.3,0c0.6-0.3,1.2-0.5,1.7-0.8c3.4-1.4,6.9-2.9,10.3-4.6c1.7-0.9,3.4-1.8,5.2-2.7
		l1.3-0.7c0.4-0.2,0.9-0.5,1.2-0.7c0.2-0.1,0.4-0.3,0.6-0.6c0.1-0.3,0.2-0.6,0.1-0.9c-0.1-1.7-0.3-3.4-0.6-5.1
		c-0.6-2.6-1.4-5.2-2.4-7.7c0.4,0.1,0.1-1.3-0.2-2.6s-0.6-2.5-0.1-2c-0.7-1.3-1.3-2.5-1.8-3.9c0.2-0.6,0.2-1.2,0-1.7
		c-0.4-1.5-1.1-2.9-1.9-4.2c-0.5-0.8-1.1-1.6-1.7-2.4c-0.5-0.5-0.9-1.1-1.3-1.7c-0.5-0.9,1.7,1.6,1.2,0.7c6,7.7,10.1,16.7,12,26.3
		c0.2,0.8,0.3,1.6,0.5,2.4c0.1,0.4,0.1,0.8,0.2,1.2c0,0.2,0.1,0.6,0.1,1s0,0.8-0.1,1.1c-0.2,0.8-0.5,1.5-1,2.1
		c-0.2,0.3-0.5,0.6-0.8,0.8c-0.2,0.2-0.5,0.4-0.7,0.5l-2.1,1.3c-5.6,3.3-11.5,6.3-17.4,9c-2,0.9-4.1,1.8-6.1,2.5
		c-1.1,0.4-1.9,0.8-3.2,1.1c-0.7,0.2-1.4,0.3-2.1,0.3c-0.8,0-1.7-0.2-2.5-0.5c-1.2-0.6-2.2-1.5-2.9-2.6c-0.6-0.8-1-1.5-1.5-2.1
		c-0.9-1.3-1.5-2.4-2-3.2l-0.3-0.6c-2.2-3.6-4.1-7.4-5.6-11.4c-0.6-1.5-1.1-3.1-1.5-4.7c0.4,0.7,0.7,1.3,1.1,1.8
		c-0.6-1.2-1-2.4-1.4-3.7c-0.5-1.7-0.5-2.1-0.2-1.9c0.4,0.5,0.8,0.9,1.1,1.4c0.5,0.8,0.3-0.5,1,0.9c-0.4-1-0.6-1.5-1-2.5
		c0.1-0.2,1.1,3.1,1.1,2.3c-0.4-0.9-0.8-2.1-1.1-3.1c0.3,0.3,1.4,3.5,1.5,3.2c-0.2-0.6-1.4-2.7-1.1-3c0.2,0.5,0.4,1,0.6,1.4
		c-0.4-1.1-0.7-2.2-0.8-3.3c0-0.5,0.2-0.2,0.8,1.1c-0.4-1.1-0.7-2.2-1-3.3l0,0c0.1,0.5,0.4,1.4,0.6,1.9c-0.2-0.6-0.3-1.2-0.5-1.7
		c0.1,0.1,0.1,0.2,0.2,0.3c0.1,0.4,0.3,0.9,0.4,1.3c-0.1-0.4-0.2-0.8-0.3-1.1c0.2,0.3,0.3,0.6,0.5,0.9c0.6,1.3,1.3,2.5,1.6,3.3
		C258.6,220.6,261.5,226.3,264.7,231.9z"/>
	<path class="st3" d="M314.4,195.1c-0.1,0-0.2-0.1-0.2,0.2c0.1,0.8,0.6,1.2,0.8,2l-0.1,0.1c0.2,0.5,0.5,1.1,0.8,1.7
		c0.3,1.1,0.5,2.2,0.8,3.3c-0.1,0-0.1,0-0.1,0.1c0.1,0.6,0.3,1.2,0.5,1.7v0.3c0,0.1-0.1,0.1-0.1,0.1c0.1,0.3,0.2,0.6,0.2,0.8
		c0.1,0.8,0.2,1.7,0.3,2.5c0.1,0.9,0.2,1.8,0.1,2.8c0,1.1-0.2,2.2-0.7,3.2s-1.3,1.9-2.3,2.4c-0.7,0.4-1.5,0.7-2.3,0.9
		c-1.1,0.4-2.3,1-3.3,1.4c-0.1-0.6-2.6,0-2.3-0.8c-0.6,0.2-1.6,0.6-1.8,0.4c-0.3-0.5-1-0.9-2.8-0.7c-0.7,0.1-1.7,0.6-2,0.6
		c-0.4-0.1,0.8-0.6,0.4-0.6c2.5-0.7,5-1.5,7.4-2.4l1.8-0.7c0.5-0.2,1.1-0.4,1.6-0.7c0.7-0.3,1.3-0.8,1.7-1.4
		c0.1-0.1,0.4-0.5,0.3-1.7c-0.1-0.7-0.2-1.5-0.3-2.2c-0.1-0.9-0.3-1.8-0.5-2.6c-0.6-3-1.4-5.9-2.4-8.8l-0.1-0.3
		c-0.6-1.7-1.1-3.4-1.5-5.1c-0.1-0.6-0.2-1.4-0.2-2.1c0.2,0.3,0.4,0.5,0.6,0.7c-0.2-0.5-0.4-1-0.5-1.6c-0.3-1.5,0.3-0.8,0.9-0.4
		c0.3,0.3,0.4-0.3,0.8,0.2l-0.4-1.1c0.1-0.1,0.4,1.4,0.6,1c-0.2-0.4-0.4-0.9-0.5-1.4c0.3,0.1,0.7,1.5,0.9,1.3c0-0.3-0.8-1.1-0.5-1.3
		c0,0,0.2,0.4,0.3,0.6c-0.4-1.4-0.5-2.2,0.3-1.1c-0.2-0.4-0.5-1-0.7-1.4l0,0c0.1,0.2,0.3,0.6,0.4,0.8L310,185l0.2,0.1
		c0.1,0.2,0.2,0.4,0.3,0.6l-0.2-0.5c0.1,0.1,0.3,0.2,0.4,0.3c0.4,0.4,0.7,0.9,1,1.4C312.4,189.7,313.5,192.4,314.4,195.1z"/>
	<path class="st3" d="M332.5,182.4c-0.1,0-0.3-0.1-0.2,0.2c0.2,1,0.8,1.6,0.9,2.6l-0.1,0.1c0.3,0.7,0.6,1.5,0.9,2.2
		c0.4,1.5,0.7,2.9,0.9,4.4c-0.1,0-0.1,0-0.1,0.1c0.1,0.6,0.3,1.4,0.5,2.3c0,0.1,0,0.3,0,0.4c0,0.1-0.1,0.1-0.1,0.2
		c0.1,0.4,0.2,0.7,0.2,1.1c0.2,2.2,0.3,4.4,0.3,6.7c0,0.6,0,1.1,0,1.7v0.5c0,0.2,0,0.4,0,0.6c-0.1,0.4-0.2,0.9-0.3,1.3
		c-0.3,0.8-0.9,1.5-1.7,1.8c-0.4,0.2-0.8,0.3-1.2,0.3L332,209l-0.4,0.1c-1,0-2,0.1-3,0.2c-1.4,0.2-3.2,0.6-4.5,0.9
		c0.1-0.6-3.3-0.4-2.7-1.1c-0.8,0.2-1.6,0.3-2.4,0.2c-0.3-0.5-1.1-0.9-3.4-1.1c-0.4,0-1,0-1.4,0.1H314l0,0c0,0-0.1,0.3-0.1,0.4
		c-0.1,0.4-0.2,0.7-0.4,1c0,0.1-0.1,0.2-0.2,0.3l1.7-1l0,0v-0.1l0,0c0,0,0,0,0.1,0l0,0l0,0l-1.8,1.1l0,0l0,0c0.1,0,0.1-0.1,0.1-0.1
		v-0.1c0-0.1,0.1-0.1,0.1-0.2c0.1-0.1,0.1-0.3,0.2-0.4c0-0.2,0.2-0.8,0.3-1.2v-0.1v-0.1c0,0,0.5,0,0.8,0l1.2-0.1
		c0.8-0.1,1.6-0.2,2.5-0.3c1.7-0.2,3.4-0.5,5.1-0.8s3.4-0.6,5.1-0.9l2.6-0.5c0.1,0,0.1,0,0.1,0s0.1,0.1,0.1-0.1c0-0.7,0-1.5-0.1-2.4
		c-0.2-2.2-0.4-4.4-0.8-6.6c-0.7-3.9-1.6-7.8-2.8-11.7l-0.1-0.4c-0.7-2.2-1.5-4.8-1.9-6.7l-0.5-2.7c0.2,0.4,0.5,0.7,0.7,0.9
		c-0.3-0.7-0.5-1.4-0.7-2.1c-0.5-1.9,0.2-1,0.9-0.4c0.4,0.4,0.4-0.4,0.9,0.4c-0.2-0.6-0.4-0.9-0.6-1.4c0.1-0.1,0.6,1.8,0.7,1.3
		c-0.3-0.5-0.4-1.2-0.7-1.8c0.3,0.1,0.9,2,1.1,1.8c-0.1-0.3-0.9-1.5-0.7-1.7c0,0,0.3,0.5,0.4,0.8c-0.6-1.8-0.8-2.9,0.2-1.4
		c-0.2-0.6-0.7-1.3-0.9-1.9l0,0c0.1,0.3,0.4,0.8,0.5,1l-0.5-1l0.2,0.1c0.1,0.2,0.3,0.5,0.4,0.8l-0.3-0.7c0.2,0.1,0.3,0.3,0.5,0.5
		c0.5,0.6,0.9,1.2,1.3,1.8C330,175.1,331.3,178.7,332.5,182.4z"/>
	
		<rect x="290.1" y="270.6" transform="matrix(0.7765 -0.6301 0.6301 0.7765 -89.9841 303.0168)" class="st4" width="184.1" height="15.6"/>
	<path class="st3" d="M136,306.7c0,0.1-1.1,0,0.6,0.4c5.4,1.2,9.8,1.7,15.2,2.7l0.4,0.2l6.4,1l6.6,0.9c4.1,0.7,8.2,1.1,12.3,1.6
		c2.1,0.2,4.1,0.4,6.1,0.6s4.1,0.3,6.1,0.5c-0.2,0-0.3,0.1,0.5,0.2l2.8,0.2h3.2h3.4l3.6-0.1c0.7,0,1.4,0,2.1,0c0.3,0,0.5,0,0.8,0.1
		c2.2-0.1,4.2-0.2,6-0.4l9.1-0.5c3.1-0.1,6.1-0.2,9.1-0.5c6.1-0.4,12.2-1.3,18.1-2.5c12.5-2.5,24.5-7.2,35.4-13.8
		c4.7-2.8,9.1-6.2,13.1-10l2.2-2.2l2.1-2.4c1.5-1.6,2.8-3.5,4.1-5.3c0.7-0.9,1.3-1.9,1.9-2.8l1.8-2.8c1-1.9,2.1-3.7,3-5.4
		c0,0.3,0.5-0.5,1.4-1.8c0.4-0.7,0.9-1.5,1.4-2.3s0.9-1.8,1.4-2.8l1.4-2.6c0.4-0.8,0.8-1.6,1-2.1c0.6-1.1,0.9-1.5,0.7-0.6
		c1-2.4,2.1-5.6,3-8.1s1.5-4.5,1.7-4.7c0.9-1.4,1.7-2.8,2.2-4.4c1.7-4.5,3.1-9.1,4.4-13.8c1.4-5.3,3-13.5,3.6-15.4
		c0.8-2.9-1.2,7-0.4,4.1c-2.2,9.9-4.6,19.7-7.6,29.4c-2.9,9.7-6.8,19.1-11.5,28.1c-1.3,2.2-2.5,4.5-4,6.6c-0.7,1.1-1.4,2.2-2.1,3.2
		l-2.3,3.1c-0.7,1-1.6,2-2.5,3s-1.6,2-2.6,2.9c-1.9,1.8-3.7,3.7-5.7,5.3c-8,6.7-17,12-26.6,15.9c-7.3,2.8-14.9,5-22.6,6.5
		c-6.1,1.2-12.3,2-18.5,2.4c-3.4,0.2-6.6,0.4-10.1,0.6s-6.9,0.5-10.5,0.6c-7.1,0.3-14.2,0.2-21.3-0.3l-5.2-0.5
		c-1.7-0.1-3.4-0.3-5-0.5c-3.3-0.4-6.5-0.7-9.6-1.2l-8.8-1.3l-7.8-1.4c-4.8-0.8-8.9-1.7-11.8-2.2l-2.1-0.4
		c-3.2-0.6-6.6-1.3-10.1-2.1l-10.4-2.3c-6.8-1.6-13.4-3.2-18.8-4.6l-14.9-4.2l6.4,1.3c-5.1-1.2-10.2-2.5-12.1-3.1
		c-10.8-3.1-4.6-1.8-0.3-1.1c3,0.6-0.9-0.7,3.8,0.3l-8.5-2.2c-0.3-0.3,10.4,2.8,8.1,1.9c-3.3-0.8-6.9-1.8-10.3-2.7
		c1.2,0.1,11.7,3,11.3,2.6c-1.8-0.5-9.6-2.1-10.2-2.6c-0.1-0.1,3.3,0.8,5,1.2c-10.4-2.8-16-4.5-6.5-2.4c-3.3-0.9-8-1.9-11.5-2.9l0,0
		l6.4,1.6l-5.9-1.6l1.1,0.1c1.5,0.4,3,0.7,4.5,1.1l-3.9-1c1,0.2,2.2,0.4,3.4,0.6c4.7,1,9.3,1.9,11.8,2.6
		C94.7,297.6,115.3,302.5,136,306.7z"/>
	<path class="st3" d="M428,255.5c-0.1-0.1,0.4-0.6-0.5,0c-2.5,1.8-4.3,3.6-6.8,5.5h-0.3c-1.8,1.6-3.7,3.2-5.7,4.9l-11,8.9
		c0-0.1,0.1-0.2-0.3,0.1c-1.5,1.2-3.6,3-5.7,4.8l-1,0.8c-0.3,0.2-0.4,0.2-0.4,0.2l-2.6,2.2l-33.6,26.5c-2.6,1.9-5.1,3.8-7.5,5.7
		c-3.6,2.9-8,6.7-11.4,9.5c0.1-0.9-8.4,5.8-7.1,3.9c-1.9,1.7-3.9,3.3-6,4.8c-0.9,0-3,1-9.3,5.8c-2.4,1.9-5.9,5.1-6.8,5.7
		c-1.4,1,2.9-2.8,1.4-1.9c17.5-14.8,34.7-28.7,52.5-43.4c3.1-2.4,14.9-12,27.2-22.1l17.9-14.7c5.4-4.5,10.1-8.1,12.8-10.2l1-0.8
		c5.9-4.6,13.1-10,18.2-13.6l7.2-5l-2.7,2.5c2.3-1.8,4.6-3.7,5.6-4.3c5.1-3.7,2.5-1.3,0.9,0.6c-1.3,1.2,0.8,0-1.3,1.8l3.9-3.1
		c0.3,0-4.8,3.7-3.6,3.1c1.5-1.2,3.2-2.5,4.7-3.7c-0.4,0.6-5.3,4.3-4.9,4.3c0.9-0.6,4.2-3.7,4.6-3.7c0.1,0-1.5,1.2-2.2,1.9
		c4.8-3.7,7.6-5.6,3.5-1.9c1.5-1.2,3.6-3,5.2-4.3l0,0l-2.9,2.4l2.7-2.2l-0.4,0.5c-0.6,0.6-1.3,1.1-2,1.7l1.8-1.5
		c-0.4,0.4-0.9,0.9-1.4,1.4c-2,1.9-3.9,3.7-5.1,4.6C447.1,240.8,437.5,248.2,428,255.5z"/>
	<path class="st3" d="M415,244.5c-0.1-0.1,0.3-0.6-0.5,0c-2.4,1.9-4,3.9-6.5,5.8h-0.3l-5.5,5.1l-10.8,9c0.1-0.1,0.1-0.2-0.3,0.1
		c-1.5,1.2-3.5,3-5.6,4.8l-1,0.8c-0.1,0.1-0.3,0.2-0.4,0.2l-2.6,2.2L348.3,299c-2.5,1.9-5.1,3.9-7.5,5.8c-3.5,2.9-7.9,6.7-11.2,9.6
		c0.1-0.9-8.3,5.8-7.1,4c-1.9,1.7-3.9,3.3-5.9,4.8c-0.9,0-3,1-9.2,5.9c-2.4,1.9-5.8,5.1-6.7,5.7c-1.4,1,2.8-2.8,1.4-1.9
		c17.3-14.8,34.2-28.8,51.7-43.6c3.1-2.4,14.7-12.1,26.8-22.2l17.5-14.8c5.3-4.5,9.6-8.3,12.2-10.6l0.9-0.8
		c5.5-4.9,12.5-10.6,17.5-14.4c2.3-1.7,4.7-3.4,7.1-5.1l-2.7,2.5c2.3-1.9,4.6-3.7,5.5-4.3c5.1-3.7,2.5-1.2,0.9,0.6
		c-1.2,1.2,0.8,0-1.2,1.8l3.8-3.1c0.3,0-4.8,3.7-3.5,3.1c1.4-1.2,3.2-2.5,4.7-3.7c-0.4,0.6-5.3,4.3-4.9,4.3c0.9-0.6,4.1-3.7,4.6-3.7
		c0.1,0-1.4,1.2-2.2,1.9c4.8-3.7,7.6-5.5,3.4-1.9c1.5-1.2,3.5-3,5.1-4.2l0,0l-2.8,2.3l2.7-2.1c-0.1,0.1-0.3,0.3-0.4,0.5
		c-0.7,0.6-1.3,1.1-2,1.7l1.8-1.4c-0.4,0.4-0.9,0.9-1.4,1.4c-2,1.8-3.9,3.7-5,4.6C433,229.1,423.9,236.7,415,244.5z"/>
	<path class="st4" d="M182.6,318.5c-2,8.4,28.2,23.3,67.7,32c62.1,13.8,72.9,9.9,74.9,1.5l2.7-11.2c0,0-138.8-32.9-140.4-32.9
		S182.6,318.5,182.6,318.5z"/>
	
		<ellipse transform="matrix(0.2289 -0.9735 0.9735 0.2289 -117.335 500.2863)" class="st5" cx="257.1" cy="324.2" rx="13.7" ry="72.8"/>
	<g>
		<g>
			<defs>
				
					<ellipse id="SVGID_1_" transform="matrix(0.2289 -0.9735 0.9735 0.2289 -117.335 500.2863)" cx="257.1" cy="324.2" rx="13.7" ry="72.8"/>
			</defs>
			<clipPath id="SVGID_00000009561686161242985100000018064499563686987170_">
				<use xlink:href="#SVGID_1_"  style="overflow:visible;"/>
			</clipPath>
			<g style="clip-path:url(#SVGID_00000009561686161242985100000018064499563686987170_);">
				
					<rect x="271.7" y="270.8" transform="matrix(0.6592 -0.752 0.752 0.6592 -146.8235 318.4327)" class="st2" width="12.4" height="100.8"/>
				
					<rect x="231.8" y="276.4" transform="matrix(0.6606 -0.7507 0.7507 0.6606 -162.0057 295.0807)" class="st2" width="27.2" height="100.7"/>
			</g>
		</g>
	</g>
	<path class="st3" d="M262.1,357.2c0-0.1,1.1,0-0.6-0.4c-5.2-1.3-9.5-1.9-14.8-3.2l-0.3-0.3c-4.1-0.9-8.3-1.8-12.7-2.9
		c-7.9-2.1-15.7-4.7-23.4-7.7c0.2,0,0.3,0-0.4-0.3c-3.1-1.3-7.5-3-11.9-5.2c-0.6-0.3-1.3-0.7-1.9-1c-0.2-0.1-0.5-0.3-0.6-0.5
		c-1.8-1-3.6-2-5.3-3.2c-1.3-1-2.5-2-3.6-3.2c-0.6-0.6-1.1-1.2-1.6-1.9l-0.7-1c-0.2-0.4-0.5-0.8-0.7-1.2c-1.5-3.1-2.1-6.5-1.7-9.9
		c0.1-1.7,0.4-3.3,0.9-4.9c0.3-0.8,0.6-1.6,1-2.4c0.2-0.4,0.4-0.8,0.7-1.2c0.1-0.2,0.2-0.4,0.4-0.6s0.4-0.5,0.6-0.7
		c0.8-0.6,1.7-1.1,2.6-1.4c0.8-0.3,1.6-0.5,2.4-0.7c1.6-0.3,3.1-0.5,4.7-0.6c12.5-0.9,24.9,0.6,37.9,1.1c2.8,0.1,5.5,0.5,8.2,0.8
		c1.4,0.2,2.7,0.3,4.1,0.5l4,0.6c2,0.3,4,0.6,6.2,1c2.2,0.4,4.4,0.7,6.5,1.2l6.5,1.4c2.1,0.5,4.1,1,6,1.5c-0.3,0.1,0.6,0.4,2,0.9
		l5.4,1.9c1.9,0.6,3.8,1.4,4.9,1.9s1.5,0.8,0.6,0.6l3.9,1.3l3.9,1.4c1.2,0.5,2.3,0.9,3.1,1.2c0.5,0.2,0.9,0.4,1.4,0.6
		c1.2,1,2.6,1.8,4,2.5c2.5,1.4,6.4,3.2,12.2,6.4c1.1,0.6,2.5,1.3,3.7,2.1s2.6,1.5,3.8,2.3l1.6,1.1c0.5,0.3,1,0.6,1.4,1
		c0.8,0.7,1.3,1.2,1.6,1.5c0.5,0.6,0.4,0.5,0.1,0.2s-1-0.7-1.6-1.2c-0.3-0.2-0.6-0.5-0.9-0.7l-0.8-0.5c-0.4-0.2-0.5-0.2,0.1,0.2
		c-1-0.6-1.9-1.4-2.9-2l-3-1.8l-3.2-1.7l-1.6-0.8l-1.6-0.8l-3.3-1.6l-3.3-1.4c-2.2-1-4.4-1.9-6.7-2.7c-8.9-3.5-18.1-6.4-27.4-8.7
		c-9.3-2.4-18.7-4.1-28.3-5.3l-7.2-0.7c-2.4-0.2-4.8-0.2-7.2-0.3c-5-0.2-9.9-0.5-14.8-0.7c-1.7-0.1-4.6-0.2-8.3-0.3
		c-1.9,0-4,0-6.3,0.1c-2.4,0.1-4.8,0.3-7.2,0.6c-1.2,0.2-2.4,0.5-3.5,0.9c-0.4,0.1-0.7,0.3-1,0.5l0,0l-0.2-0.1
		c0.3,0.2,0.1,0.1,0.1,0.1l0,0l0,0l-0.2,0.4c-0.2,0.2-0.3,0.5-0.4,0.8c-1.1,2.5-1.5,5.2-1.3,7.8c0.1,1.4,0.4,2.7,0.9,4
		c0.2,0.6,0.5,1.1,0.9,1.7s0.9,1.2,1.4,1.7c2.2,2.3,4.7,4.1,7.5,5.6c5.9,3.1,12.1,5.9,18.4,8.2c6.2,2.3,12.4,4.2,18.2,5.8
		c11.5,3.1,21.4,5.2,27.1,6.5l2.1,0.5c6.2,1.4,13.1,2.9,19.7,4c6.1,1,12.2,1.6,18.4,1.7c4.9,0.1,9.8-0.2,14.6-1.1
		c-1.1,0.3-2.2,0.5-3.2,0.8s-2,0.4-2.9,0.6c1.2-0.1,2.5-0.4,3.7-0.6s2.3-0.5,3.3-0.7s2-0.4,2.7-0.7c0.5-0.2,1-0.4,1.4-0.7
		c0.6-0.6,1.1-1.3,1.3-2.1c0.3-0.8,0.5-1.4,0.6-1.8c0.3-0.8,0.4-0.9,0.4-0.6s-0.1,1.2-0.3,2.1c-0.1,1-0.5,2-1,2.8
		c-0.5,0.5-0.7,0.7-0.8,0.8s0,0.1,0.1,0.1s0.1,0.1-0.2,0.3c-0.6,0.4-1.3,0.7-2,0.9c1.5-0.2,2.8-1,3.8-2.2c0.7-1.3,1.2-2.6,1.5-4.1
		c-0.1,0.5-0.2,0.9-0.3,1.4c-0.2,1.2-0.8,2.2-1.5,3.2c-0.8,0.7-1.7,1.3-2.7,1.6c-0.7,0.2-0.9,0.3-0.3,0.2c0.9-0.2,1.7-0.6,2.4-1.1
		c0.8-0.6,1.4-1.4,1.7-2.3c0.3-0.8,0.6-1.7,0.8-2.6c0.2-0.8,0.5-1.7,0.7-2.5c-0.1,0.8-0.3,1.5-0.5,2.3c-0.3,1.4-0.7,2.7-1.4,3.9
		c-0.4,0.7-1,1.2-1.6,1.6c-0.5,0.3-1.1,0.6-1.6,0.8c-1,0.3-1.5,0.5-1.4,0.5c0.8-0.2,1.6-0.4,2.3-0.8c0.6-0.3,1.1-0.6,1.5-1
		c0.5-0.5,0.9-1,1.1-1.6c0.4-1,0.7-2,1-3c0.1-0.5,0.3-1,0.5-1.5c0-0.1-0.2,0.7-0.4,1.8c-0.2,1.1-0.6,2.2-1.1,3.2
		c0.6-1.2,1-2.4,1.3-3.7c0.3-1.1,0.6-2.1,0.9-3c0.5-1.8,1-3.1,1.2-3.9c0.5-1.5,0.4-0.5-0.7,4.1c0.9-3.2,2-7.8,3-11.1l0,0
		c-0.5,1.7-1.2,4.6-1.6,6.2l1.6-5.8c0,0.3-0.1,0.7-0.2,1c-0.4,1.4-0.7,2.9-1.1,4.4l1-3.8c-0.2,1-0.4,2.1-0.6,3.3
		c-0.5,2.3-1,4.6-1.5,6.5c-0.2,1-0.4,1.9-0.6,2.8c-0.2,0.8-0.4,1.6-0.7,2.4c-0.3,0.9-0.8,1.7-1.4,2.4c-0.7,0.7-1.5,1.3-2.4,1.7
		c-1.4,0.6-2.8,1-4.2,1.2l-2,0.5l-2,0.4c-1.3,0.3-2.6,0.4-4,0.6c-5.3,0.6-10.6,0.7-15.9,0.3C282.5,361.6,272.2,359.4,262.1,357.2z"
		/>
</g>
</svg>
