<?xml version="1.0" encoding="utf-8"?>
<!-- Generator: Adobe Illustrator 25.4.1, SVG Export Plug-In . SVG Version: 6.00 Build 0)  -->
<svg version="1.1" id="Lager_1" xmlns="http://www.w3.org/2000/svg" xmlns:xlink="http://www.w3.org/1999/xlink" x="0px" y="0px"
	 viewBox="0 0 500 500" style="enable-background:new 0 0 500 500;" xml:space="preserve">
<style type="text/css">
	.st0{fill:#CC0066;}
	.st1{fill:#F9CFB5;}
	.st2{fill:#1D1D1D;}
</style>
<g id="OUTLINE_ikons">
	<path class="st0" d="M131.8,186.9c6-1.6,86.3-48.5,120.4-45s64.8,23.4,60.2,45H131.8z"/>
	<circle class="st0" cx="149.2" cy="324.6" r="17.4"/>
	<circle class="st1" cx="213.9" cy="277.4" r="17.4"/>
	<circle class="st0" cx="257.4" cy="297.8" r="17.4"/>
	<circle class="st1" cx="312.4" cy="356.8" r="17.4"/>
	<circle class="st1" cx="202" cy="374.1" r="17.4"/>
	<circle class="st0" cx="370.4" cy="297.8" r="17.4"/>
	<path class="st1" d="M49.6,196.1c58-7.7,376.3-12.8,391.1-6v59.5c0,0-22.6-17.4-40.6-7.1c-14,8-43.9,39.6-70.3,39.8
		c-40,0.4-66.8-51.6-99.8-48.1s-65.3,41.5-86.2,48.1s-38.3,2.1-51.5-8.9s-34.7-26.5-42.7-26.1L49.6,196.1L49.6,196.1z"/>
	<path class="st2" d="M142.7,193.1c0-0.2-1.3-0.4,0.7-0.5c6.3-0.5,11.4,0.1,17.7-0.3l0.4-0.3c4.9,0,10,0,15.1,0
		c9.6-0.3,19-0.6,28.5-0.8c-0.2-0.1-0.4-0.2,0.6-0.3c3.9-0.1,9.4-0.1,15-0.1l2.5-0.1c0.3,0,0.6-0.1,0.9-0.3l6.9,0.1
		c27.7-0.8,55.9-1.2,86.5-1c6.5-0.1,12.9-0.1,19.2-0.1c9.2,0.2,21,1,30,1.4c-1.3-1.2,20.6-0.6,16.3-2c6,0.3,15,1,15.5,0.7
		c0.7-0.4,2.3-0.9,5.6-1.1c5.5-0.3,11-0.4,16.5-0.1c6.2,0.3,15.8,1.5,18,1.4c3.5-0.1-8-1.3-4.5-1.4c-23.1-2-45.9-3.4-68.7-4.5
		s-45.7-1.8-69.1-2.3c-4,0-13.7,0-26.4-0.1h-21c-7.6,0-15.5,0.1-23.6,0.1c-16.1,0.2-32.6,0.4-46.8,0.8c-7.1,0.1-13.6,0.4-19.2,0.6
		l-13.7,0.4l-2.5,0.1c-7.5,0.3-15.8,0.6-23.9,1.1s-15.8,1-22.1,1.6l-17.6,2.1c2.8,0,5.3,0,7.5,0.1c-6,0.4-12,0.7-14.3,1.1
		c-12.7,1.4-5.5,1.5-0.5,1.9c3.6,0.1-1.2,0.9,4.4,0.9c-4,0.2-6,0.4-10,0.7c-0.4,0.3,12.3-1.1,9.6-0.3c-3.8,0.1-8.1,0.7-12.1,0.9
		c1.4,0.3,13.8-0.8,13.2-0.3c-2.2,0.2-11.2,0.2-12,0.8c-0.1,0.1,3.8-0.1,5.8-0.3c-12.3,1.1-19,2.1-7.7,1.9
		c-3.9,0.3-9.4,0.4-13.5,0.8l0,0l7.5-0.4l-7,0.5l1.2,0.1c1.8-0.1,3.5-0.1,5.3-0.3l-4.7,0.3c1.2,0.1,2.5,0.2,4,0.2
		c5.5-0.1,10.9,0.1,13.9-0.1C94.3,195.2,118.5,194,142.7,193.1z"/>
	<path class="st2" d="M337.8,278.9c0,0.1,1.4,0-0.8,0.4c-1.6,0.3-3.2,0.5-4.8,0.6l-2.3,0.1h-2.3c-3.1-0.1-6.3-0.3-9.4-0.8
		c-0.2,0-0.3,0.1-0.5,0.1c-5.3-1-10.3-2.8-15-5.5c-4.5-2.5-8.6-5.6-12.4-9c-3.9-3.4-7.6-7.1-11.5-10.7c0.2,0.2,0.2,0.4-0.6-0.4
		c-4.1-4-8.5-7.6-13.1-10.9l-1.2-0.8l-1.2-0.7c-0.3-0.2-0.6-0.3-1-0.4c-2.3-1.4-4.7-2.6-7.1-3.6c-15.1-6.3-32-6.5-47.2-0.6
		c-7.6,3.2-14.7,7.4-21.1,12.7c-6.5,5.1-12.7,10.8-19.1,16.2c-5.3,4.7-11,8.8-17.1,12.3c-4.8,2.7-10,4.8-15.4,6.1
		c-5.3,1.3-10.8,1.5-16.1,0.6c0.2,0.1,0,0.1-0.6,0.1s-1.3-0.1-2.3-0.3c-2.4-0.5-4.7-1.2-7-2.1c-4.9-2-9.1-4.7-7.2-3
		c-5.8-3.5-13.3-10.2-13.8-10.4c-1.8-1-3.5-2.1-5.1-3.4l-5.7-4.3c-2.3-1.8-5.2-4-8.8-6.3c-3.1-2.1-6.4-3.9-9.9-5.3
		c-2.4-1-5-1.7-7.6-2.1c-1-0.1-0.9-0.1-0.3,0.1L53,248c2,0.6,4,1.4,2.3,0.9c5.8,1.9,11.2,4.8,16.1,8.6c5,3.7,9.7,7.9,14.5,12.1
		c4.8,4.3,10,8.2,15.5,11.7c5.7,3.6,12.1,5.9,18.8,6.8c3.4,0.4,6.7,0.4,10.1-0.1c3.3-0.4,6.6-1.2,9.7-2.2c6.2-2.1,12.2-5.1,17.6-8.7
		c5.4-3.6,10.6-7.5,15.5-11.8c4.9-4.1,9.8-8.4,14.8-12.3c2.8-2.2,5.7-4.4,8.7-6.3c2.3-1.5,4.6-2.8,7-4c1.3-0.7,2.7-1.3,4.2-1.9
		s3-1.2,4.6-1.6c3.4-1.1,6.9-1.8,10.5-2.2c3.9-0.5,7.8-0.5,11.7-0.2c8.4,0.7,16.5,3.1,23.9,7.2c7.5,4.2,14,10.4,20.3,16.5
		c6.3,6.1,12.7,12.1,19.7,16.3c3.4,2,6.9,3.7,10.7,4.9l2.6,0.8c0.4,0.1,0.9,0.3,1.3,0.4l1.3,0.3l2.5,0.5c0.8,0.2,1.6,0.2,2.5,0.4
		c5.2,0.7,10.5,0.7,15.8,0.1l2.8-0.4c4.4-0.7,8.8-1.9,13-3.4c4.3-1.6,8.5-3.7,12.5-6.1c3.8-2.4,7.3-5,10.7-7.9
		c3.2-2.7,6.1-5.4,8.7-7.7c4.8-4.3,9.7-8.5,15.3-11.6c-2.4,1.2-4.8,2.5-7,4c2.5-1.8,5.1-3.4,7.9-4.8c1.9-0.9,3.8-1.7,5.8-2.4
		c1.3-0.5,2.6-0.8,4-1.2c1.1-0.3,1.9-0.4,2.4-0.5c1.1-0.2,1.2-0.3,0.8-0.3c-0.9,0-1.9,0.1-2.8,0.2c-0.6,0.1-1.3,0.2-2,0.3l-2.1,0.4
		c-1.9,0.5-1.6,0.3-1.6,0.2s-0.2-0.2-3.1,0.9c1.7-0.7,3.5-1.3,5.3-1.8c0.8-0.2,1.6-0.5,2.5-0.6l1.4-0.3l1.6-0.2
		c-2.1,0.2-4.2,0.6-6.2,1.3L403,243l-1.6,0.6c-0.8,0.3-1.1,0.4-0.5,0c2.1-0.8,4.2-1.5,6.4-2.1c2.2-0.5,4.5-0.9,6.8-1
		c-0.4,0-0.7,0-1.1,0c-0.7,0-1.3,0.1-2,0.2c-0.8,0.1-1.6,0.2-2.5,0.4l-1.3,0.3l-1.3,0.3c-3.5,0.9-6.6,2.3-6.3,2.1
		c2.3-1,4.6-1.8,7-2.3c2.9-0.7,5.7-1,6.1-1.1c-0.2,0-0.4,0-0.6,0c-0.4,0-1,0.1-1.8,0.2s-1.5,0.2-2.2,0.4s-1.4,0.3-2,0.5
		c2.9-0.8,6-1.3,9-1.4c1.8-0.1,3.7,0,5.5,0.3l0.9,0.1c0.1,0-0.1-0.1-0.5-0.2s-1.1-0.2-2.1-0.4c-1.3-0.2-2.7-0.3-4-0.3
		c2.6,0,5.2,0.3,7.7,1c2.6,0.7,5.1,1.9,7.3,3.3l0,0l-1.8-1c-0.7-0.4-1.4-0.7-2.1-1.1s-1.5-0.6-2.2-0.9s-1.4-0.4-1.9-0.5
		c2.7,0.6,5.3,1.7,7.6,3.2l-1.2-0.9c-1.8-1.1-3.8-1.9-5.9-2.4c0.4,0.1,0.9,0.2,1.3,0.4l1.3,0.5c0.9,0.3,1.7,0.7,2.5,1.1
		c-0.6-0.3-1.3-0.7-2-1.1s-1.5-0.7-2.3-0.9c-3-0.9-6.1-1.4-9.3-1.4c-2.4,0-4.7,0.3-7,0.8c-3.5,0.8-6.8,2-10,3.6
		c-3.1,1.6-6.1,3.4-8.9,5.5c-5.6,4.1-10.6,8.7-15.7,13c-4.9,4.4-10.3,8.1-16.1,11.1C350.4,275.7,344.2,277.7,337.8,278.9z"/>
	<path class="st2" d="M193.5,169.3c-0.1,0-0.1,0.3-0.3-0.1c-0.6-1.3-0.7-2.6-1.3-3.9h-0.2c-0.3-1.1-0.7-2.2-1.1-3.4
		c-0.9-2-1.7-4.1-2.6-6.1c0,0.1-0.1,0.1-0.2-0.1c-0.4-0.8-0.8-2-1.3-3.2l-0.2-0.5c-0.1-0.1-0.2-0.1-0.2-0.1c-0.2-0.5-0.4-1-0.6-1.5
		c-2.8-5.8-5.9-11.6-9.3-17.7c-0.8-1.3-1.6-2.5-2.3-3.8c-1-1.9-2.1-4.3-3.1-6.2c-0.4,0.6-3-3.8-3-2.6c-0.5-1.1-1.1-2.1-1.8-3.1
		c-0.6,0-1.6-0.7-3.6-3.8c-0.8-1.2-1.6-3.2-2-3.6c-0.5-0.6,0.6,1.8,0.1,1.2c5.1,9.3,10,18.3,14.5,27.9c0.9,1.6,4,7.9,6.9,14.7
		s5.7,14,6.8,16.9l0.2,0.5c1.2,3.2,2.6,7.1,3.8,9.8l1.7,3.7c-0.1-0.6-0.2-1.2-0.3-1.7c0.3,1.1,0.7,2.1,1.1,3.1
		c1.1,2.7,0.9,1,0.9-0.2c-0.1-0.8,0.5,0.1,0.3-1.1l0.7,2.2c0.2,0.1-1-2.7-0.5-2.1c0.2,0.9,0.6,1.8,0.9,2.6c0.1-0.4-0.9-3.1-0.7-3
		c0.2,0.4,0.5,2.6,0.8,2.6c-0.1-0.4-0.2-0.9-0.4-1.3c1,2.7,1.7,4.1,1.2,1.5c0.3,0.9,0.6,2.1,0.9,3l0,0c-0.1-0.4-0.4-1.2-0.5-1.7
		l0.5,1.6v-0.3c-0.1-0.4-0.2-0.8-0.3-1.2l0.3,1c0-0.3,0-0.6,0-1c-0.2-1.3-0.4-2.5-0.6-3.2C197.2,179.9,195.5,174.5,193.5,169.3z"/>
	<path class="st2" d="M350.9,171.9c-0.1-0.1-0.3,0.1-0.1-0.3c0.8-1.4,1.9-2.2,2.8-3.5l-0.1-0.2c0.8-0.9,1.6-1.9,2.5-2.9
		c1.5-1.9,2.9-3.8,4.5-5.6c-0.1,0-0.1,0,0-0.2c0.6-0.8,1.5-1.8,2.5-2.8l0.4-0.5c0.1-0.1,0.1-0.2,0.1-0.3l1.2-1.2
		c4.7-5.6,9.8-10.8,15.1-15.8c1.2-1.1,2.4-2.3,3.6-3.3c1.8-1.5,4.3-3.2,6.1-4.5c-0.6-0.3,3.8-3.7,2.6-3.5c1.1-0.7,2.2-1.5,3.2-2.3
		c0-0.6,0.7-1.8,4.1-4.1c1.4-0.9,3.6-1.9,4-2.3c0.7-0.6-2,0.8-1.3,0.2c-5.2,2.9-10.2,6.1-15,9.5c-4.7,3.5-9.4,7.2-13.9,11.2
		l-4.9,4.7c-2.3,2.3-5.2,5.2-8,8.3s-5.5,6.3-7.8,9.2c-1.2,1.4-2.2,2.8-3,3.9l-2.1,2.8l-0.4,0.5c-1.1,1.6-2.4,3.3-3.5,5.1
		s-2.1,3.5-2.9,4.9s-1.3,2.8-1.9,4.1c0.4-0.6,0.9-1.1,1.2-1.5c-0.7,1-1.3,2.1-1.8,3.2c-1.4,3-0.2,1.5,0.7,0.6
		c0.6-0.7,0.2,0.5,1.1-0.6c-0.5,0.9-0.8,1.3-1.2,2.2c0.1,0.2,1.4-2.8,1.3-2c-0.5,0.8-1,1.8-1.5,2.7c0.4-0.2,1.8-3.1,1.9-2.8
		c-0.3,0.5-1.6,2.4-1.5,2.6c0.3-0.4,0.5-0.8,0.8-1.3c-1.4,2.8-2,4.4-0.4,2c-0.5,0.9-1.2,2-1.7,3l0,0l1-1.6l-0.9,1.6l0.2-0.2
		c0.2-0.4,0.5-0.8,0.7-1.1l-0.6,1c0.2-0.2,0.5-0.5,0.7-0.8c0.8-1.1,1.7-2.2,2-2.9C344,181.9,347.3,176.8,350.9,171.9z"/>
	<path class="st2" d="M94.8,185.2c-0.1,0.1-0.1,0.2-0.2,0.1c-0.3-0.2-0.1-0.6-0.4-0.8l-0.2,0.1c-0.1-0.2-0.2-0.5-0.2-0.8
		c-0.3-0.4-0.6-0.8-0.8-1.2c0,0-0.1,0.1-0.1,0c-0.1-0.2-0.2-0.5-0.3-0.7l-0.1-0.1h-0.1c0-0.1-0.1-0.2-0.1-0.4
		c-0.9-1.2-1.7-2.6-2.4-4c-0.2-0.3-0.4-0.6-0.6-1c-0.1-0.5-0.1-1.1-0.1-1.6c-0.6,0.1-0.9-1.1-1.5-0.8c0-0.4,0-0.9-0.2-0.9
		c-0.7-0.1-1.2-0.7-1.3-1.4c0-0.4,0.2-1,0.1-1.1s-0.4,0.5-0.5,0.2c-0.2,1.4-0.2,2.9-0.1,4.4c0.2,1.4,0.4,2.9,0.8,4.3
		c0.2,0.5,0.8,2.3,1.7,4.1c0.7,1.5,1.5,2.9,2.4,4.3l0.1,0.1c0.5,0.8,1.2,1.5,2,2.1c0.3,0.2,0.7,0.3,1.1,0.5c0-0.2-0.1-0.4-0.1-0.5
		c0.2,0.3,0.5,0.6,0.7,0.6c0.7,0.3,0.6-0.2,0.7-0.6c0-0.3,0.3-0.3,0.2-0.6c0.2,0.2,0.2,0.2,0.4,0.4c0.1-0.1-0.6-0.4-0.3-0.5
		c0.1,0.2,0.3,0.3,0.5,0.4c0.1-0.2-0.5-0.6-0.3-0.7c0.1,0.1,0.2,0.6,0.5,0.5c0,0-0.1-0.2-0.2-0.3c0.6,0.4,1,0.4,0.8-0.2
		c0.1,0.1,0.3,0.4,0.5,0.6l0,0c-0.1-0.1-0.2-0.2-0.2-0.3l0.3,0.3v-0.1c0-0.1-0.1-0.2-0.2-0.2l0.2,0.2c0-0.1,0-0.2,0-0.3
		c-0.1-0.3-0.1-0.7-0.2-0.8C96.3,187.1,95.5,186.2,94.8,185.2z"/>
	<path class="st2" d="M399,180c0-0.1-0.3,0,0-0.3c0.9-0.8,1.9-1.1,2.7-1.9v-0.2c0.8-0.5,1.6-1,2.5-1.4c1.5-1,2.9-2,4.5-2.9
		c-0.1,0-0.1-0.1,0-0.2c0.6-0.4,1.5-0.9,2.5-1.4l0.4-0.2c0.1,0,0.1-0.1,0.1-0.2l1.2-0.6c4.7-2.8,9.7-5.1,14.8-7
		c1.2-0.4,2.3-0.9,3.5-1.3c0.9-0.3,1.9-0.5,2.8-0.6l2.8-0.5c-0.4-0.5,3.8-1.4,2.9-1.9c1-0.1,2-0.2,3-0.4c0.2-0.4,0.6-0.7,1-0.8
		c1-0.4,2.1-0.7,3.2-0.8c1.2-0.1,3.1,0.1,3.6,0c0.7-0.2-1.6-0.3-0.9-0.5c-4.6-0.1-9.2,0.3-13.7,1c-4.5,0.8-8.9,2-13.3,3.4
		c-0.7,0.3-2.5,1-4.9,2c-1.2,0.5-2.4,1.1-3.8,1.7s-2.8,1.4-4.2,2.1c-2.8,1.5-5.6,3.2-8,4.8c-1.2,0.7-2.2,1.5-3.1,2.2l-2.2,1.6
		L396,176c-1.1,1-2.5,2-3.6,3.1s-2.2,2.2-3.1,3.1s-1.4,1.9-2.1,2.8c0.4-0.3,0.9-0.6,1.2-0.9c-0.7,0.6-1.3,1.3-1.9,2.1
		c-1.4,2.1-0.3,1.2,0.6,0.7c0.6-0.4,0.1,0.5,1-0.2c-0.5,0.5-0.8,0.9-1.3,1.4c0,0.2,1.5-1.8,1.3-1.3c-0.5,0.6-1,1.2-1.5,1.8
		c0.3-0.1,1.8-2,1.9-1.7c-0.3,0.3-1.6,1.4-1.5,1.7c0,0.1,0.5-0.5,0.8-0.8c-1.5,1.9-2.1,3-0.5,1.6c-0.5,0.6-1.3,1.3-1.7,1.9l0,0l1-1
		l-0.9,1l0.2-0.1c0.2-0.2,0.5-0.5,0.7-0.7l-0.6,0.7c0.2-0.1,0.5-0.3,0.7-0.4c0.8-0.7,1.7-1.3,2-1.7C392,185.9,395.4,182.8,399,180z"
		/>
	<path class="st2" d="M176.3,172.3c-0.1-0.2-0.8-0.1,0.1-0.6c3-1.7,5.8-2.4,8.8-4.2l0.1-0.4l7.6-3.3c4.6-2.4,9.2-4.7,13.8-6.8
		c-0.2-0.1-0.3-0.1,0.2-0.4c1-0.4,2.1-1,3.4-1.4l4.1-1.5l1.2-0.5c0.3-0.2,0.4-0.3,0.4-0.4c1.3-0.4,2.4-0.8,3.5-1.1
		c7-2.7,14.2-4.6,21.6-5.9c7.7-1.3,15.6-1.3,23.3,0.1c0.4,0.1,0.9,0.1,1.3,0.2l1.2,0.3l2.5,0.6c1.7,0.4,3.2,1,4.8,1.6
		c4.6,1.8,9.8,5.5,13.4,8.7c0-0.3,0.7-0.2,1.6,0.3s2,1.2,3.1,2c2.2,1.5,4.1,3,3.7,1.7c2.3,2.4,5.4,6.4,5.8,6.4
		c0.6,0,1.6,0.3,3.1,1.6c2.3,2.1,4.4,4.4,6.2,7c2,2.9,4.3,7.8,5,8.8c1.2,1.6-1.6-4.3-0.4-2.8c-3.1-5.8-6.7-11.3-10.6-16.6
		c-4-5.3-8.7-10.1-13.8-14.4c-1.3-1.1-2.7-2.1-4-3.1c-0.7-0.5-1.4-0.9-2.1-1.4s-1.4-0.9-2.2-1.3c-3-1.7-6.1-3.2-9.3-4.4
		c-6.4-2.4-13.2-3.8-20.1-4.1c-5.1-0.1-10.2,0.3-15.3,1c-4,0.6-7.9,1.3-11.8,2.3c-4.1,1.1-8.5,2.4-12.8,4c-8.2,3-16.2,6.5-24,10.5
		c-7,3.5-12.8,6.5-16.2,8.1l-1.2,0.6c-3.7,1.8-7.7,3.8-11.6,5.7c-1.9,0.9-3.9,1.9-5.7,2.7s-3.5,1.6-5.1,2.4s-2.8,1.4-4.3,2
		s-2.9,1.3-4.4,1.9c1.5-0.3,2.8-0.4,4-0.7c-3.1,1-6.2,1.9-7.3,2.4c-3.2,1.1-3.9,1.5-3.4,1.7c1.2,0.2,2.4,0.2,3.6,0.1
		c2-0.2-0.4,1,2.6,0.6c-2.1,0.6-3.2,0.9-5.4,1.4c-0.1,0.4,6.5-1.9,5.2-1c-2.1,0.4-4.3,1.3-6.5,1.7c0.9,0.4,7.5-1.7,7.3-1.2
		c-1.1,0.4-6.2,1.1-6.5,1.6c0.4,0,0.8,0,1.2-0.1c0.7-0.1,1.5-0.4,2-0.5c-1.6,0.5-3.1,0.9-4.3,1.2c-0.9,0.2-1.7,0.5-2.5,0.9
		c-1,0.4-0.3,0.6,2.9,0.2c-2.1,0.5-5.3,0.8-7.6,1.2l0,0c1.2-0.2,3.1-0.4,4.2-0.6l-3.9,0.6l0.7,0.1c1-0.1,2-0.2,3-0.4l-2.6,0.4
		c0.7,0.1,1.5,0.1,2.3,0.1c1.6,0,3.1-0.2,4.5-0.3c1.1-0.1,2.3-0.2,3.4-0.5C151.7,183.9,164.3,178.2,176.3,172.3z"/>
</g>
</svg>
