<?xml version="1.0" encoding="utf-8"?>
<!-- Generator: Adobe Illustrator 25.4.1, SVG Export Plug-In . SVG Version: 6.00 Build 0)  -->
<svg version="1.1" id="Lager_1" xmlns="http://www.w3.org/2000/svg" xmlns:xlink="http://www.w3.org/1999/xlink" x="0px" y="0px"
	 viewBox="0 0 500 500" style="enable-background:new 0 0 500 500;" xml:space="preserve">
<style type="text/css">
	.st0{fill:#CC0066;}
	.st1{fill:#F9CFB5;}
	.st2{fill:#B8E1F0;}
	.st3{fill:#1D1D1D;}
	.st4{fill:#1595BF;}
	.st5{fill:#EB6F00;}
</style>
<g id="Cyklist">
	<polygon class="st0" points="267,211.9 286.5,201.8 291.8,208 273,216.3 	"/>
	<path class="st1" d="M276.6,197c0,0,15.2-4.6,19,0s3.9,11.6,3.9,11.6s-9.4,7.1-12.9,5.8s2.3-5.1,1.4-6.5s-11.5-3.1-11.5-3.1
		L276.6,197z"/>
	<path class="st2" d="M181.4,204.6c0.4-1.8-7.1-32.4-6-42.3s10.9-31.8,20.6-26.3c12.7,7.3,18.8,12,22.5,18.2s7.2,20.6,24.8,24.3
		s37.2,13.4,37.1,16.7c0,4.3-0.3,8.5-0.8,12.7c0,0-26.4-7.1-38.3-9.6s-9.1-0.6-9.1-0.6l-2.4,19.4l-6.2,4.7l-34.6-5.6l-9.8-0.8
		L181.4,204.6z"/>
	<path class="st3" d="M174.6,305.5c0.1-0.1-0.9-1,0.9,0c2.5,1.6,4.9,3.5,7,5.6c2.1,2,4,4.1,6,6.5l0.5,0.1c3.1,4,5.5,8.5,7.3,13.2
		c3.7,8.9,5.2,18.6,4.5,28.2c0.1-0.2,0.3-0.4,0.2,0.6c-0.2,2.4-0.5,4.7-1,7c-0.6,2.7-1.3,5.4-2.2,8c-0.3,0.8-0.5,1.6-0.8,2.4
		c-0.1,0.3-0.2,0.7-0.1,1l-0.7,1.8c-0.3,0.6-0.5,1.1-0.8,1.6c-0.5,1.1-1,2-1.5,3c-3.1,6.4-7.4,12.2-12.6,17.1
		c-5.3,5-11.6,8.8-18.4,11.4c-14.7,5.4-30.7,5.5-45.4,0.3c-6.5-2.1-12.5-5.3-17.9-9.4c-4.1-3.4-7.7-7.4-10.7-11.8
		c-1.6-2.3-3-4.6-4.2-7.1c-1.1-2.3-2.1-4.6-3-7c-0.1,0.4-0.8-0.6-1.6-2.3c-0.4-0.9-0.9-2-1.3-3.1c-0.2-0.6-0.4-1.2-0.6-1.8l-0.5-1.9
		c-1.5-5-2-9.9-2.4-7.4c-0.2-3.6-0.1-7.3,0.3-10.9c0.1-0.9,0.2-1.6,0.3-2.4s0.2-1.4,0.3-1.9c0.1-0.7,0.2-1.3,0.2-2
		c-0.2-0.7-0.3-1.4-0.2-2.1c0.1-1.4,0.3-2.9,0.6-4.3c0.6-2.4,1.3-4.8,2.3-7.1c1.5-3.6,3.4-7,5.7-10.1c2.5-3.3,5.4-6.2,8.6-8.8
		c1.6-1.3,3.1-2.4,4.4-3.2s2.3-1.5,2.8-1.9c0.8-0.5,0.7-0.6,0.1-0.4s-1.6,0.8-2.7,1.4c-2.1,1.2-4.1,2.5-2.5,1.2
		c-11.1,8.1-19.1,20-22.5,33.4c-0.9,3.3-1.4,6.7-1.7,10.1c-0.3,3.4-0.3,6.8,0,10.2c0.6,6.7,2.2,13.3,4.7,19.6c1.3,3.1,2.8,6.1,4.5,9
		s3.6,5.7,5.7,8.3c4.3,5.3,9.3,9.9,15,13.5c11.5,7.4,24.7,11.4,38.3,11.8c3.9,0,7.7-0.2,11.5-0.7c2.9-0.4,5.8-1,8.6-1.7
		c3.4-0.9,6.7-2,9.9-3.4c7.6-3.2,14.5-7.9,20.3-13.7c6.5-6.5,11.6-14.3,15-22.9c3.5-8.7,5.4-17.9,5.6-27.2
		c0.2-8.8-1.3-17.6-4.3-25.8c-2.6-7-6.5-13.6-11.4-19.3c-3.5-4-7.5-7.7-11.8-10.8l-2.4-1.6c-7.7-5.1-16.4-8.6-25.4-10.5
		c-8.4-1.8-17-1.9-25.5-0.5c-6.7,1.2-13.2,3.5-19.1,6.9c2.6-1.1,5.3-2,8.1-2.7c-3.1,1-6.1,2.3-9,3.8c-1.9,1-3.8,2.2-5.6,3.5
		c-1.9,1.3-3.7,2.9-5.4,4.5c-0.8,0.9-0.8,1.1-0.4,0.9c0.9-0.4,3.7-2.3,6.2-3.5c1.7-0.9,1.6-0.6,1.6-0.3s0.3,0.2,3-1.1
		c-1.9,1.1-3.2,1.9-4.6,2.9s-2.6,1.9-4.3,3.3c-0.1,0.3,2.4-1.9,4.9-3.6s4.8-3,3.7-2c-1.9,1-3.7,2.2-5.4,3.5c-1.7,1.3-3.4,2.8-5,4.3
		c0.7-0.4,3.4-2.8,6.2-4.8s5.6-3.4,5.4-3.1c-1,0.6-3.6,2-5.9,3.6s-4.3,3.3-4.4,3.8c0.6-0.4,1.2-0.9,1.8-1.4c0.5-0.4,1.1-0.9,1.6-1.3
		s1.1-0.8,1.5-1.1c-3.7,2.6-6.8,5.8-9.4,9.5c-0.5,0.8-0.5,1,0.1,0.5s1.8-1.8,3.9-3.7c-1.6,1.6-3.1,3.3-4.5,5.1
		c-1.4,1.8-2.6,3.8-3.6,5.9l0,0l0.8-1.6l1.1-1.8c0.8-1.2,1.6-2.3,2.2-3.1c-1.4,1.9-2.7,3.9-3.8,6l0.8-1c0.9-1.5,1.9-3,3-4.5
		c-0.9,1.3-1.8,2.6-2.6,3.9c0.7-0.9,1.6-2,2.6-3.1c3-3.5,6.5-6.6,10.3-9.2c2.4-1.8,5-3.4,7.8-4.7c2.7-1.4,5.5-2.5,8.4-3.4
		c5.9-1.8,11.9-2.6,18-2.5C152.1,295.3,164.2,298.9,174.6,305.5z"/>
	<path class="st3" d="M230.4,201c0.1,0,0.2-0.1,0.2,0c0.1,0.2,0.1,0.5,0,0.7s-0.1,0.4-0.1,0.7h0.2c-0.1,0.4-0.1,0.8-0.2,1.1
		c0.1,0.7-0.1,1.4-0.1,2.1c0.1,0,0.1,0,0.1,0.1c0,0.4-0.1,0.8-0.3,1.1v0.2l0.1,0.1c-0.1,0.2-0.1,0.4-0.1,0.5c-0.3,2.3-1,4.5-2.1,6.6
		c-0.2,0.5-0.4,1-0.7,1.5c-0.2,0.4-0.5,0.7-0.8,1l-0.9,0.9c0.5,0.3-0.6,1.8,0,2c-0.4,0.4-1,0.9-0.9,1c0.2,0.4,0.3,1.1-0.6,2.3
		c-0.4,0.4-1.1,0.8-1.2,1s0.8-0.2,0.6,0.1c3.4-2.5,6.3-5.7,8.5-9.3c1-2,1.8-4.2,2.4-6.4c0.3-1.5,0.5-3,0.6-4.4c0-1.4,0-2.5-0.1-3.1
		v-0.2c-0.1-0.7-0.2-1.5-0.4-2.2s-0.4-1.3-0.7-1.9c-0.3-0.5-0.6-1-0.9-1.4c0,0.3,0,0.5,0,0.7c-0.1-0.4-0.3-0.8-0.5-1.2
		c-0.6-1-0.7-0.3-0.9,0.3c-0.1,0.3-0.4,0.1-0.4,0.6l-0.3-0.8c-0.2,0,0.5,1,0.1,0.8c-0.1-0.3-0.2-0.7-0.4-1c-0.2,0.2,0.3,1.1,0.1,1.1
		c-0.1-0.1-0.1-1-0.3-0.9c-0.1,0,0.1,0.3,0.1,0.5c-0.4-0.9-0.9-1.3-0.8-0.4c-0.1-0.4-0.2-0.7-0.3-1.1l0,0c0.1,0.2,0.1,0.4,0.2,0.6
		l-0.2-0.5l-0.1,0.1c0,0.1,0.1,0.3,0.1,0.4l-0.1-0.4c0,0.1-0.1,0.3-0.1,0.4c0,0.4,0,0.8,0,1.2c0.1,0.5,0.3,0.9,0.4,1.4
		s0.2,0.9,0.3,1.4s0.2,0.9,0.3,1.4L230.4,201z"/>
	<path class="st0" d="M191.4,252.7c-1.2,0-24.2-2.1-16.7,10.2c7.5,12.3,29.6,4.9,33.7,1.8S191.4,252.7,191.4,252.7z"/>
	<path class="st0" d="M262.8,352.9c0,0,1.8,7.2,11.4,10.5c5.5,1.9,11.5,0.9,9.7,5.6s-17.2,3.7-25.5,1.3s-9.9-1.9-12.5-5.7
		s0.2-10,3.2-15.8s9.3-4,9.3-4L262.8,352.9z"/>
	<path class="st4" d="M179.3,215.5c0.3-1.1,42.1,3.9,43,6.2c-0.2-0.5,3.4,23.6-0.4,22.2c6.6,2.5,46.8,21,48.2,28.1
		c1.1,6,1.3,60.5,1.4,77c0,2.6-2.1,4.7-4.6,4.7h-0.1c-7.6-0.1-21.5-0.6-21.4-2c0.1-1.9,1-35.2,0.3-38.9c-0.6-2.9-2.3-15.1-3-20.4
		c-0.2-1.5-1.2-2.8-2.6-3.5c-9.9-5-52.8-24.3-58.6-29.4C174.8,253.8,171.4,242.1,179.3,215.5z"/>
	<path class="st1" d="M216.3,88.9c0,0,9.1,5.5,9.3,19.4s3.5,19.8-5,18.7s-8.3-1-8.3-1s-3.9,4.1-5.4,7.6c-0.9,2.6-1.3,5.3-1.3,8
		c0,0-17.8-4.4-17.4-5c8.6-10.5,10.8-30.7,10.8-30.7L216.3,88.9z"/>
	<path class="st3" d="M398,307.2c0.1-0.1-0.8-1,0.9,0c2.4,1.7,4.7,3.7,6.7,5.9c2,2.1,3.7,4.3,5.7,6.8l0.5,0.2
		c2.9,4.2,5.1,8.8,6.6,13.6c3.2,9.1,4.3,18.8,3.1,28.4c0.1-0.2,0.3-0.3,0.2,0.6c-0.3,2.3-0.7,4.6-1.3,6.9c-0.7,2.7-1.6,5.3-2.6,7.9
		c-0.3,0.8-0.6,1.6-0.9,2.4c-0.1,0.3-0.2,0.6-0.1,1l-0.8,1.7c-0.3,0.5-0.6,1.1-0.8,1.6c-0.5,1-1.1,2-1.7,2.9
		c-3.4,6.2-8,11.8-13.4,16.4c-5.6,4.7-12,8.2-19,10.4c-14.9,4.6-31,3.9-45.4-2c-6.3-2.4-12.2-5.9-17.4-10.3
		c-4-3.6-7.4-7.7-10.2-12.3c-1.4-2.3-2.7-4.8-3.8-7.3c-1-2.3-1.9-4.7-2.7-7.1c-0.1,0.4-0.8-0.6-1.5-2.4c-0.3-0.9-0.8-2-1.1-3.2
		c-0.2-0.6-0.4-1.2-0.5-1.8l-0.5-1.9c-1.2-5-1.5-9.9-2.1-7.5c0-3.6,0.3-7.3,0.9-10.9c0.1-0.8,0.3-1.6,0.4-2.4l0.4-1.9
		c0.2-0.6,0.3-1.3,0.3-2c-0.2-0.7-0.2-1.4-0.1-2.1c0.1-1.4,0.4-2.9,0.8-4.3c0.7-2.4,1.6-4.8,2.7-7c1.7-3.5,3.8-6.8,6.2-9.8
		c2.7-3.1,5.7-6,9-8.4c1.6-1.2,3.2-2.2,4.5-3s2.4-1.4,2.9-1.7c0.8-0.5,0.7-0.5,0.1-0.3s-1.7,0.7-2.8,1.2c-2.1,1.1-4.2,2.3-2.6,1
		c-11.5,7.7-20,19.1-24.1,32.4c-1,3.3-1.8,6.6-2.2,10c-0.5,3.4-0.6,6.8-0.5,10.1c0.2,6.8,1.5,13.5,3.7,19.9c1.1,3.2,2.5,6.3,4,9.2
		c1.6,3,3.4,5.8,5.3,8.6c4,5.5,8.8,10.3,14.3,14.2c11.1,7.9,24.1,12.6,37.6,13.7c3.8,0.2,7.7,0.2,11.5-0.1c2.9-0.2,5.8-0.7,8.7-1.2
		c3.4-0.7,6.7-1.7,10-2.9c7.8-2.8,14.9-7.1,21-12.7c6.8-6.2,12.2-13.7,16.1-22.1c3.9-8.5,6.3-17.6,6.9-26.9c0.6-8.8-0.4-17.6-3-26
		c-2.3-7.2-5.8-13.9-10.4-19.8c-3.3-4.2-7.1-8-11.2-11.4l-2.3-1.8c-7.5-5.4-15.9-9.4-24.9-11.7c-8.3-2.2-16.9-2.8-25.4-1.8
		c-6.8,0.9-13.3,2.9-19.4,5.9c2.7-1,5.4-1.8,8.2-2.3c-3.1,0.9-6.2,2-9.1,3.3c-2,0.9-3.9,2-5.7,3.2c-2,1.2-3.9,2.7-5.6,4.3
		c-0.8,0.8-0.9,1.1-0.4,0.9c0.9-0.4,3.8-2.1,6.4-3.2c1.8-0.9,1.6-0.5,1.6-0.3s0.3,0.3,3-1c-1.9,1-3.3,1.8-4.7,2.6s-2.7,1.8-4.4,3.1
		c-0.1,0.3,2.5-1.8,5-3.4s5-2.7,3.8-1.8c-1.9,0.9-3.8,2-5.6,3.3c-1.8,1.2-3.5,2.6-5.2,4c0.7-0.3,3.5-2.7,6.5-4.4s5.8-3.1,5.6-2.8
		c-1,0.5-3.7,1.8-6.1,3.3s-4.5,3.1-4.6,3.6c0.6-0.4,1.2-0.8,1.8-1.3c0.5-0.4,1.1-0.8,1.7-1.2s1.1-0.8,1.6-1c-3.8,2.4-7.1,5.4-9.8,9
		c-0.5,0.8-0.6,1,0,0.5s1.8-1.7,4.1-3.5c-1.7,1.5-3.3,3.1-4.8,4.9s-2.8,3.7-3.9,5.7l0,0l0.9-1.5l1.2-1.7c0.8-1.1,1.7-2.2,2.3-3
		c-1.5,1.8-2.9,3.8-4.1,5.8c0.2-0.3,0.5-0.6,0.8-1c1-1.5,2.1-2.9,3.2-4.3c-1,1.2-1.9,2.5-2.8,3.8c0.8-0.9,1.7-1.9,2.7-2.9
		c3.7-4.2,8.2-7,10.7-8.7s5.2-3.1,8-4.4c2.8-1.2,5.7-2.2,8.6-3c5.9-1.5,12.1-2,18.2-1.6C376.1,295.9,387.9,300.1,398,307.2z"/>
	<path class="st3" d="M141.9,352.2c0-0.1-0.1-0.2,0.2-0.2c0.8,0.2,1.2,0.8,1.9,1.3l0.1-0.1c0.4,0.5,0.8,1.1,1.1,1.7
		c0.6,1,1,2.1,1,3.3c0.1,0,0.1,0,0.1,0.1c0,0.3,0,0.5-0.1,0.8s-0.2,0.7-0.4,1c0,0.1-0.1,0.2-0.1,0.3c0,0.1,0,0.1,0.1,0.2
		c-0.2,0.3-0.3,0.5-0.5,0.8c-1.2,1.8-2.9,3.2-4.9,4c-1.1,0.5-2.2,0.9-3.4,1.2c-1.1,0.4-2.3,0.5-3.5,0.5c-1,0-2-0.2-2.8-0.8
		c-1.3-1-2.3-2.4-2.8-3.9c-0.2,0.2-0.8-0.5-1.1-1.3s-0.6-1.6-0.9-1.1c-0.1-1.1,0-2.8-0.1-2.9c-0.4-0.3-1-1.3-0.5-4.3
		c0.3-1.2,1-2.8,1.1-3.2c0.1-0.6-0.8,1.3-0.8,0.6c-0.8,2.1-1.4,4.3-1.7,6.5c-0.1,1.2-0.1,2.4,0,3.6s0.4,2.5,0.9,3.6
		c1,2.5,2.8,4.5,5.1,5.8c1.2,0.6,2.6,1,4,1c1.2,0,2.5-0.1,3.7-0.3c1.7-0.4,3.3-0.9,4.9-1.6c1.3-0.6,2.5-1.3,3.7-2.1
		c1.4-1,2.5-2.3,3.4-3.8c0.4-0.8,0.8-1.6,1-2.5c0.1-0.5,0.2-0.9,0.3-1.4c0-0.5,0-0.9,0-1.4c-0.1-1.7-0.6-3.4-1.4-4.8
		c-1.2-2.1-3.1-3.8-5.3-4.8l-0.5-0.2c-1.7-0.6-3.6-0.8-5.4-0.4c-1.6,0.3-3.1,1.1-4.3,2.1c-0.9,0.8-1.7,1.8-2.3,2.9
		c0.4-0.4,0.8-0.7,1.2-1c-0.7,0.7-1.3,1.4-1.6,2.3c-0.5,1.2-0.4,1.5-0.2,1.4s0.6-0.6,1-0.9c0.5-0.5,0.3,0.4,0.9-0.3
		c-0.3,0.5-0.6,1-0.8,1.5c0.1,0.1,0.2-0.4,0.5-0.8s0.5-0.8,0.4-0.5c-0.2,0.3-0.4,0.6-0.5,0.9s-0.3,0.6-0.4,1c0.2-0.3,0.5-0.7,0.6-1
		c0.3-0.5,0.6-0.9,0.6-0.8c-0.1,0.1-0.4,0.5-0.6,0.9s-0.4,0.7-0.3,0.9s0.3-0.5,0.5-0.8c-0.3,0.6-0.5,1.3-0.5,2
		c0.1,0.3,0.2,0.1,0.6-0.6c-0.3,0.6-0.4,1.3-0.5,1.9l0,0c0-0.4,0.1-0.7,0.2-1.1c-0.1,0.3-0.1,0.7-0.2,1l0.1-0.2
		c0.1-0.2,0.1-0.5,0.2-0.7c-0.1,0.2-0.1,0.4-0.1,0.6c0.1-0.1,0.2-0.3,0.3-0.5c0.3-0.6,0.6-1.1,1-1.6c0.8-1.4,2-2.6,3.5-3.3
		C138.9,351.9,140.5,351.7,141.9,352.2z"/>
	<path class="st3" d="M368,353.1c0-0.1-0.1-0.2,0.1-0.2c0.6,0.1,0.9,0.6,1.4,0.9l0.1-0.1c0.2,0.3,0.4,0.6,0.5,1
		c0.3,0.6,0.2,1.3-0.1,1.9c0,0,0.1,0,0.1,0.1c-0.2,0.5-0.6,0.9-1,1.3l-0.2,0.2c0,0.1,0,0.1,0,0.2c-0.2,0.2-0.4,0.4-0.6,0.6
		c-0.6,0.7-1.3,1.3-2,1.9s-1.5,1.1-2.3,1.6c-1.6,1-3.5,1.4-5.3,1.2c-0.8,0-1.6-0.3-2.3-0.7c-1-0.8-1.7-1.9-1.9-3.2
		c-0.3,0.1-0.6-0.5-0.8-1.2s-0.3-1.4-0.7-1.1c0.2-0.8,0.3-1.6,0.4-2.3c-0.4-0.3-0.8-1.3,0.1-3.7c0.4-0.9,1.4-2,1.5-2.4
		c0.2-0.5-1,0.9-0.8,0.3c-1.1,1.5-1.9,3.2-2.6,5c-0.7,2-0.9,4.2-0.5,6.3c0.3,1.2,0.8,2.2,1.5,3.2c0.7,0.9,1.6,1.7,2.7,2.3
		c2,1,4.2,1.5,6.4,1.2c1.5-0.3,3-0.8,4.4-1.5c1-0.5,2-1.1,2.9-1.8c1-0.7,2-1.6,2.9-2.5c1-1,1.9-2.3,2.4-3.7c0.6-1.5,0.7-3.2,0.1-4.8
		c-0.4-1.3-1.3-2.4-2.4-3.2c-0.7-0.6-1.5-1-2.3-1.3l-0.5-0.1c-1.4-0.5-3-0.6-4.5-0.3c-1.3,0.3-2.5,0.8-3.6,1.5
		c-0.8,0.6-1.5,1.2-2.1,2c0.4-0.2,0.8-0.3,1.1-0.5c-0.6,0.4-1.2,0.9-1.7,1.4c-1.3,1.5-0.3,0.9,0.5,0.8c0.5-0.2,0.1,0.4,0.9,0.1
		c-0.5,0.4-0.7,0.5-1.1,0.9c0,0.2,1.3-1.2,1.2-0.7c-0.5,0.4-0.9,0.7-1.3,1.2c0.3,0,1.5-1.2,1.6-1c-0.2,0.2-1.4,0.8-1.3,1.1
		c0,0,0.5-0.3,0.7-0.5c-1.3,1.2-1.8,2.1-0.4,1.2c-0.4,0.4-1,0.8-1.5,1.3l0,0l0.8-0.7l-0.7,0.7h0.2c0.2-0.1,0.4-0.3,0.6-0.5l-0.5,0.5
		c0.2-0.1,0.4-0.1,0.6-0.2c0.7-0.4,1.4-0.7,1.7-1c1.1-1,2.4-1.8,3.8-2.3c0.6-0.2,1.2-0.4,1.8-0.4C366.9,352.9,367.4,353,368,353.1z"
		/>
	<path class="st3" d="M111.2,311.6c-0.1,0,0.2,0.6-0.4-0.2c-1.7-2.4-3.3-5-4.8-7.6l-0.3-0.1c-1.2-2.2-2.2-4.6-3-7
		c-0.9-2.2-1.5-4.4-2-6.7c-0.1-0.6-0.2-1.1-0.3-1.7c-0.1-0.6-0.2-1.1-0.2-1.7c-0.1-1.1-0.1-2.3-0.1-3.4c-0.1,0.1-0.1,0.2-0.1-0.3
		c0-1.1,0.1-2.2,0.3-3.3c0.1-0.5,0.2-1,0.4-1.5c0.1-0.3,0.3-0.5,0.5-0.6s0.4-0.2,0.6-0.3c0.1,0,0.2-0.1,0.3-0.2
		c1-0.2,2.1-0.2,3.1-0.1c14.4-0.1,29.2,0.2,45,1.4c3.3,0.2,6.6,0.6,9.8,1.2c2.5,0.5,5,1.3,7.4,2.2c2.4,1,4.7,2.1,6.9,3.3
		c-0.2-0.4,2.3,0.6,4.5,1.8s4.3,2.2,3.5,1.3c2.6,1.7,6.6,4.2,6.9,4.2c0.9,0,3.2,0.8,10.4,5c2.8,1.7,6.9,4.6,7.9,5.1
		c1.6,0.8-3.4-2.6-1.8-1.7l-15.1-9.8c-5-3.2-10-6.5-15.4-9.4c-2.7-1.5-5.6-2.7-8.6-3.7s-6-1.7-9.1-2.3c-6.1-1.1-12.2-1.5-18.3-2
		c-2.1-0.1-7.1-0.4-13.8-0.7c-3.3-0.1-7.1-0.3-11-0.4l-6.1-0.1h-3.1c-1.2,0-2.3,0-3.5,0.1c-1.5,0.2-3,0.8-4.1,1.9
		c-0.6,0.6-1,1.3-1.3,2.1c-0.2,0.6-0.4,1.3-0.5,1.9c-0.2,1.1-0.3,2.2-0.4,3.4s-0.1,2.2,0,3.3c0.2,4.2,1,8.3,2.4,12.2
		c1.2,3.3,2.6,6.4,4.4,9.4c1.5,2.6,2.9,4.7,4,6.2l0.8,1.1c4.8,6.6,11.5,13.3,16.1,18.1c2.1,2.1,4.3,4.3,6.3,6.6l-2.3-3.1
		c2,2.4,3.9,4.8,4.7,5.7c2.1,2.6,2.5,3.1,2.4,2.7c-0.4-1-0.9-2-1.5-3c-1-1.6,0.8,0.2-0.9-2.1c1.3,1.7,1.9,2.5,3.1,4.2
		c-0.5-0.9-1-1.7-1.7-2.4c-0.9-1.2-1.7-2.2-1.1-1.7c0.6,0.8,1.2,1.7,1.9,2.5s1.3,1.8,1.9,2.6c-0.6-1.1-1.3-2.2-2.1-3.3
		c-0.7-0.8-1.2-1.7-1.8-2.5c0.4,0.4,1.2,1.6,2,2.8c0.5,0.8,1.1,1.6,1.7,2.3c0.1,0-1.1-1.7-1.7-2.6c1.9,2.6,3.4,4.7,3.9,5.5
		c0.3,0.4,0.4,0.5,0.3,0.1c-0.4-0.9-0.8-1.7-1.3-2.5c1.2,1.7,2.5,4.4,3.5,6.3l0,0c-0.5-1-1.3-2.7-1.9-3.6c0.6,1.1,1.2,2.2,1.8,3.3
		c-0.1-0.2-0.1-0.4-0.2-0.6c-0.4-0.9-0.8-1.7-1.3-2.5c0.4,0.7,0.8,1.5,1.2,2.2c-0.2-0.6-0.5-1.3-0.8-2c-1.1-2.3-2.3-4.4-3.7-6.5
		C128.2,330,118.6,321.4,111.2,311.6z"/>
	<path class="st3" d="M216.4,155.9c0.1,0,0-0.4,0.3,0.1c1,1.5,1.4,3,2.2,4.6l0.2,0.1c0.5,1.3,1,2.7,1.5,4.2c0.6,1.5,1.3,2.9,2.2,4.2
		c1,1.4,2.2,2.7,3.5,3.7c0-0.1,0-0.2,0.2,0c1.1,0.8,2.5,1.7,4,2.6l0.7,0.4c0.1,0,0.2,0,0.3,0c0.7,0.4,1.3,0.7,1.9,1
		c7.8,3.8,16,6.2,24.7,9c1.9,0.5,3.8,1.1,5.5,1.7c2.6,1,5.8,2.4,8.2,3.6c-0.1-0.8,5.9,2,5,0.9c0.5,0.3,0.9,0.6,1.3,0.9
		c0.5,0.4,0.8,0.9,1,1.5c0.1,0.6,0.2,1.3,0.3,1.9c0.5,0.5,0.9,1.9,0.7,6.7c-0.1,1.9-0.6,4.7-0.5,5.4c0.1,1.1,0.6-2.4,0.6-1.3
		c0.3-3.5,0.7-6.9,1-10.4c0.1-0.6,0.1-1.2,0-1.8c-0.1-0.8-0.3-1.6-0.8-2.4c-0.8-1.1-1.8-2-3-2.5c-1.6-0.8-3.1-1.6-4.8-2.3
		c-6.4-3-13-5.2-19.5-7.7c-1.1-0.4-3.9-1.3-7.4-2.7c-4.1-1.6-8.1-3.4-11.9-5.4c-2-1-3.9-2.3-5.7-3.7c-0.7-0.6-1.3-1.4-1.8-2.2
		c-0.5-0.9-1-1.7-1.3-2.7c-0.8-1.9-1.6-3.8-2.3-5.4s-1.4-2.9-1.9-3.8l-0.4-0.7c-1.2-2.2-2.7-4.3-4.4-6.2c-2.8-3.3-6.5-5.8-10.6-7.1
		c0.7,0.4,1.4,0.8,2,1.3c-1.3-0.8-2.7-1.3-4.2-1.7c-2-0.4-2.5-0.3-2.2-0.1s1.1,0.6,1.8,1c1,0.5-0.5,0.3,1,1
		c-0.9-0.4-1.9-0.6-2.9-0.8c0.5,0.2,1.1,0.3,1.6,0.4c0.8,0.2,1.5,0.5,1.1,0.5c-1.1-0.4-2.3-0.7-3.5-0.9c0.2,0.1,1.2,0.3,2.1,0.6
		s1.7,0.6,1.6,0.7c-0.3-0.1-1-0.4-1.8-0.7c-0.5-0.2-1-0.3-1.6-0.3c-0.1,0.1,1.1,0.3,1.6,0.4c-1.2-0.3-2.4-0.5-3.6-0.4
		c-0.5,0.1-0.2,0.2,1.3,0.6c-1.2-0.2-2.5-0.3-3.7-0.2h1.1l1,0.1c-0.6,0-1.3,0-1.9,0l0.4,0.1c0.5,0,1,0,1.4,0.1c-0.4,0-0.9,0-1.3,0
		l1.1,0.2c1.2,0.2,2.4,0.6,3.6,1c3.2,0.9,6.1,2.6,8.5,4.8C212.5,150.2,214.6,152.9,216.4,155.9z"/>
	<path class="st3" d="M210.8,187.5c0.1-0.1-0.1-0.4,0.3,0c0.5,0.5,1,1.1,1.5,1.7c0.5,0.6,1,1.1,1.6,1.7h0.2c0.4,0.4,0.9,0.9,1.4,1.4
		s1,0.9,1.5,1.4c2,1.5,4.2,2.8,6.6,3.8c0-0.1,0-0.1,0.2-0.1c1,0.4,2.3,1,3.6,1.5l0.6,0.2c0.1,0,0.2,0,0.3-0.1l1.7,0.6
		c3.4,0.9,6.9,1.4,10.4,2s7,1.2,10.7,1.9c1.6,0.2,3.2,0.5,4.7,0.8c2.2,0.5,5,1.3,7.1,1.9c-0.2-0.6,5.1,0.5,4.2-0.4
		c1.2,0.4,2.5,0.7,3.7,0.9c0.5-0.4,1.7-0.6,5.6,0.2c1.5,0.4,3.7,1.2,4.3,1.3c0.9,0.1-1.8-0.9-1-0.8c-11-3.4-21.7-6-32.9-8.6
		c-1-0.2-3.3-0.6-6.4-1.3s-6.8-1.4-10.5-2.5c-3.4-1-6.7-2.6-9.6-4.7c-2-1.6-3.9-3.3-5.6-5.3l-0.4-0.4c-2.4-2.9-5-5.7-7.8-8.3
		c-0.6-0.5-1.1-1-1.8-1.4s-1.2-0.9-1.9-1.3c0.4,0.5,0.9,1,1.2,1.5c-0.5-0.5-1.1-1-1.6-1.4c-0.4-0.3-0.8-0.6-1.2-0.9
		c-1.4-0.9-1.8-1-1.7-0.7c0.3,0.5,0.6,0.9,1,1.4c0.6,0.7-0.5,0.1,0.4,1.1c-0.7-0.6-1.1-0.9-1.9-1.5c-0.2,0.1,2.5,1.7,1.8,1.5
		c-0.4-0.3-0.8-0.6-1.2-0.9c-0.4-0.3-0.8-0.6-1.2-0.8c0.2,0.3,2.7,2,2.4,2.1c-0.2-0.1-0.7-0.6-1.2-1s-0.9-0.8-1.1-0.7
		s0.7,0.6,1.1,0.9l-0.9-0.6l-0.8-0.4c-0.3-0.2-0.7-0.3-1-0.5c-0.4-0.1-0.2,0.1,0.8,1c-0.9-0.6-1.8-1.1-2.7-1.6l0,0l1.5,0.9l-1.4-0.8
		l0.2,0.2c0.4,0.2,0.7,0.4,1.1,0.6l-0.9-0.5c0.2,0.2,0.4,0.4,0.7,0.6c0.5,0.4,1,0.7,1.4,1.1c0.4,0.4,0.8,0.7,1,0.9
		C203.2,178.2,206.7,183,210.8,187.5z"/>
	<path class="st3" d="M294.3,200.1c0-0.1-0.1-0.2,0.1-0.2c0.8,0.1,1.2,0.6,1.6,0.8l0.1-0.1c0.3,0.2,0.4,0.5,0.5,0.8
		c0.2,0.3,0.3,0.6,0.3,1c0.1,0.6,0.2,1.3,0.2,2c0,0,0.1-0.1,0.1,0.1c0.1,0.7,0.1,1.3,0,2v0.3c0,0.1,0.1,0.1,0.1,0.1
		c0,0.3-0.1,0.6-0.1,0.8v0.4v0.2l0,0c0,0.1,0,0.2,0,0.2c0,0.1-0.1,0.2-0.2,0.2l-0.5,0.2l-0.5,0.2c-1.5,0.6-3.1,1.1-4.7,1.4
		c-1,0.2-1.2,0.2-1.9,0.3c-0.3,0.1-0.7,0.1-1,0.2h-0.3H288l0,0c0-0.1,0-0.3,0-0.4c0.1-0.4,0.3-0.9,0.4-1.4l0.1-0.4
		c0-0.2,0.1-0.4,0.2-0.6c0.1-0.4,0.1-0.8,0.1-1.2c0-0.1,0-0.3,0-0.4c-0.1,0.1-0.3-0.1-0.5-0.3c-0.2-0.3-0.5-0.5-0.8-0.7
		c-0.6-0.4-1.2-0.6-1.2-0.2c-0.6-0.6-1.6-1.1-1.8-1c-0.4,0.4-1.1,0.6-3.1,0.4c-0.8-0.2-1.6-0.3-2.4-0.4c-0.5,0.1,1.1,0.5,0.6,0.6
		c1.4,0.2,2.8,0.5,4.1,1c0.5,0.2,1,0.5,1.4,0.9c0.1,0.1,0.3,0.3,0.4,0.4c0.1,0.1,0,0.1,0,0.1l0,0c0,0,0,0.1,0,0.3l-0.1,0.2l-0.2,0.6
		l-0.3,1.1l-1.3,4.6c0,0-0.1,0.1,0,0.1h0.1h0.3l0.6,0.1l1.2,0.1c0.8,0.1,1.6,0.1,2.4,0.1s1.7,0,2.4,0c0.5,0,0.9,0,1.4-0.1
		s1.5-0.3,2.9-0.6c0.7-0.2,1.4-0.4,2.2-0.6l0.6-0.2l0.7-0.2c0.8-0.3,1.5-0.7,2-1.3c0.4-0.5,0.7-1.1,0.9-1.7c0.1-0.2,0.1-0.3,0.1-0.5
		l0.1-0.4c0-0.2,0.1-0.4,0.1-0.6c0.1-0.8,0.1-1.6,0.1-2.4c0-0.8-0.1-1.6-0.1-2.3s-0.1-1.4-0.2-2.2c-0.1-1-0.5-1.9-1-2.7
		c-0.5-0.7-1.1-1.4-1.8-1.9c-0.9-0.6-1.9-1.1-3-1.4l-0.4-0.1c-1.2-0.3-2.5-0.4-3.8-0.4c-1.1,0-2.2,0-3.3,0.1
		c-0.9,0.1-1.8,0.3-2.6,0.5c0.4,0.1,0.8,0.2,1.1,0.3c-0.7,0-1.4,0-2.1,0.1c-1.9,0.3-0.8,0.6-0.1,0.9c0.5,0.2-0.2,0.4,0.6,0.6h-1.5
		c-0.1,0.1,1.8-0.1,1.4,0.1c-0.6,0-1.2,0-1.8,0.1c0.2,0.2,2,0,1.9,0.2c-0.3,0-1.6-0.2-1.7,0c0,0.1,0.5,0,0.8,0
		c-1.8,0.1-2.7,0.5-1.1,0.7c-0.6,0-1.4,0-1.9,0h1.1l-1,0.1l0.2,0.1c0.2,0,0.5,0,0.8,0h-0.7c0.2,0.1,0.4,0.2,0.6,0.2
		c0.7,0.1,1.3,0.3,2,0.3c1.7,0,3.4,0.1,5.1,0.2C291.1,199.5,292.7,199.8,294.3,200.1z"/>
	<path class="st3" d="M221.7,224.6c0.1,0,0.2-0.1,0.2,0v0.1c0,0.1,0,0.4,0,0.5c0,0.4,0,0.7-0.1,1.1c-0.1,0.7-0.2,1.4-0.3,2
		c-0.2,1.4-0.6,2.7-0.9,4.3l0.1,0.3c-0.3,1.2-0.6,2.4-0.9,3.9c-0.1,0.8-0.2,1.7-0.1,2.5c0.1,1,0.3,1.9,0.8,2.8
		c0.8,1.3,1.8,2.5,3.1,3.5l2.9,2.3c0.5,0.4,0.9,0.8,1.6,1.3c0.4,0.2,0.8,0.5,1.2,0.6s0.7,0.3,1,0.4c1.2,0.4,2.2,0.8,3.4,1.2
		c-0.1-0.1-0.1-0.2,0.3,0c2.3,0.9,4.6,2,6.8,3.1l1.1,0.6c0.1,0.1,0.3,0.1,0.5,0.1c1.1,0.6,2.1,1.2,3,1.7c6.2,3.6,12.1,7.4,17.9,11.6
		c1.5,1,2.9,2,4.2,3.2c1.2,1.1,2,2.5,2.3,4.1c0.3,1.8,0.5,3.6,0.5,5.4c0.1,1.9,0.1,3.8,0.1,5.7c0,3.3,0,6.6-0.2,9.7
		c-0.3,4.7-1.1,10.6-1.6,15.2c0.3-0.3,0.3,2.3,0.2,4.8s0,4.7,0.4,3.6c-0.3,2.6-0.4,5.2-0.3,7.9c0.5,0.7,0.8,3.1,1.4,11
		c0.1,1.5,0.3,3.5,0.5,5.2s0.4,3.1,0.5,3.7c0.4,1.7-0.2-4,0.2-2.3c-1.6-11.3-0.6-22.8,0.6-34.3c0.6-5.8,1.2-11.6,1.6-17.5
		c0.2-3,0.3-5.9,0.4-8.9c0-1.5,0-3,0-4.5c0-1.6-0.1-3.2-0.3-4.8c-0.2-0.8-0.4-1.6-0.7-2.4c-0.5-1.2-1.1-2.3-1.9-3.3
		c-0.9-1.1-2-2.1-3.2-3s-2.4-1.8-3.7-2.7c-6.1-4.6-12.5-8.9-19.1-12.7c-3.7-2-7.5-3.8-11.5-5.2l-1.4-0.5c-0.4-0.1-0.7-0.3-1.1-0.4
		c-0.7-0.5-1.3-1-1.9-1.5c-1.4-1-2.7-2.1-3.8-3.4c-0.3-0.4-0.6-0.9-0.6-1.4c-0.1-0.6-0.1-1.2,0-1.8c0.2-1.4,0.6-3,0.9-4.4
		c0.5-2.4,0.9-4.8,1.1-7.3V225c0-0.4,0-0.8,0-1.2c-0.1-0.4-0.1-0.8-0.2-1.2l-0.1-0.6v-0.1l0,0l0,0c-0.1,0.1,0.2-0.1-0.2,0.1l0,0
		l-0.1-0.1l-0.1-0.2c-0.3-0.7-1.3-1-2.2-1.3l-0.9-0.3l-0.7-0.2l-1.5-0.4c-2-0.6-4-1.1-6.1-1.6c-4-1-7.9-1.8-11.2-2.3
		c-3-0.4-6-0.8-9-1.1c1.4,0.3,2.6,0.6,3.7,0.9c-3-0.6-6.1-1-7.2-1.1c-6.5-0.7-2.9,0.1-0.4,0.9c1.8,0.4-0.7,0.3,2.1,0.9
		c-2-0.3-3-0.5-5-0.8c-0.2,0.1,6.2,0.8,4.8,0.9c-1.9-0.4-4.1-0.6-6.1-0.8c0.7,0.3,7,1.1,6.6,1.2c-1.1-0.1-5.6-1.1-6-0.9
		c-0.1,0,1.9,0.3,2.9,0.5c-6.2-0.8-9.7-0.9-4,0.1c-2-0.3-4.7-0.7-6.8-0.9l0,0l3.8,0.5l-3.6-0.4l0.6,0.2l2.7,0.4l-2.4-0.3
		c0.6,0.1,1.2,0.3,2,0.5c2.8,0.5,5.4,1.1,6.9,1.3c6.1,0.9,12.1,2.1,18.1,3.4c3,0.7,6,1.4,8.9,2.2c1.5,0.4,2.9,0.8,4.4,1.3l1.1,0.3
		L221.7,224.6h0.1l0,0H221.7z"/>
	<path class="st3" d="M244.3,329.1c0.1,0,0.2-0.2,0.2,0.1c0.1,1.1-0.2,2-0.1,3.1l0.2,0.1c-0.1,0.8-0.2,1.7-0.3,2.6
		c0,1.6-0.1,3.3-0.1,4.9c0.1,0,0.1-0.1,0.1,0.1c0,0.9-0.1,1.7-0.2,2.6v0.4c0,0.1,0,0.1,0.1,0.2c0,0.4-0.1,0.8-0.2,1.2
		c0,1.2-0.1,2.4-0.2,3.6l-0.1,0.9v0.5l-0.1,0.7c-0.2,1,0.1,2,0.6,2.9c0.6,0.8,1.6,1.3,2.6,1.3l0.6,0.1l0.5,0.1l1,0.1
		c1.3,0.2,2.6,0.4,4,0.6l3.4,0.2c1.6,0.2,3.7,0.5,5.3,0.5c-0.1-0.3,0.8-0.5,1.6-0.7s1.6-0.5,1.2-0.8c0.5-0.1,1.1-0.1,1.7-0.2
		c0.3,0,0.6-0.1,0.9-0.3c0.1-0.4,0.4-0.7,0.7-0.9c0.3-0.2,0.6-0.4,0.9-0.6c0.4-0.2,0.8-0.5,1.3-0.8s0.9-0.5,1.3-0.8
		c0.3-0.2,0.6-0.4,0.9-0.6c0.3-0.4-1.1,0.4-0.8,0c-2.6,1.8-6.2,2.4-9.9,2.3c-3.9-0.2-7.7-0.7-11.4-1.7c-0.4,0-0.9-0.1-1.7-0.3
		c-0.3-0.1-0.2,0-0.2,0H248c0,0-0.1,0-0.1-0.1c0,0,0,0,0-0.1l0,0c0,0,0,0,0-0.2c0.1-0.6,0.2-1.3,0.3-2c0.2-1.4,0.3-2.8,0.4-4.2
		c0.5-5.8,0.5-11.7,0.6-14.2v-0.4c0-2.7-0.1-5.5-0.5-8.2c-0.2-1-0.4-2.1-0.7-3.1c0,0.5-0.1,1-0.2,1.4c0-0.9-0.1-1.7-0.3-2.5
		c-0.5-2.2-0.6-0.9-0.9,0c-0.1,0.6-0.5-0.2-0.5,0.8c-0.1-0.7-0.1-1-0.2-1.8c-0.2-0.1,0.3,2.1,0,1.7c0-0.7-0.1-1.4-0.3-2.1
		c-0.2,0.3,0.2,2.4,0,2.3c-0.1-0.4,0.1-2-0.2-2.1c0,0.3,0,0.7,0.1,1c-0.3-2.1-0.8-3.2-0.8-1.3c0-0.8-0.1-1.5-0.3-2.3l0,0
		c0,0.4,0.1,1,0.1,1.3l-0.2-1.2l-0.1,0.2c0,0.3,0,0.6,0.1,0.9l-0.1-0.8c-0.1,0.2-0.1,0.5-0.1,0.7c0,1-0.2,1.9-0.1,2.4
		C244.1,320.7,244.2,324.9,244.3,329.1z"/>
	<path class="st3" d="M256.1,372.2c0-0.1-0.2-0.3,0.2-0.2c1.3,0.4,2.3,1,3.7,1.3l0.1-0.1c1,0.4,2.1,0.7,3.2,1
		c2.1,0.4,4.3,0.6,6.4,0.7c0-0.1-0.1-0.1,0.1-0.1c0.9,0,2.1,0.1,3.4,0l0.6-0.1c0.1,0,0.2-0.1,0.2-0.1l1.6-0.1
		c3.2-0.5,6.2-1.4,9.1-2.8c0.1-0.1,0.5-0.2,0.7-0.4l0.8-0.4c0.5-0.3,1-0.6,1.4-1c0.2-0.1,0.4-0.3,0.6-0.5s0.3-0.4,0.4-0.6
		c0.3-0.4,0.4-0.9,0.3-1.4c-0.3-1-1-1.8-2-2.2c-0.5-0.3-1.1-0.5-1.6-0.7c-0.2-0.1-0.6-0.2-0.8-0.3l-0.6-0.2c-1.4-0.4-2.8-0.7-4.1-1
		c-1-0.2-2.1-0.5-3.1-0.8s-1.9-0.6-2.9-1.1c0,0.3-1.1,0.1-2.1-0.1c-0.4-0.1-0.9-0.1-1.3-0.2c-0.3,0-0.5,0-0.3,0.3
		c-1.4-0.5-2.7-2.1-2.9-2.1c-0.5,0-1-0.2-1.4-0.6c-1-0.9-1.8-1.9-2.4-3.1c-0.5-1.3-1-2.7-1.2-4.1c-0.1-0.4-0.2,0.1-0.1,0.6
		s0.1,1-0.1,0.6c0.6,2.8,1.9,5.4,3.7,7.6c1,1.3,2.4,2.4,3.9,3c1.1,0.4,2.1,0.8,3.3,1.3c1.3,0.5,2.6,0.9,3.9,1.2l0.9,0.2l0.8,0.2
		c0.5,0.1,1.1,0.3,1.6,0.5s1.1,0.4,1.6,0.5l0.8,0.3l0.7,0.3h0.1c0.1,0,0.1,0,0.1,0.1c0,0,0,0.1-0.1,0.1h-0.1l-0.8,0.3
		c-2.7,1.1-5.6,1.8-8.5,2c-3.1,0.2-6.2,0-9.3-0.6c-2.2-0.4-4.3-1-6.5-1.8l-0.5-0.2c-2.9-1-6.4-2.5-8.8-3.5l-0.6-0.2l-0.3-0.1
		l-0.2-0.1h-0.1c-0.2,0-0.3,0-0.4-0.1c-0.1-0.1-0.2-0.2-0.2-0.3c-0.1,0.2-0.1,0.4-0.1,0.5s0,0.2,0.1,0.2l-0.2-0.2
		c-0.1-0.2-0.2-0.5-0.1-0.8c0-0.2,0-0.3,0-0.5c0-0.1,0-0.3,0-0.4c0.1-1.3,0-1.6-0.1-1.5c-0.3,0.4-0.6,0.8-0.8,1.2
		c-0.3,0.7-0.4-0.3-0.7,0.8c0.1-0.7,0.2-1.4,0.4-2.1c-0.1-0.1-0.2,0.6-0.3,1.2s-0.1,1.1-0.2,0.8c0.1-0.8,0.2-1.8,0.4-2.6
		c-0.2,0.5-0.4,1-0.5,1.5c-0.1,0.7-0.2,1.3-0.3,1.3c0-0.5,0.6-2.4,0.4-2.6c-0.2,0.4-0.3,0.8-0.3,1.3c0.2-1.4,0.4-2.4,0.4-2.8
		s-0.2-0.2-0.7,1c0.3-1,0.7-2,1.1-2.9l0,0c-0.2,0.5-0.5,1-0.7,1.6c0.2-0.5,0.4-1,0.6-1.5c-0.1,0.1-0.1,0.1-0.2,0.2
		c-0.2,0.4-0.4,0.7-0.5,1.1c0.1-0.3,0.2-0.7,0.4-1c-0.2,0.2-0.4,0.5-0.6,0.8c-0.5,1-0.9,2-1.2,3.1c-0.1,0.3-0.1,0.6-0.2,0.9
		l-0.1,0.5l-0.1,0.6c-0.1,1,0.1,2,0.6,2.9c0.5,0.8,1.3,1.4,2.2,1.8l1.4,0.7c0.9,0.5,1.9,0.9,2.8,1.4
		C252.1,370.6,254.1,371.5,256.1,372.2z"/>
	<path class="st3" d="M309.8,206.5c0.1-0.1,0.1-0.2,0.1-0.2s0,0,0,0.1s-0.1,0.1,0,0.2h0.1c0,0.2,0,0.6,0,1c0.2,0.9,0.4,1.7,0.6,2.6
		c0,0,0.1-0.1,0.1,0c0.1,0.5,0.2,0.9,0.2,1.4l0.1,0.2l0.1,0.1c0,0.2,0,0.4,0.1,0.6c0.7,2.5,1.3,5.1,1.9,8c0.2,0.6,0.4,1.2,0.5,1.8
		c0.1,0.9,0.1,1.8,0,2.7c0.3,0,0.5,0.6,0.5,1.1c0,0.4-0.1,0.8,0.2,0.8c-0.5,0.6-1.3,1-1.2,1.2c0.1,0.3,0,0.6-0.2,0.9
		c-0.3,0.4-0.6,0.9-1,1.2c-0.2,0.1-0.3,0.2-0.5,0.3c-0.1,0.1-0.2,0.1-0.2,0.2s0,0.1,0.1,0.1s0.1,0,0.1,0l0.2,0.1
		c0.5-0.3,1-0.6,1.6-0.8c0.5-0.2,1.1-0.5,1.5-0.9c0.7-0.5,1.2-1.1,1.6-1.8c0.5-1,0.7-2.1,0.7-3.1c0-0.8-0.1-1.4-0.1-2.1
		c-0.1-1.3-0.2-2.7-0.3-4c-0.2-0.8-0.5-3.8-1.1-6.9c-0.2-1.6-0.5-3.1-0.8-4.5c-0.1-0.8-0.3-1.6-0.6-2.3c-0.2-0.4-0.4-0.8-0.7-1.1
		c-0.2-0.3-0.5-0.5-0.8-0.8c-0.1-0.1-0.2-0.2-0.4-0.3c-0.9-0.5-1.9-0.9-2.9-1c-0.8-0.1-1.6-0.2-2.4-0.2c-0.6,0.1-1.3,0.2-1.9,0.3
		c0.3,0.1,0.5,0.2,0.8,0.3c-0.5-0.1-1-0.1-1.5,0c-1.3,0.3-0.5,0.5-0.1,0.9c0.4,0.2-0.1,0.4,0.4,0.6c-0.4,0-0.6,0-0.9,0
		c0,0.1,1.2-0.1,0.9,0.2c-0.4,0-0.8,0-1.1,0.1c0.1,0.2,1.3,0.1,1.2,0.3c-0.2,0-1-0.3-1.1,0c0,0.1,0.4,0.1,0.5,0.1
		c-1.1,0.1-1.7,0.4-0.7,0.7c-0.4,0-0.8,0-1.2,0l0,0c0.2,0,0.5,0,0.7,0h-0.6l0.1,0.1c0.2,0,0.3,0,0.5,0h-0.4c0.1,0.1,0.2,0.2,0.4,0.2
		c0.4,0.1,0.8,0.3,1.2,0.4c1,0,2.1,0.2,3.1,0.4c0.5,0.1,1,0.2,1.5,0.3C309.2,206.2,309.5,206.3,309.8,206.5z"/>
	<path class="st3" d="M313.5,262.4c0.1,0,0.1-0.5,0.3,0.2c0.8,2.2,1,4.2,1.8,6.4l0.2,0.1c0.5,1.8,1,3.6,1.5,5.5
		c1.1,3.4,2.4,6.8,3.6,10.1c0-0.1,0.1-0.2,0.2,0.2c0.5,1.4,1.2,3.3,1.9,5.3l0.4,0.9c0.1,0.2,0.2,0.2,0.2,0.3
		c0.3,0.9,0.6,1.7,0.9,2.4c2,4.8,4.2,9.6,6.6,14.4s4.7,9.7,6.8,15c1,2.2,2,4.5,3,6.6c1.5,3.5,3.4,6.8,5.7,9.9c0.1-0.4,1.4,1,2.7,2.3
		s2.6,2.2,2.3,1.4c1.3,1.4,2.6,2.8,4.1,4c0.7,0,2.3,0.8,7,4.3c1.8,1.4,4.5,3.8,5.2,4.2c1.1,0.7-2.1-2.1-1-1.5
		c-6.7-5.4-13.1-10.7-18-17.2c-1.2-1.6-2.3-3.3-3.2-5.1c-1-1.8-1.8-3.7-2.6-5.5c-0.8-1.9-1.5-3.9-2.3-6s-1.6-4.1-2.4-6.1l-4.1-9
		c-1.9-4.3-4.2-9.7-6.4-15.2c-4.4-11.1-8.1-23.1-9.6-28l-0.3-0.9c-1.6-5.4-3.5-11.9-4.9-16.4c-0.7-2-1.4-4.1-2.1-6.2
		c0.2,1,0.3,1.9,0.4,2.8c-0.5-2.2-1.1-4.3-1.4-5.1c-1.4-4.6-1-1.9-1,0c0.2,1.3-0.5-0.3-0.2,1.7c-0.4-1.4-0.5-2.2-0.9-3.6
		c-0.2-0.1,1.2,4.4,0.7,3.5c-0.3-1.4-0.8-3-1.1-4.4c-0.1,0.6,1.2,5,0.9,4.9c-0.2-0.8-0.7-4.1-1.1-4.4c0.1,0.7,0.3,1.4,0.5,2.1
		c-1.2-4.4-2-6.9-1.3-2.7c-0.3-1.4-0.7-3.4-1.1-4.9l0,0c0.2,0.8,0.5,2.1,0.6,2.8l-0.6-2.6v0.5c0.1,0.6,0.2,1.3,0.4,1.9
		c-0.1-0.6-0.3-1.1-0.4-1.7c0,0.4,0.1,0.9,0.1,1.5c0.3,2.1,0.5,4.1,0.8,5.1C308.6,244.9,310.9,253.7,313.5,262.4z"/>
	<path class="st3" d="M300,298.4c0.1,0.1,0.4-0.2,0,0.4c-1.2,1.8-2.5,2.9-3.7,4.7v0.2l-3.2,4l-5.7,7.8c0.1,0,0.2,0,0,0.2
		c-0.8,1.1-1.9,2.5-3.1,4.1c-0.2,0.2-0.3,0.5-0.5,0.7c-0.1,0.1-0.1,0.2-0.1,0.3l-1.4,1.9c-2.6,3.9-5.4,7.8-8.1,11.8
		c-2.7,4.1-5.7,8-9.1,11.6c-1.4,1.6-3,3-4.7,4.3c-2.7,2-5.6,3.6-8.6,5c0.3,0.1-1.1,1.1-2.5,1.9s-2.7,1.5-1.9,1.5
		c-1.9,0.7-4.8,1.6-4.9,1.9c-0.3,0.6-1.6,1.7-6.9,3.3c-2.1,0.6-5.3,1.1-6,1.3c-1.1,0.4,2.8-0.2,1.6,0.2c7.8-1.5,15.5-3.9,22.7-7.3
		c7.4-3.5,13.9-8.6,19-15c0.8-1.1,2.9-3.8,5.4-7.3s5.7-7.8,8.9-12.1c6.5-8.8,13.2-17.9,16.1-21.6l0.5-0.7c3-4,6.7-9,9.1-12.6
		c1-1.6,2.1-3.4,3.2-5l-1.7,1.9c1.2-1.6,2.4-3.2,2.8-3.9c2.4-3.6,0.7-1.8-0.6-0.7c-0.9,0.9-0.1-0.6-1.4,0.8c0.8-1.1,1.2-1.6,2-2.7
		c0-0.2-2.4,3.4-2.1,2.5c0.8-1,1.6-2.2,2.4-3.3c-0.5,0.2-2.9,3.7-2.9,3.4c0.4-0.6,2.5-2.9,2.4-3.2c-0.4,0.5-0.9,1-1.2,1.5
		c2.4-3.4,3.6-5.4,1.1-2.5c0.8-1,2-2.5,2.8-3.6l0,0l-1.6,2l1.4-1.9l-0.3,0.3c-0.4,0.5-0.8,0.9-1.1,1.4l0.9-1.3
		c-0.3,0.3-0.6,0.6-1,0.9c-1.3,1.4-2.5,2.7-3.1,3.5C309.9,285.3,304.9,291.8,300,298.4z"/>
	<path class="st3" d="M156.8,350.6c0-0.1-0.1-0.2,0.1-0.2c0.5,0,0.8,0.3,1.3,0.3c0-0.1,0-0.1,0.1-0.2l1.1,0.3c0.7,0,1.4,0.1,2.2,0.1
		c0-0.1,0-0.1,0.1-0.1c0.4,0,0.8,0.1,1.1,0.1h0.2l0.1-0.1l0.5,0.1c2.1-0.1,4.3-0.3,6.6-0.5c0.5-0.1,1-0.2,1.5-0.2
		c0.8,0,1.5,0.1,2.2,0.3c-0.1-0.6,1.6-0.7,1.4-1.3c0.4,0,1.1,0.1,1.2,0c0.1-0.5,0.6-1,1.8-1.2c0.5,0,1.2,0.2,1.4,0.2
		s-0.6-0.4-0.3-0.5c-3.5-0.5-6.8-0.6-10.3-0.9c-3.8-0.1-7.6-0.3-11.3-0.8h-0.2c-1.2-0.2-2.3-0.2-3.5-0.1c-0.4,0.1-0.9,0.2-1.4,0.3
		c0.2,0.1,0.4,0.2,0.5,0.3c-0.4-0.1-0.7-0.1-1.1,0c-1,0.2-0.5,0.5-0.1,0.9c0.2,0.2-0.1,0.4,0.3,0.6l-0.8-0.1c-0.1,0.2,0.9,0,0.7,0.2
		c-0.3,0-0.6-0.1-0.9-0.1c0.1,0.2,1,0.2,1,0.4c-0.2,0-0.8-0.4-0.9-0.1c0,0.1,0.3,0.1,0.4,0.1c-0.9,0-1.5,0.2-0.6,0.6
		c-0.3-0.1-0.7-0.1-1-0.2l0,0c0.1,0,0.4,0.1,0.6,0.1l-0.5-0.1l0.1,0.1c0.1,0,0.3,0.1,0.4,0.1h-0.3c0.1,0.1,0.2,0.2,0.3,0.3
		c0.3,0.2,0.6,0.4,1,0.5C153.1,350.2,155,350.5,156.8,350.6z"/>
	<path class="st3" d="M237.5,361.2c0-0.1-0.2-0.3,0.2-0.2c1.3,0.5,2.6,1.1,3.8,1.7l0.2-0.1c1,0.6,1.9,1.3,2.7,2.1
		c1.6,1.3,2.9,2.9,3.7,4.9c0-0.1,0.1-0.1,0.2,0.1c0.4,1,0.6,2.1,0.6,3.2c0,0.2,0,0.4,0,0.5s0.1,0.2,0.1,0.2c0,0.5-0.1,1-0.2,1.5
		c-0.3,3.3-1.7,6.4-3.8,8.9c-2.3,2.8-5.4,4.8-8.9,5.7c-1.5,0.5-3.1,0.7-4.7,0.7c-2.5-0.1-5-0.8-7.2-2c0,0.3-1.2,0-2.4-0.6
		s-2.1-1.2-1.9-0.6c-0.7-0.6-1.3-1.3-1.8-2c-0.3-0.5-0.6-0.9-0.9-1.3c-0.3-0.1-0.8-0.3-1.3-1.1c-0.8-1.4-1.4-2.9-1.6-4.5
		c-0.3-1.8-0.1-4.3-0.2-4.9c-0.2-0.9-0.3,2.1-0.5,1.2c-0.1,3.4,0.5,6.8,1.8,9.9c0.8,1.7,2,3.1,3.4,4.3c1.3,1.1,2.8,2.1,4.3,2.8
		c3.1,1.4,6.4,2.2,9.8,2.1c3.4-0.1,6.8-1,9.8-2.7c2.2-1.3,4.2-3,5.9-5c2.9-3.4,4.5-7.6,4.8-12c0.1-2.5-0.4-4.9-1.4-7.2
		c-1-2.1-2.4-3.9-4.1-5.4c-1.4-1.2-3-2.3-4.6-3.1c-1.2-0.6-2.3-1.1-3.6-1.5l-0.7-0.2c-4-1.2-8.1-1.9-12.2-2.2c-1.6,0-3.1,0-4.7,0
		c0.7,0.1,1.4,0.3,2,0.4c-1.3-0.2-2.5-0.2-3.8-0.2c-3.4,0.1-1.5,0.5-0.2,0.9c0.9,0.2-0.3,0.4,1.1,0.7c-1-0.1-1.6-0.1-2.6-0.1
		c-0.1,0.1,3.2,0,2.5,0.3c-1-0.1-2.1-0.1-3.1-0.1c0.4,0.2,3.6,0.2,3.4,0.4c-0.6,0-2.9-0.4-3.1-0.1c0.5,0.1,1,0.1,1.5,0.1
		c-3.2,0-4.9,0.3-2,0.6c-1,0-2.4-0.1-3.5-0.1l0,0h1.9h-1.8l0.3,0.1h1.4h-1.3l1,0.2c1.4,0.2,2.8,0.5,3.5,0.5c3.1,0.2,6.1,0.5,9.2,1
		C231.6,359.6,234.6,360.3,237.5,361.2z"/>
	<path class="st3" d="M296.2,284.4c0.1,0.1,0.4-0.2,0.1,0.4c-1.1,1.7-2.4,2.9-3.5,4.6v0.2l-3.1,3.9l-5.4,7.7c0.1,0,0.2,0,0,0.2
		c-0.7,1.1-1.8,2.5-2.9,4l-0.5,0.7c-0.1,0.1-0.1,0.2-0.1,0.3c-0.5,0.7-1,1.3-1.4,1.8c-2.5,3.8-5.3,7.4-8.4,10.7
		c-3.2,3.5-6.9,6.6-10.8,9.2L259,329l-1.3,0.9c-0.9,0.6-1.7,1.1-2.7,1.6c-2.9,1.5-5.9,2.7-9,3.6c0.3,0.2-1.2,0.9-2.7,1.5
		s-2.8,1.1-2,1.3c-1.9,0.4-4.9,1-5,1.1c-0.4,0.5-1.8,1.5-7.2,2c-2.1,0.2-5.4-0.1-6.1-0.1c-1.2,0.1,2.7,0.4,1.6,0.5
		c15.8,0.5,31.2-4.7,43.6-14.5c0.5-0.5,1.4-1.2,2.5-2.2c0.6-0.5,1.2-1.1,1.9-1.7l2.1-2.2c3.4-3.7,6.5-7.6,9.4-11.6
		c6.2-8.6,12.7-17.6,15.4-21.2l0.5-0.7c2.9-4,6.4-8.9,8.7-12.4c1-1.6,2-3.3,3-5l-1.7,1.9c1.2-1.6,2.3-3.2,2.7-3.9
		c2.3-3.5,0.6-1.8-0.6-0.7c-0.8,0.8-0.1-0.6-1.3,0.8l1.9-2.6c0-0.2-2.3,3.3-2,2.4c0.8-1,1.5-2.2,2.3-3.2c-0.4,0.2-2.7,3.6-2.8,3.3
		c0.4-0.6,2.4-2.8,2.3-3.2c-0.4,0.5-0.8,1-1.2,1.5c2.3-3.3,3.4-5.3,1-2.5c0.8-1,1.9-2.4,2.7-3.6l0,0l-1.5,2l1.4-1.9l-0.3,0.3
		c-0.4,0.4-0.7,0.9-1.1,1.4l0.9-1.2c-0.3,0.3-0.6,0.6-1,0.9c-1.2,1.4-2.4,2.6-3,3.4C305.7,271.5,300.9,277.9,296.2,284.4z"/>
	<path class="st3" d="M212.5,297.6c0.1,0,0.1-0.3,0.3,0.1c0.4,1.2,0.4,2.3,0.8,3.6h0.2l0.6,3.1l1.6,5.7c0-0.1,0.1-0.1,0.2,0.1
		c0.2,0.8,0.5,1.9,0.7,3l0.1,0.5c0.1,0.1,0.1,0.1,0.2,0.1c0.1,0.5,0.2,1,0.3,1.4c1.7,5.5,3.4,11.1,5.2,17.1c0.4,1.3,0.9,2.5,1.2,3.8
		c0.5,1.9,0.9,4.2,1.3,6.1c0.5-0.4,1.7,4,2.1,3c0.2,1.1,0.4,2.1,0.8,3.1c0.5,0.2,1.3,1,2.3,4.2c0.3,1.2,0.5,3.2,0.7,3.7
		c0.3,0.7,0-1.7,0.3-1c-1.8-9.4-4-18.4-6.2-27.9c-0.5-1.6-2-7.8-3.7-14.2s-3.4-13.2-4.1-16l-0.1-0.5c-0.8-3-1.8-6.6-2.7-9.1
		c-0.5-1.1-0.9-2.2-1.4-3.4c0.1,0.6,0.1,1.1,0.1,1.6c-0.2-1-0.5-1.9-0.9-2.8c-0.9-2.5-0.8-1-0.9,0.1c0,0.8-0.5-0.1-0.4,1
		c-0.2-0.8-0.3-1.2-0.5-2c-0.2,0,0.8,2.4,0.4,2c-0.1-0.8-0.5-1.6-0.7-2.4c-0.1,0.3,0.7,2.8,0.4,2.7c-0.2-0.4-0.3-2.3-0.6-2.4
		c0.1,0.4,0.1,0.8,0.3,1.2c-0.8-2.4-1.4-3.7-1.1-1.4c-0.2-0.8-0.4-1.9-0.7-2.7l0,0c0.1,0.4,0.3,1.1,0.4,1.5l-0.4-1.4v0.3
		c0.1,0.4,0.1,0.7,0.2,1.1l-0.2-0.9c0,0.3,0,0.5,0,0.9c0.1,1.1,0.2,2.3,0.4,2.9C210.1,287.9,211.3,292.7,212.5,297.6z"/>
	<path class="st3" d="M172.7,264.9c0.1,0,0.1-0.2,0.3,0s0.4,0.8,0.7,1.1c0.2,0.4,0.5,0.7,0.8,1l0.2-0.1c0.5,0.5,0.9,1,1.5,1.4
		c1,0.5,2,1,3,1.3c0-0.1,0-0.1,0.1-0.1c0.4,0.1,1,0.4,1.5,0.6l0.3,0.1c0.1,0,0.1,0,0.1-0.1c0.3,0.1,0.5,0.2,0.7,0.3
		c3.1,0.6,6.2,0.8,9.3,0.7c0.7-0.1,1.4-0.2,2-0.2c1,0,2.2,0.2,3.1,0.2c-0.1-0.6,2.1-0.8,1.7-1.4c0.6,0,1.5,0,1.6-0.1
		c0.1-0.5,0.6-1,2.2-1.3c0.6-0.1,1.6,0.1,1.9,0s-0.8-0.3-0.5-0.5c-4.7-0.2-9.2,0-13.8-0.6c-2.3-0.1-4.6-0.6-6.7-1.3
		c-0.7-0.2-1.5-0.5-2.1-0.8c-0.6-0.2-1.3-0.5-1.9-0.9c-0.4-0.2-0.8-0.5-1.2-0.9c-0.1-0.1-0.2-0.2-0.3-0.4c-0.1-0.1-0.1-0.2-0.2-0.3
		l-0.1-0.1c-0.4-0.9-0.6-2-0.5-3c0-0.5,0-0.9,0.1-1.4c-0.2,0.1-0.4,0.3-0.5,0.4c0.2-0.3,0.4-0.7,0.5-1c0.2-0.5,0.2-0.6,0.1-0.7
		c-0.3,0-0.5,0-0.8,0.1c-0.4,0.2-0.3-0.4-0.8,0c0.2-0.3,0.4-0.6,0.7-0.8c-0.1-0.2-0.8,1.1-0.8,0.7c0.3-0.3,0.5-0.8,0.9-1.1
		c-0.3-0.1-1.1,1.1-1.2,1c0.1-0.3,1-0.8,0.9-1.1c0,0-0.4,0.3-0.5,0.5c0.4-0.6,0.8-1,0.9-1.2s-0.1-0.3-0.7,0.1
		c0.2-0.2,0.5-0.4,0.7-0.5c0.3-0.1,0.5-0.3,0.8-0.5l0,0c-0.2,0.1-0.7,0.3-0.9,0.5c0.2-0.2,0.5-0.3,0.8-0.5h-0.2
		c-0.2,0.1-0.4,0.2-0.6,0.3l0.5-0.3c-0.2,0-0.4,0-0.6,0.1c-0.6,0.2-1.2,0.6-1.8,1c-1.1,1.3-1.9,2.9-2.1,4.6
		C171.6,261.5,171.9,263.3,172.7,264.9z"/>
	<path class="st3" d="M159.8,339.6c0-0.1-0.4,0,0-0.3c1.3-1,2.5-1.5,3.8-2.6v-0.2l3.3-2.1l5.9-4.4c-0.1,0-0.1,0,0-0.2
		c0.8-0.6,2-1.4,3.2-2.3l0.5-0.4c0.1-0.1,0.1-0.2,0.1-0.2l1.5-1l17.5-14c1.3-1.1,2.5-2.2,3.8-3.2c1.9-1.5,4.4-3.2,6.3-4.6
		c-0.6-0.2,3.7-3.9,2.4-3.7c1.1-0.8,2.1-1.6,3-2.6c-0.1-0.6,0.5-1.8,3.4-4.7c1.1-1.1,3-2.6,3.4-3.1c0.5-0.7-1.7,1.2-1.2,0.5
		c-8.6,8-17.9,14.6-27.6,21.8c-3.2,2.6-25.5,19-31.3,23.1l-0.5,0.4c-3.2,2.2-6.9,5.1-9.5,7.2l-3.4,3l1.7-0.9c-1,0.7-2,1.4-2.9,2.2
		c-2.5,2.1-0.9,1.3,0.4,0.9c0.8-0.4,0,0.5,1.3-0.2l-2.1,1.5c0,0.2,2.5-1.9,2.1-1.3c-0.8,0.5-1.7,1.3-2.5,1.9c0.4,0,3-2,3-1.8
		c-0.4,0.4-2.5,1.5-2.5,1.8c0.4-0.2,0.9-0.5,1.3-0.8c-2.5,1.9-3.8,3.2-1.3,1.7c-0.8,0.6-2.1,1.3-2.9,2l0,0l1.6-1.1l-1.5,1l0.3-0.1
		c0.4-0.2,0.8-0.5,1.1-0.8l-1,0.7c0.3-0.1,0.7-0.2,1-0.4c1.3-0.7,2.5-1.3,3.2-1.8C149.6,346.9,154.8,343.3,159.8,339.6z"/>
	<path class="st3" d="M133.1,383.2c0.1,0,0.2-0.5,0.2,0.4c0,1.4,0.4,2.9,1.2,4.1s2,2.1,3.4,2.5l0.2-0.1c0.8,0.3,1.7,0.6,2.6,0.8
		c0.8,0.2,1.6,0.4,2.5,0.6c3.1,0.5,6.3,0.9,9.4,1c-0.1-0.1-0.1-0.1,0.2-0.1c1.3,0,3.1,0.1,5,0.2h0.8c0.2,0,0.3-0.1,0.3-0.1h2.3
		c9.1-0.5,18.1-1.9,27.9-3c2.1-0.3,4.1-0.6,6.1-0.9c3-0.3,6.7-0.5,9.6-0.8c-0.5-0.5,6.5-1.4,5.1-1.9c1.7-0.1,3.3-0.3,4.9-0.5
		c0.4-0.5,1.8-1.2,6.9-1.9c2-0.2,5.1-0.3,5.8-0.5c1.1-0.2-2.6-0.1-1.5-0.4c-14.9,1.1-29.2,2.5-44.1,3.8c-1.3,0.2-4.4,0.5-8.4,0.9
		s-9.1,0.7-14.1,0.8c-4.9,0.1-9.8-0.2-14.6-1c-1.1-0.2-2.1-0.4-3.1-0.6c-0.8-0.1-1.6-0.4-2.4-0.7c-0.4-0.1-0.8-0.4-1-0.7
		c-0.2-0.3-0.3-0.6-0.3-1c0-0.2,0-0.3,0-0.5c0-0.4,0.1-0.8,0.2-1.2c0.1-0.4,0.3-0.8,0.6-1.2c0.6-1,1.3-1.9,2.1-2.8
		c1.8-1.9,3.2-4.1,4.2-6.5c0.8-2.1,1-4.4,0.5-6.7c0.1,1,0,1.9-0.2,2.9c0.1-0.5,0.1-1.1,0.1-1.6c0-0.3-0.1-0.5-0.1-0.8
		s-0.1-0.5-0.2-0.8c-0.2-0.7-0.5-1.4-0.9-2c-0.4-0.7-0.9-1.2-1.5-1.7c-0.3-0.2-0.4-0.2-0.3,0c0.4,0.6,0.7,1.3,1,2
		c0.2,0.6,0,0.5-0.1,0.5s-0.1,0.1,0.1,1c-0.3-1-0.9-1.9-1.6-2.6c-0.1,0,0.6,0.6,1,1.4s0.7,1.5,0.4,1.1c-0.4-1.1-1.2-2.2-2.1-2.9
		c0.1,0.2,0.9,0.9,1.3,1.7s0.7,1.6,0.6,1.6c-0.2-0.6-0.4-1.2-0.8-1.7c-0.4-0.7-0.9-1.2-1.1-1.1c0.4,0.4,0.7,0.8,1,1.3
		c-0.6-1-1.6-1.7-2.8-2c-0.2,0-0.3,0-0.1,0.1s0.5,0.3,1,0.8c-0.4-0.3-0.9-0.6-1.4-0.7s-1-0.1-1.5,0l0,0c0.5-0.1,1.1-0.1,1.6,0.1
		c-0.5-0.2-1-0.2-1.5-0.1l0.3,0.1c0.4,0,0.7,0,1.1,0.1c-0.3-0.1-0.6-0.1-0.9-0.1c0.3,0.1,0.5,0.2,0.8,0.3c0.9,0.4,1.6,1.1,2.1,2
		c0.4,0.5,0.7,1.2,0.8,1.8c0.1,0.3,0.1,0.6,0.1,0.9c0,0.4,0,0.7-0.1,1.1c-0.3,1.6-1,3-1.9,4.3c-1.1,1.5-2.3,2.9-3.6,4.3
		c-0.8,0.9-1.4,1.8-2,2.9C133.5,380.6,133.1,381.9,133.1,383.2z"/>
	<path class="st3" d="M272.5,207.2c0,0.1,0.2,0.1,0,0.3c-0.6,0.3-1.2,0.2-1.8,0.5v0.2l-0.8,0.2c-0.1,0-0.4,0.1-0.6,0.2l-0.8,0.2
		l-1.4,0.5l-0.7,0.3l-0.3,0.1l-0.2,0.1L264,211c0.1,0,0.2,0,0.1,0.1l-0.2,0.1c-0.1,0,0,0.1,0,0.1l0.1,0.1c0.1,0.2,0.2,0.3,0.3,0.5
		l0.7,1.2l0.3,0.4c0.1,0.1,0.2,0.1,0.2,0.1c0.2,0.4,0.5,0.7,0.7,1c0.9,0.9,1.9,1.7,3,2.4c0.8,0.5,1.7,0.8,2.6,1c1,0.2,2,0.1,3-0.3
		c0.8-0.3,1.6-0.7,2.3-1.1c0.6-0.4,1.1-0.7,1.7-1.1c0.9-0.4,2.1-0.8,2.9-1.1c-0.4-0.5,1.6-1.6,1-2c0.6-0.2,1.4-0.6,1.4-0.8
		c-0.1-0.5,0.1-1.2,1.5-2.2c0.5-0.3,1.5-0.6,1.7-0.8s-0.9,0.1-0.6-0.2l-6.4,2.9c-1.1,0.5-2.1,0.9-3.2,1.4l-1.6,0.6
		c-0.5,0.2-1,0.4-1.5,0.5c-0.2,0.1-0.4,0.1-0.6,0.2c-0.2,0.1-0.5,0.1-0.7,0s-0.4-0.1-0.6-0.2l-0.4-0.2l-0.2-0.1h-0.1
		c-0.1,0-0.2-0.1-0.3-0.2l-0.1-0.1v-0.1h0.1l0.3-0.1l1.2-0.4l1.4-0.5l0.2-0.1c1.5-0.5,3-1.1,4.4-1.9c0.5-0.3,1-0.7,1.6-1.1h-0.8
		c0.5-0.1,0.9-0.3,1.4-0.6c1.2-0.7,0.4-0.7-0.2-0.9c-0.4,0,0-0.5-0.6-0.4l1-0.3c0-0.2-1.2,0.5-1,0.2c0.4-0.1,0.8-0.3,1.2-0.5
		c-0.2-0.2-1.4,0.4-1.4,0.2c0.2-0.1,1.2-0.1,1.2-0.4c0,0-0.4,0.1-0.6,0.1c1.2-0.5,1.8-1,0.6-0.9c0.4-0.1,1-0.2,1.4-0.4l0,0l-0.8,0.2
		l0.7-0.2l-0.1-0.1c-0.2,0-0.4,0.1-0.5,0.1l0.5-0.2c-0.2,0-0.3-0.1-0.5-0.1c-0.5,0-1,0-1.5,0.1C277.3,205.5,274.9,206.3,272.5,207.2
		z"/>
	<path class="st3" d="M310.5,228.7c-0.1-0.1-0.2-0.1-0.1-0.2c0.2-0.3,0.7-0.2,0.9-0.5l-0.1-0.1c0.3-0.1,0.6-0.2,0.8-0.3l1.3-1
		c0,0-0.1-0.1,0-0.1l0.1-0.1l-3.4-1.2c0.1,0.2,0.1,0.3,0.1,0.5v0.1h0.1c0,0.1,0,0.2,0,0.3c0.5,1.3,0.5,2.8,0,4.1
		c-0.1,0.4-0.2,0.7-0.4,1c-0.4,0.4-0.8,0.7-1.4,0.9c0.2,0.2,0,0.6-0.2,0.9s-0.4,0.6-0.1,0.8c-0.4,0.1-1,0.3-1,0.4
		c0,0.5-0.1,1.2-1.4,1.6c-0.5,0.1-1.3-0.2-1.5-0.1s0.6,0.4,0.3,0.5c4,0.4,7.8-1.8,9.4-5.4c0.3-0.9,0.5-1.8,0.6-2.7
		c0.2-1.5,0-3-0.5-4.4l-1-2.7l-2.4,1.5c-1.4,0.9-2.7,1.9-3.3,2.3l-0.1,0.1c-0.8,0.6-1.5,1.3-2.1,2.1c-0.2,0.4-0.4,0.7-0.5,1.1
		c0.2-0.1,0.4-0.1,0.5-0.1c-0.3,0.3-0.6,0.5-0.6,0.7c-0.4,0.8,0.1,0.6,0.6,0.7c0.3,0,0.3,0.4,0.6,0.2c-0.2,0.2-0.3,0.2-0.4,0.4
		c0.1,0.1,0.5-0.6,0.5-0.3c-0.2,0.1-0.3,0.4-0.5,0.6c0.2,0.1,0.6-0.5,0.8-0.4c-0.1,0.1-0.7,0.3-0.5,0.5c0,0,0.2-0.1,0.3-0.2
		c-0.5,0.6-0.5,1.1,0.1,0.8c-0.2,0.2-0.4,0.3-0.6,0.5l0,0c0.1-0.1,0.3-0.2,0.4-0.3l-0.3,0.3h0.1c0.1-0.1,0.2-0.1,0.3-0.2l-0.2,0.2
		h0.3c0.3-0.1,0.6-0.2,0.9-0.3C308.3,230.4,309.4,229.5,310.5,228.7z"/>
	<path class="st4" d="M210,256.5c0,0,56.8,30.4,52.6,41.9S221,321.9,211.9,346c0,0-17.5-5.7-18.1-11.7s32.3-38.7,40.4-41.5
		c0,0-45.2-26-52.7-37.4s11.1-23.8,11.1-23.8L210,256.5z"/>
	<path class="st0" d="M193.8,334.3l12.8,10.6c0,0-7.4,4.5-0.8,12.1s15.6,19,10.2,17.8s-15.8-10.2-22-14.7c0,0-14.5-7.5-14.3-9.9
		S179.2,343.9,193.8,334.3z"/>
	<path class="st3" d="M256.5,283.4c0.1,0-0.3-0.7,0.5,0.2c1.2,1.4,2.3,2.7,3.3,4c0.9,1.1,1.7,2.3,2.3,3.6l0.2,0.1
		c0.3,1,0.3,2.1,0.1,3.1c-0.3,1.1-0.8,2.2-1.4,3.2c-1.4,2.1-3.1,3.9-5.1,5.4s-4.4,3-6.6,4.5c0.1,0,0.2,0-0.2,0.3
		c-1.9,1.2-4.6,2.9-7.4,4.6l-1.2,0.8c-0.3,0.2-0.4,0.3-0.4,0.4l-3.5,2.1c-5.3,3.5-10.3,7.5-14.9,11.9c-2.4,2.4-4.5,4.9-6.4,7.6
		c-1,1.4-1.9,2.9-2.7,4.4c-0.4,0.8-0.8,1.5-1.2,2.3s-0.8,1.8-0.8,2s-0.1,0.5-0.3,0.6s-0.4,0.1-0.6,0c-0.2-0.1-0.5-0.2-0.7-0.3
		c-0.4-0.2-0.8-0.4-1.2-0.6c-1.7-1-3.4-2.1-5-3.3c-1.2-0.8-2.4-1.7-3.5-2.6c-0.6-0.5-1.1-0.9-1.6-1.4c-0.5-0.4-0.9-0.9-1.2-1.4
		c-0.1-0.3-0.2-0.6-0.2-0.9s0-0.7,0-1c0.2-1.3,0.6-2.5,1.4-3.6c0.8-1.2,1.7-2.4,2.7-3.5c2-2.2,4.2-4.2,6.1-6.2
		c-0.5,0.1,1.4-2.2,3.2-4.3s3.5-4,2.4-3.4c2.5-2.4,6.5-5.9,6.6-6.2c0.5-1,1.2-1.9,2-2.6c2.2-2.3,4.7-4.5,7.2-6.5
		c2.9-2.3,7.7-5.2,8.7-6c1.6-1.2-4.2,2.3-2.6,1.1c-8.3,5.5-16.1,11.7-23.3,18.6c-1.8,1.7-3.5,3.5-5.2,5.2l-2.5,2.6l-2.6,2.6
		c-1.9,1.8-3.6,3.8-5.1,5.9c-0.9,1.2-1.5,2.6-1.9,4c-0.9,2.1-0.6,4.6,0.7,6.4c0.2,0.3,0.4,0.5,0.6,0.7c0.4,0.4,0.7,0.7,1,1
		c0.7,0.6,1.4,1.2,2,1.8c1.4,1.1,2.8,2.2,4.2,3.3c1.5,1.1,3,2.1,4.6,3l0.6,0.4l0.3,0.2l0.5,0.2c0.7,0.4,1.5,0.6,2.3,0.8
		c0.7,0.1,1.5,0,2.2-0.3c0.2-0.1,0.3-0.2,0.4-0.3l0.3-0.4l0.7-0.9l0.5-1.2l0.2-0.4l0.1-0.2l0.2-0.5c0.1-0.3,0.3-0.7,0.5-1.1
		s0.4-0.9,0.7-1.3s0.6-1,0.9-1.5c1.6-2.6,3.4-5,5.4-7.3c2.7-2.9,5.6-5.5,8.7-7.9c3.4-2.6,7.2-5.1,11.1-7.6s8-4.9,11.9-7.4l2.9-1.9
		c1-0.7,1.9-1.4,2.8-2.1c1.8-1.5,3.5-3.1,4.9-5c1.4-1.8,2.4-4,2.8-6.3c0.3-2.2,0-4.4-1-6.4c-0.8-1.5-1.8-2.9-2.9-4.1l-2.3-2.6
		l-0.9-1.1c-2.8-3.3-5.7-7.1-8.6-10.8s-5.8-7.2-8.4-9.9c-2.3-2.5-4.8-4.9-7.2-7.4l2.8,3.4c-2.4-2.6-4.7-5.1-5.7-6.1
		c-5.4-5.2-2.6-2-0.9,0.4c1.3,1.6-0.8-0.2,1.3,2.2c-1.6-1.7-2.4-2.5-4-4.2c-0.3-0.1,5,5.1,3.7,4.1c-1.5-1.7-3.3-3.4-4.9-5.1
		c0.9,1.1,1.9,2.2,2.9,3.2c0.8,0.8,1.6,1.6,2.2,2.6c-0.4-0.4-1.5-1.7-2.5-2.8c-0.7-0.8-1.4-1.6-2.3-2.2c-0.1,0,1.5,1.6,2.3,2.5
		c-5-5.1-8-7.6-3.6-2.8c-1.6-1.6-3.8-4-5.5-5.6l0,0c0.8,0.9,2.2,2.3,3,3.1l-2.9-2.9l0.4,0.6c0.7,0.7,1.4,1.5,2.1,2.2l-1.9-1.9
		c0.4,0.5,0.9,1.1,1.4,1.8c2.1,2.4,4.1,4.8,5.3,6c4.8,5.1,9.5,10.3,13.9,15.7S251.9,277.9,256.5,283.4z"/>
	<path class="st3" d="M211.8,367.5c0.1,0,0-0.4,0.3,0c0.8,1.2,1.1,2.5,1.8,3.7h0.2l0.3,0.8v0.1l-0.1,0.1c0,0,0,0.1-0.1,0.1l0,0h-0.1
		c-0.1,0-0.2,0-0.3-0.1c-0.4-0.1-0.9-0.2-1.3-0.4c0,0.1,0,0.1-0.1,0.1c-1-0.4-1.8-0.9-2.7-1.6l-0.4-0.3c-0.1,0-0.2,0-0.2,0
		c-0.4-0.4-0.8-0.7-1.2-1c-1.2-1-2.5-2-3.9-3.1s-2.7-2.1-4.1-3.2c-2.8-2.1-5.7-4.1-8.8-6.1c-1.4-0.8-2.7-1.6-4-2.4
		c-0.9-0.6-2-1.3-2.9-2c-0.9-0.6-1.5-1.4-2-2.4c-0.1,0.1-0.3,0-0.5-0.4s-0.3-0.9-0.2-1.4c0.2-1.1,0.9-2.1,0.2-1.9
		c0.9-1.2,2.4-2.7,2.4-2.9c0-0.5,0.1-1.1,0.5-1.5c0.8-1.2,1.7-2.2,2.8-3.1c1.2-0.9,2.5-1.7,3.8-2.5c0.7-0.6-1.9,0.8-1.3,0.2
		c-2.5,1.5-4.9,3.3-7,5.4c-0.5,0.5-1,1-1.5,1.6s-0.9,1-1.5,1.7c-0.7,0.9-1.2,1.9-1.3,3.1c-0.1,0.6-0.1,1.3,0.1,1.9
		c0.1,0.6,0.3,1.1,0.6,1.6c0.5,0.8,1.1,1.6,1.8,2.2c0.6,0.5,1.2,1,1.9,1.5c1.2,0.8,2.3,1.5,3.4,2.3c2.2,1.5,4.4,3.1,6.6,4.8
		c0.8,0.5,2.6,1.9,4.9,3.8c1.2,1,2.4,2,3.8,3.2s2.8,2.5,4.4,3.8c1.7,1.4,3.6,2.5,5.7,3.2c0.5,0.2,1.1,0.3,1.7,0.4
		c0.4,0.1,0.9,0.1,1.3,0.1c0.4,0,0.8,0,1.2,0c1.4,0,2.8-0.7,3.5-2c0.3-0.6,0.4-1.2,0.4-1.9c0-0.3-0.1-0.6-0.2-0.9
		c-0.1-0.3-0.3-0.6-0.4-1s-0.3-0.6-0.4-0.9c-0.1-0.2-0.1-0.3-0.2-0.5l-0.1-0.3l-0.5-0.9l-1.5-3l-0.3-0.5c-0.9-1.7-2-3.4-3.2-5
		c-1.1-1.5-2.4-2.9-3.8-4.1l-0.4-0.3c-0.1,0-0.5-0.4-0.7-0.9c-0.3-0.5-0.6-1-0.8-1.5c0.1,0.6,0.2,1.2,0.3,1.7
		c-0.2-0.6-0.5-1.2-0.7-1.8s-0.3-0.9-0.4-1.1c-0.3-1.3-0.4-1.6-0.5-1.4c-0.2,0.5-0.3,1-0.4,1.5c0,0.9-0.5-0.2-0.4,1.1
		c-0.2-0.8-0.3-1.6-0.3-2.4c-0.1,0.5-0.1,0.9,0.1,1.4c0.1,0.7,0.3,1.3,0.1,1c-0.2-1-0.4-2-0.4-3c-0.1,0.6-0.2,1.2-0.1,1.9
		c0.1,0.8,0.3,1.6,0.2,1.5c-0.2-0.5-0.2-1.1-0.3-1.7c0-0.7,0-1.3-0.1-1.4c-0.1,0.5-0.1,1,0,1.5c-0.2-1.6-0.1-2.8-0.2-3.2
		s-0.2-0.2-0.5,1.2c0-1,0.3-2.3,0.3-3.2l0,0c0,0.5-0.1,1.3-0.2,1.7c0.1-0.5,0.1-1.1,0.1-1.6c0,0.1-0.1,0.2-0.1,0.3
		c-0.1,0.4-0.1,0.8-0.1,1.2l0.1-1.1c-0.1,0.3-0.2,0.6-0.3,0.9c-0.3,1.2-0.5,2.4-0.5,3.7c0.1,1.2,0.4,2.4,0.8,3.5
		c0.2,0.6,0.4,1.1,0.6,1.6c0.3,0.7,0.8,1.4,1.3,2C208.1,361.5,210.2,364.4,211.8,367.5z"/>
	<path class="st3" d="M182.4,363.3c0.1-0.1,0-0.2,0.3-0.1c0.3,0.2,0.6,0.5,0.9,0.8c0.2,0.2,0.3,0.4,0.5,0.5l0.1-0.1l0.7,0.8
		c0.5,0.4,1.1,0.7,1.6,1.1c0-0.1,0-0.1,0.1-0.1c0.3,0.2,0.5,0.4,0.8,0.6l0.1,0.1c0,0,0.1,0,0.1-0.1c0.1,0.1,0.2,0.2,0.4,0.3l2.6,1.3
		l1.3,0.7l0.3,0.2l0.5,0.3c0.3,0.2,0.7,0.4,1,0.5s0.6,0.1,0.8,0.1c0.3,0,0.5-0.1,0.8-0.3c0.6-0.4,1.6-1.1,2-1.4
		c-0.4-0.4,0.6-1.5,0-1.8c0.3-0.2,0.8-0.6,0.7-0.8c-0.3-0.7-0.2-1.5,0.3-2c0.3-0.3,0.9-0.6,1-0.7s-0.6,0.1-0.6-0.2
		c-1.3,0.9-2.5,1.9-3.7,2.8l-0.4,0.3l0,0l0,0l0,0l0,0l-0.2-0.2c-1.4-0.8-2.7-1.7-4-2.7l-2.5-1.9l-1-0.8l-0.2-0.2l-0.1-0.1l0,0l0,0
		c0-0.1-0.2-0.1-0.5-0.2H186c-0.1-0.1-0.2-0.2-0.3-0.3l-0.5,0.1c0.2-0.1,0.3-0.3,0.3-0.4c0.1-0.5-0.2-0.5-0.8-0.5
		c-0.3,0.1-0.3-0.3-0.8-0.1c0.2-0.2,0.4-0.3,0.6-0.5c-0.1-0.1-0.6,0.7-0.7,0.4c0.3-0.2,0.5-0.4,0.7-0.7c-0.2-0.1-0.9,0.7-1.1,0.6
		c0.1-0.2,1-0.5,0.8-0.7c0,0-0.3,0.2-0.4,0.3c0.2-0.2,0.3-0.4,0.4-0.6c0.1-0.1,0.1-0.2,0.1-0.3c0-0.1-0.1-0.2-0.5,0
		c0.2-0.2,0.5-0.4,0.6-0.6l0,0c-0.1,0.1-0.3,0.2-0.4,0.3l0.3-0.3H184c-0.1,0.1-0.2,0.1-0.3,0.2l0.2-0.2h-0.3l-0.3,0.1
		c-0.1,0-0.2,0.1-0.3,0.1c-0.2,0.1-0.5,0.3-0.7,0.4c-0.6,0.5-1.3,0.9-2,1.4s-1.4,0.9-2.1,1.4C179.5,361.1,181,362.2,182.4,363.3z"/>
	<path class="st3" d="M218.4,368.6c0-0.1,0-0.2,0.1-0.2c0.3-0.1,0.4,0.3,0.7,0.3v-0.2l0.6,0.4l1.2,0.2c0-0.1,0-0.1,0.1-0.1
		c0.2,0,0.4,0.1,0.6,0.2h0.1l0.1-0.1c0.1,0,0.2,0.1,0.3,0.1c1.3,0,2.6,0.2,3.9,0.4c0.3,0,0.6,0,0.9,0.1c0.4,0.2,0.8,0.4,1.1,0.7
		c0.2-0.5,1.2-0.2,1.4-0.8c0.2,0.1,0.6,0.4,0.7,0.3c0.4-0.5,1.1-0.7,1.6-0.5c0.3,0.1,0.5,0.6,0.7,0.6s-0.1-0.5,0.1-0.5
		c-1.8-1.5-3.8-2.7-5.9-3.5c-0.4,0-1.9-0.6-3.4-1s-3.2-0.8-3.9-0.9h-0.1c-0.8-0.2-1.5-0.2-2.3,0c-0.3,0.1-0.6,0.3-0.9,0.4
		c0.1,0.1,0.2,0.2,0.4,0.3c-0.3,0-0.6-0.1-0.7,0c-0.6,0.2-0.3,0.5-0.1,0.9c0.2,0.2-0.1,0.4,0.2,0.6c-0.1,0-0.3,0-0.4,0
		c0,0.2,0.6-0.1,0.4,0.2c-0.2-0.1-0.4,0-0.5,0c0.1,0.2,0.6,0.1,0.6,0.3c-0.1,0-0.5-0.3-0.5,0l0.2,0.1c-0.6,0.1-0.8,0.3-0.4,0.6
		c-0.2,0-0.4-0.1-0.6-0.1l0,0c0.1,0,0.2,0.1,0.3,0.1h-0.3l0.1,0.1c0.1,0,0.2,0.1,0.2,0.1h-0.2c0.1,0.1,0.1,0.2,0.2,0.3
		c0.2,0.2,0.4,0.4,0.6,0.5L218.4,368.6z"/>
	<path class="st3" d="M261.5,374.4l0.2,0.2l0,0C261.6,374.7,261.5,374.4,261.5,374.4l0.1,0.2C261.5,374.6,261.5,374.5,261.5,374.4
		c0.2,0-0.6,0-0.9,0c0,0.1,0,0.1,0,0.1c-0.2,0-0.5,0-0.7-0.1h-0.1l-0.1,0.1l-0.3-0.1c-1.3,0.2-2.7,0.4-4.2,0.5
		c-0.3,0.1-0.7,0.2-1,0.2c-0.5-0.1-0.9-0.2-1.4-0.4c-0.1,0.6-1.1,0.6-1.1,1.2c-0.3-0.1-0.7-0.2-0.8,0c-0.2,0.6-0.8,1-1.4,1
		c-0.3,0-0.7-0.3-0.9-0.3s0.3,0.4,0.1,0.5c2.2,0.7,4.4,1.2,6.7,1.4c1.2,0,2.4,0.1,3.5,0.2l5.5,0.5l0,0l0.1-0.2
		c0.3-0.6,0.5-1.4,0.8-2c0.1-0.2,0.1-0.3,0.2-0.5s0.1-0.4,0.1-0.4c0-0.2,0.1-0.3,0.1-0.5c0-0.3,0-0.6,0-0.9
		c-0.1,0.1-0.3,0.1-0.4,0.2c0.1-0.2,0.3-0.5,0.2-0.6c0.1-0.6-0.3-0.5-0.8-0.5c-0.2,0.1-0.4-0.3-0.6-0.1c0.1-0.2,0.2-0.2,0.3-0.4
		c-0.1-0.1-0.2,0.6-0.4,0.3c0.1-0.1,0.2-0.4,0.3-0.5c-0.2,0-0.4,0.5-0.6,0.4c0-0.1,0.5-0.3,0.3-0.5c0,0-0.1,0.1-0.2,0.2
		c0.2-0.6,0.2-1-0.4-0.7c0.1-0.2,0.3-0.4,0.4-0.5l0,0c-0.1,0.1-0.2,0.2-0.3,0.3l0.2-0.3h-0.1c-0.1,0.1-0.1,0.1-0.2,0.2l0.1-0.2
		c-0.1,0-0.2,0-0.3,0c-0.3,0.2-0.7,0.3-0.7,0.4c-0.4,0.5-0.7,1.1-1,1.6C261.5,374.4,261.5,374.4,261.5,374.4L261.5,374.4
		L261.5,374.4z"/>
	<path class="st3" d="M147.1,429.4c0-0.2-1.3-0.4,0.8-0.5c6.4-0.5,11.6,0.1,17.9-0.3l0.4-0.3c5,0,10.1,0,15.4,0.1
		c9.7-0.2,19.4-0.6,29-0.8c-0.2-0.1-0.4-0.2,0.6-0.3c4-0.1,9.5-0.1,15.3-0.1l2.5-0.1c0.3,0,0.6-0.1,0.9-0.3l7,0.1
		c28.2-0.7,56.8-1.1,87.9-1c6.6-0.1,13.1-0.1,19.5-0.1c9.4,0.2,21.3,1,30.4,1.4c-1.4-1.2,20.9-0.6,16.6-2c6.1,0.3,15.2,1,15.7,0.6
		c1.5-0.9,6.2-1.8,22.5-1.3c6.3,0.3,16,1.4,18.3,1.4c3.5-0.1-8.1-1.3-4.6-1.3c-23.5-2-46.6-3.3-69.8-4.4s-46.4-1.8-70.1-2.3
		c-4,0-13.9,0-26.8-0.1H255c-7.7,0-15.8,0.1-24,0.1c-16.4,0.1-33.1,0.4-47.6,0.7c-7.2,0.1-13.8,0.3-19.5,0.5l-14,0.4l-2.5,0.1
		c-7.6,0.3-16.1,0.6-24.2,1s-16,1-22.5,1.5l-17.9,2c2.8,0,5.4,0.1,7.6,0.1c-6.1,0.3-12.2,0.6-14.5,1c-12.9,1.4-5.6,1.4-0.5,1.9
		c3.6,0.1-1.2,0.9,4.4,1c-4,0.2-6.1,0.4-10.1,0.6c-0.4,0.4,12.5-1,9.7-0.2c-3.9,0.1-8.3,0.6-12.3,0.9c1.4,0.3,14-0.8,13.4-0.3
		c-2.2,0.2-11.4,0.1-12.2,0.7c-0.2,0.1,3.9-0.1,5.9-0.3c-12.5,1-19.3,2-7.9,1.8c-4,0.2-9.6,0.4-13.7,0.7l0,0l7.6-0.4l-7.1,0.5
		l1.3,0.1c1.8,0,3.6-0.1,5.4-0.2l-4.7,0.3c1.2,0.1,2.6,0.2,4.1,0.2c5.6,0,11,0.1,14.1-0.1C97.9,431.3,122.6,430.2,147.1,429.4z"/>
	<path class="st3" d="M235.2,373.5c0.1-0.1,0.1-0.2,0.2-0.1c0.3,0.2,0.1,0.5,0.3,0.7h0.2c0,0.2,0,0.4,0,0.6c0.1,0.3,0.1,0.7,0.1,1
		c0.1,0,0.1,0,0.1,0.1c-0.1,0.2-0.2,0.4-0.3,0.6v0.1l0.1,0.1c-0.1,0.1-0.1,0.2-0.2,0.2c-0.4,0.7-0.9,1.3-1.6,1.6
		c-0.9,0.5-1.8,0.7-2.8,0.7c-0.5,0.1-0.9,0.1-1.4,0.1c-0.7-0.2-1.4-0.5-2-0.9c-0.1,0.3-0.6,0.3-1,0.2s-0.9-0.2-0.9,0.2
		c-0.4-0.4-0.9-1-1-0.9c-0.3,0.1-0.6,0.1-0.9,0c-0.6-0.3-1.1-0.9-1.2-1.6c-0.1-0.5-0.1-0.9,0-1.4s0.2-0.8,0.2-1s-0.1-0.1-0.1-0.1
		c-0.1,0.1-0.1,0.2-0.2,0.3c-0.1,0.2-0.3,0.5-0.3,0.3c-0.2,0.8-0.1,1.7,0.1,2.5c0.2,0.7,0.5,1.4,0.9,2c0.7,1,1.7,1.9,2.8,2.5
		c0.5,0.3,1.1,0.6,1.6,0.8c0.5,0.2,1.1,0.4,1.6,0.5c1.1,0.3,2.3,0.4,3.5,0.3c0.9-0.2,1.8-0.4,2.7-0.7c1.5-0.6,2.9-1.7,3.8-3
		c0.5-0.8,0.9-1.6,1.1-2.5c0.2-0.9,0.2-1.8,0-2.7c-0.3-1.2-0.8-2.4-1.6-3.4l-0.2-0.2c-0.6-0.7-1.3-1.2-2.1-1.6
		c-0.7-0.4-1.5-0.6-2.3-0.6c-0.6,0-1.2,0.1-1.8,0.3c0.2,0.1,0.5,0.2,0.7,0.3c-0.4-0.1-0.9-0.1-1.3,0c-1.1,0.3-0.4,0.6,0,0.9
		c0.3,0.2-0.1,0.4,0.4,0.6c-0.3,0-0.5,0-0.8,0c0,0.1,0.9-0.1,0.7,0.1c-0.3,0-0.6,0-0.9,0.1c0.1,0.2,1,0,1,0.2c-0.1,0-0.8-0.3-0.9,0
		c0,0,0.3,0,0.4,0c-0.9,0.1-1.2,0.5-0.5,0.7c-0.3,0-0.6,0-0.9,0.1l0,0c0.1,0,0.4,0,0.5,0l-0.5,0.1l0.1,0.1c0.1,0,0.2,0,0.4,0h-0.3
		l0.3,0.2c0.4,0.1,0.7,0.3,0.9,0.3C233.2,372.2,234.4,372.6,235.2,373.5z"/>
	<path class="st3" d="M193,102.8c-0.1,0-0.1,0.4-0.3-0.2c-0.2-1-0.2-2-0.1-3c0.1-0.9,0.2-1.7,0.5-2.6l-0.1-0.2
		c0.6-1.4,1.4-2.8,2.5-3.8c1-1.1,2.2-2.1,3.6-2.8c1.3-0.7,2.8-1.2,4.3-1.4c-0.1,0-0.1-0.1,0.2-0.2c1.7-0.2,3.4-0.2,5,0.1
		c0.3,0,0.6,0,0.8,0.1c0.1,0,0.2,0,0.3-0.1c0.8,0.2,1.5,0.4,2.3,0.7c2.3,0.7,4.5,1.7,6.6,3c2,1.3,3.6,3.2,4.7,5.3
		c2.3,4.4,2.8,10,2.7,15.6c0.1,2.4-0.1,4.7-0.4,7.1c-0.2,1-0.4,1.9-0.7,2.8c-0.1,0.5-0.3,1-0.5,1.3c-0.1,0.4-0.3,0.7-0.6,0.9
		c-0.3,0.1-0.6,0.1-0.9,0l-1.2-0.2l-2.5-0.3c0.4,0.6-7.8-0.2-6.2,0.6l-0.8-0.1c-0.2,0-0.5-0.2-0.7,0.1l-0.6,0.5l-0.6,0.6
		c-0.5,0.5-1,1-1.4,1.6c-0.1,0.7-0.3,1.4-0.7,2c-0.9,1.7-1.6,3.4-2.2,5.2c-0.2,0.5-0.2,1-0.4,1.6l-0.1,0.8c-0.1,0.3-0.1,0.5-0.1,0.8
		c0,0.8,0.1,1.5,0.2,2.2c0.1,0.3,0.1,0.3,0.1,0.1s0-0.5,0-0.8c-0.1-0.6,0-1.2,0.1-0.7c-0.1-2.1,0.5-4.1,1.5-5.9
		c1.1-2,2.5-3.8,4.2-5.4c0.2-0.2,0.4-0.4,0.6-0.6l0.1-0.1l0,0h0.2l3.8,0.5l3.8,0.5l1.9,0.2l0.8,0.1c0.3,0,0.6,0.1,0.9,0.1
		c0.6,0,1.2-0.1,1.7-0.4c0.7-0.4,1.3-1,1.7-1.8c0.2-0.4,0.3-0.8,0.5-1.2l0.1-0.3l0.1-0.2l0.1-0.3c0.3-0.9,0.6-1.9,0.8-2.8
		c0.4-1.9,0.7-3.7,0.8-5.6c0.3-3.8,0.3-7.5,0-11.3c-0.1-0.8-0.3-2.2-0.7-4c-0.5-2.2-1.4-4.4-2.5-6.4c-1.5-2.6-3.7-4.8-6.2-6.4
		c-2.8-1.7-5.8-2.9-8.9-3.6c-3.3-0.8-6.7-0.8-10-0.1c-1.6,0.4-3.2,1-4.7,1.8c-1.4,0.8-2.7,1.7-3.8,2.8c-2,2-3.5,4.5-4.2,7.2
		c-0.3,1.1-0.4,2.3-0.4,3.4c0,1,0,1.8,0.1,2.5l0.1,1c0.6,3.1,1.4,6.1,2.6,9c0.5,1.4,1,2.8,1.4,4.1c0.4,1,0.6,2,0.6,3.1
		c-0.1,2-0.7,3.9-1.6,5.6c0.6-0.8,1.1-1.6,1.5-2.2c-0.9,1.9-2.1,3.8-2.4,4.6c-2.4,4.2-0.7,2,0.6,0.7c0.9-1,0.1,0.6,1.4-1
		c-0.8,1.3-1.2,1.9-2,3.2c0,0.2,2.4-4,2.1-2.9c-0.8,1.2-1.6,2.6-2.4,3.9c0.5-0.3,2.9-4.4,2.9-4.1c-0.4,0.8-2.6,3.4-2.5,3.8
		c0.5-0.6,0.9-1.2,1.2-1.8c-0.9,1.3-1.7,2.7-2.3,4.2c-0.2,0.6,0,0.3,1.3-1.3c-0.9,1.3-1.7,2.7-2.3,4.2l0,0c0.4-0.8,0.8-1.6,1.2-2.4
		c-0.4,0.7-0.8,1.5-1.1,2.2c0.1-0.1,0.2-0.2,0.3-0.3c0.2-0.5,0.6-1.1,0.9-1.6c-0.2,0.5-0.5,1-0.7,1.4c0.2-0.3,0.5-0.7,0.8-1.1
		c1.1-1.6,2.4-3.1,3-4.1c1.4-2,2.6-4.1,3.6-6.3c0.5-1.3,0.9-2.6,1.1-4c0-0.4,0-0.7,0-1.1s0-0.8-0.1-1.1l-0.2-1.1l-0.2-0.9
		C195.5,111,193.6,106.9,193,102.8z"/>
	<path class="st5" d="M226.4,96.2c6.5-2.1,5.9-7.1,7.5-13.7c-5.8,3.2-12.8,2.4-19.3,1.2s-13.3-2.7-19.5-0.4
		c-3.6,1.3-4.1,1.8-9.8,2.6c-1.1,3.4,0.7,4.6,0.4,6.2s-0.5,0.7-1.1,2.1c-2.2,5,0.9,10.6,4,15.1s6.7,9.5,5.6,14.8
		c3.1-2.1,5.6-5.1,6.9-8.6c0.7-1.7,2.9-3,3.5-4.8c0.4-1.2-1.1-3-0.5-4.1c3.3-6.2,11.1-8.2,18-9.5"/>
	<path class="st3" d="M218.5,81.5c0,0.1,0.4,0.3-0.3,0.2c-2.5-0.3-4.4-1.1-6.9-1.5l-0.2,0.1c-2.1-0.5-4.2-0.9-6.4-1.2
		c-2.2-0.1-4.4,0.1-6.6,0.6c-0.6,0.1-1.1,0.4-1.6,0.6s-1.1,0.5-1.6,0.7l-2.5,1.4c0.1,0,0.2,0-0.1,0.2c-0.6,0.4-1.3,0.6-2,0.8
		c-0.4,0.1-0.8,0.1-1.2,0.1h-0.4h-0.8c-0.5,0-1.1-0.1-1.6-0.1l-1.5-0.1l-0.1,0.3c-0.1,0.2-0.1,0.5-0.1,0.7c-0.2,0.8-0.4,1.6-0.6,2.5
		c-0.1,0.8-0.1,1.6,0,2.4c0.1,0.3,0.2,0.7,0.3,1s0.2,0.5,0.3,0.8c0.2,0.5,0.2,0.4,0.2,0.6s0,0,0,0l0,0v0.1l-0.1,0.1
		c-0.2,0.2-0.4,0.5-0.5,0.8c-0.3,0.7-0.6,1.5-0.8,2.3c-0.3,1.5-0.3,3.1-0.1,4.6c0.6,2.8,1.7,5.5,3.4,7.8c1.5,2.4,3.3,4.4,4.7,6.6
		c0.7,1.1,1.4,2.2,1.9,3.4c0.3,0.6,0.5,1.2,0.7,1.8l0.1,0.2l0.1,0.4l0.1,0.8c0,0.3,0,0.6,0,0.9v0.9c-0.1,1-0.1,2-0.2,2.9
		c0.5-0.1,0.5,0.2,0.7,0.3c0.6-0.4,1.1-0.8,1.6-1.2c1-0.8,2-1.7,2.9-2.6c0.4-0.4,0.8-0.9,1.2-1.4s0.6-0.8,0.9-1.3
		c0.6-0.9,1.1-1.9,1.5-2.9l0.2-0.4l0.1-0.3c0.1-0.2,0.2-0.4,0.3-0.6c0.3-0.4,0.6-0.7,0.9-1c0.9-0.6,1.7-1.4,2.3-2.3
		c-0.2,0.1,0-0.5-0.1-1.3c-0.3-0.9-0.5-1.8-0.6-2.7c-0.2-2,1.1-3.6,0.2-3c0.4-0.6,0.9-1.1,1.5-1.6c0.6-0.4,1.2-0.8,1.8-1.2
		c1.1-0.6,2.1-1,2.1-1.1c0.5-0.6,1.2-1.1,2-1.4c2.1-0.9,4.3-1.5,6.6-1.9c2.6-0.4,6.4-0.7,7.1-1s-0.2-0.1-0.9-0.1s-1.6,0.1-0.9-0.1
		c-3.9,0.4-7.7,1-11.5,1.9c-2.1,0.5-4.1,1.2-6,2.2c-1.1,0.6-2.1,1.4-2.9,2.3c-0.9,1.1-1.6,2.4-1.8,3.8c-0.1,0.7-0.1,1.4-0.1,2.1
		c0,0.3,0.1,0.7,0.1,1l0.1,0.5c0,0.1,0,0.1,0,0.1l0,0c0,0,0.1-0.1-0.2,0.2c-0.8,0.7-1.6,1.4-2.3,2.2c-0.5,0.6-0.8,1.2-1.1,1.9
		c-0.2,0.5-0.3,0.8-0.5,1.2c-0.3,0.7-0.7,1.4-1.2,2.1l-0.4,0.5l-0.2,0.2l0,0l0,0c0,0-0.1,0.1,0,0l0,0c0.1,0.4-0.2-1-0.6-1.8
		c-0.7-1.7-1.6-3.4-2.6-5c-0.4-0.6-1.1-1.6-2-2.8c-1-1.3-2-2.7-2.9-4.2c-1-1.7-1.8-3.6-2.2-5.5c-0.2-1-0.2-2,0-2.9
		c0-0.2,0.1-0.5,0.2-0.7c0.1-0.2,0.2-0.5,0.2-0.6v-0.1c0,0,0.1,0-0.1-0.1l-0.2-0.1l-0.1-0.1l0,0l0.4,0.3l0,0l0.2-0.2
		c0.1-0.1,0.2-0.2,0.3-0.4c0.2-0.3,0.3-0.5,0.4-0.8c0.1-0.2,0.1-0.3,0.1-0.5s0.1-0.4,0.1-0.5c0.1-0.9,0-1.8-0.3-2.7l-0.2-0.7
		l-0.1-0.3v-0.1l0,0c0-0.1,0-0.3,0-0.4h0.6c1,0,2-0.2,2.9-0.4c0.9-0.3,1.8-0.6,2.6-1.1l2.1-1.1c0.3-0.2,0.6-0.3,0.9-0.5
		c0.3-0.1,0.6-0.3,0.9-0.4c0.6-0.2,1.2-0.4,1.8-0.5c1.2-0.2,2.5-0.3,3.8-0.2c2.4,0.1,4.7,0.5,7.1,1c2.1,0.4,4,0.8,5.3,1.1l1,0.2
		c2.9,0.5,5.8,0.8,8.7,0.7c0.8,0,1.5-0.1,2.3-0.2l1.1-0.2c0.4-0.1,0.9-0.2,0.8-0.2c0.2-0.1,0.5-0.2,0.7-0.3l0.2-0.2v0.1
		c0,0.2,0,0.5,0,0.7c-0.1,0.2-0.1,0.4-0.2,0.6c-0.3,0.5-0.5,1-0.8,1.4c0.4-0.4,0.6-0.8,1-1.1l0.6-0.7c-0.5,0.8-1,1.6-1.6,2.3
		c-0.6,0.8-1.1,1.4-1.4,1.7c-0.8,0.9-1.4,1.4-1.6,1.7s-0.3,0.4-0.1,0.4c0.3-0.1,0.6-0.3,0.9-0.4c0.4-0.2,0.9-0.5,1.3-0.8
		c1.1-0.9,0,0.7,1.6-0.9c-0.9,1.1-1.9,2-3,2.8c0.7-0.4,1.3-0.9,1.8-1.5c0.8-0.8,1.5-1.6,1.2-1.1c-1.1,1.3-2.4,2.4-3.7,3.4
		c0.9-0.5,1.7-1.1,2.5-1.8c1-0.9,1.8-1.9,1.8-1.7c-0.6,0.7-1.3,1.3-2,1.9c-0.6,0.5-1.2,1-1.7,1.5c0.7-0.5,1.4-1,2-1.6
		c-1.3,1.2-2.7,2.4-4.2,3.4c-0.3,0.2-0.4,0.3,0,0.2c0.7-0.3,1.4-0.6,2.1-1c-1.7,1.1-3.4,1.9-5.3,2.6l0,0c1-0.3,2-0.7,3-1.2
		c-0.9,0.5-1.9,0.9-2.8,1.2l0.6-0.1c0.7-0.2,1.5-0.5,2.2-0.9c-0.6,0.3-1.2,0.6-1.9,0.8c0.6-0.1,1.2-0.3,1.7-0.5
		c1.9-0.8,3.7-1.8,5.4-3.1c0.9-0.8,1.8-1.7,2.6-2.6c0.4-0.5,0.8-1,1.1-1.5l0.5-0.8l0.7-1.3l0.4-0.7l0.3-0.7l0.6-1.4
		c0.3-0.9,0.6-1.8,0.8-2.7l0.8-2.7l0.2-0.7l0.1-0.6l0.2-1l-4.9,2.4c-0.4,0.2-0.8,0.4-1.2,0.6l-1,0.4c-0.7,0.3-1.3,0.5-2,0.6
		l-0.7,0.1c-0.1,0-0.3,0.1-0.4,0.1l-0.9,0.1c-0.6,0-1.2,0.1-1.8,0.1C223.5,82.1,221,81.9,218.5,81.5z"/>
	<path class="st3" d="M200.1,267.9c-0.1,0.1,0.4,0.5-0.5,0c-1.4-0.9-2.5-1.7-3.8-2.6c-1.3-0.8-2.6-1.6-3.9-2.3h-0.3
		c-2.1-1.2-4.3-2.5-6.3-3.9c-1.8-1.1-3.5-2.5-5-4.1c-0.3-0.4-0.6-0.7-0.9-1.1c-0.3-0.5-0.6-0.9-0.8-1.4c-0.5-0.9-1-1.9-1.4-2.9
		c0,0.1-0.1,0.2-0.2-0.2c-0.4-1-0.6-2-0.8-3c-0.2-1.2-0.3-2.5-0.4-3.7c0-0.4,0-0.8,0-1.2c0-0.2-0.1-0.3-0.1-0.4
		c0-1.2,0.1-2.3,0.3-3.3c0.4-3.4,1-6.7,1.8-10.1c0.8-3.4,1.8-6.8,2.6-10.4c0.9-3.7,1.4-7.4,1.5-11.1c0.1-1.9,0.1-3.8,0.1-5.7
		s-0.2-3.9-0.4-5.8c-0.2-1.6-0.4-3.3-0.8-4.9s-0.5-3.1-0.7-4.7c-0.2-2.3-0.4-4.9-0.6-7.6c-0.1-1.3-0.2-2.6-0.4-3.9
		c-0.1-0.6-0.1-1.2-0.2-1.8s-0.1-1.1-0.1-1.7c-0.3,0.4-0.6-2.2-0.7-4.6c-0.1-1.2,0-2.4-0.1-3.1s-0.1-1-0.3-0.5
		c0.1-0.8,0.2-1.6,0.4-2.4l0.5-2.5c0.3-0.9,0.5-1.9,0.6-2.8c-0.1-1-0.1-2,0.2-2.9c0.2-0.9,0.5-1.9,1-3.2c0.3-0.7,0.6-1.4,1-2.2
		c0.2-0.4,0.4-0.8,0.6-1.2s0.5-0.9,0.8-1.3c1-1.6,2-3.1,3.2-4.4c1.3-1.3,2.4-2.4,2.8-2.9c1.2-1.4-3.2,2.9-2.1,1.4
		c-1.1,1.1-2.1,2.3-3,3.6c-0.5,0.6-0.9,1.2-1.3,1.9c-0.4,0.7-0.9,1.3-1.2,2c-0.7,1.3-1.4,2.7-2,4.1c-0.3,0.7-0.6,1.4-0.9,2.1
		l-0.7,2.2c-1.8,5.8-2.5,11.9-2.1,17.9c0,0.4,0.1,0.8,0.1,1.2l0.1,1l0.3,2.1c0.1,1.4,0.3,2.8,0.4,4.2c0.2,2.8,0.4,5.7,0.8,8.7
		c0.1,0.7,0.2,1.5,0.3,2.2s0.2,1.4,0.3,2.1c0.1,1.4,0.3,2.8,0.4,4.2s0.1,2.8,0.1,4.2s-0.1,2.9-0.2,4.3c0,1.6-0.1,3.2-0.3,4.8
		c-0.3,2.6-0.9,5.2-1.6,7.8c-0.8,3-1.8,6.5-2.8,10.2c-1.1,4-1.8,8-2,12.1c-0.2,4.4,0.6,8.8,2.4,12.8c0.5,1,1,1.9,1.5,2.8
		c0.3,0.5,0.6,0.9,0.9,1.4c0.3,0.5,0.7,0.9,1.1,1.3c1.4,1.4,3,2.7,4.6,3.9c2.8,1.8,5.6,3.4,8.5,5c2,1,3.8,2.2,5.7,3.4l1,0.7
		c6.1,4.3,13.4,9.8,18.8,13.3c2.5,1.6,5,3.2,7.6,4.7c-1.1-0.9-2.1-1.6-3-2.4c2.5,1.8,5,3.4,6.1,4c5.6,3.2,2.6,1,0.8-0.6
		c-1.4-1.1,0.8,0-1.5-1.7c1.7,1.1,2.5,1.7,4.2,2.7c-0.8-0.6-1.5-1.1-2.4-1.5c-1.2-0.8-2.2-1.5-1.6-1.2c1.6,1.1,3.5,2.2,5.2,3.2
		c-0.2-0.2-1.7-1.2-3.1-2c-0.9-0.5-1.6-1.1-2.4-1.7c0.5,0.3,1.6,1.1,2.7,1.9c0.7,0.6,1.5,1,2.4,1.4c0.1,0-1.6-1-2.4-1.6
		c1.8,1.1,3.7,2.1,5.6,3c0.9,0.3,0.4,0-1.9-1.5c1.8,1.1,3.8,2.1,5.8,2.8l0,0l-1.6-0.6c-0.6-0.3-1.2-0.6-1.6-0.8l1.5,0.7l1.5,0.5
		l-0.5-0.3c-0.4-0.2-0.7-0.3-1.1-0.5l-1.1-0.6c0.6,0.3,1.3,0.6,2,0.9l-0.7-0.4l-0.9-0.5c-2.3-1.3-4.4-2.9-5.6-3.6
		c-5-3.2-9.9-6.8-14.8-10.4S205.2,271.4,200.1,267.9z"/>
	<path class="st3" d="M215.5,121.4c-0.1,0.1-0.1,0.2-0.3,0.1c-0.4-0.6-0.4-1.2-0.9-1.8h-0.2l-0.6-1.6c-0.6-0.9-1.1-1.8-1.7-2.8
		c0,0-0.1,0.1-0.1,0c-0.2-0.4-0.5-0.9-0.8-1.5l-0.1-0.2c-0.1,0-0.1,0-0.2,0c-0.1-0.2-0.2-0.5-0.3-0.7c-1.7-2.6-3.4-5.3-5-8.3
		c-0.4-0.6-0.8-1.2-1.1-1.9c-0.4-1.1-0.7-2.1-1-3.2c-0.5,0.3-1.5-2-1.9-1.4c-0.2-0.7-0.4-1.7-0.6-1.7c-0.5,0-1.2-0.4-1.9-2.2
		c-0.2-0.7-0.2-1.8-0.4-2.1s-0.2,1-0.4,0.6c0.9,5.4,2.5,10.6,4.7,15.5c0.5,0.8,2,4,3.8,7.3l4.4,8l0.1,0.2c0.8,1.6,1.8,3.1,2.9,4.5
		c0.5,0.5,1,1,1.5,1.5c-0.1-0.3-0.2-0.6-0.3-0.9c0.3,0.5,0.6,1,1,1.4c1.1,1.1,0.8,0.2,0.8-0.5c-0.1-0.4,0.4-0.1,0.2-0.8
		c0.2,0.4,0.4,0.6,0.6,0.9c0.1-0.1-0.9-1.1-0.5-1c0.2,0.4,0.5,0.7,0.8,1.1c0.1-0.2-0.9-1.3-0.6-1.4c0.2,0.2,0.5,1.2,0.8,1.1
		c0.1,0-0.2-0.4-0.3-0.6c0.9,1.1,1.6,1.4,1,0.3c0.3,0.4,0.5,0.8,0.9,1.2l0,0l-0.5-0.6l0.5,0.6v-0.2c-0.1-0.2-0.2-0.3-0.3-0.5
		l0.3,0.4c0-0.2,0-0.3-0.1-0.5c-0.2-0.5-0.3-0.9-0.6-1.4C218.1,126.2,216.8,123.8,215.5,121.4z"/>
	<path class="st4" d="M186.5,108.1c11.7-9.1,24.1-18.6,39.1-21.3c0.6-0.1,1.1-0.2,1.6-0.5c0.6-0.5,0.9-1.2,0.8-2
		c0.2-4.9-3.4-9.3-8.1-11.7s-10.3-2.8-15.7-2.7c-3.5,0-7,0.5-10.4,1.6c-5.6,2.3-10.1,6.7-12.4,12.2
		C177.8,91.6,180.9,107.9,186.5,108.1"/>
	<path class="st3" d="M214.5,92.9c0-0.1-0.5,0,0.1-0.3c1.8-0.7,3.7-1.4,5.6-1.9l0.1-0.2c1.6-0.4,3.3-0.7,4.9-1l0.6-0.1l0.7-0.1
		c0.8-0.1,1.6-0.5,2.2-0.9c0.6-0.5,1.1-1.1,1.4-1.9c0.1-0.4,0.3-0.8,0.3-1.2c0.1-0.4,0.1-0.7,0.1-1.1c0-2.1-0.5-4.1-1.4-5.9
		c0,0.1,0,0.2-0.2-0.2c-1-1.8-2.2-3.4-3.7-4.8c-0.2-0.2-0.5-0.4-0.8-0.6c-0.1-0.1-0.2-0.1-0.4-0.1c-0.7-0.6-1.5-1.1-2.3-1.6
		c-4.9-2.4-10.1-3-15.2-2.9c-2.6,0-5.2,0.3-7.8,0.7c-2.7,0.4-5.3,1.4-7.7,2.7c-2,1.2-3.8,2.7-5.3,4.4c-1.2,1.3-2.3,2.7-3.3,4.2
		c-0.9,1.5-1.8,3.1-2.4,4.7c0.4-0.1-0.1,1.6-0.4,3.3s-0.4,3.2,0.1,2.5c-0.5,2-0.8,5-0.6,5.2c0.4,0.6,0.6,1.2,0.7,1.8
		c0.3,1.7,0.8,3.4,1.4,5c0.4,1,0.8,1.9,1.3,2.8c0.4,0.6,0.8,1.2,1.4,1.7c0.2,0.2,0.2,0.1,0.1,0l-0.4-0.7c-0.3-0.5-0.6-1-0.2-0.6
		c-1.9-2.6-2.6-6.1-2.4-9.6c0.2-3.7,1.1-7.2,2.5-10.6c1.3-3.3,3.3-6.3,6-8.7c1.3-1.1,2.8-2.1,4.4-2.8c1.6-0.7,3.4-1.2,5.2-1.4
		c1.1-0.2,2.1-0.3,3.2-0.4c1.5-0.1,3.4-0.2,5.5-0.1c2.3,0,4.6,0.3,6.8,0.8c2.4,0.5,4.6,1.4,6.6,2.8c1.9,1.3,3.4,3.2,4.3,5.4
		c0.1,0.3,0.1,0.5,0.2,0.8s0.1,0.5,0.1,0.8s0.1,0.5,0.1,0.8v0.6c0,0.1,0,0.2-0.1,0.2c0,0-0.1,0-0.1,0.1l-0.5,0.1
		c-3.9,0.8-7.7,1.9-11.3,3.4l-0.8,0.4c-5,2.2-9.8,4.9-14.1,8.2c-1.6,1.3-3.2,2.6-4.8,4c0.8-0.5,1.6-0.9,2.3-1.3
		c-1.4,0.9-2.7,1.9-4,3c-3.4,2.9-1.2,1.6,0.4,0.9c1.1-0.6-0.1,0.6,1.6-0.4l-2.8,2.1c0,0.2,3.4-2.6,2.8-1.8c-1.1,0.8-2.2,1.7-3.3,2.6
		c0.5-0.1,3.9-2.8,3.8-2.5c-0.6,0.5-3.3,2.1-3.3,2.5c0.6-0.4,1.1-0.8,1.6-1.2c-3.3,2.6-5,4.3-1.8,2.2c-1.1,0.8-2.6,1.9-3.8,2.8l0,0
		l2.1-1.5l-1.9,1.5l0.4-0.2c0.5-0.3,1-0.7,1.5-1.1l-1.3,1c0.4-0.2,0.8-0.4,1.2-0.6c1.6-1,3.2-2,4.1-2.6
		C200.2,100.7,207.1,96.1,214.5,92.9z"/>
</g>
</svg>
