<?xml version="1.0" encoding="utf-8"?>
<!-- Generator: Adobe Illustrator 25.4.1, SVG Export Plug-In . SVG Version: 6.00 Build 0)  -->
<svg version="1.1" id="Lager_1" xmlns="http://www.w3.org/2000/svg" xmlns:xlink="http://www.w3.org/1999/xlink" x="0px" y="0px"
	 viewBox="0 0 500 500" style="enable-background:new 0 0 500 500;" xml:space="preserve">
<style type="text/css">
	.st0{fill:#FFFFFF;}
	.st1{fill:#E0DED9;}
	.st2{fill:#CC0066;}
	.st3{fill:#1595BF;}
	.st4{fill:#EB6F00;}
	.st5{fill:none;stroke:#000000;stroke-width:0.25;stroke-miterlimit:10;}
	.st6{fill:#1D1D1D;}
</style>
<path class="st0" d="M489.9,343.8c-0.5,0-1,0-1.6,0c0-1.7-0.1-3.5-0.1-5.3c-0.3-3.3-0.4-6.6-0.3-9.8v-0.2c0-1,0-2-0.2-3.1
	c-0.1-0.3-0.3-0.7-0.4-1l-11.8,0c0-0.6-1-5-0.6-4.3c-0.9-6.2-1.8-12.3-2.4-18.4c-0.3-3.1-0.6-6.1-0.8-9.2c-0.1-1.5-0.2-3.1-0.2-4.7
	c-0.1-1.6-0.1-3.2-0.2-5c-0.1-0.6-0.2-1.6-0.5-3.1c-0.3-1.9-0.9-3.8-1.7-5.6c-0.6-1.2-1.3-2.3-2.2-3.3c-1-1.1-2.1-2.1-3.4-2.9
	c-2.4-1.4-5-2.4-7.7-2.9c-1.2-0.3-2.4-0.5-3.5-0.7l-3.4-0.7l-6.4-1.2l-9.3-1.6l-0.7-0.1c-4.3-0.7-8.8-1.2-13.2-1.2
	c-1.7,0.1-3.4,0.2-5.1,0.4c0.8,0.2,1.5,0.5,2.1,0.7c-1.4-0.2-0.6-0.4-2-0.3c-1.4,0.1-2,0.2-2.1,0.4L357.9,195
	c-3.9-4.5-8-8.8-12.3-13c-1.2-1.2-2.4-2.3-3.7-3.3c-1.5-1.2-3.2-2.2-4.9-2.9c-1.6-0.6-3.2-1.2-4.9-1.6c-1.5-0.4-3-0.8-4.4-1.1
	c-2.4-0.5-4.8-1.3-7-2.4c-0.2-0.1-0.4-0.2-0.5-0.3l-0.2-0.2c-0.1-0.1-0.2-0.1-0.3-0.2c-0.6-0.5-1.2-1-1.8-1.5
	c-1.2-1-2.4-1.9-3.6-2.9c-4.8-3.8-9.5-7.3-14.1-10.9c-0.8-0.6-1.9-1.4-3.2-2.5l-2.2-1.8l-2.1-1.8l-0.5-0.5c-0.2-0.1-0.3-0.4-0.6-0.3
	H290l-18,0.1l-4.3,0c-0.6-2.7-1.2-5.3-2-7.9c-0.5-1.8-1.1-3.6-1.8-5.4l-1-2.7l-0.5-1.4l-0.1-0.4c-0.1-0.2-0.2-0.4-0.3-0.6
	c-0.2-0.4-0.4-0.8-0.8-1.2c-0.7-0.7-1.8-1.2-2.8-1.2c-0.9,0-1.1,0-1.6,0h-1.5l-7.5-0.1l-4-0.1l-2.1-0.1c-1.1-0.1-2.2,0.3-3.2,0.9
	c-0.8,0.6-1.3,1.5-1.5,2.5c0,0.2-0.1,0.5-0.1,0.7c0,0.2,0,0.4,0,0.5s0,0.5,0,0.7c-0.1,0.9-0.1,1.6-0.2,2.1v0.4
	c-0.3,2.3-0.9,5.1-1.2,7.1c-0.1,0.9-0.2,1.8-0.4,2.8l0.7-1c-0.3,0.7-0.5,1.4-0.7,2.2c-0.4,1.4-0.1,1.3,0.3,0.9L235,148l-9.1,0
	c-33.4,0.1-68.2,0.1-82.5,0h-2.6c-15.5-0.1-87.4,3.5-100.5,3.9l-3.8,4.4c-3.3,4.4-3.2,10-5,15.3c-1.7,4.9-3,9.9-3.9,14.9
	c-1.9,9.7-3.8,19.5-5.5,29.5c-0.2,1.7-0.7,5.9-1.3,11.5c-0.7,5.5-1.3,12.4-1.8,19.4c-1,14-1.2,28.7-1.3,34.7v1.1
	c-0.1,6.7,0.1,13.3,0.6,19.9c0.3,2.5,0.7,5.1,1.1,7.6c0.2-1.2,0.3-2.3,0.5-3.2l3.4,4.5l0.1,4.3c0.1,0,0.1-0.2,0.1-0.5l0.5,11.9
	l-9.3,0.1c0.1,0-0.7,3.9-0.6,4c0,0.4-0.3,0.7-0.3,1l0.2,0l-0.3,0.9c0,0.6,0,1.1,0,1.7c0.1,0,0.1,0,0.1,0c0,0.3,0,0.6-0.1,0.9v0.2
	c0,0,0.1,0.1,0.1,0.1c0,0.2,0,0.3-0.1,0.4c0.2,1.7,0.5,3.4,0.8,5.2c0.2,0.4,0.3,0.8,0.4,1.1c0,0.6,0,1.2-0.1,1.8
	c0.4-0.1,0.7,0.7,1.1,0.9l0,0.7l-0.2,2.5l0,0.1l2.9,0c4.5,0.1,8.9,0.2,13.5,0.4c1.6-0.1,5.6,0,11.9,0h15.6h0.5c2.9,0,6.5-0.1,9-0.4
	l0.7-0.1l7.4,0c0.2,0.9,0.5,1.7,0.8,2.5c0.3,0.8,0.6,1.6,0.9,2.3l0.5,1.2c0.2,0.4,0.4,0.7,0.6,1.1l1.2,2.2l1.3,2.1
	c0.4,0.7,0.9,1.4,1.5,2c0.5,0.6,1,1.3,1.6,1.9c2.2,2.5,4.8,4.8,7.5,6.7c0.7,0.5,1.5,0.9,2.2,1.3c0.4,0.2,0.7,0.5,1.1,0.7l1.2,0.6
	c0.8,0.4,1.5,0.8,2.4,1.1l2.5,0.9c3.3,1.1,6.8,1.7,10.4,1.8c0.4,0,0.9,0,1.3,0l1.3-0.1c0.9-0.1,1.8-0.1,2.6-0.2l2.6-0.4
	c0.9-0.1,1.7-0.4,2.5-0.6c1.9-0.6,3.7-1.3,5.5-2c1.4-0.6,2.7-1.3,3.9-2c0.7-0.4,1.5-0.8,2.2-1.3l2.2-1.5c3.3-2.5,6.1-5.4,8.5-8.8
	c2.5-3.5,4.3-7.5,5.3-11.7l217.5-0.4c0.3,1.1,0.5,2.1,0.9,3.1c0.2,0.8,0.6,1.6,0.9,2.3l0.5,1.2c0.2,0.4,0.4,0.7,0.6,1.1l1.2,2.2
	l1.4,2.1c0.4,0.7,0.9,1.4,1.5,2c0.5,0.6,1,1.3,1.6,1.9c2.2,2.5,4.8,4.8,7.5,6.7c0.7,0.5,1.5,0.9,2.2,1.3c0.4,0.2,0.7,0.5,1.1,0.7
	l1.2,0.6c0.8,0.4,1.5,0.8,2.3,1.1l2.5,0.9c3.3,1.1,6.8,1.8,10.4,1.9c0.4,0,0.9,0,1.3,0l1.3-0.1c0.9-0.1,1.8-0.1,2.6-0.2l2.6-0.4
	c0.9-0.1,1.7-0.4,2.5-0.6c1.9-0.6,3.7-1.2,5.5-2c1.4-0.6,2.7-1.3,4-2c0.7-0.4,1.5-0.8,2.1-1.3l2.2-1.5c3.3-2.5,6.1-5.4,8.5-8.8
	c2.6-3.7,4.5-7.9,5.5-12.3l0.6,0c0.5,0.1,1,0.3,1.5,0.4c3.1,0.2,6.1,0.3,9.2,0.3c0-0.1-0.2-0.2,0.1-0.2c0.8-0.1,1.4,0.2,2.2,0.1
	l0.1-0.2l1.9,0.2c1.2,0,2.4-0.1,3.6-0.1c0-0.1,0-0.1,0.1-0.1c0.6,0,1.3,0,1.9,0h0.3c0.1,0,0.1-0.1,0.1-0.1h0.9
	c1.2-0.1,2.3-0.2,3.5-0.3l17.6,0v-2.8c0.1-0.2,0.3-0.4,0.7-0.5c0,0.2,0,0.5,0.1,0.5c0.5,0.1,1,0.4,1.3,1.5c0.1,0.4-0.1,1.1,0,1.2
	c0.1,0.1,0.3-0.5,0.5-0.3c0.1-1.1,0.1-2.2,0.1-3.4c0.8,0,1.9,0.1,2.1,0C490.9,344.1,489.4,343.9,489.9,343.8z M288.8,155.5h0.1
	l0.2,0.1L288.8,155.5z M374.5,354c-0.3-0.6-0.6-1.3-0.9-2.1c0.4,0.5,0.8,1.1,1.2,1.7C374.7,353.6,374.5,353.7,374.5,354z
	 M412.6,261.4c0.2,0.1-0.1,0.2-0.4,0.4L412.6,261.4z M412.7,263.9c-0.1,0-0.2,0-0.3,0l-0.2-0.3C412.7,263.6,413.1,263.7,412.7,263.9
	z M412.9,264.4c0.1,0,0.2,0.1,0.1,0.2L412.9,264.4z M483.1,326.1c-1.6,0-3.9,0-6.8,0c0.7-0.1,1.3-0.2,2-0.2c1.3-0.1,3.1,0,4.4,0.1
	c-0.1-0.2,0.2-0.3,0.5-0.4C483.1,325.7,483.1,325.9,483.1,326.1z M486.9,324.7c0-0.1,0-0.2,0-0.3c0.1,0,0.1,0,0.2,0
	C487,324.5,487,324.6,486.9,324.7z"/>
<g id="OUTLINE_ikons">
	<path class="st1" d="M397.5,307.8c4.9,0.8,14,0.5,14,0.5l12.3,13.1l10.6,10.9l5.3,10.3c0,0-1.1,8.5-5.3,12.8s-11.5,10.6-14,12.1
		s-8.8,4.5-12.1,4.9s-12.4,0.3-15.3-0.8s-15.3-4.8-15.4-7.9s-4.8-11-8.3-14.8s-3.5-18.1-3.5-18.1s8.5-10.5,11.9-12.8
		s12.1-9.3,12.1-9.3"/>
	<path class="st1" d="M106.8,307.8c4.9,0.8,14,0.5,14,0.5l12.3,13.1l10.6,10.9l5.3,10.3c0,0-1.1,8.5-5.3,12.8s-11.5,10.6-14.1,12.1
		s-8.8,4.5-12.1,4.9s-12.4,0.3-15.3-0.8s-15.3-4.8-15.4-7.9s-4.8-10.9-8.3-14.8S75,330.8,75,330.8s8.5-10.5,11.8-12.8
		s12.2-9.3,12.2-9.3"/>
	<path class="st2" d="M98.6,170.2h23.3l0.6,28.6l22.9-1.4l-0.3,30l-22-3.6l-1.3,23L95.4,248l-1-26.2l-22.6,1.2c0,0,1.4-26,2.3-26.1
		c15.1-3.1,25.6-0.5,25.6-0.5L98.6,170.2z"/>
	<path class="st3" d="M232.7,143.8c4,3.1,34.2,3,34.2,3l-9-23.6l-19.8,0.2L232.7,143.8z"/>
	<path class="st1" d="M11.8,325.2c3.2,0,471.9-1.4,471.9-1.4V348l-471.8,0.9L11.8,325.2z"/>
	<path class="st4" d="M18.7,275.2h25.2l1.2,22c0,0-30.6,9.1-29.9,6.5S18.7,275.2,18.7,275.2z"/>
	<polygon class="st4" points="464.2,276.6 444.2,279.2 447.3,291.3 469,310.3 	"/>
	<circle class="st3" cx="47.3" cy="171.8" r="9.8"/>
	<circle class="st5" cx="112" cy="341.7" r="33.1"/>
	<path class="st6" d="M124.5,315.1c0.1-0.2-0.3-0.6,0.5-0.3c0.6,0.3,1.2,0.6,1.7,1c0.5,0.4,1,0.8,1.5,1.2c1,0.8,1.8,1.8,2.9,2.6
		l0.4-0.1l1.1,1.3c0.2,0.2,0.4,0.4,0.5,0.7l0.5,0.7l1,1.4c0.3,0.5,0.6,1,0.9,1.5c1.2,1.8,2.2,3.7,3,5.7c0.3,1,0.7,2,1,3
		c0.3,1,0.5,2.1,0.7,3.1c0.1-0.1,0.2-0.2,0.3,0.2s0.1,0.9,0.2,1.4s0,1.1,0,1.6c0,1.2-0.1,2.4-0.2,3.6c0,0.4-0.1,0.7-0.1,1.1
		c0,0.2,0.1,0.3,0.2,0.4c-0.1,0.5-0.2,1.1-0.3,1.6c-0.2,0.5-0.3,1-0.5,1.4c-1.7,6.3-5.6,11.8-10.8,15.7c-5.6,4.4-12.6,6.7-19.8,6.5
		c-3.1,0-6.2-0.6-9.2-1.8c-4.5-2.1-8.5-5.3-11.5-9.3c-0.1,0.3-0.7,0-1.4-0.6c-0.4-0.3-0.8-0.7-1.2-1l-1.2-1.4
		c-0.9-0.9-1.5-1.9-2.1-2.5s-0.9-0.7-0.9-0.1c-1.4-2.9-2.6-7.6-2.9-7.9c-0.4-0.2-0.7-0.5-0.9-0.8c-0.5-0.6-0.8-1.3-1-2
		c-0.4-1.2-0.7-2.4-0.9-3.7c-0.1-0.9-0.2-1.8-0.2-2.6c0-1,0.1-2.1,0.1-3.3c0.3-2,0.8-4,1.6-5.9c0.7-1.9,1.4-3.4,1.6-4
		c0.2-0.9-0.4,0-1,1s-1.2,2.1-1,1.1c-1.3,3.2-2.1,6.6-2.5,10l-0.2,1.3c0,0.4,0,0.9,0,1.3c0,0.9,0,1.8,0,2.6c0.1,1.7,0.3,3.5,0.6,5.2
		c0.3,1.7,0.8,3.4,1.3,5c0.3,0.8,0.6,1.6,0.9,2.4l0.5,1.2c0.2,0.4,0.4,0.8,0.6,1.1l1.2,2.3l1.3,2.2c0.4,0.7,0.9,1.4,1.5,2.1
		c0.5,0.7,1,1.4,1.6,2c2.2,2.6,4.8,4.9,7.5,6.9c0.7,0.5,1.5,0.9,2.2,1.4c0.4,0.2,0.7,0.5,1.1,0.7l1.2,0.6c0.8,0.4,1.5,0.8,2.3,1.1
		l2.5,0.9c3.3,1.1,6.8,1.7,10.4,1.8c0.4,0,0.9,0,1.3,0l1.3-0.1c0.9-0.1,1.8-0.1,2.6-0.2l2.6-0.4c0.9-0.1,1.7-0.4,2.6-0.6
		c1.9-0.6,3.7-1.3,5.5-2.1c1.4-0.6,2.7-1.3,3.9-2.1c0.7-0.4,1.4-0.8,2.1-1.4l2.2-1.6c3.3-2.6,6.1-5.6,8.5-9
		c2.7-3.9,4.6-8.3,5.5-12.9c0.9-4.7,0.9-9.6-0.1-14.3c-0.9-4.3-2.5-8.5-4.8-12.3c-1.9-3.2-4.3-6.2-7-8.8l-1.8-1.6
		c-0.6-0.5-1.2-0.9-1.7-1.3s-1.1-0.8-1.6-1.1l-1.4-0.9l-1.3-0.7c-1-0.5-2.1-1-3.1-1.5s-2.2-0.8-3.4-1.2c-2.3-0.7-4.7-1.1-7.1-1.3
		c-4.4-0.3-8.9,0.4-13,2c-3,1.3-5.9,3-8.6,4.9c1.4-0.6,2.7-1,3.9-1.4c-2.4,1.1-4.6,2.4-6.7,3.9c-2.8,2-3.2,2.7-2.7,2.7
		c1.1-0.2,2.2-0.5,3.3-0.9c1.8-0.7-0.1,1.1,2.6-0.1c-1.8,1-2.7,1.6-4.4,2.7c0,0.2,1.3-0.7,2.5-1.5s2.3-1.4,1.8-0.8
		c-1.8,1-3.6,2.2-5.2,3.4c1.2-0.5,2.3-1.1,3.3-1.9c1.4-0.9,2.8-1.6,2.7-1.3c-0.4,0.3-1.8,0.9-2.9,1.6s-2.2,1.3-2.3,1.7
		c0.9-0.5,1.7-1,2.6-1.5c-1.8,1.2-3.5,2.5-5.1,4.1c-0.6,0.8,0,0.6,2.5-0.8c-1.9,1.2-3.7,2.6-5.5,4l0,0c0.8-0.7,2.3-1.7,3-2.3
		c-0.9,0.7-1.9,1.4-2.8,2.2c0.2-0.1,0.4-0.1,0.6-0.2c0.7-0.5,1.4-1,2.2-1.6c-0.6,0.5-1.2,1-1.8,1.5c0.6-0.2,1.2-0.5,1.9-0.9
		c2.4-1.4,4.8-2.5,6.1-3.3c5.1-3.1,10.4-5.8,15.6-6.6c2.6-0.4,5.2-0.3,7.8,0.1c1.3,0.2,2.6,0.5,3.8,1
		C122.1,314,123.4,314.5,124.5,315.1z"/>
	<path class="st6" d="M118.4,355.4c0,0.1,0.3,0.1-0.1,0.3c-1.3,0.5-2.7,0.9-4.2,1l-0.1,0.2c-1.2,0.1-2.5,0-3.7-0.2
		c-2.3-0.2-4.6-0.9-6.6-2c0,0.1,0,0.1-0.2,0l-0.7-0.4l-0.7-0.5c-0.5-0.4-1-0.9-1.5-1.3c-0.1-0.1-0.3-0.3-0.4-0.4
		c-0.1-0.1-0.2-0.1-0.2-0.1c-0.4-0.4-0.7-0.9-1-1.4c-2.1-2.9-3.1-6.4-3-9.9c0.1-3.9,1.5-7.6,3.9-10.5c1.1-1.3,2.4-2.4,3.8-3.3
		c2.4-1.2,5.1-1.8,7.8-1.7c-0.2-0.3,1.2-0.5,2.6-0.5s2.6,0.1,2.1-0.4c1.7,0.4,4.1,1.4,4.3,1.4c0.6-0.2,1.2-0.1,1.8,0.1
		c0.6,0.2,1.2,0.5,1.8,0.9c0.4,0.2,0.8,0.5,1.2,0.8c0.4,0.3,0.8,0.7,1.3,1.1c0.7,0.8,1.4,1.7,2,2.6c0.6,0.9,1,1.7,1.1,2
		s0.1-0.1-0.1-0.7s-0.5-1.2-0.1-0.7c-1.8-3.3-4.6-5.9-7.9-7.6c-3.2-1.7-6.9-2.5-10.5-2.4c-1.8,0.1-3.6,0.3-5.4,0.9
		c-1.8,0.5-3.4,1.3-5,2.3c-3.1,2.1-5.6,5-7.1,8.5c-1,2.6-1.6,5.3-1.6,8c0,2.2,0.3,4.4,0.9,6.5c0.7,2.4,1.9,4.6,3.6,6.6
		c1.7,2,3.7,3.5,6,4.7c2.1,1.1,4.4,1.8,6.8,2.1c2,0.3,4,0.3,6,0c0.8-0.1,1.6-0.3,2.4-0.5l1-0.3l0.8-0.3l0.7-0.3
		c2.3-1,4.4-2.5,6.2-4.4c1.6-1.7,2.8-3.8,3.5-6.1c0.5-1.7,0.8-3.5,0.9-5.2c-0.2,0.8-0.5,1.5-0.7,2.1c0.3-1.3,0.5-2.7,0.6-4.1
		c0.1-3.7-0.4-1.6-0.9-0.3c-0.3,1-0.4-0.4-0.8,1.1c0.2-1.1,0.2-1.6,0.3-2.8c-0.1-0.1-0.3,3.4-0.5,2.6c0.2-1.1,0.3-2.2,0.3-3.4
		c-0.2,0.7-0.3,1.3-0.3,2c-0.1,0.9-0.2,1.7-0.4,1.6c0.1-0.6,0.6-3,0.4-3.3c-0.1,0.5-0.2,1.1-0.2,1.6c0.1-1.2,0.1-2.3,0-3.5
		c-0.1-0.5-0.2-0.2-0.4,1.3c0.1-1.2,0.2-2.5,0.1-3.7l0,0c0,0.6,0,1.5,0,2c0-0.6,0-1.3,0-1.9c0,0.1-0.1,0.2-0.1,0.3l-0.1,1.4v-1.3
		c-0.1,0.3-0.2,0.7-0.2,1.1c-0.2,1.5-0.6,2.9-0.6,3.7c-0.2,3.1-1.1,6.1-2.4,8.8c-0.7,1.2-1.6,2.3-2.7,3.3c-0.5,0.5-1.1,0.9-1.7,1.3
		C119.7,354.7,119.1,355.1,118.4,355.4z"/>
	<path class="st6" d="M409.1,355.4c0,0.1,0.4,0.1-0.1,0.3c-1.3,0.5-2.7,0.9-4.2,1l-0.1,0.2c-1.2,0.1-2.5,0-3.7-0.2
		c-2.3-0.2-4.6-0.9-6.6-2c0,0.1,0,0.1-0.2,0l-0.7-0.4l-0.7-0.5c-0.5-0.4-1-0.8-1.5-1.3c-0.1-0.1-0.3-0.3-0.4-0.4
		c-0.1-0.1-0.2-0.1-0.2-0.1c-0.4-0.4-0.7-0.9-1-1.4c-2.1-2.9-3.1-6.4-3-9.9c0.1-3.9,1.5-7.6,3.9-10.5c1.1-1.3,2.4-2.4,3.8-3.3
		c2.4-1.2,5.1-1.8,7.8-1.7c-0.2-0.3,1.2-0.5,2.6-0.5s2.6,0.1,2.1-0.4c1.7,0.4,4.1,1.4,4.3,1.4c0.6-0.2,1.2-0.1,1.8,0.1
		c0.6,0.2,1.3,0.5,1.8,0.9c0.4,0.2,0.8,0.5,1.2,0.8c0.4,0.3,0.8,0.7,1.3,1.1c0.7,0.8,1.4,1.7,2,2.6c0.5,0.9,1,1.7,1.1,2
		s0.1-0.1-0.1-0.7s-0.5-1.2-0.1-0.7c-1.8-3.3-4.5-6-7.8-7.7c-3.3-1.7-6.9-2.5-10.5-2.4c-1.8,0.1-3.6,0.3-5.4,0.9
		c-1.8,0.5-3.4,1.3-5,2.3c-3.2,2.1-5.6,5-7.1,8.5c-1,2.6-1.6,5.3-1.6,8.1c0,2.2,0.3,4.4,0.9,6.5c0.7,2.4,1.9,4.6,3.6,6.6
		c1.7,2,3.7,3.5,6,4.7c2.1,1.1,4.4,1.8,6.8,2.1c2,0.3,4,0.3,6,0c0.8-0.1,1.6-0.3,2.4-0.5l1-0.3l0.8-0.3l0.7-0.3
		c2.3-1,4.4-2.5,6.2-4.4c1.6-1.7,2.8-3.8,3.5-6.1c0.5-1.7,0.8-3.5,0.9-5.2c-0.2,0.8-0.5,1.5-0.7,2.1c0.3-1.3,0.5-2.7,0.6-4.1
		c0.1-3.7-0.4-1.6-0.9-0.3c-0.3,1-0.4-0.4-0.8,1.1c0.1-1.1,0.2-1.6,0.3-2.8c-0.1-0.1-0.3,3.4-0.5,2.6c0.2-1.1,0.3-2.2,0.3-3.4
		c-0.2,0.7-0.3,1.3-0.3,2c-0.1,0.9-0.2,1.7-0.3,1.6c0.1-0.6,0.6-3,0.4-3.3c-0.1,0.5-0.2,1.1-0.2,1.6c0.1-1.2,0.1-2.3,0-3.5
		c-0.1-0.5-0.2-0.2-0.5,1.3c0.1-1.2,0.2-2.5,0.1-3.7l0,0c0,0.6,0,1.5-0.1,2c0-0.6,0-1.3,0-1.9c0,0.1-0.1,0.2-0.1,0.3l-0.1,1.4v-1.3
		c-0.1,0.3-0.2,0.7-0.2,1.1c-0.2,1.5-0.5,2.9-0.6,3.7c-0.2,3.1-1.1,6.1-2.5,8.8c-0.7,1.2-1.6,2.3-2.7,3.3c-0.5,0.5-1.1,0.9-1.7,1.3
		C410.4,354.7,409.8,355.1,409.1,355.4z"/>
	<path class="st6" d="M415.6,315.3c0.1-0.2-0.3-0.6,0.5-0.3c0.6,0.3,1.2,0.6,1.7,1c0.5,0.4,1,0.8,1.5,1.2c1,0.8,1.8,1.8,2.9,2.6
		l0.4-0.1l1.1,1.3c0.2,0.2,0.4,0.4,0.5,0.7l0.5,0.7l1,1.4c0.3,0.5,0.6,1,0.9,1.5c1.2,1.8,2.2,3.7,3,5.7c0.3,1,0.7,2,1,3
		c0.3,1,0.5,2.1,0.7,3.1c0.1-0.1,0.2-0.2,0.3,0.2s0.1,0.9,0.2,1.4s0,1.1,0,1.6c0,1.2-0.1,2.4-0.2,3.6c0,0.4-0.1,0.7-0.1,1.1
		c0,0.2,0.1,0.3,0.2,0.4c-0.1,0.5-0.2,1.1-0.3,1.6c-0.2,0.5-0.3,1-0.5,1.4c-1.7,6.3-5.6,11.8-10.8,15.7c-5.6,4.4-12.6,6.7-19.8,6.5
		c-3.1,0-6.2-0.6-9.2-1.8c-4.5-2.1-8.5-5.3-11.5-9.3c-0.1,0.3-0.6,0-1.4-0.6c-0.4-0.3-0.8-0.7-1.2-1.1l-1.2-1.4
		c-0.9-0.9-1.5-1.9-2.1-2.5s-0.9-0.7-0.9-0.1c-1.4-2.9-2.6-7.6-2.9-7.9c-0.4-0.2-0.7-0.5-0.9-0.8c-0.5-0.6-0.8-1.3-1-2
		c-0.4-1.2-0.7-2.4-0.9-3.7c-0.1-0.9-0.2-1.8-0.2-2.6c0-1,0.1-2.1,0.1-3.3c0.3-2,0.8-4,1.6-5.9c0.7-1.9,1.4-3.4,1.6-4
		c0.2-0.9-0.4,0-1,1s-1.2,2.1-1,1.1c-1.3,3.2-2.1,6.6-2.5,10l-0.1,1.3c0,0.4,0,0.9,0,1.3c0,0.9,0,1.8,0,2.6c0.1,1.7,0.3,3.5,0.6,5.2
		c0.3,1.7,0.8,3.4,1.3,5c0.2,0.8,0.6,1.6,0.9,2.4l0.5,1.2c0.2,0.4,0.4,0.8,0.6,1.1l1.2,2.3l1.4,2.2c0.4,0.7,0.9,1.4,1.5,2.1
		c0.5,0.7,1,1.4,1.6,2c2.2,2.6,4.8,4.9,7.5,6.9c0.7,0.5,1.5,0.9,2.2,1.4c0.4,0.2,0.7,0.5,1.1,0.7l1.2,0.6c0.8,0.4,1.5,0.8,2.4,1.1
		l2.5,0.9c3.3,1.2,6.8,1.8,10.4,1.9c0.4,0,0.9,0,1.3,0l1.3-0.1c0.9-0.1,1.8-0.1,2.6-0.2l2.6-0.4c0.9-0.1,1.7-0.4,2.5-0.6
		c1.9-0.6,3.7-1.3,5.5-2.1c1.4-0.6,2.7-1.3,4-2.1c0.7-0.4,1.5-0.8,2.1-1.4l2.2-1.6c3.3-2.6,6.1-5.6,8.5-9c2.7-3.9,4.6-8.3,5.5-12.9
		c0.9-4.7,0.9-9.6-0.1-14.3c-0.9-4.3-2.5-8.5-4.8-12.3c-1.9-3.2-4.3-6.2-7-8.8l-1.8-1.6c-0.6-0.5-1.2-0.9-1.7-1.3s-1.1-0.8-1.6-1.1
		l-1.4-0.9l-1.3-0.7c-1-0.5-2.1-1-3.1-1.5s-2.2-0.8-3.4-1.2c-2.3-0.7-4.7-1.1-7.1-1.3c-4.4-0.3-8.9,0.4-13,2c-3,1.3-5.9,3-8.6,4.9
		c1.4-0.6,2.7-1,3.9-1.4c-2.4,1.1-4.6,2.4-6.7,3.9c-2.8,2-3.2,2.7-2.7,2.7c1.1-0.3,2.3-0.6,3.4-1c1.8-0.7-0.1,1.1,2.5-0.1
		c-1.8,1-2.7,1.6-4.4,2.7c0,0.2,1.3-0.7,2.5-1.5s2.3-1.4,1.9-0.8c-1.8,1-3.6,2.2-5.2,3.4c1.2-0.5,2.3-1.1,3.3-1.9
		c1.4-0.9,2.8-1.6,2.7-1.3c-0.5,0.3-1.8,0.9-2.9,1.6s-2.3,1.3-2.3,1.7c0.9-0.5,1.7-1,2.6-1.5c-1.8,1.2-3.5,2.5-5,4.1
		c-0.6,0.8,0,0.6,2.5-0.8c-1.9,1.2-3.7,2.6-5.5,4l0,0c0.8-0.7,2.3-1.7,3-2.3c-0.9,0.7-1.9,1.4-2.8,2.2c0.2-0.1,0.4-0.1,0.6-0.2
		c0.7-0.5,1.4-1,2.2-1.6c-0.6,0.5-1.2,1-1.8,1.5c0.6-0.2,1.2-0.5,1.9-0.9c2.4-1.4,4.8-2.5,6.1-3.3c5.1-3.1,10.4-5.8,15.5-6.6
		c2.6-0.4,5.2-0.3,7.8,0.1c1.3,0.2,2.6,0.5,3.8,1C413.2,314.1,414.4,314.6,415.6,315.3z"/>
	<path class="st6" d="M200.8,346.3c0-0.1-0.7-0.2,0.4-0.2c3.5,0,6.3,0.4,9.9,0.4l0.3-0.1l8.4,0.4l15.9,0.2c-0.1-0.1-0.2-0.1,0.3-0.1
		c2.2,0,5.2,0.1,8.4,0.2h1.4c0.2,0,0.4,0,0.5-0.1l3.9,0.1h48.2c3.6-0.1,7.2-0.1,10.7-0.1c5.1,0,11.7,0.3,16.7,0.4
		c-0.8-0.6,11.5-0.6,9-1.2c3.3,0.1,8.4,0.2,8.6,0.1c0.8-0.5,3.4-1,12.2-1.1c3.5,0,8.8,0.3,10,0.3c1.9-0.1-4.5-0.5-2.6-0.6
		c-25.8-0.8-50.6-1.1-76.6-1.7c-8.9,0-68.5-1.2-83.8-1.6h-1.4c-8.4-0.2-18.5-0.4-25.6-0.3l-9.8,0.2l4.2,0.4c-3.3-0.1-6.7-0.2-8-0.1
		c-7.1,0.1-3.1,0.5-0.4,0.9c2,0.2-0.7,0.4,2.4,0.7l-5.6-0.1c-0.3,0.2,6.9,0.1,5.3,0.3c-2.1-0.1-4.6-0.1-6.8-0.1
		c0.8,0.2,7.7,0.3,7.4,0.5c-1.2,0-6.2-0.4-6.7-0.2c-0.1,0,2.1,0.1,3.3,0.1c-6.9-0.1-10.6,0.1-4.4,0.5c-2.2-0.1-5.2-0.2-7.6-0.3l0,0
		l4.2,0.2l-3.9-0.1l0.7,0.1c1,0,1.9,0.1,3,0.1l-2.6-0.1c0.6,0.1,1.4,0.2,2.2,0.3c3.1,0.2,6,0.6,7.7,0.6
		C173.8,345.6,187.4,346,200.8,346.3z"/>
	<path class="st6" d="M451.5,348.8c0-0.1-0.2-0.2,0.1-0.2c0.8-0.1,1.4,0.2,2.2,0.1l0.1-0.2l1.9,0.2c1.2,0,2.4-0.1,3.6-0.1
		c0-0.1,0-0.1,0.1-0.1c0.6,0,1.3,0,1.9,0h0.3c0.1,0,0.1-0.1,0.1-0.1h0.9c3.5-0.3,7-0.7,10.9-1.1c0.8-0.1,1.6-0.3,2.4-0.4
		c1.2-0.1,2.6,0,3.8,0.1c-0.2-0.6,2.6-0.9,2-1.4c0.8,0,1.9,0,1.9-0.1c0.2-0.5,0.8-1.1,2.8-1.4c0.8-0.1,2,0.1,2.3,0
		c0.4-0.2-1-0.4-0.6-0.5c-5.8-0.2-11.4,0-17.3,0c-2,0.2-15.4,0.4-18.9,0.2h-0.3c-1.9-0.1-3.8,0-5.8,0.2c-0.7,0.1-1.5,0.3-2.2,0.5
		c0.4,0.1,0.7,0.2,0.9,0.3c-0.6,0-1.2,0-1.8,0.1c-1.6,0.2-0.7,0.5-0.1,0.9c0.4,0.2-0.2,0.4,0.5,0.6h-1.3c0,0.2,1.5-0.1,1.2,0.2
		c-0.5-0.1-1,0-1.5,0c0.2,0.2,1.7,0.1,1.7,0.3c-0.3,0-1.4-0.3-1.5,0c0,0,0.5,0.1,0.7,0.1c-1.5,0.1-2.4,0.3-1,0.6
		c-0.5,0-1.2-0.1-1.7-0.1l0,0c0.3,0,0.7,0.1,0.9,0.1h-0.9l0.2,0.1c0.2,0,0.4,0.1,0.7,0.1H440l0.5,0.2c0.6,0.2,1.2,0.3,1.7,0.4
		C445.4,348.7,448.4,348.8,451.5,348.8z"/>
	<path class="st6" d="M481.1,327.7c0.1,0,0.2-0.1,0.2,0c0.1,0.4-0.2,0.8-0.1,1.2h0.2c-0.1,0.3-0.2,0.7-0.2,1c0,0.7,0.1,1.3,0.1,2
		c0.1,0,0.1,0,0.1,0c0,0.3,0,0.7,0,1v0.2c0,0,0.1,0.1,0.1,0.1c0,0.2,0,0.3,0,0.5c0.3,1.9,0.7,3.8,1.1,5.9c0.2,0.4,0.3,0.9,0.4,1.3
		c0,0.7,0,1.3-0.1,2c0.6-0.1,0.9,1.4,1.5,1.1c0,0.4,0,1,0.1,1.1c0.5,0.1,1,0.4,1.4,1.5c0.1,0.4-0.1,1.1,0,1.2s0.3-0.5,0.5-0.3
		c0.2-3.2,0-6.2,0-9.4c-0.3-3.4-0.4-6.7-0.3-10.1v-0.2c0-1.1,0-2.1-0.2-3.1c-0.1-0.4-0.3-0.8-0.5-1.2c-0.1,0.2-0.2,0.3-0.3,0.5
		c0-0.3,0-0.7-0.1-1c-0.2-0.9-0.5-0.4-0.9,0c-0.2,0.2-0.4-0.1-0.6,0.3c0-0.3,0-0.4,0-0.7c-0.2,0,0.1,0.8-0.2,0.6c0-0.3,0-0.6,0-0.8
		c-0.2,0.1-0.1,1-0.3,0.9c0-0.1,0.3-0.8,0-0.8c-0.1,0-0.1,0.3-0.1,0.4c-0.1-0.9-0.3-1.3-0.6-0.5c0.1-0.3,0.1-0.6,0.1-0.9l0,0
		c0,0.1-0.1,0.4-0.1,0.5c0-0.2,0-0.3,0-0.5l-0.1,0.1c0,0.1-0.1,0.2-0.1,0.4c0-0.1,0-0.2,0-0.3c-0.1,0.1-0.2,0.2-0.3,0.3
		c-0.2,0.3-0.3,0.6-0.4,1C481.2,324.4,481.1,326.1,481.1,327.7z"/>
	<path class="st6" d="M448,327c0-0.1-0.2-0.2,0.1-0.2c0.9-0.1,1.7,0.2,2.6,0.1l0.1-0.2l2.2,0.2c1.4,0,2.8-0.1,4.2-0.1
		c0-0.1-0.1-0.1,0.1-0.1c0.6,0,1.4,0,2.2,0h0.4c0.1,0,0.1-0.1,0.1-0.1h1c4-0.3,8.2-0.7,12.6-1.1c0.9-0.1,1.9-0.3,2.8-0.4
		c1.3-0.1,3.1,0,4.4,0.1c-0.2-0.6,3-0.9,2.4-1.4c0.8,0.1,1.5,0,2.3-0.1c0.2-0.5,0.9-1,3.2-1.4c0.9-0.1,2.3,0.1,2.6,0
		c0.5-0.2-1.2-0.3-0.7-0.5c-6.8-0.2-13.3,0-20.1,0c-2.3,0.3-18,0.4-22,0.3h-0.4c-2.2-0.1-4.5,0-6.7,0.2c-0.9,0.1-1.7,0.3-2.6,0.5
		c0.4,0.1,0.8,0.2,1.1,0.3c-0.7,0-1.4,0-2.1,0.1c-1.9,0.2-0.8,0.5-0.1,0.9c0.5,0.2-0.2,0.4,0.6,0.6h-1.5c-0.1,0.2,1.8-0.1,1.4,0.2
		c-0.6-0.1-1.2,0-1.8,0c0.2,0.2,2,0.1,1.9,0.3c-0.3,0-1.6-0.3-1.8,0c0,0.1,0.6,0.1,0.9,0.1c-1.8,0.1-2.8,0.3-1.1,0.6
		c-0.6,0-1.4-0.1-2-0.1l0,0l1.1,0.1h-1l0.2,0.1c0.3,0,0.5,0.1,0.8,0.1h-0.7c0.2,0.1,0.4,0.2,0.6,0.2c0.7,0.2,1.3,0.3,2,0.4
		C441,326.9,444.5,327,448,327z"/>
	<path class="st6" d="M200.7,328.8c0-0.1-0.7-0.2,0.4-0.2c3.7-0.1,6.7,0.2,10.4,0.1l0.3-0.2l9,0.2c5.6,0,11.3,0,16.9-0.1
		c-0.1-0.1-0.2-0.1,0.3-0.1c2.3,0,5.6,0,8.9,0h1.5c0.2,0,0.4,0,0.5-0.1c1.5,0,2.9,0,4.1,0c16.4-0.3,33.1-0.7,51.1-1.1
		c3.8-0.1,7.6-0.3,11.3-0.4c5.5-0.1,12.4,0,17.7,0.1c-0.8-0.6,12.1-0.9,9.6-1.4c3.5,0,8.9,0,9.1-0.1c0.8-0.5,3.5-1,13-1.3
		c3.7-0.1,9.3,0.1,10.6,0c2-0.2-4.8-0.4-2.7-0.5c-27.4-0.2-53.7,0-81.3,0c-9.4,0.3-72.6,0.4-88.9,0.3h-1.5c-8.9,0-19.6,0-27.1,0.2
		c-3.4,0.1-6.9,0.3-10.4,0.5c1.6,0.1,3.1,0.2,4.4,0.3c-3.5,0-7.1,0-8.4,0.1c-7.6,0.2-3.3,0.5-0.4,0.9c2.1,0.2-0.7,0.4,2.5,0.6h-5.9
		c-0.3,0.2,7.3-0.1,5.6,0.2c-2.3-0.1-4.8,0-7.2,0c0.8,0.2,8.2,0.1,7.8,0.3c-1.3,0-6.6-0.3-7.1,0c-0.1,0,2.3,0.1,3.5,0.1
		c-7.3,0.1-11.3,0.4-4.6,0.6c-2.3,0-5.6-0.1-8-0.1l0,0c1.2,0,3.3,0.1,4.4,0.1h-4.1l0.7,0.1c1,0,2.1,0.1,3.1,0.1h-2.8
		c0.7,0.1,1.5,0.2,2.4,0.3c3.3,0.2,6.4,0.4,8.2,0.4C172.1,328.7,186.4,328.8,200.7,328.8z"/>
	<path class="st6" d="M121.1,382.5c0-0.2-1.6-0.4,1-0.5c8.1-0.2,14.6,0.5,22.6,0.3l0.6-0.3c6.2,0.1,12.8,0.3,19.4,0.5
		c12.2-0.1,24.4-0.1,36.5-0.2c-0.3-0.1-0.5-0.2,0.8-0.3c5-0.1,12,0,19.2,0.1l3.2-0.1c0.4,0,0.8-0.1,1.2-0.2c3.3,0,6.2,0,8.9,0.1
		c35.5-0.6,71.6-1.4,110.7-2.1c8.3-0.3,16.5-0.6,24.5-0.7c11.8-0.1,26.9,0.1,38.4,0.1c-1.8-1.1,26.3-1.7,20.7-2.9
		c7.7,0,19.2,0.1,19.8-0.3c1.8-1,7.7-2.1,28-2.7c8-0.1,20.2,0.3,23,0.1c4.4-0.3-10.3-0.7-5.9-1c-59.2-0.4-116.3,0.1-175.9,0.1
		c-20.3,0.5-157.2,0.7-192.4,0.5H122c-19.2-0.1-42.5,0-58.7,0.5c-7.4,0.3-15,0.6-22.6,0.9c3.5,0.2,6.8,0.4,9.6,0.6
		c-7.7,0-15.3,0-18.3,0.2c-16.3,0.5-7.1,1.1-0.8,1.9c4.5,0.3-1.6,0.9,5.5,1.2H23.9c-0.6,0.3,15.8-0.2,12.2,0.4
		c-4.9-0.1-10.4,0.1-15.5,0c1.8,0.5,17.7,0.2,16.9,0.6c-2.8,0.1-14.4-0.6-15.4,0c-0.2,0.1,4.9,0.1,7.5,0.1
		c-15.7,0.2-24.4,0.7-10,1.3c-5,0-12-0.2-17.3-0.2l0,0c2.6,0,7.2,0.1,9.6,0.1h-9l1.6,0.2c2.2,0.1,4.5,0.1,6.8,0.1h-6
		c1.5,0.2,3.2,0.4,5.1,0.5c7.1,0.4,13.9,0.9,17.7,0.9C59.1,382.3,90.2,382.5,121.1,382.5z"/>
	<path class="st6" d="M138.2,152c0.1-0.2-1.3-0.4,0.8-0.5c6.5-0.2,11.8,0.5,18.3,0.3l0.5-0.3l15.7,0.5l29.6-0.2
		c-0.2-0.1-0.4-0.2,0.6-0.3c4.1-0.1,9.8,0,15.6,0.1l2.6-0.1c0.3,0,0.7-0.1,0.9-0.3l7.2,0.1l43.8-1L285,150h1.3h0.6h0.1l0.1,0.1
		l0.3,0.2l0.6,0.5c1.5,1.2,3,2.5,4.5,3.7c6.1,4.8,12.5,9.2,18.5,14.2c0.6,0.5,1.3,1,1.9,1.6c0.3,0.3,0.8,0.6,1.2,0.9
		s0.8,0.5,1.3,0.8c1.6,0.8,3.3,1.4,5.1,1.9c3.3,0.9,6.6,1.5,9.6,2.3c2.3,0.6,4.4,1.7,6.2,3.2c2,1.7,3.8,3.6,5.6,5.5l1.4,1.5l1.3,1.5
		l2.6,2.9c1.6,2,3.3,3.9,4.7,5.7c0-0.9,3.7,2.9,7,6.5s6.4,7,5.5,4.9c3.7,5,9.2,12.6,9.7,12.7c0.8,0.3,2.2,1.2,4.6,3.7
		s5.9,6.5,11.2,12.6c2.1,2.4,4.6,5.6,6.9,8.2s4.3,4.8,5.1,5.6c2.6,2.4-5.1-6.4-2.5-4.1c-15.6-17.4-28-37.5-43.5-56
		c-3.9-4.6-8-9.1-12.3-13.4c-1.2-1.2-2.4-2.4-3.7-3.4c-1.5-1.2-3.2-2.2-4.9-3c-1.6-0.7-3.2-1.2-4.9-1.6c-1.5-0.4-3-0.8-4.4-1.1
		c-2.4-0.5-4.8-1.4-7-2.5c-0.2-0.1-0.4-0.2-0.5-0.3l-0.2-0.2c-0.1-0.1-0.2-0.1-0.3-0.2c-0.6-0.5-1.2-1.1-1.8-1.6c-1.2-1-2.4-2-3.6-3
		c-4.8-3.9-9.5-7.5-14.1-11.2c-0.8-0.6-1.9-1.5-3.2-2.5l-2.1-1.8l-2.1-1.9l-0.5-0.5c-0.2-0.1-0.3-0.4-0.6-0.3h-1.7l-18,0.1
		l-46.1,0.2c-33.4,0.1-68.2,0.1-82.5,0h-2.6c-15.6-0.1-34.4,0-47.6,0.5l-18.3,0.9c2.8,0.2,5.5,0.4,7.8,0.6c-6.2,0-12.4-0.1-14.8,0.2
		c-13.2,0.5-5.7,1.1-0.7,1.9c3.7,0.4-1.3,0.9,4.4,1.2H59.4c-0.5,0.3,12.8-0.2,9.9,0.4c-4-0.1-8.5,0.1-12.6,0.1
		c1.4,0.4,14.3,0.2,13.7,0.6c-2.2,0.1-11.6-0.6-12.4-0.1c-0.2,0.1,4,0.1,6.1,0.1c-12.8,0.2-19.8,0.7-8.1,1.3c-4,0-9.8-0.2-14-0.2
		l0,0l7.8,0.1h-7.3l1.3,0.2c1.8,0.1,3.6,0.1,5.5,0.1h-4.8c1.2,0.2,2.6,0.4,4.1,0.5c5.7,0.4,11.2,0.9,14.3,0.9
		C87.9,151.8,113.1,152,138.2,152z"/>
	<path class="st6" d="M58.5,344.4c0,0.1,0.2,0.2-0.2,0.2c-1.2,0.1-2.2-0.2-3.5-0.1l-0.1,0.2l-3-0.2l-5.6,0.1c0,0.1,0.1,0.1-0.1,0.1
		c-0.8,0-1.8,0-2.9,0h-0.5c-0.1,0-0.1,0.1-0.2,0.1l-1.3-0.1c-5.4,0.3-11,0.5-16.9,0.7c-1.3,0.1-2.5,0.2-3.8,0.2
		c-1.8,0-4.1-0.2-5.9-0.3c0.2,0.6-4.1,0.7-3.2,1.3c-1-0.1-2-0.1-3,0c-0.3,0.5-1.2,1-4.4,1.1c-1.2,0-3.1-0.3-3.5-0.2
		c-0.7,0.1,1.6,0.4,0.9,0.5c9.1,0.7,17.9,0.8,27,1.1c1.6-0.1,7.6,0,13.9,0h15.6h0.5c2.9,0,6.5-0.1,9-0.4l3.5-0.5
		c-0.5-0.1-1-0.2-1.5-0.3c0.9,0,1.9,0,2.8-0.1c2.5-0.3,1.1-0.6,0.1-0.9c-0.7-0.1,0.2-0.4-0.9-0.6h2c0.1-0.2-2.4,0.1-1.9-0.1
		c0.8,0,1.6-0.1,2.4-0.1c-0.3-0.2-2.7,0-2.6-0.2c0.4,0,2.2,0.2,2.3,0c-0.4,0-0.8,0-1.2,0c2.4-0.1,3.7-0.4,1.5-0.7
		c0.8,0,1.8,0.1,2.7,0l0,0h-1.5h1.4l-0.2-0.1c-0.3,0-0.7,0-1.1,0h0.9c-0.2-0.1-0.5-0.2-0.8-0.2c-0.9-0.2-1.8-0.3-2.7-0.4L58.5,344.4
		z"/>
	<path class="st6" d="M9.9,330.7c0.1,0,0.2,0,0.2,0.1c0.1,0.4-0.3,0.7-0.3,1.1l0.2,0l-0.3,0.9c0,0.6-0.1,1.2,0,1.8
		c0.1,0,0.1,0,0.1,0c0,0.3,0,0.6-0.1,0.9v0.2c0,0,0.1,0.1,0.1,0.1c0,0.2,0,0.3-0.1,0.4c0.2,1.7,0.5,3.5,0.8,5.4
		c0.2,0.4,0.3,0.8,0.4,1.2c0,0.6,0,1.2-0.1,1.8c0.6-0.1,0.9,1.2,1.4,1c0,0.4,0,0.9,0.1,0.9c0.7,0.1,1.2,0.6,1.4,1.3
		c0.1,0.4-0.1,1,0,1.1s0.3-0.5,0.5-0.3c0.1-2.8-0.1-5.4-0.1-8.2c-0.1-1.4-0.1-2.8,0-4.2c0.1-1.6,0.2-3.1,0.4-4.7v-0.1
		c0.2-0.9,0.2-1.8,0.1-2.7c-0.1-0.4-0.2-0.7-0.3-1.1c-0.1,0.1-0.2,0.3-0.3,0.4c0.1-0.3,0.1-0.6,0-0.9c-0.1-0.8-0.5-0.4-0.9-0.2
		c-0.2,0.2-0.4-0.1-0.6,0.2c0.1-0.2,0.1-0.4,0.1-0.6c-0.2,0,0,0.8-0.3,0.5c0.1-0.2,0.1-0.5,0.1-0.7c-0.2,0-0.2,0.8-0.4,0.8
		c0-0.1,0.4-0.6,0.1-0.7c-0.1,0-0.1,0.2-0.1,0.3c0-0.8-0.2-1.2-0.6-0.6c0.1-0.3,0.2-0.5,0.2-0.8l0,0c0,0.1-0.1,0.3-0.1,0.4l0.1-0.4
		l-0.1,0c-0.1,0.1-0.1,0.2-0.1,0.3v-0.3c-0.1,0.1-0.2,0.1-0.3,0.2c-0.2,0.3-0.5,0.6-0.6,0.8C10.4,327.7,10.1,329.2,9.9,330.7z"/>
	<path class="st6" d="M29.4,329.6c0-0.1-0.2-0.2,0.1-0.2c1-0.1,1.7,0.2,2.7,0.1c0-0.1,0-0.1,0.1-0.2c0.8,0.1,1.5,0.1,2.3,0.2
		c1.5,0,2.9-0.1,4.4-0.2c0-0.1,0-0.1,0.1-0.1c0.6,0,1.4,0,2.3,0h0.4c0.1,0,0.1-0.1,0.1-0.1c0.4,0,0.7,0,1.1,0
		c4.3-0.4,8.6-0.8,13.3-1.2c1-0.2,2-0.3,2.9-0.4c1.4-0.1,3.2,0,4.6,0c-0.2-0.6,3.1-0.9,2.5-1.5c0.8,0.1,1.6,0,2.4-0.2
		c0.2-0.5,0.9-1.1,3.3-1.4c1-0.1,2.4,0.1,2.8,0c0.5-0.2-1.2-0.3-0.7-0.5c-7.1-0.1-14,0.2-21.1,0.2c-2.4,0.3-18.9,0.5-23.1,0.5h-0.4
		c-2.3,0-4.7,0.1-7,0.3c-0.9,0.1-1.8,0.3-2.7,0.5c0.4,0.1,0.8,0.2,1.1,0.3c-0.7,0-1.5,0-2.2,0.1c-2,0.3-0.8,0.5-0.1,0.9
		c0.5,0.2-0.2,0.4,0.7,0.6h-1.6c-0.1,0.2,1.9-0.1,1.5,0.2c-0.6-0.1-1.2,0-1.9,0c0.2,0.2,2.1,0.1,2,0.3c-0.3,0-1.7-0.3-1.8,0
		c0.3,0.1,0.6,0.1,0.9,0.1c-1.9,0.1-2.9,0.4-1.2,0.6c-0.6,0-1.4-0.1-2.1-0.1l0,0c0.3,0,0.9,0.1,1.2,0.1h-1l0.2,0.1
		c0.3,0,0.5,0.1,0.8,0.1h-0.7c0.2,0.1,0.4,0.2,0.6,0.2c0.7,0.2,1.4,0.3,2.1,0.4C21.9,329.6,25.6,329.6,29.4,329.6z"/>
	<path class="st6" d="M23.5,281c-0.2,0-0.4,0.5-0.5-0.3c-0.2-2.8,0.5-5,0.4-7.8l-0.3-0.2c0.2-2.1,0.4-4.4,0.6-6.7l0.1-6.3
		c0-2.1,0.1-4.2,0.2-6.3c-0.1,0.1-0.2,0.1-0.3-0.3c0-1.7,0.2-4.1,0.5-6.6c0-0.4,0-0.7,0-1.1c0-0.2-0.1-0.3-0.2-0.4
		c0.1-1.1,0.2-2.1,0.3-3c0.3-12.7,1.3-25.4,2.9-38c0.2-2.9,0.4-5.7,0.8-8.5c0.7-4,1.9-9.1,2.7-13c-0.6,0.2-0.6-2.1-0.5-4.3
		s0.1-4.2-0.7-3.4c0.7-2.6,1.9-6.5,1.7-6.8c-0.5-0.9-0.7-1.9-0.6-2.9c0.3-2.6,1-5.2,2.1-7.6c0.4-0.8,0.8-1.5,1.2-2.2
		c0.5-0.7,1-1.5,1.5-2.2c1-1.4,2-2.4,2.2-2.9c0.4-0.7-0.3-0.1-1.1,0.6s-1.5,1.4-1.1,0.6c-3.3,4.6-5.9,9.6-7.7,15
		c-1.7,5-3,10.1-3.9,15.4c-1.9,10-3.8,20-5.5,30.3c-0.2,1.8-0.7,6.1-1.4,11.8s-1.3,12.7-1.8,19.9c-1,14.4-1.2,29.5-1.4,35.6v1.1
		c-0.1,6.8,0.1,13.7,0.6,20.5c0.3,2.6,0.7,5.2,1.1,7.8c0.2-1.2,0.3-2.4,0.5-3.3c0,2.1,0.1,4.3,0.3,6.4c0.7,5.7,1.1,2.4,1.9,0.2
		c0.3-1.6,0.9,0.5,1.2-1.9l0.1,4.4c0.3,0.2-0.3-5.5,0.2-4.2c-0.1,1.7,0.2,3.6,0.2,5.4c0.4-0.6,0-6.1,0.4-5.9c0.1,1-0.4,5,0.1,5.3
		c0.1-0.9,0.1-1.7,0.1-2.6c0.3,5.5,1,8.5,1.4,3.5c0,1.7-0.1,4.2,0,6l0,0c0-0.9,0-2.5,0-3.3c0,1,0,2.1,0.1,3.1
		c0.1-0.2,0.1-0.4,0.2-0.5c0-0.8,0.1-1.6,0-2.4c0,0.7,0,1.4,0,2.1c0.2-0.6,0.3-1.2,0.4-1.8c0.3-2.5,0.7-4.8,0.7-6.2
		C23.5,302.4,23.4,291.7,23.5,281z"/>
	<path class="st6" d="M343,200c-0.1,0.1,0.7,0.7-0.6-0.1c-1.1-0.6-2.3-0.9-3.5-0.9c-1,0-1.9,0-2.9,0.2l-2.4,0.4l-2.4,0.4l-0.2,0.2
		c-2.7,0.4-5.4,0.6-8.1,0.7c-5.1,0.3-10.2,0.2-15.2-0.5c0.1,0.1,0.2,0.1-0.3,0.1l-1-0.1l-1.7-0.3l-1.8-0.3l-1-0.2c0,0-0.1,0-0.1,0
		v0.1v0.2l0,0.4c-0.2,2.1-0.5,4.3-0.7,6.6c0,0.5-0.1,0.9-0.1,1.4c0,0.2,0,0.4,0.1,0.5c-0.1,1.4-0.2,2.7-0.4,3.8
		c-0.4,7.7-0.5,15.5-0.3,23.4c0.1,4,0.3,8,0.6,12.1c0.1,1,0.2,2,0.2,3.1l0.3,3.2l0.2,2.3v0.1c0,0,0.1,0,0.1,0l0.3,0l0.6,0.1l1.1,0.2
		l1.8,0.3l1.6,0.2c3.6,0.4,7.2,0.6,10.6,0.8l16.5,1c-0.7-0.6,11.3-0.3,9-1c3.3,0.2,8.2,0.5,8.5,0.3c0.8-0.5,3.4-0.9,12.1-0.7
		c3.4,0.1,8.7,0.6,9.9,0.5c1.9-0.1-4.4-0.6-2.5-0.6c-12.7-0.7-25.2-1.4-37.7-2c-6.3-0.3-12.5-0.5-18.7-1.1c-3.1-0.3-6.1-0.7-9.1-1.2
		l-0.4-0.1v-0.5c-0.1-1.6-0.2-3.2-0.3-4.7c-0.2-2.2-0.5-7.4-0.6-14.4s0.2-15.5,1-24.3l0.5-4.8c0-0.1,0-0.1,0-0.2h0.1h0.2l1.5,0.2
		l1.7,0.2c7.9,0.9,15.8,0.6,23.6-0.8c1.5-0.3,3-0.6,4.1-0.8c0.8-0.2,1.6-0.2,2.4-0.1c0.2,0,0.5,0.1,0.7,0.2c0.6,0.4,1.1,0.9,1.5,1.6
		c0.5,0.7,1.1,1.7,1.7,2.6c1.2,1.9,2.5,3.8,3.7,5.6c2.5,3.7,5.1,7.1,7.3,9.9c2,2.5,4.2,5,6.4,7.4c-0.9-1.2-1.7-2.4-2.4-3.4
		c2,2.6,4.1,5.2,5,6.1c4.7,5.3,2.4,2,0.9-0.3c-1.1-1.6,0.8,0.2-1-2.2c1.4,1.7,2.1,2.6,3.5,4.2c0.3,0.1-4.4-5.1-3.2-4.1
		c1.3,1.7,2.9,3.4,4.3,5.1c-0.3-0.7-4.8-5.9-4.4-5.8c0.8,0.9,3.7,4.9,4.2,5.1c0.1,0-1.3-1.6-2-2.5c4.4,5.1,7.1,7.7,3.3,2.9
		c1.4,1.6,3.3,4,4.8,5.6l0,0l-2.9-3l2.5,2.9l-0.4-0.6l-1.9-2.2l1.7,1.9c-0.4-0.5-0.8-1.1-1.2-1.8c-1.9-2.4-3.5-4.8-4.6-6
		c-4.2-5.1-8.2-10.4-12-15.8c-1.9-2.7-3.8-5.4-5.6-8.2c-0.9-1.4-1.8-2.8-2.7-4.2C345.9,202.8,344.6,201.3,343,200z"/>
	<path class="st6" d="M371.5,251.5c0.1,0,0.2-0.2,0.2,0.1c0.1,1-0.2,1.9-0.1,2.9l0.2,0.1c-0.1,0.8-0.2,1.7-0.2,2.5v1.6v2.1l-0.1,4
		c0.3-0.1,0.7-0.2,1-0.4c0-0.1,0-0.1,0.3-0.2c1.2-0.4,2.6-0.8,4.3-1.5l0.7-0.3c0.1,0,0.2-0.1,0.2-0.2l0.5-0.2l0.4-0.2l0.5-0.2
		c2.4-1.3,4.3-3.3,5.7-5.7c0.7-1.3,1.1-2.7,1.1-4.1c0.1-1.4-0.2-2.8-0.6-4.2c-0.5-1-1-2-1.6-3c-0.8-1.5-1.8-3-3-4.3
		c-0.1,0.3-0.9-0.2-1.6-0.6s-1.4-0.6-1.3-0.2c-0.7-0.6-2-1.4-2.1-1.3c-0.5,0.3-1.3,0.3-3.6-0.3c-0.8-0.3-1.7-0.6-2.6-0.8
		c-0.5,0,1.1,0.6,0.5,0.6c3.2,0.9,6.1,2.7,8.4,5.1c2.2,2.4,3.9,5.6,3.7,8.4c0,1.5-0.7,2.9-1.7,4c-0.9,1-2,1.8-3.2,2.4l-0.8,0.4
		c-0.1,0.1-0.2,0.1-0.3,0.1c0-2.6,0-5,0-6.2v-0.4c0-2.6-0.2-5.2-0.5-7.8c-0.2-1-0.4-2-0.7-2.9c-0.1,0.5-0.1,0.9-0.2,1.3
		c0-0.8-0.1-1.6-0.3-2.4c-0.4-2.1-0.6-0.9-0.9,0c-0.1,0.6-0.5-0.2-0.5,0.8c0-0.7-0.1-1-0.1-1.7c-0.2-0.1,0.2,2.1,0,1.6
		c0-0.6-0.1-1.4-0.2-2c-0.2,0.2,0.1,2.3-0.1,2.2c-0.1-0.4,0.1-1.9-0.1-2c0,0.3,0,0.7,0,1c-0.3-2-0.6-3.1-0.8-1.2
		c0-0.6,0-1.6-0.1-2.2l0,0c0,0.3,0,0.9,0.1,1.2l-0.1-1.2l-0.1,0.2c0,0.3,0,0.6,0,0.9l-0.1-0.8c-0.1,0.2-0.1,0.4-0.2,0.7
		c-0.1,0.8-0.2,1.5-0.2,2.3C371.4,243.4,371.5,247.5,371.5,251.5z"/>
	<path class="st6" d="M239.5,129.1c-0.1,0-0.2,0.2-0.2-0.2c0-1.1,0.5-2,0.4-3.1l-0.2-0.1l0.1-0.6c0,0,0,0,0.1,0c0,0,0.1,0,0.1,0l0,0
		l0,0c0,0,0,0,0.1,0h2.4c0-0.1-0.1-0.1,0.1-0.1c0.7,0,1.6,0.1,2.5,0.1h0.4c0.1,0,0.1-0.1,0.1-0.1l1.2,0.1l7.1-0.3l1.8-0.1
		c0.3-0.1,0.6,0,0.8,0.1c0.1,0.1,0.2,0.2,0.3,0.3c0,0.1,0.1,0.1,0.1,0.2l0.2,0.4c0.2,0.6,0.5,1.1,0.8,1.7c0.5,1,1,1.9,1.4,2.9
		c0.5,1.4,1,3.4,1.4,4.8c0.5-0.4,1.7,3.1,2.1,2.2c0.1,0.9,0.4,1.7,0.8,2.5c0.5,0.1,1.3,0.8,2.1,3.4c0.3,1,0.4,2.7,0.5,3
		c0.2,0.6,0.1-1.4,0.4-0.9c-0.6-3.9-1.5-7.7-2.6-11.5c-0.5-1.9-1.1-3.7-1.8-5.6l-1-2.8l-0.5-1.4l-0.1-0.4c-0.1-0.2-0.2-0.4-0.3-0.7
		c-0.2-0.4-0.4-0.8-0.8-1.2c-0.7-0.8-1.8-1.2-2.8-1.3c-0.9,0-1.1,0-1.6,0h-1.5l-7.5-0.1l-4-0.1l-2.1-0.1c-1.1-0.1-2.2,0.3-3.2,0.9
		c-0.8,0.6-1.3,1.6-1.4,2.6c0,0.2-0.1,0.5-0.1,0.7c0,0.2,0,0.4,0,0.6s0,0.5,0,0.7c-0.1,0.9-0.1,1.6-0.2,2.2v0.4
		c-0.3,2.4-0.9,5.3-1.2,7.3c-0.1,0.9-0.2,1.9-0.4,2.9l0.6-1.1c-0.3,0.7-0.5,1.5-0.7,2.2c-0.5,2,0.2,1.1,0.8,0.4
		c0.4-0.5,0.3,0.4,0.8-0.5c-0.2,0.6-0.4,0.9-0.6,1.6c0.1,0.1,0.7-2,0.7-1.4c-0.3,0.6-0.4,1.3-0.7,1.9c0.3-0.1,0.9-2.2,1.1-2
		c-0.1,0.4-0.9,1.7-0.8,1.9c0.2-0.3,0.3-0.6,0.4-0.9c-0.7,2-0.9,3.2,0.1,1.5c-0.3,0.6-0.8,1.4-1,2.1l0,0c0.1-0.3,0.5-0.9,0.6-1.1
		l-0.5,1.1c0.1,0,0.1-0.1,0.2-0.1c0.2-0.3,0.3-0.5,0.4-0.8l-0.3,0.7c0.2-0.1,0.3-0.3,0.5-0.5c0.5-0.7,0.9-1.4,1.3-2.1
		C237.9,137.6,239,133.4,239.5,129.1z"/>
	<path class="st6" d="M428.9,267.8c0-0.2-0.3-0.5,0.3-0.5c1.8,0.1,3.1,1,4.8,1.1l0.2-0.3c1.3,0.4,2.7,0.8,4.1,1.2l7.9,1.3
		c0-0.1,0-0.2,0.2-0.2c1.4,0.2,2.8,0.6,4.1,0.9l0.7,0.1c0.1,0,0.2-0.1,0.3-0.2c0.6,0.1,1.1,0.3,1.7,0.5c1.5,0.2,2.9,0.7,4.1,1.4
		c1.2,0.7,2.1,1.8,2.7,3c0.7,1.6,1.2,3.4,1.5,5.1c0.3,1.9,0.5,4.1,0.8,6.3c0.4,1.8,0.8,3.7,1,5.5c0.3,2.6,0.3,6,0.5,8.6
		c1.1-0.5,2.3,5.6,3.3,4.3c0.2,1.7,0.5,4.2,0.8,4.3c1,0.3,2.3,1.4,3.6,5.7c0.4,1.7,0.5,4.4,0.8,5c0.5,0.9,0.3-2.3,0.8-1.5
		c-0.9-6.4-1.8-12.6-2.4-18.9c-0.3-3.1-0.6-6.3-0.8-9.5c-0.1-1.6-0.2-3.2-0.2-4.8s-0.1-3.3-0.2-5.1c-0.1-0.6-0.2-1.7-0.5-3.2
		c-0.3-2-0.9-3.9-1.7-5.7c-0.6-1.2-1.3-2.4-2.2-3.4c-1-1.2-2.1-2.2-3.4-3c-2.4-1.4-5-2.5-7.7-3c-1.2-0.3-2.4-0.5-3.5-0.8l-3.4-0.7
		l-6.4-1.2l-9.3-1.7l-0.7-0.1c-4.3-0.8-8.8-1.2-13.2-1.2c-1.7,0.1-3.4,0.2-5.1,0.4c0.8,0.2,1.5,0.5,2.1,0.8
		c-1.4-0.2-2.7-0.3-4.1-0.2c-3.7,0.2-1.7,0.9-0.3,1.8c1,0.4-0.4,0.8,1.1,1.3l-2.8-0.3c-0.2,0.3,3.5,0.1,2.7,0.6
		c-1.1-0.1-2.3-0.2-3.4-0.2c0.4,0.5,3.9,0.5,3.7,0.9c-0.6,0-3.1-0.9-3.4-0.3c0,0.1,1.1,0.2,1.6,0.3c-3.5-0.1-5.4,0.3-2.3,1.1
		c-1.1-0.1-2.6-0.4-3.8-0.5l0,0c0.6,0.1,1.6,0.2,2.1,0.3l-2-0.2l0.3,0.2c0.5,0.1,1,0.2,1.5,0.2l-1.3-0.1c0.3,0.2,0.7,0.4,1.1,0.6
		c1.2,0.5,2.5,0.9,3.8,1.2C415.5,265.8,422.2,266.7,428.9,267.8z"/>
	<path class="st6" d="M111.8,277c0-0.1-1.2-0.2,0.7-0.2c5.9-0.1,10.6,0.2,16.5,0.1l0.4-0.2c4.6,0.1,9.3,0.2,14.1,0.2
		c8.9,0,17.8,0,26.6-0.1c-0.2,0-0.3-0.1,0.5-0.1c3.7,0,8.8,0,14,0h2.3c0.3,0,0.6,0,0.9-0.1h6.5c25.9-0.3,52.1-0.7,80.6-1.1
		c6-0.1,12-0.3,17.8-0.4c8.6-0.1,19.5,0,27.9,0.1c-1.3-0.6,19.1-0.9,15.1-1.4c5.6,0,14,0,14.4-0.1c1.3-0.5,5.6-1,20.4-1.4
		c5.8-0.1,14.7,0.1,16.8,0c3.2-0.2-7.5-0.3-4.3-0.5c-43.1-0.2-84.6,0-128.1,0c-14.8,0.2-114.5,0.4-140.1,0.2h-2.3
		c-14,0-30.9,0-42.8,0.2c-5.4,0.1-10.9,0.3-16.4,0.5c2.5,0.1,4.9,0.2,7,0.3c-5.6,0-11.2,0-13.3,0.1c-11.9,0.2-5.2,0.5-0.6,0.9
		c3.3,0.2-1.2,0.4,4,0.6H41c-0.4,0.2,11.5-0.1,8.9,0.2c-3.6-0.1-7.6,0-11.3,0c1.3,0.2,12.9,0.1,12.3,0.3c-2,0-10.5-0.3-11.2,0
		c-0.1,0.1,3.6,0.1,5.4,0.1c-11.5,0.1-17.8,0.3-7.3,0.6c-3.6,0-8.8-0.1-12.6-0.1l0,0c1.9,0,5.2,0.1,7,0.1h-6.5l1.1,0.1
		c1.6,0,3.3,0.1,5,0.1h-4.4c1.1,0.1,2.3,0.2,3.7,0.2c5.2,0.2,10.1,0.4,12.9,0.4C66.6,276.8,89.2,276.9,111.8,277z"/>
	<path class="st6" d="M211.8,172.8c0-0.1-0.4-0.2,0.2-0.2c1.8-0.1,3.3,0.2,5.1,0.1l0.1-0.2l4.4,0.2c2.8,0,5.5,0,8.2-0.1
		c-0.1-0.1-0.1-0.1,0.2-0.1c1.1,0,2.7,0,4.3,0h0.7c0.1,0,0.2-0.1,0.3-0.1c0.7,0,1.4,0,2,0c8-0.3,16.1-0.7,24.9-1.1
		c1.9-0.1,3.7-0.3,5.5-0.4c2.6-0.1,6,0.1,8.6,0.1c-0.4-0.6,5.9-0.9,4.6-1.4c1.5,0.1,3,0,4.5-0.1c0.4-0.5,1.7-1.1,6.3-1.3
		c1.8-0.1,4.5,0.1,5.2,0c1-0.1-2.3-0.3-1.3-0.5c-13.3-0.2-26.1,0-39.5,0c-4.6,0.3-35.4,0.4-43.3,0.3H212c-4.3,0-9.6,0-13.2,0.2
		c-1.7,0.1-3.4,0.3-5.1,0.5c0.8,0.1,1.5,0.2,2.1,0.3c-1.7,0-3.4,0-4.1,0.1c-3.7,0.2-1.6,0.5-0.2,0.9c1,0.2-0.4,0.4,1.2,0.6h-2.9
		c-0.1,0.2,3.6-0.1,2.8,0.2c-1.1-0.1-2.4,0-3.5,0c0.4,0.2,4,0.1,3.8,0.3c-0.6,0.1-3.2-0.3-3.4,0c0.6,0.1,1.1,0.1,1.7,0.1
		c-3.5,0.1-5.5,0.4-2.3,0.6c-1.1,0-2.7-0.1-3.9-0.1l0,0c0.6,0,1.6,0.1,2.1,0.1h-2l0.4,0.1c0.5,0,1,0.1,1.5,0.1h-1.3
		c0.3,0.1,0.7,0.2,1.1,0.3c1.6,0.2,3.1,0.4,4,0.4C197.9,172.6,204.9,172.8,211.8,172.8z"/>
	<path class="st6" d="M39.2,180.5c0.1-0.1,0-0.3,0.3,0c0.7,1,1.7,1.8,2.7,2.5l0.2-0.1c0.9,0.6,1.8,1,2.8,1.4
		c1.9,0.5,3.9,0.4,5.8-0.1c-0.1-0.1-0.1-0.1,0.1-0.2c1-0.3,2-0.6,2.9-1.1l0.4-0.3c0.1-0.1,0.1-0.1,0.1-0.2c0.4-0.3,0.8-0.6,1.2-0.9
		c1.7-2,2.9-4.4,3.5-6.9c0.8-2.6,0.9-5.3,0.1-7.9c-0.5-1.1-1.2-2.1-2-2.9c-0.7-0.7-1.4-1.2-2.3-1.6c-0.9-0.3-1.8-0.5-2.7-0.4
		c0.1,0.3-0.8,0.5-1.5,0.9s-1.2,0.9-0.8,1c-0.9,0.3-2.1,1-2.1,1.2c0.1,0.6-0.3,1.3-1.7,3c-0.6,0.6-1.1,1.2-1.6,1.9
		c-0.1,0.5,0.9-0.7,0.8-0.2c0.9-1.2,2-2.3,3.3-3.1c1.1-0.8,2.5-1.2,3.8-1.4c1-0.1,2,0.4,2.5,1.2c0.7,1.1,1,2.4,0.7,3.7
		c-0.1,1.2-0.3,2.4-0.8,3.6c-0.5,1.9-1.5,3.6-3,4.9c-1.6,1.1-3.6,1.4-5.4,1c-1.3-0.2-2.5-0.9-3.4-1.9l-0.2-0.2
		c-0.6-0.7-1-1.6-1.2-2.4c-0.2-0.9-0.3-1.8-0.2-2.7c0-0.8,0.1-1.6,0.3-2.3c-0.2,0.3-0.5,0.5-0.7,0.8c0.3-0.8,0.8-1.5,0.8-1.8
		c0.4-0.8,0.5-1,0.3-1c-0.4,0.1-0.7,0.2-1,0.4c-0.4,0.4-0.2-0.4-0.9,0.3c0.3-0.5,0.6-0.9,1-1.4c0-0.1-0.3,0.3-0.6,0.7
		s-0.5,0.8-0.5,0.5c0.4-0.6,0.8-1.1,1.2-1.7c-0.2,0-0.3,0.1-0.4,0.3c-0.2,0.2-0.3,0.4-0.5,0.6c-0.3,0.4-0.6,0.9-0.7,0.8
		c0.1-0.4,1.3-1.4,1.3-1.7c0-0.1-0.5,0.5-0.7,0.8l0.5-0.6l0.4-0.5c0.2-0.3,0.5-0.5,0.5-0.7s-0.1-0.3-1,0.3c0.7-0.6,1.4-1.1,2.1-1.5
		l0,0c-0.4,0.2-0.8,0.5-1.2,0.8c0.4-0.3,0.7-0.5,1.1-0.8h-0.3c-0.3,0.1-0.6,0.3-0.9,0.5c0.2-0.2,0.5-0.4,0.8-0.5
		c-0.3,0-0.5,0.1-0.8,0.2c-0.9,0.4-1.6,1-2.3,1.7c-1.6,1.9-2.5,4.3-2.6,6.8C36.8,175.9,37.6,178.5,39.2,180.5z"/>
	<path class="st6" d="M459.5,298.7c-0.1,0.1,0,0.3-0.2,0.1c-0.7-0.5-1-1.3-1.7-1.8l-0.2,0.1c-0.4-0.5-0.9-1.1-1.3-1.7
		c-1-0.9-1.9-1.9-2.8-2.9c0,0.1,0,0.1-0.2,0c-0.4-0.4-0.8-1-1.3-1.6l-0.2-0.2c-0.1,0-0.1,0-0.2,0c-0.2-0.3-0.4-0.5-0.6-0.8
		c-1.3-1.4-2.5-2.9-3.7-4.5c-0.3-0.4-0.5-0.8-0.8-1.2l-0.3-0.6c-0.1-0.2-0.2-0.5-0.3-0.6s-0.3-0.5-0.1-0.8c0.1-0.1,0.1-0.3,0.2-0.4
		c0.1-0.2,0.2-0.3,0.3-0.5c0.1-0.3,0.4-0.6,0.7-0.6h0.2h0.3h0.6c1.4,0,2.9,0.1,4.3,0.4c-0.1-0.6,3-0.4,2.5-1.1
		c0.7,0.2,1.5,0.3,2.2,0.3c0.3-0.4,1.1-0.9,3.5-0.5c0.9,0.2,2.2,0.8,2.6,0.8c0.5,0-1.1-0.7-0.5-0.7c-2.5-0.9-5.1-1.5-7.8-1.9
		c-1.3-0.2-2.6-0.4-4-0.4c-0.7,0-1.3-0.1-2-0.1h-1h-1.3c-0.8,0-1.5,0.3-2.1,0.7c-0.3,0.2-0.6,0.5-0.9,0.8c-0.2,0.2-0.4,0.4-0.6,0.7
		c-0.5,0.6-0.9,1.3-1.1,2c-0.2,0.7-0.1,1.5,0.1,2.2c0.1,0.3,0.2,0.6,0.3,0.9c0.1,0.3,0.2,0.6,0.4,0.9c0.3,0.7,0.8,1.5,1.3,2.4
		c1.2,1.9,2.5,3.8,4,5.5c2.5,3,5.2,5.9,8.1,8.7l0.3,0.2c1.7,1.6,3.5,3,5.5,4.2c0.8,0.4,1.7,0.8,2.5,1.1c-0.3-0.3-0.6-0.6-0.8-0.9
		c0.6,0.4,1.2,0.8,1.9,1.1c1.9,0.7,1-0.1,0.5-0.8c-0.4-0.4,0.4-0.3-0.2-0.8c0.5,0.3,0.7,0.4,1.2,0.7c0.1-0.1-1.6-0.7-1.1-0.8
		c0.5,0.3,1,0.5,1.5,0.7c0-0.1-0.5-0.3-0.9-0.5s-0.7-0.5-0.6-0.5c0.3,0.2,0.5,0.3,0.7,0.5c0.3,0.2,0.6,0.4,0.7,0.2s-0.4-0.3-0.7-0.4
		c0.5,0.3,1,0.4,1.6,0.4c0.2-0.1,0.1-0.2-0.4-0.5l0.7,0.3l0.3,0h0.1c0,0,0,0-0.1,0s-0.2,0-0.3-0.1c0.1,0,0.2,0,0.4,0
		c0,0,0-0.1,0-0.1l0,0h-0.1h-0.2h0.2c0-0.1-0.1-0.2-0.2-0.3c-0.4-0.2-0.9-0.7-1.1-0.9c-1.4-0.8-2.7-1.7-3.9-2.8
		C462,300.9,460.8,299.8,459.5,298.7z"/>
	<path class="st6" d="M120.7,188.3c0.1,0,0.3-0.9,0.2,0.6c-0.1,2.4-0.3,4.5-0.6,6.7c-0.1,0.9-0.2,1.8-0.2,2.8c0,0.5-0.1,1-0.1,1.6
		l-0.1,0.8v0.4v0.1c0,0,0.1,0,0.1,0h0.2l3.2,0.1h1.6h1l0.4-0.2c3.9,0.1,7.8,0,11.7-0.3c1.3-0.1,2.6-0.3,3.9-0.4l0.5-0.1h0.1h0.1v0.1
		l0,0v0.2l-0.3,3.5c-0.2,2.3-0.4,4.7-0.6,7c0.1-0.2,0.1-0.3,0.1,0.4c-0.1,1.5-0.3,3.3-0.5,5.2c-0.1,1-0.2,2-0.3,3
		c-0.1,0.5-0.1,0.9-0.1,1.4v0.2v0.1h-0.1c0,0-0.1,0.1-0.1,0.1h-5l-7.9,0.1l-5.5,0.1h-0.9c-0.1,0-0.3,0-0.4,0v0.4l0.1,1.8l0.2,3.1
		c0.2,5.3,0,10.6-0.6,15.8l-0.2,1.8v0.4c0,0.1,0,0.3-0.2,0.3l-0.4,0.1l-0.6,0.1l-2,0.2c-2.7,0.3-5.5,0.5-8.2,0.6s-5.6,0.3-8.4,0.4
		l-3.4,0.1h-0.4c0,0-0.1,0-0.1-0.1v-0.6l0.1-1.4c0.4-4.9,0.8-9.8,1.3-14.5c0.3-3,0.7-6.4,1.1-9.8l-2.3,0.3l-1.2,0.1l-0.6,0.1h-0.5
		c-1.2,0.1-2.4,0.2-3.5,0.2c-2.3,0.1-4.6,0.1-6.6,0.1c0.5,0.3-3.4,0.5-7,0.3l-2.6,0l-1.2-0.1c-0.3,0-0.2-0.2-0.2-0.3s0-0.3-0.1-0.4
		c-0.2-1.1-0.3-1.7-0.4-0.6c0-0.6,0-1.3,0-2s0-1.3,0-1.9c0-1.3,0.1-2.6,0.2-3.8c0.2-2.3,0.4-4.1,0.3-4.3c-0.3-1.4-0.3-2.9-0.1-4.3
		c0.1-0.6,0.1-1.4,0.2-2.2c0.1-0.4,0.1-0.8,0.2-1.3l0.1-0.4l0.1-0.6c0.1-0.4,0.2-0.8,0.3-1.2s0-1,0.6-1l1.4-0.3
		c1.1-0.3,1.5-0.4,2.2-0.5c1.3-0.3,2.7-0.5,4.2-0.7c2.7-0.3,5.5-0.4,8.2-0.2c2.7,0.1,5,0.5,5.9,0.6c1.3,0.1-0.2-0.2-1.8-0.5
		s-3.2-0.5-1.8-0.4c-2.8-0.3-5.7-0.3-8.5-0.1c-1.4,0.1-2.8,0.2-4.2,0.4c-0.7,0.1-1.4,0.2-2.1,0.3l-1,0.2l-0.8,0.1l-1,0.2l-1,0.2
		l-0.5,0.1l-0.2,0.1c-0.1,0,0,0.1-0.1,0.2l-0.5,2l-0.2,1l-0.1,0.6l-0.2,1c-0.3,1.4-0.5,2.7-0.8,4.1c-0.4,2.7-0.7,5.5-0.9,8.3
		c-0.1,1.4-0.1,2.8-0.1,4.1v1v1.9v2v0.8c0,0.1,0,0.2,0.1,0.2l1,0.1l2,0.2l1.8,0.2c0.7,0.1,1.4,0.1,2,0.2c1.4,0.1,2.8,0.2,4.1,0.2
		c2.8,0.1,5.5,0.1,8.3,0c1.4-0.1,2.8-0.2,4.1-0.3l0.8-0.1l0,0c-0.6,5.4-1.2,10.9-1.8,16.4c-0.2,1.9-0.4,3.8-0.6,5.7l-0.3,2.4
		l-0.1,1.2v0.3v0.1h0.8h4.6h2.8h2.5c1.7,0,3.4-0.1,5.1-0.1s4.3-0.2,8-0.6l2.9-0.2l2.2-0.2l1.5-0.1l0.8-0.1c0.2,0,0.1-0.2,0.2-0.3
		l0.1-0.4c0.2-1.1,0.3-2.1,0.5-3.2c0.1-0.6,0.2-1.2,0.2-1.8c0.2-1.2,0.3-2.5,0.4-3.8c0.2-2.6,0.4-5.4,0.4-8.2c0-1.4,0-2.9,0-4.4
		v-0.5v-0.2c0,0,0-0.1,0-0.1h0.1l19.4-0.1c1-10.7,1.9-21.4,2.8-31.3l-4.6,0.7l-1.1,0.2l-0.7,0.1l-1.2,0.1c-1.6,0.2-3.1,0.3-4.6,0.4
		c-3,0.2-5.8,0.3-8.4,0.3h-1.9h-0.5c0,0,0-0.1,0-0.1c0-0.1,0-0.1,0-0.2c0.2-2,0.3-3.8,0.4-5.2c0-0.6,0.1-1.3,0.1-1.9
		c0.5-6.4,1-13.4,1.5-20.1l-11.3-0.4l-8-0.2h-7l-2.8-0.1h-0.7c-0.2,0-0.6-0.1-0.4,0.2l0.1,1.4l0.3,4.5c0-0.5,0-1,0-1.5
		c0-0.8,0-1.5-0.1-2.3c0-0.4,0-0.7,0-1.1v-0.5V169c0,0,0-0.1,0-0.1l2,0.1h-1.3h-0.6h-0.1v0.2v0.3c0,0.9,0.1,1.7,0.1,2.5
		c0.1,1.2,0.1,2.4,0.2,3.5c0.1,1.9,0.1,3.5,0.2,4.3c0.2,4.8,0.2,5.9,0.4,5.2s0.4-2.9,0.6-4.8c0.1-2.7,0.5,0.9,0.6-3.3
		c0.1,3,0.1,4.6,0,7.6c0.1-1.4,0.1-2.9,0.1-4.3c0-2.1-0.1-4,0.1-3c0,2.9,0.1,6.2,0,9.2c0.2-1.9,0.3-3.7,0.2-5.6
		c-0.1-1.5,0-3,0.1-4.5c0.2,1.6-0.2,8.6,0,9.1c0.1,0.1,0.1-2.9,0.1-4.4c0,4.7-0.1,8.3,0,9.7s0.2,0.6,0.6-3.7
		c-0.1,3-0.5,7.2-0.8,10.3l0,0c0.2-1.6,0.4-4.3,0.5-5.7c-0.1,1.8-0.2,3.6-0.4,5.4c0.1-0.3,0.1-0.6,0.2-0.9c0.2-1.3,0.3-2.7,0.4-4.1
		l-0.3,3.6c0.2-0.9,0.3-1.9,0.5-3c0.5-4.2,0.8-8.3,0.8-10.6c0-1.6,0-3.2,0-4.8l-0.1-2.4l-0.1-2v-0.2h0.2l4.2,0.2l16.3,0.7
		C121.4,178.6,121.1,183.4,120.7,188.3z"/>
	<path class="st6" d="M41.4,288c0.1,0,0.2-0.1,0.2,0.1c0,0.8-0.4,1.4-0.3,2.1l0.2,0.1c-0.1,0.6-0.3,1.2-0.4,1.8
		c-0.1,1.2-0.2,2.3-0.2,3.5c0.1,0,0.1,0,0.1,0.1c0,0.3,0,0.6-0.1,0.8c0,0.1,0,0.3-0.1,0.5v0.1v0l0.1,0.1c0,0,0,0.1,0,0.1
		c0.1,0.1,0,0.2,0,0.2c-0.1,0.1-0.2,0.1-0.2,0.1l-2.5,0.5l-5.3,1.2c-0.8,0.2-1.5,0.5-2.3,0.7c-1.1,0.2-2.5,0.3-3.6,0.5
		c0.2,0.5-2.4,1.2-1.7,1.7c-0.7,0.1-1.8,0.2-1.8,0.4c-0.1,0.5-0.6,1.1-2.4,1.8c-0.7,0.2-1.9,0.2-2.1,0.3s1,0.2,0.6,0.4
		c5.5-0.8,10.8-1.7,16.4-2.4c0.5-0.1,1.6-0.3,3.1-0.5l1.2-0.2l1.7-0.2l2.6-0.3H45c0,0,0.1,0,0.2,0v-0.2l0.1-0.7l0.1-1.4
		c0.2-2.2,0.4-4.5,0.6-6.5c0.2-1.7,0.3-3.1,0.4-4v-0.3c0.2-1.9,0.3-3.7,0.3-5.6c-0.1-0.7-0.2-1.5-0.3-2.2c-0.1,0.3-0.2,0.6-0.4,0.9
		c0.1-0.6,0.1-1.2,0.1-1.7c-0.1-1.6-0.5-0.7-0.9-0.2c-0.2,0.4-0.4-0.2-0.7,0.5c0.1-0.5,0.1-0.7,0.1-1.2c-0.2-0.1-0.1,1.5-0.3,1.1
		c0.1-0.5,0.1-1,0.1-1.5c-0.2,0.1-0.2,1.7-0.4,1.6c0-0.3,0.4-1.3,0.2-1.5c-0.1,0-0.1,0.5-0.1,0.7c0.1-1.5-0.1-2.4-0.5-1
		c0.1-0.5,0.2-1.1,0.2-1.6l0,0c0,0.2-0.1,0.7-0.2,0.9l0.1-0.9c0,0-0.1,0.1-0.1,0.1c-0.1,0.2-0.1,0.4-0.1,0.6l0.1-0.6
		c-0.1,0.1-0.2,0.3-0.3,0.5c-0.2,0.5-0.4,1.1-0.6,1.6C42.1,282.1,41.7,285,41.4,288z"/>
</g>
</svg>
