<svg xmlns="http://www.w3.org/2000/svg" viewBox="0 0 500 500"><defs><style>.cls-1{fill:#eb6f00;}.cls-2{fill:#1d1d1d;}</style></defs><g id="OUTLINE_ikons" data-name="OUTLINE ikons"><circle class="cls-1" cx="346.56" cy="230.59" r="12.64"/><circle class="cls-1" cx="310.31" cy="217.95" r="12.64"/><circle class="cls-1" cx="337.25" cy="193.72" r="7.89"/><circle class="cls-1" cx="293.96" cy="193.72" r="7.89"/><circle class="cls-1" cx="293.96" cy="166.92" r="5.22"/><circle class="cls-1" cx="326.87" cy="177.36" r="5.22"/><path class="cls-2" d="M254.92,173.34c.21,0-.19-1.65.81.74a54.17,54.17,0,0,1,3,11c.3,1.82.51,3.65.77,5.52.09.94.17,1.89.26,2.86s.23,2,.26,3l.35.58a76.7,76.7,0,0,1-2,19.47,73.26,73.26,0,0,1-5.9,17.39,71.47,71.47,0,0,1-10.06,15.26c.29-.18.5-.19-.31.72a69.11,69.11,0,0,1-14.8,12.67c-.91.6-1.81,1.2-2.71,1.78a3.65,3.65,0,0,0-.88.84c-1.47.79-2.85,1.55-4.18,2.24l-3.91,1.78c-1,.48-2.09.88-3.13,1.33l-1.56.65c-.53.21-1.07.37-1.61.56l-3.22,1.11-3.28.89c-.55.14-1.1.31-1.65.44l-1.68.33c-1.11.21-2.22.49-3.35.65-2.26.29-4.52.67-6.81.74-9.14.67-18.75-.71-28.82-1.15a83.19,83.19,0,0,0-15.47.56,46.35,46.35,0,0,0-15.27,4.95,49.76,49.76,0,0,0-6.77,4.46,56.32,56.32,0,0,0-5.92,5.53,60.72,60.72,0,0,0-9.22,13.35,66.52,66.52,0,0,0-2.73,6.32c-.77,2.14-1.49,4.29-2.09,6.46a105.31,105.31,0,0,0-2.77,13,148,148,0,0,0-1.73,20.89c-.09,7.24.13,14.42.63,20.64.48-1,1.46,6.06,2.86,12.49s3.16,12.19,3.07,9.15a124.59,124.59,0,0,0,3.36,12.92,37.62,37.62,0,0,0,2.82,7.15c.81.68,2,2.41,4.38,6.13,1.19,1.86,2.74,4.19,4.84,7a53.24,53.24,0,0,0,8.69,9.13c.72.66,1.58,1.22,2.42,1.88s1.78,1.21,2.72,1.81,1.91,1.15,2.93,1.58l1.49.71,1.5.57a31.06,31.06,0,0,0,9,1.93c1.19,0,1.1-.08.37-.22l-3.13-.61c-1.18-.35-2.38-.61-3-.89s-.66-.36.35-.15a34.94,34.94,0,0,1-17.42-10.7c-4.79-5.21-8.4-11.7-11.25-18.52a118.92,118.92,0,0,1-6.34-21.56,181.05,181.05,0,0,1-3-22.62c-1-15.28-1.08-30.71,2.58-45.19a75.32,75.32,0,0,1,3.45-10.56,56.48,56.48,0,0,1,5.08-9.64,44.92,44.92,0,0,1,15.34-14.8,35.11,35.11,0,0,1,11.16-4.23,56.76,56.76,0,0,1,9.45-.92c3.56-.07,7.5.13,11.78.48s8.92.83,13.89,1.13c2.47.17,5,.24,7.7.24,1.32,0,2.67-.11,4-.16l2-.1,2-.23a79.44,79.44,0,0,0,16.46-3.51c2.75-.82,5.41-1.94,8.1-3l3.94-1.86c1.32-.6,2.56-1.37,3.85-2.06a86,86,0,0,0,14.36-10A89.65,89.65,0,0,0,253,250.93a84.62,84.62,0,0,0,8.74-14.48,84.73,84.73,0,0,0,7.58-42.67,86.32,86.32,0,0,0-3.78-19.51c-.32-1.17-.8-2.29-1.22-3.42-.88-2.59-2.1-5.13-3.27-7.73-1.35-2.52-2.69-5.11-4.27-7.56a139.69,139.69,0,0,0-10.25-13.79c-3.56-4.31-7.11-8.38-10.29-12.27a129.06,129.06,0,0,1-8.3-11.09,90.38,90.38,0,0,1-10.41-20.8c.9,3.54,1.87,6.79,2.88,9.56A117.32,117.32,0,0,1,214.64,89c-.23-1-.44-2-.62-2.84s-.3-1.61-.43-2.28c-.27-1.34-.43-2.34-.56-3-.27-1.38-.44-1.55-.53-1a52.44,52.44,0,0,0,.16,8.65c.28,2.41,0,2-.24,2s-.42.26.3,4c-.31-1.35-.58-2.52-.84-3.62s-.39-2.12-.58-3.14-.32-2.06-.49-3.17c-.07-.56-.16-1.14-.24-1.75s-.13-1.26-.19-1.95a7,7,0,0,0,.13,2.34c.22,1.49.46,3.51.87,5.4.19,1,.35,1.88.53,2.7l.46,2.07c.22,1.09.24,1.49-.11.58a106.32,106.32,0,0,1-2.61-16.67c-.21,1,.18,5.8.89,10.22.19,1.1.38,2.19.56,3.18s.41,1.89.55,2.65c.31,1.51.48,2.42.33,2.24-.23-.72-.5-2-.83-3.65s-.6-3.48-.88-5.3c-.49-3.65-.73-7.07-1.06-7.59a24.81,24.81,0,0,0,.19,3c.16,1.71.49,3.79.68,5.18a142.82,142.82,0,0,1-1.76-17.81c-.07-1.29-.18-1.55-.36-.49a21.4,21.4,0,0,0-.24,2.61c-.05,1.23-.15,2.82-.09,4.82,0-.69-.08-1.42-.09-2.18s0-1.53,0-2.34c0-1.6.1-3.28.18-5s.31-3.37.43-5,.41-3.2.59-4.66v.05a97.42,97.42,0,0,0-1.14,10.59,92.36,92.36,0,0,1,.94-9.93l-.45,1.7-.29,1.85c-.07.63-.13,1.25-.2,1.88-.13,1.25-.27,2.52-.3,3.83,0-1.11.12-2.21.22-3.32s.16-2.21.33-3.31c-.38,1.63-.69,3.52-1,5.61a87,87,0,0,0,.08,19.9,93.69,93.69,0,0,0,2.72,12.82,92.41,92.41,0,0,0,4.41,12.37,101.75,101.75,0,0,0,13.52,22.38c5.23,6.79,10.77,13,15.64,19.45a100.42,100.42,0,0,1,6.69,9.84c.49.84.92,1.7,1.38,2.55s1,1.69,1.34,2.58l1.2,2.66c.19.44.41.87.58,1.33Z"/><path class="cls-2" d="M201.06,340.87c.23-.07-1.41-2.21,1.44.85a106.25,106.25,0,0,0,13.86,12.7A79.92,79.92,0,0,0,232.53,364l1,.08a106.24,106.24,0,0,0,30.71,8.74,116.51,116.51,0,0,0,58.87-8.69c-.52.1-.79.1,1-.73A117.77,117.77,0,0,0,337,356.69c2.3-1.41,4.58-3,7-4.6a40.89,40.89,0,0,0,3.5-2.58l3.48-2.72a51.91,51.91,0,0,0,3.91-3.46,6.6,6.6,0,0,0,1.24-1.47l2.88-2.63,2.57-2.65c.83-.87,1.65-1.71,2.45-2.53.39-.41.79-.82,1.17-1.23s.73-.85,1.08-1.26a151.07,151.07,0,0,0,22.8-36.81,173.58,173.58,0,0,0,12-42.07c.31-1.82.46-3.66.7-5.5l.33-2.75c.11-.92.22-1.84.26-2.77.21-3.7.58-7.41.58-11.14A168,168,0,0,0,402,208a169.84,169.84,0,0,0-4-22.49,161.93,161.93,0,0,0-7.29-22.07l-2-4.53c-.69-1.5-1.47-3-2.21-4.44l-1.11-2.21c-.39-.72-.81-1.43-1.21-2.15l-2.44-4.27c-1.79-2.75-3.43-5.57-5.37-8.16-.95-1.31-1.83-2.66-2.82-3.92l-3-3.77A80.76,80.76,0,0,0,347.16,110a59.62,59.62,0,0,0-14.8-6,40.61,40.61,0,0,0-15-.92c.77.22-1.57.61-5.06,1.91a33.8,33.8,0,0,0-5.75,2.8,36.87,36.87,0,0,0-5.75,4.38c-3.53,3.29-6.52,6.8-8.46,8.93s-2.64,3.06-.76,1.79a38.3,38.3,0,0,1-8.2,6,21.84,21.84,0,0,1-2.47,1.1c-.85.3-1.73.54-2.59.76a19,19,0,0,1-5.15.41,21.52,21.52,0,0,1-8-2.13c-1.92-.94-3.07-1.69-3.33-1.74-1.43-.48-4.63-1.77-9.55-7a44.77,44.77,0,0,1-3.8-4.75,63,63,0,0,1-4.1-6.48A74.65,74.65,0,0,1,237,89.33a75.88,75.88,0,0,1-1.31-22.26c.09-.91.18-1.81.26-2.68s.26-1.72.38-2.54.22-1.61.38-2.36.3-1.47.45-2.16.26-1.32.4-1.91.3-1.14.43-1.64c.26-1,.46-1.81.58-2.39.43-1.69.3-1.58-.09-.55s-1,3.14-1.63,5.22-1,4.21-1.26,5.36-.35,1.29-.16-.57a80.91,80.91,0,0,0,2.69,36.86,78.09,78.09,0,0,0,7.57,16.93c.84,1.31,1.65,2.61,2.53,3.92s1.86,2.59,2.9,3.82a43.8,43.8,0,0,0,7,6.83,31,31,0,0,0,9.19,4.89,22.85,22.85,0,0,0,11,.72,26.22,26.22,0,0,0,9.86-4.1,53.55,53.55,0,0,0,7.37-6.06c4.32-4.14,8.05-8.2,12.09-10.81a26.33,26.33,0,0,1,13.58-4.24,38.81,38.81,0,0,1,14.86,2.61,62.17,62.17,0,0,1,14,7.46,73.32,73.32,0,0,1,12.06,10.68c.91,1,1.77,2,2.63,3.07l2.53,3.29,1.27,1.64,1.17,1.72,2.36,3.43a138.18,138.18,0,0,1,14.56,30.11,160.91,160.91,0,0,1,7.28,33.13,162.37,162.37,0,0,1-2.1,51.35,157.13,157.13,0,0,1-13.27,38.79c-.41.83-.79,1.67-1.22,2.49L376,301.82l-2.75,4.91-3.06,4.79c-.52.8-1,1.62-1.55,2.4l-1.7,2.32c-1.14,1.54-2.24,3.13-3.43,4.65l-3.72,4.47c-1.2,1.53-2.59,2.9-3.93,4.32l-2,2.12-1,1.06c-.34.35-.72.66-1.07,1l-4.34,4a25.45,25.45,0,0,1-2.25,1.88l-2.3,1.82c-3,2.54-6.36,4.57-9.56,6.8a99.76,99.76,0,0,1-20.86,9.9,108,108,0,0,1-43.17,5.47,96.63,96.63,0,0,1-35.45-9.56A81,81,0,0,1,212.58,339c-1.1-1.16-2.23-2.23-3.3-3.45-4.89-5.4-9.67-12-16.48-17.81a35.63,35.63,0,0,0-12.11-6.86c-1.15-.34-2.33-.62-3.53-.85l-1.82-.26c-.6-.08-1.22-.08-1.82-.12a28,28,0,0,0-7.17.65,31.61,31.61,0,0,0-6.62,2.22c-1.06.45-2,1-3,1.56s-1.93,1.16-2.82,1.83a39.33,39.33,0,0,0-9.19,9.15A56.38,56.38,0,0,0,136,345.87,123.91,123.91,0,0,0,133.8,364a119.88,119.88,0,0,0,.3,18.36,107.38,107.38,0,0,1,.55-15.48,106.91,106.91,0,0,0,.19,17.63,58.44,58.44,0,0,0,2.31,11.82,44,44,0,0,0,5.33,11.87c1.28,1.81,1.55,2,1.22,1.15s-1.27-2.61-2.14-4.87a46.26,46.26,0,0,1-2.26-7.42c-.82-3.51-.39-3-.16-2.89s.22-.33-.55-5.82a60.45,60.45,0,0,0,2.27,9.7,45.77,45.77,0,0,0,4.06,9.08,24.49,24.49,0,0,0-1.48-3,48.55,48.55,0,0,1-2.87-7.3A51,51,0,0,1,139,390c-.24-1.58-.27-2.14.11-.8a50.66,50.66,0,0,0,3.12,11.51,42.81,42.81,0,0,0,6,10.43c-.18-.29-.56-.85-1.05-1.64s-1.11-1.78-1.79-2.91a48.7,48.7,0,0,1-3.66-8.29c-2-6-2.57-11.9-2.29-11.31a67.11,67.11,0,0,0,2.83,12.48c1.65,4.91,4.32,9,5,9.42.13.09-.93-1.44-2.05-3.55a45.39,45.39,0,0,1-2.91-6.63,45,45,0,0,0,3.56,7.6A41,41,0,0,0,150,412,34.79,34.79,0,0,0,156.9,418c1.51.9,1.87,1,.75.07a47.89,47.89,0,0,1-7-6.91,39.5,39.5,0,0,0,9.46,8.13,47.88,47.88,0,0,0,12,5.22l-.05,0a55.37,55.37,0,0,1-6.84-2.6c-1.22-.51-2.34-1.17-3.41-1.71s-2-1.14-2.72-1.65a49.39,49.39,0,0,0,12.11,5.57c-.65-.3-1.4-.59-2.16-1a51.71,51.71,0,0,1-9-4.41,46.52,46.52,0,0,0,7.89,3.86,51.79,51.79,0,0,1-6.52-3.63,36,36,0,0,1-5.94-4.54,35,35,0,0,1-4.53-5.14,44.1,44.1,0,0,1-5.09-9.47,58.34,58.34,0,0,1-3.68-16.46,109.22,109.22,0,0,1,.07-17.53,121.79,121.79,0,0,1,2.47-17.42,50.78,50.78,0,0,1,6.06-15.51,31.4,31.4,0,0,1,4.92-6.18,28.68,28.68,0,0,1,6.28-4.61c4.52-2.44,9.6-3.51,14.21-2.43s9.07,3.94,13.08,7.88S196.93,336.13,201.06,340.87Z"/><path class="cls-1" d="M369.18,244.08c-13.17,6.06-14.59,12.07-29.58,14.8a12.24,12.24,0,0,1,.22,2.28,12.64,12.64,0,1,1-19.74-10.45c-7-6.65-16-14.37-33-13-13.76,1.11-20.45,7.19-30.84,25.23-6.19,10.75-8.79,19.07-34.21,23.64-18.27,3.27-29.46,13.05-20.29,25.1,12.69,16.68,28.33,31.27,58.95,36.95,34.5,6.39,55.81-3.58,65.13-9.23,23.86-14.47,42.84-44,48.32-67.54C374.6,269.94,385.16,236.72,369.18,244.08Zm-68.75,40.17a5.23,5.23,0,1,1,5.23-5.23A5.23,5.23,0,0,1,300.43,284.25ZM298,265.37a7.9,7.9,0,1,1,7.89-7.9A7.9,7.9,0,0,1,298,265.37Z"/></g></svg>