<svg xmlns="http://www.w3.org/2000/svg" viewBox="0 0 500 500"><defs><style>.cls-1{fill:#f9cdde;}.cls-2{fill:#1d1d1d;}</style></defs><g id="OUTLINE_ikons" data-name="OUTLINE ikons"><path class="cls-1" d="M164.87,228.11c51.38-15,49.33-36.4,70.68-60.36S295.12,146.36,322,164c43.76,28.75,77.31,141.59-20.52,216.26s-183.72,1.63-197.16-47.9C95.62,300.41,86.84,250.94,164.87,228.11Z"/><path class="cls-2" d="M164.79,148.88c0,.21,1.76-.45-.74.93-4,2.14-7.66,3.93-11.32,5.87a123.67,123.67,0,0,0-11.14,6.39l-.39.62c-6,3.74-12.27,7.7-18.31,12.26a202.26,202.26,0,0,0-30.13,28.64c.32-.2.51-.26-.34.83l-3,3.64-1.66,2-1.66,2.19-3.52,4.65c-1.17,1.62-2.29,3.34-3.46,5-.65,1-1.34,2-2,3.07a3.7,3.7,0,0,0-.47,1.28c-1.89,3.23-3.72,6-5.1,8.77C52.71,271.13,49.74,316,65.94,357.12l1.37,3.22L68,362c.24.53.51,1.05.76,1.57,1,2.09,2,4.18,3.09,6.24l3.36,6c1.13,2,2.41,3.85,3.57,5.76l1.33,2.16,1.46,2.14,3,4.45c2.17,2.93,4.26,6.05,6.63,9,1.17,1.46,2.26,3,3.49,4.38l3.58,4.18c1.17,1.37,2.44,2.62,3.61,3.88l1.76,1.86c.57.61,1.2,1.15,1.78,1.72-.16-.55,1.18.37,3.21,1.95,1,.82,2.24,1.71,3.56,2.67s2.69,2,4.11,3c5.63,3.85,11.18,6.66,8.88,4.53L128,429.2c1,.59,2,1.16,3.07,1.75l3.1,1.74,3.05,1.45a37,37,0,0,0,7.38,2.93,10.69,10.69,0,0,1,2.58.22c1.23.19,2.92.43,5.17.92s5.16,1,8.79,1.7c3.68.54,8.16,1.27,13.57,1.68l1.63.19.42.05.43,0,1,.07c1.3.12,2.62.26,4,.45a64.69,64.69,0,0,1,8,1.59,34.25,34.25,0,0,1,7,2.66c.51.29,1,.52,1.45.83l1.27.92a23.57,23.57,0,0,1,1.83,1.74c.82.92.82.79.41.13l-.17-.27-.36-.45c-.28-.33-.6-.69-1-1.07a18.19,18.19,0,0,0-2.32-1.83,24.84,24.84,0,0,0-2.28-1.31c-.69-.35-1.29-.65-1.7-.82-.81-.38-.9-.5.48-.09a45,45,0,0,0-6.68-2c-2.19-.49-4.35-.84-6.51-1.12-1.08-.14-2.16-.26-3.25-.36l-1.59-.14-1.45-.18-5.77-.73A118,118,0,0,1,147,434a98.33,98.33,0,0,1-20.54-10.58,122,122,0,0,1-18-14.72,163,163,0,0,1-15.3-17.87c-1.16-1.6-2.35-3.18-3.49-4.8l-3.33-4.94c-.57-.82-1.09-1.66-1.58-2.5l-1.53-2.51-1.53-2.51c-.49-.85-.92-1.73-1.39-2.59A129.81,129.81,0,0,1,71,349.27L70,346.45c-.3-.95-.63-1.89-.86-2.85l-1.53-5.77c-.49-1.93-.83-3.9-1.25-5.85-.2-1-.43-2-.59-2.94l-.44-3c-.12-.68-.25-1.47-.41-2.38s-.34-1.92-.44-3.06l-.39-3.73c-.13-1.35-.35-2.79-.38-4.34-.14-3.09-.39-6.56-.27-10.35-.05-3.8.29-7.9.62-12.25A133.72,133.72,0,0,1,70,261.74a143.51,143.51,0,0,1,13.5-29.43,166,166,0,0,1,20-26.65,200.45,200.45,0,0,1,23-21.42A217.69,217.69,0,0,1,148.41,169l4.8-2.89,4.45-2.48c2.8-1.57,5.32-2.89,7.48-4l3.13-1.63c9.46-4.82,20.33-10.13,30-17.2a77,77,0,0,0,13-11.81A64.79,64.79,0,0,0,220,115.76a81.32,81.32,0,0,0,7-25.21c-.36,2-.92,3.84-1.36,5.62s-1.06,3.43-1.54,5a90.75,90.75,0,0,0,3.36-20.55c.4-9.24-.06-11.22-.33-10-.15.59-.34,2-.59,3.64l-.38,2.66c-.15.91-.32,1.84-.48,2.7-.36,2.51-.54,2-.75,1.94s-.43.15-1.05,4l.43-3.77c.08-1.15.17-2.21.25-3.27s.15-2.12.19-3.27.13-2.39.15-3.81a11,11,0,0,0-.2,2.38c-.06,1.55-.13,3.62-.29,5.59-.08,1-.13,2-.22,2.8s-.2,1.59-.27,2.16c-.16,1.12-.27,1.5-.29.51a130.66,130.66,0,0,0,.9-17.15,29.29,29.29,0,0,0-.27,3.87c-.12,1.91-.2,4.26-.38,6.52-.1,1.13-.19,2.23-.28,3.25s-.23,1.94-.33,2.71c-.21,1.54-.38,2.46-.47,2.23.06-.76.24-2.11.46-3.73s.38-3.54.58-5.39.23-3.65.28-5a10.32,10.32,0,0,0-.17-2.68,25.26,25.26,0,0,0-.15,3c-.11,1.73-.16,3.85-.27,5.25a122.52,122.52,0,0,0-.28-18c-.14-1.29-.28-1.54-.38-.47s-.17,3.44-.3,7.38c0-5.47-.06-13.25-.49-19.09v.05c.15,2.91.28,7.93.36,10.61q-.16-4.95-.44-9.92c0,.53-.08,1.12-.13,1.75.07,2.47.15,4.94.22,7.52-.09-2.19-.16-4.37-.28-6.58-.07,1.66-.18,3.55-.25,5.62,0,7.82-.63,15.19-.89,19.32a120.54,120.54,0,0,1-1.32,12.37,87.76,87.76,0,0,1-2.7,12c-.65,1.92-1.23,3.86-2,5.7-.4.92-.7,1.88-1.17,2.76l-1.32,2.69a56.16,56.16,0,0,1-6.55,9.89,64.59,64.59,0,0,1-8.51,8.43,100.47,100.47,0,0,1-10,7.12C180.05,141.16,172.47,145,164.79,148.88Z"/><path class="cls-2" d="M309.52,199.67c.1,0-1.36-1,1,.29a53.18,53.18,0,0,1,9.47,7.19,77,77,0,0,1,8,8.84l.49.4a56.05,56.05,0,0,1,8.86,18.18A49,49,0,0,1,339,243.9a38.44,38.44,0,0,1-.73,9.33c-.6,3.14-1.47,6.28-2.4,9.43a88.4,88.4,0,0,1-3.13,9.18c.18-.28.29-.41-.18.77a37.92,37.92,0,0,1-4.48,7.9,44.85,44.85,0,0,1-7.76,7.59l-2.69,2.19a6,6,0,0,0-.93.91,64.67,64.67,0,0,0-7.47,6.71A57.55,57.55,0,0,0,301,310.65c-2.22,4.42-4.17,8.89-6.54,13a58,58,0,0,1-8.6,11.44,72.85,72.85,0,0,1-11.22,9.33c-8.14,5.58-17.28,9.92-26.77,13.85-2.37,1-4.77,1.94-7.19,2.88L233.39,364l-14.85,5.63a125.13,125.13,0,0,1-12.7,4.33A39.52,39.52,0,0,1,193,375.38a34.67,34.67,0,0,1-25.81-15.62,35.26,35.26,0,0,1-4.11-8.89c0,.49-.62-.92-1.23-3.33a37.48,37.48,0,0,1-1.1-9.16c-.07-6.69,2.11-12.65.81-9.78a48.13,48.13,0,0,1,2.46-6.46c1-2.17,2-4.31,2.84-6.26a21.22,21.22,0,0,0,2-7.42c0-.24-.06-.54-.1-.93s-.1-.85-.19-1.4a12.58,12.58,0,0,0-1.6-4.36,15.92,15.92,0,0,0-2.25-2.8c-1-1-2.21-2.06-3.64-3.34a27.46,27.46,0,0,1-4.56-4.93,21.26,21.26,0,0,1-3.17-7.78,22.45,22.45,0,0,1-.14-7.83,25,25,0,0,1,2.54-7.79,22.38,22.38,0,0,1,4.29-5.68,28.19,28.19,0,0,1,3.53-2.73c1-.65.91-.63.24-.29-.32.15-.86.52-1.45.88l-.94.61-.92.75c-2.49,2-4.24,4.73-2.73,2.44a24.59,24.59,0,0,0-5.11,12.39,23.62,23.62,0,0,0,2.1,13.23,20.12,20.12,0,0,0,1.8,2.94,20.73,20.73,0,0,0,2.16,2.59c1.51,1.55,3.05,2.88,4.36,4.2a15,15,0,0,1,3.09,4.06,9.85,9.85,0,0,1,.9,4.59c-.11,3.3-1.6,6.83-3.23,10.38-.82,1.79-1.69,3.6-2.5,5.52-.42.95-.77,2-1.14,3s-.67,2-.9,3.06a42,42,0,0,0,1.3,25.08,39.83,39.83,0,0,0,2.75,5.79,37.28,37.28,0,0,0,3.73,5.23,38.56,38.56,0,0,0,9.75,8.25,37.57,37.57,0,0,0,12,4.59,36.65,36.65,0,0,0,12.83.17,73.35,73.35,0,0,0,12.09-3.1c3.89-1.3,7.64-2.74,11.45-4.14l11.42-4.22c3.81-1.4,7.64-2.82,11.46-4.35,2.58-1.07,7.05-2.87,12.83-5.61,2.88-1.39,6.1-3,9.5-5a93.09,93.09,0,0,0,10.68-7A71.25,71.25,0,0,0,291.66,335a65.29,65.29,0,0,0,8.71-13.21c2.46-4.77,4.62-9.72,7.35-14.27a41.47,41.47,0,0,1,4.61-6.4,51.75,51.75,0,0,1,5.9-5.49c4.25-3.5,9.08-6.91,12.87-11.67s6.08-10.26,7.88-15.6c.89-2.68,1.67-5.32,2.41-8a74.46,74.46,0,0,0,1.82-8.09,40.77,40.77,0,0,0,.52-8.25c0-1.39-.25-2.69-.38-4s-.43-2.6-.69-3.87a60.75,60.75,0,0,0-12.27-24.75A69.45,69.45,0,0,0,315.9,198c-1-.72-2-1.31-3.06-2A66.35,66.35,0,0,0,280,186.65a44.13,44.13,0,0,0-8.73.82,38.8,38.8,0,0,0-8,2.72,78.22,78.22,0,0,0-12.81,7.75,46.72,46.72,0,0,0-9.37,8.72,24.94,24.94,0,0,0-3.4,5.69,21.57,21.57,0,0,0-1.62,6.48,22,22,0,0,1,4.22-10.24,23.14,23.14,0,0,0-3,5.86,21.61,21.61,0,0,0-1.08,6,35,35,0,0,0,.71,8.31c.87,4.46,1.58,7.06,1.9,8.47s.44,1.58.41,1c0-1.16-.8-5.34-1.24-8.78-.35-2.46-.14-2,0-2s.08-.2-.12-4a49.87,49.87,0,0,0,.92,6.88l1.4,6.86c.17.3-.78-3.92-1.52-7.74s-.82-7.29-.6-5.38c.3,5.34,2.19,11.11,2.92,16.72a27,27,0,0,0-.52-3.83c-.37-1.86-.83-4.15-1.27-6.35a58,58,0,0,1-.85-5.82,7.9,7.9,0,0,1,0-2.21,57,57,0,0,0,1.12,8.91c.71,3.6,1.39,7,1.58,7.54,0,.1-.16-1.26-.5-2.95s-.77-3.74-1.05-5.11a111.72,111.72,0,0,1,2.1,11.09,36.77,36.77,0,0,1,.11,6.86c-.12,1.33-.1,1.61.12.52a27.88,27.88,0,0,0,.29-7.64,30.47,30.47,0,0,1-.52,9.78,18.33,18.33,0,0,1-2,5,15.69,15.69,0,0,1-3.22,3.93l0,0a15.61,15.61,0,0,0,3.63-4.6,19,19,0,0,0,1.77-5.29,19.63,19.63,0,0,1-1.62,5,15.22,15.22,0,0,1-3.19,4.37,11.18,11.18,0,0,0,1.38-1.32,17.09,17.09,0,0,0,3.45-7.37,17.82,17.82,0,0,1-2.78,6.57,17,17,0,0,0,2.77-5.49,31.74,31.74,0,0,0,.82-11.7c-.37-3.54-1-6.37-1.41-8.42a45.59,45.59,0,0,1-1.32-12,18.57,18.57,0,0,1,4-10.39,40.69,40.69,0,0,1,8.83-8.06,85.76,85.76,0,0,1,10.51-6.46,33.91,33.91,0,0,1,11.26-3.6,48.55,48.55,0,0,1,12,.13A64,64,0,0,1,309.52,199.67Z"/><path class="cls-2" d="M167.09,280.56c.1,0,.19-.33.25.21a27.17,27.17,0,0,0,.28,4.76l.19.1a23,23,0,0,0,.84,4.07,22.35,22.35,0,0,0,1.71,3.6,21,21,0,0,0,2.39,3.2c0-.09,0-.15.2,0,.76.79,1.77,1.87,2.9,2.84l.52.4c.15.07.22.06.27,0l1.37,1.13c2.89,2,5.76,3.73,8,6.09a29.47,29.47,0,0,1,6.49,13.3,33.33,33.33,0,0,1,.19,7.26c.3-.15.45,1.12.55,2.31s.17,2.3.53,1.8a28.83,28.83,0,0,0-.45,3.84c.41.42.8,1.68.24,5.64-.27,1.54-1,3.81-1,4.36,0,.87.79-1.87.75-1a85.24,85.24,0,0,0,2.87-17.21,36.6,36.6,0,0,0-3.47-17.84,29,29,0,0,0-4.23-5.82,36.19,36.19,0,0,0-4.19-3.65c-1.53-1.17-3.15-2.3-4.63-3.48a23.08,23.08,0,0,1-3.92-3.76,16.55,16.55,0,0,1-2.42-4.28,20.77,20.77,0,0,1-1.35-7.21l0-.57a31.07,31.07,0,0,1,.48-5.42c.29-1.77.82-3.66,1-5.41a11.87,11.87,0,0,0-.52-5.11,8,8,0,0,1,0,2.23,8,8,0,0,0-.39-2.46,4.89,4.89,0,0,0-.8-1.51,4.77,4.77,0,0,0-1.28-1.29c-.27-.16-.34-.13-.31,0a13.39,13.39,0,0,1,.71,1.64c.31.85-.47,0,0,1.22a5.46,5.46,0,0,0-1.31-1.94c-.09,0,.45.5.8,1.05s.57,1.1.32.85a5,5,0,0,0-1.71-2.12c.06.17.63.68,1,1.28s.61,1.22.48,1.19a8.78,8.78,0,0,0-.61-1.27c-.3-.5-.7-.87-.85-.82s.57.59.79,1a3.16,3.16,0,0,0-2.11-1.38q-.27,0-.12.15c.1.11.34.25.7.59a2.27,2.27,0,0,0-1.95-.51h0a2,2,0,0,1,1.07.08,1.86,1.86,0,0,0-1,0l.19.08a3.38,3.38,0,0,1,.69.1,1.75,1.75,0,0,0-.6-.05,3.3,3.3,0,0,1,.47.27,4.06,4.06,0,0,1,1.34,1.43,4,4,0,0,1,.61,1.24,5.55,5.55,0,0,1,.16,1.51,17,17,0,0,1-.68,3.83,43.22,43.22,0,0,0-1,4.62A31.41,31.41,0,0,0,167.09,280.56Z"/><path class="cls-2" d="M238.8,284.25c.09-.06-.07-.37.33,0a15,15,0,0,0,3.47,2.9l.18-.09a25.81,25.81,0,0,0,3.2,1.72,50.12,50.12,0,0,0,6.18,1.68c0-.07,0-.13.15-.1.85.16,2,.5,3.22.77l.55.08a.31.31,0,0,0,.22-.08l1.5.32a52.12,52.12,0,0,0,9.39.37,34.56,34.56,0,0,0,9.7-1.92,33.31,33.31,0,0,0,3.82-1.94,29.46,29.46,0,0,0,5.49-3.69c-.3-.12.4-1,.93-1.93s.92-1.77.41-1.59a16.43,16.43,0,0,0,1.2-1.64,2.61,2.61,0,0,0,.48-1.08,2.35,2.35,0,0,1-.15-1.32c.05-.69.29-1.68.48-3.15.14-.57.22-1.29.35-1.92a8.45,8.45,0,0,0,.06-1.38c-.14-.64-.4,1.48-.54.83-.22,4.12-2.55,8-5.77,10.85a21.37,21.37,0,0,1-5.47,3.56,24.38,24.38,0,0,1-6.46,1.79,24.74,24.74,0,0,1-5.24.47,49.2,49.2,0,0,1-9.08-.93c-1.65-.32-3.31-.69-4.92-1.1s-3.13-.82-4.46-1.29a13.61,13.61,0,0,1-5.22-3l-.28-.3a7,7,0,0,1-1.67-3.41,30,30,0,0,1-.42-4.27c-.11-1.22-.2-2.53-.42-3.88a15.2,15.2,0,0,1-.27,1.68,11.68,11.68,0,0,0-.21-3.23,5.05,5.05,0,0,0-.44-1.4c-.13-.22-.21-.23-.26-.12s-.1.94-.24,1.49c-.07.78-.43-.2-.51,1a9,9,0,0,0-.1-1,6.94,6.94,0,0,0-.19-1c-.09,0,.1.58.17,1.16s.09,1.11-.05.83a9.29,9.29,0,0,0-.45-2.45,8.09,8.09,0,0,0,.16,1.49c.09.64.07,1.26,0,1.2,0-.22,0-.8,0-1.33s-.16-1-.3-1.05.15.74.17,1.15a4.67,4.67,0,0,0-.91-2.26c-.29-.22-.22,0,0,1a5.41,5.41,0,0,0-1.05-2.05h0a6.81,6.81,0,0,1,.65,1.09,5.41,5.41,0,0,0-.64-1l0,.24a6.22,6.22,0,0,1,.43.76,2.5,2.5,0,0,0-.41-.64c0,.2.12.41.15.66a10.28,10.28,0,0,1,.31,2.24c.3,2.07-.06,4.63-.05,7.43a16.66,16.66,0,0,0,.55,4.52A11.15,11.15,0,0,0,238.8,284.25Z"/><path class="cls-2" d="M241.74,302.07c0,.09.16.27-.23.17-1.2-.36-2-1-3.16-1.43l-.15.12c-.84-.45-1.71-.92-2.52-1.42a17.45,17.45,0,0,1-4.15-2.68c0,.07,0,.12-.16,0A6.74,6.74,0,0,1,230,295l-.2-.33a.21.21,0,0,0-.18-.08,7.28,7.28,0,0,1-.37-1.08,32.48,32.48,0,0,1-1.15-3.79,34.88,34.88,0,0,0-5.92-12.33c-.87-1-1.8-2-2.66-2.94a46.84,46.84,0,0,0-4.32-4.36c-.08.29-1-.15-1.76-.74s-1.19-1.54-1.34-1a5.06,5.06,0,0,1-.14-2.25,9,9,0,0,0,.24-1.27,1.75,1.75,0,0,1,0-1.51,6.62,6.62,0,0,1,2.58-3.17,28.08,28.08,0,0,1,3.57-1.65c.6-.42-1.67.32-1.08-.1a17.57,17.57,0,0,0-3.58,1.86,8.83,8.83,0,0,0-3.09,3.62,6.64,6.64,0,0,0,1.17,7.63,15.62,15.62,0,0,0,1.5,1.37,30.51,30.51,0,0,1,7.87,9.94,24.88,24.88,0,0,1,1.95,4.49,35.78,35.78,0,0,1,1,3.84,25.06,25.06,0,0,0,1.42,5,13.16,13.16,0,0,0,3.47,4.63,21.65,21.65,0,0,0,4.21,2.8c2.73,1.39,5,2.22,6.25,2.78l.48.18c2.84,1.12,6.21,2.33,8.53,3.16,1.08.33,2.17.7,3.24,1.1l-1.14-.93c1,.54,2,1.13,2.46,1.28,2.21,1.11,1.21.13.59-.73-.52-.51.44-.25-.43-1,.69.4,1,.62,1.71,1.08.08,0-.45-.37-.93-.67s-.93-.54-.62-.51c.65.44,1.43.84,2.11,1.3a4.73,4.73,0,0,0-1.18-1c-.55-.35-1.07-.67-1-.74.43.17,1.81,1.46,2.09,1.33a6.05,6.05,0,0,0-1-.72,23.83,23.83,0,0,0,2.32,1.3c.38.14.28-.1-.6-.92.33.24.72.55,1.11.88s.75.68,1.1.94h0c-.33-.28-.88-.8-1.19-1.06l1.15,1c0-.08-.08-.17-.13-.25-.27-.27-.54-.53-.84-.78l.76.64a7.4,7.4,0,0,0-.5-.73,15.6,15.6,0,0,0-2.19-2.08C251,305.54,246.19,303.81,241.74,302.07Z"/><path class="cls-2" d="M224.9,266c.07-.07.1-.19.21-.13.34.23.27.69.59.93l.15-.08c.13.27.27.57.4.87l1.14,1.33s.08-.08.13,0a4.05,4.05,0,0,1,.51.78l.11.11a.21.21,0,0,0,.14,0c.08.14.15.27.2.38a44.88,44.88,0,0,1,3.63,4.16,7.54,7.54,0,0,1,.86.94,13.41,13.41,0,0,1,.7,1.78c.5-.3,1.28.93,1.72.46.14.37.31.94.48.91a1.7,1.7,0,0,1,1.74,1c.19.39.18,1.07.32,1.19s.17-.62.39-.44a36,36,0,0,0-3.6-8.74c-.37-.42-1.45-2.23-2.73-4s-2.72-3.58-3.29-4.34l-.12-.12a10.21,10.21,0,0,0-2.3-2.14c-.38-.18-.78-.34-1.18-.5a4.85,4.85,0,0,1,.17.55c-.28-.29-.56-.58-.75-.61-.8-.39-.63.15-.66.65,0,.29-.35.26-.22.64-.17-.19-.27-.27-.46-.45-.13.1.65.47.33.55-.13-.22-.41-.33-.59-.51-.09.22.6.66.41.8-.12-.07-.32-.71-.54-.54,0,0,.14.21.23.3-.64-.47-1.13-.56-.8.14a5.78,5.78,0,0,0-.58-.64h0c.09.09.22.28.31.37l-.32-.31,0,.14a1.78,1.78,0,0,0,.21.27l-.21-.21a2.17,2.17,0,0,0,0,.36,4.18,4.18,0,0,0,.34.9Q223.46,264.33,224.9,266Z"/><path class="cls-2" d="M199.23,305.83c-.07-.07-.24,0-.13-.22.37-.58,1-.74,1.39-1.28l-.08-.15c.43-.32.87-.63,1.34-.94.74-.7,1.52-1.36,2.3-2-.05,0-.1-.07,0-.15a12.82,12.82,0,0,1,1.36-.9l.21-.16a.18.18,0,0,0,0-.16c.24-.15.46-.26.66-.37a39.85,39.85,0,0,1,8.32-4.82,15,15,0,0,1,2-.94,24.56,24.56,0,0,1,3.35-.68c-.28-.55,2.17-1.25,1.59-1.74.69-.1,1.73-.21,1.77-.38.1-.51.56-1.15,2.43-1.62.73-.14,1.88,0,2.13-.12.4-.19-1-.28-.58-.46A52.17,52.17,0,0,0,211,292a59.34,59.34,0,0,0-7.69,4,41.22,41.22,0,0,0-7.5,6.29l-.2.24a17.86,17.86,0,0,0-3.16,4.75,20,20,0,0,0-.63,2.13c.24-.25.45-.49.66-.68a6.13,6.13,0,0,0-.69,1.59c-.38,1.52.23.81.81.45.33-.31.33.3.77-.19-.22.4-.29.62-.48,1,.12.11.48-1.32.6-.92A8.89,8.89,0,0,0,193,312c.26-.06.69-1.4.87-1.24-.07.23-.78,1-.56,1.22,0,0,.22-.37.31-.57-.48,1.29-.44,2.08.25,1-.16.39-.46.92-.59,1.35h0c.09-.21.27-.55.34-.74l-.27.71.15-.09a3.6,3.6,0,0,0,.26-.52l-.18.47a3.59,3.59,0,0,0,.38-.32,15,15,0,0,0,.95-1.19A29.31,29.31,0,0,1,199.23,305.83Z"/><path class="cls-2" d="M216.16,278.27c0,.09.08.26-.2.18-.86-.28-1.38-.88-2.24-1.14l-.13.12c-.62-.33-1.31-.71-2-1.05a18.29,18.29,0,0,0-4.47-.93c0,.06.05.11-.11.12a17.36,17.36,0,0,0-2.6,0l-.44.1a.21.21,0,0,0-.14.15c-.44.07-.84.19-1.21.27a11.91,11.91,0,0,0-4.07,2.86c-.28.28-.52.56-.78.84l-.78.87a16.4,16.4,0,0,0-1.06,1.26,3,3,0,0,0-.56,1.53,3,3,0,0,0,.91,2.17,8.29,8.29,0,0,0,1,.88l.75.58c.78.5,1.56,1,2.28,1.49,1,.79,2.25,1.91,3.25,2.69.19-.56,2.82,1,2.67.18.66.5,1.68,1.22,1.83,1.12.43-.3,1.26-.39,3.25.52.75.39,1.76,1.23,2.06,1.3.49.11-.76-.86-.28-.75-2.63-1.68-5.18-3.4-7.63-5.24q-1.84-1.38-3.62-2.87c-.59-.5-1.18-1-1.76-1.53l-.2-.19h0l0,0h-.05l0,0s0,0,.05-.11l.09-.11.13-.14.2-.2.86-.84a7.16,7.16,0,0,1,4-2.21,11.37,11.37,0,0,1,5,.78c1.55.58,3,1.23,3.76,1.62l.31.13c1.86.87,4.09,1.91,5.71,2.55l2.31.77-.75-.76a9.8,9.8,0,0,0,1.73.92c1.62.71.94-.05.56-.74-.34-.4.37-.29-.2-.84l1.18.75c.15-.11-1.51-.83-1-.85.43.33,1,.56,1.47.87,0-.3-1.62-1.1-1.43-1.23.29.11,1.19,1.07,1.43.9.05,0-.43-.34-.67-.49,1.52.84,2.47,1.17,1.29.05.46.3,1.06.83,1.56,1.13h0c-.24-.17-.63-.5-.85-.66l.83.57-.09-.19c-.19-.16-.38-.33-.59-.48l.55.38a5.7,5.7,0,0,0-.34-.52,12.21,12.21,0,0,0-1.44-1.45A66.33,66.33,0,0,0,216.16,278.27Z"/><path class="cls-2" d="M401.39,166.17c.19.07.57-1,.38.72-.7,5.33-2,9.5-2.66,14.86l.27.43c-.72,4.12-1.55,8.39-2.23,12.79-1,8.13-1.73,16.28-2.23,24.4.14-.2.25-.29.24.52-.06,1.69-.2,3.71-.36,5.9s-.26,4.59-.38,7c0,.72,0,1.44,0,2.14a1.37,1.37,0,0,0,.23.8c-.06,2.19-.11,4.15-.16,6a316.67,316.67,0,0,0,10,73.38l2.36,7.92c.74,2.63,1.58,5.2,2.36,7.74.56,1.89,1.13,3.91,1.7,6s1.27,4.2,1.91,6.33,1.25,4.27,1.9,6.31,1.33,4,1.93,5.8c.38-.75,2.12,3.28,4,6.91s3.53,7,3.43,5c1.68,4.79,4.62,11.82,5,12.07.67.36,1.64,1.34,3.13,3.75a123.27,123.27,0,0,1,6.62,12.21c2.32,4.72,5.37,12.2,6.33,13.8,1.52,2.5-2.26-6.47-.74-4a574.74,574.74,0,0,1-21.73-53.4c-3.17-9-5.86-18.16-8.39-27.41-.58-2.33-1.15-4.66-1.73-7l-.86-3.5-.75-3.54q-.75-3.54-1.49-7.1c-.43-2.38-.85-4.77-1.28-7.17-.16-.81-.42-1.91-.65-3.28s-.48-3-.78-4.86c-.65-3.71-1.17-8.35-1.8-13.62a305.7,305.7,0,0,1-1.5-37.18c.48-27,5.06-55.05,7.05-66.49l.33-2.08c2.14-12.5,4.84-27.71,6.28-38.42.58-4.93,1.14-9.94,1.64-14.94-.57,2.27-1.11,4.36-1.62,6.17.89-5,1.74-10.05,1.86-12,1.22-10.81-.31-4.81-1.74-.82-.83,2.91-.68-1.18-1.8,3.4.55-3.34.83-5,1.39-8.37-.24-.43-1.49,10.34-1.65,7.93.68-3.2,1-6.84,1.58-10.18-.61,1.09-2,11.56-2.38,11,.22-1.81,2.11-9.3,1.67-10-.09-.15-.63,3.2-.91,4.87,1.5-10.33,1.77-16.08-.22-6.77.53-3.26,1.42-7.84,1.87-11.3l0,0-1.06,6.26.9-5.87c-.12.29-.25.63-.38,1-.28,1.45-.55,2.91-.79,4.44l.6-3.9c-.32,1-.66,2-1,3.25-1,4.58-2.25,8.93-2.65,11.42C408.91,125.64,404.83,145.84,401.39,166.17Z"/></g></svg>