<?xml version="1.0" encoding="utf-8"?>
<!-- Generator: Adobe Illustrator 25.4.1, SVG Export Plug-In . SVG Version: 6.00 Build 0)  -->
<svg version="1.1" id="Lager_1" xmlns="http://www.w3.org/2000/svg" xmlns:xlink="http://www.w3.org/1999/xlink" x="0px" y="0px"
	 viewBox="0 0 500 500" style="enable-background:new 0 0 500 500;" xml:space="preserve">
<style type="text/css">
	.st0{fill:#B8E1F0;}
	.st1{fill:#F9CDDE;}
	.st2{fill:#CC0066;}
	.st3{fill:#1595BF;}
	.st4{fill:#1D1D1D;}
</style>
<g id="OUTLINE_ikons">
	<path class="st0" d="M335.6,364.3c-2.6-11.5,1.6-24.5-3.8-34.9c-2.5-4.9-6.8-8.4-9.5-13.2c-7.2-12.7-0.8-29.2-3.6-43.8
		c-2-10.8-9.1-20.2-9.8-31.2c-0.7-11.2,5.3-22.5,2.5-33.4c-1.8-7.1-7.2-12.9-7.9-20.1c-0.7-8.6,5.3-16,10.5-22.7
		c10.7-13.9,19.1-29.6,24.7-46.2c5.5-16.4,8.3-35.4,0.3-50.7c-7.6-14.5-28-21.4-39.6-11c-1.1,1-2,2.2-2.7,3.5v0.1
		c-14.4,18-22.6,40.7-31.5,62.3c-4.1,10-8.3,20.9-5.7,31.4c2.9,11.7,13.9,22,10.8,33.6c-1.4,5.4-5.7,9.3-8.1,14.3
		c-2.6,5.3-3,11.5-3.4,17.4c-1.2,19.8-2.5,40.1,2.5,59.2c2.6,10.2,7,20,8.5,30.5c1.9,13.6-1.2,28,3.6,40.7c2.7,7.1,7.6,13,10.3,20
		s3,14.9,3.8,22.5c1.6,14.7,5.6,29,11.7,42.5c1.8,3.9,3.8,7.8,7,10.3c6.3,4.9,15,3.4,22.6,1.3c15-4.2,32-13.2,33.3-29.6
		C363.7,396.9,340.1,384.1,335.6,364.3z"/>
	<path class="st1" d="M208.1,250.5c-0.4-16.1-1-33.1-7.9-46.9c-3.6-7.3-9.1-14-9.7-22.5c-0.4-5.7,1.4-11.3,2.8-16.8
		c6.6-25.9,4.7-53.7,2.7-80.7c-0.5-6.4-1-13.1-3.8-18.5c-2.2-4.1-5.5-7.5-9.5-9.8c-14.1-8.5-32.8-3.3-42.5,11.7l0,0
		c-1.9,3.7-2.9,7.8-3,11.9c-0.4,26,2.5,49.8,8.4,75.3c1.2,5.1,2.6,10.3,5.3,14.4s6.9,7.1,9.5,11.6c5.1,8.8,2.8,21-1.4,30.5
		s-10.1,18-12.4,28.3c-3,13.9,1.1,28.5,0.6,42.9c-0.4,11.3-3.5,22.4-2.9,33.7c0.4,8.4,2.9,16.3,4.3,24.5c2.5,14.6,1.4,29.7,1.4,44.6
		s1,30.5,7.2,43.4s18.7,22.4,30.8,19.1c10.2-2.8,17.7-13.9,20.9-25.9s2.9-24.9,2.6-37.5C210.3,339.5,209.2,295,208.1,250.5z"/>
	<path class="st2" d="M137.6,103.6c6.1-4.4,13.5-6.7,21.1-6.6c12.4,0.4,18.2,0.3,24.7,0s15.7,3.3,15.7,3.3l0.6,13.8
		c-6.1,0.9-12.4,0.9-18.5,0c-9.1-1.5-12-3-19.6,0.7s-20.4,4.4-22.4,4.6L137.6,103.6z"/>
	<path class="st2" d="M147,233.6c7.6-2.8,15.7-4.2,23.8-4.1c12.4,0.4,17.6,3.3,24.2,2.9s13.4-4.8,13.4-4.8l0.8,16.6
		c0,0-3.6,3.1-12.8,1.6s-24.3-3.5-31.9,0.1c-5,2.3-10.4,3.5-15.9,3.5L147,233.6z"/>
	<path class="st2" d="M143.2,144.4c4-3.2,8.8-5.3,13.8-6.1c8.2-1.2,9.3,2,17.3,3.1s25.2-5.1,25.2-5.1l-2.9,22.5c0,0-9.8,2.1-18.4,0
		s-29-0.1-31,3.6L143.2,144.4z"/>
	<path class="st2" d="M150.1,346.4c0,0,5-2.7,14.3-1.9s9.1,6.2,30,4.2c9.1-0.9,18.6,2.8,18.6,2.8l-1.9-22.3c0,0-20.7,5.3-27.6,2.5
		c-10.3-4.2-33.4,1.3-36-2.3L150.1,346.4z"/>
	<path class="st2" d="M204.1,214.7c-7.6,0.3-15.2,0.1-22.8-0.8c-10.7-1.3-22.5,0.6-22.5,0.6l-1.5,1.5l-1.1,3.5
		c0,0,16.3-0.1,27.1-1.5c8-0.9,16.2,0.3,23.7,3.4L204.1,214.7z"/>
	<path class="st2" d="M211.4,374.3c0,0-5.4,0.4-19,2.4s-40.9-2.3-40.9-2.3v-7.5c0,0,7.8-0.8,21.7,1.2c16.6,2.4,42-3.8,42-3.8
		L211.4,374.3z"/>
	<path class="st3" d="M276.4,95.3c0,0,5.2,9.3,18.5,14.9s18,11.2,21.6,13.8s6.7,6.5,16.7,5.7c0,0-7.7,15.1-7.9,16.7
		s-4.4,6.8-4.4,6.8s-9.7,0.6-16.4-6.8s-8.7-14.8-15.2-16.2s-20.8-9-22-14.1C267.3,116.2,272.1,98.9,276.4,95.3z"/>
	<path class="st3" d="M289,70.3c0,0,3.7,11.4,18.4,19.1s15.7,3.5,21.3,8.7s6.1,7.4,12.2,7.2l-1.6,8.3c0,0-15.2,2.9-38.3-19.5
		c-10.4-10.1-16.4-10.4-16.4-16.7L289,70.3z"/>
	<path class="st3" d="M269,192c0,0,9.6,1.4,15.8,4.2s20.6-2.1,20.6-2.1l4.6,6.6c-4.9,3-10.5,4.5-16.1,4.4c-9-0.3-27.2-7.9-30.7-3.8
		l0,0L269,192"/>
	<path class="st3" d="M258.6,238.5c0,0,4.7-2.2,16.1,0s27.8,3.2,33.5-3.9l4.6,17.9c-5,2.4-10.5,3.4-16,3.1
		c-8.5-0.7-14.2-5.7-20.3-2.9s-16,4.1-18.9,2.9L258.6,238.5"/>
	<path class="st3" d="M259.7,270.5c4.7-1.8,9.6-2.7,14.6-2.8c9.1-0.2,11.2,1.8,23,0c6.4-0.9,12.8-2.4,18.9-4.5l1.1,6.1
		c-3.6,2.7-7.9,4.4-12.3,4.9c-7.7,1-15.8-3.5-22.5-1.8s-19.5,8.1-21.5,7.3L259.7,270.5"/>
	<path class="st3" d="M271,340.3c0,0,9.2-11,21-11.2s21.6,2.2,29.4,0s11.4-0.6,11.4-0.6l2.9,14.6c-5.4,2.2-11.1,3.3-16.9,3.4
		c-10.1,0.3-18.1-3.7-27.7,0s-16.1,6.3-16.1,6.3L271,340.3"/>
	<path class="st3" d="M290.1,401.8c0,0,4.2,4.9,19.7,2.7s13.2-4.3,25.8-4.8s15.1-10,15.1-10l4.6,6.3c0,0-9.4,12.7-23.1,15
		s-41.1,0-41.1,0l-0.9-7"/>
	<path class="st4" d="M254.1,262.2c0.2,0.1,0.1-3,0.7,1.8c0.5,3.8,1.1,7.4,1.8,10.8c0.7,3.5,1.5,6.9,2.5,10.1
		c1.9,6.5,4,12.7,5.7,19.3l0.5,0.9c0.5,2.6,0.9,5.2,1,7.9c0.2,2.7,0.2,5.5,0.1,8.4c0,5.8-0.3,11.9,0.4,18.5c0.4,3.1,1.1,6.1,2,9
		c1,2.9,2.2,5.8,3.7,8.5c2.9,5.2,5.8,9.5,7.5,14s2.3,9.6,2.9,15c0.3,2.7,0.5,5.5,0.9,8.4s0.8,5.6,1.4,8.4c0-0.6,0-0.9,0.5,1.3
		c1.1,5.4,2.5,10.7,4.1,16c0.9,2.9,2,6,3.2,9c0.6,1.5,1.2,3.1,1.9,4.6s1.3,3.1,2.1,4.7c1,2,2.2,3.9,3.5,5.6c0.5,0.7,1.2,1.3,1.9,1.8
		c2.5,2.6,5.8,4.5,9.3,5.3c2.9,0.7,6,0.9,9,0.6c4.3-0.5,8.6-1.5,12.7-2.9c4.1-1.3,8-2.9,11.8-4.9c3.9-2,7.6-4.5,10.9-7.4
		c3.5-3,6.3-6.8,8.2-11c1.9-4.4,2.7-9.1,2.3-13.9c-0.5-4.6-1.9-9-4.2-13.1c-4.3-7.8-10-14-14.8-20.5c-2.4-3.1-4.4-6.5-6.1-10.1
		c-0.8-1.7-1.4-3.5-1.9-5.4c-0.4-1.9-0.7-3.8-0.9-5.7c-0.3-4-0.1-8.1-0.2-12.5c0.1-4.6-0.5-9.1-1.8-13.5l-0.6-1.7
		c-0.2-0.5-0.5-1.1-0.8-1.6c-0.5-1.1-1.1-2.1-1.8-3.1c-1.3-1.8-2.7-3.6-4.2-5.3c-1.4-1.5-2.6-3.1-3.7-4.9c-0.5-0.8-0.9-1.7-1.4-2.6
		s-0.7-1.8-1-2.8c-1.1-4-1.5-8.1-1.4-12.2c0-4.3,0.4-8.7,0.5-13.2c0.1-3.9-0.1-7.8-0.7-11.6c-0.7-3.8-1.9-7.5-3.4-11.1
		c-1.5-3.5-3-6.8-4.3-10.2c-0.7-1.7-1.2-3.4-1.7-5.1c-0.5-1.7-0.8-3.4-1-5.1c-0.5-5.1,0.6-10.6,1.7-16.4c0.6-3,1.1-6,1.3-9
		c0.3-3.2,0-6.4-0.9-9.5c-0.9-3-2.2-5.8-3.7-8.6c-1.4-2.5-2.5-5.1-3.3-7.9c-0.4-1.3-0.5-2.6-0.5-3.9c0-0.6,0-1.3,0.1-1.9
		c0.1-0.6,0.2-1.3,0.3-1.9c0.6-2.5,1.6-4.8,2.9-7c-0.6,0.5,0.3-1.8,2.6-5.3c1.1-1.7,2.6-3.7,4.1-5.9s3.1-4.5,4.5-6.9
		c5.9-9.4,10-18.7,7.1-14.5c3.6-6.6,6.7-13.5,9.3-20.6c1.6-4,2.8-8.2,3.7-12.5c0-1.4,0.1-2.7,0.2-4.1c0.1-1,0.2-2.2,0.3-3.6
		s0.2-3,0.3-4.9c0.3-4.7,0-9.5-0.6-14.2c-0.5-3.1-1.4-6.2-2.5-9.2c-0.7-1.7-1.4-3.3-2.4-4.9c-1-1.7-2.1-3.2-3.4-4.6
		c-2.4-2.5-5.2-4.5-8.3-6c-3.2-1.6-6.6-2.5-10.2-2.6c-2.9-0.1-5.8,0.6-8.3,2c-1.5,0.8-2.9,2-4,3.3c-1.2,1.6-1.1,1.5-0.2,0.6l0.4-0.4
		l0.4-0.3c0.3-0.3,0.5-0.5,0.8-0.8c0.6-0.6,1.3-1.1,2.1-1.5c1.3-0.8,2.7-1.3,4.2-1.6c0.5-0.1,0.8-0.1,0.7,0
		c-0.3,0.2-0.7,0.3-1.1,0.4c2.5-0.7,5.1-0.9,7.7-0.5c2.7,0.4,5.4,1.3,7.8,2.6c3.7,1.9,6.9,4.7,9.3,8.1c0.8,1.1,1.4,2.4,2,3.6
		c1.3,2.6,2.2,5.4,2.8,8.3c0.6,2.9,1,5.9,1,8.9c0,6.2-0.7,12.4-2.2,18.4c-0.7,3.1-1.6,6.1-2.6,9.1s-2.1,6-3.3,9
		c-2.4,5.9-5.2,11.7-8.3,17.3c-3.1,5.6-6.5,11-10.3,16.1c-1,1.3-1.9,2.5-2.9,3.9s-2,2.6-3.1,4.1c-2.2,3-4.1,6.2-5.7,9.5
		c-0.8,1.9-1.4,3.9-1.8,5.9c-0.4,2.1-0.4,4.3-0.2,6.4c0.3,2.1,0.7,4.1,1.5,6c0.7,1.7,1.4,3.4,2.3,5.1c1.5,2.7,2.8,5.4,3.9,8.3
		c0.8,2.5,1.1,5.2,0.9,7.9c-0.3,3.1-0.7,6.1-1.4,9.1c-0.7,3.4-1.3,6.9-1.6,10.3c-0.4,3.8-0.2,7.7,0.6,11.4c0.8,3.5,1.9,7,3.3,10.3
		c1.3,3.2,2.6,6.2,3.7,9.1c1.1,2.8,1.9,5.6,2.3,8.6c0.8,5.8,0.2,12.2-0.1,19c-0.2,3.6-0.2,7.2,0,10.7c0.3,3.9,1.2,7.8,2.7,11.4
		l1.4,2.7c0.5,0.9,1,1.7,1.6,2.5c1.1,1.6,2.3,3,3.4,4.3c2.2,2.6,4,4.8,4.9,7.2c1,2.3,1.6,4.8,1.8,7.4c0.3,3.4,0.2,7.8,0.2,13.2
		c0,3,0.2,6,0.6,9c0.2,1.7,0.6,3.4,1.1,5c0.5,1.7,1.1,3.4,1.8,5c2.9,6.6,7.5,12.5,11.9,18.3c2.3,2.9,4.5,5.8,6.5,8.9
		c2,2.9,3.6,6.1,4.7,9.5c0.5,1.6,0.8,3.3,0.9,5v1.3v1.3c-0.1,0.9-0.2,1.7-0.3,2.5c-0.7,3.5-2.3,6.7-4.7,9.3c-2.6,2.9-5.6,5.4-9,7.4
		c-3.7,2.1-7.5,3.9-11.5,5.2c-4,1.5-8.2,2.5-12.4,3.1c-4,0.4-7.7,0-10.2-1.9s-4.5-5.4-6.4-9.6c-1.9-4.1-3.5-8.4-4.9-12.7
		c-2.8-8.5-4.8-17.3-5.9-26.2c-0.6-4.4-0.8-8.9-1.5-13.6c-0.3-2.4-0.8-4.8-1.4-7.1c-0.6-2.4-1.5-4.7-2.5-7c-2-4.4-4.5-8.1-6.4-11.7
		c-1.9-3.2-3.3-6.7-4.1-10.4c-1.6-7.2-1.2-14.9-1.3-22.5c0-3.8-0.2-7.6-0.6-11.3c-0.4-3.6-1.2-7.1-2.1-10.5
		c-1.8-6.5-3.8-12.1-5.3-17.1c-1.3-4.3-2.3-8.7-3-13.1c-0.3-1.8-0.5-3.7-0.8-5.5c-0.9-8.8-1.1-17.7-0.7-26.5
		c0.2-4.6,0.4-9.2,0.7-13.9c0.1-4.5,0.6-8.9,1.3-13.4c0.4-1.9,0.9-3.8,1.8-5.6s2-3.6,3.2-5.2c1.5-2,2.8-4.1,3.9-6.4
		c0.6-1.2,1.1-2.6,1.4-3.9c0.3-1.3,0.5-2.7,0.6-4.1c0.1-1.3,0-2.7-0.2-4c-0.2-1.2-0.5-2.5-0.8-3.7c-0.3-1.1-0.7-2.3-1.1-3.4
		c-0.5-1-0.9-2.1-1.4-3c-1.9-3.9-3.9-7.2-5.4-10.3c-1.4-2.7-2.5-5.5-3.2-8.5c-0.6-3-0.6-6-0.3-9c0.8-6.2,3-12.5,5.5-18.9
		c-2.5,5.1-4.5,10.3-6.1,15.7c1.4-6.5,4.2-12.8,6.4-18.2s4-9.9,5-12.4c2.8-6.8,4.6-10.9,5.5-13.2s0.9-2.6,0.4-1.8
		c-1.1,1.6-4.4,7.8-7,12.9c-3.5,7.4,0.3-3-5,8.7c3.6-8.6,5.4-12.8,9.4-21.3c0.1-0.6-3,5.9-5.5,11.9s-4.8,11.3-3.8,8.2
		c3.5-8.2,7.4-17.5,11.6-25.8c-1,1.3-4.5,8.6-7.5,15.4s-5.7,13.2-5.6,12.4c0.9-2.3,3.5-8.3,6.1-13.9s5.1-10.7,5.2-11.7
		c-0.8,1.4-1.5,2.9-2.2,4.4c-1.2,2.6-2.7,5.8-3.6,7.9c2.9-6.6,5.5-12.4,7.8-17s4.1-8,5.1-9.9s1.1-2.3,0.1-0.9
		c-2.3,3.4-4.5,7-6.4,10.6c2.1-4.1,4.8-8.9,7.8-13.7s6.3-9.4,9.3-13.3v0.1l-2.6,3.3l-2.9,3.9c-0.9,1.3-1.9,2.7-2.7,3.9l-2.1,3.4
		c2.9-4.7,6-9.3,9.4-13.7c-0.6,0.7-1.2,1.4-2,2.2c-2.5,3.3-4.9,6.7-7.2,10.4c1-1.6,2-3.1,3-4.6s2.1-3,3.2-4.6
		c-1.8,2.1-3.7,4.7-5.7,7.5c-6,9.1-11.4,18.6-15.9,28.6c-2.9,6.5-5.7,13-8.4,19.5s-5.6,13.3-7,21c-0.4,1.9-0.6,3.9-0.6,5.9
		c-0.1,2,0,4.1,0.3,6.1c0.1,1,0.4,2,0.6,3.1s0.5,2,0.9,2.9c0.6,1.8,1.4,3.6,2.2,5.4c1.6,3.4,3.4,6.5,4.8,9.5c1.4,2.7,2.4,5.5,3,8.4
		c0.1,0.3,0.1,0.7,0.1,1l0.1,0.9l-0.1,0.9c0,0.3,0,0.6-0.1,0.9c-0.2,1.2-0.6,2.4-1.2,3.5c-1.2,2.4-3.4,5.1-5.5,8.5
		c-1.1,1.8-2,3.7-2.7,5.7c-0.7,1.9-1.2,3.9-1.5,5.9c-0.6,3.7-1,7.4-1.1,11.1C253.6,233.4,252.7,247.7,254.1,262.2z"/>
	<path class="st4" d="M198.7,208.1c0.1,0-0.1-0.6,0-0.8s0.3,0.1,1.1,2c2.3,5.8,3.7,11.8,4.2,18c0.6,6.1,0.9,12.2,1.1,19.2
		c0.1,0.3,0.2,0.7,0.4,1c0.1,10.9,0.3,22.2,0.4,33.8c0.6,21.3,1.2,42.6,1.9,63.7c0.1-0.6,0.2-0.8,0.3,1.3c0.3,8.8,0.5,21,0.8,33.6
		c0.1,1.9,0.1,3.7,0.2,5.5c0,0.7,0.1,1.3,0.3,2c0.1,5.7,0.1,10.6-0.1,15.2c-0.3,7.5-1.2,14.9-3.5,21.6c-1.2,3.4-2.7,6.6-4.7,9.5
		c-1.9,2.9-4.2,5.4-7,7.4c-0.7,0.5-1.4,0.9-2.1,1.3c-0.7,0.4-1.4,0.7-2.2,0.9c-0.7,0.3-1.5,0.5-2.3,0.6c-0.4,0.1-0.8,0.1-1.2,0.1
		c-0.4,0.1-0.8,0.1-1.2,0.1c-3.3,0-6.6-0.9-9.4-2.6c-3.1-1.8-5.8-4.1-8.1-6.8c-2.4-2.8-4.4-5.9-5.9-9.3c-3.1-7.1-5.1-14.6-5.8-22.3
		c-0.8-8-1.2-16-1-24.1c0-8.2,0.2-16.5-0.3-25c-0.2-4.3-0.7-8.5-1.4-12.8s-1.7-8.5-2.6-12.6c-0.8-3.4-1.5-6.9-2-10.4
		c-0.4-3.4-0.5-6.9-0.3-10.4c0.4-7,1.6-14,2.2-21c0.2-2.6,0.3-5.3,0.3-8.1s-0.2-5.6-0.4-8.4c-0.4-5.7-1.1-11.5-1.3-17.2
		c-0.1-2.8,0-5.7,0.2-8.5c0.3-2.7,0.8-5.4,1.5-8.1c1.6-5,3.7-9.8,6.2-14.4c-0.6,0.6,0.3-1.8,1.9-5.4c0.8-1.8,1.8-4,2.7-6.4
		c1-2.5,1.7-5,2.3-7.6c0.6-2.5,0.9-5,1-7.5c0.1-2,0-4-0.3-5.9c-0.2-0.8-0.3-1.4-0.4-1.9c-0.1-0.3-0.2-0.7-0.4-1s-0.3,0-0.2,1.1
		c-0.5-3.4-1.9-6.6-4.1-9.3c-2.2-2.8-5.2-5.4-7.2-8.3c-1.7-2.5-3.1-5.2-4-8.1c-0.8-2.2-1.2-3.6-1.3-3.8c-0.9-1.4-2.2-4.6-4.2-11.8
		c-1-3.6-2.1-8.2-3.2-14.2s-2.3-13.3-3.3-22.2c-0.7-7-1.1-15.9-1.2-23.7s0.2-14.4,0.2-16.9c0-3.9-0.4,0.6-0.6,5.2s-0.4,9.1-0.6,5.2
		c-0.2,26.1,2.8,52.1,8.8,77.5c0.8,3.4,1.8,6.8,3.2,10c0.8,1.8,1.7,3.4,2.8,5c1.1,1.5,2.2,2.9,3.5,4.2c2,1.9,3.8,4.1,5.4,6.4
		c1.2,2.1,1.9,4.5,2.1,6.9c0.3,5.6-0.6,11.1-2.7,16.3c-1.1,2.8-2.3,5.5-3.7,8.1c-1.4,2.8-2.9,5.6-4.4,8.5c-1.5,3-2.9,6.2-4,9.4
		c-1.2,3.3-2,6.8-2.4,10.3c-0.9,7-0.4,13.7,0.2,20.1c0.6,6.4,1.3,12.6,1.2,18.5s-1.1,12-1.9,18.5c-0.4,3.2-0.8,6.5-1,10
		s-0.1,7,0.3,10.4c0.8,6.9,2.6,13.2,3.7,19.3c2.3,12,2,24.6,1.8,37.6c0,4.4-0.2,12.1,0.5,22.5c0.4,5.9,1.3,11.7,2.6,17.4
		c0.8,3.3,1.8,6.6,3.1,9.8c1.4,3.5,3.1,6.9,5.2,10c2.3,3.4,5.1,6.4,8.2,9.1c3.4,2.9,7.4,5.1,11.8,6.3c2.3,0.7,4.8,1,7.2,0.9l1.9-0.1
		c0.3,0,0.6,0,0.9-0.1l0.9-0.2l1.9-0.4l1.8-0.6c2.3-0.9,4.5-2,6.6-3.5c1.9-1.4,3.7-3.1,5.4-4.9c3.1-3.6,5.6-7.6,7.5-12
		c1.9-4.3,3.2-8.8,4.1-13.5c1.7-9.2,1.8-18.5,1.7-27.5c-0.9-35.9-1.9-72.6-2.7-104.1c-0.4-15.8-0.8-30.3-1.1-42.8
		c-0.2-6.3-0.6-12.2-1.3-17.5c-0.6-4.7-1.6-9.3-2.9-13.9c-0.3-1-0.6-1.9-0.9-2.8s-0.7-1.9-1.1-2.8l-0.6-1.6l-0.7-1.6
		c-0.5-1.1-1-2.1-1.5-3.1c-1.1-2-2.2-3.9-3.2-5.8c-2.1-3.7-4-7.3-4.7-10.8c-0.4-1.8-0.5-3.6-0.3-5.4c0.2-2,0.5-4,1-6
		c0.5-2.1,1.1-4.2,1.6-6.5s1.1-4.5,1.5-6.8c0.9-4.5,1.5-9.1,2-13.5s0.7-8.8,0.8-13c0.3-8.5,0-16.4-0.4-23.6
		c-0.4-6.6-1-13.1-1.6-19.7c-0.3-3.3-0.6-6.5-1-9.9c-0.4-3.5-1.1-6.9-2.1-10.3c0.8,3,1.3,6.1,1.5,9.2c0.2,2.9,0.3,5.5,0.4,8
		c-0.2-3.3-0.4-6.7-0.9-10c-0.4-3.2-1.2-6.4-2.3-9.5c-1-2.6-2.5-5.1-4.4-7.2c-1.3-1.4-2.7-2.7-4.3-3.8c-2.6-1.8-5.4-3.3-8.3-4.3
		c-1.7-0.6-3.5-1-5.3-1.2c-0.6-0.1-1.1-0.1-1.5-0.2c-0.3,0-0.5,0-0.8,0.1c-0.3,0-0.1,0.1,0.4,0.2s1.3,0.3,2.3,0.6
		c1.2,0.3,2.3,0.7,3.4,1.1c0.7,0.2,1.3,0.5,1.9,0.8c0.7,0.3,1.4,0.6,2,1c1.3,0.7,2.5,1.5,3.6,2.4c0.9,0.6,1.7,1.3,2.3,2.1
		c0.2,0.3-0.1,0.2-0.2,0.3s-0.1,0.2,0.4,0.8c1.2,1.3,2.4,2.8,3.3,4.3c-2-3-4.7-5.5-7.8-7.4s-6.6-3.1-10.2-3.7
		c-0.1,0,0.2,0.1,0.8,0.2c0.3,0.1,0.7,0.1,1.2,0.2l1.5,0.5c1.3,0.4,2.6,0.8,3.8,1.4c1.4,0.7,2.7,1.4,4,2.2c2.1,1.4,4,3.1,5.6,5.1
		c1,1.4,1.3,1.9,0.3,0.8c-2.6-3.5-6-6.2-10-8s-8.4-2.6-12.9-2.4c0.4,0.1,1.1,0,2.1,0.1l1.7,0.2c0.7,0.1,1.3,0.2,2,0.3
		c3.2,0.6,6.4,1.7,9.2,3.4c2.6,1.5,4.9,3.5,6.8,5.8c1.4,1.8,2,3.1,1.7,2.9c-0.9-1.6-2.1-3.1-3.4-4.4c-1.9-1.9-4.1-3.6-6.5-4.8
		l-0.9-0.5c-0.3-0.2-0.6-0.3-0.9-0.4l-1.8-0.8l-1.8-0.5l-0.8-0.2l-0.8-0.1c-1.3-0.3-2.7-0.4-4-0.3c-0.2,0.1,1.9,0.1,4.4,0.7
		c2.5,0.6,5,1.5,7.2,2.8c-0.7-0.3-1.4-0.8-2.1-1.1l-2.1-0.8c-1.4-0.4-2.8-0.8-4.3-1l-1-0.2c-0.3,0-0.7,0-1-0.1c-0.7,0-1.3-0.1-2-0.1
		c-1.2,0-2.4,0.1-3.6,0.3c-3.3,0.4-6.5,1.4-9.4,3c-1.6,1-1.9,1.3-0.5,0.7c3.3-1.4,6.7-2.3,10.3-2.6c-4.5,0.5-8.9,1.9-12.7,4.3
		c-4,2.5-7.4,5.8-9.9,9.8h0.1c1.5-2.2,3.1-4.2,5.1-5.9l0.8-0.7l0.8-0.6c0.5-0.4,1-0.9,1.6-1.2l1.5-1l0.7-0.5l0.7-0.4
		c-4.2,2.4-7.7,5.7-10.5,9.6c0.5-0.6,1-1.3,1.7-1.9c2.3-2.8,5.1-5.1,8.1-7c-2.7,1.6-5.1,3.7-7.2,6c0.8-0.9,1.8-1.6,2.8-2.5
		c0.5-0.4,1.1-0.8,1.7-1.2c0.3-0.2,0.6-0.4,0.9-0.6l0.9-0.5c1.1-0.7,2.3-1.4,3.6-2c0.6-0.3,1.2-0.5,1.9-0.7c0.6-0.3,1.2-0.5,1.9-0.6
		c1.2-0.4,2.4-0.6,3.7-0.8c0.6-0.1,1.2-0.1,1.8-0.2l0.9-0.1c0.3,0,0.6,0,0.9,0c3.8,0,7.5,0.7,10.9,2.3c0.3,0.1,0.7,0.3,1,0.5
		l0.9,0.5c0.6,0.3,1.2,0.7,1.8,1.1c1.2,0.8,2.2,1.7,3.2,2.7c1.9,1.9,3.4,4.2,4.3,6.7c1.9,5.2,2.1,11.9,2.6,18.7
		c0.9,13.4,1.7,26.8,1.4,40c-0.1,6.6-0.7,13.1-1.5,19.7c-0.4,3.2-1,6.4-1.6,9.6s-1.4,6.2-2.3,9.6c-1.1,3.6-1.7,7.3-2,11
		c-0.2,4.1,0.5,8.1,2,11.9c1.4,3.4,3,6.7,4.9,9.8C195.9,202.4,197.4,205.2,198.7,208.1z"/>
</g>
</svg>
